# https://github.com/mikedh/trimesh
v 0.04804050 -0.02327960 -0.01359396
v 0.04120206 0.03454869 -0.01362361
v 0.03828165 0.03658845 -0.01362478
v 0.03461983 0.03832595 -0.01362568
v 0.05018653 -0.00043494 -0.01360560
v 0.04935857 0.01639213 -0.01361432
v 0.04978660 -0.01191626 -0.01359958
v 0.04572218 0.02896990 -0.01362186
v -0.01510933 -0.02085115 -0.00000000
v 0.00437338 -0.02537590 0.00000000
v 0.01278870 -0.02234975 -0.00000000
v 0.02416286 -0.00890049 0.00000000
v 0.02574981 -0.00009954 -0.00000001
v 0.02423095 0.00871341 -0.00000000
v 0.01978948 0.01647540 -0.00000001
v 0.01296111 0.02225021 0.00000001
v 0.00456943 0.02534132 0.00000000
v -0.00437338 0.02537590 -0.00000000
v -0.01278870 0.02234977 0.00000000
v -0.01966152 0.01662792 -0.00000000
v -0.02416286 0.00890049 -0.00000000
v -0.02574981 0.00009954 0.00000001
v -0.01978948 -0.01647540 0.00000001
v -0.01296111 -0.02225021 -0.00000001
v -0.00000000 -0.00000000 0.00000001
v -0.02423095 -0.00871342 0.00000000
v 0.01966152 -0.01662790 0.00000000
v -0.00456943 -0.02534132 -0.00000000
v 0.02379988 -0.02590336 -0.09636212
v 0.00515784 -0.02358011 -0.13821387
v 0.01747406 -0.03007170 -0.09941239
v 0.02552175 -0.03153611 -0.07672407
v 0.01301402 -0.02446529 -0.12228660
v 0.01572171 -0.02479548 -0.11633549
v 0.02427862 -0.03237377 -0.07629938
v -0.00825078 -0.02222924 -0.16223015
v 0.03889741 -0.02702237 -0.04983622
v 0.04404502 -0.02998878 -0.02096084
v 0.03655882 -0.02486252 -0.06211223
v 0.03452359 -0.02610163 -0.06747925
v 0.03157593 -0.02398246 -0.07881752
v 0.03320470 -0.02424468 -0.07385327
v 0.03092115 -0.02577799 -0.07856954
v 0.03068333 -0.02623691 -0.07847357
v 0.03810313 -0.02844212 -0.04968971
v 0.03025324 -0.02689632 -0.07832903
v 0.04161404 -0.01352372 -0.05052605
v 0.04220153 0.00052858 -0.05064202
v 0.04509140 0.01451662 -0.03549397
v 0.04521829 -0.01354362 -0.03558185
v 0.03279406 0.01347344 -0.07933149
v 0.03617018 0.02150421 -0.06486009
v 0.04187325 0.02682910 -0.03581956
v 0.04019242 0.02140925 -0.05009510
v 0.03457396 0.02491661 -0.06736741
v 0.03799437 0.00054219 -0.06540246
v 0.03345114 -0.00040412 -0.07964672
v 0.03752337 -0.01352505 -0.06530664
v 0.03328167 -0.00880043 -0.07958297
v 0.04069076 -0.02578343 -0.04445289
v 0.04576555 0.00049513 -0.03568579
v 0.04879447 -0.00043336 -0.02097229
v 0.04879335 -0.00058386 -0.02097207
v 0.04480445 0.02773795 -0.02099031
v 0.04388002 0.02137508 -0.03519797
v 0.04639389 0.02374535 -0.02098528
v 0.04062794 -0.02045020 -0.05029469
v 0.04421721 -0.02046306 -0.03536397
v 0.04862571 -0.00841934 -0.02096721
v 0.03666975 -0.02049100 -0.06508468
v 0.03723294 0.01458450 -0.06517048
v 0.03308691 0.00986466 -0.07946991
v 0.04746781 0.01940553 -0.02098211
v 0.04798142 0.01619987 -0.02098144
v 0.03258093 -0.01768848 -0.07927333
v 0.04139626 0.01454843 -0.05041182
v 0.03079807 0.02521972 -0.07843911
v 0.03395972 0.02641653 -0.06726075
v 0.03768275 0.02564896 -0.05518544
v 0.03823473 0.02745771 -0.04969878
v 0.04401125 0.02918721 -0.02099155
v 0.03787440 0.02896165 -0.04706150
v 0.03435094 0.02805131 -0.06230941
v 0.03110553 0.02736555 -0.07379757
v 0.01691478 0.03496473 -0.07362553
v 0.04310477 0.03056784 -0.02099326
v 0.04181091 0.03217221 -0.02099686
v 0.03781429 0.03551359 -0.02100013
v 0.03367360 0.03222983 -0.04916886
v 0.03544595 0.03681390 -0.02100144
v 0.02926249 0.03487735 -0.04834581
v 0.03427457 0.03733809 -0.02100221
v 0.02447774 0.03663841 -0.04736258
v 0.02104675 0.03357676 -0.07505914
v 0.02595660 0.03389573 -0.06261889
v 0.03034208 0.03128064 -0.06348524
v 0.02431113 0.03190742 -0.07618578
v 0.02683838 0.03006343 -0.07704977
v 0.02972487 0.02710893 -0.07802433
v 0.02719947 0.02974899 -0.07717244
v 0.01405716 0.02459471 -0.11924684
v 0.01268927 0.02804103 -0.11438867
v -0.00676474 0.02858613 -0.14811480
v -0.00761957 0.02920171 -0.14771831
v 0.01974598 0.02914983 -0.09625473
v 0.01594306 0.03175166 -0.09448040
v -0.00285330 0.03176088 -0.12858702
v -0.00406116 0.02609637 -0.14935890
v 0.00468757 0.02704364 -0.13208674
v 0.00663504 0.02363583 -0.13496311
v 0.01226416 0.02435295 -0.12321171
v 0.00900364 0.03069613 -0.11268897
v 0.00113845 0.02982528 -0.13045380
v 0.00490984 0.03250125 -0.11077552
v 0.02279428 0.02591202 -0.09766752
v 0.01972103 0.02541712 -0.10576835
v 0.01175038 0.03349415 -0.09252152
v -0.00177633 0.02309114 -0.15038091
v -0.03948242 0.03525625 -0.15858687
v -0.03904296 0.03518276 -0.15953179
v -0.04089505 0.03543054 -0.15565319
v -0.03949858 0.03525873 -0.15855326
v -0.00819136 0.02193141 -0.16210806
v -0.01081171 0.02557639 -0.16076773
v -0.00987485 0.03054087 -0.14667368
v -0.04227843 0.03552742 -0.15278287
v -0.04254338 0.03550546 -0.15279797
v -0.01871754 -0.02123941 -0.17895997
v 0.02513083 -0.02301088 -0.09687924
v -0.00782944 -0.02140722 -0.16243416
v -0.00703455 -0.01924768 -0.16277836
v -0.00394576 -0.01956258 -0.15758763
v 0.00592109 -0.02218293 -0.13855772
v 0.01651260 -0.02342079 -0.11666816
v 0.02459934 -0.02452956 -0.09667371
v 0.02190321 -0.02562348 -0.10141344
v 0.03113359 0.02424336 -0.07854991
v 0.02018239 0.02240467 -0.10857809
v 0.02299074 0.01275538 -0.10595545
v 0.02577226 0.02330847 -0.09382787
v 0.02819442 0.01291273 -0.09239239
v 0.03227366 0.01799617 -0.07908520
v 0.01361084 0.02145776 -0.12374447
v 0.01435190 0.02155929 -0.12212680
v 0.01732842 0.01228933 -0.11934628
v 0.00745561 0.02065331 -0.13650244
v 0.00453845 0.01107301 -0.14548285
v -0.00261873 0.01071704 -0.15813591
v -0.01032206 0.01079190 -0.17043595
v -0.00564525 0.01909975 -0.16043249
v -0.01409195 0.01817661 -0.17405784
v -0.01141542 0.01846193 -0.16987883
v -0.01930834 -0.01804851 -0.18193959
v -0.01764539 -0.01820524 -0.17948060
v -0.01090803 -0.01586726 -0.17018268
v -0.01144029 -0.01880417 -0.16992459
v 0.02777007 -0.01852681 -0.09223802
v 0.02255634 -0.01832356 -0.10579280
v 0.01704587 -0.02190396 -0.11687835
v 0.00646767 -0.02066604 -0.13878126
v 0.02839057 -0.01272673 -0.09251394
v -0.01032599 -0.01099945 -0.17046784
v -0.00321842 -0.01583379 -0.15790178
v 0.00396466 -0.01628864 -0.14527205
v -0.00262434 -0.01098722 -0.15816009
v 0.00456413 -0.01128335 -0.14552705
v -0.00985737 -0.00010328 -0.17068662
v -0.00214560 -0.00013462 -0.15835974
v 0.01117215 0.01166284 -0.13253215
v 0.01685592 -0.01775965 -0.11917128
v 0.01746203 -0.01222831 -0.11945239
v 0.01064682 -0.01700589 -0.13234185
v -0.01809962 -0.00025767 -0.18266828
v 0.01124921 -0.01174474 -0.13260819
v 0.00503782 -0.00010472 -0.14571804
v 0.01170984 -0.00004054 -0.13279870
v 0.02316986 -0.01259061 -0.10607774
v 0.01790868 0.00003089 -0.11964570
v 0.02360882 0.00008274 -0.10626926
v 0.02883002 0.00009333 -0.09269846
v 0.02512616 0.02630706 -0.09117551
v -0.00049640 0.02052354 -0.15091987
v 0.00286266 0.02167831 -0.14408296
v -0.00023679 0.01972223 -0.15101145
v 0.01305455 0.02297053 -0.12353614
v 0.02192829 0.02427428 -0.10251088
v -0.01526449 0.02116324 -0.17351075
v -0.00151665 0.02268378 -0.15049481
v -0.02242590 0.02048243 -0.18423526
v -0.03730636 0.03475036 -0.16407195
v -0.03585088 0.03405352 -0.17024857
v -0.03581821 0.03402815 -0.17046031
v -0.03478401 0.03239696 -0.18003923
v -0.03463220 0.03121454 -0.18448029
v -0.04106544 0.03526516 -0.15783019
v -0.04063020 0.03519160 -0.15877002
v -0.03864647 0.03510487 -0.16044088
v -0.04021354 0.03511128 -0.15971772
v -0.04195254 0.03542272 -0.15537593
v -0.02032517 -0.02109928 -0.18140034
v -0.04857691 0.00026970 -0.21537961
v -0.03152423 0.01601730 -0.19810048
v -0.02521868 0.00915854 -0.19147825
v -0.03169007 0.01601784 -0.19829746
v -0.03154738 0.01637587 -0.19805208
v -0.03242881 0.00879910 -0.20018926
v -0.03579335 0.01603070 -0.20294979
v -0.03185625 0.01601837 -0.19849414
v -0.04887069 0.01492569 -0.21522540
v -0.04031061 0.00833111 -0.20828764
v -0.04062675 0.01563965 -0.20795427
v -0.04034821 -0.00883396 -0.20831245
v -0.04867914 -0.00792621 -0.21534283
v -0.04689609 -0.01569577 -0.21357475
v -0.02449144 -0.01759283 -0.18904766
v -0.02522698 -0.00963321 -0.19152369
v -0.02876849 -0.01723265 -0.19460051
v -0.03471826 -0.01672051 -0.20174444
v -0.03020074 0.01662124 -0.19636753
v -0.02987732 0.01665019 -0.19596319
v -0.01841052 -0.00978628 -0.18249305
v -0.01840924 0.00929058 -0.18244652
v -0.02494560 -0.00025092 -0.19169745
v -0.03222983 -0.00025250 -0.20037618
v -0.03245046 -0.00928268 -0.20022653
v -0.04020220 -0.00025846 -0.20842387
v -0.01931391 0.01763848 -0.18184678
v -0.02986063 0.02402817 -0.19072203
v -0.02778155 0.02004369 -0.19171430
v -0.02714682 0.02090753 -0.19017269
v -0.03462109 0.03094001 -0.18532994
v -0.03267879 0.02673548 -0.19103658
v -0.03440610 0.02835643 -0.19078991
v -0.03067814 0.01980234 -0.19554748
v -0.03087670 0.02264470 -0.19355513
v -0.03099787 0.01977525 -0.19595769
v -0.03399369 0.02645106 -0.19324096
v -0.03307956 0.02389078 -0.19508445
v -0.03655512 0.03277900 -0.17766897
v -0.03593704 0.03356358 -0.17351428
v -0.03533246 0.03357111 -0.17367114
v -0.03692847 0.03406882 -0.16973975
v -0.03720522 0.03422191 -0.16848996
v -0.03631314 0.03433931 -0.16778393
v -0.03897973 0.03482517 -0.16273578
v -0.02039216 0.02065513 -0.18129575
v -0.06631486 -0.01746936 -0.22468947
v -0.12291033 -0.01721572 -0.15668985
v -0.06753924 -0.01746480 -0.22499792
v -0.06692530 -0.01746709 -0.22485058
v -0.09895071 -0.01734168 -0.22171240
v -0.08939834 -0.01738028 -0.22497539
v -0.12724932 -0.01720739 -0.17314495
v -0.12721531 -0.01721189 -0.18168616
v -0.12569869 -0.01722206 -0.19009171
v -0.11844547 -0.01725801 -0.20548609
v -0.02536749 -0.02072023 -0.18859135
v -0.02412922 -0.02081230 -0.18685769
v -0.02606274 -0.02066769 -0.18954924
v -0.03155876 0.01657082 -0.19802262
v -0.03155437 0.01649651 -0.19803417
v -0.03157586 0.01678984 -0.19798695
v -0.03155934 0.01657970 -0.19802122
v -0.03159026 0.01693815 -0.19796145
v -0.03173832 -0.01904348 -0.19761415
v -0.02665506 -0.02062229 -0.19036083
v -0.03188654 -0.02009925 -0.19731863
v -0.04066079 -0.01620635 -0.20795627
v -0.03746002 -0.01648115 -0.20471954
v -0.03157829 -0.01758993 -0.19793051
v -0.03171574 -0.01885058 -0.19766296
v -0.04825321 -0.01753544 -0.21451309
v -0.04905562 -0.01753121 -0.21518177
v -0.04895049 -0.01553769 -0.21522729
v -0.05328365 0.01609012 -0.21839501
v -0.04892132 0.01607578 -0.21520054
v -0.05085216 -0.00085463 -0.21701245
v -0.05100246 -0.01300236 -0.21687555
v -0.05327331 -0.00893104 -0.21853375
v -0.05017900 -0.01752881 -0.21605495
v -0.04857757 -0.00015664 -0.21537983
v -0.04705220 0.01507507 -0.21375954
v -0.04873841 0.01607514 -0.21505417
v -0.03723445 0.01599556 -0.20448853
v -0.04717611 0.01606978 -0.21370953
v -0.04273847 0.01605461 -0.20986973
v -0.03723549 0.01595562 -0.20449600
v -0.03641694 0.01603580 -0.20361869
v -0.03682514 0.01599576 -0.20405835
v -0.03723334 0.01603609 -0.20448051
v -0.03682408 0.01603595 -0.20405062
v -0.03643217 0.01616304 -0.20360385
v -0.03584104 0.01629335 -0.20290411
v -0.03517492 0.01602926 -0.20227627
v -0.03349812 0.01602374 -0.20040053
v -0.03522390 0.01629195 -0.20222999
v -0.03278328 0.02214454 -0.19628981
v -0.03230490 0.02047881 -0.19700673
v -0.03206844 0.01967570 -0.19728470
v -0.03296824 0.02280350 -0.19594920
v -0.03310041 0.02327739 -0.19568296
v -0.03328996 0.02396474 -0.19526140
v -0.03656816 0.03277810 -0.17766830
v -0.03650659 0.03319437 -0.17551693
v -0.03688413 0.03403820 -0.16996828
v -0.03654161 0.03355603 -0.17335741
v -0.12281806 0.00569638 -0.15670331
v -0.12259151 0.00941325 -0.15680313
v -0.12179019 0.01208510 -0.15716951
v -0.11995392 0.01473642 -0.15801352
v -0.03761523 -0.01757086 -0.20465741
v -0.05341480 -0.01751600 -0.21838035
v -0.06196071 -0.01748612 -0.22314638
v -0.06028010 -0.01749243 -0.22237983
v -0.05677567 -0.01750534 -0.22050244
v -0.04191140 -0.01755681 -0.20891383
v -0.04708456 -0.01753798 -0.21352127
v -0.03544330 -0.01757782 -0.20234446
v -0.11422280 0.01641493 -0.20207484
v -0.11562638 0.01642146 -0.19991010
v -0.11706813 0.01642835 -0.19734472
v -0.11577336 0.01469683 -0.20370278
v -0.11979958 0.01471595 -0.19679278
v -0.11780414 0.01643196 -0.19585662
v -0.11930817 0.01643962 -0.19225538
v -0.12398480 0.01474000 -0.18141825
v -0.12256473 0.01473047 -0.18928860
v -0.12089482 0.01644851 -0.18687291
v -0.12043680 0.01644580 -0.18871203
v -0.12133931 0.01645896 -0.16983931
v -0.12181912 0.01645888 -0.17360465
v -0.12401663 0.01474423 -0.17342089
v -0.12193880 0.01645833 -0.17557384
v -0.12178290 0.01645481 -0.18128298
v -0.12102518 0.01645859 -0.16819993
v -0.12265925 0.01474302 -0.16553949
v -0.12052680 0.01645774 -0.16610092
v -0.10627364 0.00560127 -0.21747971
v -0.11283784 0.00562944 -0.21201603
v -0.10636453 -0.01731084 -0.21747130
v -0.11292928 -0.01728267 -0.21200718
v -0.12265323 0.00567451 -0.19811620
v -0.12274549 -0.01723759 -0.19810620
v -0.12560618 0.00569004 -0.19010238
v -0.12712269 0.00570021 -0.18169755
v -0.12715667 0.00570471 -0.17315704
v -0.12570712 0.00570343 -0.16474038
v -0.12579963 -0.01720868 -0.16472760
v -0.12284319 0.00016054 -0.15669875
v -0.10612600 0.00931859 -0.21728966
v -0.11265890 0.00934662 -0.21185204
v -0.11835358 0.00565411 -0.20549549
v -0.11814832 0.00937117 -0.20536260
v -0.12242747 0.00939148 -0.19801851
v -0.12536633 0.00940694 -0.19004291
v -0.12687561 0.00941705 -0.18167816
v -0.12690943 0.00942154 -0.17317839
v -0.12546679 0.00942026 -0.16480187
v -0.11203503 0.01201968 -0.21123499
v -0.12603098 0.01209326 -0.17325222
v -0.12461411 0.01209201 -0.16502535
v -0.12599777 0.01208885 -0.18160015
v -0.12451545 0.01207891 -0.18981548
v -0.12162909 0.01206374 -0.19764858
v -0.11742639 0.01204378 -0.20486148
v -0.07743017 0.01617845 -0.22623079
v -0.07308062 0.01616178 -0.22596069
v -0.06740934 0.01614036 -0.22501515
v -0.07756007 -0.01742668 -0.22621363
v -0.06747208 -0.00008852 -0.22500683
v -0.08926842 0.01622481 -0.22499253
v -0.09888353 0.00003458 -0.22172131
v -0.09061840 0.01623019 -0.22466180
v -0.06003251 -0.00068888 -0.22237585
v -0.06652507 0.01613710 -0.22479783
v -0.05320657 -0.00014038 -0.21858247
v -0.05328889 0.01620020 -0.21838674
v -0.04894362 0.01627639 -0.21517150
v -0.05330424 0.01630622 -0.21836358
v -0.05333474 0.01641063 -0.21831813
v -0.05335990 0.01646313 -0.21828081
v -0.04809809 0.01636276 -0.21438874
v -0.04807194 0.01627423 -0.21442221
v -0.04719154 0.01618282 -0.21369028
v -0.04901069 0.01644807 -0.21508636
v -0.04897085 0.01636866 -0.21513683
v -0.03726687 0.01624116 -0.20444810
v -0.04281049 0.01635226 -0.20978940
v -0.03685584 0.01623919 -0.20401983
v -0.03342696 0.02445779 -0.19493262
v -0.06005105 0.01611362 -0.22234659
v -0.06006205 0.01632956 -0.22231477
v -0.06009707 0.01648660 -0.22222495
v -0.06741565 0.01635670 -0.22498392
v -0.06743620 0.01651376 -0.22489111
v -0.06747060 0.01660956 -0.22473852
v -0.06015893 0.01658262 -0.22208060
v -0.09060945 0.01644582 -0.22463058
v -0.09869999 0.01673154 -0.22147197
v -0.09058483 0.01660269 -0.22453812
v -0.09876596 0.01663621 -0.22161406
v -0.09880649 0.01647953 -0.22170049
v -0.09882078 0.01626339 -0.22172956
v -0.09054510 0.01669846 -0.22438656
v -0.08191055 0.01619582 -0.22610527
v -0.08190735 0.01641183 -0.22607321
v -0.08189973 0.01656875 -0.22597808
v -0.08188784 0.01666449 -0.22582193
v -0.07308324 0.01637777 -0.22592871
v -0.07310914 0.01663070 -0.22567824
v -0.07309282 0.01653481 -0.22583389
v -0.12032557 0.01675668 -0.16833846
v -0.11997429 0.01645657 -0.16418423
v -0.12125289 0.01675586 -0.17654394
v -0.12059234 0.01674928 -0.18477619
v -0.11836147 0.01673629 -0.19274846
v -0.12129206 0.01645105 -0.18490753
v -0.11502001 0.01672029 -0.19953755
v 0.03886856 -0.02862839 -0.04623019
v 0.02747042 -0.02994763 -0.07738749
v 0.03156997 -0.03153535 -0.06152096
v 0.02733672 -0.03437553 -0.06045392
v 0.04388392 -0.02994575 -0.02179948
v 0.03372829 -0.02749868 -0.06724555
v 0.04050852 -0.03409972 -0.02165206
v 0.03890375 -0.03359076 -0.02966469
v 0.03457692 -0.03661317 -0.02931364
v 0.03117078 -0.03548570 -0.04493149
v 0.03544806 -0.03255489 -0.04563995
v 0.04227747 -0.02951472 -0.02995690
v 0.03613172 -0.03717120 -0.02147547
v 0.04547990 -0.02701696 -0.02096008
v 0.04848538 -0.01103527 -0.02096642
v 0.04917105 -0.01111859 -0.01736242
v 0.04797686 -0.01654169 -0.02096304
v 0.04796478 -0.02087629 -0.01735956
v 0.04691865 -0.02246623 -0.02095807
v 0.05018588 -0.00058548 -0.01360552
v 0.04905999 -0.01836797 -0.01359639
v 0.02992088 0.03977601 -0.01362665
v 0.02970463 0.03886478 -0.02100729
v 0.02779924 0.04024437 -0.01362655
v 0.02645832 0.03959908 -0.02101194
v 0.04732601 0.02535625 -0.01361893
v 0.04372095 0.03197923 -0.01362244
v 0.04320005 0.03259722 -0.01362261
v 0.04067047 0.03332785 -0.02099874
v 0.04960861 0.01425172 -0.01361332
v 0.04832643 0.01306109 -0.02097958
v 0.04818438 0.01450288 -0.02098055
v 0.04867200 0.02048296 -0.01361656
v 0.05012899 0.00543302 -0.01360878
v 0.04876896 0.00377762 -0.02097483
v 0.00051982 0.04329936 -0.00052770
v 0.01083930 0.04323148 -0.00052732
v 0.05238468 -0.00043674 -0.00050356
v 0.05236448 0.00341286 -0.00050553
v 0.05227292 0.00711116 -0.00050743
v 0.02040211 0.04271545 -0.00052675
v 0.01507006 0.04307404 -0.00052711
v 0.05209814 0.01065830 -0.00050927
v 0.05182664 0.01405396 -0.00051100
v 0.05013166 0.02376179 -0.00051604
v 0.05144211 0.01729754 -0.00051269
v 0.05092498 0.02038798 -0.00051429
v 0.05025113 0.02332369 -0.00051581
v 0.03465511 0.04010231 -0.00052494
v 0.03157056 0.04098570 -0.00052549
v 0.02812931 0.04171547 -0.00052597
v 0.04291348 0.03574369 -0.00052243
v 0.04255964 0.03602907 -0.00052259
v 0.04861578 0.02804508 -0.00051829
v 0.04764571 0.02999963 -0.00051932
v 0.04208800 0.03638966 -0.00052278
v 0.04018141 0.03765062 -0.00052350
v 0.03806942 0.03875842 -0.00052414
v 0.03572799 0.03972847 -0.00052471
v 0.04671870 0.03152149 -0.00052014
v 0.04548103 0.03318360 -0.00052103
v 0.04409830 0.03468132 -0.00052184
v 0.00523168 -0.04382192 -0.00048287
v 0.01006512 -0.04379024 -0.00048273
v 0.05063456 -0.02186421 -0.00049263
v 0.05125728 -0.01847832 -0.00049434
v 0.05163875 -0.01561375 -0.00049580
v 0.05175703 -0.01451242 -0.00049636
v 0.01050338 -0.04378244 -0.00048272
v 0.01468520 -0.04365977 -0.00048264
v 0.01909094 -0.04341468 -0.00048261
v 0.02328165 -0.04303447 -0.00048268
v 0.02590166 -0.04270062 -0.00048277
v 0.02728007 -0.04248838 -0.00048282
v 0.02998096 -0.04198299 -0.00048300
v 0.05214927 -0.00932611 -0.00049900
v 0.05235296 -0.00336341 -0.00050206
v 0.03097328 -0.04176250 -0.00048307
v 0.03255453 -0.04136543 -0.00048322
v 0.03499699 -0.04061971 -0.00048353
v 0.04985921 -0.02490989 -0.00049109
v 0.03730445 -0.03972627 -0.00048391
v 0.03827461 -0.03928146 -0.00048410
v 0.04013341 -0.03828415 -0.00048455
v 0.04185650 -0.03714368 -0.00048508
v 0.04343941 -0.03585135 -0.00048570
v 0.04393080 -0.03538941 -0.00048592
v 0.04659897 -0.03216077 -0.00048747
v 0.04753541 -0.03061160 -0.00048824
v 0.04923278 0.01740246 -0.01351281
v 0.02921182 0.03995466 -0.01352505
v 0.03013492 0.04042268 -0.00803923
v 0.02773212 0.04026909 -0.01352526
v 0.04134507 0.03513859 -0.01021447
v 0.03932737 0.03662667 -0.00982332
v 0.03689585 0.03734457 -0.01352345
v 0.03487900 0.03889650 -0.00896084
v 0.04257391 0.03329496 -0.01352119
v 0.04109640 0.03465574 -0.01352193
v 0.04071055 0.03496651 -0.01352210
v 0.03890050 0.03623267 -0.01352281
v 0.04594636 0.02858296 -0.01351865
v 0.04506470 0.03012246 -0.01351948
v 0.04799434 0.02455360 -0.01151474
v 0.04713486 0.02696387 -0.01134360
v 0.04605586 0.02927483 -0.01113116
v 0.04827392 0.02227845 -0.01351535
v 0.04763384 0.02450207 -0.01351651
v 0.05018279 0.00345793 -0.01350563
v 0.05009107 0.00718731 -0.01350756
v 0.04988800 0.01449001 -0.01190899
v 0.05061303 -0.00043535 -0.01121139
v 0.05026655 0.00936276 -0.01199632
v 0.04918778 0.01957731 -0.01175846
v 0.04991337 0.01075426 -0.01350938
v 0.04315877 0.03340337 -0.01056645
v 0.04473311 0.03143722 -0.01087271
v 0.04943937 0.02596427 -0.00051720
v 0.04389499 0.03178518 -0.01352037
v 0.03715732 0.03787050 -0.00940267
v 0.03386285 0.03862083 -0.01352420
v 0.03466953 0.03832008 -0.01352402
v 0.02489188 0.04222213 -0.00052634
v 0.00822703 0.04328548 -0.00052745
v 0.03096781 0.03952012 -0.01352476
v 0.04686324 0.02660511 -0.01351762
v 0.05015342 -0.00429356 -0.01350166
v 0.05003498 -0.00799123 -0.01349977
v 0.04983355 -0.01152885 -0.01349796
v 0.04953360 -0.01490675 -0.01349624
v 0.04911653 -0.01812486 -0.01349460
v 0.04856031 -0.02118232 -0.01349305
v 0.04735976 -0.02559226 -0.01349082
v 0.04030726 -0.03586142 -0.01348579
v 0.03846660 -0.03710559 -0.01348521
v 0.04353979 -0.03273752 -0.01348729
v 0.05019080 -0.01023135 -0.01198627
v 0.04692314 -0.02780703 -0.01131552
v 0.04780123 -0.02540367 -0.01148913
v 0.04802889 -0.02339403 -0.01349194
v 0.04903310 -0.02043700 -0.01173795
v 0.04289738 -0.03421480 -0.01053178
v 0.04448687 -0.03226121 -0.01084004
v 0.03904117 -0.03740762 -0.00978537
v 0.04107033 -0.03593558 -0.01017803
v 0.03457538 -0.03964211 -0.00892057
v 0.03416930 -0.03914431 -0.01348432
v 0.00018324 -0.04377056 -0.00048306
v 0.03686157 -0.03863420 -0.00936344
v 0.04582629 -0.03010938 -0.01110071
v 0.04534488 -0.03385457 -0.00048665
v 0.04770711 -0.03029376 -0.00048841
v 0.04794509 -0.02983302 -0.00048863
v 0.04897980 -0.02749601 -0.00048980
v 0.04977263 -0.01535542 -0.01189368
v -0.00048023 0.04328860 -0.00052774
v -0.00081670 -0.04375206 -0.00048311
v -0.00591902 -0.04361226 -0.00048335
v -0.00901522 -0.04348507 -0.00048351
v -0.02466030 -0.04203903 -0.00048478
v -0.02354508 -0.04220801 -0.00048465
v -0.05145704 -0.00003532 -0.00050721
v -0.05141911 -0.00437469 -0.00050498
v -0.01880096 -0.04278689 -0.00048419
v -0.05099453 -0.01250521 -0.00050079
v -0.05057316 -0.01629064 -0.00049885
v -0.03722939 -0.03848292 -0.00048701
v -0.04966575 -0.02135880 -0.00049622
v -0.04903094 -0.02380293 -0.00049494
v -0.04734264 -0.02831450 -0.00049256
v -0.04702763 -0.02895849 -0.00049223
v -0.04600352 -0.03077509 -0.00049125
v -0.04483297 -0.03245724 -0.00049036
v -0.04350645 -0.03400236 -0.00048952
v -0.04268741 -0.03481242 -0.00048907
v -0.03661299 -0.03877113 -0.00048684
v -0.03401031 -0.03980885 -0.00048623
v -0.03110762 -0.04070080 -0.00048568
v -0.03923484 -0.03740093 -0.00048764
v -0.02818093 0.04107951 -0.00052753
v -0.02948251 0.04079401 -0.00052741
v -0.00536610 0.04319420 -0.00052784
v -0.01004258 0.04302770 -0.00052792
v -0.01450706 0.04277917 -0.00052793
v -0.01875679 0.04243544 -0.00052791
v -0.04848029 0.02486207 -0.00051987
v -0.04860811 0.02447666 -0.00051969
v -0.04757569 0.02722230 -0.00052106
v -0.04940164 0.02168374 -0.00051828
v -0.04981213 0.01987040 -0.00051737
v -0.05008046 0.01848247 -0.00051666
v -0.02278880 0.04197848 -0.00052780
v -0.02659595 0.04138693 -0.00052763
v -0.05064108 0.01476735 -0.00051477
v -0.05110342 0.00999320 -0.00051233
v -0.03071483 0.04049211 -0.00052730
v -0.03312251 0.03979525 -0.00052703
v -0.03540016 0.03897134 -0.00052667
v -0.03754207 0.03800297 -0.00052625
v -0.03824537 0.03763333 -0.00052609
v -0.04002360 0.03655473 -0.00052559
v -0.04166324 0.03533148 -0.00052503
v -0.04316116 0.03395437 -0.00052436
v -0.04398682 0.03305753 -0.00052393
v -0.04534111 0.03130273 -0.00052308
v -0.04141631 0.03553250 -0.00052512
v -0.04653161 0.02936522 -0.00052213
v -0.05137557 0.00463340 -0.00050960
v -0.05126983 -0.00853241 -0.00050284
v -0.04826374 -0.02612193 -0.00049371
v -0.05018354 -0.01879309 -0.00049754
v -0.04104899 -0.03618140 -0.00048833
v -0.04525568 -0.03188976 -0.00049066
v -0.02749551 -0.04153644 -0.00048513
v -0.01311026 -0.04325582 -0.00048377
v -0.04274730 -0.04538328 -0.18452735
v -0.04200928 -0.04538234 -0.17756101
v -0.07069161 -0.04529067 -0.21287000
v -0.11370710 -0.04509976 -0.16756213
v -0.07764675 -0.04526423 -0.21370649
v -0.04261570 -0.04537621 -0.17058200
v -0.04454421 -0.04536508 -0.16384737
v -0.11121438 -0.04510582 -0.16101530
v -0.10751688 -0.04511689 -0.15506528
v -0.06402437 -0.04531528 -0.21072018
v -0.05789061 -0.04533714 -0.20733625
v -0.05251630 -0.04535548 -0.20284282
v -0.09074800 -0.04517505 -0.14283042
v -0.06339465 -0.04528142 -0.14399236
v -0.07002013 -0.04525458 -0.14171712
v -0.04809938 -0.04536960 -0.19740544
v -0.04480257 -0.04537898 -0.19122438
v -0.05203730 -0.04532972 -0.15208547
v -0.12128834 -0.03577012 -0.16708845
v -0.12238923 -0.03576991 -0.17453873
v -0.12220345 -0.03577473 -0.18206762
v -0.12145084 -0.03577880 -0.18420345
v -0.10296293 -0.03586604 -0.21322395
v -0.04155047 -0.03609688 -0.20115533
v -0.04617281 -0.03608223 -0.20710112
v -0.05809309 -0.03604111 -0.21621802
v -0.06504180 -0.03601583 -0.21912205
v -0.07238395 -0.03598837 -0.22079854
v -0.07990444 -0.03595952 -0.22119837
v -0.08738296 -0.03593012 -0.22030981
v -0.09460039 -0.03590104 -0.21815892
v -0.10134531 -0.03587316 -0.21480870
v -0.08463360 -0.04523695 -0.21319887
v -0.10275080 -0.04513251 -0.14993122
v -0.09709168 -0.04515215 -0.14580223
v -0.08395343 -0.04520039 -0.14112526
v -0.07695825 -0.04522723 -0.14074954
v -0.05732585 -0.04530679 -0.14749144
v -0.04772379 -0.04534941 -0.15760522
v -0.05174140 -0.03606346 -0.21217152
v -0.11893307 -0.03577533 -0.15993504
f 416 127 199
f 637 654 655
f 654 255 655
f 199 127 126
f 19 620 20
f 418 416 199
f 199 195 418
f 418 195 399
f 414 599 127
f 583 248 584
f 653 654 637
f 253 347 346
f 348 347 253
f 357 346 358
f 358 346 347
f 308 361 358
f 470 16 15
f 15 16 14
f 18 19 17
f 19 16 17
f 477 17 16
f 25 16 19
f 13 495 456
f 373 371 252
f 252 251 373
f 661 249 660
f 369 662 252
f 249 661 369
f 369 661 662
f 636 643 637
f 637 666 636
f 660 643 636
f 636 661 660
f 662 666 663
f 252 662 663
f 367 369 366
f 249 369 367
f 634 643 649
f 254 255 654
f 254 653 253
f 654 653 254
f 256 655 343
f 343 655 255
f 343 255 344
f 656 666 637
f 637 655 656
f 665 666 656
f 656 655 256
f 616 19 18
f 603 126 127
f 127 416 415
f 415 414 127
f 308 358 307
f 307 358 347
f 674 587 248
f 248 348 674
f 674 589 588
f 588 589 26
f 248 587 586
f 587 26 586
f 344 255 345
f 255 254 345
f 253 346 345
f 345 254 253
f 330 332 336
f 336 332 361
f 361 310 336
f 361 332 360
f 357 358 360
f 360 358 361
f 309 361 308
f 309 310 361
f 622 623 20
f 310 309 622
f 622 309 623
f 473 15 14
f 465 466 14
f 456 495 530
f 460 17 459
f 542 121 454
f 454 18 542
f 18 17 542
f 469 17 468
f 595 596 28
f 672 634 639
f 643 634 672
f 649 30 33
f 660 249 250
f 250 247 660
f 665 656 341
f 341 656 256
f 398 400 371
f 371 373 398
f 649 643 645
f 643 644 645
f 128 154 156
f 638 666 662
f 638 636 666
f 662 661 638
f 661 636 638
f 664 666 665
f 664 663 666
f 665 251 664
f 664 251 252
f 252 663 664
f 32 422 35
f 344 354 342
f 342 343 344
f 615 616 18
f 610 603 127
f 18 603 610
f 399 195 196
f 196 198 399
f 195 120 196
f 196 120 198
f 397 393 396
f 409 367 366
f 252 371 405
f 366 369 405
f 405 369 252
f 194 408 404
f 308 307 613
f 248 580 349
f 349 580 307
f 349 307 347
f 349 348 248
f 347 348 349
f 628 674 588
f 587 674 628
f 588 26 628
f 628 26 587
f 652 674 348
f 253 653 652
f 652 348 253
f 652 653 637
f 637 674 652
f 22 25 19
f 22 20 21
f 19 20 22
f 21 609 22
f 22 583 584
f 584 248 629
f 248 586 629
f 629 22 584
f 629 586 26
f 26 22 629
f 356 346 357
f 356 345 346
f 344 345 356
f 414 415 334
f 334 333 414
f 604 309 308
f 310 622 621
f 620 336 621
f 621 336 310
f 621 20 620
f 621 622 20
f 402 398 373
f 416 418 324
f 329 415 416
f 14 466 463
f 14 13 464
f 464 465 14
f 464 13 462
f 105 116 102
f 162 154 153
f 393 397 233
f 233 397 396
f 48 49 61
f 61 50 48
f 56 71 48
f 72 71 56
f 58 56 48
f 59 56 58
f 541 17 469
f 541 459 17
f 455 17 460
f 455 542 17
f 460 120 455
f 474 475 16
f 476 477 16
f 16 475 476
f 476 515 477
f 17 477 467
f 467 468 17
f 477 515 467
f 539 515 4
f 539 467 515
f 10 488 489
f 489 488 634
f 639 634 635
f 634 488 635
f 595 28 24
f 632 642 578
f 596 642 632
f 578 28 632
f 632 28 596
f 641 596 595
f 641 642 596
f 637 642 641
f 593 592 641
f 641 674 637
f 592 674 641
f 122 195 199
f 199 121 122
f 121 542 122
f 542 455 122
f 198 120 197
f 197 190 245
f 245 198 197
f 197 120 460
f 460 459 197
f 197 459 190
f 12 483 13
f 12 13 14
f 14 16 12
f 16 25 12
f 10 497 498
f 498 11 10
f 457 13 456
f 457 458 13
f 456 530 457
f 462 13 461
f 13 458 461
f 421 422 32
f 428 422 421
f 421 429 428
f 130 131 132
f 156 131 130
f 130 128 156
f 650 634 649
f 32 35 650
f 649 33 650
f 650 33 34
f 650 35 422
f 650 422 428
f 564 498 650
f 650 498 497
f 650 493 634
f 203 173 223
f 173 216 223
f 222 173 203
f 150 123 182
f 247 250 375
f 340 341 338
f 340 251 665
f 665 341 340
f 153 154 200
f 154 128 200
f 236 298 234
f 220 236 234
f 264 236 220
f 297 234 298
f 299 298 236
f 236 264 299
f 19 616 617
f 617 618 19
f 19 618 619
f 331 615 414
f 414 333 331
f 331 332 330
f 331 333 332
f 330 616 412
f 616 615 412
f 412 331 330
f 615 331 412
f 599 414 614
f 414 615 614
f 18 599 614
f 614 615 18
f 611 610 127
f 18 610 611
f 126 603 602
f 602 601 126
f 602 603 18
f 18 601 602
f 199 126 600
f 126 601 600
f 600 121 199
f 600 601 18
f 391 375 392
f 411 409 366
f 371 400 407
f 400 404 407
f 407 404 408
f 407 411 366
f 407 408 410
f 410 411 407
f 192 541 469
f 589 674 590
f 674 631 590
f 590 26 589
f 591 674 592
f 591 631 674
f 580 22 626
f 626 22 613
f 307 580 626
f 626 613 307
f 583 22 627
f 248 583 627
f 612 22 609
f 613 22 612
f 612 609 308
f 308 613 612
f 623 309 625
f 21 20 625
f 20 623 625
f 399 404 401
f 401 404 400
f 400 398 401
f 398 402 401
f 403 340 338
f 403 402 373
f 338 341 339
f 339 351 338
f 402 351 359
f 359 401 402
f 416 324 325
f 325 329 416
f 325 324 323
f 415 329 328
f 15 473 478
f 478 479 15
f 470 15 480
f 15 479 480
f 524 478 473
f 472 473 14
f 472 524 473
f 523 524 472
f 84 77 99
f 96 83 84
f 64 53 81
f 66 53 64
f 80 83 82
f 81 53 80
f 80 86 81
f 82 86 80
f 87 86 82
f 86 87 445
f 94 95 97
f 98 105 97
f 96 98 97
f 97 95 96
f 138 186 140
f 140 186 77
f 139 145 138
f 138 140 139
f 139 140 141
f 139 179 145
f 116 105 115
f 115 186 116
f 156 154 155
f 154 162 155
f 155 131 156
f 173 222 167
f 167 222 149
f 221 216 173
f 173 167 221
f 221 167 162
f 221 162 153
f 103 233 231
f 231 233 396
f 396 410 231
f 231 408 194
f 410 408 231
f 237 233 232
f 232 228 237
f 393 233 237
f 237 381 393
f 116 186 101
f 102 116 101
f 187 228 232
f 232 123 187
f 69 61 63
f 50 61 69
f 76 49 48
f 48 71 76
f 76 54 49
f 54 76 52
f 52 76 71
f 72 141 51
f 51 71 72
f 72 56 57
f 57 56 59
f 48 50 47
f 47 58 48
f 47 50 67
f 70 47 67
f 58 47 70
f 146 169 147
f 178 169 145
f 145 179 178
f 471 16 470
f 471 474 16
f 491 10 490
f 10 489 490
f 490 634 491
f 490 489 634
f 481 482 10
f 10 28 481
f 481 28 566
f 566 646 481
f 672 482 481
f 487 488 10
f 10 482 487
f 487 635 488
f 487 482 639
f 639 635 487
f 640 672 639
f 639 482 640
f 640 482 672
f 582 633 28
f 642 633 582
f 595 24 594
f 594 641 595
f 597 24 9
f 9 24 28
f 668 646 566
f 668 642 637
f 593 641 630
f 630 641 597
f 630 9 593
f 597 9 630
f 119 120 195
f 195 122 119
f 119 455 120
f 119 122 455
f 492 10 491
f 492 493 10
f 491 634 492
f 634 493 492
f 496 497 10
f 10 493 496
f 496 650 497
f 493 650 496
f 506 12 27
f 11 503 27
f 27 503 504
f 10 11 27
f 501 11 500
f 11 498 500
f 500 498 564
f 495 13 494
f 13 486 494
f 13 483 484
f 458 457 452
f 452 528 458
f 425 431 426
f 45 426 429
f 419 426 45
f 136 650 34
f 31 650 136
f 132 164 160
f 368 375 250
f 396 393 395
f 393 392 395
f 409 411 395
f 395 410 396
f 395 411 410
f 337 619 618
f 618 617 337
f 413 337 336
f 619 337 413
f 127 599 598
f 598 611 127
f 598 599 18
f 18 611 598
f 454 121 574
f 121 600 574
f 574 18 454
f 574 600 18
f 406 405 371
f 371 407 406
f 366 405 406
f 406 407 366
f 541 192 191
f 245 190 243
f 243 198 245
f 399 198 243
f 243 242 399
f 192 242 243
f 243 191 192
f 305 242 192
f 581 22 580
f 581 627 22
f 581 580 248
f 248 627 581
f 309 604 606
f 606 625 309
f 606 604 21
f 21 625 606
f 608 609 21
f 21 607 608
f 308 609 608
f 608 607 308
f 21 604 605
f 605 607 21
f 605 604 308
f 308 607 605
f 401 322 319
f 399 401 319
f 319 418 399
f 350 351 402
f 402 403 350
f 338 351 350
f 350 403 338
f 251 340 372
f 340 403 372
f 372 373 251
f 372 403 373
f 352 341 256
f 352 339 341
f 256 343 352
f 343 342 352
f 352 342 354
f 351 339 352
f 365 322 401
f 401 359 365
f 323 322 365
f 357 360 362
f 362 356 357
f 362 360 332
f 534 480 479
f 523 472 536
f 536 444 523
f 522 444 536
f 463 522 536
f 14 463 536
f 536 472 14
f 100 84 99
f 100 98 96
f 96 84 100
f 100 105 98
f 520 524 523
f 83 80 78
f 78 84 83
f 55 77 78
f 77 84 78
f 516 87 447
f 88 518 447
f 447 87 82
f 446 87 516
f 446 445 87
f 516 534 446
f 479 445 446
f 446 534 479
f 479 478 535
f 535 445 479
f 49 54 65
f 65 73 49
f 66 73 65
f 65 53 66
f 466 465 451
f 194 125 104
f 104 231 194
f 103 231 104
f 193 125 194
f 107 125 193
f 194 404 193
f 193 303 239
f 193 404 399
f 399 303 193
f 112 125 107
f 112 105 102
f 92 539 4
f 95 539 92
f 91 90 88
f 91 88 96
f 96 95 91
f 95 92 91
f 91 92 90
f 4 515 540
f 540 92 4
f 90 92 514
f 166 164 165
f 275 391 377
f 391 392 377
f 380 392 393
f 393 381 380
f 182 123 188
f 111 110 109
f 102 101 109
f 109 101 111
f 545 69 63
f 545 530 495
f 142 52 71
f 71 51 142
f 141 140 142
f 142 51 141
f 180 139 141
f 179 139 180
f 180 141 72
f 72 57 180
f 180 57 59
f 59 161 180
f 180 161 179
f 39 70 67
f 67 60 39
f 184 146 147
f 184 150 182
f 110 146 183
f 182 188 183
f 183 188 110
f 183 184 182
f 146 184 183
f 145 169 143
f 169 146 143
f 147 169 176
f 169 178 176
f 646 668 670
f 671 481 647
f 579 28 578
f 579 582 28
f 578 642 579
f 642 582 579
f 566 28 575
f 28 576 575
f 575 668 566
f 28 633 577
f 577 576 28
f 577 633 642
f 585 24 597
f 585 594 24
f 597 641 585
f 641 594 585
f 23 592 593
f 593 9 23
f 23 591 592
f 631 591 23
f 26 590 23
f 23 590 631
f 23 22 26
f 23 28 10
f 23 9 28
f 25 22 23
f 10 27 23
f 23 12 25
f 23 27 12
f 502 11 501
f 502 503 11
f 501 431 502
f 552 431 425
f 553 431 552
f 571 572 12
f 483 12 499
f 12 572 499
f 506 27 569
f 69 545 546
f 495 494 546
f 546 545 495
f 485 486 13
f 13 484 485
f 559 484 483
f 528 452 453
f 527 457 530
f 527 452 457
f 527 453 452
f 462 461 529
f 461 533 529
f 529 464 462
f 531 533 461
f 528 533 531
f 531 461 458
f 458 528 531
f 567 500 564
f 564 431 567
f 501 500 567
f 567 431 501
f 427 650 428
f 427 431 650
f 428 429 427
f 429 426 427
f 427 426 431
f 564 650 565
f 565 431 564
f 650 431 565
f 425 426 430
f 430 426 419
f 554 560 425
f 554 569 560
f 572 571 556
f 556 571 38
f 68 60 67
f 67 50 68
f 432 556 38
f 135 44 29
f 29 136 135
f 129 41 135
f 424 44 40
f 40 45 424
f 429 421 424
f 424 45 429
f 420 421 32
f 420 424 421
f 32 650 420
f 420 650 31
f 31 136 420
f 420 136 29
f 133 33 30
f 30 36 133
f 36 130 133
f 133 130 132
f 132 160 133
f 34 33 134
f 33 133 134
f 134 133 160
f 134 136 34
f 134 135 136
f 171 176 178
f 203 223 206
f 206 202 203
f 370 250 249
f 370 368 250
f 249 367 370
f 367 368 370
f 367 409 394
f 394 368 367
f 409 395 394
f 375 368 394
f 394 392 375
f 394 395 392
f 219 264 220
f 219 262 264
f 219 220 203
f 203 202 219
f 330 336 335
f 336 337 335
f 335 337 617
f 335 616 330
f 335 617 616
f 619 413 624
f 624 620 19
f 19 619 624
f 624 336 620
f 624 413 336
f 94 85 93
f 93 95 94
f 244 243 190
f 191 243 244
f 190 459 244
f 459 541 244
f 541 191 244
f 306 192 240
f 306 305 192
f 399 242 306
f 242 305 306
f 418 319 320
f 320 322 323
f 320 319 322
f 364 365 354
f 323 365 364
f 351 352 353
f 353 359 351
f 353 365 359
f 353 352 354
f 354 365 353
f 326 362 332
f 332 333 326
f 333 334 326
f 2 534 516
f 516 447 2
f 2 447 518
f 480 534 2
f 66 444 526
f 526 444 522
f 523 444 544
f 544 520 523
f 64 520 544
f 66 64 544
f 544 444 66
f 181 115 105
f 105 100 181
f 181 100 99
f 99 77 181
f 77 186 181
f 186 115 181
f 524 520 8
f 8 64 81
f 8 520 64
f 55 78 79
f 79 78 80
f 79 52 55
f 54 52 79
f 79 80 53
f 53 65 79
f 79 65 54
f 89 447 82
f 89 83 96
f 82 83 89
f 96 88 89
f 88 447 89
f 478 524 521
f 521 535 478
f 524 8 521
f 521 8 81
f 81 86 521
f 86 535 521
f 86 445 537
f 537 535 86
f 445 535 537
f 466 451 525
f 525 463 466
f 525 522 463
f 525 526 522
f 66 526 525
f 525 73 66
f 525 451 73
f 240 192 241
f 241 192 469
f 113 104 125
f 125 112 113
f 103 104 113
f 113 112 102
f 102 109 113
f 113 109 103
f 94 97 106
f 106 97 105
f 105 112 106
f 88 90 3
f 90 514 3
f 538 476 475
f 475 3 538
f 538 3 514
f 515 476 538
f 538 540 515
f 92 540 538
f 538 514 92
f 163 155 162
f 162 165 163
f 131 155 163
f 132 131 163
f 163 164 132
f 163 165 164
f 162 167 168
f 168 165 162
f 166 165 168
f 379 377 392
f 392 380 379
f 390 237 228
f 118 188 123
f 110 188 118
f 228 187 246
f 187 151 246
f 235 390 228
f 235 300 301
f 228 246 235
f 235 246 189
f 297 300 235
f 234 297 235
f 152 187 123
f 152 151 187
f 123 150 152
f 149 151 152
f 189 246 227
f 227 246 151
f 203 220 227
f 227 222 203
f 149 222 227
f 227 151 149
f 438 545 63
f 530 545 438
f 137 77 55
f 55 52 137
f 52 142 137
f 137 140 77
f 137 142 140
f 37 39 60
f 419 45 37
f 37 45 40
f 40 39 37
f 37 430 419
f 60 432 37
f 37 432 430
f 42 39 40
f 70 39 42
f 157 41 129
f 138 145 144
f 145 143 144
f 185 146 110
f 185 143 146
f 185 110 111
f 185 144 143
f 111 101 185
f 138 144 185
f 185 186 138
f 185 101 186
f 669 481 646
f 646 670 669
f 669 670 481
f 648 670 668
f 648 668 637
f 672 671 648
f 637 643 648
f 643 672 648
f 648 671 647
f 647 481 648
f 481 670 648
f 672 481 651
f 651 671 672
f 481 671 651
f 667 575 576
f 668 575 667
f 642 668 667
f 667 577 642
f 576 577 667
f 563 552 425
f 425 504 563
f 504 503 563
f 553 552 562
f 503 502 562
f 562 563 503
f 552 563 562
f 562 431 553
f 562 502 431
f 507 12 506
f 506 38 507
f 557 499 572
f 572 556 557
f 557 432 551
f 556 432 557
f 550 559 483
f 436 559 550
f 505 27 504
f 505 569 27
f 560 569 505
f 505 504 425
f 425 560 505
f 69 546 434
f 453 527 62
f 63 61 62
f 61 453 62
f 62 438 63
f 49 73 74
f 74 450 49
f 449 533 528
f 528 453 449
f 49 450 449
f 449 61 49
f 449 453 61
f 425 430 423
f 423 554 425
f 38 554 423
f 423 432 38
f 430 432 423
f 561 38 506
f 561 554 38
f 506 569 561
f 569 554 561
f 60 68 437
f 437 432 60
f 551 432 437
f 437 557 551
f 44 135 43
f 43 135 41
f 41 42 43
f 40 44 43
f 43 42 40
f 29 44 46
f 46 420 29
f 44 424 46
f 424 420 46
f 176 171 174
f 170 174 171
f 210 206 224
f 224 206 223
f 212 268 214
f 216 217 270
f 315 374 376
f 376 391 275
f 376 374 391
f 659 315 312
f 659 643 660
f 659 644 643
f 269 268 212
f 205 219 202
f 262 219 263
f 263 219 260
f 441 539 95
f 95 93 441
f 304 306 240
f 240 241 304
f 239 303 304
f 304 193 239
f 304 241 193
f 304 303 399
f 399 306 304
f 323 324 321
f 321 320 323
f 321 324 418
f 418 320 321
f 356 362 355
f 355 354 344
f 344 356 355
f 417 326 334
f 417 334 415
f 415 328 417
f 327 328 329
f 327 417 328
f 326 417 327
f 327 325 323
f 329 325 327
f 517 2 518
f 470 480 512
f 480 2 512
f 2 517 512
f 512 471 470
f 512 517 518
f 474 471 512
f 107 193 114
f 193 241 114
f 94 106 114
f 114 112 107
f 114 106 112
f 475 474 513
f 513 3 475
f 474 512 513
f 513 512 518
f 148 167 149
f 148 168 167
f 148 184 147
f 150 184 148
f 149 152 148
f 148 152 150
f 166 168 175
f 175 174 166
f 176 174 175
f 147 176 175
f 175 148 147
f 168 148 175
f 282 286 210
f 298 299 388
f 388 297 298
f 388 300 297
f 301 300 388
f 124 118 123
f 232 233 124
f 124 123 232
f 108 109 110
f 110 118 108
f 118 124 108
f 103 109 108
f 108 233 103
f 108 124 233
f 238 235 301
f 390 235 238
f 234 235 229
f 189 227 229
f 220 234 229
f 229 227 220
f 5 527 530
f 530 438 5
f 5 62 527
f 438 62 5
f 41 157 75
f 58 70 75
f 59 58 75
f 70 42 75
f 75 42 41
f 75 161 59
f 75 157 161
f 570 571 12
f 12 507 570
f 50 69 433
f 69 434 433
f 555 546 494
f 555 434 546
f 555 494 486
f 439 559 436
f 484 559 439
f 439 549 484
f 450 74 6
f 464 529 6
f 448 449 450
f 450 6 448
f 448 6 529
f 448 529 533
f 533 449 448
f 499 557 558
f 557 437 558
f 483 499 558
f 159 134 160
f 129 135 159
f 135 134 159
f 161 157 177
f 179 161 177
f 177 178 179
f 177 171 178
f 226 224 212
f 210 224 226
f 226 282 210
f 201 282 226
f 212 214 213
f 213 226 212
f 153 200 258
f 258 257 153
f 215 221 153
f 216 221 215
f 215 217 216
f 247 375 313
f 660 247 313
f 313 659 660
f 313 375 391
f 391 374 313
f 312 315 279
f 315 376 279
f 673 659 312
f 673 645 644
f 644 659 673
f 218 269 225
f 212 224 225
f 225 269 212
f 216 270 225
f 225 270 218
f 225 223 216
f 225 224 223
f 208 205 204
f 204 205 202
f 204 206 208
f 202 206 204
f 208 260 261
f 261 205 208
f 260 219 261
f 219 205 261
f 286 388 387
f 387 388 299
f 208 206 295
f 295 260 208
f 295 263 260
f 262 263 295
f 264 262 295
f 467 539 543
f 539 441 543
f 468 467 543
f 509 93 85
f 509 441 93
f 323 364 363
f 363 327 323
f 363 364 354
f 354 355 363
f 363 355 362
f 362 326 363
f 326 327 363
f 117 241 85
f 117 114 241
f 117 85 94
f 94 114 117
f 88 3 519
f 3 513 519
f 519 518 88
f 519 513 518
f 383 388 286
f 209 201 275
f 209 282 201
f 302 238 301
f 390 238 302
f 230 235 189
f 189 229 230
f 230 229 235
f 568 507 38
f 568 570 507
f 38 571 568
f 571 570 568
f 435 434 548
f 435 433 434
f 50 433 435
f 435 68 50
f 435 439 436
f 549 439 435
f 436 437 435
f 435 437 68
f 486 485 573
f 573 485 484
f 484 549 573
f 573 435 548
f 549 435 573
f 548 434 7
f 7 573 548
f 7 555 486
f 486 573 7
f 73 451 532
f 532 451 465
f 465 464 532
f 508 74 73
f 508 6 74
f 73 532 508
f 464 6 508
f 508 532 464
f 1 550 483
f 483 558 1
f 436 550 1
f 1 437 436
f 1 558 437
f 172 159 160
f 170 159 172
f 174 170 172
f 172 160 164
f 172 164 166
f 166 174 172
f 129 159 158
f 158 159 170
f 158 157 129
f 158 177 157
f 158 170 171
f 171 177 158
f 280 673 312
f 271 270 217
f 267 215 266
f 266 215 153
f 314 374 315
f 314 313 374
f 315 659 314
f 659 313 314
f 277 279 376
f 275 201 277
f 277 376 275
f 267 266 658
f 649 645 658
f 645 673 658
f 210 286 211
f 286 387 211
f 294 295 206
f 264 295 294
f 85 241 443
f 443 509 85
f 241 509 443
f 442 509 241
f 440 543 441
f 441 509 440
f 286 282 285
f 301 388 382
f 388 383 382
f 282 209 283
f 283 285 282
f 434 555 547
f 547 7 434
f 555 7 547
f 278 280 312
f 312 279 278
f 278 277 213
f 279 277 278
f 274 213 214
f 274 278 213
f 280 278 274
f 265 215 267
f 267 658 265
f 217 215 265
f 265 271 217
f 218 270 318
f 270 271 318
f 318 269 218
f 271 265 318
f 318 265 658
f 153 257 259
f 259 266 153
f 281 277 201
f 213 277 281
f 201 226 281
f 226 213 281
f 268 269 311
f 269 318 311
f 311 318 658
f 389 387 299
f 299 292 389
f 389 292 387
f 206 288 207
f 207 294 206
f 288 292 207
f 292 294 207
f 264 294 296
f 296 294 292
f 296 299 264
f 511 241 469
f 469 442 511
f 511 442 241
f 509 442 510
f 510 440 509
f 469 468 510
f 510 442 469
f 468 543 510
f 543 440 510
f 384 383 286
f 286 285 384
f 384 283 383
f 285 283 384
f 237 390 385
f 381 237 385
f 385 380 381
f 377 379 378
f 383 283 378
f 276 209 275
f 276 283 209
f 275 377 276
f 377 378 276
f 276 378 283
f 273 274 214
f 280 274 273
f 673 280 273
f 316 658 673
f 673 317 316
f 268 311 316
f 316 311 658
f 316 214 268
f 316 317 214
f 657 658 266
f 266 259 657
f 657 259 257
f 257 258 657
f 657 258 200
f 657 200 128
f 128 130 657
f 657 130 36
f 649 658 657
f 657 36 30
f 657 30 649
f 290 211 387
f 290 284 211
f 387 292 290
f 210 211 287
f 211 284 287
f 287 206 210
f 293 292 299
f 299 296 293
f 293 296 292
f 386 382 383
f 383 378 386
f 380 385 386
f 386 302 301
f 301 382 386
f 390 302 386
f 386 385 390
f 386 379 380
f 386 378 379
f 272 317 673
f 673 273 272
f 214 317 272
f 272 273 214
f 291 292 288
f 291 290 292
f 284 290 291
f 289 287 284
f 284 291 289
f 289 291 288
f 289 288 206
f 206 287 289

