# https://github.com/mikedh/trimesh
v 0.03103595 0.02679917 0.01051651
v 0.03103595 0.03249776 0.01239843
v 0.03103593 0.04442306 0.01218816
v -0.00027421 -0.00000001 -0.02849869
v -0.00195148 -0.00000001 -0.02843312
v -0.00799961 -0.00000000 -0.02735426
v -0.01367602 0.00000000 -0.02500434
v -0.02288809 -0.00000001 -0.01698191
v -0.01871693 0.00000000 -0.02149249
v -0.02599568 -0.00000001 -0.01168223
v -0.02789530 0.00000001 -0.00583968
v -0.02777777 0.00000000 0.00637538
v -0.02849868 0.00000000 0.00027420
v -0.02576608 0.00000000 0.01218026
v -0.02255708 -0.00000000 0.01741918
v -0.01829990 0.00000000 0.02184865
v -0.01319235 0.00000000 0.02526287
v -0.00747178 0.00000000 0.02750314
v -0.00140400 -0.00000001 0.02846539
v 0.00027421 0.00000001 0.02849868
v 0.00195148 -0.00000001 0.02843311
v 0.00799961 0.00000000 0.02735426
v 0.01871693 -0.00000000 0.02149249
v 0.01367602 -0.00000000 0.02500433
v 0.02789531 -0.00000000 0.00583968
v 0.02599568 -0.00000001 0.01168223
v 0.02288809 -0.00000001 0.01698191
v 0.02777777 0.00000001 -0.00637536
v 0.02849868 -0.00000000 -0.00027421
v 0.02576608 0.00000000 -0.01218027
v 0.02255708 0.00000000 -0.01741918
v 0.01829990 -0.00000000 -0.02184866
v 0.01319235 0.00000001 -0.02526284
v 0.00140400 0.00000001 -0.02846540
v 0.03103578 0.00809198 -0.00273596
v 0.03103589 0.00716847 -0.00564524
v 0.03103589 0.00685850 -0.00691728
v 0.03103588 0.00652881 -0.00861982
v 0.03103588 0.00630395 -0.01023163
v 0.03103586 0.00610491 -0.01328679
v 0.03103575 0.00666474 -0.01980564
v 0.03103585 0.00619812 -0.01632729
v 0.03103583 0.00658066 -0.01934603
v -0.03101237 0.00666474 -0.01980564
v -0.03101237 0.00623704 -0.01678208
v -0.03101236 0.00610030 -0.01374181
v -0.03101234 0.00685835 -0.00691717
v -0.03101235 0.00645711 -0.00907221
v -0.03101233 0.00793091 -0.00317934
v -0.03101234 0.00705342 -0.00609063
v -0.02953693 0.00570547 -0.02325894
v -0.02869827 0.00601349 -0.02740529
v -0.02869670 0.00981574 -0.03493859
v -0.02837711 0.00644059 -0.02882410
v -0.02869576 0.00756391 -0.03131806
v -0.02900309 0.00767021 -0.03125392
v -0.02927446 0.00630771 -0.02727943
v -0.02901136 0.00611725 -0.02735530
v -0.02947246 0.00654829 -0.02719048
v -0.02946653 0.00670410 -0.02768678
v -0.02925591 0.00785588 -0.03114941
v -0.02943893 0.00808669 -0.03102294
v -0.02837789 0.00891907 -0.03374846
v -0.02900164 0.00992087 -0.03485988
v -0.02925066 0.01009676 -0.03472815
v -0.02943765 0.00821893 -0.03127791
v -0.02943021 0.01031063 -0.03456795
v -0.03101224 0.04137023 0.01789191
v -0.03101232 0.00928386 0.00006310
v -0.03101235 0.00809202 -0.00273594
v -0.03101231 0.01109465 0.00330628
v -0.03101230 0.01286478 0.00581133
v -0.03101229 0.01484654 0.00811404
v -0.03101228 0.01703521 0.01021269
v -0.03101228 0.01829245 0.01125295
v -0.03101227 0.02342602 0.01454592
v -0.03101224 0.03668672 0.01804094
v -0.03101225 0.03364637 0.01777009
v -0.03101225 0.03065458 0.01721335
v -0.03101224 0.03831392 0.01806740
v -0.02946336 0.04943152 0.01898184
v -0.02945946 0.04671655 0.02010895
v -0.03101224 0.04437309 0.01742608
v -0.03101223 0.05163693 0.01500816
v -0.02510758 0.00550419 0.03706192
v -0.02100085 0.00540788 0.03838020
v -0.02099055 0.00566323 0.03830531
v -0.01886238 0.00566171 0.03876785
v -0.01525334 0.00540830 0.03942164
v -0.01519839 0.00566016 0.03934883
v -0.01084926 0.00565948 0.03977337
v -0.00787233 0.00541008 0.04001165
v -0.00787513 0.00565943 0.03993494
v -0.00584201 0.00565951 0.03999404
v 0.00584402 0.00566314 0.03961619
v -0.00036084 0.00541192 0.04004296
v 0.00695500 0.00541350 0.03958220
v 0.01058255 0.00566646 0.03905227
v 0.01358886 0.00541479 0.03860185
v 0.01489368 0.00567016 0.03826286
v 0.01715190 0.00541510 0.03779118
v 0.01714112 0.00567237 0.03772705
v 0.01882076 0.00567417 0.03726282
v 0.02192829 0.00567785 0.03623974
v 0.02239523 0.00567846 0.03606563
v 0.02246045 0.00541474 0.03610058
v 0.02519079 0.00568237 0.03489599
v 0.02238930 0.00504655 0.03593264
v 0.00692825 0.00504919 0.03942252
v -0.00036570 0.00504893 0.03988538
v -0.01521447 0.00504752 0.03927043
v -0.02094842 0.00504675 0.03823238
v -0.02506854 0.00506259 0.03696417
v 0.01709596 0.00504822 0.03762749
v 0.01354312 0.00504885 0.03844034
v 0.01712017 0.00509964 0.03770820
v 0.01356237 0.00510064 0.03852135
v -0.00785437 0.00504835 0.03985730
v -0.00786026 0.00509958 0.03993860
v -0.01522930 0.00509814 0.03935103
v -0.02097145 0.00509692 0.03831128
v -0.02508599 0.00509472 0.03700776
v -0.02098775 0.00516662 0.03836313
v -0.01524049 0.00516814 0.03940419
v -0.00786503 0.00517008 0.03999248
v -0.00036159 0.00517152 0.04002155
v -0.00036326 0.00510059 0.03996705
v 0.00694710 0.00517231 0.03955885
v 0.00693909 0.00510110 0.03950405
v 0.01713750 0.00517077 0.03776305
v 0.02244414 0.00516754 0.03606725
v 0.02518478 0.00513449 0.03488431
v 0.02242159 0.00509697 0.03601243
v 0.02514716 0.00506240 0.03480345
v 0.02520613 0.00523724 0.03493028
v 0.02245761 0.00526355 0.03609835
v 0.01714839 0.00526641 0.03779289
v 0.01357633 0.00517192 0.03857609
v 0.01358537 0.00526732 0.03860529
v 0.00695250 0.00526728 0.03958742
v -0.00036069 0.00526614 0.04004951
v -0.00786891 0.00526437 0.04001951
v -0.02509962 0.00513413 0.03704191
v -0.02099784 0.00526076 0.03838866
v 0.02521097 0.00541346 0.03494052
v -0.01524847 0.00526221 0.03943042
v -0.02511559 0.00523532 0.03708222
v 0.02631802 0.00513312 0.03428318
v 0.02626587 0.00506147 0.03420907
v 0.02636114 0.00536717 0.03433698
v 0.02634977 0.00523593 0.03432513
v 0.02903977 0.00536973 0.02873283
v 0.02899899 0.00523564 0.02870629
v 0.02849198 0.00505731 0.03112348
v 0.02892837 0.00513178 0.02867078
v 0.02865379 0.00536361 0.03128036
v 0.02803738 0.00505820 0.03232925
v 0.02811038 0.00512819 0.03239841
v 0.02857777 0.00512684 0.03118728
v 0.02815123 0.00523083 0.03245139
v 0.02862997 0.00522940 0.03124242
v 0.02816543 0.00536445 0.03248321
v 0.02814737 0.00569631 0.03248831
v 0.02727952 0.00506050 0.03339843
v 0.02734162 0.00513179 0.03346882
v 0.02737677 0.00523488 0.03351370
v 0.02738782 0.00536742 0.03353293
v 0.02736313 0.00569211 0.03351421
v 0.02633884 0.00568616 0.03429881
v -0.02770363 0.00522650 0.03527691
v -0.02734088 0.00568374 0.03564994
v -0.02770180 0.00535854 0.03530533
v -0.02653015 0.00536261 0.03637918
v -0.02897331 0.00570004 0.03093264
v -0.02561973 0.00566856 0.03679159
v -0.02904921 0.00536735 0.02927412
v -0.02646101 0.00506126 0.03625805
v -0.02762345 0.00505675 0.03514465
v -0.02767981 0.00512542 0.03522169
v -0.02650582 0.00513224 0.03633130
v -0.02639502 0.00501977 0.03615486
v -0.02871548 0.00511832 0.03226917
v -0.02842147 0.00569657 0.03384218
v -0.02879334 0.00569950 0.03236307
v -0.02879096 0.00535375 0.03237978
v -0.02841994 0.00535200 0.03390059
v -0.02900937 0.00523312 0.02924654
v -0.02652831 0.00523367 0.03637135
v -0.02841043 0.00521771 0.03385511
v -0.02876795 0.00521886 0.03233325
v -0.02837259 0.00511764 0.03378778
v -0.02769543 0.00517190 0.03525242
v -0.02651981 0.00517926 0.03635551
v -0.02829848 0.00505181 0.03370962
v 0.02840179 0.00684759 -0.02986384
v -0.02837853 0.00977729 -0.03496741
v -0.03101240 0.01076849 -0.03044230
v -0.03101240 0.01035962 -0.02975149
v -0.03101239 0.00896455 -0.02703368
v -0.03101239 0.00865086 -0.02632091
v -0.03101238 0.00759268 -0.02346711
v 0.03103580 0.00899238 -0.02709465
v 0.03103580 0.00867729 -0.02638268
v 0.03103581 0.00760966 -0.02352016
v 0.02955789 0.00570107 -0.02323232
v 0.03103582 0.00737503 -0.02275298
v 0.02949414 0.00654807 -0.02719107
v 0.03103578 0.01038728 -0.02979948
v 0.02946162 0.00808570 -0.03102197
v 0.02945359 0.01031064 -0.03456796
v 0.02926193 0.04108100 0.02256039
v 0.02695289 0.01567405 0.03153785
v 0.02637764 0.01819495 0.03113510
v 0.02579170 0.01179496 0.03307162
v 0.02728079 0.02939936 0.02759102
v 0.02865061 0.00569879 0.03129843
v 0.02823199 0.01570807 0.03039883
v 0.02765980 0.01569345 0.03104343
v 0.02534964 0.00726101 0.03442603
v 0.02803297 0.02591784 0.02825325
v 0.02837818 0.03606488 0.02507877
v 0.02843880 0.02593395 0.02788112
v 0.02888979 0.03608693 0.02464333
v 0.02920211 0.02595725 0.02636278
v 0.02924505 0.03609731 0.02405194
v 0.02947361 0.04595031 0.02044322
v 0.02927127 0.04597939 0.02080980
v 0.02894524 0.04108350 0.02298631
v 0.02811804 0.04351249 0.02247152
v 0.02821817 0.04600663 0.02142851
v 0.02653883 0.02005243 0.03056441
v 0.02876298 0.02594571 0.02742919
v 0.02865282 0.01571837 0.02963065
v 0.02906054 0.00569972 0.02874861
v 0.00001170 0.05582952 0.01804283
v 0.00378806 0.05581854 0.01802338
v 0.00001164 0.05202929 0.02011664
v 0.00718845 0.04971505 0.02122272
v 0.02036052 0.05551264 0.01747739
v 0.02835272 0.05066742 0.01930447
v 0.02149681 0.04949847 0.02052859
v 0.02155050 0.04338663 0.02333931
v 0.02530155 0.01180146 0.03326901
v 0.02179621 0.01820067 0.03255837
v 0.02186335 0.01179974 0.03449712
v 0.01826356 0.01820687 0.03339924
v 0.00001167 0.01751415 0.03558695
v 0.00001168 0.00565990 0.03995853
v 0.00722228 0.04354446 0.02426855
v 0.00001165 0.04464091 0.02388476
v 0.00725721 0.03729855 0.02714319
v 0.00001166 0.03646299 0.02771989
v 0.00729223 0.03099077 0.02986952
v 0.00001166 0.03104473 0.03009972
v 0.00001166 0.02743923 0.03162142
v 0.00738893 0.01181248 0.03730150
v 0.00741557 0.00566418 0.03946063
v 0.02779135 0.03715536 0.02491167
v 0.02516333 0.03088136 0.02760801
v 0.01626352 0.05562733 0.01768221
v 0.01435892 0.04962647 0.02096453
v 0.01441645 0.04347247 0.02392400
v 0.02160769 0.03717814 0.02591126
v 0.01447702 0.03723759 0.02668790
v 0.01473196 0.01180270 0.03627623
v 0.01466781 0.01821617 0.03406516
v 0.02173091 0.02456775 0.03049466
v 0.01812414 0.03091636 0.02884304
v 0.01453966 0.03093917 0.02928657
v 0.02166795 0.03089680 0.02828696
v 0.02512172 0.03715174 0.02538800
v 0.01018564 0.05575019 0.01790154
v 0.01460352 0.02459610 0.03173994
v 0.00732635 0.02463612 0.03246278
v 0.00735876 0.01824218 0.03493621
v -0.02744333 0.03310451 0.02663830
v -0.02513518 0.03067147 0.02809902
v -0.02822295 0.04742967 0.02077376
v -0.02505299 0.04318126 0.02305272
v -0.02794239 0.04121333 0.02342142
v -0.00800071 0.05578053 0.01795510
v -0.00716585 0.04350441 0.02433866
v -0.00720654 0.03095253 0.03005253
v 0.00001165 0.04358383 0.02439879
v -0.00724222 0.01821364 0.03526069
v -0.01455422 0.01813099 0.03476167
v -0.01817578 0.01808915 0.03429237
v -0.01445256 0.03083984 0.02962890
v -0.02150851 0.04324934 0.02345612
v -0.02161645 0.03072393 0.02876159
v -0.02523236 0.01801227 0.03271155
v -0.02508993 0.00566780 0.03701674
v -0.02174032 0.01804909 0.03363428
v -0.02237726 0.00566449 0.03794001
v -0.02146270 0.04941894 0.02056504
v -0.01431642 0.04957388 0.02099939
v -0.01435735 0.04338617 0.02402759
v -0.01818843 0.05557654 0.01759021
v -0.02834968 0.05207477 0.01859278
v -0.02856765 0.03061427 0.02682497
v -0.02821222 0.03057911 0.02718071
v -0.02777032 0.03054324 0.02744994
v -0.02649202 0.00567459 0.03632568
v -0.02711674 0.01795950 0.03199227
v -0.02784286 0.01799098 0.03141254
v -0.02924584 0.03071499 0.02547045
v -0.02925099 0.03697229 0.02381652
v -0.02945595 0.04264437 0.02157150
v -0.02928182 0.04915324 0.01941938
v -0.02945547 0.05171155 0.01795666
v -0.02900139 0.05512491 0.01678279
v -0.02866037 0.04920145 0.01988825
v -0.02854926 0.04306263 0.02251538
v -0.02839429 0.03684536 0.02491863
v -0.02652098 0.02118164 0.03117502
v -0.02884699 0.03064834 0.02641089
v -0.02852991 0.05520587 0.01692848
v -0.02900822 0.04919006 0.01969412
v -0.02895773 0.04310197 0.02221986
v -0.02878933 0.02435397 0.02819177
v -0.02890427 0.03690928 0.02442877
v -0.02925611 0.04313400 0.02183563
v 0.02870541 0.05066483 0.01924094
v 0.02840184 0.05521308 0.01694226
v 0.02902317 0.05512581 0.01678226
v 0.02902376 0.05063457 0.01909494
v 0.02927579 0.05057399 0.01886168
v 0.02938573 0.05494522 0.01646014
v 0.02945923 0.05102446 0.01833474
v 0.02945387 0.05488756 0.01636050
v 0.02947118 0.04680551 0.02012163
v 0.02898669 0.04600680 0.02111669
v 0.02862506 0.04601633 0.02132624
v -0.03101241 0.02907418 -0.04445608
v -0.03101241 0.02799980 -0.04412227
v -0.03101241 0.02627347 -0.04349673
v -0.03101241 0.02516067 -0.04303236
v -0.03101241 0.02243682 -0.04167625
v -0.03101241 0.03043997 -0.04482148
v -0.03101241 0.03205760 -0.04517189
v -0.03101241 0.03474848 -0.04556410
v -0.03101241 0.03911807 -0.04571061
v -0.03101241 0.03507121 -0.04559550
v -0.03101223 0.05357302 0.01400893
v -0.03101223 0.05553878 0.01281462
v -0.03101224 0.05799339 0.01102578
v -0.03101224 0.06027171 0.00900675
v -0.03101223 0.04885492 0.01616438
v -0.03101223 0.04732785 0.01667341
v -0.03101237 0.01246699 -0.03295298
v -0.03101225 0.06509666 0.00300217
v -0.03101224 0.06337164 0.00550465
v -0.03101240 0.04276671 -0.04537204
v -0.03101241 0.03971452 -0.04568408
v -0.03101226 0.02620275 0.01580680
v -0.03101225 0.02771246 0.01636489
v -0.03101239 0.04771254 -0.04421560
v -0.03101240 0.04575066 -0.04477424
v -0.03101240 0.04346665 -0.04525828
v -0.03101226 0.06780689 -0.00246752
v -0.03101227 0.06903317 -0.00644728
v -0.03101237 0.05555625 -0.04046433
v -0.03101238 0.05293838 -0.04201613
v -0.03101238 0.05177598 -0.04260213
v -0.03101239 0.05016154 -0.04332089
v -0.03101229 0.06989865 -0.01361530
v -0.03101228 0.06987122 -0.01249061
v -0.03101228 0.06959544 -0.00943766
v -0.03101227 0.02079393 0.01303174
v -0.03101229 0.06977420 -0.01665391
v -0.03101230 0.06936065 -0.01966843
v -0.03101238 0.00681371 -0.02053920
v -0.03101235 0.00614625 -0.01211720
v -0.03101232 0.06688242 -0.02737230
v -0.03101234 0.06510610 -0.03064821
v -0.03101235 0.06142583 -0.03548249
v -0.03101236 0.05923741 -0.03763287
v -0.03101237 0.05801136 -0.03867252
v -0.03101231 0.01073564 0.00272960
v -0.03101234 0.06475954 -0.03119436
v -0.03101235 0.06338248 -0.03315165
v -0.03101235 0.06213398 -0.03469025
v -0.03101235 0.00620690 -0.01122334
v -0.03101231 0.06865552 -0.02265161
v -0.03101231 0.06834226 -0.02367530
v 0.03103596 0.04143309 0.01788387
v 0.03103596 0.01834076 0.01128904
v 0.03103597 0.02348258 0.01457313
v 0.03103597 0.02777843 0.01638569
v 0.03103597 0.03837508 0.01806589
v 0.03103597 0.03675358 0.01804301
v 0.03103597 0.03371738 0.01777881
v 0.03103597 0.03072437 0.01722807
v 0.03103568 0.03709080 -0.04571743
v 0.03103568 0.03869826 -0.04572274
v 0.03103596 0.01707698 0.01024716
v 0.03103595 0.01488502 0.00815280
v 0.03103594 0.01289891 0.00585300
v 0.03103593 0.01112354 0.00335042
v 0.03103591 0.05769802 0.01125985
v 0.03103592 0.05617315 0.01238540
v 0.03103594 0.04891163 0.01614343
v 0.03103568 0.05720921 -0.03929801
v 0.03103567 0.04921524 -0.04369375
v 0.03103567 0.05200646 -0.04249081
v 0.03103568 0.05467378 -0.04102565
v 0.03103568 0.05558071 -0.04044834
v 0.03103567 0.04769663 -0.04422083
v 0.03103567 0.04473225 -0.04501185
v 0.03103589 0.06158701 0.00764490
v 0.03103590 0.06081501 0.00846333
v 0.03103591 0.05858830 0.01053462
v 0.03103571 0.06490590 -0.03096669
v 0.03103572 0.06641541 -0.02832664
v 0.03103567 0.04173033 -0.04551152
v 0.03103567 0.04346668 -0.04525845
v 0.03103568 0.03474847 -0.04556428
v 0.03103568 0.03403170 -0.04548264
v 0.03103571 0.02377852 -0.04238493
v 0.03103570 0.02658745 -0.04361910
v 0.03103570 0.02810255 -0.04415616
v 0.03103569 0.03043993 -0.04482165
v 0.03103583 0.06827816 -0.00379153
v 0.03103571 0.06428490 -0.03190483
v 0.03103573 0.06688239 -0.02737226
v 0.03103575 0.06865542 -0.02265159
v 0.03103575 0.06921125 -0.02042002
v 0.03103577 0.06969643 -0.01742176
v 0.03103569 0.05809533 -0.03860477
v 0.03103569 0.05905513 -0.03779437
v 0.03103569 0.06036314 -0.03657856
v 0.03103570 0.06213401 -0.03469029
v 0.03103578 0.06989437 -0.01438398
v 0.03103580 0.06979964 -0.01131316
v 0.03103580 0.06963243 -0.00971440
v 0.03103582 0.06909706 -0.00672249
v 0.03103575 0.01538653 -0.03633016
v 0.03103574 0.01737075 -0.03816235
v 0.03103573 0.01862266 -0.03917067
v 0.03103572 0.02112228 -0.04089984
v 0.03103577 0.01202504 -0.03234794
v 0.03103575 0.01246699 -0.03295298
v 0.03103576 0.01312336 -0.03379937
v 0.03103585 0.00614875 -0.01558946
v 0.02945374 0.02924274 -0.04729821
v 0.03024468 0.01146253 -0.03385850
v 0.03103575 0.01513980 -0.03607944
v 0.03024468 0.01788037 -0.04029853
v 0.03103571 0.02232718 -0.04161483
v 0.03103570 0.02627342 -0.04349687
v 0.03024468 0.02168839 -0.04280096
v 0.03103569 0.03103361 -0.04496048
v 0.03103568 0.03911808 -0.04571079
v 0.03024468 0.03919167 -0.04705590
v 0.03024468 0.03463745 -0.04690682
v 0.03024468 0.05238152 -0.04380566
v 0.03024468 0.06590382 -0.03190539
v 0.03103570 0.06242873 -0.03434435
v 0.03103573 0.06766724 -0.02555333
v 0.03024468 0.06975684 -0.02367029
v 0.02945423 0.06934474 -0.02846844
v 0.02945423 0.06955885 -0.02800089
v 0.02945424 0.07019147 -0.02649841
v 0.02945419 0.06522058 -0.03518282
v 0.02945414 0.06124874 -0.03944680
v 0.02945416 0.06303466 -0.03770589
v 0.02945410 0.05796997 -0.04207855
v 0.02945413 0.06061343 -0.04000920
v 0.02945403 0.05299348 -0.04500735
v 0.02945402 0.05215937 -0.04539447
v 0.02945398 0.04904997 -0.04661165
v 0.02945391 0.04398054 -0.04790441
v 0.02945392 0.04425614 -0.04785481
v 0.02945394 0.04582278 -0.04752852
v 0.02945397 0.04858300 -0.04676537
v 0.02945386 0.03919252 -0.04840444
v 0.02945382 0.03584322 -0.04835821
v 0.02945380 0.03433120 -0.04823062
v 0.02945375 0.02985265 -0.04745199
v 0.02945378 0.03251220 -0.04798750
v 0.02945371 0.02604965 -0.04629490
v 0.02945365 0.02002277 -0.04338745
v 0.02945366 0.02089009 -0.04389757
v 0.02945367 0.02296668 -0.04498743
v 0.02945370 0.02533216 -0.04602170
v 0.02945363 0.01724674 -0.04150970
v 0.02945361 0.01467346 -0.03937775
v 0.02945360 0.01305386 -0.03779843
v 0.02945360 0.01351367 -0.03826806
v -0.02943029 0.06934452 -0.02846838
v -0.02943029 0.06962369 -0.02785508
v -0.02837853 0.01262279 -0.03831082
v -0.02869665 0.01300682 -0.03863456
v -0.02837853 0.02370560 -0.04606334
v -0.02837853 0.01968817 -0.04396297
v -0.02869661 0.01667819 -0.04185391
v -0.02837853 0.02982407 -0.04812977
v -0.02837853 0.02915053 -0.04796218
v -0.02837853 0.02795932 -0.04763094
v -0.02869665 0.02983335 -0.04808268
v -0.02869670 0.02517350 -0.04662346
v -0.02837853 0.02515755 -0.04666886
v -0.02837853 0.03333986 -0.04878153
v -0.02837853 0.03464695 -0.04893093
v -0.02837853 0.03789401 -0.04909012
v -0.02869664 0.03953077 -0.04900914
v -0.02837853 0.03953438 -0.04905700
v -0.02943025 0.03949524 -0.04839260
v -0.02925071 0.03951016 -0.04865925
v -0.02925072 0.03467786 -0.04853396
v -0.02943024 0.03470021 -0.04826788
v -0.02943024 0.02996866 -0.04747989
v -0.02925070 0.02990952 -0.04774035
v -0.02943023 0.02539233 -0.04604525
v -0.02925068 0.02529719 -0.04629492
v -0.02943023 0.02105828 -0.04399261
v -0.02925068 0.02092900 -0.04422635
v -0.02925068 0.01325498 -0.03838675
v -0.02837853 0.04244993 -0.04880927
v -0.02869668 0.04438246 -0.04845979
v -0.02925070 0.04431354 -0.04811576
v -0.02837853 0.04439250 -0.04850675
v -0.02837853 0.04693108 -0.04794035
v -0.02943026 0.04858299 -0.04676524
v -0.02925070 0.04899501 -0.04691163
v -0.02837854 0.04912711 -0.04728809
v -0.02837854 0.05126270 -0.04650088
v -0.02837854 0.05364874 -0.04542860
v -0.02943026 0.04890718 -0.04665928
v -0.02925071 0.05346610 -0.04507401
v -0.02943026 0.05334403 -0.04483634
v -0.02869668 0.05784107 -0.04292044
v -0.02943027 0.05710987 -0.04266777
v -0.02837854 0.05786875 -0.04295966
v -0.02837854 0.05919006 -0.04201228
v -0.02943027 0.06125096 -0.03944455
v -0.02837854 0.06170653 -0.03993073
v -0.02869672 0.06167378 -0.03989561
v -0.02943028 0.06457216 -0.03598369
v -0.02925069 0.01688858 -0.04157376
v -0.02900161 0.01675667 -0.04174902
v -0.02900163 0.02082304 -0.04441863
v -0.02900165 0.02521938 -0.04650039
v -0.02900163 0.02986138 -0.04795454
v -0.02900163 0.03952274 -0.04887833
v -0.02900166 0.04435644 -0.04833116
v -0.02900167 0.04906738 -0.04711905
v -0.02900166 0.05356650 -0.04526935
v -0.02925072 0.05763896 -0.04263371
v -0.02925071 0.06143377 -0.03963946
v -0.02900166 0.05776547 -0.04281323
v -0.02900168 0.06158405 -0.03979975
v -0.02925074 0.06478021 -0.03615127
v -0.02925077 0.06760971 -0.03223197
v -0.02900162 0.01309953 -0.03854181
v -0.02869666 0.02076020 -0.04453377
v -0.02900161 0.03465990 -0.04875254
v -0.02869660 0.03464982 -0.04888308
v -0.02869670 0.04911087 -0.04724292
v -0.02869669 0.05362660 -0.04538601
v -0.02900166 0.06495110 -0.03628909
v -0.02869667 0.06505306 -0.03637153
v -0.02900163 0.06779778 -0.03234456
v -0.02869660 0.06790993 -0.03241190
v -0.02837854 0.06828874 -0.03188115
v -0.02837854 0.06795084 -0.03243681
v -0.02837854 0.06570440 -0.03564367
v -0.02837854 0.06509022 -0.03640188
v -0.02900171 0.07172948 -0.02347152
v -0.02925072 0.07151712 -0.02341468
v -0.02925075 0.06986977 -0.02795896
v -0.02900167 0.07007190 -0.02804452
v -0.02869667 0.07019252 -0.02809585
v -0.02837855 0.07023652 -0.02811494
v -0.02867403 0.05648065 0.01615039
v -0.02837862 0.05521376 0.01694150
v -0.02837855 0.07190263 -0.02351859
v -0.02837856 0.07267973 -0.02019932
v -0.02869675 0.07185634 -0.02350575
v -0.02869660 0.07289315 -0.01854306
v -0.02837856 0.07289637 -0.01887907
v -0.02837856 0.07314033 -0.01672881
v -0.02837857 0.07325821 -0.01414733
v -0.02837858 0.07284031 -0.00840907
v -0.02869161 0.07279451 -0.00841597
v -0.02837857 0.07298139 -0.00940985
v -0.02837857 0.07302734 -0.00979001
v -0.02837857 0.07325480 -0.01324722
v -0.02837858 0.07246547 -0.00638939
v -0.02868808 0.07166070 -0.00348633
v -0.02837858 0.07207092 -0.00475247
v -0.02837859 0.07038254 0.00011966
v -0.02837859 0.07054327 -0.00025953
v -0.02868433 0.06983051 0.00123546
v -0.02837861 0.06509168 0.00873664
v -0.02868070 0.06734161 0.00564415
v -0.02837860 0.06711973 0.00605107
v -0.02867753 0.06423694 0.00966322
v -0.02837862 0.06282772 0.01120585
v -0.02900139 0.05640779 0.01602925
v -0.02942928 0.05774475 0.01457627
v -0.02926951 0.05628188 0.01582728
v -0.02926863 0.06035227 0.01289432
v -0.02942945 0.06293757 0.01014653
v -0.02942936 0.06045707 0.01248432
v -0.02942933 0.05932115 0.01341290
v -0.02942952 0.06516531 0.00758952
v -0.02926687 0.06395837 0.00941171
v -0.02942947 0.06377498 0.00924389
v -0.02942975 0.07017323 -0.00111713
v -0.02942967 0.06879615 0.00192868
v -0.02925629 0.07244029 -0.00847508
v -0.02925893 0.07131457 -0.00359625
v -0.02942987 0.07173879 -0.00618676
v -0.02942983 0.07124561 -0.00426665
v -0.02925406 0.07285487 -0.01348558
v -0.02943004 0.07259194 -0.01349225
v -0.02942998 0.07245672 -0.01075516
v -0.02943013 0.07241955 -0.01729489
v -0.02925253 0.07254229 -0.01850083
v -0.02943016 0.07228089 -0.01846999
v -0.02943022 0.07194230 -0.02051030
v -0.02837863 0.05768762 0.01542072
v -0.02867519 0.06059404 0.01318488
v -0.02837862 0.06035137 0.01343946
v -0.02900146 0.06050500 0.01307570
v -0.02900179 0.06722710 0.00556596
v -0.02900201 0.06970727 0.00117515
v -0.02900224 0.07153153 -0.00352782
v -0.02900246 0.07266212 -0.00843824
v -0.02869457 0.07321051 -0.01347749
v -0.02900264 0.07307749 -0.01348049
v -0.02900276 0.07276189 -0.01852709
v -0.02900160 0.06413390 0.00956851
v -0.02926449 0.06703316 0.00543679
v -0.02926176 0.06949954 0.00107570
v -0.02358622 0.02905264 -0.04833970
v -0.02113518 0.02900956 -0.04850587
v -0.02113518 0.02779938 -0.04816936
v -0.01343736 0.02890494 -0.04890941
v -0.00867495 0.02763368 -0.04872716
v -0.00687977 0.02885254 -0.04911151
v -0.00579801 0.02884714 -0.04913233
v 0.00183956 0.02883519 -0.04917841
v -0.00579801 0.02761511 -0.04878973
v 0.01075791 0.02887925 -0.04900848
v 0.00946912 0.02886902 -0.04904795
v 0.00378816 0.02883949 -0.04916187
v 0.01626362 0.02893765 -0.04878325
v 0.00378816 0.07150471 -0.02830872
v 0.00378816 0.03317609 -0.05000989
v -0.00867495 0.03318875 -0.04991493
v -0.02113518 0.07088263 -0.02803991
v -0.02113518 0.06877150 -0.03216879
v -0.02113518 0.05952791 -0.04246157
v -0.02113518 0.06304616 -0.03944057
v -0.02837854 0.06265333 -0.03903892
v -0.02113518 0.06614467 -0.03599035
v -0.02113518 0.05564889 -0.04500274
v -0.02113518 0.05147407 -0.04702155
v -0.02837854 0.05537271 -0.04451493
v -0.02113518 0.04252076 -0.04936590
v -0.02113518 0.04707345 -0.04848408
v -0.02113518 0.03789231 -0.04965219
v -0.02113518 0.03326566 -0.04933815
v -0.02108171 0.02900867 -0.04850930
v 0.02840193 0.03245791 -0.04865277
v 0.01626362 0.03322779 -0.04962219
v 0.02840193 0.03333985 -0.04878174
v 0.02840190 0.04256807 -0.04879437
v 0.01626362 0.03789144 -0.04993875
v 0.02840189 0.04589546 -0.04819556
v 0.02840189 0.04439734 -0.04850619
v 0.01626362 0.04255693 -0.04965016
v 0.02840186 0.05329891 -0.04559979
v 0.01626362 0.05158186 -0.04728706
v 0.02840187 0.05126285 -0.04650126
v 0.02840188 0.04914091 -0.04728393
v 0.02840186 0.05532616 -0.04454179
v 0.01626362 0.06636981 -0.03616764
v 0.01626362 0.06324653 -0.03964541
v 0.02840183 0.06332313 -0.03836738
v 0.02840183 0.06265372 -0.03903931
v 0.02840183 0.06556150 -0.03582493
v 0.01626362 0.06901766 -0.03231549
v 0.02840182 0.06828929 -0.03188146
v 0.01626362 0.07114568 -0.02815359
v 0.02840183 0.07036754 -0.02781737
v 0.02840182 0.06924026 -0.03018001
v 0.02840183 0.07066546 -0.02710728
v 0.02840183 0.07173155 -0.02410176
v -0.00867505 0.07300210 -0.02383306
v -0.02250464 0.07235266 -0.02364730
v -0.01232910 0.07288647 -0.02379996
v -0.00867495 0.07141678 -0.02827074
v -0.00867495 0.06927136 -0.03246668
v -0.00867495 0.06345301 -0.03985657
v -0.00867495 0.05987762 -0.04292664
v -0.00867495 0.05593558 -0.04550911
v -0.00867495 0.05169295 -0.04756068
v -0.00867495 0.04722084 -0.04904701
v -0.00867495 0.04259420 -0.04994313
v -0.00867495 0.03789057 -0.05023406
v -0.00867495 0.06660186 -0.03635031
v 0.00378816 0.06667712 -0.03640959
v 0.00378816 0.06351999 -0.03992504
v 0.00378816 0.05598278 -0.04559246
v 0.00378816 0.04260629 -0.05003815
v 0.00378816 0.03789027 -0.05032987
v 0.00802386 0.07301899 -0.02383815
v 0.00378816 0.06935364 -0.03251572
v 0.00378816 0.05993519 -0.04300320
v 0.01626362 0.05970013 -0.04269059
v 0.00378816 0.05172899 -0.04764945
v 0.01626362 0.05579007 -0.04525213
v 0.01626362 0.04714604 -0.04876129
v 0.00378816 0.04724511 -0.04913966
v -0.02837853 0.01597344 -0.04136446
v -0.02113518 0.01221856 -0.03870079
v -0.00867495 0.01179976 -0.03910479
v 0.01626362 0.01201231 -0.03889973
v 0.02840193 0.02370560 -0.04606334
v 0.01626362 0.02771779 -0.04844406
v 0.01626362 0.02336174 -0.04683876
v -0.02113518 0.02347792 -0.04657679
v 0.00378816 0.02760641 -0.04881898
v 0.02840193 0.01968817 -0.04396297
v 0.01626362 0.01924766 -0.04468782
v 0.00378816 0.02320317 -0.04719630
v -0.00867495 0.02324202 -0.04710872
v -0.02113518 0.01939647 -0.04444294
v 0.02840193 0.01597344 -0.04136446
v 0.00378816 0.01519923 -0.04233224
v -0.00867495 0.01525907 -0.04225744
v 0.00378816 0.01904454 -0.04502208
v -0.00867495 0.01909429 -0.04494021
v -0.02113518 0.01562257 -0.04180306
v 0.02840193 0.00977729 -0.03496741
v 0.02840193 0.01262279 -0.03831082
v 0.01626362 0.01544356 -0.04202682
v 0.00378816 0.01173082 -0.03917127
v 0.02840230 0.07055905 -0.00029819
v 0.01626352 0.07410641 -0.01415495
v -0.02113528 0.05930443 0.01496672
v -0.02837862 0.06258682 0.01144246
v -0.02837862 0.05897039 0.01451520
v -0.02837861 0.06575789 0.00791197
v -0.02837861 0.06426817 0.00969007
v -0.02837859 0.06987013 0.00125364
v -0.02113528 0.06891083 0.00427143
v -0.02837860 0.06889000 0.00317077
v -0.02837860 0.06842615 0.00398758
v -0.02113528 0.06620006 0.00825829
v -0.02837859 0.07157953 -0.00307635
v -0.02113528 0.07106168 -0.00004333
v -0.02113528 0.07261364 -0.00460786
v -0.02113528 0.07353862 -0.00933944
v -0.02113528 0.07381985 -0.01415236
v -0.02837856 0.07294245 -0.01854960
v -0.02113528 0.07345224 -0.01895949
v 0.02840215 0.07267801 -0.02020807
v 0.01626352 0.07373586 -0.01900052
v 0.02840213 0.07313035 -0.01684813
v 0.02840215 0.07289635 -0.01887906
v 0.02840217 0.07325775 -0.01346617
v 0.02840222 0.07306045 -0.01008979
v 0.01626352 0.07382293 -0.00930352
v 0.02840222 0.07254244 -0.00675492
v 0.02840223 0.07298120 -0.00940989
v 0.01626352 0.07132617 0.00006694
v 0.01626352 0.07289056 -0.00453408
v 0.02840225 0.07170539 -0.00347716
v 0.02840224 0.07207116 -0.00475242
v 0.02840231 0.06977984 0.00144261
v 0.02840231 0.06911322 0.00275900
v 0.02840230 0.06842636 0.00398771
v 0.01626352 0.06915811 0.00441624
v 0.02840231 0.06738324 0.00565961
v 0.02840236 0.06312406 0.01090850
v 0.02840239 0.06413054 0.00984283
v 0.02840238 0.06538234 0.00838276
v 0.01626352 0.06642567 0.00843502
v 0.01626352 0.06317831 0.01205045
v 0.02840235 0.06064393 0.01319705
v 0.02840242 0.05897031 0.01451510
v 0.01626352 0.05947487 0.01519709
v -0.00867505 0.05965052 0.01543453
v -0.02113528 0.06297848 0.01184506
v -0.00867505 0.06665816 0.00861712
v -0.00867505 0.06941295 0.00456549
v -0.00867505 0.07411592 -0.00926649
v -0.00867505 0.07440172 -0.01415759
v -0.00867505 0.07402815 -0.01904278
v 0.00378806 0.07309416 -0.02385958
v 0.00378806 0.07412295 -0.01905651
v -0.00215465 0.07310858 -0.02386359
v 0.00378806 0.07449751 -0.01415846
v 0.00378806 0.07421096 -0.00925447
v 0.00378806 0.07326849 -0.00443339
v -0.00867505 0.07317592 -0.00445803
v -0.00867505 0.07159875 0.00018063
v 0.00378806 0.06949563 0.00461390
v 0.00378806 0.06673357 0.00867620
v -0.00867505 0.06338423 0.01226213
v 0.00378806 0.05970750 0.01551154
v 0.00378806 0.06345104 0.01233080
v 0.00378806 0.07168715 0.00021750
v 0.01821158 0.07261702 -0.02372341
v 0.02840181 0.07190278 -0.02351948
v -0.03021604 0.05540435 0.01450661
v -0.02942873 0.05488965 0.01636108
v -0.02942978 0.07065052 -0.00239870
v -0.03021604 0.06939489 -0.00286396
v -0.03021604 0.07034976 -0.02153806
v -0.03021604 0.07101647 -0.01780843
v -0.03021604 0.07125462 -0.01402719
v -0.02943006 0.07259297 -0.01403355
v -0.02942990 0.07200767 -0.00748945
v -0.03021604 0.07106115 -0.01024337
v -0.02942981 0.07106976 -0.00367518
v -0.03021604 0.07043854 -0.00650613
v -0.02942960 0.06712300 0.00484072
v -0.03021604 0.06389932 0.00702923
v -0.03021604 0.05851459 0.01234303
v -0.03021604 0.06135855 0.00983975
v -0.03101224 0.06236538 0.00675826
v -0.03021604 0.06794374 0.00063587
v -0.03021604 0.06610392 0.00394793
v -0.03101226 0.06818905 -0.00352564
v -0.03101225 0.06657740 0.00034348
v -0.02943025 0.04426166 -0.04785366
v -0.02943025 0.04398045 -0.04790433
v -0.03022131 0.03463745 -0.04690682
v -0.03022131 0.03014638 -0.04613641
v -0.03022131 0.02580284 -0.04475916
v -0.03022131 0.02168841 -0.04280093
v -0.02943022 0.01704940 -0.04136059
v -0.02943022 0.01344421 -0.03819826
v -0.03022131 0.01445028 -0.03729891
v -0.03022131 0.04814782 -0.04549060
v -0.02943026 0.05298741 -0.04501010
v -0.02943027 0.05748505 -0.04241534
v -0.03022131 0.05996396 -0.03878876
v -0.02943027 0.06087258 -0.03978287
v -0.02943028 0.06420784 -0.03641310
v -0.02943029 0.07125887 -0.02334578
v -0.03022131 0.06975682 -0.02367028
v -0.02943028 0.06738055 -0.03209502
v -0.02943028 0.06704954 -0.03261747
v -0.03101233 0.06591890 -0.02926132
v -0.03101232 0.06726583 -0.02652244
v -0.03101239 0.04866047 -0.04389612
v -0.03101241 0.03810766 -0.04573004
v -0.03022131 0.03919167 -0.04705590
v -0.03022131 0.01788038 -0.04029853
v -0.03101241 0.01983594 -0.04005387
v -0.03101241 0.01442036 -0.03531539
v -0.03101241 0.01538657 -0.03633011
v -0.03022131 0.01146255 -0.03385847
v -0.03101241 0.01657463 -0.03746422
v -0.03101241 0.01892254 -0.03939707
v 0.02853996 0.07188985 -0.02351449
v 0.02869798 0.07013195 -0.02824373
v 0.02840183 0.06753512 -0.03309157
v 0.02869866 0.06773937 -0.03269299
v 0.02869995 0.06471433 -0.03677861
v 0.02840183 0.06474768 -0.03680746
v 0.02870300 0.05768742 -0.04302935
v 0.02840185 0.05919039 -0.04201268
v 0.02870127 0.06167824 -0.03989717
v 0.02840184 0.06085056 -0.04068384
v 0.02840187 0.05229926 -0.04606159
v 0.02870498 0.05327791 -0.04555985
v 0.02840185 0.05817978 -0.04274548
v 0.02870709 0.04857467 -0.04741950
v 0.02840189 0.04693117 -0.04794072
v 0.02870892 0.04438615 -0.04846165
v 0.02840191 0.03789400 -0.04909037
v 0.02840191 0.03919365 -0.04907041
v 0.02840192 0.03581687 -0.04902312
v 0.02871103 0.03934263 -0.04901891
v 0.02871308 0.03428490 -0.04884801
v 0.02840193 0.02915053 -0.04796218
v 0.02871509 0.02929239 -0.04795037
v 0.02840193 0.02795932 -0.04763094
v 0.02871803 0.02059503 -0.04444106
v 0.02871985 0.01261072 -0.03822917
v 0.02927451 0.01658593 -0.04133977
v 0.02927626 0.02529507 -0.04629102
v 0.02927717 0.02936755 -0.04760212
v 0.02927833 0.03431011 -0.04849105
v 0.02927969 0.03931698 -0.04865964
v 0.02945390 0.04252159 -0.04812870
v 0.02928110 0.04430928 -0.04810719
v 0.02928228 0.04845499 -0.04707503
v 0.02928359 0.05310979 -0.04523388
v 0.02945406 0.05513880 -0.04388217
v 0.02928483 0.05747355 -0.04272896
v 0.02945408 0.05710998 -0.04266790
v 0.02945413 0.06087269 -0.03978303
v 0.02928597 0.06142262 -0.03962864
v 0.02945418 0.06420804 -0.03641316
v 0.02945421 0.06715888 -0.03244755
v 0.02945423 0.06882242 -0.02953865
v 0.02928741 0.06742088 -0.03249986
v 0.02928795 0.06978828 -0.02809703
v 0.02927404 0.01009676 -0.03472815
v 0.02945360 0.01231428 -0.03700405
v 0.02927412 0.01286215 -0.03798420
v 0.02902343 0.06762098 -0.03262157
v 0.02902366 0.06460733 -0.03669119
v 0.02928675 0.06442709 -0.03654244
v 0.02902380 0.06158281 -0.03979769
v 0.02902387 0.05760732 -0.04291800
v 0.02902402 0.05321461 -0.04543889
v 0.02902418 0.04852917 -0.04729150
v 0.02902428 0.04435642 -0.04832979
v 0.02902435 0.03933183 -0.04888501
v 0.02902444 0.03429291 -0.04871473
v 0.02902481 0.02521954 -0.04650003
v 0.02902483 0.02065671 -0.04432440
v 0.02902483 0.01645288 -0.04151511
v 0.02927527 0.02076235 -0.04413023
v 0.02902503 0.00992088 -0.03485985
v 0.02902495 0.01270454 -0.03813734
v 0.02871910 0.01637426 -0.04162039
v 0.02871661 0.02517648 -0.04662543
v 0.02902466 0.02931896 -0.04781997
v 0.02902349 0.07000428 -0.02818944
v 0.03103596 0.04443652 0.01741230
v 0.03103567 0.05357301 0.01400893
v 0.03103594 0.05170429 0.01497511
v 0.03103595 0.04738632 0.01665525
v 0.03103597 0.02625667 0.01582693
v 0.03103596 0.02084529 0.01306262
v 0.03103593 0.01073460 0.00272704
v 0.03103592 0.00928559 0.00006512
v 0.02927761 0.00785566 -0.03114801
v 0.02933936 0.00545915 -0.02328368
v 0.02903618 0.00611485 -0.02735657
v 0.02902545 0.00766938 -0.03125284
v 0.02872296 0.00601144 -0.02740641
v 0.02871944 0.00756253 -0.03131726
v 0.02929855 0.00630642 -0.02728036
v 0.02872009 0.00981575 -0.03493860
v 0.02840200 0.00869016 -0.03339089
v 0.02945350 0.05576242 0.01585449
v 0.02902364 0.07172690 -0.02347022
v 0.02945374 0.07202809 -0.02005714
v 0.02945375 0.07230064 -0.01831894
v 0.02945374 0.07248059 -0.01661779
v 0.02910433 0.07299513 -0.01325576
v 0.02945371 0.07258675 -0.01316814
v 0.02945366 0.07235093 -0.00974394
v 0.02910240 0.07255261 -0.00824993
v 0.02945363 0.07215177 -0.00832179
v 0.02945358 0.07178091 -0.00637769
v 0.02945348 0.07088728 -0.00310058
v 0.02910173 0.07139748 -0.00335950
v 0.02945338 0.06985156 -0.00033256
v 0.02945332 0.06918192 0.00114985
v 0.02910159 0.06954581 0.00133179
v 0.02945327 0.06845613 0.00257537
v 0.02910216 0.06704720 0.00569567
v 0.02945319 0.06685800 0.00524708
v 0.02910328 0.06395094 0.00965504
v 0.02945311 0.06363913 0.00939409
v 0.02945315 0.06003883 0.01283470
v 0.02910732 0.06029284 0.01315136
v 0.02945310 0.06228118 0.01081036
v 0.02945310 0.06307885 0.00999803
v 0.02945323 0.05841691 0.01409588
v 0.02911804 0.05619472 0.01606837
v 0.02868509 0.05630541 0.01625089
v 0.02840245 0.05795635 0.01523785
v 0.02870025 0.06042387 0.01330957
v 0.02870630 0.06409658 0.00979496
v 0.02840235 0.06258687 0.01144251
v 0.02840237 0.06575771 0.00791183
v 0.02870862 0.06721351 0.00580846
v 0.02870926 0.07158793 -0.00329668
v 0.02870939 0.06972604 0.00141928
v 0.02840222 0.07280833 -0.00820848
v 0.02870828 0.07275083 -0.00821664
v 0.02870524 0.07319798 -0.01325464
v 0.02840216 0.07325824 -0.01414733
v 0.02869747 0.07290982 -0.01839630
v 0.02910971 0.07270388 -0.01837373
v 0.03024449 0.07034118 -0.02153681
v 0.03024449 0.07100780 -0.01780812
v 0.03024449 0.07124599 -0.01402778
v 0.03024449 0.07105263 -0.01024490
v 0.03024449 0.07043023 -0.00650858
v 0.03103585 0.06670050 0.00009162
v 0.03024449 0.06793615 0.00063172
v 0.03103585 0.06717362 -0.00092916
v 0.03024449 0.06938690 -0.00286728
v 0.03103588 0.06285918 0.00615853
v 0.03103588 0.06353945 0.00528174
v 0.03024449 0.06609683 0.00394299
v 0.03103586 0.06524426 0.00276143
v 0.03024449 0.05850942 0.01233611
v 0.03024449 0.05539997 0.01449918
v 0.02945312 0.06097304 0.01203424
v 0.03024449 0.06135267 0.00983340
v 0.02945313 0.06505431 0.00772893
v 0.03024449 0.06389280 0.00702353
v 0.02945401 0.07125877 -0.02334643
v 0.00000000 -0.00000001 -0.02725000
v -0.02656678 -0.00000000 0.00606371
v -0.02455140 -0.00000001 0.01182332
v -0.01182333 -0.00000000 0.02455140
v -0.00606370 -0.00000001 0.02656678
v 0.00747178 -0.00000000 -0.02750314
v 0.02455140 -0.00000001 0.01182332
v 0.00606370 -0.00000001 0.02656678
v 0.02455140 -0.00000001 -0.01182333
f 424 3 1
f 1 3 2
f 939 41 28
f 18 1013 19
f 1013 1012 1011
f 1011 19 1013
f 933 2 3
f 720 719 734
f 792 758 757
f 758 792 793
f 793 792 797
f 757 758 588
f 633 620 616
f 371 621 622
f 621 620 622
f 478 417 418
f 418 417 452
f 698 699 655
f 312 313 278
f 974 324 325
f 328 325 327
f 35 152 36
f 29 30 28
f 29 25 26
f 422 452 421
f 41 939 205
f 1017 26 1015
f 1017 29 26
f 30 29 1017
f 26 25 154
f 20 19 21
f 12 1011 14
f 14 1011 15
f 15 1011 1012
f 250 237 282
f 281 237 235
f 238 250 249
f 237 250 238
f 247 255 285
f 283 288 285
f 285 255 283
f 324 241 240
f 240 242 230
f 241 242 240
f 239 241 324
f 239 324 974
f 434 433 953
f 435 433 434
f 953 433 991
f 459 433 424
f 662 701 702
f 702 701 708
f 663 701 662
f 708 671 709
f 709 702 708
f 703 702 709
f 709 671 651
f 709 651 652
f 652 703 709
f 737 734 719
f 512 339 340
f 530 548 547
f 662 519 522
f 519 520 522
f 522 663 662
f 522 520 523
f 523 663 522
f 832 508 353
f 840 358 357
f 524 358 840
f 568 658 656
f 758 793 760
f 963 962 964
f 791 792 757
f 800 791 757
f 1002 400 968
f 400 412 968
f 693 653 577
f 654 653 695
f 654 658 566
f 566 565 654
f 577 653 574
f 574 653 654
f 654 565 574
f 815 621 371
f 371 370 815
f 612 616 618
f 621 815 619
f 619 815 370
f 619 620 621
f 619 616 620
f 605 604 825
f 826 604 609
f 352 351 826
f 674 671 708
f 479 452 422
f 424 452 431
f 37 424 1
f 37 452 424
f 37 36 152
f 477 478 891
f 537 656 655
f 655 699 659
f 659 534 655
f 699 698 712
f 795 793 797
f 8 7 6
f 9 7 8
f 51 57 11
f 141 96 142
f 285 288 286
f 288 290 286
f 282 237 296
f 296 237 281
f 299 312 278
f 278 289 299
f 299 289 295
f 312 299 311
f 278 313 280
f 215 102 103
f 244 102 215
f 244 246 102
f 265 246 266
f 267 244 215
f 246 244 267
f 972 968 969
f 1002 968 972
f 972 400 1002
f 167 163 168
f 160 156 162
f 163 167 162
f 168 163 217
f 398 387 396
f 396 397 398
f 398 152 399
f 398 397 152
f 25 29 153
f 153 29 39
f 651 671 668
f 924 907 938
f 938 941 924
f 30 1017 31
f 31 1017 32
f 32 1014 33
f 32 1017 1009
f 1009 1017 1015
f 22 21 24
f 182 12 191
f 16 15 1012
f 236 235 237
f 236 238 272
f 237 238 236
f 264 251 253
f 252 251 249
f 282 283 252
f 264 242 262
f 262 242 241
f 262 251 264
f 249 251 262
f 230 242 263
f 263 242 264
f 323 325 324
f 324 240 323
f 323 240 230
f 241 239 261
f 261 262 241
f 272 238 261
f 261 238 249
f 249 262 261
f 401 412 400
f 933 412 401
f 400 972 401
f 954 956 435
f 954 434 953
f 954 955 956
f 426 459 460
f 933 386 390
f 526 663 523
f 734 737 731
f 495 556 731
f 731 556 725
f 514 336 335
f 334 512 335
f 335 512 514
f 337 336 835
f 835 514 337
f 835 336 514
f 334 339 834
f 834 512 334
f 339 512 834
f 511 512 340
f 511 853 508
f 501 543 544
f 556 543 501
f 514 512 515
f 500 501 544
f 499 501 500
f 639 499 637
f 841 530 525
f 525 530 547
f 521 524 525
f 531 530 841
f 841 365 364
f 363 531 364
f 364 531 841
f 529 365 841
f 841 525 529
f 529 525 524
f 524 840 529
f 529 840 357
f 353 358 359
f 359 832 353
f 831 358 524
f 831 524 521
f 521 832 831
f 831 359 358
f 832 359 831
f 706 712 697
f 697 712 698
f 697 705 706
f 697 698 655
f 655 656 697
f 757 588 587
f 633 616 632
f 632 616 612
f 632 580 633
f 435 956 436
f 436 433 435
f 959 958 957
f 957 955 959
f 956 955 957
f 957 436 956
f 798 743 797
f 797 792 798
f 792 791 798
f 798 800 799
f 791 800 798
f 771 798 799
f 960 958 959
f 959 962 960
f 756 589 591
f 756 800 757
f 757 589 756
f 774 777 775
f 742 774 982
f 982 774 775
f 982 964 962
f 653 693 694
f 692 695 694
f 694 695 653
f 694 693 760
f 694 793 692
f 694 760 793
f 581 760 578
f 760 693 578
f 578 693 577
f 578 580 581
f 654 695 696
f 567 658 568
f 567 566 658
f 570 620 633
f 570 622 620
f 360 361 368
f 368 366 360
f 367 366 368
f 367 618 617
f 617 618 616
f 617 366 367
f 594 592 593
f 607 609 608
f 608 609 604
f 235 236 805
f 805 236 272
f 361 615 614
f 829 361 360
f 829 615 361
f 823 352 826
f 607 352 823
f 826 609 823
f 823 609 607
f 406 407 405
f 916 877 875
f 917 877 916
f 916 875 677
f 473 474 409
f 894 474 473
f 470 405 404
f 404 471 470
f 422 421 445
f 445 479 422
f 418 452 480
f 452 479 480
f 480 478 418
f 891 478 480
f 409 431 453
f 453 431 452
f 453 452 417
f 424 431 458
f 1 387 936
f 936 37 1
f 387 398 936
f 936 398 399
f 399 152 936
f 452 37 204
f 203 443 204
f 446 443 442
f 417 478 455
f 455 477 417
f 478 477 455
f 417 477 394
f 394 453 417
f 395 453 394
f 568 656 657
f 656 537 657
f 657 537 538
f 661 659 528
f 534 659 661
f 538 537 535
f 535 537 655
f 655 534 535
f 680 705 685
f 427 949 428
f 428 433 427
f 427 459 426
f 433 459 427
f 951 433 428
f 951 991 433
f 953 991 951
f 55 7 9
f 9 54 55
f 6 53 196
f 196 492 6
f 53 492 196
f 493 737 719
f 719 492 493
f 493 492 53
f 11 57 58
f 58 57 56
f 9 8 58
f 56 55 58
f 58 55 54
f 354 340 353
f 353 508 354
f 546 545 521
f 547 520 546
f 546 525 547
f 521 525 546
f 521 545 509
f 509 832 521
f 508 832 509
f 506 520 519
f 506 546 520
f 545 546 506
f 125 126 141
f 141 142 125
f 285 286 91
f 287 286 290
f 279 289 278
f 278 280 279
f 279 280 290
f 279 290 288
f 288 289 279
f 295 289 297
f 297 296 295
f 282 296 297
f 297 289 288
f 297 283 282
f 288 283 297
f 295 296 298
f 298 296 281
f 600 311 575
f 575 311 317
f 317 311 299
f 215 103 245
f 245 103 104
f 246 267 258
f 98 265 266
f 95 248 96
f 328 330 947
f 330 931 947
f 973 972 969
f 974 325 973
f 973 947 972
f 973 325 328
f 328 947 973
f 932 931 330
f 933 401 932
f 932 401 931
f 218 169 168
f 222 220 218
f 218 217 222
f 168 217 218
f 213 243 214
f 223 220 222
f 234 934 389
f 387 935 234
f 389 393 234
f 396 387 234
f 234 393 392
f 234 397 396
f 152 397 234
f 156 152 234
f 388 387 934
f 388 935 387
f 934 234 388
f 388 234 935
f 39 29 40
f 159 154 25
f 483 449 482
f 639 640 641
f 448 486 439
f 733 740 721
f 926 740 728
f 942 31 32
f 32 33 943
f 4 1014 32
f 32 1009 4
f 4 34 1014
f 720 734 4
f 734 733 4
f 10 1009 1011
f 11 58 10
f 10 58 8
f 26 154 157
f 154 159 157
f 27 23 24
f 1015 26 27
f 26 157 27
f 27 1009 1015
f 1011 1009 27
f 19 1011 27
f 27 21 19
f 17 16 1012
f 17 1013 18
f 17 1012 1013
f 18 113 17
f 254 283 255
f 254 252 283
f 255 253 254
f 254 253 251
f 251 252 254
f 249 250 284
f 284 252 249
f 284 250 282
f 282 252 284
f 96 248 94
f 94 247 285
f 94 248 247
f 272 261 260
f 260 261 239
f 974 973 976
f 976 973 969
f 435 434 992
f 992 954 435
f 434 954 992
f 989 427 426
f 949 427 989
f 414 459 424
f 948 949 1008
f 949 989 1008
f 426 460 1008
f 1008 989 426
f 2 933 391
f 933 390 391
f 1 2 391
f 391 387 1
f 934 387 391
f 392 934 391
f 391 234 392
f 391 390 156
f 156 234 391
f 233 217 163
f 211 227 228
f 211 225 933
f 228 223 211
f 211 223 225
f 226 227 211
f 930 386 933
f 933 225 930
f 559 526 523
f 559 520 547
f 523 520 559
f 527 526 559
f 547 548 559
f 663 526 660
f 700 701 660
f 701 663 660
f 660 526 527
f 660 699 700
f 660 659 699
f 527 528 660
f 528 659 660
f 853 511 343
f 340 354 343
f 510 511 508
f 508 509 510
f 502 499 639
f 502 501 499
f 502 639 725
f 513 515 512
f 513 510 544
f 544 543 513
f 543 515 513
f 512 511 513
f 511 510 513
f 497 500 503
f 498 637 499
f 497 637 498
f 499 500 498
f 498 500 497
f 852 529 357
f 365 529 852
f 852 358 353
f 357 358 852
f 852 364 365
f 704 656 658
f 704 697 656
f 705 697 704
f 704 696 705
f 704 658 654
f 654 696 704
f 758 760 582
f 584 589 757
f 585 589 584
f 630 632 612
f 629 585 630
f 958 436 993
f 993 957 958
f 436 957 993
f 952 954 953
f 955 954 952
f 953 951 952
f 797 743 762
f 762 795 797
f 807 771 799
f 799 800 807
f 767 765 743
f 743 798 767
f 798 771 767
f 961 962 963
f 961 960 962
f 423 436 958
f 433 436 423
f 424 433 423
f 3 424 423
f 423 933 3
f 423 412 933
f 780 779 977
f 969 966 977
f 977 976 969
f 970 966 969
f 963 964 965
f 754 756 591
f 789 790 750
f 770 774 742
f 777 774 770
f 771 807 770
f 685 705 711
f 705 696 711
f 711 687 685
f 711 696 695
f 612 618 819
f 819 618 367
f 367 368 819
f 616 619 817
f 817 617 616
f 817 619 370
f 366 617 817
f 346 606 605
f 346 344 345
f 964 982 980
f 980 966 964
f 980 977 966
f 775 777 776
f 777 778 776
f 778 980 776
f 776 982 775
f 776 980 982
f 783 779 780
f 281 235 787
f 235 805 787
f 787 298 281
f 744 298 787
f 818 368 361
f 818 614 612
f 612 819 818
f 818 819 368
f 813 829 360
f 672 716 876
f 876 877 672
f 875 877 876
f 717 674 708
f 717 716 674
f 708 701 717
f 716 717 676
f 880 668 671
f 671 878 880
f 918 917 894
f 456 405 470
f 872 873 677
f 872 675 873
f 677 676 872
f 872 676 675
f 673 670 674
f 673 877 670
f 672 877 673
f 673 716 672
f 674 716 673
f 895 471 475
f 475 474 895
f 916 896 895
f 895 474 894
f 470 471 895
f 895 896 470
f 894 917 895
f 917 916 895
f 416 473 409
f 409 453 416
f 416 453 415
f 475 471 408
f 471 404 408
f 409 474 408
f 408 474 475
f 403 431 408
f 408 431 409
f 408 407 403
f 405 407 408
f 408 404 405
f 481 445 421
f 890 481 889
f 445 481 890
f 479 445 890
f 891 480 890
f 890 480 479
f 893 416 415
f 429 431 403
f 429 430 431
f 36 37 937
f 37 936 937
f 35 36 937
f 937 152 35
f 937 936 152
f 438 204 443
f 443 447 438
f 438 447 437
f 438 437 487
f 438 448 439
f 487 486 438
f 486 448 438
f 43 42 29
f 28 41 43
f 43 29 28
f 39 40 444
f 29 42 444
f 444 40 29
f 41 205 944
f 944 205 939
f 941 938 944
f 944 939 28
f 202 443 203
f 442 443 441
f 443 202 441
f 441 202 208
f 209 938 907
f 208 202 209
f 209 202 203
f 560 661 528
f 560 528 527
f 560 559 548
f 527 559 560
f 685 687 689
f 689 686 685
f 706 705 681
f 705 680 681
f 681 712 706
f 867 680 684
f 682 681 867
f 867 681 680
f 684 680 864
f 685 686 864
f 864 680 685
f 428 949 950
f 56 53 63
f 63 55 56
f 63 53 6
f 6 7 63
f 7 55 63
f 737 493 718
f 514 515 517
f 64 53 56
f 201 199 200
f 52 54 9
f 9 58 52
f 52 58 54
f 508 853 854
f 507 519 662
f 507 506 519
f 171 172 173
f 305 300 171
f 171 300 172
f 189 191 179
f 21 109 110
f 20 21 110
f 112 113 18
f 18 19 111
f 111 112 18
f 293 287 290
f 90 91 286
f 286 287 90
f 295 298 576
f 576 299 295
f 576 317 299
f 576 298 575
f 575 317 576
f 306 307 349
f 349 83 306
f 83 183 306
f 78 185 77
f 172 300 316
f 307 306 316
f 231 245 104
f 215 245 231
f 231 220 215
f 271 263 268
f 259 267 215
f 215 258 259
f 259 258 267
f 333 323 230
f 97 98 257
f 257 95 97
f 97 96 141
f 97 95 96
f 102 246 100
f 246 265 100
f 1003 401 972
f 972 947 1003
f 931 401 1003
f 1003 947 931
f 327 227 331
f 331 227 226
f 105 243 213
f 105 231 104
f 213 231 105
f 105 214 243
f 169 218 212
f 213 214 212
f 212 218 220
f 107 169 212
f 220 231 212
f 212 231 213
f 221 258 215
f 215 220 221
f 220 223 221
f 221 223 228
f 25 153 155
f 155 159 25
f 153 159 155
f 161 159 153
f 161 152 156
f 161 153 152
f 161 156 160
f 449 483 451
f 484 450 419
f 449 451 419
f 419 483 484
f 419 451 483
f 908 447 443
f 651 668 647
f 647 648 651
f 652 651 643
f 666 640 639
f 729 723 724
f 721 34 741
f 741 733 721
f 34 4 741
f 741 4 733
f 888 486 487
f 482 486 888
f 740 926 732
f 728 724 886
f 195 942 32
f 32 943 195
f 946 33 1014
f 946 943 33
f 941 943 946
f 5 4 1009
f 5 10 8
f 1009 10 5
f 5 8 6
f 6 492 5
f 5 492 719
f 5 719 720
f 720 4 5
f 1011 12 1010
f 1010 10 1011
f 12 10 1010
f 11 10 13
f 13 10 12
f 13 46 45
f 13 12 182
f 158 157 159
f 158 161 160
f 159 161 158
f 24 21 1016
f 1016 27 24
f 21 27 1016
f 157 158 164
f 23 27 164
f 164 27 157
f 108 22 24
f 108 114 22
f 269 273 268
f 269 263 264
f 268 263 269
f 264 253 269
f 247 248 275
f 92 91 142
f 92 142 96
f 96 94 92
f 785 976 784
f 413 414 424
f 459 414 425
f 224 930 225
f 386 930 224
f 340 343 341
f 341 343 511
f 853 343 342
f 342 343 354
f 342 854 853
f 342 354 508
f 508 854 342
f 545 506 558
f 504 503 558
f 558 503 500
f 556 501 494
f 501 502 494
f 725 556 494
f 494 502 725
f 665 637 497
f 497 503 665
f 665 503 504
f 652 640 665
f 640 666 665
f 363 364 362
f 378 842 362
f 364 377 362
f 362 377 378
f 530 531 533
f 533 531 363
f 363 362 533
f 533 362 842
f 844 842 378
f 844 377 536
f 581 580 759
f 580 582 759
f 759 760 581
f 759 582 760
f 583 588 758
f 758 582 583
f 580 632 631
f 631 582 580
f 631 583 582
f 588 583 631
f 631 587 588
f 585 587 631
f 631 630 585
f 632 630 631
f 586 587 585
f 585 584 586
f 757 587 586
f 586 584 757
f 761 987 948
f 763 762 743
f 763 985 987
f 959 955 981
f 742 982 981
f 981 962 959
f 981 982 962
f 777 770 802
f 802 770 807
f 802 790 789
f 789 803 802
f 801 807 800
f 790 802 801
f 801 802 807
f 771 773 768
f 768 767 771
f 958 960 997
f 997 423 958
f 960 961 996
f 996 997 960
f 423 997 996
f 1004 968 412
f 969 968 1004
f 1004 970 969
f 1000 1001 963
f 963 965 1000
f 964 966 1006
f 1006 965 964
f 590 754 591
f 591 589 590
f 593 754 590
f 590 585 629
f 590 589 585
f 590 594 593
f 593 592 755
f 755 750 790
f 790 801 755
f 755 754 593
f 756 754 755
f 800 756 755
f 755 801 800
f 796 695 692
f 795 794 796
f 692 793 796
f 793 795 796
f 795 762 710
f 710 794 795
f 650 711 695
f 687 711 650
f 695 796 650
f 650 796 794
f 650 710 687
f 794 710 650
f 565 566 564
f 566 567 564
f 554 563 561
f 538 552 561
f 371 622 814
f 364 852 381
f 577 574 573
f 573 574 565
f 565 564 573
f 563 572 573
f 573 564 563
f 569 572 570
f 569 570 633
f 633 580 569
f 571 563 554
f 571 572 563
f 570 572 571
f 370 366 816
f 816 817 370
f 366 817 816
f 601 345 810
f 345 344 810
f 344 346 84
f 824 345 601
f 824 346 345
f 601 606 824
f 606 346 824
f 605 825 347
f 347 346 605
f 347 604 826
f 347 825 604
f 826 351 347
f 83 84 347
f 347 84 346
f 629 636 628
f 628 590 629
f 594 590 628
f 628 751 594
f 360 351 830
f 822 352 607
f 746 600 575
f 746 626 600
f 744 787 788
f 600 626 603
f 603 606 601
f 605 606 603
f 603 604 605
f 603 608 604
f 603 626 608
f 979 980 778
f 977 980 979
f 805 783 806
f 806 803 789
f 806 787 805
f 779 783 978
f 978 783 784
f 784 976 978
f 978 977 779
f 976 977 978
f 361 614 821
f 821 818 361
f 614 818 821
f 615 829 820
f 875 876 678
f 678 876 716
f 716 676 678
f 677 875 678
f 678 676 677
f 714 676 717
f 714 701 700
f 714 717 701
f 700 699 714
f 892 477 891
f 892 918 894
f 894 893 892
f 881 880 878
f 917 918 881
f 670 877 881
f 881 877 917
f 898 896 915
f 915 896 916
f 677 873 915
f 915 916 677
f 469 456 470
f 470 896 469
f 405 456 469
f 712 681 713
f 713 871 869
f 713 681 871
f 898 901 468
f 430 429 468
f 683 681 682
f 871 681 683
f 913 868 869
f 898 468 467
f 403 407 467
f 467 429 403
f 467 468 429
f 485 450 484
f 485 484 889
f 889 481 485
f 649 668 667
f 415 453 454
f 473 416 472
f 416 893 472
f 894 473 472
f 472 893 894
f 452 204 420
f 420 421 452
f 449 419 420
f 420 419 450
f 420 481 421
f 450 485 420
f 420 485 481
f 42 43 206
f 206 444 42
f 206 43 41
f 206 204 37
f 41 944 206
f 203 204 207
f 207 209 203
f 204 206 207
f 207 206 944
f 207 944 938
f 938 209 207
f 28 30 940
f 940 944 28
f 30 31 940
f 31 942 940
f 941 944 940
f 942 195 940
f 940 943 941
f 940 195 943
f 432 458 431
f 432 902 458
f 866 867 684
f 682 867 866
f 990 951 428
f 428 950 990
f 990 950 951
f 951 950 988
f 988 952 951
f 988 950 949
f 988 985 952
f 987 985 988
f 988 949 948
f 948 987 988
f 77 185 80
f 80 78 77
f 68 83 80
f 83 78 80
f 11 13 44
f 44 13 45
f 737 718 496
f 495 731 496
f 496 731 737
f 496 556 495
f 496 718 493
f 542 515 543
f 542 517 515
f 542 543 556
f 67 66 197
f 65 66 67
f 198 199 197
f 197 66 198
f 201 200 60
f 62 200 199
f 199 198 62
f 62 198 66
f 62 60 200
f 664 507 662
f 662 702 664
f 664 702 703
f 664 665 504
f 664 703 652
f 652 665 664
f 186 185 189
f 172 183 186
f 170 186 189
f 172 186 170
f 16 17 181
f 181 17 113
f 178 179 191
f 14 15 178
f 15 16 178
f 16 181 178
f 126 125 119
f 147 143 123
f 290 280 277
f 277 293 290
f 88 90 287
f 287 293 88
f 307 316 321
f 321 316 300
f 309 319 318
f 312 311 318
f 311 309 318
f 313 312 318
f 318 319 313
f 320 306 183
f 320 316 306
f 320 183 172
f 172 316 320
f 270 271 268
f 270 273 266
f 268 273 270
f 258 271 270
f 266 246 270
f 246 258 270
f 229 271 258
f 229 333 230
f 230 263 229
f 263 271 229
f 258 221 229
f 228 333 229
f 229 221 228
f 332 227 327
f 228 227 332
f 332 333 228
f 98 97 140
f 140 97 141
f 141 126 140
f 126 128 140
f 327 331 329
f 329 331 932
f 328 327 329
f 329 330 328
f 329 932 330
f 933 932 402
f 932 331 402
f 402 331 226
f 402 211 933
f 226 211 402
f 219 105 107
f 214 105 219
f 107 212 219
f 219 212 214
f 443 446 210
f 210 908 443
f 907 908 210
f 210 441 208
f 210 446 442
f 442 441 210
f 210 209 907
f 208 209 210
f 909 888 487
f 909 907 924
f 909 908 907
f 437 447 489
f 487 437 489
f 489 909 487
f 646 668 649
f 646 647 668
f 649 723 646
f 646 723 647
f 651 648 644
f 644 643 651
f 645 643 644
f 642 640 652
f 652 643 642
f 642 641 640
f 645 641 642
f 642 643 645
f 639 637 638
f 638 666 639
f 637 665 638
f 638 665 666
f 722 886 724
f 648 647 726
f 726 644 648
f 647 723 726
f 723 729 726
f 726 729 645
f 645 644 726
f 730 641 645
f 645 729 730
f 725 639 730
f 639 641 730
f 730 731 725
f 727 926 728
f 728 886 727
f 727 886 926
f 921 922 926
f 926 886 921
f 373 13 383
f 46 13 373
f 101 103 102
f 101 137 103
f 102 100 101
f 98 140 139
f 137 101 139
f 139 140 128
f 160 162 166
f 166 162 167
f 134 108 24
f 248 95 256
f 256 275 248
f 256 95 257
f 256 98 266
f 257 98 256
f 266 273 256
f 273 275 256
f 247 275 274
f 255 247 274
f 274 253 255
f 274 269 253
f 273 269 274
f 274 275 273
f 93 94 285
f 93 92 94
f 285 91 93
f 91 92 93
f 786 783 805
f 784 783 786
f 786 785 784
f 786 805 272
f 272 260 786
f 786 260 239
f 232 224 225
f 232 223 222
f 225 223 232
f 233 224 232
f 222 217 232
f 217 233 232
f 216 224 233
f 216 233 163
f 386 224 216
f 216 162 156
f 163 162 216
f 156 390 216
f 216 390 386
f 833 511 340
f 340 341 833
f 833 341 511
f 545 558 557
f 557 509 545
f 557 510 509
f 544 510 557
f 557 500 544
f 557 558 500
f 536 377 376
f 376 381 382
f 376 377 364
f 364 381 376
f 551 560 548
f 378 377 843
f 843 844 378
f 377 844 843
f 764 761 762
f 987 761 764
f 762 763 764
f 764 763 987
f 765 985 986
f 985 763 986
f 743 765 986
f 986 763 743
f 772 773 771
f 772 981 773
f 771 770 772
f 772 770 742
f 742 981 772
f 766 985 765
f 765 767 766
f 767 769 766
f 983 769 767
f 767 768 983
f 994 996 961
f 963 1001 994
f 423 996 994
f 412 410 411
f 967 1006 966
f 999 994 1001
f 1001 1000 999
f 423 994 999
f 999 1000 965
f 965 1006 999
f 412 423 999
f 999 410 412
f 752 751 596
f 750 751 752
f 596 597 752
f 752 597 750
f 749 751 750
f 750 755 749
f 594 751 749
f 592 594 749
f 749 755 592
f 562 567 568
f 568 657 562
f 562 564 567
f 562 657 538
f 538 561 562
f 563 564 562
f 562 561 563
f 382 381 539
f 579 573 572
f 572 569 579
f 577 573 579
f 579 578 577
f 580 578 579
f 579 569 580
f 490 571 554
f 344 84 310
f 310 309 311
f 351 352 828
f 828 822 351
f 352 822 828
f 611 830 351
f 351 822 611
f 596 751 627
f 751 628 627
f 623 746 575
f 744 746 623
f 575 298 623
f 623 298 744
f 753 788 789
f 789 750 753
f 750 597 753
f 780 977 781
f 977 979 781
f 804 788 787
f 787 806 804
f 789 788 804
f 804 806 789
f 879 878 671
f 879 881 878
f 671 674 879
f 674 670 879
f 670 881 879
f 898 915 914
f 868 913 914
f 914 901 898
f 914 913 901
f 897 896 898
f 897 469 896
f 897 406 405
f 405 469 897
f 869 868 874
f 874 713 869
f 699 712 707
f 707 714 699
f 713 874 715
f 675 676 715
f 712 713 715
f 715 707 712
f 676 714 715
f 714 707 715
f 431 430 465
f 869 871 870
f 870 913 869
f 871 683 870
f 870 683 682
f 682 866 870
f 668 880 669
f 669 667 668
f 891 890 928
f 477 892 476
f 476 394 477
f 476 892 893
f 395 394 476
f 476 893 415
f 415 454 476
f 476 453 395
f 476 454 453
f 204 438 440
f 440 420 204
f 449 420 440
f 440 438 439
f 482 449 440
f 440 486 482
f 439 486 440
f 38 206 37
f 444 206 38
f 39 444 38
f 38 37 152
f 38 153 39
f 152 153 38
f 688 689 687
f 687 690 688
f 687 710 808
f 808 690 687
f 762 761 808
f 808 710 762
f 948 1008 463
f 463 906 948
f 463 1008 460
f 463 460 459
f 906 461 904
f 414 413 904
f 904 425 414
f 904 461 425
f 466 432 431
f 902 432 466
f 431 465 466
f 466 465 901
f 69 176 379
f 379 176 71
f 71 176 72
f 73 72 174
f 174 72 176
f 174 176 185
f 79 356 174
f 185 78 174
f 174 78 79
f 68 80 184
f 184 80 185
f 185 186 184
f 184 186 183
f 184 83 68
f 184 183 83
f 517 542 540
f 350 67 197
f 59 57 201
f 201 60 59
f 59 60 57
f 60 62 61
f 56 57 61
f 57 60 61
f 61 62 66
f 61 66 65
f 61 64 56
f 65 64 61
f 505 664 504
f 507 664 505
f 506 507 505
f 504 558 505
f 505 558 506
f 189 179 192
f 192 170 189
f 180 192 179
f 14 178 194
f 194 178 191
f 194 12 14
f 194 191 12
f 315 304 175
f 302 304 315
f 87 294 86
f 293 294 87
f 86 88 87
f 87 88 293
f 173 175 303
f 175 304 303
f 303 171 173
f 305 171 303
f 303 304 305
f 126 119 127
f 127 119 110
f 127 128 126
f 20 110 118
f 110 119 118
f 118 19 20
f 118 111 19
f 112 111 121
f 121 123 143
f 113 112 121
f 293 277 276
f 276 277 280
f 142 91 146
f 307 321 322
f 322 321 319
f 322 319 309
f 309 82 322
f 319 321 314
f 313 319 314
f 302 276 314
f 314 280 313
f 314 276 280
f 348 83 349
f 348 84 83
f 348 322 82
f 81 82 309
f 309 310 81
f 81 310 84
f 84 348 81
f 81 348 82
f 326 332 327
f 326 327 325
f 325 323 326
f 323 333 326
f 333 332 326
f 925 922 888
f 888 909 925
f 925 909 924
f 447 908 488
f 488 489 447
f 908 909 488
f 909 489 488
f 734 731 736
f 731 730 736
f 736 730 729
f 888 922 923
f 922 921 923
f 482 888 923
f 923 483 482
f 484 483 923
f 889 484 923
f 923 921 889
f 372 44 45
f 201 57 372
f 57 51 372
f 372 51 11
f 11 44 372
f 98 139 99
f 265 98 99
f 99 100 265
f 99 101 100
f 99 139 101
f 149 134 24
f 24 23 149
f 23 164 149
f 114 108 133
f 108 134 133
f 137 130 136
f 136 130 131
f 975 786 239
f 785 786 975
f 975 239 974
f 974 976 975
f 976 785 975
f 530 533 549
f 548 530 549
f 549 551 548
f 549 533 842
f 842 844 549
f 661 560 532
f 560 551 532
f 534 661 532
f 532 535 534
f 538 535 532
f 532 552 538
f 532 551 552
f 984 983 768
f 984 981 955
f 769 983 984
f 773 981 984
f 984 768 773
f 984 766 769
f 985 766 984
f 955 952 984
f 952 985 984
f 995 961 963
f 963 994 995
f 995 994 961
f 970 1004 1005
f 1005 411 970
f 1005 1004 412
f 412 411 1005
f 971 411 410
f 410 967 971
f 970 411 971
f 966 970 971
f 971 967 966
f 410 999 998
f 998 999 1006
f 998 967 410
f 554 561 553
f 553 561 552
f 554 553 849
f 849 553 539
f 849 539 381
f 849 381 380
f 811 810 344
f 344 310 811
f 811 310 311
f 827 611 636
f 830 611 827
f 636 610 827
f 360 830 827
f 827 610 360
f 636 611 635
f 635 611 822
f 635 628 636
f 635 627 628
f 635 822 607
f 607 608 635
f 608 626 634
f 634 635 608
f 627 635 634
f 626 746 624
f 782 781 979
f 777 802 782
f 782 802 803
f 782 778 777
f 782 979 778
f 803 806 782
f 782 806 783
f 782 783 780
f 780 781 782
f 829 813 812
f 812 820 829
f 812 813 360
f 360 610 812
f 899 897 898
f 898 467 899
f 406 897 899
f 899 467 407
f 407 406 899
f 675 715 679
f 873 675 679
f 679 874 868
f 679 715 874
f 868 914 679
f 679 915 873
f 679 914 915
f 900 468 901
f 901 465 900
f 430 468 900
f 900 465 430
f 891 928 919
f 919 892 891
f 918 892 919
f 689 688 863
f 863 688 690
f 863 690 948
f 690 808 691
f 459 425 462
f 425 461 462
f 462 463 459
f 906 463 462
f 462 461 906
f 913 870 911
f 911 870 866
f 866 910 911
f 865 866 684
f 865 910 866
f 684 864 865
f 865 864 686
f 686 689 865
f 689 910 865
f 903 904 413
f 48 187 176
f 48 373 383
f 383 13 48
f 13 187 48
f 49 50 176
f 190 13 182
f 190 187 13
f 189 185 190
f 185 176 190
f 176 187 190
f 190 191 189
f 182 191 190
f 73 174 74
f 74 174 75
f 369 174 76
f 75 174 369
f 76 174 355
f 355 174 356
f 355 79 76
f 355 356 79
f 555 493 53
f 53 64 555
f 860 861 855
f 541 540 542
f 556 496 541
f 541 542 556
f 541 555 540
f 541 496 493
f 493 555 541
f 857 350 197
f 197 860 857
f 860 858 857
f 179 178 177
f 177 180 179
f 177 178 181
f 177 181 113
f 170 192 193
f 192 180 193
f 193 143 147
f 193 180 143
f 143 180 122
f 113 121 122
f 122 121 143
f 122 177 113
f 180 177 122
f 292 315 175
f 291 292 294
f 315 292 291
f 291 294 293
f 293 276 291
f 302 315 291
f 291 276 302
f 124 146 123
f 123 121 124
f 124 119 125
f 124 125 142
f 142 146 124
f 123 146 144
f 147 123 144
f 144 88 86
f 144 146 88
f 86 294 144
f 144 294 147
f 91 90 89
f 89 146 91
f 90 88 89
f 88 146 89
f 349 307 308
f 307 322 308
f 308 348 349
f 322 348 308
f 301 321 300
f 301 314 321
f 302 314 301
f 301 304 302
f 301 300 305
f 305 304 301
f 926 922 887
f 922 925 887
f 887 732 926
f 735 736 729
f 735 724 728
f 735 729 724
f 728 740 735
f 740 733 735
f 735 733 734
f 734 736 735
f 109 117 129
f 128 127 129
f 129 110 109
f 129 127 110
f 138 139 128
f 128 129 138
f 138 129 117
f 117 130 138
f 137 139 138
f 138 130 137
f 115 109 21
f 115 117 109
f 21 22 115
f 22 114 115
f 165 149 164
f 165 164 158
f 165 158 160
f 160 166 165
f 151 166 167
f 114 133 116
f 116 130 117
f 131 130 116
f 116 133 131
f 116 115 114
f 117 115 116
f 132 133 134
f 131 133 132
f 103 137 106
f 137 136 106
f 104 103 106
f 106 105 104
f 107 105 106
f 552 551 550
f 551 549 550
f 550 549 844
f 550 844 536
f 550 553 552
f 1006 967 1007
f 1007 998 1006
f 967 998 1007
f 570 571 846
f 622 570 846
f 846 814 622
f 571 490 491
f 491 846 571
f 601 810 602
f 810 811 602
f 602 603 601
f 600 603 602
f 311 600 602
f 602 811 311
f 596 627 747
f 627 634 747
f 747 597 596
f 747 753 597
f 626 624 745
f 745 634 626
f 788 599 745
f 613 812 610
f 613 636 629
f 613 610 636
f 820 812 613
f 615 820 613
f 613 614 615
f 612 614 613
f 613 630 612
f 629 630 613
f 667 669 882
f 882 669 880
f 880 881 882
f 882 881 918
f 918 919 882
f 724 723 927
f 723 885 927
f 927 722 724
f 886 722 927
f 883 723 649
f 883 885 723
f 649 667 883
f 948 906 929
f 929 863 948
f 906 910 929
f 929 910 689
f 689 863 929
f 948 690 862
f 690 691 862
f 862 761 948
f 901 913 912
f 913 911 912
f 912 466 901
f 902 466 912
f 457 413 424
f 424 903 457
f 457 903 413
f 176 50 47
f 47 48 176
f 50 48 47
f 373 48 70
f 46 373 70
f 70 48 50
f 45 46 70
f 70 372 45
f 201 372 70
f 70 199 201
f 197 199 70
f 353 340 70
f 70 860 197
f 70 852 353
f 70 381 852
f 70 351 360
f 70 78 83
f 70 347 351
f 83 347 70
f 50 49 70
f 70 369 76
f 75 369 70
f 76 79 70
f 79 78 70
f 70 74 75
f 69 379 70
f 70 379 71
f 70 176 69
f 70 49 176
f 73 74 70
f 70 72 73
f 71 72 70
f 838 857 858
f 67 857 838
f 65 67 838
f 856 338 836
f 856 861 860
f 856 70 340
f 860 70 856
f 67 350 859
f 859 857 67
f 350 857 859
f 172 170 188
f 170 193 188
f 173 172 188
f 188 147 173
f 188 193 147
f 147 294 85
f 294 292 85
f 85 292 175
f 85 175 173
f 173 147 85
f 120 121 111
f 120 124 121
f 119 124 120
f 111 118 120
f 120 118 119
f 732 887 739
f 721 740 739
f 740 732 739
f 739 34 721
f 1014 34 739
f 739 738 1014
f 739 887 738
f 945 925 924
f 945 887 925
f 738 887 945
f 924 941 945
f 941 946 945
f 1014 738 945
f 945 946 1014
f 150 151 167
f 150 167 168
f 168 169 150
f 135 136 131
f 131 132 135
f 135 132 151
f 151 150 135
f 151 132 148
f 149 165 148
f 134 149 148
f 148 132 134
f 148 165 166
f 166 151 148
f 539 553 845
f 553 550 845
f 845 550 536
f 536 376 845
f 845 376 382
f 382 539 845
f 554 849 848
f 848 490 554
f 848 850 490
f 814 846 384
f 371 814 384
f 384 370 371
f 384 366 370
f 381 70 384
f 360 366 384
f 384 70 360
f 847 491 385
f 846 491 847
f 385 384 847
f 847 384 846
f 385 491 851
f 851 384 385
f 851 850 380
f 380 381 851
f 381 384 851
f 598 747 634
f 598 745 599
f 634 745 598
f 788 745 625
f 625 745 624
f 744 788 625
f 625 746 744
f 625 624 746
f 920 921 886
f 886 927 920
f 889 921 920
f 920 927 928
f 920 890 889
f 920 928 890
f 885 883 884
f 928 927 884
f 884 927 885
f 884 883 667
f 667 882 884
f 884 919 928
f 884 882 919
f 809 691 808
f 809 862 691
f 809 808 761
f 761 862 809
f 904 903 905
f 905 911 910
f 905 912 911
f 906 904 905
f 905 910 906
f 837 838 860
f 860 855 837
f 837 855 861
f 861 856 837
f 540 555 518
f 518 837 540
f 838 837 518
f 65 838 518
f 518 64 65
f 518 555 64
f 839 858 860
f 860 838 839
f 839 838 858
f 516 856 836
f 516 837 856
f 516 338 337
f 836 338 516
f 337 514 516
f 514 517 516
f 517 540 516
f 540 837 516
f 145 106 136
f 136 135 145
f 107 106 145
f 145 135 150
f 145 169 107
f 145 150 169
f 380 850 375
f 850 848 375
f 375 849 380
f 375 848 849
f 490 850 374
f 850 851 374
f 374 491 490
f 374 851 491
f 753 747 595
f 747 598 595
f 748 599 788
f 748 598 599
f 788 753 748
f 753 595 748
f 748 595 598
f 464 905 903
f 912 905 464
f 902 912 464
f 464 903 424
f 424 458 464
f 458 902 464
f 392 393 934
f 934 393 389
f 334 335 856
f 856 339 334
f 340 339 856
f 856 336 337
f 856 335 336
f 337 338 856

