# https://github.com/mikedh/trimesh
v 0.03244374 -0.01598118 0.02912162
v 0.03244369 -0.03279255 0.00297503
v 0.03244370 -0.03192227 0.00814481
v 0.03244371 -0.03027211 0.01310934
v 0.03244372 -0.02836071 0.01693059
v 0.03244372 -0.02779056 0.01786567
v 0.03244374 -0.02046773 0.02606119
v 0.03244373 -0.02446194 0.02225924
v 0.03244376 -0.00504181 0.03296803
v 0.03244377 -0.00373931 0.03316019
v 0.03244377 0.00681788 0.03280280
v -0.03243837 -0.00504170 0.03296820
v -0.03243838 0.00041558 0.03342677
v -0.03243836 -0.01056519 0.03156025
v -0.03243835 -0.01598111 0.02912177
v -0.03243835 -0.02046766 0.02606134
v -0.03243833 -0.02446185 0.02225939
v -0.03243832 -0.03027202 0.01310949
v -0.03243833 -0.02836061 0.01693074
v -0.03243831 -0.03192218 0.00814498
v -0.03243829 -0.03283539 -0.00227668
v -0.03243830 -0.03279245 0.00297521
v -0.03243838 0.00681799 0.03280298
v 0.04018141 0.00495301 0.01803643
v 0.04018138 0.00243986 0.01849071
v 0.04018131 0.00735463 0.01725174
v 0.04018131 0.00735760 0.01725055
v 0.04018133 0.00741682 0.01722629
v 0.04018131 0.00835380 0.01681275
v 0.04018132 0.01118763 0.01514281
v 0.04018136 0.01556107 0.01072610
v 0.04018136 0.01615904 0.00981800
v 0.04018138 0.01789643 0.00615839
v 0.04018135 0.01891628 0.00002948
v 0.04018138 0.01784964 -0.00608944
v 0.04018139 0.01628239 -0.00941264
v 0.04018135 0.01511784 -0.01112937
v 0.04018135 0.01481604 -0.01151391
v 0.04018132 0.01232271 -0.01405915
v 0.04018129 0.01016263 -0.01562451
v 0.04018132 0.00686291 -0.01724037
v 0.04018135 0.00514851 -0.01778423
v 0.04018136 0.00440420 -0.01796471
v 0.04018136 0.00333039 -0.01816868
v 0.04018063 0.00041481 -0.01840012
v 0.04018132 -0.00782253 -0.01646485
v 0.04018129 -0.00890711 -0.01587992
v 0.04018054 -0.01057802 -0.01478793
v 0.04017990 -0.01217845 -0.01346849
v 0.04018017 -0.01385555 -0.01168846
v 0.04018116 -0.01534707 -0.00958844
v 0.04018175 -0.01656369 -0.00723841
v 0.04018172 -0.01696707 -0.00622498
v 0.04018139 -0.01742293 -0.00480457
v 0.04018054 -0.01788636 -0.00265284
v 0.04018039 -0.01793692 -0.00230249
v 0.04017997 -0.01805455 -0.00115480
v 0.04017988 -0.01805267 0.00139509
v 0.04018081 -0.01769176 0.00392000
v 0.04018125 -0.01740217 0.00508613
v 0.04018158 -0.01696770 0.00642870
v 0.04018166 -0.01652546 0.00753025
v 0.04018028 -0.01321408 0.01262538
v 0.04018066 -0.01137211 0.01436840
v 0.04018098 -0.01037644 0.01513229
v 0.04018147 -0.00817456 0.01648585
v 0.04018167 -0.00634115 0.01732127
v 0.04018172 -0.00582276 0.01751531
v 0.04018177 -0.00487726 0.01782505
v 0.04018167 -0.00236814 0.01838870
v 0.04103577 0.00041544 0.00010107
v 0.04091366 0.00613308 -0.00628074
v 0.04091366 0.00786084 -0.00413977
v 0.04091366 0.00843330 -0.00292098
v 0.04091366 0.00880096 -0.00166016
v 0.04091366 0.00537103 0.00709114
v 0.04091366 0.00643400 0.00619991
v 0.04091366 0.00809029 0.00391100
v 0.04091366 0.00736265 0.00511656
v 0.04091366 0.00145744 -0.00840383
v 0.04091366 0.00268217 -0.00816216
v 0.04018136 0.00041542 0.01860211
v 0.04041535 0.00041543 0.01641310
v 0.04064639 0.00245548 0.01350738
v 0.04064639 0.00443630 0.01305188
v 0.04018131 0.00760601 0.01714785
v 0.04064639 0.00639702 0.01227118
v 0.04064639 0.00825823 0.01116366
v 0.04018131 0.01058971 0.01555360
v 0.04064639 0.01141020 0.00803868
v 0.04018135 0.01490340 0.01160682
v 0.04064639 0.00994052 0.00975318
v 0.04018135 0.01317483 0.01349817
v 0.04064639 0.01256178 0.00613073
v 0.04018134 0.01853809 -0.00362172
v 0.04064639 0.01368650 -0.00268628
v 0.04018134 0.01887963 -0.00106602
v 0.04064639 0.01395999 0.00076110
v 0.04018137 0.01874848 0.00258667
v 0.04064639 0.01380101 0.00227291
v 0.04018138 0.01822447 0.00511251
v 0.04064639 0.01333757 0.00421310
v 0.04018137 0.01689169 0.00851605
v 0.04064639 0.01219866 -0.00661056
v 0.04018139 0.01745149 -0.00711309
v 0.04064639 0.01310464 -0.00468167
v 0.04018132 0.01224124 -0.01412727
v 0.04018133 0.01410477 -0.01234450
v 0.04064639 0.00590155 -0.01230027
v 0.04018129 0.00921169 -0.01617559
v 0.04064639 0.00772757 -0.01131921
v 0.04018132 0.00077192 -0.01839670
v 0.04064639 0.00206453 -0.01335891
v 0.04064639 0.00400280 -0.01297643
v 0.04091366 0.00419499 0.00779093
v 0.04091366 0.00295608 0.00828422
v 0.04091366 0.00170447 0.00857205
v 0.04091366 0.00041543 0.00866957
v 0.04091366 0.00708629 -0.00527652
v 0.04091366 0.00388192 -0.00773488
v 0.04091342 0.00041514 -0.00847392
v 0.04091366 0.00503572 -0.00711503
v 0.04064639 0.00946427 -0.00999888
v 0.04064639 0.01097284 -0.00840961
v 0.04064639 0.01395143 -0.00071593
v 0.04091366 0.00896835 -0.00041517
v 0.04091366 0.00897377 0.00051812
v 0.04091366 0.00887331 0.00147338
v 0.04091366 0.00858048 0.00269933
v 0.04091342 -0.00251712 0.00815905
v 0.04091342 -0.00387181 0.00752739
v 0.04091342 -0.00615321 0.00561319
v 0.04091342 -0.00509624 0.00667010
v 0.04091342 -0.00815956 0.00010137
v 0.04091342 -0.00764233 0.00303415
v 0.04091342 -0.00764252 -0.00283148
v 0.04091342 -0.00509669 -0.00646757
v 0.04091342 -0.00387232 -0.00732495
v 0.04091342 -0.00615358 -0.00541060
v 0.04091342 -0.00107388 -0.00834360
v 0.04041535 0.00041488 -0.01621093
v 0.04018124 -0.00214549 -0.01822268
v 0.04018123 -0.00295660 -0.01809104
v 0.04018126 -0.00545330 -0.01744523
v 0.04041535 -0.00774105 -0.01402526
v 0.04018082 -0.01000032 -0.01519476
v 0.04041535 -0.01208064 -0.01038366
v 0.04041535 -0.01007015 -0.01239430
v 0.04017995 -0.01200167 -0.01362996
v 0.04041535 -0.01491304 -0.00547745
v 0.04041535 -0.01371145 -0.00805445
v 0.04041535 -0.01564886 -0.00273093
v 0.04041535 -0.01589658 0.00010164
v 0.04017974 -0.01809918 0.00010170
v 0.04041535 -0.01491265 0.00568063
v 0.04018122 -0.01533216 0.00981392
v 0.04041535 -0.01371090 0.00825755
v 0.04018091 -0.01480755 0.01062168
v 0.04018040 -0.01376286 0.01199887
v 0.04041535 -0.01207994 0.01058666
v 0.04041535 -0.01006930 0.01259715
v 0.04041535 -0.00774010 0.01422797
v 0.04041535 -0.00516309 0.01542954
v 0.04041535 -0.00241657 0.01616536
v 0.04091342 0.00041543 0.00867606
v 0.04091342 -0.00107332 0.00854586
v 0.04041535 -0.00241766 -0.01596304
v 0.04041535 -0.00516412 -0.01522701
v 0.04091342 -0.00251766 -0.00795670
v 0.04091342 -0.00701088 -0.00418617
v 0.04091342 -0.00802934 -0.00138768
v 0.04041535 -0.01564866 0.00293417
v 0.04091342 -0.00802924 0.00159038
v 0.04091342 -0.00701058 0.00438882
v -0.00523600 0.03969799 -0.06776298
v -0.00050206 -0.02685526 -0.06745047
v -0.00414782 -0.02660118 -0.06744864
v -0.00575481 -0.02636384 -0.06744776
v -0.01129712 -0.02491982 -0.06744496
v -0.00776874 -0.02595471 -0.06744666
v -0.03102154 -0.00605965 -0.06742825
v -0.02992564 -0.00845397 -0.06742912
v -0.03243838 0.01290998 0.03098936
v -0.03298122 0.00069345 -0.06742609
v -0.03216943 -0.00276213 -0.06742641
v -0.03340976 0.00405750 -0.06742736
v -0.03328050 0.00271678 -0.06742568
v -0.03349540 0.00764356 -0.06745093
v -0.04014818 0.01808069 -0.00609889
v -0.04014890 0.01559985 -0.01087274
v -0.04014927 0.01383778 -0.01296081
v -0.04014030 0.00169697 -0.01863693
v -0.04014616 0.00515869 0.01824034
v -0.04014626 0.00744654 0.01748157
v -0.04015079 0.01304684 0.01392506
v -0.04014994 0.01493478 0.01193214
v -0.04014694 0.01770766 0.00728641
v -0.04015131 0.01903441 0.00197853
v -0.04015265 0.01911347 -0.00071873
v -0.04015097 0.01879193 -0.00344234
v -0.04014588 0.00280220 0.01870168
v -0.04014069 -0.00135021 -0.01860534
v -0.04014281 -0.00387681 -0.01818522
v -0.04014457 -0.00649971 -0.01734426
v -0.04014600 -0.00903404 -0.01609757
v -0.04014505 -0.01455017 0.01141686
v -0.04014522 -0.01677597 0.00759904
v -0.04014498 -0.01388335 0.01225079
v -0.04014495 -0.00979851 0.01583437
v -0.04015251 -0.01018460 0.00315476
v -0.04014545 -0.01822768 -0.00200995
v -0.04014554 -0.01834659 -0.00033330
v -0.04014552 -0.01821074 0.00238527
v -0.04014594 -0.01327646 -0.01271479
v -0.04014566 -0.01499058 -0.01059308
v -0.04014488 -0.00741208 0.01714993
v -0.04014490 -0.00598757 0.01773263
v -0.04014499 -0.00486195 0.01810009
v -0.04014564 0.00041552 0.01885576
v -0.03975502 -0.01050742 0.01831646
v -0.04014574 -0.01637334 -0.00825032
v -0.03975496 -0.01848617 -0.00958051
v -0.03988913 -0.00991878 -0.01761635
v -0.03975547 -0.01357976 -0.01589202
v -0.04014648 -0.01128070 -0.01456170
v -0.04014568 -0.01438113 -0.01142134
v -0.03975517 -0.01635172 -0.01295163
v -0.03975489 -0.01983491 -0.00629770
v -0.04014555 -0.01741213 -0.00571202
v -0.04014541 -0.01807630 -0.00305610
v -0.03975504 -0.02009076 0.00564004
v -0.04014532 -0.01768403 0.00502385
v -0.03975493 -0.01866698 0.00942222
v -0.04014515 -0.01549871 0.01003079
v -0.03975488 -0.01653135 0.01291580
v -0.04014492 -0.01197994 0.01418305
v -0.03975494 -0.00683351 0.02006195
v -0.04014539 -0.00219792 0.01867477
v -0.03975501 -0.00290945 0.02107505
v -0.03975507 0.00041552 0.02133943
v -0.03463505 -0.00791177 0.03154386
v -0.03728824 -0.00922057 0.02663563
v -0.03463554 -0.01068746 0.03067605
v -0.03463576 -0.01190137 0.03020800
v -0.03728834 -0.01410176 0.02431420
v -0.03463500 -0.01568456 0.02836723
v -0.03463489 -0.01631135 0.02800117
v -0.03464004 -0.02553475 0.01972870
v -0.03728817 -0.02211069 0.01713748
v -0.03464050 -0.02519271 0.02017347
v -0.03464028 -0.02238719 0.02330882
v -0.03463858 -0.02132432 0.02430476
v -0.03463608 -0.01919893 0.02605400
v -0.03463598 -0.02756618 0.01669962
v -0.03463339 -0.02881405 0.01438577
v -0.03728817 -0.02494994 0.01249526
v -0.03728826 -0.02684199 0.00746853
v -0.03464011 -0.03177242 0.00487299
v -0.03464291 -0.03202499 0.00267361
v -0.03464445 -0.03212288 0.00068043
v -0.03728830 -0.02774769 0.00233180
v -0.03728822 -0.02765432 -0.00306719
v -0.03464122 -0.03192338 -0.00352209
v -0.03463223 -0.03060998 -0.00968792
v -0.03463066 -0.02991067 -0.01167451
v -0.03728820 -0.02650556 -0.00839700
v -0.03463240 -0.02813775 -0.01549007
v -0.03728829 -0.02471368 -0.01276018
v -0.03728847 -0.02187742 -0.01724090
v -0.03728850 0.00041554 0.02832959
v -0.03728836 -0.00400452 0.02798040
v -0.03889908 -0.00792380 0.02306424
v -0.03889919 -0.01214904 0.02105577
v -0.03728838 -0.01845555 0.02110989
v -0.03889923 -0.01591736 0.01828305
v -0.03889902 -0.02153655 0.01082561
v -0.03889914 -0.02317418 0.00647504
v -0.03889918 -0.02395790 0.00202925
v -0.03889906 -0.02387627 -0.00264369
v -0.03889903 -0.02288147 -0.00725665
v -0.03889912 -0.02133031 -0.01103290
v -0.03889935 -0.01887530 -0.01491081
v -0.03889966 -0.01568705 -0.01829325
v -0.03889933 0.00041552 0.02453203
v -0.03889919 -0.00340963 0.02422885
v -0.03975504 -0.01378362 0.01590649
v -0.03889900 -0.01907955 0.01484386
v -0.03975506 -0.02077195 0.00177513
v -0.03975494 -0.02070026 -0.00228744
v -0.01153338 0.03928705 -0.02601187
v -0.03153447 0.03780595 -0.01415118
v -0.03224010 0.03743500 -0.01335402
v -0.03258483 0.03733987 -0.01232280
v -0.03244749 0.03761005 -0.01152410
v -0.03330092 0.03709304 -0.00974049
v -0.02883560 0.03813384 -0.01898502
v -0.03034849 0.03797694 -0.01666330
v -0.02698740 0.03829420 -0.02104118
v -0.02482032 0.03846916 -0.02274882
v -0.01278610 0.03923883 -0.02634483
v -0.01705300 0.03900529 -0.02547218
v -0.01155826 0.03930220 -0.02641933
v -0.00753755 0.03947837 -0.02655088
v -0.03313074 0.03738602 -0.00595569
v -0.03118214 0.03791045 -0.01397224
v -0.03290019 0.03739581 -0.00590791
v -0.03191014 0.03777774 -0.01130055
v -0.01976216 0.03883762 -0.02490743
v -0.02238020 0.03865493 -0.02403053
v -0.03136143 0.03788230 -0.01406114
v -0.03355286 0.03721860 -0.00606202
v -0.03018056 0.03802176 -0.01655873
v -0.03209819 0.03776807 -0.01137467
v -0.03227720 0.03771225 -0.01144876
v -0.03335300 0.03732952 -0.00600763
v -0.03430017 -0.02986039 0.01311595
v -0.03397339 -0.03009287 0.01321600
v -0.03430669 -0.02268273 0.02361021
v -0.03429999 -0.02850712 -0.01569237
v -0.03430672 -0.03218944 0.00493510
v -0.03463461 -0.03088297 0.00898511
v -0.03430307 -0.02792901 0.01691482
v -0.03463261 -0.02947322 0.01294939
v -0.03430283 -0.01206087 0.03059850
v -0.03430213 -0.01589313 0.02873383
v -0.03463617 -0.00378294 0.03235267
v -0.03430303 -0.00383735 0.03277130
v -0.03357535 -0.03163652 0.00919981
v -0.03397449 -0.03153121 0.00916974
v -0.03430189 -0.03128842 0.00910057
v -0.03397533 -0.02814606 0.01704366
v -0.03430699 -0.02552483 0.02043382
v -0.03357587 -0.01967104 0.02668015
v -0.03397474 -0.01601811 0.02895359
v -0.03397534 -0.01960513 0.02659256
v -0.03430301 -0.01945301 0.02639080
v -0.03397544 -0.00386997 0.03302241
v -0.03430777 -0.03234205 -0.00356971
v -0.03431053 -0.03254448 0.00068779
v -0.03397813 -0.03258972 -0.00359791
v -0.03357678 -0.02580685 0.02065522
v -0.03357578 -0.02824003 0.01709963
v -0.03397787 -0.02572224 0.02058868
v -0.03357491 -0.03019411 0.01325969
v -0.03357682 -0.02293424 0.02386693
v -0.03397479 -0.00808409 0.03219606
v -0.03357562 -0.00811209 0.03230224
v -0.03430344 0.00041557 0.03304611
v -0.03397565 0.00041557 0.03329886
v -0.03357605 -0.00388412 0.03313161
v -0.03429858 -0.03030269 -0.01182749
v -0.03397214 -0.03053791 -0.01191940
v -0.03430217 -0.03158855 -0.00776448
v -0.03397451 -0.03183261 -0.00782504
v -0.03357514 -0.03193797 -0.00785132
v -0.03357656 -0.03269513 -0.00360998
v -0.03463481 -0.03117980 -0.00766318
v -0.03357737 -0.03289820 0.00069393
v -0.03303824 -0.03271228 -0.00361203
v -0.03303825 -0.03291520 0.00069417
v -0.03397998 -0.03279302 0.00069211
v -0.03397756 -0.03243700 0.00497196
v -0.03303826 -0.03283678 0.00246478
v -0.03357648 -0.03254294 0.00498776
v -0.03303828 -0.03165396 0.00920496
v -0.03303828 -0.03143130 0.00995539
v -0.03303829 -0.03021088 0.01326714
v -0.03303830 -0.02836058 0.01693074
v -0.03303830 -0.02825545 0.01710916
v -0.03303832 -0.02378522 0.02302588
v -0.03397772 -0.02285867 0.02378971
v -0.03303833 -0.02294657 0.02387975
v -0.03303834 -0.01968181 0.02669481
v -0.03303834 -0.01794462 0.02792198
v -0.03463587 -0.00467733 0.03222407
v -0.03303835 -0.01608114 0.02906514
v -0.03357577 -0.01219763 0.03093372
v -0.03357560 -0.01607230 0.02904917
v -0.03397520 -0.01215632 0.03083230
v -0.03430220 -0.00801954 0.03195165
v -0.03303835 0.00041558 0.03342677
v -0.03357607 0.00041558 0.03340856
v -0.03303837 -0.00811663 0.03231991
v -0.03303836 -0.01220431 0.03095062
v -0.03357450 0.03060499 0.01586104
v -0.03357463 0.03278868 0.01165898
v -0.03303695 0.03061228 0.01588417
v -0.03303621 0.02980913 0.01717568
v -0.03303642 0.02478650 0.02333079
v -0.03303674 0.02290622 0.02503584
v -0.03357406 0.02478058 0.02331103
v -0.03303637 0.02117768 0.02639941
v -0.03357385 0.02117064 0.02638207
v -0.03357321 0.01718134 0.02893902
v -0.03303513 0.01718897 0.02895526
v -0.03397208 0.03442744 0.00721411
v -0.03357181 0.03452766 0.00725786
v -0.03397328 0.02110872 0.02629174
v -0.03397344 0.02470942 0.02322678
v -0.03430112 0.02453830 0.02304027
v -0.03430107 0.02766619 0.01953564
v -0.03397296 0.02785797 0.01969979
v -0.03398050 0.03579037 0.00270019
v -0.03358005 0.03589630 0.00272978
v -0.03303404 0.03454129 0.00727350
v -0.03463193 0.03379542 0.00697569
v -0.03430077 0.03246851 0.01148603
v -0.03430038 0.03419187 0.00712360
v -0.03397353 0.03269371 0.01160191
v -0.03357318 0.02793696 0.01977603
v -0.03463284 0.03209019 0.01129822
v -0.03397411 0.03051793 0.01579363
v -0.03463484 0.02995345 0.01542367
v -0.03430201 0.03030796 0.01565314
v -0.03463454 0.02850919 0.01767651
v -0.03463433 0.02734196 0.01926530
v -0.03463428 0.02425012 0.02273170
v -0.03430113 0.02096192 0.02608646
v -0.03430194 0.01700882 0.02862282
v -0.03463446 0.02071516 0.02574457
v -0.03463711 0.01479206 0.02928845
v -0.03357582 0.01290312 0.03097240
v -0.03397330 0.01712964 0.02884344
v -0.03397542 0.01286225 0.03087119
v -0.03303804 0.01290985 0.03098921
v -0.03303822 0.00678020 0.03281013
v -0.03357549 0.00677679 0.03279225
v -0.03397469 0.00675588 0.03268461
v -0.03430363 0.01276782 0.03063757
v -0.03430219 0.00670765 0.03243665
v -0.03463786 0.01260993 0.03024701
v -0.03463523 0.00662713 0.03202279
v -0.03463667 0.00041557 0.03262408
v -0.03303837 -0.00388642 0.03314976
v -0.03303836 -0.01114422 0.03136284
v -0.03303831 -0.02582056 0.02066634
v -0.03243833 -0.02779047 0.01786585
v -0.03303827 -0.03256029 0.00499035
v -0.03976649 0.00642197 0.02041171
v -0.03907806 0.00937043 0.02223820
v -0.03660491 0.01147169 0.02743311
v -0.03730415 0.00841093 0.02713824
v -0.03976649 0.00442875 0.02089737
v -0.03891562 0.00732944 0.02348072
v -0.03891561 0.00503519 0.02403996
v -0.03730413 0.00575792 0.02778519
v -0.03283256 0.03701268 -0.00272565
v -0.03303766 0.03279898 0.01168064
v -0.03303540 0.02794265 0.01979808
v -0.03303580 0.02637873 0.02166859
v -0.03304379 0.03591333 0.00273673
v -0.03299118 0.03652793 0.00001649
v -0.03313134 0.03722677 -0.00433852
v -0.03336388 0.03720648 -0.00437506
v -0.03358674 0.03714061 -0.00441675
v -0.03378576 0.03702161 -0.00446268
v -0.03372316 0.03706507 -0.00611602
v -0.03395446 0.03686158 -0.00451012
v -0.03400713 0.03670353 -0.00621991
v -0.03423570 0.03649069 -0.00460427
v -0.03330566 0.03701520 -0.00276684
v -0.03353984 0.03698581 -0.00279208
v -0.03396023 0.03678675 -0.00286066
v -0.03412745 0.03662316 -0.00290143
v -0.03451065 0.03600992 -0.00156741
v -0.03376263 0.03691182 -0.00282340
v -0.03430674 0.03554466 0.00263442
v -0.00367904 -0.02663027 -0.06760723
v -0.00049725 -0.02679695 -0.06768336
v -0.00684083 -0.02613287 -0.06760698
v -0.01293909 -0.02425881 -0.06760726
v -0.00994176 -0.02534078 -0.06760690
v -0.02928101 -0.00961916 -0.06760076
v -0.03069329 -0.00676324 -0.06760146
v -0.03183257 -0.00376886 -0.06760158
v -0.03267929 -0.00068289 -0.06760242
v -0.03322382 0.00245451 -0.06760088
v -0.03349801 0.00564559 -0.06752393
v -0.03346614 0.00764248 -0.06761872
v -0.03325057 0.01088618 -0.06762180
v -0.00049554 0.03991421 -0.06761654
v -0.00157564 0.03993647 -0.06745978
v -0.01331719 0.03828857 -0.06761193
v -0.01513947 0.03767143 -0.06740544
v -0.01277945 0.03850067 -0.06741305
v -0.01015611 0.03912442 -0.06761128
v -0.00958655 0.03927387 -0.06742584
v -0.00695622 0.03962882 -0.06761409
v -0.00617659 0.03973834 -0.06744245
v -0.02186934 0.03362981 -0.06760482
v -0.01921262 0.03554279 -0.06760117
v -0.01865226 0.03593979 -0.06738933
v -0.01635668 0.03709438 -0.06760763
v -0.01581944 0.03738599 -0.06740212
v -0.02617974 0.02926771 -0.06739753
v -0.02638269 0.02892933 -0.06760634
v -0.02387467 0.03188016 -0.06739464
v -0.02426885 0.03140893 -0.06760801
v -0.02302843 0.03268973 -0.06739292
v -0.01922850 0.03558928 -0.06738807
v -0.03319402 0.01162913 -0.06745283
v -0.03290318 0.01356379 -0.06744906
v -0.03277193 0.01410805 -0.06761972
v -0.03249740 0.01557277 -0.06744341
v -0.03203137 0.01728098 -0.06761550
v -0.03102903 0.02037642 -0.06761225
v -0.03141292 0.01940180 -0.06743049
v -0.02995940 0.02303880 -0.06741751
v -0.02976337 0.02336346 -0.06760957
v -0.02925843 0.02446157 -0.06741165
v -0.02821781 0.02622628 -0.06760655
v -0.02825459 0.02624778 -0.06740477
v -0.02134916 0.03410625 -0.06738897
v -0.00049725 0.03994139 -0.06746190
v -0.00140568 0.03994063 -0.05862815
v -0.00581539 0.03976751 -0.05862613
v -0.04014943 0.01176347 -0.01478617
v -0.00079576 0.03975867 -0.03096150
v -0.00049734 0.03994247 -0.05862613
v -0.00295295 0.03987980 -0.05198180
v -0.00053574 0.03993274 -0.04337396
v -0.00052213 0.03989719 -0.03802273
v -0.00053159 0.03991868 -0.04025834
v -0.00051496 0.03988056 -0.03684289
v -0.00050427 0.03985038 -0.03502746
v -0.00049674 0.03981620 -0.03326013
v -0.03463025 0.03513216 0.00252507
v -0.03440707 0.03624880 -0.00298565
v -0.03804379 0.01040423 0.02479408
v -0.03888863 0.01168176 0.02177481
v -0.03751246 0.01470565 0.02394057
v -0.03463623 0.01680599 0.02825345
v -0.04014705 0.00853768 0.01699764
v -0.03975440 0.00838097 0.01979188
v -0.03978052 0.00854748 0.01954524
v -0.03891564 0.00955829 0.02270264
v -0.03953952 0.01970057 0.01115094
v -0.04014775 0.01649213 0.00971482
v -0.03946099 0.01571276 0.01656259
v -0.04014761 0.01701533 -0.00857835
v -0.03913125 0.02170062 -0.01232742
v -0.03966946 0.01457073 -0.01663872
v -0.03948141 0.01815167 -0.01449235
v -0.04014900 0.00943337 -0.01631041
v -0.04014668 0.00695849 -0.01746201
v -0.04014302 0.00436769 -0.01824098
v -0.00049758 0.03959250 -0.02658298
v -0.00049325 0.03974979 -0.03050511
v -0.00161572 0.03990150 -0.04145342
v -0.03827104 0.01879711 0.01877792
v -0.04014831 0.01087981 0.01564465
v -0.03567384 0.01760973 0.02602092
v -0.03657617 0.02175125 0.02092535
v -0.03841602 0.02281079 0.01338462
v -0.03918936 0.02367375 0.00561289
v -0.03993564 0.02044099 0.00336773
v -0.04014845 0.01856006 0.00469489
v -0.03635606 0.02966068 0.01009570
v -0.03561927 0.03427126 -0.00320052
v -0.03459984 0.03587893 -0.00589909
v -0.03447803 0.03388898 -0.01601293
v -0.03327437 0.03630318 -0.01356568
v -0.03472352 0.03491437 -0.01099141
v -0.03678565 0.02577366 0.01557718
v -0.03801299 0.02675871 0.00786154
v -0.03835630 0.02763925 0.00001867
v -0.03922360 0.02444196 -0.00224563
v -0.03710032 0.03062718 0.00231055
v -0.03788866 0.02845051 -0.00787749
v -0.03696086 0.03039527 -0.01066025
v -0.03592358 0.03328948 -0.00831368
v -0.03583564 0.03223281 -0.01338388
v -0.03979985 0.02108415 -0.00447695
v -0.03669144 0.02918431 -0.01568492
v -0.03733360 0.02584553 -0.01790505
v -0.03860779 0.02515848 -0.01012759
v -0.00053549 0.03993082 -0.04276233
v -0.03691328 0.03149701 -0.00556683
v -0.03538864 0.03336761 0.00461171
v 0.03244377 0.01290987 0.03098921
v 0.03244370 0.03489008 0.00622744
v 0.00050499 0.03959915 -0.02658295
v 0.03102693 -0.00605974 -0.06742843
v 0.03345126 0.00449227 -0.06743526
v 0.03302569 0.00089066 -0.06743040
v 0.00050451 0.03994051 -0.06746241
v 0.00050461 -0.02682544 -0.06761599
v 0.00050461 -0.02685364 -0.06745046
v 0.00429009 0.03975631 -0.06776191
v 0.04015127 0.00280210 0.01870153
v 0.04015156 0.00515859 0.01824019
v 0.04015166 0.00744644 0.01748140
v 0.04015080 0.01088671 0.01563896
v 0.04015305 0.01493456 0.01193212
v 0.04015152 0.01648975 0.00971834
v 0.04015080 0.01770732 0.00728721
v 0.04015235 0.01856089 0.00469230
v 0.04015468 0.01903236 0.00199557
v 0.04015582 0.01911243 -0.00073128
v 0.04015506 0.01878961 -0.00345229
v 0.04015312 0.01807983 -0.00610070
v 0.04015166 0.01701124 -0.00858550
v 0.04015181 0.01559330 -0.01088132
v 0.04014668 0.00436676 -0.01824119
v 0.04015296 0.01384532 -0.01295297
v 0.04015347 0.01175818 -0.01479008
v 0.04015244 0.00943478 -0.01631000
v 0.04014112 -0.00100957 -0.01863446
v 0.04014335 0.00169835 -0.01863693
v 0.04014112 -0.00135693 -0.01860463
v 0.04014094 -0.00387979 -0.01818257
v 0.04014472 -0.00651543 -0.01733588
v 0.04015139 -0.00903414 -0.01609774
v 0.04015163 -0.01129751 -0.01455670
v 0.04015153 -0.01330541 -0.01270168
v 0.04015138 -0.01438755 -0.01142662
v 0.04015131 -0.01498655 -0.01060705
v 0.04015119 -0.01636072 -0.00827505
v 0.04015115 -0.01740432 -0.00573521
v 0.04015117 -0.01807596 -0.00305833
v 0.04015119 -0.01822856 -0.00201019
v 0.04015124 -0.01834718 -0.00032436
v 0.04015130 -0.01820956 0.00238071
v 0.04015127 -0.01768469 0.00501437
v 0.04015119 -0.01677552 0.00758944
v 0.04015111 -0.01549649 0.01002948
v 0.04015109 -0.01454863 0.01141546
v 0.04015108 -0.01387860 0.01225470
v 0.04015113 -0.01196848 0.01419438
v 0.04015113 -0.00981897 0.01581828
v 0.04015109 -0.00742759 0.01713453
v 0.04015106 -0.00486404 0.01809312
v 0.04015103 0.00041542 0.01885561
v 0.03729387 -0.02187751 -0.01724105
v 0.03729360 -0.02650567 -0.00839715
v 0.03463605 -0.02991077 -0.01167466
v 0.03729368 -0.02471379 -0.01276036
v 0.03464020 -0.03117991 -0.00766333
v 0.03463762 -0.03061007 -0.00968807
v 0.03464984 -0.03212298 0.00068028
v 0.03729361 -0.02765443 -0.00306736
v 0.03729366 -0.02684209 0.00746838
v 0.03464830 -0.03202510 0.00267343
v 0.03729370 -0.02774780 0.00233162
v 0.03729356 -0.02495004 0.01249508
v 0.03463800 -0.02947331 0.01294924
v 0.03464551 -0.03177251 0.00487284
v 0.03729356 -0.02211079 0.01713730
v 0.03464543 -0.02553487 0.01972852
v 0.03464137 -0.02756629 0.01669947
v 0.03463878 -0.02881415 0.01438559
v 0.03464567 -0.02238730 0.02330864
v 0.03729378 -0.01845566 0.02110974
v 0.03464147 -0.01919903 0.02605383
v 0.03729374 -0.01410185 0.02431403
v 0.03464115 -0.01190146 0.03020785
v 0.03464039 -0.01568465 0.02836705
v 0.03729375 -0.00400461 0.02798022
v 0.03464126 -0.00467751 0.03222389
v 0.03464045 -0.00791188 0.03154368
v 0.03729364 -0.00922068 0.02663545
v 0.03977187 0.00041542 0.02128229
v 0.03976040 -0.00290954 0.02107490
v 0.04015105 -0.00219350 0.01867057
v 0.04015107 -0.00598532 0.01772604
v 0.03976034 -0.00683361 0.02006177
v 0.03976043 -0.01378372 0.01590634
v 0.03976028 -0.01653145 0.01291565
v 0.03976032 -0.01866707 0.00942204
v 0.03976046 -0.02077204 0.00177495
v 0.03976033 -0.02070035 -0.00228759
v 0.03976028 -0.01983501 -0.00629788
v 0.03976035 -0.01848628 -0.00958069
v 0.03976056 -0.01635182 -0.01295181
v 0.03976009 -0.01028776 -0.01824676
v 0.03998301 -0.00965512 -0.01716234
v 0.03976086 -0.01357986 -0.01589220
v 0.03730943 0.00041544 0.02829907
v 0.03464157 -0.00378305 0.03235249
v 0.03890459 -0.00340973 0.02422870
v 0.03890448 -0.00792389 0.02306406
v 0.03890458 -0.01214913 0.02105559
v 0.03890439 -0.01907964 0.01484368
v 0.03890441 -0.02153665 0.01082547
v 0.03890453 -0.02317427 0.00647486
v 0.03890457 -0.02395798 0.00202907
v 0.03890445 -0.02387637 -0.00264387
v 0.03890442 -0.02288155 -0.00725683
v 0.03890451 -0.02133042 -0.01103308
v 0.03890475 -0.01887541 -0.01491096
v 0.03890505 -0.01568714 -0.01829340
v 0.03976043 -0.02009085 0.00563986
v 0.03890462 -0.01591745 0.01828287
v 0.03976041 -0.01050751 0.01831631
v 0.03892093 0.00041543 0.02448369
v 0.01153878 0.03928696 -0.02601208
v 0.01284573 0.03923559 -0.02634244
v 0.01156374 0.03930188 -0.02642276
v 0.00840918 0.03944539 -0.02652760
v 0.01705840 0.03900521 -0.02547239
v 0.01976757 0.03883752 -0.02490764
v 0.02238561 0.03865483 -0.02403074
v 0.02482574 0.03846906 -0.02274903
v 0.02884102 0.03813373 -0.01898520
v 0.02699282 0.03829411 -0.02104138
v 0.03035392 0.03797682 -0.01666348
v 0.03153991 0.03780583 -0.01415138
v 0.03245293 0.03760992 -0.01152428
v 0.03372855 0.03706496 -0.00611620
v 0.03401252 0.03670343 -0.00622009
v 0.03290558 0.03739571 -0.00590809
v 0.03118756 0.03791034 -0.01397245
v 0.03191556 0.03777764 -0.01130073
v 0.03210361 0.03776797 -0.01137485
v 0.03313613 0.03738592 -0.00595587
v 0.03018598 0.03802165 -0.01655894
v 0.03136685 0.03788219 -0.01406132
v 0.03228263 0.03771213 -0.01144897
v 0.03355825 0.03721850 -0.00606220
v 0.03335840 0.03732941 -0.00600781
v 0.03304373 -0.01968192 0.02669466
v 0.03464029 -0.01631142 0.02800099
v 0.03434632 -0.02846791 -0.01567101
v 0.03397753 -0.03053801 -0.01191958
v 0.03430397 -0.03030278 -0.01182764
v 0.03430757 -0.03158866 -0.00776466
v 0.03358053 -0.03193806 -0.00785147
v 0.03358195 -0.03269523 -0.00361012
v 0.03304364 -0.03271237 -0.00361221
v 0.03358277 -0.03289829 0.00069375
v 0.03304365 -0.03291531 0.00069399
v 0.03464662 -0.03192349 -0.00352224
v 0.03431316 -0.03234214 -0.00356986
v 0.03304365 -0.03283688 0.00246460
v 0.03304366 -0.03256038 0.00499020
v 0.03431211 -0.03218953 0.00493492
v 0.03464000 -0.03088306 0.00898496
v 0.03430728 -0.03128852 0.00910042
v 0.03430846 -0.02792910 0.01691468
v 0.03431238 -0.02552493 0.02043364
v 0.03464590 -0.02519281 0.02017329
v 0.03397991 -0.03183270 -0.00782522
v 0.03398352 -0.03258982 -0.00359808
v 0.03431593 -0.03254458 0.00068764
v 0.03398537 -0.03279310 0.00069196
v 0.03398295 -0.03243710 0.00497181
v 0.03430557 -0.02986050 0.01311577
v 0.03397989 -0.03153132 0.00916956
v 0.03397878 -0.03009297 0.01321582
v 0.03358188 -0.03254305 0.00498761
v 0.03358074 -0.03163663 0.00919966
v 0.03358030 -0.03019419 0.01325951
v 0.03398072 -0.02814616 0.01704351
v 0.03398326 -0.02572234 0.02058850
v 0.03358218 -0.02580694 0.02065505
v 0.03304370 -0.02582064 0.02066616
v 0.03358117 -0.02824013 0.01709948
v 0.03304368 -0.03021099 0.01326699
v 0.03304367 -0.03143141 0.00995524
v 0.03304372 -0.02378532 0.02302570
v 0.03358221 -0.02293435 0.02386675
v 0.03398312 -0.02285876 0.02378953
v 0.03431209 -0.02268283 0.02361003
v 0.03358126 -0.01967114 0.02668000
v 0.03430841 -0.01945311 0.02639062
v 0.03464397 -0.02132446 0.02430458
v 0.03430752 -0.01589324 0.02873365
v 0.03398073 -0.01960524 0.02659238
v 0.03398013 -0.01601821 0.02895344
v 0.03304373 -0.01794471 0.02792183
v 0.03358099 -0.01607241 0.02904899
v 0.03398059 -0.01215643 0.03083212
v 0.03304374 -0.01608125 0.02906496
v 0.03358116 -0.01219772 0.03093357
v 0.03304375 -0.01220441 0.03095047
v 0.03430842 -0.00383745 0.03277115
v 0.03398018 -0.00808419 0.03219588
v 0.03398084 -0.00387007 0.03302224
v 0.03358146 0.00041547 0.03340838
v 0.03398104 0.00041547 0.03329868
v 0.03430883 0.00041547 0.03304593
v 0.03464206 0.00041547 0.03262393
v 0.03464093 -0.01068752 0.03067590
v 0.03430823 -0.01206097 0.03059832
v 0.03430759 -0.00801963 0.03195147
v 0.03358101 -0.00811218 0.03230206
v 0.03304376 -0.00811674 0.03231974
v 0.03358144 -0.00388423 0.03313143
v 0.03304376 -0.00388652 0.03314961
v 0.03304052 0.01718887 0.02895511
v 0.03357720 0.03452756 0.00725768
v 0.03352565 0.03590193 0.00273139
v 0.03304918 0.03591322 0.00273655
v 0.03303943 0.03454120 0.00727333
v 0.03398491 0.03579043 0.00270007
v 0.03397747 0.03442734 0.00721396
v 0.03430577 0.03419177 0.00712345
v 0.03435162 0.03550173 0.00262285
v 0.03463823 0.03209009 0.01129804
v 0.03430617 0.03246842 0.01148588
v 0.03463732 0.03379531 0.00697554
v 0.03463564 0.03513207 0.00252489
v 0.03304306 0.03279888 0.01168046
v 0.03358002 0.03278858 0.01165880
v 0.03304234 0.03061218 0.01588399
v 0.03357989 0.03060489 0.01586086
v 0.03304080 0.02794255 0.01979790
v 0.03304182 0.02478640 0.02333064
v 0.03357946 0.02478049 0.02331088
v 0.03357925 0.02117053 0.02638189
v 0.03304213 0.02290612 0.02503569
v 0.03376114 0.03586749 0.00272129
v 0.03357857 0.02793686 0.01977588
v 0.03397835 0.02785788 0.01969961
v 0.03397883 0.02470933 0.02322663
v 0.03397867 0.02110863 0.02629156
v 0.03357860 0.01718124 0.02893884
v 0.03397892 0.03269360 0.01160176
v 0.03397950 0.03051784 0.01579345
v 0.03430646 0.02766610 0.01953546
v 0.03430652 0.02453819 0.02304010
v 0.03430734 0.01700872 0.02862267
v 0.03464163 0.01680589 0.02825327
v 0.03463986 0.02071506 0.02574439
v 0.03430652 0.02096183 0.02608631
v 0.03463967 0.02425001 0.02273152
v 0.03463993 0.02850909 0.01767633
v 0.03430740 0.03030786 0.01565299
v 0.03464023 0.02995335 0.01542349
v 0.03304343 0.01290975 0.03098903
v 0.03358136 0.01290306 0.03097234
v 0.03397869 0.01712954 0.02884326
v 0.03398144 0.01286231 0.03087143
v 0.03430974 0.01276791 0.03063790
v 0.03464250 0.01479194 0.02928827
v 0.03464325 0.01260982 0.03024686
v 0.03398008 0.00675578 0.03268443
v 0.03358088 0.00677669 0.03279207
v 0.03464063 0.00662702 0.03202261
v 0.03430758 0.00670755 0.03243647
v 0.03304374 0.00041547 0.03342659
v 0.03304361 0.00678010 0.03280998
v 0.03244375 -0.01056530 0.03156007
v 0.03304375 -0.01114433 0.03136266
v 0.03304372 -0.02294666 0.02387957
v 0.03304369 -0.02825555 0.01710899
v 0.03304369 -0.02836068 0.01693056
v 0.03304367 -0.03165404 0.00920482
v 0.03244369 -0.03283550 -0.00227686
v 0.03892101 0.00732934 0.02348057
v 0.03663428 0.01145727 0.02739442
v 0.03822794 0.01025357 0.02440877
v 0.03977188 0.00642188 0.02041153
v 0.03923754 0.00918245 0.02175719
v 0.03977189 0.00442865 0.02089722
v 0.03892100 0.00503509 0.02403981
v 0.03730952 0.00575782 0.02778501
v 0.03730955 0.00841083 0.02713809
v 0.03304161 0.02980903 0.01717550
v 0.03304119 0.02637864 0.02166841
v 0.03304176 0.02117758 0.02639923
v 0.03299640 0.03652762 0.00001628
v 0.03395985 0.03686149 -0.00451030
v 0.03379115 0.03702150 -0.00446283
v 0.03359214 0.03714050 -0.00441693
v 0.03336927 0.03720638 -0.00437524
v 0.03313673 0.03722667 -0.00433867
v 0.03413284 0.03662306 -0.00290157
v 0.03396562 0.03678665 -0.00286083
v 0.03376802 0.03691172 -0.00282358
v 0.03354523 0.03698571 -0.00279223
v 0.03331105 0.03701510 -0.00276699
v 0.03283795 0.03701258 -0.00272583
v 0.03418332 0.03566442 0.00266622
v 0.03451604 0.03600982 -0.00156759
v 0.03463779 -0.02813785 -0.01549022
v 0.02928640 -0.00961927 -0.06760093
v 0.03069868 -0.00676333 -0.06760163
v 0.00765889 -0.02598821 -0.06744861
v 0.00684622 -0.02613297 -0.06760714
v 0.00994715 -0.02534087 -0.06760708
v 0.00429010 -0.02658898 -0.06744956
v 0.00368444 -0.02663037 -0.06760740
v 0.01294448 -0.02425891 -0.06760743
v 0.03329009 0.00271611 -0.06743275
v 0.03322921 0.00245441 -0.06760105
v 0.03268468 -0.00068298 -0.06760258
v 0.03221419 -0.00264087 -0.06742779
v 0.03183796 -0.00376897 -0.06760175
v 0.03349320 0.00564545 -0.06752007
v 0.03350080 0.00764345 -0.06745110
v 0.03347153 0.00764239 -0.06761888
v 0.00050456 0.03991647 -0.06761768
v 0.00696161 0.03962871 -0.06761425
v 0.03277732 0.01410795 -0.06761988
v 0.03203676 0.01728088 -0.06761567
v 0.03103442 0.02037632 -0.06761242
v 0.02976876 0.02336336 -0.06760973
v 0.02822320 0.02622618 -0.06760671
v 0.02638808 0.02892923 -0.06760650
v 0.02427424 0.03140882 -0.06760817
v 0.02187473 0.03362972 -0.06760500
v 0.01921801 0.03554269 -0.06760135
v 0.01636207 0.03709429 -0.06760781
v 0.01332258 0.03828847 -0.06761209
v 0.01016150 0.03912432 -0.06761146
v 0.03325596 0.01088609 -0.06762198
v 0.03326064 0.01110138 -0.06744915
v 0.03290632 0.01356322 -0.06744444
v 0.03269206 0.01468989 -0.06744187
v 0.03180691 0.01818976 -0.06743283
v 0.03058236 0.02162809 -0.06742255
v 0.02926346 0.02446117 -0.06741374
v 0.02907677 0.02481384 -0.06741264
v 0.02750844 0.02743263 -0.06740455
v 0.02551277 0.03009861 -0.06739705
v 0.02355138 0.03220352 -0.06739437
v 0.02120415 0.03422418 -0.06739455
v 0.01858999 0.03597951 -0.06739668
v 0.01581150 0.03739180 -0.06740087
v 0.01286867 0.03847513 -0.06740736
v 0.01076336 0.03903243 -0.06741329
v 0.00644147 0.03971428 -0.06742915
v 0.00206101 0.03993292 -0.06745150
v 0.02640274 0.02898572 -0.06739997
v 0.01923391 0.03558920 -0.06739598
v 0.00975266 0.03924358 -0.06741654
v 0.00509842 0.03982212 -0.05862621
v 0.00050470 0.03993946 -0.05862624
v 0.00051947 0.03975134 -0.03049137
v 0.00047429 0.03983953 -0.03409438
v 0.00050437 0.03992618 -0.04256335
v 0.00050410 0.03992704 -0.04275762
v 0.00049154 0.03993756 -0.04879342
v -0.00049328 0.03977264 -0.03136282
v 0.00052154 0.03983583 -0.03391834
v 0.00052092 0.03984252 -0.03425421
v 0.00051328 0.03988602 -0.03687939
v 0.00050903 0.03990442 -0.03860015
v 0.00050701 0.03991516 -0.04026328
v -0.00053413 0.03992558 -0.04148266
v 0.03922899 0.02444186 -0.00224580
v 0.00080115 0.03975858 -0.03096168
v 0.00052152 0.03977636 -0.03137871
v 0.04015004 0.00696222 -0.01746072
v 0.03913664 0.02170051 -0.01232760
v 0.03948680 0.01815156 -0.01449253
v 0.03967485 0.01457064 -0.01663887
v 0.03994104 0.02044090 0.00336758
v 0.03954492 0.01970047 0.01115079
v 0.04015262 0.01304907 0.01392219
v 0.03993793 0.00800790 0.01886667
v 0.03889402 0.01168166 0.02177463
v 0.03751785 0.01470555 0.02394039
v 0.03679105 0.02577356 0.01557703
v 0.03463973 0.02734186 0.01926515
v 0.03636146 0.02966058 0.01009555
v 0.03350421 0.03700951 -0.00886588
v 0.03460523 0.03587883 -0.00589927
v 0.03424109 0.03649060 -0.00460445
v 0.03441246 0.03624871 -0.00298580
v 0.03138833 0.03763492 -0.01545491
v 0.03253206 0.03736999 -0.01243978
v 0.00050463 0.03992534 -0.04237767
v 0.00162112 0.03990141 -0.04145359
v 0.00295834 0.03987969 -0.05198196
v 0.03996734 -0.00328872 -0.01958062
v 0.04015080 0.00853521 0.01699833
v 0.03978591 0.00854738 0.01954509
v 0.03946638 0.01571266 0.01656241
v 0.03567923 0.01760962 0.02602074
v 0.03827643 0.01879701 0.01877777
v 0.03919476 0.02367365 0.00561271
v 0.03842142 0.02281069 0.01338447
v 0.03658156 0.02175115 0.02092520
v 0.03539403 0.03336751 0.00461153
v 0.03801838 0.02675860 0.00786139
v 0.03710571 0.03062708 0.00231041
v 0.03562467 0.03427117 -0.00320070
v 0.03691867 0.03149691 -0.00556697
v 0.03592898 0.03328938 -0.00831382
v 0.03327977 0.03630308 -0.01356586
v 0.03861318 0.02515837 -0.01012777
v 0.03789406 0.02845041 -0.00787764
v 0.03448343 0.03388888 -0.01601311
v 0.03669683 0.02918421 -0.01568507
v 0.03584104 0.03223271 -0.01338403
v 0.03733899 0.02584543 -0.01790520
v 0.03696625 0.03039518 -0.01066040
v 0.03472891 0.03491428 -0.01099159
v 0.03836169 0.02763916 0.00001849
v 0.03980524 0.02108405 -0.00447713
v 0.01126289 -0.02493544 -0.06744745
v -0.00000000 -0.01776000 -0.10320000
v -0.00621166 -0.01694222 -0.10320000
v -0.01200000 -0.01454461 -0.10320000
v -0.02078461 -0.00576000 -0.10320000
v -0.02318222 0.00002834 -0.10320000
v -0.02400000 0.00624000 -0.10320000
v -0.02318222 0.01245165 -0.10320000
v -0.02078461 0.01824000 -0.10320000
v -0.01697056 0.02321056 -0.10320000
v -0.01200000 0.02702461 -0.10320000
v 0.00621166 0.02942222 -0.10320000
v 0.01200000 0.02702461 -0.10320000
v 0.01697056 0.02321056 -0.10320000
v 0.02078461 0.01824000 -0.10320000
v 0.02318222 0.01245165 -0.10320000
v 0.02400000 0.00624000 -0.10320000
v 0.02318222 0.00002834 -0.10320000
v 0.02078461 -0.00576000 -0.10320000
v 0.01697056 -0.01073057 -0.10320000
v 0.01200000 -0.01454461 -0.10320000
v 0.00621166 -0.01694222 -0.10320000
v -0.01697056 -0.01073057 -0.10320000
v -0.00621166 0.02942222 -0.10320000
v -0.00000000 0.03024000 -0.10320000
f 690 689 634
f 634 689 637
f 877 637 876
f 877 876 1011
f 994 1014 883
f 635 687 641
f 742 743 727
f 1016 1003 484
f 1004 920 1005
f 1006 1005 902
f 896 910 1008
f 1008 1007 912
f 912 897 1008
f 912 1007 898
f 900 1007 1006
f 1012 1011 725
f 583 634 637
f 1010 1009 886
f 930 582 699
f 480 1000 999
f 542 191 543
f 541 543 540
f 555 554 565
f 567 555 566
f 565 568 566
f 566 555 565
f 565 554 564
f 553 416 564
f 553 564 550
f 550 564 554
f 688 687 635
f 635 637 688
f 637 689 688
f 671 687 688
f 685 645 642
f 673 689 690
f 957 955 977
f 977 955 974
f 974 973 977
f 950 973 974
f 974 955 972
f 170 139 71
f 164 83 70
f 384 15 775
f 775 15 1
f 653 693 655
f 223 477 224
f 994 468 995
f 998 477 999
f 474 268 181
f 474 998 997
f 181 998 474
f 588 729 176
f 879 727 880
f 880 1014 879
f 469 468 994
f 176 468 469
f 273 272 220
f 245 242 273
f 273 242 272
f 732 641 640
f 1013 742 884
f 1014 1013 884
f 578 566 568
f 489 175 1017
f 904 707 919
f 920 707 904
f 919 1005 904
f 904 1005 920
f 901 1006 917
f 1006 902 917
f 917 963 901
f 902 963 917
f 707 902 918
f 918 902 1005
f 711 699 582
f 713 699 711
f 981 980 989
f 1008 897 911
f 911 896 1008
f 896 911 988
f 910 896 988
f 987 981 989
f 987 912 898
f 916 1006 901
f 916 900 1006
f 726 742 724
f 724 725 726
f 724 742 1013
f 724 1013 1012
f 1012 725 724
f 723 1011 876
f 723 725 1011
f 726 725 639
f 889 583 1010
f 690 634 889
f 634 583 889
f 878 1011 1010
f 1010 583 878
f 877 1011 878
f 878 637 877
f 878 583 637
f 887 691 690
f 306 547 303
f 582 547 306
f 306 711 582
f 1001 1000 506
f 480 999 479
f 479 999 478
f 542 480 544
f 190 543 191
f 190 540 543
f 541 540 573
f 573 576 541
f 567 576 573
f 574 576 570
f 570 572 574
f 574 572 508
f 508 506 574
f 541 576 575
f 575 574 505
f 576 574 575
f 554 555 537
f 565 564 558
f 558 568 565
f 558 579 568
f 413 558 564
f 201 443 193
f 233 207 231
f 278 277 231
f 234 207 233
f 7 721 16
f 773 775 1
f 650 645 648
f 653 652 648
f 648 645 683
f 683 693 648
f 648 693 653
f 642 645 646
f 760 755 761
f 684 668 683
f 683 645 684
f 645 685 684
f 644 685 642
f 640 641 644
f 642 647 644
f 670 687 671
f 671 688 672
f 672 688 689
f 689 673 672
f 980 981 979
f 949 973 950
f 949 942 973
f 977 973 991
f 973 942 991
f 160 133 161
f 161 63 160
f 671 672 620
f 151 147 139
f 139 170 151
f 151 170 150
f 151 618 51
f 82 70 83
f 761 755 754
f 682 655 693
f 681 661 682
f 682 661 655
f 627 668 626
f 970 974 972
f 950 974 970
f 856 850 857
f 856 853 850
f 678 679 658
f 678 856 857
f 695 856 678
f 680 661 681
f 658 661 680
f 680 678 658
f 695 678 680
f 476 282 283
f 224 283 227
f 227 283 282
f 181 268 269
f 269 268 281
f 281 282 269
f 224 477 184
f 476 283 184
f 184 283 224
f 184 998 476
f 477 998 184
f 203 478 204
f 478 223 204
f 204 545 203
f 204 544 545
f 186 223 478
f 478 999 186
f 999 477 186
f 233 231 276
f 276 231 277
f 470 995 178
f 178 995 468
f 179 995 472
f 472 354 179
f 475 998 181
f 181 269 475
f 475 269 282
f 182 997 473
f 182 474 997
f 473 268 182
f 268 474 182
f 281 268 280
f 994 883 587
f 883 588 587
f 587 469 994
f 587 588 176
f 176 469 587
f 727 743 728
f 728 880 727
f 729 588 728
f 728 588 883
f 179 354 471
f 471 354 996
f 996 995 471
f 471 995 179
f 266 280 268
f 358 360 363
f 342 331 344
f 256 276 277
f 437 341 342
f 245 273 275
f 244 242 245
f 733 732 640
f 726 732 733
f 733 742 726
f 743 742 733
f 638 732 726
f 641 732 638
f 635 641 638
f 638 639 635
f 726 639 638
f 879 1014 881
f 881 727 879
f 881 742 727
f 567 566 569
f 566 578 569
f 569 576 567
f 570 576 569
f 569 578 570
f 570 578 571
f 571 572 570
f 489 308 516
f 510 511 1001
f 510 572 561
f 1001 511 496
f 496 1002 1001
f 561 562 496
f 484 1003 493
f 1003 1002 490
f 483 1016 484
f 488 1017 1016
f 489 1017 488
f 962 902 707
f 707 963 962
f 962 963 902
f 905 920 1004
f 1004 921 905
f 922 1004 906
f 922 921 1004
f 906 927 922
f 903 1005 919
f 903 918 1005
f 482 175 489
f 489 516 482
f 482 1017 175
f 871 865 866
f 866 872 871
f 990 987 985
f 981 987 990
f 986 987 989
f 989 983 986
f 986 983 988
f 986 911 897
f 986 988 911
f 897 912 986
f 912 987 986
f 1007 899 914
f 914 899 985
f 1007 900 915
f 915 899 1007
f 985 899 915
f 982 990 985
f 901 963 982
f 982 916 901
f 636 639 725
f 636 876 637
f 636 637 635
f 635 639 636
f 636 723 876
f 725 723 636
f 1010 886 585
f 585 887 1010
f 691 887 585
f 888 889 1010
f 1010 887 888
f 690 889 888
f 888 887 690
f 1009 892 890
f 947 948 908
f 711 306 453
f 700 701 928
f 716 922 927
f 966 965 928
f 965 966 924
f 924 966 928
f 924 589 1017
f 1000 505 507
f 507 506 1000
f 505 574 507
f 507 574 506
f 501 1000 480
f 501 480 542
f 542 543 501
f 504 505 1000
f 1000 503 504
f 504 503 541
f 541 575 504
f 504 575 505
f 517 191 542
f 542 544 517
f 199 191 517
f 203 545 546
f 540 190 200
f 199 573 200
f 200 191 199
f 200 190 191
f 462 404 452
f 579 558 406
f 539 550 554
f 554 537 539
f 539 530 550
f 539 537 196
f 556 537 555
f 556 555 567
f 199 198 556
f 556 573 199
f 567 573 556
f 568 579 527
f 579 406 527
f 559 571 578
f 559 578 568
f 568 527 559
f 559 527 465
f 464 458 460
f 415 564 416
f 415 413 564
f 550 530 531
f 553 550 531
f 530 539 534
f 220 272 237
f 272 239 237
f 240 443 201
f 445 443 240
f 272 242 285
f 242 271 285
f 285 239 272
f 285 240 239
f 775 773 774
f 376 15 384
f 1 15 376
f 376 773 1
f 741 648 652
f 737 647 642
f 738 647 737
f 642 646 737
f 651 645 650
f 651 646 645
f 615 147 50
f 50 616 615
f 147 616 50
f 51 618 617
f 617 618 673
f 617 616 147
f 617 151 51
f 147 151 617
f 685 644 686
f 687 670 686
f 686 641 687
f 686 644 641
f 640 644 643
f 643 644 647
f 626 668 669
f 668 684 669
f 150 54 53
f 619 672 673
f 673 618 619
f 619 53 54
f 54 620 619
f 619 620 672
f 870 865 871
f 977 991 978
f 978 957 977
f 980 979 978
f 978 991 980
f 138 169 71
f 130 166 164
f 71 166 130
f 117 116 85
f 71 116 117
f 84 83 164
f 164 166 84
f 166 165 84
f 84 117 85
f 84 165 117
f 133 160 132
f 71 133 132
f 24 84 85
f 83 84 24
f 161 133 162
f 164 70 69
f 161 162 65
f 12 787 9
f 761 754 762
f 772 774 771
f 771 774 773
f 766 652 653
f 653 655 654
f 654 766 653
f 765 766 654
f 660 661 658
f 159 160 63
f 158 627 626
f 157 160 158
f 160 159 158
f 158 159 627
f 851 852 954
f 972 955 975
f 975 954 972
f 596 949 950
f 419 424 423
f 423 422 394
f 424 422 423
f 850 853 854
f 854 852 850
f 853 856 855
f 855 695 662
f 855 856 695
f 662 695 663
f 695 680 663
f 663 680 681
f 232 231 207
f 224 227 214
f 477 223 187
f 187 186 477
f 223 186 187
f 278 262 261
f 261 277 278
f 261 262 260
f 260 259 261
f 180 995 470
f 180 472 995
f 185 282 476
f 185 475 282
f 476 998 185
f 998 475 185
f 279 262 278
f 279 266 262
f 280 266 279
f 882 728 883
f 880 728 882
f 882 883 1014
f 1014 880 882
f 177 178 468
f 178 177 356
f 356 177 468
f 358 361 356
f 356 468 176
f 352 1015 996
f 996 354 352
f 358 363 364
f 364 361 358
f 362 361 364
f 328 362 364
f 364 20 328
f 2 363 734
f 734 360 731
f 734 363 360
f 248 249 254
f 249 256 254
f 336 253 252
f 333 345 16
f 8 760 370
f 370 17 8
f 370 345 341
f 372 7 16
f 16 345 372
f 345 370 372
f 372 370 760
f 341 437 436
f 8 17 436
f 436 370 341
f 17 370 436
f 249 275 287
f 287 256 249
f 276 256 287
f 246 244 245
f 241 271 242
f 375 271 241
f 1014 884 993
f 993 881 1014
f 993 884 742
f 742 881 993
f 489 298 299
f 509 510 1001
f 1001 506 509
f 509 506 508
f 508 572 509
f 572 510 509
f 512 510 561
f 511 510 512
f 561 496 512
f 512 496 511
f 498 1002 495
f 1002 496 495
f 495 562 498
f 495 496 562
f 1003 491 492
f 492 493 1003
f 291 493 492
f 484 493 494
f 494 493 291
f 494 297 484
f 494 291 297
f 513 491 1003
f 1003 490 513
f 513 292 291
f 513 490 292
f 499 490 1002
f 292 490 499
f 460 458 459
f 293 292 562
f 562 295 293
f 297 486 485
f 484 297 485
f 485 483 484
f 485 486 1016
f 1016 483 485
f 1016 486 487
f 487 488 1016
f 487 486 297
f 713 711 715
f 709 863 710
f 708 963 707
f 707 718 708
f 919 707 926
f 926 903 919
f 707 918 926
f 918 903 926
f 1017 482 481
f 481 482 514
f 525 524 303
f 525 937 524
f 303 547 548
f 548 518 303
f 548 582 930
f 548 547 582
f 867 715 711
f 866 715 867
f 711 453 867
f 872 866 867
f 867 453 447
f 599 949 34
f 73 74 71
f 71 119 73
f 73 104 74
f 989 980 984
f 984 983 989
f 942 983 984
f 980 991 984
f 984 991 942
f 910 988 946
f 988 983 946
f 946 602 947
f 898 1007 913
f 1007 914 913
f 913 987 898
f 985 987 913
f 913 914 985
f 900 916 925
f 916 982 925
f 925 982 985
f 985 915 925
f 925 915 900
f 710 990 958
f 990 982 958
f 958 709 710
f 958 982 963
f 963 708 958
f 584 886 1009
f 1009 890 584
f 947 908 909
f 910 946 909
f 909 946 947
f 891 890 892
f 447 453 461
f 462 452 461
f 461 452 447
f 297 291 310
f 297 310 312
f 312 310 305
f 312 299 298
f 312 305 308
f 312 487 297
f 303 549 302
f 315 455 454
f 454 455 462
f 462 461 454
f 454 461 453
f 315 454 304
f 304 453 306
f 304 454 453
f 698 965 699
f 717 718 707
f 701 700 712
f 712 716 701
f 712 698 713
f 700 698 712
f 712 717 716
f 923 924 928
f 589 924 923
f 1017 589 923
f 921 922 706
f 922 716 706
f 716 717 706
f 706 905 921
f 920 905 706
f 706 707 920
f 706 717 707
f 965 924 934
f 924 929 934
f 944 548 930
f 502 503 1000
f 1000 501 502
f 502 501 543
f 502 543 541
f 541 503 502
f 203 546 202
f 202 546 192
f 202 192 478
f 202 478 203
f 192 546 188
f 188 479 478
f 478 192 188
f 188 546 545
f 545 544 188
f 480 479 188
f 188 544 480
f 189 573 540
f 540 200 189
f 189 200 573
f 397 386 405
f 411 406 558
f 411 413 407
f 558 413 411
f 396 386 397
f 397 404 396
f 386 396 409
f 871 872 862
f 793 862 452
f 792 862 793
f 537 556 197
f 528 559 465
f 528 464 460
f 465 464 528
f 403 404 462
f 403 396 404
f 448 405 386
f 441 421 552
f 552 531 441
f 553 531 552
f 439 443 445
f 439 193 443
f 529 531 530
f 441 531 529
f 529 442 441
f 445 240 284
f 240 285 284
f 284 446 445
f 270 446 284
f 284 271 270
f 284 285 271
f 786 774 772
f 786 9 787
f 650 648 649
f 648 741 649
f 736 647 738
f 736 643 647
f 2 734 735
f 3 20 735
f 745 728 743
f 328 20 365
f 674 617 673
f 616 617 674
f 615 616 674
f 674 673 690
f 690 691 674
f 685 686 692
f 692 686 670
f 692 684 685
f 692 669 684
f 670 623 692
f 150 53 52
f 52 151 150
f 618 151 52
f 52 619 618
f 53 619 52
f 869 863 864
f 865 870 864
f 864 870 869
f 863 709 864
f 959 979 981
f 959 990 710
f 981 990 959
f 957 978 976
f 868 863 869
f 869 798 868
f 868 798 875
f 120 109 122
f 71 120 122
f 72 119 71
f 71 122 72
f 71 139 137
f 137 138 71
f 81 120 71
f 81 109 120
f 71 169 140
f 140 121 71
f 169 167 140
f 113 140 167
f 121 140 113
f 118 166 71
f 118 165 166
f 71 117 118
f 117 165 118
f 74 96 75
f 71 74 75
f 75 126 71
f 34 98 125
f 125 75 96
f 126 75 125
f 90 79 94
f 128 100 102
f 115 116 71
f 71 76 115
f 85 116 115
f 71 79 77
f 77 76 71
f 77 79 90
f 135 173 71
f 626 669 625
f 669 692 625
f 136 170 71
f 71 171 136
f 150 170 136
f 136 171 150
f 71 173 134
f 134 171 71
f 134 153 171
f 25 82 83
f 83 24 25
f 633 82 25
f 131 162 133
f 130 162 131
f 131 133 71
f 71 130 131
f 164 69 163
f 163 130 164
f 163 162 130
f 629 63 161
f 162 163 66
f 666 663 681
f 787 14 843
f 383 787 12
f 383 14 787
f 740 762 754
f 740 649 741
f 754 753 740
f 770 374 721
f 770 771 773
f 770 376 374
f 773 376 770
f 655 661 656
f 656 657 655
f 763 766 765
f 765 768 763
f 763 768 762
f 652 766 763
f 762 740 763
f 763 741 652
f 763 740 741
f 765 654 722
f 655 657 722
f 722 654 655
f 658 679 659
f 659 660 658
f 679 776 659
f 777 786 772
f 628 159 63
f 627 159 628
f 668 627 628
f 63 629 628
f 156 158 626
f 157 158 156
f 626 625 156
f 852 851 858
f 857 850 858
f 850 852 858
f 954 975 971
f 971 975 824
f 824 823 971
f 971 851 954
f 398 418 419
f 419 423 398
f 417 416 553
f 595 596 950
f 99 98 34
f 99 100 98
f 951 970 593
f 593 30 951
f 23 183 425
f 394 422 425
f 23 425 426
f 426 425 422
f 381 13 426
f 427 422 424
f 424 428 427
f 427 426 422
f 428 349 427
f 431 421 441
f 433 446 270
f 969 854 853
f 593 970 969
f 970 854 969
f 954 852 953
f 852 854 953
f 972 954 953
f 953 970 972
f 953 854 970
f 632 69 70
f 663 666 632
f 226 214 227
f 225 223 224
f 224 214 225
f 260 338 339
f 339 259 260
f 339 361 362
f 260 262 263
f 263 338 260
f 355 180 470
f 470 178 355
f 178 356 355
f 354 472 355
f 472 180 355
f 340 338 354
f 354 355 340
f 340 355 356
f 340 356 361
f 361 339 340
f 340 339 338
f 731 360 849
f 176 729 849
f 729 728 849
f 997 1015 351
f 1015 352 351
f 748 736 738
f 746 736 748
f 248 332 250
f 250 249 248
f 250 251 249
f 341 345 343
f 343 332 331
f 343 331 342
f 342 341 343
f 331 332 322
f 248 254 322
f 322 332 248
f 371 343 345
f 332 343 371
f 345 333 371
f 274 253 245
f 274 252 253
f 245 275 274
f 274 275 249
f 249 251 274
f 251 252 274
f 16 721 373
f 373 333 16
f 721 374 373
f 374 333 373
f 761 7 845
f 7 372 845
f 845 760 761
f 845 372 760
f 8 436 756
f 756 760 8
f 755 760 756
f 756 436 437
f 233 276 235
f 276 287 235
f 235 234 233
f 235 206 234
f 10 13 381
f 381 434 10
f 245 253 247
f 247 246 245
f 247 253 336
f 242 244 243
f 243 241 242
f 523 549 522
f 522 939 523
f 303 524 522
f 522 549 303
f 941 549 523
f 520 482 516
f 516 549 520
f 291 492 500
f 500 492 491
f 500 513 291
f 491 513 500
f 497 1002 498
f 497 499 1002
f 292 499 497
f 498 562 497
f 562 292 497
f 460 459 560
f 571 559 560
f 560 528 460
f 559 528 560
f 311 455 315
f 456 455 311
f 291 292 294
f 292 293 294
f 294 293 295
f 295 311 294
f 713 715 714
f 718 717 714
f 714 712 713
f 717 712 714
f 718 714 720
f 720 714 715
f 720 866 865
f 720 715 866
f 893 481 514
f 893 924 1017
f 1017 481 893
f 303 518 526
f 526 525 303
f 947 602 603
f 603 38 947
f 37 38 603
f 74 104 106
f 106 96 74
f 992 983 942
f 992 946 983
f 992 599 600
f 602 946 992
f 942 949 992
f 949 599 992
f 1008 910 895
f 910 909 895
f 907 909 908
f 907 1009 1008
f 1008 895 907
f 907 895 909
f 907 892 1009
f 907 891 892
f 296 298 489
f 296 312 298
f 489 488 296
f 488 487 296
f 487 312 296
f 309 312 308
f 299 312 309
f 309 308 489
f 489 299 309
f 303 302 290
f 308 305 301
f 305 302 301
f 301 516 308
f 466 403 462
f 462 455 466
f 466 455 456
f 458 464 463
f 463 456 458
f 463 466 456
f 403 466 463
f 696 699 713
f 713 698 696
f 696 698 699
f 697 700 928
f 697 698 700
f 928 965 697
f 965 698 697
f 704 716 927
f 927 923 704
f 894 923 927
f 906 1004 894
f 894 927 906
f 1004 1017 894
f 1017 923 894
f 586 929 924
f 586 893 514
f 924 893 586
f 933 934 521
f 965 934 933
f 519 934 929
f 519 586 514
f 929 586 519
f 521 934 519
f 930 699 943
f 943 944 930
f 699 944 943
f 699 937 936
f 936 944 699
f 413 415 414
f 407 413 414
f 414 409 407
f 447 452 873
f 452 862 873
f 873 862 872
f 873 867 447
f 872 867 873
f 451 452 404
f 451 793 452
f 451 404 397
f 397 405 451
f 196 537 538
f 537 197 538
f 557 556 198
f 557 197 556
f 557 538 197
f 557 198 196
f 196 538 557
f 396 403 408
f 408 411 407
f 406 411 408
f 407 409 408
f 408 409 396
f 421 419 532
f 532 552 421
f 419 418 532
f 201 193 195
f 193 533 195
f 195 533 551
f 195 539 196
f 195 551 539
f 195 198 199
f 196 198 195
f 536 529 530
f 442 529 444
f 445 446 444
f 446 442 444
f 529 536 444
f 444 439 445
f 438 364 363
f 2 735 438
f 20 364 438
f 438 735 20
f 643 736 744
f 640 643 744
f 744 736 746
f 746 745 744
f 744 733 640
f 743 733 744
f 744 745 743
f 730 734 731
f 728 745 730
f 731 849 730
f 730 849 728
f 739 651 650
f 739 740 753
f 650 649 739
f 649 740 739
f 757 754 755
f 757 753 754
f 749 739 753
f 749 748 738
f 366 365 759
f 366 344 328
f 328 365 366
f 875 798 802
f 979 875 802
f 802 978 979
f 802 976 978
f 863 868 960
f 710 863 960
f 960 959 710
f 890 891 112
f 71 121 80
f 80 81 71
f 121 113 80
f 80 113 81
f 600 599 97
f 97 599 34
f 34 125 97
f 71 126 127
f 127 128 71
f 127 125 98
f 126 125 127
f 98 100 127
f 100 128 127
f 102 94 129
f 129 128 102
f 71 128 129
f 87 76 88
f 87 115 76
f 85 115 87
f 157 135 174
f 174 160 157
f 174 132 160
f 71 132 174
f 174 135 71
f 624 692 623
f 623 59 624
f 624 59 60
f 624 625 692
f 61 624 60
f 625 624 61
f 152 54 150
f 150 171 152
f 171 153 152
f 622 670 671
f 622 623 670
f 172 59 623
f 60 59 172
f 173 135 172
f 172 134 173
f 153 134 172
f 26 24 85
f 85 87 26
f 89 30 593
f 29 87 89
f 88 30 89
f 89 87 88
f 590 25 24
f 590 855 662
f 590 662 633
f 633 25 590
f 631 66 67
f 67 66 163
f 161 65 64
f 64 629 161
f 65 629 64
f 681 682 694
f 694 666 681
f 631 666 694
f 630 65 162
f 162 66 630
f 630 629 65
f 630 66 631
f 631 694 630
f 844 786 787
f 787 843 844
f 774 786 844
f 775 774 844
f 844 843 14
f 350 349 337
f 12 434 350
f 764 768 771
f 771 770 764
f 764 770 721
f 764 7 761
f 721 7 764
f 761 762 764
f 762 768 764
f 661 660 783
f 783 656 661
f 771 768 769
f 769 768 765
f 772 771 769
f 785 659 776
f 660 659 785
f 785 776 778
f 778 777 785
f 785 783 660
f 668 628 667
f 667 628 629
f 629 630 667
f 667 630 694
f 683 668 667
f 667 693 683
f 667 682 693
f 667 694 682
f 157 156 62
f 62 156 625
f 625 61 62
f 782 678 857
f 679 678 782
f 782 776 679
f 580 183 23
f 448 805 803
f 32 595 31
f 32 31 90
f 90 94 32
f 34 949 598
f 598 99 34
f 949 99 598
f 102 100 101
f 100 99 101
f 970 951 594
f 950 970 594
f 594 595 950
f 31 595 594
f 92 77 90
f 88 76 92
f 76 77 92
f 382 427 349
f 349 350 382
f 381 426 382
f 426 427 382
f 382 434 381
f 382 350 434
f 429 428 424
f 421 431 429
f 429 419 421
f 429 424 419
f 446 433 432
f 432 442 446
f 441 442 432
f 432 431 441
f 348 349 428
f 348 432 433
f 337 349 348
f 664 632 70
f 663 632 664
f 664 82 633
f 70 82 664
f 633 662 664
f 662 663 664
f 280 279 289
f 544 204 205
f 205 225 544
f 205 204 223
f 223 225 205
f 544 225 210
f 199 517 210
f 210 517 544
f 210 195 199
f 210 232 207
f 207 234 210
f 234 206 210
f 176 849 21
f 21 849 360
f 21 360 358
f 358 356 21
f 473 997 267
f 267 268 473
f 353 352 354
f 353 351 352
f 353 264 351
f 354 338 353
f 338 263 353
f 750 735 734
f 3 735 750
f 734 730 750
f 750 745 746
f 750 730 745
f 317 344 331
f 331 322 317
f 317 322 316
f 320 339 362
f 259 339 320
f 255 254 256
f 255 322 254
f 316 322 255
f 318 252 251
f 332 371 318
f 336 252 318
f 251 250 318
f 318 250 332
f 335 371 333
f 335 334 336
f 336 318 335
f 335 318 371
f 220 209 286
f 286 273 220
f 286 275 273
f 286 287 275
f 286 235 287
f 789 10 434
f 12 9 789
f 789 434 12
f 13 10 841
f 10 789 841
f 246 247 325
f 244 246 325
f 325 247 336
f 336 334 325
f 938 522 524
f 939 522 938
f 524 937 938
f 938 937 699
f 699 965 938
f 965 939 938
f 482 520 515
f 521 519 515
f 515 549 521
f 515 520 549
f 514 482 515
f 515 519 514
f 563 459 295
f 563 560 459
f 571 560 563
f 561 572 563
f 572 571 563
f 563 562 561
f 563 295 562
f 295 459 457
f 457 311 295
f 457 459 458
f 458 456 457
f 456 311 457
f 314 310 291
f 291 294 314
f 314 311 315
f 314 294 311
f 719 708 718
f 718 720 719
f 709 958 719
f 719 958 708
f 719 864 709
f 865 864 719
f 719 720 865
f 39 606 948
f 110 109 41
f 37 603 36
f 36 603 602
f 104 37 36
f 600 97 95
f 95 125 96
f 95 97 125
f 886 584 885
f 584 675 885
f 677 585 886
f 886 885 677
f 677 885 675
f 691 585 677
f 677 674 691
f 615 674 677
f 677 614 615
f 144 584 890
f 948 606 40
f 516 301 300
f 300 301 302
f 300 549 516
f 300 302 549
f 403 463 467
f 465 527 467
f 467 464 465
f 467 463 464
f 467 408 403
f 467 527 406
f 406 408 467
f 940 939 965
f 523 939 940
f 940 941 523
f 577 933 521
f 941 933 577
f 521 549 577
f 549 941 577
f 931 936 937
f 526 936 931
f 937 525 931
f 525 526 931
f 944 936 935
f 935 936 526
f 548 944 935
f 518 548 935
f 935 526 518
f 420 532 418
f 552 532 420
f 553 552 420
f 420 417 553
f 418 400 420
f 400 417 420
f 194 533 193
f 193 439 194
f 194 439 534
f 551 533 535
f 535 534 539
f 539 551 535
f 535 194 534
f 533 194 535
f 530 534 440
f 440 536 530
f 440 444 536
f 534 439 440
f 439 444 440
f 22 363 2
f 2 438 22
f 22 438 363
f 6 756 437
f 755 756 6
f 6 757 755
f 646 651 747
f 747 749 738
f 651 739 747
f 739 749 747
f 738 737 747
f 747 737 646
f 753 757 752
f 752 749 753
f 748 749 752
f 18 366 759
f 961 868 875
f 961 960 868
f 961 875 979
f 979 959 961
f 959 960 961
f 604 44 891
f 891 42 604
f 109 81 114
f 81 113 114
f 41 109 114
f 114 42 41
f 891 44 609
f 609 112 891
f 44 112 609
f 141 112 44
f 141 114 113
f 141 113 167
f 78 94 79
f 78 129 94
f 78 79 71
f 71 129 78
f 623 622 58
f 58 172 623
f 153 172 58
f 57 152 153
f 155 135 157
f 155 172 135
f 157 62 155
f 155 62 61
f 155 61 60
f 60 172 155
f 86 87 29
f 952 969 853
f 593 969 952
f 68 163 69
f 68 67 163
f 657 656 767
f 767 722 657
f 765 722 767
f 767 769 765
f 783 785 784
f 656 783 784
f 784 777 772
f 784 785 777
f 784 767 656
f 772 769 784
f 769 767 784
f 851 971 835
f 835 971 823
f 823 822 835
f 835 822 834
f 839 858 851
f 857 858 839
f 839 782 857
f 394 425 395
f 395 425 183
f 393 423 394
f 393 398 423
f 405 448 794
f 448 803 794
f 811 861 810
f 596 595 103
f 595 32 103
f 103 32 94
f 949 596 33
f 596 103 33
f 102 101 33
f 33 94 102
f 33 103 94
f 597 99 949
f 597 101 99
f 949 33 597
f 597 33 101
f 90 31 91
f 31 594 91
f 91 92 90
f 430 348 428
f 432 348 430
f 428 429 430
f 430 429 431
f 431 432 430
f 337 348 327
f 327 348 433
f 278 231 288
f 288 279 278
f 288 289 279
f 209 210 236
f 236 286 209
f 195 210 238
f 239 240 238
f 359 356 176
f 176 21 359
f 359 21 356
f 997 351 319
f 319 267 997
f 351 267 319
f 268 267 265
f 265 267 351
f 351 264 265
f 265 266 268
f 265 264 266
f 266 264 357
f 264 353 357
f 262 266 357
f 357 263 262
f 357 353 263
f 759 365 848
f 848 20 3
f 848 365 20
f 328 344 329
f 344 317 329
f 329 362 328
f 329 320 362
f 257 256 277
f 277 261 257
f 206 235 208
f 235 286 208
f 286 236 208
f 208 210 206
f 208 236 210
f 842 426 13
f 13 841 842
f 23 426 842
f 838 831 842
f 788 777 778
f 786 777 788
f 9 786 788
f 788 789 9
f 378 379 334
f 374 376 378
f 378 333 374
f 378 335 333
f 334 335 378
f 324 325 334
f 334 379 324
f 244 325 324
f 324 243 244
f 379 378 377
f 377 376 384
f 377 378 376
f 379 377 347
f 347 383 12
f 12 350 347
f 305 310 313
f 310 314 313
f 315 304 313
f 313 314 315
f 605 39 948
f 605 948 947
f 947 38 605
f 123 72 122
f 945 110 41
f 41 42 945
f 945 42 891
f 602 992 601
f 601 992 600
f 600 95 601
f 49 147 615
f 615 614 49
f 147 49 148
f 138 137 148
f 139 147 148
f 148 137 139
f 676 675 584
f 676 677 675
f 614 677 676
f 142 141 167
f 606 39 107
f 107 40 606
f 39 123 107
f 702 703 923
f 928 701 702
f 702 923 928
f 701 716 702
f 716 703 702
f 705 704 923
f 923 703 705
f 716 704 705
f 705 703 716
f 964 940 965
f 941 940 964
f 387 805 448
f 387 388 805
f 342 344 368
f 847 752 757
f 751 752 759
f 748 752 751
f 759 848 751
f 746 748 751
f 751 750 746
f 3 750 751
f 751 848 3
f 44 604 43
f 43 604 42
f 42 114 43
f 43 141 44
f 114 141 43
f 153 58 154
f 154 58 622
f 154 57 153
f 622 57 154
f 152 57 56
f 87 86 28
f 24 26 591
f 591 952 853
f 853 855 591
f 591 590 24
f 855 590 591
f 593 952 968
f 968 89 593
f 29 89 968
f 69 632 665
f 665 68 69
f 665 666 631
f 665 632 666
f 631 67 665
f 67 68 665
f 851 835 836
f 836 835 834
f 836 839 851
f 780 837 838
f 780 788 778
f 834 837 840
f 840 836 834
f 839 836 840
f 838 837 833
f 833 831 838
f 833 837 834
f 834 822 833
f 394 395 392
f 392 393 394
f 390 393 392
f 392 861 811
f 811 390 392
f 792 793 581
f 793 451 581
f 581 451 405
f 405 794 581
f 806 803 805
f 824 975 826
f 957 799 829
f 955 957 829
f 829 827 955
f 817 810 861
f 92 91 93
f 93 951 30
f 93 594 951
f 93 91 594
f 93 30 88
f 88 92 93
f 375 327 326
f 326 327 433
f 326 433 270
f 270 271 326
f 326 271 375
f 221 225 214
f 221 210 225
f 289 288 212
f 201 195 219
f 195 238 219
f 219 240 201
f 219 238 240
f 216 210 209
f 216 238 210
f 220 237 216
f 216 209 220
f 330 317 316
f 330 329 317
f 320 329 330
f 321 330 316
f 11 580 23
f 23 842 11
f 830 842 831
f 580 11 830
f 830 11 842
f 346 324 379
f 379 347 346
f 346 350 337
f 346 347 350
f 435 347 377
f 14 383 435
f 383 347 435
f 435 844 14
f 435 377 384
f 384 775 435
f 775 844 435
f 307 302 305
f 305 313 307
f 307 290 302
f 303 290 307
f 307 306 303
f 307 304 306
f 307 313 304
f 124 37 104
f 124 38 37
f 104 73 124
f 124 73 119
f 119 72 124
f 72 123 124
f 108 605 38
f 38 124 108
f 108 124 123
f 39 605 108
f 108 123 39
f 111 122 109
f 111 123 122
f 109 110 111
f 110 40 111
f 40 107 111
f 111 107 123
f 607 945 891
f 110 945 607
f 891 907 607
f 607 40 110
f 607 907 908
f 607 908 948
f 948 40 607
f 602 601 105
f 105 36 602
f 105 106 104
f 104 36 105
f 149 49 614
f 614 148 149
f 149 148 49
f 169 138 145
f 138 148 145
f 584 144 612
f 612 676 584
f 967 144 890
f 890 142 967
f 965 933 932
f 932 964 965
f 932 933 941
f 941 964 932
f 385 448 386
f 385 387 448
f 388 387 385
f 805 388 859
f 859 806 805
f 400 402 401
f 416 417 401
f 401 417 400
f 401 415 416
f 401 414 415
f 398 393 391
f 391 393 390
f 449 859 388
f 807 859 449
f 449 860 807
f 369 437 342
f 342 368 369
f 369 368 19
f 752 847 758
f 759 752 758
f 152 56 55
f 55 620 54
f 54 152 55
f 621 56 57
f 621 57 622
f 620 55 621
f 621 55 56
f 671 620 621
f 621 622 671
f 27 26 87
f 87 28 27
f 592 591 26
f 952 591 592
f 26 27 592
f 592 27 28
f 592 28 86
f 592 968 952
f 592 86 29
f 29 968 592
f 779 780 838
f 838 842 779
f 779 842 841
f 788 780 779
f 779 841 789
f 789 788 779
f 837 780 781
f 781 840 837
f 776 782 781
f 782 839 781
f 839 840 781
f 778 776 781
f 781 780 778
f 792 581 791
f 791 581 794
f 976 802 801
f 801 802 798
f 957 976 801
f 801 799 957
f 824 826 821
f 814 815 821
f 809 808 811
f 811 810 809
f 809 860 808
f 809 816 815
f 810 816 809
f 831 833 832
f 832 817 831
f 832 833 822
f 822 816 832
f 832 816 810
f 810 817 832
f 210 221 229
f 214 226 215
f 215 221 214
f 215 226 227
f 211 230 289
f 289 212 211
f 211 212 210
f 210 229 211
f 211 229 230
f 213 212 288
f 231 232 213
f 213 288 231
f 232 210 213
f 210 212 213
f 238 216 218
f 218 237 239
f 239 238 218
f 316 255 323
f 323 321 316
f 323 255 256
f 256 257 323
f 257 321 323
f 320 330 258
f 330 321 258
f 258 321 257
f 258 257 261
f 258 261 259
f 259 320 258
f 831 817 790
f 790 830 831
f 790 817 861
f 580 830 790
f 861 392 790
f 790 392 395
f 183 580 790
f 790 395 183
f 243 324 380
f 324 346 380
f 241 243 380
f 375 241 380
f 380 327 375
f 337 327 380
f 380 346 337
f 106 105 35
f 35 105 601
f 35 601 95
f 96 106 35
f 35 95 96
f 48 148 614
f 168 144 167
f 168 167 169
f 169 145 168
f 610 142 890
f 890 608 610
f 610 608 142
f 142 608 45
f 112 141 45
f 141 142 45
f 890 112 45
f 45 608 890
f 144 967 611
f 402 385 412
f 414 401 412
f 412 401 402
f 409 414 412
f 386 409 412
f 412 385 386
f 814 806 813
f 806 859 813
f 813 859 807
f 807 860 813
f 860 809 813
f 813 815 814
f 813 809 815
f 399 402 400
f 398 391 399
f 399 400 418
f 418 398 399
f 389 391 390
f 389 390 811
f 811 808 389
f 410 449 388
f 388 385 410
f 410 385 402
f 402 399 410
f 410 399 391
f 5 369 19
f 5 758 847
f 4 18 759
f 759 758 4
f 4 758 18
f 19 368 367
f 367 5 19
f 758 5 367
f 18 758 367
f 367 368 344
f 344 366 367
f 366 18 367
f 874 795 796
f 874 798 869
f 869 870 874
f 870 795 874
f 796 795 812
f 812 791 796
f 792 791 812
f 871 862 812
f 812 862 792
f 812 870 871
f 812 795 870
f 799 801 797
f 796 818 797
f 797 801 798
f 798 874 797
f 797 874 796
f 819 806 814
f 803 806 804
f 806 819 804
f 804 819 818
f 804 794 803
f 804 791 794
f 796 791 804
f 804 818 796
f 815 816 825
f 825 821 815
f 824 821 825
f 825 816 822
f 825 823 824
f 825 822 823
f 820 821 826
f 814 821 820
f 820 819 814
f 289 230 228
f 230 229 228
f 280 289 228
f 228 229 221
f 281 280 228
f 217 216 237
f 237 218 217
f 217 218 216
f 143 967 142
f 143 611 967
f 144 611 143
f 167 144 143
f 143 142 167
f 391 389 450
f 450 410 391
f 449 410 450
f 860 449 450
f 808 860 450
f 450 389 808
f 369 5 846
f 846 6 437
f 437 369 846
f 846 5 847
f 757 6 846
f 846 847 757
f 799 797 800
f 800 797 818
f 800 829 799
f 956 826 975
f 956 820 826
f 956 975 955
f 955 827 956
f 827 820 956
f 281 228 222
f 222 282 281
f 222 227 282
f 222 228 221
f 222 215 227
f 221 215 222
f 146 47 145
f 146 145 148
f 148 48 146
f 614 676 146
f 146 48 614
f 46 168 145
f 145 47 46
f 46 612 144
f 144 168 46
f 676 612 46
f 818 819 828
f 828 800 818
f 829 800 828
f 827 829 828
f 828 820 827
f 819 820 828
f 676 46 613
f 613 46 47
f 613 146 676
f 47 146 613
f 1012 1013 1015
f 1015 1011 1012
f 997 998 1015
f 1015 1014 994
f 1015 1000 1001
f 1001 1002 1015
f 1015 1007 1008
f 1008 1009 1015
f 1015 1013 1014
f 994 995 1015
f 1006 1007 1015
f 1010 1011 1015
f 1015 1009 1010
f 1004 1005 1015
f 1015 1017 1004
f 1003 1016 1015
f 1015 1005 1006
f 1015 999 1000
f 1015 995 996
f 1015 998 999
f 1015 1002 1003
f 1016 1017 1015

