# https://github.com/mikedh/trimesh
v 0.04828454 0.04729722 -0.01128094
v 0.04948333 0.04702218 -0.00990872
v 0.04960183 0.04735400 -0.01290955
v 0.05211082 0.04700341 -0.01291194
v 0.05366570 0.04593801 -0.00569561
v 0.05711710 0.04446560 -0.00106187
v 0.05646659 0.04570251 -0.00834349
v 0.05863459 0.04433465 -0.00221130
v 0.05700811 0.04548072 -0.00766556
v 0.06008228 0.04394867 -0.00339586
v 0.05443203 0.04641091 -0.01067601
v 0.04960183 -0.04769555 -0.01291002
v 0.04810601 -0.04762135 -0.01106359
v 0.04948291 -0.04736316 -0.00990886
v 0.05197533 -0.04735984 -0.01275381
v 0.05899680 -0.04460253 -0.00258193
v 0.05833102 -0.04522209 -0.00591604
v 0.05581892 -0.04529881 -0.00283162
v 0.05731675 -0.04569065 -0.00726975
v 0.05167585 -0.04683798 -0.00782201
v 0.06593809 0.03440665 0.01570945
v 0.06749386 0.03064258 0.01794304
v 0.06701273 0.03343411 0.01472366
v 0.06697367 0.02722106 0.02288781
v 0.06840581 0.02047605 0.02534331
v 0.06732925 0.02294152 0.02567069
v 0.06589264 0.02227543 0.02712289
v 0.06567591 0.02557890 0.02519875
v 0.06549825 0.02765935 0.02373397
v 0.06456805 0.03465676 0.01689202
v 0.06650187 0.03106769 0.01954608
v 0.06501024 0.03189307 0.02000876
v 0.06537856 0.02884949 0.02279621
v 0.06332919 0.03796815 0.01217481
v 0.06164751 0.04044942 0.00774318
v 0.06311240 0.04015872 0.00668453
v 0.05958888 0.04260179 0.00329977
v 0.06108662 0.04243792 0.00214977
v 0.06476542 0.03752704 0.01124563
v 0.06626324 0.03580082 0.01150350
v 0.06556742 0.03739440 0.00908021
v 0.06468235 0.03903413 0.00639215
v 0.06281286 0.04162244 0.00168703
v 0.06701291 -0.03377600 0.01472337
v 0.06712372 -0.03062358 0.01932552
v 0.06470346 -0.03233935 0.01961631
v 0.06645112 -0.03103548 0.01978191
v 0.06410186 -0.03504203 0.01636578
v 0.06586780 -0.02266868 0.02707995
v 0.06704402 -0.02643205 0.02366969
v 0.06766320 -0.02606311 0.02313416
v 0.06744773 -0.03131835 0.01759086
v 0.06760632 -0.03013541 0.01879696
v 0.06783934 -0.02818806 0.02056094
v 0.06815261 -0.02481321 0.02307698
v 0.06804271 -0.02074146 0.02622067
v 0.06745605 -0.02103177 0.02682406
v 0.06557604 -0.02615214 0.02497933
v 0.06486093 -0.03144014 0.02055671
v 0.06838454 -0.02122365 0.02514311
v 0.06815510 -0.01845459 0.02719433
v 0.06757347 -0.01870182 0.02781797
v 0.06793667 -0.01177929 0.02970511
v 0.06639951 -0.01192869 0.03074964
v 0.06607137 -0.01894962 0.02876967
v 0.05731164 -0.04446337 -0.00057618
v 0.05691523 -0.04470582 -0.00120502
v 0.06079242 -0.04299189 0.00179399
v 0.06176944 -0.04303466 -0.00048903
v 0.06614717 -0.03445297 0.01538623
v 0.06095068 -0.04113312 0.00663425
v 0.06280293 -0.04086427 0.00576769
v 0.06270646 -0.04084504 0.00595243
v 0.06567833 -0.03750288 0.00944594
v 0.06446406 -0.03793167 0.01098473
v 0.06326582 -0.03723964 0.01323033
v 0.06474792 -0.03496625 0.01607926
v 0.06521790 -0.03758514 0.01051898
v 0.06626712 -0.03612933 0.01152218
v 0.06672584 -0.03481769 0.01336437
v 0.06838009 0.01367002 0.02853546
v 0.06910698 0.00444518 0.02887930
v 0.06908368 0.00543621 0.02882585
v 0.06876320 0.00446771 0.02974570
v 0.06906228 0.00621955 0.02877409
v 0.06886104 0.01120129 0.02821069
v 0.06915325 0.00119846 0.02897296
v 0.06865626 -0.00017129 0.03014087
v 0.06660412 0.00541964 0.03160495
v 0.06666210 -0.00017101 0.03184425
v 0.06776738 -0.00017114 0.03113675
v 0.06819269 0.00451877 0.03052405
v 0.06804318 0.00919394 0.03006116
v 0.06644081 0.01064133 0.03092509
v 0.06780431 0.01381503 0.02921143
v 0.06622897 0.01503777 0.02994517
v 0.06757955 0.01831299 0.02783214
v 0.06815942 0.01809424 0.02719747
v 0.06861538 0.00909944 0.02933129
v 0.06893151 0.01456639 0.02657471
v 0.06869400 0.01432027 0.02758622
v 0.06787681 0.02750331 0.02084626
v 0.06853078 0.01783668 0.02648679
v 0.06880218 0.02158696 0.02304362
v 0.06818323 0.02406337 0.02334300
v 0.06867578 0.03071925 0.01328314
v 0.06895751 0.02508710 0.01934469
v 0.06917374 0.01990959 0.02270743
v 0.06902850 0.01688655 0.02510766
v 0.06891436 0.02817308 0.01599309
v 0.06985430 0.02676026 0.01358749
v 0.06957126 0.02488450 0.01688798
v 0.06934863 0.02257590 0.01996073
v 0.07064649 0.02923108 0.00627374
v 0.07088036 0.02953364 0.00449522
v 0.06730705 0.03642679 0.00573415
v 0.06481467 0.03913211 0.00560677
v 0.07030576 0.03402686 -0.00335595
v 0.07260206 0.03308709 -0.02162390
v 0.06984951 0.03782172 -0.02166449
v 0.06627547 0.04159033 -0.02178011
v 0.06143136 0.04460029 -0.02200253
v 0.06309286 0.04229476 -0.00364829
v 0.07207943 0.02961983 -0.00334732
v 0.07177271 0.03055577 -0.00340414
v 0.07277074 0.02892707 -0.00717046
v 0.07376325 0.02744553 -0.01256495
v 0.07350250 0.02777575 -0.01084372
v 0.07426650 0.02615902 -0.01438577
v 0.07452089 0.02774246 -0.02164451
v 0.07469213 0.02507222 -0.01625983
v 0.07502568 0.02411966 -0.01769025
v 0.07575711 0.02166246 -0.02071946
v 0.07577458 0.02209598 -0.02169874
v 0.07600299 0.02070137 -0.02171331
v 0.07040942 0.02877213 0.00822369
v 0.07057975 0.02981982 0.00565856
v 0.06591702 0.03999364 -0.00348306
v 0.06835881 0.03721425 -0.00337883
v 0.06921478 0.03327889 0.00574608
v 0.07145467 0.02982767 0.00052850
v 0.06710263 0.04166913 -0.03637598
v 0.07054001 0.03799855 -0.03260650
v 0.07197974 0.03674017 -0.04237145
v 0.07542145 0.02800797 -0.03253968
v 0.07650802 0.02676479 -0.04328710
v 0.07341840 0.03329540 -0.03254429
v 0.07373847 0.03388184 -0.04273535
v 0.07671584 0.02242212 -0.03257035
v 0.07750170 0.02233272 -0.04347134
v 0.07827369 0.01694394 -0.04360374
v 0.07876345 -0.00017028 -0.03766192
v 0.07801942 0.01102229 -0.03266026
v 0.07819521 -0.00017068 -0.03033323
v 0.07002251 -0.02789197 0.01182267
v 0.06891436 -0.02851494 0.01599280
v 0.06880217 -0.02192888 0.02304339
v 0.06895752 -0.02542898 0.01934445
v 0.06925674 -0.02163614 0.02136934
v 0.06853072 -0.01817863 0.02648659
v 0.06910025 -0.01881886 0.02392302
v 0.06970494 -0.02621974 0.01526365
v 0.06886102 -0.01154326 0.02821058
v 0.06910695 -0.00478783 0.02887923
v 0.06915348 -0.00150561 0.02897337
v 0.06915788 -0.00057247 0.02898025
v 0.06915858 -0.00017099 0.02898054
v 0.06906068 -0.00661615 0.02877011
v 0.06873504 -0.00596670 0.02967311
v 0.06660420 -0.00575705 0.03160531
v 0.06816415 -0.00602794 0.03044112
v 0.06851023 -0.01166540 0.02900123
v 0.06643797 -0.01105978 0.03091126
v 0.07801941 -0.01136365 -0.03266038
v 0.07883999 -0.01083484 -0.04370432
v 0.07832009 -0.01686900 -0.04360953
v 0.07753536 -0.02249499 -0.04347690
v 0.07542145 -0.02834933 -0.03253997
v 0.07530566 -0.03077808 -0.04305222
v 0.07054000 -0.03833991 -0.03260688
v 0.07206006 -0.03696984 -0.04239080
v 0.07412428 -0.03347496 -0.04281427
v 0.06777276 -0.04161303 -0.04148125
v 0.07005628 -0.03945949 -0.04197104
v 0.06984951 -0.03816319 -0.02166488
v 0.06889543 -0.03936164 -0.02169050
v 0.06715095 -0.04200529 -0.03742729
v 0.07341840 -0.03363675 -0.03254464
v 0.07260206 -0.03342856 -0.02162423
v 0.07916136 -0.00017083 -0.04377144
v 0.07891919 -0.00948744 -0.04371963
v 0.07761420 -0.01150329 -0.02807064
v 0.07691897 -0.01659409 -0.02534644
v 0.07671585 -0.02276347 -0.03257059
v 0.07600299 -0.02104283 -0.02171353
v 0.07305100 -0.02887528 -0.00861581
v 0.07233202 -0.02975731 -0.00479434
v 0.07426316 -0.02896841 -0.02163842
v 0.07456378 -0.02575613 -0.01570107
v 0.07376325 -0.02778709 -0.01256523
v 0.07261273 -0.03136664 -0.01251302
v 0.07193036 -0.03481139 -0.02162839
v 0.07109571 -0.03479787 -0.01249802
v 0.06309287 -0.04263641 -0.00364873
v 0.06143136 -0.04494175 -0.02200300
v 0.06008236 -0.04429054 -0.00339630
v 0.06348811 -0.04113892 0.00325756
v 0.06414235 -0.04022638 0.00491394
v 0.06481468 -0.03947386 0.00560638
v 0.06851815 -0.03136247 0.01343234
v 0.07089765 -0.02989284 0.00436808
v 0.07057975 -0.03016157 0.00565825
v 0.07042354 -0.02914636 0.00810239
v 0.06983205 -0.02842274 0.01205455
v 0.06921479 -0.03362064 0.00574573
v 0.07145467 -0.03016936 0.00052820
v 0.07177271 -0.03089743 -0.00340445
v 0.07168234 -0.03014829 -0.00093155
v 0.06835882 -0.03755589 -0.00337923
v 0.06591701 -0.04033530 -0.00348346
v 0.06730705 -0.03676852 0.00573379
v 0.07380417 -0.02752902 -0.01227396
v 0.07353262 -0.02806149 -0.01098880
v 0.07030577 -0.03436853 -0.00335632
v 0.06950784 0.00345977 0.02675603
v 0.06925192 -0.00017099 0.02852219
v 0.06937460 0.00827711 0.02678709
v 0.06914756 0.00860156 0.02783221
v 0.06928778 0.00419495 0.02803670
v 0.06961209 0.01044973 0.02482536
v 0.06970622 0.01367363 0.02318188
v 0.06975707 0.01498346 0.02234719
v 0.06954716 0.00701955 0.02602514
v 0.06990444 0.01783543 0.02011970
v 0.07064156 0.02419481 0.01163375
v 0.07002252 0.02755017 0.01182293
v 0.07034688 0.02252690 0.01462415
v 0.07009766 0.02036520 0.01753023
v 0.07161636 0.02657153 0.00372243
v 0.07134324 0.02621644 0.00572045
v 0.07114638 0.02583742 0.00725106
v 0.07074628 0.02463901 0.01065297
v 0.07578728 0.02058096 -0.01961515
v 0.07242993 0.02932076 -0.00533794
v 0.07207874 0.02682259 0.00059548
v 0.07274080 0.02788550 -0.00501490
v 0.07482523 0.02382292 -0.01542041
v 0.07579555 0.01932111 -0.01868187
v 0.07516669 0.02165199 -0.01589810
v 0.07487851 0.02255470 -0.01457899
v 0.07450629 0.02358722 -0.01282765
v 0.07393428 0.02490241 -0.01001580
v 0.07327873 0.02601644 -0.00657176
v 0.07376242 0.02636405 -0.01040156
v 0.07294533 0.02641477 -0.00470851
v 0.07265561 0.02665962 -0.00301538
v 0.07780846 -0.00017071 -0.02699913
v 0.07776281 0.00299741 -0.02681244
v 0.07804670 0.00561416 -0.02976042
v 0.07768553 0.00498865 -0.02650155
v 0.07759921 0.00652745 -0.02615494
v 0.07731996 0.00994746 -0.02503142
v 0.07761420 0.01116189 -0.02807052
v 0.07699829 0.01271112 -0.02372767
v 0.07673622 0.01451798 -0.02265370
v 0.07597694 0.01853709 -0.01946695
v 0.07652757 0.01577127 -0.02178987
v 0.07691898 0.01625266 -0.02534626
v 0.07108739 -0.02604153 0.00772661
v 0.07134327 -0.02655796 0.00572013
v 0.07064649 -0.02957283 0.00627346
v 0.07155029 -0.02684320 0.00419362
v 0.07207876 -0.02716417 0.00059520
v 0.07074634 -0.02498052 0.01065261
v 0.06902850 -0.01722848 0.02510749
v 0.06979737 -0.01620851 0.02172172
v 0.07041761 -0.02333754 0.01386858
v 0.07015356 -0.02127559 0.01684107
v 0.06945414 -0.02413355 0.01844295
v 0.06994764 -0.01883544 0.01951003
v 0.06975710 -0.01532526 0.02234687
v 0.06964806 -0.01218416 0.02418234
v 0.06937460 -0.00861908 0.02678699
v 0.06908359 -0.00578213 0.02882554
v 0.06914736 -0.00894380 0.02783296
v 0.06890363 -0.01398942 0.02707541
v 0.06952131 -0.00531966 0.02650558
v 0.06949706 -0.00172852 0.02695549
v 0.06949418 -0.00017098 0.02700022
v 0.06957141 -0.00883326 0.02557296
v 0.06928777 -0.00453692 0.02803665
v 0.07341390 0.01080169 0.00010881
v 0.07281376 0.01997138 0.00032735
v 0.07645901 -0.01649613 -0.02150427
v 0.07693656 -0.01350638 -0.02347580
v 0.07731997 -0.01028891 -0.02503152
v 0.07804669 -0.00595555 -0.02976050
v 0.07775044 -0.00373535 -0.02676267
v 0.07274082 -0.02822713 -0.00501517
v 0.07578729 -0.02092244 -0.01961535
v 0.07530086 -0.02360033 -0.01884575
v 0.07482522 -0.02416444 -0.01542065
v 0.07376242 -0.02670561 -0.01040184
v 0.07225143 -0.02716562 -0.00051857
v 0.07536548 -0.02131361 -0.01679153
v 0.07471459 -0.02336877 -0.01381492
v 0.07404769 -0.02500857 -0.01058648
v 0.07348474 -0.02605381 -0.00768332
v 0.07294532 -0.02675632 -0.00470876
v 0.07298333 -0.01826873 0.00026541
v 0.07349274 -0.00915417 0.00008000
v 0.07328090 -0.01380589 0.00015710
v 0.07284644 -0.02685094 -0.00413918
v 0.07597694 -0.01887859 -0.01946716
v 0.07757494 -0.00723873 -0.02605748
v 0.07768553 -0.00533007 -0.02650161
v 0.07673622 -0.01485945 -0.02265387
v 0.07328167 -0.01379215 0.00015684
v 0.02535917 -0.04495103 -0.12389553
v 0.03087368 -0.04468501 -0.12389641
v 0.05236800 -0.04212165 -0.12389986
v 0.05906998 -0.04056462 -0.12390094
v 0.06732472 -0.03640036 -0.12390223
v 0.06907383 -0.03482919 -0.12390251
v 0.07061611 -0.03305399 -0.12390275
v 0.07539625 0.02126667 -0.12390317
v 0.06163712 0.03930156 -0.12390085
v 0.05584285 0.04109374 -0.12389991
v 0.07288759 -0.02932139 -0.12390310
v 0.07464132 -0.02465915 -0.12390335
v 0.07184740 0.03090567 -0.12390254
v 0.04787638 0.04239256 -0.12389860
v 0.07589796 -0.01886382 -0.12390351
v 0.03087368 0.04434354 -0.12389585
v 0.07669164 -0.01160216 -0.12390360
v 0.07703114 -0.00017045 -0.12390357
v 0.07640316 0.01463794 -0.12390339
v 0.03495792 0.04802272 -0.01157138
v 0.04332018 0.04792324 -0.01436247
v 0.04698306 0.04746296 -0.01193133
v 0.04810600 0.04727978 -0.01106309
v 0.03120350 0.04481473 -0.12340313
v 0.02535917 0.04460956 -0.12389495
v 0.02982546 0.04495212 -0.12340065
v 0.06059832 0.04023201 -0.12345593
v 0.07694608 0.00595109 -0.12390353
v 0.07752185 0.00117269 -0.12347908
v 0.07723214 0.01057026 -0.12347741
v 0.07746173 0.00520173 -0.12347827
v 0.07751052 0.00251581 -0.12347909
v 0.07651673 0.01775235 -0.12347417
v 0.07594208 0.02107373 -0.12347405
v 0.07306391 0.02973984 -0.12347033
v 0.07346951 0.02891042 -0.12347063
v 0.07392637 0.02651120 -0.12390291
v 0.07439123 0.02668103 -0.12347271
v 0.06922053 0.03433681 -0.12390210
v 0.06993998 0.03429552 -0.12346539
v 0.07147171 0.03238383 -0.12346985
v 0.07227058 0.03116220 -0.12347044
v 0.06648572 0.03729135 -0.12346224
v 0.06568426 0.03722704 -0.12390152
v 0.06391608 0.03880934 -0.12345787
v 0.06595252 0.03764496 -0.12346112
v 0.04956539 0.04269384 -0.12344863
v 0.05337823 0.04210877 -0.12344962
v 0.05036695 -0.04292880 -0.12344976
v 0.05245006 -0.04261212 -0.12345028
v 0.05566061 -0.04198751 -0.12345111
v 0.05907287 -0.04108340 -0.12345562
v 0.06267811 -0.03974000 -0.12345725
v 0.06348842 -0.03880874 -0.12390164
v 0.06371006 -0.03925439 -0.12345813
v 0.06579659 -0.03808561 -0.12346128
v 0.07091500 -0.03347756 -0.12346856
v 0.06994016 -0.03463677 -0.12346583
v 0.07277577 -0.03062581 -0.12347071
v 0.07115438 -0.03316302 -0.12346938
v 0.07401653 -0.02799513 -0.12347205
v 0.07512504 -0.02476572 -0.12347441
v 0.07596920 -0.02128152 -0.12347428
v 0.07675993 -0.01624057 -0.12347627
v 0.07638838 -0.01894152 -0.12347388
v 0.07612505 -0.02047616 -0.12347401
v 0.07752550 -0.00017046 -0.12347879
v 0.07752191 -0.00150377 -0.12347911
v 0.07751075 -0.00283699 -0.12347914
v 0.07746276 -0.00550267 -0.12347837
v 0.03093115 -0.04518669 -0.12340289
v 0.02766873 -0.04542383 -0.12340137
v 0.03663370 -0.04872943 -0.01756035
v 0.03495793 -0.04836429 -0.01157184
v 0.04079364 -0.04848783 -0.01573644
v 0.04460850 -0.04812371 -0.01357221
v 0.03497716 -0.04762154 -0.00500316
v 0.03497116 -0.04643778 0.00214233
v 0.05448485 -0.04589725 -0.00461741
v 0.03495943 -0.04521192 0.00763388
v 0.03495629 -0.04481145 0.00916833
v 0.05924166 -0.04300625 0.00286555
v 0.03494829 -0.04311832 0.01470358
v 0.02571217 -0.04545285 -0.12339608
v 0.06174437 -0.04520797 -0.04012634
v 0.06581319 -0.04290070 -0.06135001
v 0.03431490 -0.04911655 -0.03675843
v 0.03376760 -0.04907939 -0.04398788
v 0.03591152 -0.04906746 -0.04509316
v 0.03070083 -0.04869803 -0.05897056
v 0.02961690 -0.04859026 -0.06125973
v 0.02818226 -0.04846433 -0.06340591
v 0.02724005 -0.04838277 -0.06456334
v 0.03593455 -0.04769462 -0.07896036
v 0.02591673 -0.04823041 -0.06690528
v 0.02544424 -0.04808651 -0.06960085
v 0.03351435 -0.04905233 -0.04634321
v 0.03593761 -0.04880297 -0.05638524
v 0.03283913 -0.04895848 -0.05103348
v 0.03181301 -0.04882421 -0.05566186
v 0.04156195 -0.04857424 -0.05729956
v 0.04663521 -0.04855244 -0.03678416
v 0.04714681 -0.04808713 -0.05821988
v 0.05267322 -0.04728503 -0.05914131
v 0.05279175 -0.04767815 -0.03812830
v 0.05810611 -0.04607071 -0.06005665
v 0.06334457 -0.04420195 -0.06094109
v 0.06058467 -0.04566390 -0.03986570
v 0.06731892 -0.04197429 -0.04138263
v 0.06454591 -0.04383054 -0.04075718
v 0.07110423 -0.03824334 -0.04219170
v 0.07024079 -0.03948933 -0.06205738
v 0.07211820 -0.03739944 -0.06234555
v 0.07373687 -0.03509755 -0.06258901
v 0.07380658 -0.03409714 -0.04274967
v 0.07655531 -0.02693386 -0.04329730
v 0.07711665 -0.02738212 -0.06308186
v 0.08016039 -0.00017001 -0.07603986
v 0.07998945 -0.00017031 -0.06346256
v 0.07966734 -0.01078781 -0.06341160
v 0.07941736 -0.00016986 -0.10407665
v 0.07852328 -0.00017013 -0.11542511
v 0.07839896 -0.01025151 -0.11392791
v 0.07723757 -0.01082481 -0.12347752
v 0.07718695 -0.02077558 -0.11389632
v 0.07333450 -0.02953674 -0.12347086
v 0.07591715 -0.02592503 -0.11386586
v 0.06665426 -0.03751616 -0.12346308
v 0.07087918 -0.03520117 -0.11374059
v 0.06894088 -0.03565570 -0.12346528
v 0.05218382 -0.04462282 -0.10241953
v 0.06210884 -0.04109257 -0.11350840
v 0.06684443 -0.03865920 -0.11363743
v 0.04677654 -0.04532656 -0.10211384
v 0.08000083 -0.00016981 -0.09012634
v 0.07981075 -0.01063087 -0.08363253
v 0.07839486 -0.02191461 -0.06325093
v 0.07932787 -0.01611904 -0.08358851
v 0.07852740 -0.02157707 -0.08352425
v 0.07722586 -0.02694757 -0.08341118
v 0.07517315 -0.03209050 -0.08321681
v 0.07509632 -0.03263110 -0.06279036
v 0.07378900 -0.03449594 -0.08308273
v 0.07213991 -0.03672878 -0.08292069
v 0.07022978 -0.03874147 -0.08272900
v 0.06808607 -0.04050026 -0.08250761
v 0.06812662 -0.04132963 -0.06172445
v 0.06327149 -0.04322714 -0.08198696
v 0.05803528 -0.04501706 -0.08139929
v 0.05261488 -0.04618796 -0.08079118
v 0.04710446 -0.04696225 -0.08017907
v 0.04472251 -0.04873243 -0.03637161
v 0.03955975 -0.04903735 -0.03526987
v 0.07389788 -0.03083339 -0.11381556
v 0.07317105 -0.03361902 -0.10356499
v 0.07914194 -0.01039202 -0.10384714
v 0.07868023 -0.01574860 -0.10382351
v 0.07789171 -0.02107157 -0.10378961
v 0.07660034 -0.02630210 -0.10373131
v 0.07455645 -0.03129604 -0.10363263
v 0.07151692 -0.03576136 -0.10348350
v 0.06960133 -0.03767540 -0.10338736
v 0.06745730 -0.03933125 -0.10327654
v 0.06267437 -0.04186983 -0.10301639
v 0.05701901 -0.04268898 -0.11336322
v 0.05751225 -0.04353811 -0.10272308
v 0.03466728 -0.04904915 -0.02865994
v 0.03446481 -0.04910029 -0.03386366
v 0.03444924 -0.04910221 -0.03419678
v 0.03480624 -0.04895098 -0.02345619
v 0.04257225 -0.04870116 -0.02300895
v 0.04456205 -0.04872541 -0.03260094
v 0.04408111 -0.04859421 -0.02292587
v 0.05412840 -0.04739600 -0.03215567
v 0.05803859 -0.04623989 -0.02217482
v 0.06466628 -0.04356692 -0.03167025
v 0.06031155 -0.04568105 -0.03186899
v 0.05976062 -0.04564232 -0.02208652
v 0.06627546 -0.04193179 -0.02178053
v 0.06438842 -0.04331499 -0.02186270
v 0.06486646 -0.04357921 -0.03647281
v 0.06049011 -0.04567880 -0.03666877
v 0.05797723 -0.04649469 -0.03928034
v 0.04891551 -0.04810223 -0.02266356
v 0.05430325 -0.04738198 -0.03695738
v 0.03489711 -0.04879000 -0.01818388
v 0.03486579 -0.04885456 -0.02029885
v 0.03494667 -0.04168125 0.01853250
v 0.02566689 -0.04818265 -0.06773960
v 0.02675370 -0.04833713 -0.06522793
v 0.02535639 -0.04545100 -0.12339166
v 0.04229121 -0.04854351 -0.01746156
v 0.04203293 -0.04852710 -0.01698536
v 0.04368021 -0.04852745 -0.01874393
v 0.05060938 -0.04764132 -0.01417443
v 0.04322441 -0.04843052 -0.01634252
v 0.04348261 -0.04844731 -0.01681872
v 0.03941053 -0.04879775 -0.02075659
v 0.04769136 -0.04809830 -0.01632910
v 0.05211088 -0.04734532 -0.01291242
v 0.05489691 -0.04660911 -0.01017513
v 0.05447921 -0.04690425 -0.01296029
v 0.05780815 -0.04598874 -0.01278071
v 0.06082542 -0.04477157 -0.01262934
v 0.05436883 -0.04719642 -0.02237034
v 0.06607138 0.01860764 0.02876988
v 0.03494707 0.02672995 0.03855669
v 0.03494708 0.02599493 0.03909278
v 0.03494713 0.02261944 0.04121919
v 0.03494718 0.01865574 0.04311823
v 0.03494705 0.02791765 0.03762867
v 0.03494700 0.02980921 0.03598068
v 0.03494686 0.03518989 0.02984083
v 0.03494693 0.03262619 0.03307161
v 0.03891981 0.04847693 -0.02095588
v 0.04229119 0.04820200 -0.01746102
v 0.04203293 0.04818558 -0.01698488
v 0.04348260 0.04810580 -0.01681821
v 0.04701019 0.04784401 -0.01677993
v 0.04322442 0.04808899 -0.01634203
v 0.03489711 0.04844887 -0.01818336
v 0.03927575 0.04825127 -0.01645970
v 0.04311151 0.04823190 -0.01904190
v 0.03480624 0.04860990 -0.02345568
v 0.05060938 0.04729977 -0.01417395
v 0.04933531 0.04770621 -0.02264049
v 0.04408111 0.04825276 -0.02292540
v 0.05976064 0.04530086 -0.02208642
v 0.05834205 0.04580122 -0.02215941
v 0.05438966 0.04685050 -0.02236831
v 0.05448385 0.04656499 -0.01301557
v 0.05781244 0.04564924 -0.01283605
v 0.06082944 0.04443196 -0.01268469
v 0.03446481 0.04875896 -0.03386319
v 0.03466728 0.04870774 -0.02865943
v 0.03962918 0.04869175 -0.03528430
v 0.05412840 0.04705464 -0.03215518
v 0.04456205 0.04838406 -0.03260044
v 0.04652025 0.04822118 -0.03675910
v 0.06049012 0.04533748 -0.03666833
v 0.06142992 0.04499395 -0.04005567
v 0.06441937 0.04356004 -0.04073117
v 0.06358925 0.04346998 -0.02189898
v 0.06466642 0.04322549 -0.03166980
v 0.06031155 0.04533968 -0.03186851
v 0.04260803 0.04835741 -0.02300650
v 0.06649976 0.04163497 -0.02526123
v 0.06486659 0.04323781 -0.03647233
v 0.05430325 0.04704067 -0.03695689
v 0.05252345 0.04738390 -0.03806866
v 0.05749234 0.04628649 -0.03916834
v 0.03494664 -0.04090756 0.02034927
v 0.03494671 -0.03926682 0.02375269
v 0.03494677 -0.03796235 0.02610521
v 0.03494681 -0.03685595 0.02789906
v 0.03494690 -0.03417335 0.03163083
v 0.03494698 -0.03119386 0.03497226
v 0.06518468 -0.02937855 0.02248831
v 0.03494705 -0.02790218 0.03791604
v 0.03494711 -0.02463939 0.04022721
v 0.03494715 -0.02111906 0.04217511
v 0.03494718 -0.01899766 0.04311799
v 0.02535557 0.04460953 -0.12389496
v 0.02544424 0.04774538 -0.06960033
v 0.02623495 0.04793483 -0.06614552
v 0.02548800 0.04778565 -0.06877772
v 0.03250351 0.04857042 -0.05279179
v 0.03376760 0.04873818 -0.04398738
v 0.03308528 0.04865073 -0.04953267
v 0.03161633 0.04845838 -0.05634308
v 0.03052131 0.04833714 -0.05940092
v 0.02936444 0.04822478 -0.06169927
v 0.02818228 0.04812225 -0.06340539
v 0.02754603 0.04806844 -0.06418697
v 0.02724006 0.04804153 -0.06456283
v 0.03444925 0.04876075 -0.03419628
v 0.03431490 0.04877420 -0.03675793
v 0.03497716 0.04728027 -0.00500269
v 0.03497116 0.04609711 0.00214330
v 0.03495629 0.04446500 0.00916752
v 0.03494819 0.04272600 0.01483954
v 0.03494663 0.04057502 0.02032866
v 0.03494663 0.04056634 0.02034970
v 0.03494721 0.01436419 0.04457954
v 0.03494722 0.01231900 0.04510363
v 0.03494724 0.00974660 0.04562965
v 0.03494725 0.00487325 0.04626811
v 0.03494726 -0.00017098 0.04648477
v 0.03494726 -0.00469253 0.04631081
v 0.03494724 -0.00905610 0.04580242
v 0.03494722 -0.01324085 0.04496498
v 0.03494674 0.03849142 0.02456593
v 0.03494683 0.03612597 0.02849018
v 0.03494719 -0.01722310 0.04378744
v 0.05069523 0.00530426 0.03895982
v 0.06636612 0.01228556 0.03060855
v 0.05070701 0.01230236 0.03783292
v 0.05069525 -0.00564611 0.03895976
v 0.05070704 -0.01264421 0.03783282
v 0.02535639 0.04511005 -0.12339107
v 0.06327128 0.04288539 -0.08198568
v 0.05803509 0.04467528 -0.08139798
v 0.07990225 -0.00017040 -0.06029854
v 0.04646255 0.04403545 -0.11306067
v 0.03591145 0.04872521 -0.04509149
v 0.03593754 0.04846086 -0.05638368
v 0.02590070 0.04788571 -0.06694972
v 0.03593449 0.04735276 -0.07895900
v 0.04677642 0.04498494 -0.10211270
v 0.05712036 0.04129436 -0.12345272
v 0.05177545 0.04337803 -0.11321202
v 0.06210864 0.04075113 -0.11350741
v 0.07087900 0.03485985 -0.11373968
v 0.06956925 0.03469145 -0.12346493
v 0.06877025 0.03547382 -0.12346488
v 0.06684424 0.03831781 -0.11363648
v 0.07389775 0.03049216 -0.11381472
v 0.07486761 0.02527820 -0.12347375
v 0.07591707 0.02558384 -0.11386507
v 0.07718693 0.02043444 -0.11389559
v 0.07714710 0.01181807 -0.12347782
v 0.07966728 0.01044627 -0.06341054
v 0.07839477 0.02157297 -0.06324975
v 0.07890105 0.00947940 -0.04371590
v 0.07879842 0.01111354 -0.04369650
v 0.07761499 0.02168421 -0.04349050
v 0.07711652 0.02704044 -0.06308062
v 0.07509615 0.03228936 -0.06278905
v 0.07523969 0.03060723 -0.04303786
v 0.07373668 0.03475578 -0.06258767
v 0.07412332 0.03313346 -0.04281380
v 0.07211798 0.03705763 -0.06234417
v 0.07110339 0.03790147 -0.04218823
v 0.07024056 0.03914748 -0.06205599
v 0.06974020 0.03945258 -0.04190108
v 0.06812639 0.04098773 -0.06172302
v 0.06581295 0.04255877 -0.06134855
v 0.06731891 0.04163261 -0.04138219
v 0.06334433 0.04385998 -0.06093963
v 0.05267305 0.04694298 -0.05913978
v 0.04156184 0.04823214 -0.05729800
v 0.04472237 0.04838964 -0.03637143
v 0.04714667 0.04774505 -0.05821834
v 0.05218368 0.04428121 -0.10241842
v 0.05701884 0.04234751 -0.11336224
v 0.05751207 0.04319654 -0.10272198
v 0.06267419 0.04152829 -0.10301531
v 0.05810589 0.04572869 -0.06005513
v 0.04710433 0.04662042 -0.08017775
v 0.06808584 0.04015858 -0.08250637
v 0.07022956 0.03839983 -0.08272777
v 0.07213971 0.03638719 -0.08291949
v 0.07378882 0.03415439 -0.08308157
v 0.07517300 0.03174898 -0.08321568
v 0.07722574 0.02660610 -0.08341011
v 0.07852732 0.02123564 -0.08352324
v 0.07932784 0.01577765 -0.08358756
v 0.07981073 0.01028951 -0.08363164
v 0.07839898 0.00991044 -0.11392728
v 0.07868021 0.01540739 -0.10382275
v 0.07455631 0.03095471 -0.10363169
v 0.07660025 0.02596083 -0.10373043
v 0.07789166 0.02073034 -0.10378878
v 0.06745709 0.03898978 -0.10327549
v 0.06960113 0.03733395 -0.10338634
v 0.07317089 0.03327766 -0.10356401
v 0.05261471 0.04584614 -0.08078986
v 0.07151674 0.03541996 -0.10348251
v 0.07914194 0.01005085 -0.10384641
v 0.06448942 0.03499921 0.01646602
v 0.04934727 -0.01753304 -0.12412407
v 0.05292291 -0.01097570 -0.12412407
v 0.05476791 -0.00373832 -0.12412407
v 0.05476791 0.00373055 -0.12412407
v 0.05292291 0.01096794 -0.12412408
v 0.04934727 0.01752528 -0.12412408
v 0.04426261 0.02299612 -0.12412407
v 0.00573989 0.02299611 -0.12412407
v 0.00065523 0.01752529 -0.12412407
v -0.00292041 0.01096793 -0.12412407
v -0.00476541 0.00373055 -0.12412407
v -0.00476541 -0.00373831 -0.12412407
v -0.00292041 -0.01097571 -0.12412407
v 0.01350614 -0.02300396 -0.12412407
v 0.00573989 -0.02300388 -0.12412407
v 0.00065523 -0.01753303 -0.12412407
v 0.04426261 -0.02300388 -0.12412407
v -0.01352107 0.02009231 -0.07310174
v -0.01702691 0.01191610 -0.07310168
v -0.01881645 0.00320178 -0.07310168
v -0.01702715 -0.01440871 -0.07310182
v -0.01352146 -0.02258500 -0.07310196
v -0.01881653 -0.00569438 -0.07310171
v 0.01267343 0.04612504 -0.08105263
v 0.01330474 0.04621307 -0.08085176
v 0.01513243 0.04644041 -0.08047650
v 0.01690251 0.04662183 -0.08038252
v 0.01885219 0.04678748 -0.08038308
v 0.02102547 0.04693928 -0.08038277
v 0.02435510 0.04508689 -0.12338971
v 0.02291950 0.04501811 -0.12339246
v 0.02435435 0.04458667 -0.12389344
v 0.02189039 0.04443877 -0.12389440
v 0.01929905 0.04413538 -0.12389399
v 0.02118885 0.04487434 -0.12339607
v -0.02631885 -0.00017000 -0.12333451
v -0.02573137 0.00613274 -0.12388697
v -0.02622802 0.00615099 -0.12333474
v 0.00253954 0.04178639 -0.12389131
v 0.00232638 0.04226068 -0.12343027
v -0.00370856 0.04070194 -0.12389032
v -0.00768738 0.04016466 -0.12341535
v -0.00451546 0.04102904 -0.12342147
v -0.01152713 0.03870695 -0.12340473
v -0.01137777 0.03822568 -0.12388911
v -0.01146760 0.03873407 -0.12340479
v -0.01134837 0.03878793 -0.12340494
v -0.00783252 0.03959462 -0.12388966
v -0.01146149 0.03818699 -0.12388910
v -0.01295486 0.03800216 -0.12340003
v -0.01440032 0.03716553 -0.12339440
v -0.01398044 0.03683809 -0.12388869
v -0.01413385 0.03674254 -0.12388868
v -0.01564359 0.03632282 -0.12339819
v -0.01628382 0.03519992 -0.12388833
v -0.01698503 0.03525364 -0.12338606
v -0.01789239 0.03369415 -0.12388809
v -0.01854615 0.03373348 -0.12336865
v -0.01994323 0.03203010 -0.12336150
v -0.01933123 0.03200700 -0.12388786
v -0.02088497 0.03062911 -0.12336192
v -0.02070734 0.02996037 -0.12388765
v -0.02199396 0.02861085 -0.12335919
v -0.02133322 0.02882434 -0.12388755
v -0.02244681 0.02763460 -0.12335577
v -0.02185203 0.02775114 -0.12388749
v -0.02338664 0.02521013 -0.12334613
v -0.02393991 0.02343364 -0.12334178
v -0.02283588 0.02527715 -0.12388733
v -0.02334464 0.02369043 -0.12388726
v -0.02379104 0.02206001 -0.12388720
v -0.02418487 0.02253406 -0.12334114
v -0.02430001 0.02208214 -0.12334140
v -0.02435582 0.02185570 -0.12334171
v -0.02389304 0.02164997 -0.12388718
v -0.02438330 0.02174238 -0.12334193
v -0.02439693 0.02168570 -0.12334203
v -0.02440371 0.02165734 -0.12334210
v -0.02391800 0.02154733 -0.12388717
v -0.02440710 0.02164317 -0.12334213
v -0.02440879 0.02163607 -0.12334214
v -0.02392575 0.02151524 -0.12388718
v -0.02441027 0.02162988 -0.12334216
v -0.02440964 0.02163253 -0.12334216
v -0.02473532 0.02016333 -0.12334069
v -0.02504013 0.01856080 -0.12333935
v -0.02395643 0.02138569 -0.12388717
v -0.02454998 0.01847482 -0.12388709
v -0.02479870 0.01693936 -0.12388706
v -0.02527938 0.01709393 -0.12333743
v -0.02550182 0.01550035 -0.12333710
v -0.02501291 0.01539949 -0.12388704
v -0.02516124 0.01416564 -0.12388701
v -0.02560125 0.01469193 -0.12333712
v -0.02522827 0.01354793 -0.12388702
v -0.02561183 0.00868875 -0.12388697
v -0.02566761 0.00761755 -0.12388697
v 0.01933088 -0.04498518 -0.12340053
v 0.01801316 -0.04426732 -0.12389424
v 0.00384055 -0.04279222 -0.12343216
v 0.02293299 -0.04485790 -0.12389502
v 0.02103875 -0.04519868 -0.12339685
v 0.02435434 -0.04492664 -0.12389389
v 0.02435509 -0.04542688 -0.12339018
v -0.02573137 -0.00647272 -0.12388703
v -0.02622802 -0.00649097 -0.12333482
v -0.02582208 -0.00016999 -0.12388721
v -0.02631547 -0.00165692 -0.12333445
v -0.02609992 -0.00921688 -0.12333441
v -0.02616365 -0.00801595 -0.12333382
v -0.02096797 -0.02984611 -0.12388792
v -0.02193441 -0.02907178 -0.12335984
v -0.02199255 -0.02777627 -0.12388774
v -0.02267095 -0.02745047 -0.12335388
v -0.02285577 -0.02555971 -0.12388759
v -0.02343130 -0.02373317 -0.12388749
v -0.02358033 -0.02320106 -0.12388746
v -0.02403791 -0.02342324 -0.12334160
v -0.02392614 -0.02185361 -0.12388740
v -0.02454998 -0.01881478 -0.12388729
v -0.02441048 -0.02196897 -0.12334239
v -0.02504013 -0.01890079 -0.12333956
v -0.02561830 -0.01488600 -0.12333726
v -0.02457296 -0.01868198 -0.12388729
v -0.02539050 -0.01217964 -0.12388711
v -0.02570496 -0.01410619 -0.12333724
v -0.01895066 -0.03283082 -0.12388825
v -0.01995668 -0.03235170 -0.12336181
v -0.02023615 -0.03106155 -0.12388804
v -0.02107081 -0.03066217 -0.12336226
v -0.02120889 -0.03042664 -0.12336218
v -0.01458944 -0.03679442 -0.12388898
v -0.01620128 -0.03624083 -0.12339479
v -0.01653391 -0.03532781 -0.12388866
v -0.01750510 -0.03442903 -0.12388849
v -0.01685626 -0.03570469 -0.12338791
v -0.01783799 -0.03480536 -0.12337643
v -0.01440032 -0.03750552 -0.12339477
v -0.01424856 -0.03701180 -0.12388903
v -0.01416258 -0.03706492 -0.12388905
v -0.01414104 -0.03707812 -0.12388904
v -0.01413430 -0.03708224 -0.12388904
v -0.01158659 -0.03901966 -0.12340507
v -0.01137963 -0.03856479 -0.12388949
v -0.01137777 -0.03856565 -0.12388949
v -0.01022045 -0.03960598 -0.12340795
v -0.00741750 -0.04058826 -0.12341650
v -0.00845265 -0.03972798 -0.12388997
v -0.00739302 -0.04007377 -0.12389015
v -0.00703763 -0.04018213 -0.12389021
v -0.00632393 -0.04038911 -0.12389032
v -0.00452238 -0.04136739 -0.12342188
v -0.00343700 -0.04110147 -0.12389079
v -0.00392788 -0.04150436 -0.12342241
v -0.00016479 -0.04222935 -0.12342770
v 0.00059946 -0.04184682 -0.12389144
v 0.00242541 -0.04211111 -0.12389172
v -0.01586815 0.03553624 -0.12388840
v -0.02506244 -0.00017007 -0.11272363
v -0.02315535 0.00309470 -0.09987760
v -0.02353130 -0.00017011 -0.10211340
v -0.02436445 0.00307170 -0.10777313
v -0.02541489 0.00303639 -0.11561979
v -0.02627189 0.00466467 -0.12333474
v -0.02533959 0.00624114 -0.11560488
v -0.02475044 0.00628472 -0.11106654
v -0.02428784 0.00631177 -0.10774536
v -0.02307740 0.00635773 -0.09983687
v -0.02306390 0.00438812 -0.09943802
v -0.02300729 0.00635941 -0.09940795
v 0.00784366 0.04504791 -0.09096418
v 0.00384198 0.04376547 -0.10448300
v 0.00384164 0.04293360 -0.11722723
v -0.00369284 0.04121666 -0.12342221
v -0.00371138 0.04171600 -0.11485775
v -0.01110917 0.03889395 -0.12340534
v -0.02252027 0.02406269 -0.11147300
v -0.02351359 0.01955783 -0.11129317
v -0.01410741 0.03731918 -0.11297876
v -0.01587688 0.03588469 -0.11266188
v -0.01746535 0.03424929 -0.11237783
v -0.01885307 0.03243616 -0.11212980
v -0.02102870 0.02840889 -0.11174080
v -0.02184660 0.02626943 -0.11159415
v -0.01219494 0.03854505 -0.11332216
v -0.01155687 0.03869333 -0.12340470
v -0.01157173 0.03868651 -0.12340470
v -0.01158287 0.03868138 -0.12340469
v -0.01158656 0.03867970 -0.12340467
v -0.00806284 0.04043160 -0.11406747
v -0.00965682 0.03948540 -0.12340929
v -0.01062812 0.03909948 -0.12340641
v 0.00071788 0.04257798 -0.11566789
v 0.00210709 0.04355028 -0.10286701
v 0.00657279 0.04420958 -0.10361844
v 0.01230057 0.04558609 -0.09159441
v 0.00859712 0.04545030 -0.08302706
v 0.01110662 0.04588555 -0.08172748
v -0.00249531 0.04262615 -0.08877182
v -0.00087994 0.04316551 -0.08971955
v 0.00147345 0.04384488 -0.08671632
v -0.00158578 0.04291714 -0.09588966
v 0.00343664 0.04426827 -0.09033793
v 0.00590701 0.04491522 -0.08442020
v -0.00583869 0.04145036 -0.09521945
v -0.00600482 0.04124927 -0.09058958
v -0.00553760 0.04145325 -0.09034757
v -0.01078246 0.03863673 -0.09306449
v -0.00853224 0.04000448 -0.09189877
v -0.02036352 0.02511903 -0.09803098
v -0.01953782 0.02747187 -0.09760249
v -0.02007227 0.02661593 -0.09914530
v -0.01855989 0.02968664 -0.09709522
v -0.01761375 0.03143257 -0.09660460
v -0.01716213 0.03289056 -0.09963037
v -0.01634835 0.03334121 -0.09594861
v -0.01492913 0.03507220 -0.09521306
v -0.01333865 0.03664976 -0.09438886
v -0.02072654 0.02437634 -0.09903692
v -0.02148471 0.02071885 -0.09861331
v -0.02169039 0.01981003 -0.09887822
v -0.02206794 0.01738351 -0.09891665
v -0.02281173 0.01019994 -0.09930469
v -0.02594313 0.01118206 -0.12333599
v -0.02415274 0.01501392 -0.11117630
v -0.01017126 0.03957448 -0.11368660
v -0.00659257 0.04119500 -0.10140409
v -0.00229150 0.04259013 -0.10212723
v -0.02250388 0.01387567 -0.09914380
v -0.01927796 0.02878847 -0.09927732
v -0.02003743 0.03047675 -0.11191810
v -0.01831434 0.03089239 -0.09943792
v -0.01581064 0.03474586 -0.09985653
v -0.01426080 0.03642805 -0.10011627
v -0.01253010 0.03791424 -0.10040662
v -0.00866865 0.04028062 -0.10105516
v -0.01065594 0.03919480 -0.10072130
v 0.00030289 0.04196475 -0.12342805
v 0.01929658 0.04464024 -0.12340014
v -0.00810061 -0.03984678 -0.12389003
v -0.00915293 -0.03947930 -0.12388986
v -0.01027336 -0.03904428 -0.12388968
v -0.01590311 -0.03584868 -0.12388876
v -0.02310440 -0.00017011 -0.09945962
v -0.02105444 0.02263180 -0.09838974
v -0.01279760 0.03711883 -0.09410852
v -0.02308547 -0.00341627 -0.09944954
v -0.02300730 -0.00669964 -0.09940801
v 0.00062052 -0.04394712 -0.08715850
v -0.02007227 -0.02695616 -0.09914558
v -0.02126795 -0.02206697 -0.09850088
v -0.01853348 -0.03408724 -0.12336911
v -0.01746535 -0.03458939 -0.11237818
v -0.01587688 -0.03622476 -0.11266223
v -0.01885307 -0.03277627 -0.11213014
v -0.02389773 -0.02392079 -0.12334225
v -0.02299838 -0.02662796 -0.12335042
v -0.02102870 -0.02874900 -0.11174109
v -0.02351359 -0.01989793 -0.11129337
v -0.02252028 -0.02440280 -0.11147324
v -0.02479819 -0.00662169 -0.11142065
v -0.02415274 -0.01535402 -0.11117645
v -0.02286622 -0.00966984 -0.09933335
v -0.02027602 -0.02573600 -0.09798583
v -0.00253195 -0.04295378 -0.08879123
v -0.00583868 -0.04179063 -0.09521987
v 0.00343664 -0.04460859 -0.09033839
v 0.00395018 -0.04481523 -0.08543407
v 0.00744802 -0.04557141 -0.08362261
v 0.00784367 -0.04538822 -0.09096465
v 0.01110662 -0.04622595 -0.08172796
v 0.01169802 -0.04631988 -0.08144189
v 0.01689705 -0.04696174 -0.08038298
v 0.01517553 -0.04678570 -0.08047166
v 0.01230057 -0.04592640 -0.09159488
v 0.01329708 -0.04655244 -0.08085445
v 0.02000144 -0.04721227 -0.08038335
v 0.02050294 -0.04724617 -0.08038330
v 0.01950006 -0.04717663 -0.08038350
v 0.01899881 -0.04713919 -0.08038361
v 0.01767802 -0.04703159 -0.08038497
v 0.00384248 -0.04379853 -0.10962314
v 0.00210709 -0.04389047 -0.10286745
v 0.00384199 -0.04410565 -0.10448344
v 0.00071788 -0.04291804 -0.11566832
v -0.01410741 -0.03765927 -0.11297916
v -0.01017126 -0.03991456 -0.11368700
v -0.00806283 -0.04077168 -0.11406787
v -0.02191930 -0.01868162 -0.09883948
v -0.02169039 -0.02015025 -0.09887841
v -0.02072654 -0.02471657 -0.09903716
v -0.02184660 -0.02660954 -0.11159442
v -0.01831434 -0.03123261 -0.09943825
v -0.02003743 -0.03081684 -0.11191841
v -0.01716213 -0.03323079 -0.09963072
v -0.01581064 -0.03508607 -0.09985689
v -0.01426080 -0.03676826 -0.10011663
v -0.01219494 -0.03888513 -0.11332256
v -0.01065594 -0.03953502 -0.10072171
v -0.00866865 -0.04062082 -0.10105557
v -0.00659257 -0.04153521 -0.10140451
v -0.00229150 -0.04293032 -0.10212767
v -0.00371138 -0.04205606 -0.11485817
v -0.00158579 -0.04325740 -0.09589009
v -0.00817554 -0.04053678 -0.09171441
v -0.01019866 -0.03936061 -0.09276243
v -0.01208008 -0.03803772 -0.09373715
v -0.01253009 -0.03825446 -0.10040702
v -0.01366500 -0.03669185 -0.09455834
v -0.01522653 -0.03507878 -0.09536753
v -0.01661072 -0.03331831 -0.09608495
v -0.01783781 -0.03138795 -0.09672109
v -0.01820709 -0.03071640 -0.09691259
v -0.01927796 -0.02912869 -0.09927762
v -0.01932396 -0.02834083 -0.09749182
v -0.00087994 -0.04350583 -0.08971999
v 0.00657279 -0.04454976 -0.10361888
v -0.02248213 -0.01442526 -0.09913260
v -0.02108511 -0.02284676 -0.09840591
v -0.00601694 -0.04158420 -0.09059628
v -0.00550302 -0.04180839 -0.09033009
v 0.01497197 -0.04676250 -0.08049818
f 21 22 23
f 574 575 710
f 575 574 59
f 391 504 516
f 478 477 459
f 459 477 458
f 605 708 606
f 528 707 708
f 527 707 528
f 22 21 31
f 675 676 678
f 905 611 610
f 672 680 679
f 630 363 345
f 123 10 43
f 573 574 710
f 578 49 579
f 609 612 617
f 617 608 609
f 576 577 575
f 575 59 576
f 170 608 173
f 608 617 173
f 793 798 794
f 797 798 793
f 579 580 711
f 711 580 612
f 711 612 609
f 609 608 711
f 711 608 607
f 606 708 711
f 711 607 606
f 422 467 424
f 466 467 482
f 425 424 466
f 466 424 467
f 482 467 484
f 572 571 76
f 76 573 572
f 473 462 479
f 479 462 463
f 463 465 464
f 459 432 461
f 462 473 461
f 461 478 459
f 461 473 478
f 460 432 459
f 459 458 460
f 477 478 445
f 696 698 697
f 856 911 855
f 708 910 917
f 917 911 708
f 526 707 527
f 532 530 32
f 706 707 532
f 707 530 532
f 604 603 708
f 708 605 604
f 605 613 604
f 708 603 602
f 602 528 708
f 90 170 91
f 90 605 606
f 606 607 90
f 607 170 90
f 527 528 27
f 33 31 32
f 32 530 33
f 453 676 436
f 436 454 453
f 675 678 674
f 5 598 6
f 5 597 598
f 345 363 327
f 694 696 695
f 698 696 694
f 699 698 694
f 637 679 680
f 665 682 634
f 363 630 634
f 634 630 665
f 665 620 619
f 668 682 619
f 619 682 665
f 665 630 664
f 664 620 665
f 43 10 38
f 610 611 34
f 611 688 34
f 40 21 23
f 23 116 40
f 138 123 43
f 671 670 650
f 672 679 671
f 683 682 668
f 683 634 682
f 655 654 668
f 668 619 655
f 655 619 657
f 650 670 652
f 121 138 120
f 123 138 121
f 574 573 48
f 573 76 48
f 616 170 607
f 607 608 616
f 616 608 170
f 47 576 59
f 50 576 47
f 58 50 49
f 58 576 50
f 577 576 58
f 49 578 58
f 58 578 577
f 793 794 796
f 796 851 724
f 796 847 851
f 811 950 814
f 814 950 797
f 697 698 750
f 750 748 697
f 813 797 793
f 813 814 797
f 811 814 813
f 951 950 1006
f 1006 711 951
f 798 797 949
f 797 950 949
f 949 950 951
f 949 794 798
f 849 847 949
f 949 796 794
f 847 796 949
f 947 950 811
f 932 711 708
f 951 711 936
f 936 949 951
f 710 575 709
f 575 577 709
f 577 578 709
f 709 578 579
f 579 711 709
f 321 367 320
f 835 839 840
f 449 469 452
f 452 367 449
f 390 319 320
f 419 469 421
f 468 469 449
f 449 484 468
f 468 484 467
f 468 467 422
f 422 421 468
f 468 421 469
f 488 485 516
f 485 488 959
f 423 421 422
f 420 421 423
f 426 424 425
f 491 489 490
f 502 423 492
f 420 423 502
f 491 490 502
f 502 490 420
f 391 516 510
f 186 180 185
f 219 186 185
f 220 219 221
f 497 186 220
f 186 219 220
f 497 498 494
f 494 498 205
f 404 428 425
f 464 465 404
f 404 466 464
f 425 466 404
f 430 463 462
f 465 463 430
f 640 676 675
f 621 437 640
f 436 676 640
f 640 437 436
f 478 473 472
f 472 445 478
f 479 463 480
f 480 463 464
f 476 475 457
f 457 458 476
f 476 458 477
f 477 445 476
f 457 475 456
f 456 475 454
f 454 475 474
f 474 453 454
f 439 453 474
f 662 667 685
f 685 664 662
f 620 664 685
f 658 620 685
f 727 696 729
f 729 696 736
f 697 748 745
f 745 696 697
f 745 748 746
f 581 696 721
f 695 696 581
f 581 334 695
f 708 911 858
f 858 856 708
f 911 856 858
f 850 847 849
f 851 847 850
f 29 33 529
f 529 33 530
f 529 530 707
f 531 688 611
f 579 49 65
f 65 580 579
f 612 580 65
f 615 602 603
f 24 33 29
f 31 33 24
f 438 437 621
f 438 456 454
f 438 454 436
f 436 437 438
f 435 458 457
f 435 460 458
f 234 232 267
f 23 22 106
f 149 146 145
f 645 674 673
f 673 680 672
f 681 674 678
f 678 638 681
f 680 673 681
f 681 673 674
f 681 637 680
f 638 637 681
f 352 637 638
f 542 539 533
f 533 553 542
f 601 905 610
f 610 34 601
f 35 600 601
f 601 34 35
f 897 896 598
f 598 597 897
f 598 896 599
f 6 598 599
f 909 910 708
f 708 908 909
f 707 899 898
f 666 620 658
f 657 619 666
f 666 619 620
f 547 569 548
f 657 666 559
f 559 666 569
f 895 597 596
f 328 327 695
f 345 327 328
f 635 637 356
f 679 637 635
f 359 358 631
f 359 635 360
f 355 326 693
f 363 634 364
f 633 683 631
f 634 683 633
f 8 38 10
f 10 9 8
f 8 5 6
f 35 38 37
f 6 599 37
f 37 8 6
f 38 8 37
f 37 600 35
f 37 599 600
f 41 40 116
f 116 118 139
f 139 138 116
f 139 118 120
f 120 138 139
f 670 671 684
f 684 671 679
f 679 635 684
f 684 359 631
f 635 359 684
f 669 652 670
f 669 683 668
f 668 654 669
f 654 652 669
f 46 59 574
f 574 48 46
f 46 47 59
f 55 54 158
f 213 270 155
f 156 54 53
f 156 158 54
f 45 52 53
f 53 54 45
f 47 70 45
f 50 47 45
f 44 52 45
f 45 70 44
f 795 725 699
f 795 796 724
f 793 796 795
f 784 783 699
f 699 776 775
f 724 851 852
f 852 795 724
f 852 726 725
f 725 795 852
f 737 696 740
f 748 750 749
f 699 694 700
f 694 701 700
f 700 813 793
f 700 795 699
f 793 795 700
f 702 319 703
f 703 319 789
f 689 691 690
f 693 326 692
f 692 691 693
f 336 691 692
f 335 691 336
f 333 691 335
f 335 336 388
f 388 442 335
f 382 333 335
f 335 442 382
f 977 1006 950
f 977 947 978
f 950 947 977
f 978 711 977
f 711 1006 977
f 810 947 811
f 809 806 948
f 948 947 809
f 947 810 809
f 809 810 808
f 935 936 711
f 935 932 849
f 711 932 935
f 849 949 935
f 949 936 935
f 938 1003 952
f 952 1003 709
f 939 711 978
f 939 709 711
f 978 947 939
f 789 319 791
f 843 842 841
f 841 844 843
f 841 840 839
f 842 840 841
f 839 703 841
f 841 703 844
f 788 786 843
f 787 703 789
f 789 790 787
f 787 790 786
f 325 375 376
f 389 452 469
f 469 390 389
f 367 452 389
f 389 390 320
f 320 367 389
f 505 516 504
f 504 488 505
f 505 488 516
f 955 971 958
f 973 842 843
f 843 786 973
f 970 973 786
f 965 414 967
f 414 968 967
f 967 790 965
f 968 790 967
f 507 968 414
f 492 493 523
f 493 520 523
f 523 502 492
f 493 496 521
f 521 520 493
f 492 423 503
f 422 424 503
f 503 423 422
f 487 486 405
f 471 489 516
f 471 490 489
f 516 485 471
f 485 486 471
f 486 487 471
f 471 487 405
f 405 407 471
f 471 407 419
f 518 523 520
f 511 393 391
f 391 510 511
f 516 489 512
f 512 510 516
f 512 489 491
f 12 20 14
f 396 14 20
f 395 14 396
f 994 401 995
f 999 573 710
f 938 948 980
f 983 999 981
f 971 955 990
f 954 1008 988
f 988 989 954
f 989 953 954
f 483 484 449
f 483 369 370
f 367 321 368
f 321 369 368
f 449 367 368
f 368 483 449
f 369 483 368
f 71 76 571
f 571 570 71
f 71 75 76
f 73 75 71
f 185 180 202
f 209 221 74
f 209 220 221
f 204 498 497
f 497 220 204
f 428 404 427
f 427 404 465
f 180 186 184
f 184 186 497
f 429 181 180
f 180 184 429
f 431 430 462
f 431 461 432
f 462 461 431
f 432 181 431
f 181 429 431
f 431 184 430
f 431 429 184
f 645 146 641
f 641 674 645
f 675 674 641
f 641 640 675
f 448 480 451
f 481 480 464
f 451 480 481
f 482 451 481
f 464 466 481
f 481 466 482
f 371 373 450
f 370 371 450
f 450 451 482
f 450 373 451
f 482 484 450
f 450 483 370
f 484 483 450
f 378 472 473
f 377 472 378
f 378 325 377
f 375 325 378
f 475 476 443
f 443 476 445
f 445 380 443
f 441 474 475
f 382 442 441
f 441 442 388
f 441 443 382
f 475 443 441
f 439 474 441
f 721 696 722
f 696 727 722
f 722 723 721
f 733 696 737
f 733 736 696
f 743 846 696
f 696 745 743
f 627 667 662
f 848 850 849
f 849 932 848
f 848 932 708
f 29 529 525
f 707 526 525
f 525 529 707
f 688 531 30
f 30 531 532
f 30 532 32
f 32 31 30
f 30 31 21
f 21 688 30
f 532 531 902
f 706 532 902
f 281 312 282
f 154 258 257
f 191 621 190
f 191 438 621
f 278 305 310
f 310 281 276
f 296 311 282
f 55 56 51
f 51 54 55
f 50 45 51
f 51 45 54
f 62 56 61
f 603 604 94
f 94 615 603
f 28 24 29
f 29 525 28
f 28 525 526
f 28 526 527
f 527 27 28
f 26 28 27
f 24 28 26
f 457 456 455
f 456 438 455
f 455 438 176
f 455 435 457
f 640 641 151
f 225 258 260
f 109 231 232
f 232 234 109
f 110 106 22
f 140 118 116
f 140 116 23
f 23 106 140
f 239 241 245
f 238 234 293
f 647 146 645
f 647 145 146
f 646 673 672
f 645 673 646
f 646 148 649
f 646 647 645
f 649 647 646
f 636 352 326
f 636 355 356
f 326 355 636
f 356 637 636
f 637 352 636
f 677 638 678
f 337 692 326
f 595 552 594
f 554 553 533
f 554 552 553
f 554 594 552
f 595 594 554
f 539 542 885
f 887 596 338
f 895 596 887
f 887 893 895
f 915 893 887
f 934 601 600
f 600 599 934
f 934 599 896
f 894 597 895
f 894 897 597
f 895 893 894
f 896 897 925
f 707 898 933
f 708 707 933
f 933 908 708
f 900 898 899
f 869 868 746
f 548 569 555
f 569 547 563
f 563 547 546
f 563 546 122
f 122 559 563
f 540 539 338
f 338 538 540
f 533 539 540
f 537 538 3
f 122 546 551
f 10 123 551
f 332 328 695
f 695 334 332
f 332 334 365
f 365 366 332
f 332 366 328
f 354 635 356
f 356 355 354
f 631 358 632
f 632 633 631
f 361 364 634
f 634 633 361
f 633 632 357
f 357 694 695
f 357 632 358
f 358 359 357
f 662 664 663
f 663 630 345
f 663 664 630
f 35 34 36
f 43 38 36
f 36 38 35
f 670 684 686
f 686 669 670
f 683 669 686
f 631 683 686
f 686 684 631
f 651 144 650
f 654 655 656
f 656 652 654
f 122 551 561
f 123 121 561
f 561 551 123
f 74 221 79
f 47 46 77
f 77 70 47
f 77 46 48
f 77 75 70
f 77 48 76
f 76 75 77
f 278 159 279
f 279 277 278
f 277 279 274
f 221 219 224
f 214 213 155
f 699 725 785
f 785 784 699
f 725 726 785
f 726 784 785
f 759 698 699
f 758 698 759
f 699 783 781
f 781 780 699
f 777 776 699
f 699 780 777
f 780 779 777
f 866 909 908
f 910 909 866
f 866 933 865
f 908 933 866
f 773 775 776
f 783 784 912
f 912 784 726
f 696 846 741
f 741 740 696
f 846 742 741
f 737 740 738
f 757 698 758
f 757 754 698
f 757 758 755
f 752 750 698
f 698 754 752
f 754 751 752
f 752 749 750
f 751 749 752
f 753 751 754
f 753 757 755
f 754 757 753
f 746 748 747
f 748 749 747
f 747 749 870
f 747 869 746
f 870 869 747
f 812 700 808
f 813 700 812
f 811 813 812
f 812 810 811
f 808 810 812
f 801 701 799
f 801 803 701
f 799 800 801
f 805 700 701
f 806 809 805
f 702 703 704
f 799 701 704
f 705 321 320
f 691 689 705
f 320 319 705
f 705 319 702
f 702 704 705
f 705 704 693
f 693 691 705
f 1007 952 709
f 709 939 1007
f 1007 947 948
f 1007 939 947
f 792 790 789
f 789 791 792
f 792 319 509
f 792 791 319
f 965 790 792
f 845 787 786
f 786 788 845
f 844 703 845
f 703 787 845
f 843 844 845
f 845 788 843
f 372 373 371
f 690 691 330
f 330 691 333
f 329 689 690
f 329 325 689
f 690 330 329
f 377 325 329
f 419 407 416
f 406 407 405
f 406 415 407
f 415 406 508
f 508 406 405
f 414 792 508
f 413 507 508
f 508 507 414
f 958 959 957
f 957 955 958
f 957 956 955
f 504 956 957
f 957 488 504
f 957 959 488
f 842 973 991
f 991 973 971
f 971 990 991
f 991 840 842
f 835 840 991
f 958 971 972
f 971 973 972
f 973 970 972
f 68 16 69
f 66 16 68
f 73 71 68
f 522 496 205
f 522 521 496
f 205 498 522
f 498 204 522
f 495 496 493
f 205 496 495
f 424 426 501
f 501 503 424
f 426 500 501
f 492 503 501
f 501 493 492
f 501 495 493
f 500 495 501
f 470 471 419
f 419 421 470
f 470 421 420
f 420 490 470
f 490 471 470
f 15 20 12
f 15 518 520
f 502 523 513
f 523 518 513
f 518 15 513
f 513 15 12
f 995 401 506
f 506 71 570
f 393 394 392
f 392 394 395
f 391 393 392
f 392 504 391
f 937 956 392
f 392 956 504
f 392 953 937
f 395 953 392
f 393 511 514
f 514 394 393
f 395 394 13
f 13 14 395
f 13 394 12
f 12 14 13
f 993 396 398
f 1008 396 993
f 988 1008 993
f 401 994 399
f 66 401 399
f 399 993 398
f 994 993 399
f 398 18 399
f 1009 953 395
f 395 396 1009
f 1009 396 1008
f 1008 954 1009
f 1009 954 953
f 976 834 835
f 976 990 989
f 835 991 976
f 976 991 990
f 835 834 836
f 948 806 944
f 944 980 948
f 825 941 940
f 943 984 983
f 941 984 943
f 946 981 1002
f 1002 980 946
f 1002 1003 938
f 938 980 1002
f 1000 981 999
f 1000 999 710
f 992 990 955
f 992 956 937
f 955 956 992
f 992 953 989
f 989 990 992
f 180 181 188
f 188 202 180
f 189 202 188
f 207 68 69
f 69 204 207
f 207 204 220
f 428 427 499
f 497 494 187
f 187 184 497
f 494 499 187
f 187 499 427
f 446 448 451
f 479 480 447
f 480 448 447
f 447 448 376
f 376 375 447
f 447 473 479
f 447 378 473
f 375 378 447
f 383 333 382
f 383 384 333
f 382 443 383
f 383 443 384
f 721 723 719
f 661 568 658
f 557 568 661
f 667 659 661
f 658 685 661
f 661 685 667
f 723 722 927
f 744 742 846
f 846 743 744
f 746 868 744
f 744 745 746
f 744 743 745
f 334 581 343
f 850 848 857
f 857 856 855
f 855 850 857
f 708 856 857
f 857 848 708
f 904 531 611
f 904 902 531
f 611 905 904
f 901 707 706
f 706 902 901
f 901 899 707
f 286 281 282
f 152 191 190
f 278 310 280
f 280 310 276
f 276 161 280
f 280 159 278
f 280 161 159
f 193 174 192
f 176 174 193
f 312 281 294
f 281 310 294
f 282 312 318
f 318 296 282
f 192 174 297
f 297 152 154
f 297 174 191
f 191 152 297
f 166 226 167
f 167 88 166
f 289 226 288
f 289 288 257
f 225 226 289
f 257 258 289
f 289 258 225
f 63 62 61
f 159 161 157
f 55 158 157
f 157 279 159
f 158 279 157
f 56 62 57
f 49 50 57
f 57 65 49
f 57 62 65
f 50 51 57
f 57 51 56
f 89 604 613
f 89 94 604
f 89 613 605
f 605 90 89
f 89 90 91
f 176 193 194
f 194 193 195
f 150 146 149
f 150 641 146
f 258 154 259
f 259 260 258
f 154 152 259
f 261 260 259
f 231 264 265
f 267 232 265
f 232 231 265
f 292 231 230
f 292 264 231
f 262 264 292
f 108 109 234
f 108 234 238
f 238 113 108
f 113 104 108
f 108 104 25
f 236 241 240
f 240 241 239
f 111 241 236
f 236 110 111
f 251 250 247
f 25 104 105
f 105 26 25
f 24 26 105
f 118 140 125
f 124 244 125
f 137 140 106
f 247 243 133
f 133 243 135
f 133 135 149
f 149 134 133
f 256 245 255
f 246 256 255
f 246 244 124
f 245 256 246
f 247 250 249
f 249 243 247
f 248 243 249
f 250 293 249
f 293 248 249
f 266 243 248
f 266 248 293
f 266 234 267
f 266 293 234
f 149 145 131
f 126 125 244
f 244 246 126
f 120 118 119
f 118 125 119
f 125 126 119
f 119 130 145
f 119 126 130
f 672 671 648
f 648 646 672
f 648 671 650
f 650 144 648
f 144 148 648
f 148 646 648
f 638 677 351
f 351 352 638
f 326 352 351
f 351 337 326
f 439 677 687
f 687 677 678
f 687 678 676
f 687 453 439
f 676 453 687
f 440 677 439
f 440 441 388
f 439 441 440
f 336 692 346
f 692 337 346
f 346 337 348
f 717 719 716
f 716 719 723
f 905 601 906
f 601 934 906
f 922 906 934
f 868 869 922
f 905 906 922
f 873 925 924
f 924 893 915
f 924 894 893
f 897 894 924
f 924 925 897
f 865 933 907
f 907 933 898
f 907 900 865
f 898 900 907
f 567 555 569
f 568 555 567
f 658 568 567
f 567 666 658
f 569 666 567
f 558 559 569
f 569 563 558
f 558 563 559
f 3 538 339
f 339 340 3
f 339 538 338
f 338 596 339
f 596 340 339
f 597 5 2
f 2 596 597
f 533 540 534
f 548 555 544
f 544 555 568
f 544 568 557
f 550 9 10
f 10 551 550
f 546 547 550
f 550 551 546
f 7 11 5
f 5 8 7
f 7 8 9
f 9 550 7
f 549 547 548
f 549 550 547
f 11 7 549
f 549 7 550
f 360 635 353
f 635 354 353
f 695 327 362
f 362 357 695
f 362 327 363
f 363 364 362
f 364 361 362
f 362 361 633
f 633 357 362
f 694 357 331
f 693 694 331
f 331 355 693
f 360 353 331
f 331 359 360
f 331 357 359
f 331 354 355
f 331 353 354
f 662 663 629
f 629 663 366
f 629 366 365
f 365 622 629
f 629 627 662
f 629 622 627
f 628 663 345
f 366 663 628
f 345 328 628
f 328 366 628
f 43 36 117
f 117 138 43
f 116 138 117
f 117 41 116
f 39 36 34
f 39 688 21
f 39 34 688
f 21 40 39
f 40 41 39
f 144 651 143
f 143 121 120
f 560 656 655
f 566 656 560
f 560 655 657
f 657 559 560
f 560 559 122
f 122 561 562
f 562 560 122
f 566 560 562
f 44 70 80
f 70 79 80
f 80 79 221
f 70 75 78
f 78 79 70
f 74 79 78
f 78 209 74
f 162 279 158
f 162 214 155
f 162 274 279
f 158 156 162
f 156 214 162
f 301 194 195
f 155 270 269
f 269 162 155
f 274 162 269
f 270 273 269
f 269 273 274
f 221 224 215
f 44 80 215
f 215 80 221
f 203 224 219
f 203 219 185
f 185 202 203
f 203 202 189
f 189 201 203
f 203 201 224
f 270 213 272
f 272 273 270
f 699 775 770
f 782 779 780
f 780 781 782
f 782 781 783
f 783 912 782
f 774 773 776
f 776 777 774
f 866 773 774
f 854 850 855
f 851 850 854
f 740 741 739
f 739 738 740
f 739 741 742
f 873 738 739
f 701 803 804
f 804 805 701
f 803 944 804
f 806 805 804
f 804 944 806
f 808 700 807
f 700 805 807
f 807 809 808
f 807 805 809
f 799 704 817
f 817 704 815
f 817 818 799
f 979 1007 948
f 952 1007 979
f 979 948 938
f 938 952 979
f 966 414 965
f 965 792 966
f 966 792 414
f 962 963 790
f 958 963 964
f 413 508 964
f 964 508 405
f 405 486 964
f 321 705 322
f 705 372 322
f 370 369 322
f 322 369 321
f 322 371 370
f 322 372 371
f 380 330 381
f 381 443 380
f 384 443 381
f 333 384 381
f 381 330 333
f 377 329 444
f 444 472 377
f 408 416 418
f 409 416 408
f 412 416 409
f 419 416 412
f 412 469 419
f 412 390 469
f 415 508 417
f 418 416 417
f 407 415 417
f 417 416 407
f 410 408 418
f 409 408 410
f 509 409 410
f 410 792 509
f 1005 963 958
f 958 972 1005
f 786 790 1005
f 790 963 1005
f 1005 970 786
f 1005 972 970
f 16 19 17
f 17 19 521
f 521 522 17
f 397 396 20
f 16 18 397
f 397 19 16
f 398 396 397
f 397 18 398
f 206 204 69
f 206 522 204
f 69 16 206
f 16 17 206
f 206 17 522
f 403 495 500
f 403 500 426
f 205 495 403
f 425 428 403
f 403 426 425
f 428 499 403
f 403 494 205
f 403 499 494
f 519 15 520
f 20 15 519
f 520 521 519
f 521 19 519
f 519 397 20
f 19 397 519
f 400 68 71
f 71 506 400
f 400 506 401
f 400 401 66
f 66 68 400
f 510 512 515
f 515 511 510
f 515 514 511
f 394 514 515
f 66 399 67
f 67 399 18
f 67 16 66
f 67 18 16
f 988 993 987
f 987 993 994
f 975 989 988
f 975 976 989
f 831 834 975
f 834 976 975
f 985 984 941
f 942 941 825
f 942 821 974
f 942 985 941
f 997 985 995
f 984 985 997
f 997 570 571
f 995 506 997
f 997 506 570
f 998 999 983
f 983 984 998
f 984 997 998
f 572 573 998
f 573 999 998
f 998 571 572
f 998 997 571
f 930 834 831
f 980 944 945
f 946 980 945
f 945 944 803
f 803 801 945
f 816 940 941
f 941 943 816
f 943 818 816
f 815 940 816
f 816 817 815
f 818 817 816
f 983 981 982
f 982 943 983
f 982 981 946
f 982 818 943
f 946 800 982
f 819 800 799
f 799 818 819
f 819 982 800
f 818 982 819
f 1001 1002 981
f 981 1000 1001
f 1003 1002 1001
f 709 1003 1001
f 710 709 1001
f 1001 1000 710
f 937 953 1004
f 1004 992 937
f 953 992 1004
f 433 188 181
f 182 188 433
f 433 181 432
f 432 460 433
f 460 182 433
f 73 68 72
f 68 207 72
f 72 75 73
f 72 78 75
f 220 209 208
f 208 207 220
f 208 72 207
f 209 78 208
f 78 72 208
f 183 187 427
f 184 187 183
f 430 184 183
f 465 430 183
f 183 427 465
f 451 373 374
f 374 446 451
f 373 372 374
f 323 372 705
f 448 446 323
f 323 374 372
f 446 374 323
f 720 581 721
f 721 719 720
f 618 343 581
f 581 720 618
f 863 916 882
f 891 882 916
f 863 730 878
f 878 916 863
f 915 916 878
f 926 727 729
f 624 587 623
f 623 659 624
f 623 554 659
f 595 554 623
f 921 904 905
f 921 869 870
f 905 922 921
f 921 922 869
f 902 904 903
f 903 921 870
f 904 921 903
f 865 900 872
f 872 753 755
f 919 903 870
f 870 749 919
f 919 749 751
f 281 286 275
f 276 281 275
f 275 161 276
f 175 174 176
f 191 174 175
f 176 438 175
f 438 191 175
f 314 310 305
f 314 294 310
f 193 294 314
f 296 318 295
f 192 296 295
f 295 318 312
f 295 193 192
f 315 296 192
f 192 297 315
f 311 296 315
f 87 167 226
f 88 167 87
f 225 260 233
f 233 260 261
f 230 227 233
f 261 262 233
f 233 292 230
f 262 292 233
f 229 227 83
f 83 82 229
f 229 233 227
f 225 233 229
f 82 87 229
f 229 226 225
f 229 87 226
f 165 226 166
f 166 88 165
f 169 165 88
f 164 165 169
f 163 168 169
f 282 311 290
f 290 283 282
f 287 283 290
f 290 315 287
f 311 315 290
f 282 283 285
f 285 286 282
f 163 286 285
f 285 168 163
f 285 283 168
f 291 283 287
f 291 165 164
f 226 165 291
f 287 288 291
f 288 226 291
f 65 62 64
f 62 63 64
f 64 63 173
f 64 173 617
f 64 617 612
f 612 65 64
f 97 26 27
f 93 95 94
f 94 89 93
f 177 455 176
f 176 194 177
f 149 151 644
f 644 150 149
f 644 151 641
f 641 150 644
f 153 259 642
f 642 152 190
f 642 259 152
f 190 621 642
f 621 640 642
f 263 262 261
f 261 259 263
f 263 259 153
f 263 264 262
f 230 231 228
f 228 227 230
f 231 109 100
f 100 228 231
f 86 228 100
f 238 293 237
f 237 113 238
f 112 113 237
f 237 293 250
f 250 251 237
f 112 111 107
f 107 111 110
f 107 113 112
f 107 104 113
f 107 105 104
f 102 110 22
f 24 105 102
f 102 107 110
f 105 107 102
f 22 31 102
f 31 24 102
f 141 125 140
f 140 137 141
f 124 125 141
f 141 246 124
f 245 246 141
f 252 251 247
f 145 130 129
f 129 131 145
f 130 127 129
f 132 134 149
f 149 131 132
f 132 133 134
f 247 133 132
f 132 131 247
f 128 127 130
f 130 126 128
f 128 126 246
f 128 129 127
f 147 647 649
f 649 148 147
f 145 647 147
f 147 119 145
f 120 119 147
f 147 143 120
f 147 148 144
f 144 143 147
f 639 677 348
f 639 351 677
f 348 337 639
f 337 351 639
f 348 677 349
f 677 440 349
f 349 346 348
f 860 882 859
f 882 891 859
f 868 922 923
f 896 925 923
f 923 934 896
f 923 922 934
f 341 340 596
f 596 2 341
f 5 11 4
f 4 2 5
f 3 2 4
f 11 549 4
f 4 549 548
f 535 540 538
f 535 534 540
f 659 554 660
f 557 661 660
f 660 661 659
f 42 117 36
f 36 39 42
f 41 117 42
f 42 39 41
f 121 143 565
f 565 561 121
f 565 562 561
f 653 143 651
f 652 656 653
f 653 565 143
f 650 652 653
f 653 651 650
f 306 305 278
f 278 277 306
f 299 196 303
f 210 52 44
f 44 215 210
f 53 52 210
f 210 156 53
f 210 214 156
f 213 214 210
f 189 188 178
f 178 201 189
f 308 273 304
f 304 273 299
f 299 313 304
f 763 759 699
f 699 770 763
f 779 782 913
f 913 917 910
f 910 866 913
f 913 782 912
f 913 854 855
f 855 911 913
f 911 917 913
f 778 777 779
f 778 774 777
f 866 774 778
f 779 913 778
f 778 913 866
f 853 912 726
f 851 854 853
f 853 913 912
f 854 913 853
f 853 852 851
f 726 852 853
f 737 738 877
f 877 733 737
f 879 730 736
f 736 733 879
f 879 878 730
f 961 962 790
f 961 507 413
f 413 962 961
f 960 959 958
f 958 964 960
f 960 964 486
f 960 486 485
f 485 959 960
f 963 962 1010
f 1010 964 963
f 1010 962 413
f 413 964 1010
f 379 329 330
f 379 444 329
f 379 330 380
f 379 380 445
f 445 472 379
f 472 444 379
f 402 409 509
f 402 412 409
f 390 412 402
f 509 319 402
f 319 390 402
f 418 417 411
f 411 410 418
f 411 417 508
f 411 508 792
f 792 410 411
f 517 515 512
f 517 513 12
f 12 394 517
f 394 515 517
f 502 513 517
f 491 502 517
f 517 512 491
f 974 987 996
f 995 985 996
f 996 994 995
f 996 987 994
f 996 942 974
f 985 942 996
f 974 821 826
f 826 821 820
f 986 987 974
f 974 826 986
f 988 987 986
f 986 975 988
f 831 975 986
f 986 826 831
f 838 703 839
f 838 837 703
f 838 839 835
f 835 837 838
f 928 836 703
f 703 837 928
f 835 836 928
f 928 837 835
f 929 836 834
f 834 930 929
f 703 836 929
f 929 930 703
f 825 940 823
f 823 940 815
f 703 822 823
f 823 704 703
f 815 704 823
f 824 822 821
f 824 942 825
f 821 942 824
f 825 823 824
f 824 823 822
f 820 821 931
f 821 822 931
f 703 820 931
f 931 822 703
f 802 800 946
f 946 945 802
f 802 801 800
f 802 945 801
f 324 323 705
f 689 325 324
f 324 705 689
f 448 323 324
f 324 325 376
f 376 448 324
f 626 618 590
f 624 659 626
f 626 659 667
f 627 622 342
f 365 334 342
f 342 622 365
f 885 859 892
f 892 859 891
f 338 539 892
f 539 885 892
f 890 891 916
f 890 916 915
f 915 887 890
f 890 887 888
f 862 926 729
f 589 588 624
f 624 626 589
f 589 626 590
f 585 587 624
f 624 588 585
f 595 623 586
f 586 623 587
f 586 583 595
f 920 901 902
f 902 903 920
f 903 919 920
f 871 920 919
f 753 872 871
f 751 753 871
f 871 919 751
f 160 275 286
f 160 286 163
f 61 56 160
f 161 275 160
f 195 193 300
f 193 314 300
f 300 314 305
f 300 301 195
f 305 306 300
f 312 294 317
f 317 295 312
f 317 294 193
f 193 295 317
f 298 154 257
f 298 297 154
f 257 288 298
f 298 288 287
f 163 169 172
f 172 63 61
f 61 160 172
f 172 160 163
f 170 173 171
f 173 63 171
f 91 170 171
f 63 172 171
f 171 172 169
f 171 88 91
f 171 169 88
f 168 283 284
f 283 291 284
f 284 291 164
f 284 169 168
f 164 169 284
f 98 97 95
f 25 26 98
f 26 97 98
f 524 27 528
f 524 97 27
f 84 82 83
f 88 87 84
f 84 87 82
f 95 93 81
f 81 98 95
f 151 153 643
f 153 642 643
f 640 151 643
f 643 642 640
f 268 265 264
f 264 263 268
f 267 265 268
f 135 243 268
f 268 263 153
f 268 266 267
f 243 266 268
f 268 153 151
f 149 135 268
f 268 151 149
f 85 228 86
f 85 84 83
f 83 227 85
f 227 228 85
f 112 237 235
f 235 252 245
f 235 237 251
f 251 252 235
f 236 240 136
f 136 240 239
f 239 114 136
f 136 110 236
f 106 110 136
f 136 137 106
f 136 114 137
f 239 245 115
f 115 114 239
f 245 141 115
f 137 114 115
f 115 141 137
f 253 246 255
f 255 245 253
f 245 252 253
f 254 128 246
f 129 128 254
f 246 253 254
f 254 253 252
f 254 252 247
f 247 131 254
f 131 129 254
f 388 336 387
f 387 440 388
f 350 349 440
f 336 346 350
f 346 349 350
f 883 859 884
f 860 859 883
f 723 927 883
f 883 884 723
f 883 861 860
f 927 861 883
f 715 716 723
f 715 584 716
f 886 859 885
f 886 542 553
f 886 885 542
f 884 859 712
f 712 713 884
f 859 886 712
f 712 552 595
f 553 552 712
f 712 886 553
f 595 583 712
f 583 713 712
f 868 923 867
f 867 925 873
f 867 923 925
f 873 739 867
f 867 739 742
f 867 744 868
f 742 744 867
f 3 340 1
f 340 341 1
f 1 2 3
f 1 341 2
f 543 544 537
f 543 537 3
f 3 4 543
f 548 544 543
f 543 4 548
f 142 653 656
f 565 653 142
f 562 565 142
f 142 656 566
f 566 562 142
f 308 303 307
f 307 306 277
f 277 274 307
f 307 273 308
f 274 273 307
f 301 300 302
f 302 300 306
f 306 307 302
f 302 307 303
f 213 210 212
f 212 210 215
f 197 196 299
f 299 218 197
f 197 201 196
f 217 215 224
f 217 197 218
f 224 201 217
f 201 197 217
f 434 177 194
f 194 178 434
f 435 455 434
f 455 177 434
f 194 301 199
f 199 178 194
f 301 302 199
f 199 302 303
f 308 304 309
f 309 304 313
f 309 313 299
f 299 303 309
f 309 303 308
f 755 758 756
f 758 759 756
f 756 872 755
f 865 872 756
f 733 864 880
f 880 879 733
f 878 879 880
f 969 790 968
f 969 961 790
f 968 507 969
f 507 961 969
f 833 930 831
f 831 832 833
f 703 930 833
f 833 832 703
f 831 826 830
f 830 832 831
f 703 832 830
f 618 626 344
f 344 342 334
f 344 626 667
f 334 343 344
f 343 618 344
f 667 627 344
f 627 342 344
f 889 890 888
f 891 890 889
f 889 892 891
f 888 887 889
f 889 887 338
f 338 892 889
f 731 730 863
f 863 862 731
f 731 862 729
f 729 736 731
f 736 730 731
f 926 862 881
f 881 882 860
f 863 882 881
f 881 862 863
f 860 861 881
f 881 861 926
f 728 861 927
f 926 861 728
f 728 927 722
f 728 722 727
f 727 926 728
f 592 585 588
f 899 901 918
f 918 871 872
f 901 920 918
f 920 871 918
f 918 900 899
f 918 872 900
f 60 157 161
f 161 160 60
f 55 157 60
f 60 56 55
f 60 160 56
f 316 315 297
f 297 298 316
f 287 315 316
f 316 298 287
f 602 615 614
f 615 94 614
f 94 95 614
f 95 97 96
f 97 524 96
f 96 614 95
f 602 614 96
f 528 602 96
f 96 524 528
f 92 89 91
f 92 93 89
f 91 88 92
f 88 84 92
f 86 81 99
f 99 81 93
f 99 85 86
f 84 85 99
f 93 92 99
f 99 92 84
f 98 81 101
f 86 100 101
f 101 81 86
f 101 100 109
f 242 111 112
f 112 235 242
f 241 111 242
f 242 245 241
f 242 235 245
f 336 385 386
f 386 387 336
f 386 385 440
f 440 387 386
f 440 385 347
f 347 350 440
f 347 385 336
f 336 350 347
f 717 716 582
f 716 584 582
f 582 719 717
f 884 713 714
f 723 884 714
f 714 715 723
f 714 713 583
f 584 715 625
f 583 582 625
f 625 582 584
f 625 714 583
f 715 714 625
f 537 545 541
f 533 534 541
f 537 544 556
f 556 545 537
f 556 544 557
f 557 660 556
f 556 660 554
f 273 272 211
f 215 217 216
f 216 217 218
f 216 212 215
f 216 211 212
f 216 218 299
f 299 273 216
f 273 211 216
f 179 434 178
f 179 188 182
f 179 178 188
f 435 434 179
f 179 182 460
f 460 435 179
f 767 763 770
f 767 764 763
f 771 770 775
f 775 773 771
f 771 773 866
f 771 866 865
f 759 763 761
f 914 880 864
f 878 880 914
f 873 924 914
f 914 874 877
f 914 924 915
f 915 878 914
f 914 738 873
f 914 877 738
f 735 864 733
f 735 914 864
f 875 874 733
f 877 874 875
f 827 826 820
f 827 820 703
f 583 586 593
f 593 582 583
f 592 582 593
f 593 586 587
f 587 585 593
f 585 592 593
f 588 589 591
f 591 592 588
f 591 589 590
f 590 618 591
f 25 98 103
f 98 101 103
f 103 101 109
f 103 108 25
f 109 108 103
f 718 582 592
f 718 591 618
f 592 591 718
f 719 582 718
f 718 720 719
f 718 618 720
f 538 537 536
f 537 541 536
f 536 541 534
f 536 535 538
f 534 535 536
f 533 541 564
f 564 541 545
f 564 554 533
f 564 556 554
f 545 556 564
f 271 272 213
f 271 211 272
f 213 212 271
f 212 211 271
f 178 199 222
f 222 200 178
f 222 199 303
f 201 178 198
f 178 200 198
f 196 201 198
f 765 767 770
f 764 767 765
f 865 764 765
f 763 764 762
f 762 761 763
f 762 764 865
f 865 761 762
f 760 756 759
f 759 761 760
f 865 756 760
f 760 761 865
f 734 735 733
f 914 735 734
f 733 877 876
f 876 875 733
f 877 875 876
f 826 827 828
f 703 830 828
f 828 827 703
f 196 198 223
f 223 198 200
f 200 222 223
f 223 303 196
f 223 222 303
f 766 765 770
f 865 765 766
f 733 874 732
f 732 734 733
f 874 914 732
f 914 734 732
f 829 830 826
f 826 828 829
f 829 828 830
f 770 771 772
f 865 766 768
f 768 766 770
f 770 772 768
f 769 771 865
f 865 768 769
f 704 701 694
f 704 694 693

