# https://github.com/mikedh/trimesh
v 0.03211816 0.01812331 -0.30729350
v 0.03174863 0.01812054 -0.30863807
v 0.02964999 0.01808544 -0.31194744
v 0.02573675 0.01800263 -0.31424692
v 0.02634436 0.01801621 -0.31405109
v 0.02586485 0.01750773 -0.31473586
v 0.02245845 0.01792598 -0.31455022
v 0.02896527 0.01757467 -0.31321132
v 0.03131554 0.01761923 -0.31067842
v 0.03091313 0.01810838 -0.31035823
v 0.03260469 0.01763554 -0.30747229
v 0.02868662 0.01806626 -0.31278431
v 0.03273980 0.01263703 -0.30741289
v 0.03146781 0.01262125 -0.31064788
v 0.02911760 0.01257681 -0.31320876
v 0.02600385 0.01250964 -0.31475261
v 0.02254344 0.01242873 -0.31507275
v 0.02242449 0.01742727 -0.31505033
v -0.03360546 0.00152181 -0.17337191
v -0.03359000 0.00676667 -0.17246836
v -0.03355230 0.01170137 -0.17047529
v -0.03349409 0.01610231 -0.16748305
v -0.03341800 0.01977001 -0.16362724
v -0.03332749 0.02253825 -0.15908259
v -0.03322664 0.02428159 -0.15405509
v -0.03300111 -0.02471905 -0.14421628
v -0.02497340 -0.03076168 -0.15297030
v 0.03095618 -0.01732914 -0.31035316
v 0.02577981 -0.01743489 -0.31424186
v 0.02872969 -0.01737126 -0.31277925
v 0.02250153 -0.01751154 -0.31454515
v 0.02244377 -0.01701054 -0.31504077
v 0.02588413 -0.01693008 -0.31472632
v 0.02590417 -0.01692964 -0.31472066
v 0.03136815 -0.01681801 -0.31061596
v 0.03262396 -0.01680227 -0.30746275
v 0.03216122 -0.01731421 -0.30728844
v 0.03264013 -0.01680225 -0.30738091
v 0.03133481 -0.01681856 -0.31066886
v 0.02901793 -0.01686247 -0.31317678
v 0.02898455 -0.01686315 -0.31320176
v 0.06390739 -0.00139364 0.01654637
v 0.06359558 -0.00712422 0.01631420
v 0.06059053 -0.02126970 -0.00758975
v 0.06031149 -0.02204552 -0.01107778
v 0.06003686 -0.02279384 -0.01434768
v 0.05942806 -0.02448029 -0.02037900
v 0.05933657 -0.02473551 -0.02116330
v 0.06068102 -0.01878769 -0.02248478
v 0.05924502 -0.02499106 -0.02192078
v 0.06278133 -0.01318978 0.01468447
v 0.06269441 -0.01365274 0.01430523
v 0.06265871 -0.01383649 0.01413338
v 0.06172585 -0.01250858 -0.02252117
v 0.06233318 -0.01535475 0.01201096
v 0.06177955 -0.01745125 0.00617679
v 0.06117348 -0.01949886 -0.00066698
v 0.06342739 -0.00877700 0.01618594
v 0.06312373 -0.01111353 0.01572586
v 0.06304041 -0.01166156 0.01552997
v 0.06046218 -0.00633341 -0.06214592
v 0.06391962 0.00004082 0.01655554
v 0.06234558 0.00002073 -0.02764794
v 0.06235152 -0.00618359 -0.02254405
v 0.05983622 -0.01278809 -0.06213109
v 0.05879532 -0.01919099 -0.06210819
v 0.05608941 -0.02978756 -0.04159237
v 0.04704531 -0.03408932 -0.04057129
v 0.04992073 -0.03339110 -0.03727417
v 0.04578788 -0.03423551 -0.03892784
v 0.05523569 -0.03072189 -0.03359179
v 0.05378546 -0.03172449 -0.03500913
v 0.05424557 -0.03141807 -0.04137687
v 0.05319089 -0.03206204 -0.03546547
v 0.05205201 -0.03265583 -0.04112815
v 0.05114665 -0.03298113 -0.03669876
v 0.05877816 -0.02614927 -0.02493739
v 0.05748756 -0.02777122 -0.04176308
v 0.05794805 -0.02769483 -0.02835678
v 0.05716662 -0.02879651 -0.03046316
v 0.05594147 -0.03011587 -0.03267331
v 0.05906309 -0.02547717 -0.02324033
v 0.05861066 -0.02532922 -0.03724424
v 0.05640247 -0.02803657 -0.06205796
v 0.05292611 -0.03195238 -0.06198869
v 0.05056334 -0.03323736 -0.06194214
v 0.04671601 -0.03436623 -0.06186673
v 0.04545162 -0.03456878 -0.06184201
v 0.04201764 -0.03482627 -0.06177501
v 0.05877051 0.01919928 -0.06212473
v 0.05817942 0.02546211 -0.04581586
v 0.06066391 0.00000487 -0.06215245
v 0.06357706 0.00730544 0.01630110
v 0.06382067 0.00392391 0.01648214
v 0.06326274 0.01010320 0.01599571
v 0.06340779 0.00893006 0.01617088
v 0.06234356 0.00622955 -0.02254933
v 0.06192825 0.01690884 0.00804838
v 0.06204912 0.01646556 0.00937435
v 0.06170977 0.01255376 -0.02253189
v 0.06224150 0.01572788 0.01137192
v 0.06231968 0.01540397 0.01204891
v 0.06255811 0.01432385 0.01368372
v 0.06262620 0.01398853 0.01404797
v 0.05939662 0.02452436 -0.02040008
v 0.05929483 0.02480644 -0.02126823
v 0.06065688 0.01883154 -0.02250090
v 0.05954870 0.02410352 -0.01903715
v 0.06008284 0.02263938 -0.01351188
v 0.06024504 0.02220108 -0.01157364
v 0.05921293 0.02503354 -0.02194230
v 0.06065021 0.00153241 -0.06215294
v 0.06085379 0.01273779 -0.04233696
v 0.06148419 0.01846233 0.00312473
v 0.05857941 0.02653679 -0.02578731
v 0.05732217 0.02552977 -0.06209952
v 0.05745191 0.02779439 -0.04178698
v 0.05447238 0.03128297 -0.03438924
v 0.05605118 0.02980907 -0.04161801
v 0.05591137 0.03013696 -0.03268686
v 0.05657723 0.02947101 -0.03160606
v 0.05836834 0.02694771 -0.02672051
v 0.04852957 0.03376204 -0.03784500
v 0.05110443 0.03300049 -0.03672737
v 0.05218116 0.03256043 -0.03613120
v 0.05420525 0.03143740 -0.04140391
v 0.05392153 0.03164141 -0.03488914
v 0.04700157 0.03410010 -0.04060062
v 0.05201010 0.03267255 -0.04115625
v 0.04809435 0.03385769 -0.03800322
v 0.04492889 0.03434569 -0.03983015
v 0.04565747 0.03425717 -0.03902314
v 0.04642294 0.03415264 -0.03856966
v 0.04452848 0.03439729 -0.04083812
v 0.04474955 0.03436729 -0.04016099
v 0.04197298 0.03481237 -0.06180498
v 0.05702924 0.02649697 -0.06209424
v 0.05636646 0.02804085 -0.06208210
v 0.05514864 0.02989096 -0.06205927
v 0.05052067 0.03323418 -0.06197075
v 0.04766721 0.03414946 -0.06191561
v 0.04540726 0.03455907 -0.06187177
v 0.05101754 -0.01792402 -0.15321368
v 0.05166710 -0.01536879 -0.15322737
v 0.05208117 -0.01348820 -0.15323621
v 0.05311920 -0.00675273 -0.15325919
v 0.05339168 -0.00308569 -0.15326600
v 0.05164739 0.01528881 -0.15324056
v 0.05099460 0.01784301 -0.15322907
v 0.05318763 0.00588555 -0.15326607
v 0.05346045 -0.00003896 -0.15326858
v 0.05846527 -0.01285252 -0.08496336
v 0.05080539 -0.02473512 -0.13877670
v 0.05344433 -0.01894209 -0.13051602
v 0.05237539 -0.02533391 -0.12393623
v 0.05736230 -0.01927599 -0.08493978
v 0.05884860 -0.00000923 -0.09251501
v 0.05748859 -0.00638712 -0.10778856
v 0.05549279 -0.00628484 -0.13056105
v 0.05557661 -0.01929406 -0.10774636
v 0.05471946 -0.01265608 -0.13054340
v 0.05735492 -0.02552426 -0.06207756
v 0.05676817 -0.01287745 -0.10777199
v 0.05394074 -0.02561439 -0.10771222
v 0.05398142 -0.02561791 -0.10726579
v 0.05309834 -0.02772525 -0.10800523
v 0.04380252 -0.03405065 -0.10793982
v 0.04003751 -0.03232300 -0.14789312
v 0.04478657 -0.03140458 -0.14239754
v 0.04014572 -0.03280488 -0.14236294
v 0.03628843 -0.03316273 -0.14524353
v 0.03812713 -0.03279359 -0.14655615
v 0.03891502 -0.03487488 -0.10311128
v 0.05018036 -0.03270479 -0.08501446
v 0.05215841 -0.03141053 -0.08504160
v 0.05491593 -0.03020545 -0.06202813
v 0.05378192 -0.02977918 -0.08505613
v 0.05500480 -0.02783293 -0.08505871
v 0.04680156 -0.03023079 -0.14238569
v 0.04504155 -0.03014722 -0.15148485
v 0.04840433 -0.02863819 -0.14235814
v 0.04262799 -0.03145270 -0.14973292
v 0.05592155 -0.02561352 -0.08385146
v 0.05192617 -0.02959251 -0.10802153
v 0.05036106 -0.03116284 -0.10802535
v 0.04843313 -0.03241146 -0.10801306
v 0.04552669 -0.03434135 -0.08492730
v 0.03672881 -0.03420871 -0.12870616
v 0.04152961 -0.03336459 -0.13090481
v 0.04614620 -0.03184789 -0.13095529
v 0.04810272 -0.03065174 -0.13095203
v 0.04967232 -0.02909111 -0.13093185
v 0.04955722 -0.02669525 -0.14232902
v 0.05082352 -0.02721141 -0.13090391
v 0.03519181 -0.03335262 -0.14435855
v 0.03291057 -0.03470426 -0.12391391
v 0.03215084 -0.03418971 -0.13568817
v 0.03210695 -0.03414698 -0.13645968
v 0.03206678 -0.03405996 -0.13792016
v 0.03218489 -0.03395776 -0.13937823
v 0.03229511 -0.03391386 -0.13992064
v 0.03294343 -0.03375028 -0.14159738
v 0.03361781 -0.03494882 -0.11482800
v 0.03832217 -0.03475544 -0.11041492
v 0.03488078 -0.03512768 -0.10130109
v 0.03427231 -0.03506887 -0.10747243
v 0.04020230 -0.03498582 -0.08634967
v 0.05269226 0.00992519 -0.15325835
v 0.05342007 0.01888372 -0.13053231
v 0.05772033 -0.00001645 -0.10779564
v 0.05684605 -0.00002152 -0.11834572
v 0.06045431 0.00633889 -0.06215141
v 0.05748042 0.00635349 -0.10779403
v 0.05675166 0.01284291 -0.10778305
v 0.05977660 0.01312190 -0.06214143
v 0.05555188 0.01925801 -0.10776293
v 0.05212518 0.02521463 -0.12609106
v 0.05382561 0.02556770 -0.10863301
v 0.05470327 0.01259931 -0.13055427
v 0.05548476 0.00622906 -0.13056645
v 0.05733758 0.01926185 -0.08495636
v 0.05565677 0.02561006 -0.08694406
v 0.05429440 -0.00003486 -0.14528774
v 0.04011660 0.03494685 -0.08703790
v 0.03549399 0.03510240 -0.09521861
v 0.03887025 0.03482139 -0.10314108
v 0.03830739 0.03470237 -0.11008568
v 0.03219185 0.03417841 -0.13425936
v 0.03422737 0.03500570 -0.10750236
v 0.03436483 0.03502403 -0.10605777
v 0.03202275 0.03396985 -0.13791682
v 0.03661392 0.03409733 -0.12950702
v 0.03210705 0.03409957 -0.13571726
v 0.03342157 0.03355388 -0.14247711
v 0.03220649 0.03383679 -0.13975221
v 0.04548441 0.03431447 -0.08481924
v 0.04480221 0.03134914 -0.14194743
v 0.04146357 0.03178253 -0.14896822
v 0.04426755 0.03054233 -0.15094849
v 0.04366477 0.03087266 -0.15051827
v 0.04240192 0.03143871 -0.14962922
v 0.04557527 0.02960039 -0.15200013
v 0.04810549 0.03060084 -0.13056864
v 0.04640304 0.02873282 -0.15285133
v 0.04967758 0.02904260 -0.13054740
v 0.05083204 0.02716526 -0.13051796
v 0.05166782 0.02505719 -0.13048887
v 0.05375222 0.02976273 -0.08494455
v 0.05497884 0.02781679 -0.08494559
v 0.03920994 0.03243845 -0.14737017
v 0.03805439 0.03270841 -0.14656354
v 0.04015882 0.03274875 -0.14191322
v 0.04614741 0.03179530 -0.13057260
v 0.04152619 0.03330916 -0.13052282
v 0.05014326 0.03268478 -0.08490514
v 0.05221308 0.03238219 -0.06200331
v 0.05308729 0.02769005 -0.10775559
v 0.05191148 0.02955705 -0.10777331
v 0.05212487 0.03139281 -0.08493129
v 0.05034284 0.03112628 -0.10777826
v 0.04841174 0.03237315 -0.10776683
v 0.04377557 0.03400672 -0.10769468
v 0.04672468 0.03410704 -0.03845673
v 0.05756056 0.02825642 -0.02942088
v 0.06309260 0.00727642 0.01681595
v 0.06290642 0.00903838 0.01667001
v 0.06259150 0.01136602 0.01617641
v 0.06300159 0.01189082 0.01545826
v 0.06249237 0.01199240 0.01594005
v 0.06221793 0.01354735 0.01503714
v 0.06211809 0.01405857 0.01460242
v 0.06287854 0.01262981 0.01509312
v 0.06187269 0.01521265 0.01321089
v 0.06135722 0.01722788 0.00835667
v 0.06158037 0.01641067 0.01076661
v 0.06181348 0.01547023 0.01279478
v 0.06187046 0.01711753 0.00741176
v 0.06109913 0.01813223 0.00554009
v 0.06028255 0.02210038 -0.01110462
v 0.06100205 0.02002175 -0.00237672
v 0.06142629 0.01865655 0.00247445
v 0.06075289 0.01928917 0.00169954
v 0.06061670 -0.01974338 -0.00010566
v 0.06095560 -0.01863321 0.00370872
v 0.06141760 -0.01701760 0.00879026
v 0.06201949 -0.01658090 0.00882940
v 0.06153971 -0.01656791 0.01012640
v 0.06222971 -0.01578159 0.01108291
v 0.06210479 -0.01413695 0.01446377
v 0.06246207 -0.01478596 0.01298098
v 0.06213963 -0.01396302 0.01463116
v 0.06225991 -0.01333779 0.01514744
v 0.06248658 -0.01204255 0.01589418
v 0.06253042 -0.01177199 0.01600848
v 0.06271682 -0.01052710 0.01640418
v 0.06343579 0.00004072 0.01707123
v 0.06298199 -0.00838886 0.01673296
v 0.04682652 -0.03408560 -0.03840958
v 0.04498672 -0.03433523 -0.03977890
v 0.03735480 -0.03510366 -0.08055916
v 0.03553905 -0.03515337 -0.09518845
v 0.03413529 -0.03504959 -0.10894305
v 0.03406747 -0.03354049 -0.14322767
v 0.03321309 -0.03369603 -0.14206418
v 0.03754252 -0.03291855 -0.14614683
v 0.03945572 -0.03247787 -0.14748460
v 0.04150436 -0.03187212 -0.14894074
v 0.04463488 -0.03042706 -0.15116575
v 0.03941412 0.03238694 -0.14751250
v 0.04025313 0.03216022 -0.14810364
v 0.04274716 0.03461809 -0.04839949
v 0.03565852 0.03510557 -0.09376834
v 0.03634889 0.03510297 -0.08797091
v 0.03466023 0.03505594 -0.10305496
v 0.03206319 0.03405610 -0.13648900
v 0.03409705 0.03343383 -0.14334023
v 0.03251188 0.03374440 -0.14078216
v 0.03514922 0.03325887 -0.14438733
v 0.06065144 -0.01441481 0.01391261
v 0.06325974 -0.00522899 0.01693989
v 0.06180296 -0.01552451 0.01258005
v 0.06058031 -0.01480293 0.01338194
v 0.06188898 -0.01515061 0.01320238
v 0.06342132 0.00148949 0.01706051
v -0.02969633 0.03456291 0.00555227
v -0.02840249 0.03456291 0.01033098
v -0.02634772 0.03456290 0.01483521
v -0.02358690 0.03456291 0.01894470
v -0.02031367 0.03456291 0.02244097
v -0.01653043 0.03456291 0.02537780
v -0.01233169 0.03456290 0.02768182
v -0.00782235 0.03456291 0.02929546
v -0.00311509 0.03456290 0.03017841
v 0.00167250 0.03456291 0.03030860
v 0.00642079 0.03456291 0.02968279
v 0.01101116 0.03456291 0.02831660
v 0.01532891 0.03456291 0.02624418
v 0.01926617 0.03456290 0.02351730
v 0.02272457 0.03456290 0.02020408
v 0.02561771 0.03456291 0.01638732
v 0.02787329 0.03456291 0.01216236
v 0.02943498 0.03456290 0.00763477
v -0.03019471 0.03456291 0.00062665
v -0.03626664 -0.01729373 -0.10213637
v -0.03631758 -0.01537703 -0.10373222
v -0.03635009 -0.01434463 -0.10446953
v -0.03638584 -0.01327685 -0.10515442
v -0.03638423 -0.01308269 -0.10527126
v -0.03638394 0.01300939 -0.10527129
v -0.03602493 0.02080485 -0.10147823
v -0.03620302 0.01838984 -0.10176762
v -0.03616915 0.01893145 -0.10164855
v -0.03610293 0.01986464 -0.10151877
v -0.03545529 0.02578302 -0.10148969
v -0.03601275 0.02093994 -0.10147848
v -0.03255073 0.03319702 -0.10436621
v -0.03215600 0.03350335 -0.10516082
v -0.03208375 0.03354748 -0.10532306
v -0.03185887 0.03365380 -0.10588171
v -0.03166504 0.03369639 -0.10646003
v -0.02798570 0.03389756 -0.11739754
v -0.02983360 0.03381133 -0.11217511
v -0.03638554 0.01320358 -0.10515444
v -0.03633096 0.01485746 -0.10406103
v -0.03631823 0.01527059 -0.10375770
v -0.03626635 0.01721750 -0.10213912
v -0.03076161 -0.03382819 -0.10936216
v -0.03166611 -0.03376821 -0.10645824
v -0.02864294 -0.03394341 -0.11559082
v -0.03207075 -0.03362453 -0.10536009
v -0.03174616 -0.03375670 -0.10620656
v -0.03258815 -0.03323589 -0.10429636
v -0.03491639 -0.02876913 -0.10149860
v -0.03534051 -0.02660765 -0.10149053
v -0.03558244 -0.02493859 -0.10148588
v -0.03582495 -0.02290969 -0.10148114
v -0.03602559 -0.02087627 -0.10147712
v -0.03612549 -0.01964005 -0.10155215
v -0.03616290 -0.01910291 -0.10163330
v -0.03621946 -0.01818673 -0.10184214
v -0.03484866 -0.02904068 -0.10150757
v -0.03339077 -0.03230165 -0.10299002
v -0.03247031 -0.03333968 -0.10451929
v -0.03171230 -0.03376342 -0.10630883
v -0.03629548 -0.01438988 -0.10563709
v -0.03292616 -0.03289158 -0.10370456
v -0.03614674 -0.01589461 -0.10641351
v -0.03279303 0.03296291 -0.10392922
v -0.03557314 0.02493184 -0.10148737
v 0.03942170 -0.03490881 -0.06175670
v 0.04138107 -0.03473762 -0.05139719
v -0.00835981 -0.03531940 -0.05125662
v -0.00854789 -0.03555635 -0.06081815
v -0.00568179 -0.03554079 -0.06087365
v 0.01543838 -0.03532635 -0.06128660
v 0.01733616 -0.03529936 -0.06132376
v -0.03420392 0.01568742 0.01860266
v -0.02802656 0.01569323 0.02706590
v 0.00021334 0.01571235 0.03904960
v 0.02871928 0.03294918 -0.15310045
v 0.03098989 0.03280095 -0.15314524
v -0.00024598 0.01605336 -0.31225935
v -0.00313918 0.01573553 -0.31185329
v -0.00346010 0.00816338 -0.31176341
v -0.00447072 0.00816333 -0.31141752
v -0.00623505 0.01541460 -0.31055793
v -0.00715233 0.00816344 -0.30995980
v -0.00854020 0.01520173 -0.30879834
v -0.00799926 0.00816342 -0.30929315
v -0.01037696 0.01506747 -0.30653015
v -0.01004519 0.00816336 -0.30702952
v -0.01062199 0.00816338 -0.30612233
v -0.01156145 0.01501026 -0.30407181
v -0.01147115 0.00816335 -0.30432338
v -0.01180277 0.00816338 -0.30330953
v -0.01224353 0.00816338 -0.30130765
v -0.01227750 0.01497599 -0.30109513
v -0.01246532 -0.01503499 -0.29961908
v -0.01226004 -0.00823662 -0.30120707
v -0.01197338 -0.00823662 -0.30265388
v -0.01177501 -0.01506932 -0.30340728
v -0.00874701 -0.01526363 -0.30859226
v -0.01056386 -0.01513065 -0.30622330
v -0.01156278 -0.00823675 -0.30407131
v -0.01099030 -0.00823669 -0.30543259
v -0.01025801 -0.00823662 -0.30671492
v -0.00623977 -0.00823665 -0.31055561
v -0.00865239 -0.00823663 -0.30868796
v -0.00937674 -0.00823659 -0.30789980
v -0.00044517 -0.01610417 -0.31225279
v -0.00628629 -0.01548673 -0.31052750
v -0.00340112 -0.01578198 -0.31178084
v -0.02013619 -0.03509207 -0.12969643
v -0.01572624 -0.03458863 -0.14100851
v -0.02020875 -0.03508047 -0.12972499
v -0.01505073 -0.03444896 -0.14279738
v -0.01546744 0.03446516 -0.14168885
v -0.01662676 0.03467254 -0.13865736
v -0.02013654 0.03502065 -0.12969659
v -0.01913193 0.03495704 -0.13224573
v -0.01900269 0.03494494 -0.13260125
v -0.01899267 0.03494623 -0.13259955
v -0.01766128 0.03481470 -0.13599209
v -0.01780343 0.03483133 -0.13562863
v 0.01563826 0.01786293 0.03690804
v 0.01641806 0.02478991 0.03656950
v 0.01336534 0.01786293 0.03778571
v 0.00784727 0.01786293 0.03929198
v 0.01341016 0.02479000 0.03776992
v 0.00779974 0.02479014 0.03930134
v 0.00167860 0.01786293 0.04001828
v 0.00202654 0.02479028 0.04000302
v 0.00021559 0.01786292 0.04004928
v -0.00558221 0.01786292 0.03964382
v -0.00102319 0.02479035 0.04003368
v -0.00378738 0.02479041 0.03986012
v -0.00951913 0.02479055 0.03887568
v -0.01014783 0.01786292 0.03871449
v -0.01014783 0.02479058 0.03871450
v -0.01670483 0.01786292 0.03634827
v -0.01824480 0.02479079 0.03559485
v -0.02106758 0.01786292 0.03398972
v -0.02025577 0.02479084 0.03448273
v -0.02106758 0.02479086 0.03398972
v -0.02179080 0.01786291 0.03352782
v -0.02995073 0.01786292 0.02644956
v -0.02503370 0.02479099 0.03116709
v -0.03011448 0.02479117 0.02626199
v -0.03011448 0.01786291 0.02626199
v -0.03183652 0.02479123 0.02413413
v -0.03346132 0.01786292 0.02181298
v -0.03290591 0.02479126 0.02264643
v -0.03626247 0.01786292 0.01671634
v -0.03583379 0.02479142 0.01762152
v -0.03648810 0.01786292 0.01621503
v -0.03800207 0.02479155 0.01222517
v -0.03829497 0.01786292 0.01126740
v -0.03939611 0.01786292 0.00637983
v -0.03912024 0.02479166 0.00791005
v -0.03936492 0.02479170 0.00657143
v -0.03962450 0.01786292 0.00473778
v -0.03962450 0.02479174 0.00473778
v -0.03989255 0.02479183 0.00083137
v -0.03989256 0.02379186 0.00083137
v -0.03989659 0.01786292 0.00058706
v 0.00696176 0.03373253 0.03460188
v -0.02466392 0.03436291 0.01951742
v 0.02880046 0.03183818 0.02483443
v 0.03018048 0.03400457 0.01664150
v 0.03094118 0.03372119 0.01706111
v 0.03222252 0.03294586 0.01776787
v 0.02382657 0.02878548 0.03162843
v 0.00167860 0.02479028 0.04001828
v -0.00100914 0.02878549 0.03953316
v 0.00779387 0.02878548 0.03879216
v 0.01621383 0.02878548 0.03611237
v -0.00975856 0.02878549 0.03829866
v -0.01801515 0.02878549 0.03514983
v -0.01504755 0.02479070 0.03707049
v -0.03143675 0.02878548 0.02383263
v -0.02928033 0.02479113 0.02719365
v -0.02536642 0.02878549 0.03024318
v -0.03593473 0.02878547 0.01622687
v -0.03648810 0.02479145 0.01621503
v -0.03862927 0.02878548 0.00781166
v -0.03986643 0.02579151 0.00083086
v -0.03939183 0.02878547 0.00082158
v -0.03781420 0.03183817 0.00079073
v -0.03310382 0.03424874 0.00069864
v -0.02951105 0.03436291 0.01074800
v -0.03444048 0.03373253 0.00697216
v -0.03203737 0.03373253 0.01447718
v -0.02429656 0.03436291 0.01997583
v -0.02179104 0.03436290 0.02269953
v -0.02261212 0.03373253 0.02697749
v -0.02171463 0.03436290 0.02277313
v -0.01881571 0.03436290 0.02523763
v -0.01605593 0.03373253 0.03135346
v -0.01446286 0.03436290 0.02797869
v -0.00990201 0.03436290 0.02991835
v -0.00869224 0.03373253 0.03416176
v 0.00994981 0.03436291 0.02996903
v 0.00001955 0.03436291 0.03154668
v 0.01888684 0.03436291 0.02533386
v 0.01471085 0.03436290 0.02795384
v 0.01447105 0.03373254 0.03221193
v 0.01294952 0.03436290 0.02880659
v 0.02275355 0.03436290 0.02193387
v 0.02676141 0.03373252 0.02307357
v 0.02126042 0.03373253 0.02821294
v -0.03512058 0.03373253 0.00073807
v -0.02802588 0.03373253 0.02126030
v -0.03449520 0.03183818 0.01558061
v -0.03017692 0.03183818 0.02288251
v -0.02434910 0.03183819 0.02903696
v -0.00936470 0.03183819 0.03677066
v -0.00088923 0.03373253 0.03526273
v 0.00748653 0.03183819 0.03724444
v 0.01557013 0.03183818 0.03467171
v 0.02287874 0.03183818 0.03036688
v -0.03708210 0.03183817 0.00750159
v -0.01729150 0.03183818 0.03374760
v -0.00096486 0.03183819 0.03795583
v -0.03508653 -0.03381233 -0.08013921
v -0.03539591 -0.03397089 -0.07100525
v -0.03451279 -0.03455788 -0.07290219
v -0.03319153 -0.03474545 -0.06296980
v -0.01836097 -0.03524430 -0.05073683
v -0.01842315 -0.03516193 -0.05056701
v -0.02395491 -0.03509682 -0.05219082
v -0.02102929 -0.03526247 -0.05159450
v -0.01973834 -0.03529232 -0.05142027
v -0.02721940 -0.03509995 -0.05452247
v -0.02606800 -0.03513838 -0.05367597
v -0.02717447 -0.03510170 -0.05448972
v -0.02436193 -0.03519655 -0.05292726
v -0.02375470 -0.03520828 -0.05256152
v -0.02196424 -0.03525434 -0.05201428
v -0.03358248 -0.03470544 -0.06395268
v -0.03275758 -0.03478079 -0.06144161
v -0.03447621 -0.03457782 -0.07116015
v -0.03421591 -0.03451089 -0.08004629
v -0.03411181 -0.03452548 -0.08003549
v -0.03552248 -0.03343471 -0.07222884
v -0.03511158 -0.03352538 -0.06688198
v -0.03434491 -0.03412617 -0.06361242
v -0.03500292 -0.03442706 -0.07108954
v -0.03454776 -0.03452347 -0.07560382
v -0.03457408 -0.03456472 -0.07114857
v -0.03427537 -0.03462290 -0.06752400
v -0.03398398 -0.03457557 -0.06379460
v -0.03411554 -0.03464412 -0.06711933
v -0.03193730 -0.03474572 -0.05883266
v -0.03158502 -0.03486850 -0.05907155
v -0.03150027 -0.03487786 -0.05912735
v -0.02957066 -0.03499252 -0.05656266
v -0.03006120 -0.03496204 -0.05694901
v -0.02846712 -0.03493885 -0.05481371
v -0.02818689 -0.03505489 -0.05512848
v -0.03472003 -0.03432711 -0.08009933
v -0.03420321 -0.03439009 -0.06369428
v -0.03213010 -0.03456294 -0.05869247
v -0.02862563 -0.03475856 -0.05463769
v -0.03499536 -0.03402992 -0.08012909
v -0.03489036 -0.03417994 -0.08011764
v -0.03523915 -0.03423789 -0.07104642
v -0.03948298 0.01751482 0.00536023
v -0.02924418 0.01751482 0.02714062
v -0.03412493 0.01751482 0.02063266
v -0.03758573 0.01751482 0.01327072
v -0.02580592 0.01786292 0.03052721
v -0.02314597 0.01751482 0.03252460
v -0.01126362 0.01786293 0.03840141
v -0.01608331 0.01751482 0.03656120
v -0.00834922 0.01751482 0.03908296
v -0.00026459 0.01751482 0.03998525
v 0.00783515 0.01751483 0.03923063
v -0.02300995 0.01715249 0.03233458
v -0.01598861 0.01715249 0.03634756
v -0.03547808 -0.03334796 -0.07067193
v -0.03552974 -0.03334879 -0.07351432
v -0.02862550 0.03436291 0.01294543
v -0.02735682 0.03436290 0.01547809
v -0.00776196 0.03436290 0.03055248
v -0.00489293 0.03436291 0.03115113
v 0.00516640 0.03436290 0.03113925
v -0.01798979 -0.03531226 -0.05107055
v -0.01821508 -0.03529397 -0.05091431
v -0.03058195 -0.03475058 -0.09948860
v -0.03100882 -0.03463185 -0.09952675
v -0.02614640 -0.03495461 -0.11526341
v -0.02909726 -0.03486513 -0.10491185
v -0.02563833 -0.03507515 -0.11542992
v -0.03445993 -0.03418730 -0.08344887
v -0.03180705 -0.03465341 -0.09425244
v -0.03413956 -0.03441631 -0.08343574
v -0.01569009 -0.03498641 -0.13695613
v -0.01897963 -0.03570045 -0.10380503
v -0.00413272 -0.03548913 -0.12461200
v -0.00833947 -0.03581747 -0.08233169
v -0.00732215 -0.03588642 -0.09727720
v -0.00524272 -0.03573181 -0.11534932
v -0.01038899 -0.03555495 -0.12526767
v -0.01790202 -0.03568185 -0.11487319
v -0.01680915 -0.03548941 -0.12592693
v -0.00816788 -0.03416953 -0.14732353
v -0.00928344 -0.03506969 -0.13631305
v -0.03370956 0.03449407 -0.08341813
v -0.03316631 0.03451569 -0.08704223
v -0.03368204 0.03433944 -0.08706923
v -0.03390906 0.03435696 -0.08525413
v -0.03462444 0.03387577 -0.08345516
v -0.03447245 0.03411288 -0.08344938
v -0.03433344 0.03424373 -0.08344377
v -0.03420052 0.03433146 -0.08343827
v -0.00861292 -0.03563049 -0.06566908
v -0.03170444 -0.03486385 -0.05948010
v -0.03370975 -0.03453151 -0.08341756
v -0.02517135 0.03529140 -0.08302929
v -0.02169892 0.03541337 -0.07794059
v -0.03417081 0.03436364 -0.07967266
v -0.00861004 0.03563348 -0.07157886
v -0.03575829 0.03244799 -0.07357351
v -0.03568279 0.03291945 -0.07355492
v -0.03530373 0.03310182 -0.07885403
v -0.03548649 0.03328504 -0.07354508
v -0.03513974 -0.03354245 -0.08014530
v -0.03452891 -0.03442658 -0.08007905
v -0.03011322 0.03462418 -0.10291526
v -0.03182996 0.03460126 -0.09412858
v -0.02490758 0.03491727 -0.11864761
v -0.02536350 0.03521171 -0.10443153
v -0.01898153 0.03564096 -0.10380730
v -0.00816976 0.03409665 -0.14732459
v -0.00928465 0.03499771 -0.13631426
v -0.00478952 0.03558216 -0.11892512
v -0.01038967 0.03548420 -0.12526919
v -0.00833946 0.03574430 -0.08233168
v -0.00929228 0.03574616 -0.08236989
v -0.02921537 0.03479375 -0.10449588
v -0.01681073 0.03542085 -0.12592816
v -0.01569201 0.03491462 -0.13695699
v -0.01683097 0.03470367 -0.13812827
v -0.02573444 0.03500209 -0.11513690
v -0.00024752 -0.01712104 -0.31212702
v 0.00056418 -0.01874471 -0.30974522
v 0.00325135 -0.01903654 -0.30920464
v 0.00359944 -0.01892870 -0.31018135
v 0.00695669 -0.01928172 -0.30826923
v 0.00541049 -0.01926581 -0.30812716
v 0.00628920 -0.01935601 -0.30746657
v -0.00023347 -0.01820328 -0.31139132
v -0.00022061 -0.01852338 -0.31074128
v 0.00941044 -0.01951808 -0.30526900
v 0.00752654 -0.01947794 -0.30621654
v -0.00024510 -0.01747291 -0.31199190
v 0.00266341 0.01889972 -0.30939016
v -0.00024562 0.01704900 -0.31212676
v 0.00940360 0.01944242 -0.30529448
v 0.00743295 0.01939573 -0.30632773
v 0.00692371 0.01920323 -0.30830580
v 0.00527377 0.01917833 -0.30821609
v -0.00023803 0.01781715 -0.31172523
v 0.00353420 0.01884648 -0.31021085
v -0.00023609 0.01792836 -0.31162465
v -0.00136491 0.01846312 -0.30967057
v -0.00019691 0.01858903 -0.30975989
v -0.00335308 0.01673275 -0.31164542
v -0.00024572 0.01703010 -0.31213233
v -0.00962630 0.01753328 -0.30496153
v -0.00796675 0.01765088 -0.30732831
v -0.00621890 0.01797609 -0.30754450
v -0.00573093 0.01785432 -0.30916256
v -0.00377629 0.01821123 -0.30901012
v -0.01229685 0.01604105 -0.29988948
v -0.00870330 0.01624037 -0.30842125
v -0.00623825 0.01645463 -0.31038278
v -0.00024633 0.01691640 -0.31216273
v -0.00605850 0.01731264 -0.30992246
v -0.00843927 0.01709746 -0.30800337
v -0.01184741 0.01693481 -0.29969713
v -0.01132772 0.01692742 -0.30269468
v -0.00022575 0.01831234 -0.31109005
v -0.00308229 0.01812783 -0.31033295
v -0.00325771 0.01759765 -0.31115723
v -0.01023397 0.01696867 -0.30553350
v -0.01174201 0.01605922 -0.30297863
v -0.01057906 0.01610858 -0.30589470
v -0.00335386 -0.01679091 -0.31165007
v -0.00961627 -0.01761199 -0.30495247
v -0.00307931 -0.01820572 -0.31032011
v -0.00021364 -0.01861104 -0.31036797
v -0.00795889 -0.01772940 -0.30731758
v -0.00733676 -0.01795390 -0.30647111
v -0.00572543 -0.01793257 -0.30915058
v -0.00542758 -0.01812235 -0.30812767
v -0.00265264 -0.01840013 -0.30940396
v -0.00623983 -0.01651279 -0.31038737
v -0.00870572 -0.01629849 -0.30842561
v -0.01058232 -0.01616668 -0.30589858
v -0.01147032 -0.01508263 -0.30432293
v -0.01174599 -0.01611726 -0.30298170
v -0.01230114 -0.01609880 -0.29989159
v -0.00023799 -0.01800075 -0.31162521
v -0.00325777 -0.01767028 -0.31115785
v -0.01023437 -0.01704129 -0.30553398
v -0.01132822 -0.01700002 -0.30269501
v -0.00605868 -0.01738526 -0.30992305
v -0.00843956 -0.01717009 -0.30800387
v -0.01184797 -0.01700739 -0.29969740
v -0.00430943 -0.00823658 -0.31147936
v -0.00134081 -0.00823665 -0.31218752
v -0.00240029 -0.00823663 -0.31202433
v -0.00529407 -0.00823662 -0.31105995
v 0.03405879 0.03396105 0.00891250
v 0.03558237 0.03324213 0.00940840
v 0.03136363 -0.03432294 -0.13400827
v 0.03153303 -0.03445846 -0.13123444
v 0.03234087 -0.03372719 -0.14231165
v 0.03204144 -0.03378824 -0.14176100
v 0.01713549 -0.03340777 -0.15281619
v 0.03128271 -0.03400779 -0.13930589
v 0.03124239 -0.03421343 -0.13605618
v 0.01384235 -0.03510552 -0.13015163
v 0.01437964 -0.03565558 -0.10702129
v 0.03509653 -0.03519944 -0.09146833
v 0.03514645 -0.03519895 -0.09104789
v 0.03295515 -0.03504246 -0.11230435
v 0.03162440 -0.03452285 -0.12980193
v 0.02598188 -0.03477170 -0.13042448
v 0.03267780 -0.03366354 -0.14284043
v 0.03098941 -0.03287370 -0.15314706
v 0.03316815 -0.03357579 -0.14349866
v 0.03266847 0.03359260 -0.14290026
v 0.03883068 0.03243680 -0.14814940
v 0.04019173 0.03207985 -0.14912312
v 0.01542150 0.03525491 -0.06128184
v -0.00725376 0.03581269 -0.09800096
v 0.03158570 0.03445652 -0.12982109
v 0.03199389 0.03372453 -0.14176004
v 0.03141101 0.03387418 -0.14017536
v 0.02595613 0.03470521 -0.13042177
v 0.03139733 0.03431692 -0.13283129
v 0.02649222 0.03531799 -0.10729584
v 0.03391778 0.03510128 -0.10179808
v 0.03199531 0.03468655 -0.12384086
v 0.03629812 0.03508779 -0.08168171
v 0.01436271 0.03558705 -0.10701866
v 0.01382541 0.03503849 -0.13014905
v 0.01381501 0.03338720 -0.15272032
v 0.03505716 0.03513081 -0.09148778
v 0.04301113 -0.03113408 -0.15107685
v 0.04315626 0.03099620 -0.15121961
v 0.03097472 -0.03490786 -0.04469039
v -0.01017361 0.01570615 0.03767215
v -0.01981898 0.01569962 0.03357910
v 0.03114616 0.03406901 -0.13742961
v 0.04361356 -0.03449617 -0.04108704
v 0.03785322 -0.03505019 -0.07121655
v 0.03120741 -0.03405879 -0.13859659
v 0.03472144 0.03323919 -0.14513661
f 620 618 621
f 621 745 620
f 620 745 396
f 492 540 539
f 488 530 540
f 271 488 540
f 209 219 148
f 148 149 209
f 115 91 117
f 117 138 139
f 111 91 115
f 220 219 214
f 398 582 583
f 583 776 398
f 611 27 710
f 29 30 674
f 167 190 186
f 393 636 394
f 393 394 392
f 86 87 187
f 621 618 624
f 540 530 526
f 526 539 540
f 526 522 486
f 486 538 526
f 526 538 539
f 336 522 526
f 529 488 491
f 530 488 529
f 275 736 491
f 600 545 485
f 690 702 360
f 439 691 690
f 632 25 645
f 24 25 702
f 119 117 139
f 735 124 123
f 126 119 139
f 242 243 1
f 242 237 243
f 270 271 540
f 488 271 273
f 151 38 13
f 148 219 208
f 208 219 220
f 220 150 208
f 691 441 692
f 628 639 652
f 764 769 768
f 249 258 248
f 139 138 248
f 248 138 249
f 257 258 249
f 217 246 257
f 246 245 257
f 257 245 258
f 264 119 121
f 117 119 264
f 249 138 137
f 91 116 137
f 137 117 91
f 138 117 137
f 213 214 215
f 220 214 213
f 215 214 221
f 91 107 90
f 90 116 91
f 215 221 90
f 90 221 116
f 109 107 108
f 545 566 565
f 550 776 578
f 776 583 578
f 578 583 582
f 612 367 611
f 611 367 369
f 369 27 611
f 367 27 369
f 17 16 33
f 33 29 31
f 402 732 403
f 432 403 733
f 403 732 733
f 733 430 432
f 732 430 733
f 405 406 403
f 726 710 727
f 31 29 669
f 669 29 674
f 462 592 776
f 465 592 462
f 28 37 307
f 174 85 86
f 175 85 174
f 86 187 174
f 167 186 174
f 174 187 167
f 395 394 636
f 395 620 396
f 395 636 620
f 204 188 167
f 167 188 189
f 189 190 167
f 88 187 87
f 87 68 88
f 396 745 779
f 622 745 621
f 621 624 622
f 716 434 435
f 611 710 435
f 495 538 494
f 490 529 491
f 489 529 490
f 491 736 490
f 490 736 735
f 735 489 490
f 736 275 274
f 633 25 632
f 531 641 508
f 398 776 598
f 598 592 398
f 776 592 598
f 362 690 360
f 361 690 362
f 360 649 362
f 23 350 355
f 355 24 23
f 350 506 355
f 644 645 25
f 25 24 644
f 644 507 508
f 643 644 24
f 506 507 643
f 507 644 643
f 130 263 735
f 735 123 130
f 128 263 130
f 141 140 236
f 124 140 141
f 141 123 124
f 128 130 141
f 141 130 123
f 129 140 124
f 121 119 120
f 119 126 120
f 120 126 118
f 118 736 120
f 236 140 255
f 243 237 253
f 253 261 243
f 241 238 237
f 1 237 239
f 239 242 1
f 237 242 239
f 212 213 215
f 62 63 94
f 94 63 97
f 269 270 540
f 269 540 492
f 492 267 269
f 271 270 104
f 104 100 107
f 491 488 276
f 488 273 276
f 276 273 102
f 276 275 491
f 247 246 217
f 217 209 247
f 36 37 28
f 38 37 36
f 14 13 36
f 36 13 38
f 14 9 11
f 11 13 14
f 11 208 150
f 11 150 151
f 151 13 11
f 148 208 11
f 11 149 148
f 246 247 11
f 11 209 149
f 11 247 209
f 11 245 246
f 147 38 151
f 147 146 38
f 38 146 145
f 440 691 439
f 440 441 691
f 444 692 441
f 3 9 8
f 8 12 3
f 439 690 651
f 361 362 651
f 651 690 361
f 653 652 639
f 339 489 340
f 339 529 489
f 766 764 229
f 313 136 224
f 767 136 313
f 313 764 768
f 768 767 313
f 115 117 122
f 117 264 122
f 116 221 222
f 249 137 222
f 222 137 116
f 222 257 249
f 105 107 91
f 105 108 107
f 554 557 550
f 550 578 554
f 613 624 618
f 618 612 613
f 613 612 611
f 625 624 613
f 611 435 613
f 32 33 31
f 17 33 32
f 32 430 732
f 32 732 17
f 34 33 16
f 29 33 34
f 698 402 403
f 403 406 688
f 688 698 403
f 692 444 694
f 404 403 432
f 404 405 403
f 422 718 719
f 719 423 422
f 406 427 431
f 431 718 422
f 406 405 734
f 734 427 406
f 734 431 427
f 432 431 734
f 432 430 709
f 676 725 709
f 709 725 718
f 709 431 432
f 718 431 709
f 450 495 452
f 452 495 494
f 450 452 448
f 456 494 497
f 497 457 456
f 179 190 169
f 190 189 169
f 169 189 307
f 287 298 69
f 298 68 69
f 69 68 87
f 69 87 86
f 86 76 69
f 66 54 49
f 49 56 57
f 176 85 175
f 84 78 176
f 78 67 176
f 618 620 558
f 170 189 188
f 307 189 170
f 196 204 203
f 188 204 196
f 745 622 744
f 745 744 748
f 745 205 746
f 70 68 298
f 70 88 68
f 70 298 287
f 396 779 774
f 774 395 396
f 394 395 774
f 774 70 608
f 774 392 394
f 717 434 716
f 717 712 434
f 716 435 714
f 625 613 433
f 433 613 435
f 497 494 543
f 543 536 497
f 494 538 543
f 543 538 486
f 518 536 521
f 530 338 524
f 524 337 530
f 338 337 524
f 525 526 530
f 530 337 525
f 658 337 338
f 338 339 658
f 336 337 658
f 658 339 340
f 658 757 768
f 449 495 450
f 450 448 449
f 449 448 447
f 496 267 492
f 496 266 267
f 446 266 496
f 492 539 496
f 539 538 496
f 538 495 496
f 496 449 446
f 495 449 496
f 445 296 446
f 445 449 447
f 446 449 445
f 320 445 447
f 296 445 320
f 265 266 446
f 96 266 265
f 99 274 275
f 628 652 660
f 660 362 649
f 590 566 582
f 397 582 398
f 397 590 582
f 475 590 397
f 628 629 631
f 388 356 25
f 25 633 388
f 388 633 356
f 635 641 628
f 628 631 635
f 508 641 634
f 641 635 634
f 630 358 634
f 634 631 630
f 634 635 631
f 531 511 509
f 628 641 509
f 641 531 509
f 467 592 465
f 19 417 416
f 20 417 19
f 19 349 20
f 21 417 20
f 22 417 21
f 695 22 23
f 695 417 22
f 23 24 695
f 706 690 691
f 702 690 706
f 541 531 508
f 541 511 531
f 25 356 357
f 357 358 25
f 356 633 357
f 633 634 357
f 357 634 358
f 702 25 359
f 25 358 359
f 360 702 359
f 359 630 360
f 359 358 630
f 389 355 506
f 24 355 389
f 506 643 389
f 646 644 508
f 508 634 646
f 646 634 633
f 646 633 632
f 632 645 646
f 645 644 646
f 125 129 124
f 125 124 735
f 735 736 125
f 118 126 127
f 126 129 127
f 129 125 127
f 127 736 118
f 127 125 736
f 259 248 258
f 139 248 259
f 261 253 262
f 236 255 262
f 262 255 261
f 237 238 254
f 254 253 237
f 254 262 253
f 232 262 254
f 773 241 237
f 113 100 97
f 113 212 215
f 97 212 113
f 215 90 113
f 113 90 107
f 107 100 113
f 112 212 97
f 97 63 112
f 112 63 92
f 93 94 97
f 93 100 96
f 97 100 93
f 96 265 93
f 93 265 94
f 103 273 271
f 271 104 103
f 102 273 103
f 103 107 102
f 103 104 107
f 96 100 95
f 267 266 95
f 95 266 96
f 270 269 272
f 272 104 270
f 100 104 272
f 15 16 8
f 8 9 15
f 15 9 14
f 243 245 244
f 245 11 244
f 1 243 244
f 244 11 1
f 38 145 144
f 144 145 154
f 161 145 146
f 154 145 161
f 154 161 160
f 160 161 163
f 65 54 66
f 185 184 175
f 175 174 185
f 185 174 186
f 155 153 154
f 166 184 192
f 184 185 192
f 768 769 656
f 769 657 656
f 441 440 442
f 442 444 441
f 6 16 17
f 7 4 6
f 8 16 6
f 9 3 10
f 401 3 400
f 400 3 12
f 654 681 682
f 770 400 679
f 679 400 12
f 640 653 639
f 326 659 640
f 659 653 640
f 652 653 661
f 661 440 439
f 486 606 334
f 518 331 519
f 528 339 338
f 529 339 528
f 528 338 530
f 530 529 528
f 342 136 767
f 128 141 142
f 224 136 142
f 236 224 142
f 142 141 236
f 218 209 217
f 217 257 218
f 257 222 218
f 91 111 106
f 106 105 91
f 556 554 618
f 557 554 556
f 618 558 556
f 556 558 557
f 582 566 581
f 581 566 545
f 612 572 561
f 561 572 570
f 374 375 26
f 26 375 376
f 727 370 26
f 430 32 665
f 665 32 676
f 665 709 430
f 676 709 665
f 676 32 724
f 672 725 724
f 724 725 676
f 31 672 724
f 724 32 31
f 402 698 18
f 17 732 18
f 732 402 18
f 18 6 17
f 7 6 18
f 689 688 678
f 698 688 689
f 678 18 689
f 689 18 698
f 691 692 693
f 692 694 693
f 422 423 429
f 429 408 422
f 423 719 720
f 718 725 728
f 728 719 718
f 432 734 731
f 731 734 405
f 731 404 432
f 405 404 731
f 675 669 674
f 671 669 675
f 550 549 321
f 42 63 62
f 42 320 43
f 62 296 42
f 296 320 42
f 64 43 54
f 54 65 64
f 63 42 64
f 64 42 43
f 451 448 452
f 453 596 451
f 451 596 399
f 455 456 453
f 494 456 455
f 775 399 595
f 775 776 550
f 593 775 595
f 459 457 497
f 595 399 454
f 399 596 454
f 454 457 595
f 454 456 457
f 453 456 454
f 454 596 453
f 179 169 308
f 308 169 37
f 182 307 37
f 182 169 307
f 57 56 284
f 85 176 73
f 73 176 67
f 75 76 86
f 86 85 75
f 85 73 75
f 56 49 286
f 80 57 81
f 81 67 80
f 80 67 78
f 175 184 177
f 177 176 175
f 84 176 177
f 551 549 550
f 550 557 551
f 557 558 551
f 749 738 188
f 188 196 749
f 619 744 622
f 171 170 188
f 188 738 197
f 206 205 745
f 745 748 206
f 747 779 745
f 745 746 747
f 300 779 747
f 207 747 746
f 300 747 207
f 187 88 207
f 70 774 778
f 434 667 670
f 670 669 671
f 434 712 666
f 666 667 434
f 712 667 666
f 31 669 668
f 668 667 712
f 669 670 668
f 668 670 667
f 712 717 711
f 711 725 672
f 711 728 725
f 711 717 716
f 713 435 710
f 713 714 435
f 710 726 713
f 716 714 713
f 520 331 518
f 518 521 520
f 536 543 537
f 537 521 536
f 537 543 486
f 486 334 537
f 527 337 336
f 527 525 337
f 336 526 527
f 526 525 527
f 447 295 297
f 297 320 447
f 43 320 297
f 446 296 324
f 324 265 446
f 94 265 324
f 324 296 62
f 62 94 324
f 280 264 121
f 280 122 264
f 115 122 280
f 280 111 115
f 280 281 107
f 736 274 278
f 101 99 275
f 101 276 102
f 275 276 101
f 102 107 101
f 107 99 101
f 650 660 649
f 650 629 628
f 628 660 650
f 650 649 360
f 360 630 650
f 630 631 650
f 650 631 629
f 664 651 362
f 362 660 664
f 664 660 652
f 652 661 664
f 439 651 664
f 664 661 439
f 513 328 487
f 514 328 513
f 587 565 566
f 343 639 628
f 628 509 343
f 469 466 468
f 476 590 475
f 468 466 501
f 501 500 468
f 465 462 464
f 464 467 465
f 348 19 347
f 349 19 348
f 348 347 485
f 485 349 348
f 419 421 418
f 419 19 416
f 418 19 419
f 418 421 722
f 722 726 727
f 722 720 726
f 415 413 421
f 416 417 415
f 417 413 415
f 701 24 702
f 702 695 701
f 701 695 24
f 707 413 417
f 417 695 707
f 707 695 702
f 702 706 707
f 407 431 422
f 406 431 407
f 407 408 406
f 406 408 697
f 697 688 406
f 699 705 697
f 697 705 688
f 696 408 410
f 699 697 696
f 696 697 408
f 487 603 532
f 532 513 487
f 514 513 532
f 508 507 505
f 505 541 508
f 505 476 503
f 479 476 505
f 22 21 363
f 20 349 363
f 363 21 20
f 377 26 376
f 19 26 377
f 485 347 344
f 347 346 344
f 344 346 345
f 354 643 24
f 24 389 354
f 354 389 643
f 260 259 258
f 243 261 260
f 261 255 260
f 255 259 260
f 260 245 243
f 258 245 260
f 256 255 140
f 256 259 255
f 140 129 256
f 256 129 126
f 256 126 139
f 139 259 256
f 227 262 232
f 227 232 766
f 766 229 227
f 238 756 310
f 240 237 1
f 1 773 240
f 240 773 237
f 268 269 267
f 268 272 269
f 267 95 268
f 268 95 100
f 100 272 268
f 28 30 39
f 39 15 14
f 30 29 41
f 29 34 41
f 41 34 16
f 16 15 41
f 38 144 143
f 143 144 154
f 143 153 38
f 154 153 143
f 156 160 163
f 163 161 159
f 159 158 163
f 159 161 146
f 146 147 159
f 157 112 92
f 213 212 157
f 212 112 157
f 194 155 166
f 166 192 194
f 153 155 194
f 38 153 194
f 179 192 191
f 191 192 185
f 191 190 179
f 191 186 190
f 191 185 186
f 766 232 759
f 232 763 759
f 762 759 763
f 766 759 762
f 762 764 766
f 769 764 762
f 758 653 659
f 659 658 758
f 758 656 657
f 758 658 768
f 768 656 758
f 657 661 758
f 758 661 653
f 5 4 681
f 5 679 12
f 5 12 8
f 8 6 5
f 5 6 4
f 2 10 755
f 2 756 238
f 1 11 2
f 238 241 2
f 2 11 9
f 9 10 2
f 2 773 1
f 241 773 2
f 755 10 251
f 781 3 401
f 781 10 3
f 781 251 10
f 681 654 680
f 680 654 770
f 770 679 680
f 680 5 681
f 679 5 680
f 682 437 662
f 662 654 682
f 662 437 438
f 438 663 662
f 444 442 662
f 662 442 440
f 440 661 662
f 327 659 326
f 327 328 659
f 487 328 327
f 327 603 487
f 659 328 329
f 329 328 514
f 514 516 329
f 659 331 332
f 331 520 332
f 335 658 659
f 336 658 335
f 335 334 606
f 335 522 336
f 486 522 335
f 335 606 486
f 735 342 341
f 340 489 341
f 341 489 735
f 341 342 767
f 341 658 340
f 757 658 341
f 341 767 768
f 768 757 341
f 312 313 224
f 224 225 312
f 312 225 764
f 764 225 765
f 209 218 216
f 216 221 214
f 216 222 221
f 216 218 222
f 219 209 216
f 216 214 219
f 609 610 612
f 609 615 610
f 612 561 609
f 609 561 546
f 610 615 616
f 571 581 586
f 586 581 545
f 559 571 570
f 559 560 571
f 570 572 559
f 374 26 373
f 601 375 374
f 376 375 601
f 601 377 376
f 485 379 601
f 584 26 382
f 584 586 545
f 585 586 584
f 678 688 683
f 688 705 683
f 683 18 678
f 443 694 444
f 443 663 694
f 444 662 443
f 443 662 663
f 426 423 410
f 426 429 423
f 410 423 412
f 423 425 412
f 412 425 414
f 414 413 412
f 412 413 410
f 424 413 414
f 421 413 424
f 423 720 721
f 721 425 423
f 721 722 421
f 720 722 721
f 421 424 721
f 414 425 721
f 721 424 414
f 54 43 58
f 58 59 54
f 43 297 58
f 295 59 58
f 58 297 295
f 294 59 295
f 597 451 399
f 448 451 597
f 399 293 597
f 293 294 597
f 597 294 295
f 597 295 447
f 447 448 597
f 493 455 453
f 453 451 493
f 493 451 452
f 493 452 494
f 494 455 493
f 550 321 322
f 322 775 550
f 321 323 322
f 595 457 458
f 458 593 595
f 457 459 458
f 458 459 593
f 594 593 460
f 775 593 594
f 594 462 776
f 594 460 462
f 460 593 499
f 593 459 499
f 499 459 497
f 307 170 168
f 28 307 168
f 180 37 179
f 179 308 180
f 180 308 37
f 37 169 772
f 772 182 37
f 169 182 772
f 76 284 285
f 287 69 285
f 285 69 76
f 285 284 56
f 285 286 287
f 56 286 285
f 74 284 76
f 72 284 74
f 76 75 74
f 74 73 72
f 74 75 73
f 81 57 283
f 57 284 283
f 71 284 72
f 72 73 71
f 81 283 71
f 71 283 284
f 71 67 81
f 71 73 67
f 288 49 55
f 288 286 49
f 287 286 288
f 288 321 287
f 55 321 288
f 79 77 57
f 57 80 79
f 78 77 79
f 79 80 78
f 57 77 44
f 44 49 57
f 66 49 83
f 83 77 78
f 548 551 608
f 549 551 548
f 608 70 548
f 548 70 287
f 287 321 548
f 548 321 549
f 552 551 558
f 620 636 552
f 552 558 620
f 608 551 552
f 671 675 626
f 623 627 744
f 744 619 623
f 625 627 623
f 623 619 622
f 623 624 625
f 623 622 624
f 172 170 305
f 170 171 305
f 28 172 305
f 305 30 28
f 305 171 30
f 205 206 173
f 173 207 205
f 187 207 173
f 167 187 173
f 173 204 167
f 203 204 302
f 302 748 203
f 302 206 748
f 204 173 302
f 302 173 206
f 301 746 205
f 205 207 301
f 301 207 746
f 88 778 89
f 89 207 88
f 89 779 300
f 300 207 89
f 88 70 299
f 299 778 88
f 70 778 299
f 673 711 672
f 712 711 673
f 673 668 712
f 673 672 31
f 31 668 673
f 719 728 729
f 729 713 726
f 726 720 729
f 729 720 719
f 715 711 716
f 716 713 715
f 728 711 715
f 715 729 728
f 713 729 715
f 279 280 107
f 111 280 279
f 279 106 111
f 105 106 279
f 109 108 279
f 108 105 279
f 736 278 282
f 282 120 736
f 121 120 282
f 282 280 121
f 281 280 282
f 277 278 274
f 485 545 481
f 545 565 481
f 565 587 481
f 590 476 477
f 477 476 479
f 566 590 477
f 602 327 326
f 603 327 602
f 325 509 326
f 325 343 509
f 326 640 325
f 325 640 639
f 639 343 325
f 475 397 473
f 504 476 475
f 475 473 504
f 504 473 474
f 504 474 503
f 503 476 504
f 467 501 591
f 592 467 591
f 398 592 591
f 462 460 461
f 460 499 461
f 467 464 502
f 535 500 502
f 502 501 467
f 500 501 502
f 420 419 416
f 421 419 420
f 416 415 420
f 420 415 421
f 727 26 730
f 418 722 723
f 723 19 418
f 723 26 19
f 723 730 26
f 723 722 727
f 727 730 723
f 708 707 706
f 708 696 410
f 410 413 708
f 413 707 708
f 409 407 422
f 408 407 409
f 700 706 691
f 699 696 700
f 700 708 706
f 696 708 700
f 691 693 700
f 700 693 699
f 511 541 533
f 533 505 503
f 541 505 533
f 503 500 533
f 515 516 514
f 514 532 515
f 517 329 515
f 515 329 516
f 518 517 515
f 515 535 518
f 515 532 535
f 482 507 506
f 482 505 507
f 353 350 23
f 353 506 350
f 23 22 366
f 366 351 23
f 506 351 366
f 345 346 385
f 385 344 345
f 385 346 347
f 347 19 385
f 19 387 385
f 226 227 229
f 226 224 236
f 236 262 226
f 262 227 226
f 755 251 252
f 252 310 756
f 252 254 238
f 238 310 252
f 232 254 252
f 35 36 28
f 28 39 35
f 14 36 35
f 35 39 14
f 40 39 30
f 30 41 40
f 15 39 40
f 40 41 15
f 152 156 163
f 163 158 152
f 152 65 66
f 66 156 152
f 162 156 66
f 66 83 162
f 162 78 84
f 162 83 78
f 223 147 151
f 223 159 147
f 223 150 220
f 151 150 223
f 181 194 192
f 181 192 179
f 179 37 181
f 181 37 38
f 232 317 231
f 228 763 232
f 232 233 228
f 754 781 401
f 401 400 754
f 754 400 760
f 760 317 754
f 251 781 318
f 232 252 318
f 318 252 251
f 654 662 655
f 770 654 655
f 769 770 655
f 655 657 769
f 655 661 657
f 655 662 661
f 330 331 659
f 659 329 330
f 330 329 517
f 330 519 331
f 330 517 518
f 518 519 330
f 604 520 521
f 604 332 520
f 311 142 136
f 136 342 311
f 764 313 771
f 771 312 764
f 313 312 771
f 563 615 568
f 615 609 568
f 568 609 546
f 610 616 371
f 371 616 370
f 371 370 727
f 638 616 615
f 570 571 567
f 571 586 567
f 571 560 573
f 573 578 582
f 573 577 578
f 582 581 573
f 573 581 571
f 579 554 578
f 578 577 579
f 560 559 547
f 547 612 618
f 547 572 612
f 547 559 572
f 378 601 379
f 377 601 378
f 379 387 378
f 19 377 378
f 378 387 19
f 564 600 485
f 485 601 564
f 545 600 564
f 564 601 545
f 585 372 614
f 370 616 614
f 382 26 386
f 26 372 386
f 386 584 382
f 386 372 585
f 585 584 386
f 26 584 544
f 545 601 544
f 544 584 545
f 682 681 684
f 681 4 684
f 684 4 7
f 411 426 410
f 429 426 411
f 410 408 411
f 408 429 411
f 775 322 319
f 319 322 323
f 54 59 60
f 60 51 54
f 293 51 60
f 60 294 293
f 59 294 60
f 53 49 54
f 292 51 293
f 399 291 292
f 292 293 399
f 776 775 599
f 599 594 776
f 775 594 599
f 306 170 172
f 306 168 170
f 306 172 28
f 28 168 306
f 45 46 49
f 49 44 45
f 50 45 44
f 49 46 47
f 47 83 49
f 46 45 47
f 607 636 393
f 607 552 636
f 608 552 607
f 393 392 607
f 392 774 607
f 607 774 608
f 744 627 741
f 627 626 741
f 741 626 675
f 741 675 674
f 671 626 436
f 436 670 671
f 434 670 436
f 188 197 198
f 198 199 188
f 197 743 198
f 198 743 199
f 737 197 738
f 737 743 197
f 744 741 742
f 742 740 201
f 742 741 740
f 390 774 779
f 779 89 390
f 110 107 109
f 109 279 110
f 110 279 107
f 278 277 114
f 281 282 114
f 114 282 278
f 107 281 114
f 114 277 107
f 98 99 107
f 107 277 98
f 274 99 98
f 98 277 274
f 478 587 566
f 566 477 478
f 478 481 587
f 478 477 479
f 478 482 481
f 326 509 510
f 510 509 511
f 512 532 603
f 603 602 512
f 511 533 512
f 512 510 511
f 512 602 326
f 326 510 512
f 470 469 468
f 470 471 469
f 468 500 470
f 474 473 589
f 589 471 474
f 589 473 397
f 589 397 398
f 588 501 466
f 588 591 501
f 466 469 588
f 398 591 588
f 588 589 398
f 469 471 588
f 471 589 588
f 463 464 462
f 462 461 463
f 542 536 518
f 518 535 542
f 422 408 428
f 428 409 422
f 408 409 428
f 535 532 534
f 534 500 535
f 534 533 500
f 532 512 534
f 534 512 533
f 479 505 480
f 505 482 480
f 480 478 479
f 482 478 480
f 483 482 506
f 483 349 485
f 506 363 483
f 483 363 349
f 23 351 352
f 352 353 23
f 352 351 506
f 506 353 352
f 22 363 364
f 364 363 506
f 506 366 364
f 380 387 379
f 380 385 387
f 344 385 380
f 380 379 485
f 485 344 380
f 314 765 225
f 314 225 224
f 224 226 314
f 764 765 314
f 309 252 756
f 309 2 755
f 756 2 309
f 158 157 61
f 61 152 158
f 65 152 61
f 61 157 92
f 61 64 65
f 92 63 61
f 63 64 61
f 178 162 84
f 84 177 178
f 178 184 166
f 178 177 184
f 213 157 210
f 210 157 158
f 38 194 193
f 193 181 38
f 194 181 193
f 315 233 232
f 232 231 315
f 235 317 760
f 235 231 317
f 769 762 761
f 761 235 760
f 231 235 761
f 761 770 769
f 760 400 761
f 761 400 770
f 234 317 232
f 234 754 317
f 659 332 642
f 332 333 642
f 642 333 334
f 642 335 659
f 334 335 642
f 523 537 334
f 334 333 523
f 523 333 537
f 605 333 332
f 332 604 605
f 605 604 521
f 521 537 605
f 537 333 605
f 142 311 134
f 342 135 134
f 134 311 342
f 585 614 580
f 580 614 616
f 580 586 585
f 580 567 586
f 727 710 368
f 368 27 367
f 368 710 27
f 367 612 368
f 612 610 368
f 562 615 563
f 562 638 615
f 563 568 562
f 569 561 570
f 570 567 569
f 546 561 569
f 569 568 546
f 569 567 568
f 574 573 560
f 577 573 574
f 553 579 618
f 618 579 576
f 576 579 577
f 370 614 383
f 383 614 372
f 383 26 370
f 383 372 26
f 381 373 26
f 26 544 381
f 381 544 373
f 374 373 647
f 373 544 647
f 647 601 374
f 647 544 601
f 703 684 7
f 684 703 687
f 195 171 188
f 188 303 195
f 30 171 195
f 54 51 52
f 52 53 54
f 291 53 52
f 52 292 291
f 51 292 52
f 55 49 290
f 49 53 290
f 290 321 55
f 290 323 321
f 289 53 291
f 289 319 323
f 323 290 289
f 289 290 53
f 775 319 289
f 289 291 399
f 399 775 289
f 82 44 77
f 82 50 44
f 77 83 82
f 83 50 82
f 48 50 83
f 83 47 48
f 45 50 48
f 48 47 45
f 201 740 202
f 188 199 202
f 202 199 201
f 753 303 304
f 304 751 753
f 304 303 188
f 188 202 304
f 740 741 752
f 752 741 674
f 753 751 752
f 752 303 753
f 752 195 303
f 674 30 752
f 30 195 752
f 434 436 617
f 617 436 626
f 617 626 627
f 617 627 625
f 625 433 617
f 617 435 434
f 617 433 435
f 743 737 750
f 744 742 750
f 750 737 738
f 738 749 750
f 750 749 196
f 750 196 203
f 203 748 750
f 750 748 744
f 201 199 200
f 200 742 201
f 199 743 780
f 780 200 199
f 742 200 780
f 743 750 780
f 780 750 742
f 391 89 778
f 391 390 89
f 391 778 774
f 774 390 391
f 474 471 472
f 471 470 472
f 472 470 500
f 503 474 472
f 472 500 503
f 498 502 464
f 464 463 498
f 535 502 498
f 498 542 535
f 498 463 461
f 498 499 497
f 498 461 499
f 497 536 498
f 536 542 498
f 481 482 484
f 482 483 484
f 485 481 484
f 484 483 485
f 365 366 22
f 22 364 365
f 365 364 366
f 230 226 229
f 230 314 226
f 230 229 764
f 764 314 230
f 755 252 250
f 250 309 755
f 252 309 250
f 156 162 183
f 162 178 183
f 160 156 183
f 159 223 211
f 158 159 211
f 211 210 158
f 211 223 220
f 220 213 211
f 213 210 211
f 777 315 231
f 231 761 777
f 233 315 777
f 777 762 763
f 777 761 762
f 763 228 777
f 777 228 233
f 232 318 316
f 316 234 232
f 754 234 316
f 781 754 316
f 316 318 781
f 131 132 142
f 142 134 131
f 131 134 135
f 131 135 342
f 342 132 131
f 128 142 133
f 142 132 133
f 133 263 128
f 735 263 133
f 133 342 735
f 133 132 342
f 384 371 727
f 727 368 384
f 610 371 384
f 384 368 610
f 616 638 648
f 638 562 648
f 648 580 616
f 648 562 568
f 568 567 648
f 567 580 648
f 554 579 555
f 579 553 555
f 618 554 555
f 555 553 618
f 577 574 575
f 575 576 577
f 618 576 575
f 685 683 705
f 705 703 685
f 685 703 7
f 7 18 685
f 18 683 685
f 686 663 438
f 438 687 686
f 694 663 686
f 438 437 677
f 677 687 438
f 684 687 677
f 677 437 682
f 682 684 677
f 739 752 751
f 740 752 739
f 739 202 740
f 751 304 739
f 739 304 202
f 160 183 165
f 165 178 166
f 165 183 178
f 618 575 637
f 637 547 618
f 560 547 637
f 637 574 560
f 637 575 574
f 704 687 703
f 704 686 687
f 704 703 705
f 704 693 694
f 694 686 704
f 704 705 699
f 699 693 704
f 154 160 164
f 160 165 164
f 164 155 154
f 166 155 164
f 164 165 166

