# https://github.com/mikedh/trimesh
v 0.00000156 0.03249504 0.00810894
v 0.00000078 0.03195464 -0.00244758
v 0.03187579 -0.02621247 -0.10923951
v 0.03187590 0.02247824 -0.10923951
v -0.01305423 0.01288089 -0.10397057
v -0.02248970 0.01615668 -0.08723290
v -0.02382908 0.01649696 -0.08081807
v 0.00217123 0.00134325 -0.11239850
v -0.01611769 0.00136352 -0.10385076
v -0.03200595 0.00239390 -0.03615767
v -0.03180243 0.00290192 -0.04858174
v -0.03188007 0.00060283 -0.05175854
v -0.03149905 0.00060227 -0.06215453
v -0.03091589 0.00306513 -0.06813510
v -0.03093239 0.00060016 -0.06939600
v -0.03016369 0.00060043 -0.07531752
v -0.03014827 0.00297926 -0.07463992
v -0.02894321 0.00267581 -0.08108164
v -0.02917334 0.00059891 -0.08047032
v -0.02795873 0.00059855 -0.08502837
v -0.02720337 0.00059891 -0.08729878
v -0.02448049 0.00117356 -0.09344976
v -0.02492820 0.00059835 -0.09260822
v -0.02712292 0.00208597 -0.08739799
v -0.02654527 0.00059891 -0.08903504
v -0.02413068 0.00412536 -0.09364958
v -0.02085451 0.00059917 -0.09897900
v -0.01845838 0.00215813 -0.10163579
v -0.01038175 0.00250999 -0.10776569
v -0.01246214 0.00060052 -0.10656849
v -0.00927675 0.00060150 -0.10841176
v -0.00691801 0.00444096 -0.10937077
v -0.00601546 0.00060142 -0.10991421
v -0.00397674 0.00343296 -0.11061528
v -0.00186425 0.00060239 -0.11137560
v -0.00457604 0.00060159 -0.11047314
v 0.00799611 0.02247829 -0.11288217
v 0.00714714 0.01776861 -0.11289882
v 0.00921946 0.02247829 -0.11313431
v 0.01336761 0.01560635 -0.11365833
v 0.01167417 0.02247828 -0.11349782
v 0.01234435 0.02180231 -0.11356974
v 0.01029973 0.02247828 -0.11331740
v -0.00526901 0.02247832 -0.10653478
v -0.00601663 0.02218239 -0.10606158
v -0.00227040 0.02247831 -0.10865249
v -0.00375301 0.02147640 -0.10800041
v 0.00094073 0.02247831 -0.11042314
v 0.00442024 0.02247830 -0.11185968
v -0.01674534 0.02247834 -0.08890256
v -0.01655742 0.02239340 -0.08992050
v -0.01569179 0.02247834 -0.09223320
v -0.01562836 0.02223789 -0.09299820
v -0.01424978 0.02247834 -0.09552096
v -0.01246664 0.02247833 -0.09862264
v 0.01154370 0.01027159 -0.11357594
v 0.00521733 0.01250560 -0.11269906
v 0.00419016 0.01879989 -0.11211068
v 0.00137159 0.01977226 -0.11103246
v -0.00074334 0.01463509 -0.11081421
v -0.00128366 0.02066916 -0.10966097
v -0.00352261 0.01562436 -0.10946467
v -0.00613586 0.01654671 -0.10784193
v -0.00856152 0.01739161 -0.10595249
v -0.00792021 0.02247833 -0.10419178
v -0.01078058 0.01815027 -0.10380856
v -0.01277724 0.01881576 -0.10142770
v -0.01725415 0.02245400 -0.08676151
v -0.01733498 0.02021441 -0.09310944
v -0.01605962 0.01984953 -0.09604928
v -0.01445697 0.02197953 -0.09595831
v -0.01453947 0.01938312 -0.09883232
v -0.01303906 0.02161355 -0.09876645
v -0.01034595 0.02247833 -0.10152977
v -0.02209361 0.01875515 -0.08064944
v -0.01916883 0.02064948 -0.08690031
v -0.02016281 0.02071680 -0.08048218
v -0.01744920 0.02247834 -0.08543295
v -0.02456964 0.01646394 -0.07433418
v -0.00973447 0.00541240 -0.10787433
v -0.01239850 0.00633780 -0.10611973
v -0.01559309 0.00429136 -0.10404538
v -0.01488377 0.00720765 -0.10410657
v -0.02989932 0.00848374 -0.06160976
v -0.02949188 0.00866422 -0.06814323
v -0.03039025 0.00589373 -0.06816351
v -0.02882062 0.00870788 -0.07467175
v -0.02965883 0.00586462 -0.07468633
v -0.02603518 0.00796149 -0.08755791
v -0.02672863 0.00503360 -0.08752473
v -0.02350412 0.00706866 -0.09373266
v -0.03083668 0.00579029 -0.06162849
v -0.03138336 0.00302027 -0.06160944
v -0.02849979 0.00560264 -0.08115850
v -0.01068044 0.01203702 -0.10604332
v -0.00811564 0.01112575 -0.10786027
v 0.00730628 0.00060255 -0.11324019
v 0.01206963 0.00060336 -0.11362499
v 0.01529048 0.00060488 -0.11369693
v -0.02825633 0.01132993 -0.06807671
v -0.02623689 0.01406193 -0.07448297
v -0.02766607 0.01145846 -0.07460054
v -0.02536184 0.01400079 -0.08097348
v -0.02388070 0.01357202 -0.08739085
v -0.02507328 0.01082400 -0.08750737
v -0.02155476 0.01276570 -0.09359984
v -0.02263255 0.00996309 -0.09370893
v -0.01922747 0.00874506 -0.09933706
v -0.01716664 0.00801285 -0.10184114
v -0.01558171 0.00059924 -0.10430549
v -0.02030351 0.01543436 -0.09343781
v -0.01826307 0.01159108 -0.09925227
v -0.01885022 0.01493070 -0.09635951
v -0.01715286 0.01433421 -0.09910813
v -0.02002273 0.01827968 -0.09020692
v -0.01889492 0.01793113 -0.09326355
v -0.01521708 0.01364901 -0.10165308
v -0.00538258 0.01015632 -0.10941625
v -0.00250591 0.00913861 -0.11071181
v 0.00357618 0.00699965 -0.11255034
v 0.00993263 0.00479126 -0.11348264
v -0.01838722 0.00059913 -0.10176072
v -0.02078323 0.00059919 -0.09906824
v -0.02058326 0.00288804 -0.09918233
v -0.02001395 0.00583179 -0.09932245
v -0.02773328 0.00849971 -0.08116009
v -0.02667439 0.01131708 -0.08109382
v -0.03126383 0.00561172 -0.04860053
v -0.02091680 0.01853272 -0.08706239
v -0.01836839 0.02047962 -0.09004726
v -0.01752482 0.01748536 -0.09619146
v -0.01591066 0.01694294 -0.09895497
v 0.01529040 0.02247834 -0.11369588
v 0.02069614 0.02247826 -0.11325122
v 0.02687763 -0.02621246 -0.11160076
v 0.02687773 0.02247825 -0.11160077
v 0.02069603 -0.02621245 -0.11325122
v 0.00562630 -0.02621253 -0.11225323
v 0.00716661 -0.02621375 -0.11268268
v 0.01529039 -0.02621251 -0.11369598
v -0.00644778 -0.02621217 -0.10555400
v -0.00065519 -0.02621286 -0.10960194
v -0.03207194 0.00060374 -0.03615743
v -0.03206315 -0.00015441 -0.03615734
v -0.03226799 -0.00452521 -0.00421860
v -0.03145722 -0.00982056 -0.00421850
v -0.03183570 -0.00799430 -0.00421853
v -0.02992986 -0.01443410 -0.00421850
v -0.02842990 -0.01740099 -0.00421848
v -0.03109897 -0.01117405 -0.00421847
v 0.00000337 0.03234475 0.00392301
v -0.00604307 0.03143068 -0.00619245
v -0.01295709 0.03067354 0.00392541
v -0.01271172 0.03057811 -0.00108269
v -0.01565423 0.02923841 -0.00641625
v -0.01864418 0.02787377 -0.00640643
v -0.02143907 0.02616418 -0.00636343
v -0.02395676 0.02408301 -0.00629195
v -0.02361295 0.02501765 0.00392410
v -0.02612524 0.02163077 -0.00619345
v -0.02560239 0.02291723 0.00391994
v -0.02797145 0.01892630 -0.00607087
v -0.02724456 0.02072153 0.00392204
v -0.02950806 0.01602948 -0.00592766
v -0.03072044 0.01297443 -0.00576856
v -0.03014945 0.01517697 0.00392404
v -0.03118677 0.01209152 0.00392553
v -0.03159511 0.00980467 -0.00559878
v -0.03193480 0.00878360 0.00392563
v -0.03220519 0.00696128 0.00392492
v -0.03213662 0.00654884 -0.00542231
v -0.03213751 0.00224547 -0.02612069
v -0.03224934 0.00271187 -0.01570049
v -0.01826156 0.02863142 0.00391713
v -0.01617895 0.02956660 0.00392044
v -0.01253049 0.03027417 -0.00638642
v -0.00621829 0.03178101 -0.00093174
v -0.00632191 0.03197572 0.00392461
v -0.00508906 0.03210316 0.00392423
v -0.01591046 0.03045743 0.02928212
v -0.01533876 0.02944413 0.03157404
v -0.03280375 0.00060260 0.02928292
v -0.03165068 0.00059590 0.03157413
v -0.03267551 0.00417033 0.02928282
v -0.03248822 0.00588681 0.02928286
v -0.03079367 0.01303275 0.02928362
v -0.03138257 0.01114340 0.02928303
v -0.03016508 0.01074156 0.03157415
v -0.03181310 0.00949977 0.02928301
v -0.03133661 0.00521107 0.03157414
v -0.03231348 0.00704264 0.02928304
v -0.02958395 0.01615386 0.02928307
v -0.02813903 0.01904245 0.02928384
v -0.02645450 0.02171090 0.02928203
v -0.02612178 0.01991127 0.03157413
v -0.02330854 0.02361622 0.03157411
v -0.02432912 0.02436190 0.02928129
v -0.02217946 0.02646285 0.02928250
v -0.02074997 0.02761559 0.02928205
v -0.01943242 0.02708221 0.03157408
v -0.01821961 0.02928091 0.02928276
v -0.01318650 0.03150111 0.02928435
v -0.01112503 0.03091556 0.03157399
v -0.01153615 0.03197868 0.02928341
v -0.00981794 0.03236796 0.02928224
v -0.00612653 0.03289090 0.02928385
v -0.00645690 0.03172799 0.03157394
v 0.00000350 0.03310637 0.02928302
v 0.00000219 -0.03096011 0.03157370
v -0.00367994 -0.03197739 0.02928223
v -0.01481535 -0.02899697 0.02928277
v -0.01388140 -0.02942139 0.02928291
v -0.01335736 -0.02828552 0.03157386
v -0.01177368 -0.03024541 0.02928353
v -0.00856863 -0.02992923 0.03157379
v -0.00859971 -0.03117230 0.02928237
v -0.00352840 -0.03079480 0.03157374
v -0.00529479 -0.03178988 0.02928232
v -0.02342901 -0.02282280 0.02928468
v -0.02255569 -0.02368447 0.02928317
v -0.02100679 -0.02505868 0.02928309
v -0.01773912 -0.02589794 0.03157390
v -0.01839851 -0.02698711 0.02928216
v -0.01555522 -0.02863314 0.02928285
v -0.02817716 -0.01648818 0.02928360
v -0.02632301 -0.01936829 0.02928345
v -0.02170798 -0.02275114 0.03157395
v -0.02421050 -0.02198993 0.02928475
v -0.02967197 -0.01354629 0.02928242
v -0.02900716 -0.01494248 0.02928284
v -0.02795758 -0.01436180 0.03157405
v -0.03192422 -0.00692726 0.02928141
v -0.03001409 -0.00938193 0.03157410
v -0.03096435 -0.01026208 0.02928051
v -0.03259827 -0.00311637 0.02928225
v -0.03123431 -0.00443758 0.03157412
v -0.03254379 -0.00355581 0.02928196
v -0.03238553 -0.00462655 0.02928151
v -0.03281070 0.00020857 0.02928338
v -0.02839748 0.01563939 0.03157415
v 0.00000169 0.03198625 0.03157387
v -0.02504971 -0.01902463 0.03157401
v -0.02289047 0.02406660 0.03157410
v -0.02725160 -0.01945341 0.00392413
v -0.02899459 -0.01652394 0.00392395
v -0.02988687 -0.01463191 0.00392420
v -0.03038390 -0.01339228 0.00392436
v -0.03252600 0.00060165 0.00392349
v -0.03243892 -0.00309763 0.00392488
v -0.03221905 -0.00565228 0.00392442
v -0.03139322 -0.01016816 0.00392436
v -0.02528893 -0.02204295 0.00392407
v -0.02340872 -0.02347879 0.01616987
v -0.02316649 -0.02427278 0.00392386
v -0.03238696 0.00512884 0.00392403
v -0.02879756 0.01812067 0.00392413
v -0.02150933 0.02670634 0.00392022
v -0.01902990 0.02823354 0.00391685
v -0.00911399 0.03156606 0.00392571
v -0.00174712 0.03310220 0.02928304
v -0.01550921 0.03063302 0.02928231
v -0.03207479 -0.00674495 0.00392430
v -0.02754186 -0.01902996 -0.00014773
v -0.03227985 -0.00488295 -0.00014885
v -0.03148702 -0.00988440 -0.00014847
v -0.02992091 -0.01462920 -0.00014784
v -0.01983445 -0.01924070 -0.09351204
v 0.01354502 -0.01840202 -0.11366472
v 0.01214641 -0.02489142 -0.11355517
v 0.00919620 -0.00078816 -0.11343378
v 0.00271393 -0.00258886 -0.11248824
v 0.00247300 0.00060369 -0.11246342
v -0.01577734 -0.00129067 -0.10410751
v -0.01319920 -0.00056228 -0.10606649
v -0.02399080 -0.00370158 -0.09396119
v -0.02228330 -0.00318735 -0.09680744
v -0.02308842 0.00059845 -0.09584007
v -0.02887575 -0.00178049 -0.08145563
v -0.02698619 -0.00124889 -0.08778536
v -0.03053679 -0.00546578 -0.06844304
v -0.03181448 -0.00220334 -0.04873354
v -0.03137254 -0.00527721 -0.04872476
v -0.01709411 -0.02143104 -0.09626611
v -0.00676818 -0.02422702 -0.10610390
v -0.01136273 -0.01971147 -0.10393433
v -0.00899492 -0.01898608 -0.10605674
v -0.00434327 -0.02357472 -0.10802154
v -0.00172085 -0.02284089 -0.10967027
v 0.00107791 -0.02203580 -0.11103754
v -0.00367501 -0.01734614 -0.10953891
v 0.00402959 -0.02117245 -0.11211675
v -0.02340630 -0.01718559 -0.08752269
v -0.02232248 -0.01683730 -0.09064964
v -0.01045414 0.00020217 -0.10777678
v -0.01816391 -0.00197566 -0.10190319
v -0.01477291 -0.00768238 -0.10426372
v -0.02033787 -0.00261010 -0.09946377
v -0.02118735 -0.00968515 -0.09684089
v -0.02285245 -0.01022138 -0.09395479
v -0.02545900 -0.00414805 -0.09096171
v -0.00357118 -0.00437335 -0.11071545
v 0.00396966 -0.00864864 -0.11261716
v 0.01194078 -0.01263329 -0.11359885
v 0.01176964 -0.02621404 -0.11350715
v 0.00904953 -0.02572300 -0.11311511
v 0.00862415 -0.02621459 -0.11301663
v 0.00710905 -0.02026646 -0.11290795
v 0.00542188 -0.01456104 -0.11274652
v -0.00076714 -0.01644992 -0.11087840
v -0.00642534 -0.01819482 -0.10792921
v -0.01328541 -0.01391576 -0.10412495
v -0.01542447 -0.02093848 -0.09901489
v -0.02669603 -0.00452344 -0.08785636
v -0.02855996 -0.00506312 -0.08149105
v -0.02916304 -0.00861938 -0.07496693
v -0.02978010 -0.00535817 -0.07500047
v -0.02985815 -0.00867130 -0.06840696
v -0.03024746 -0.00858080 -0.06182684
v -0.02800111 -0.00835304 -0.08146627
v -0.02828216 -0.01181361 -0.07489070
v -0.02889254 -0.01179616 -0.06833635
v -0.03139866 -0.00227205 -0.06186706
v -0.03097988 -0.00544868 -0.06186183
v -0.02720287 -0.01158908 -0.08139036
v -0.02545869 -0.01106480 -0.08778665
v -0.02714987 -0.01487181 -0.07478177
v -0.02616400 -0.01754900 -0.06812633
v -0.02578114 -0.01772550 -0.07465281
v -0.02493438 -0.01762392 -0.08113700
v -0.02617630 -0.01470222 -0.08127567
v -0.02348779 -0.02029344 -0.08099169
v -0.02920886 -0.01161857 -0.06176607
v -0.02765512 -0.01477641 -0.06823919
v -0.02618510 -0.00781457 -0.08785336
v -0.02210244 -0.01993713 -0.08736566
v -0.01943239 -0.01589245 -0.09658215
v -0.01351070 -0.02036404 -0.10157966
v -0.00897710 -0.02479023 -0.10393495
v -0.00355270 -0.02621266 -0.10780776
v 0.00244417 -0.02621239 -0.11110157
v -0.00230078 -0.01051962 -0.11080144
v -0.00527984 -0.01142543 -0.10951883
v -0.00947137 -0.00609196 -0.10799558
v -0.00812030 -0.01229929 -0.10797781
v -0.01221017 -0.00690733 -0.10625727
v -0.01079677 -0.01313226 -0.10617815
v -0.01713585 -0.00840887 -0.10202022
v -0.01556507 -0.01464173 -0.10182898
v -0.01927898 -0.00907886 -0.09953914
v -0.01761830 -0.01530277 -0.09930702
v -0.02100047 -0.01640535 -0.09368412
v -0.02427346 -0.01068246 -0.09092006
v -0.02452824 -0.01420960 -0.08767045
v 0.00000316 -0.03096021 0.03157352
v 0.00000150 0.03246672 0.00723818
v 0.00000094 0.03209887 -0.00036499
v 0.03187590 0.02247817 -0.10923951
v 0.03734830 0.02247817 -0.10527240
v 0.03472998 -0.02621248 -0.10738411
v 0.03979320 -0.02621249 -0.10284574
v 0.04190054 0.02247817 -0.10027619
v 0.04382211 0.02247817 -0.09736835
v 0.04382200 -0.02621250 -0.09736835
v 0.04534271 0.02247817 -0.09445927
v 0.04664631 -0.02621251 -0.09118318
v 0.04664642 0.02247817 -0.09118318
v 0.04753124 0.02247817 -0.08806431
v 0.04814700 0.02247817 -0.08455134
v 0.04837481 0.02247817 -0.08135809
v 0.04826040 -0.02621250 -0.07775281
v 0.04783824 0.02247817 -0.07462034
v 0.04698204 -0.02621250 -0.07107457
v 0.03979331 0.02247817 -0.10284574
v 0.04826051 0.02247817 -0.07775281
v 0.04814689 -0.02621251 -0.08455134
v 0.01456849 0.02968377 0.03157352
v 0.01869293 0.02750641 0.03157352
v 0.02193730 0.02494673 0.03157353
v 0.01368217 0.03002932 0.03157353
v 0.01040776 0.03099881 0.03157352
v 0.00824346 0.03141885 0.03157352
v 0.02299054 0.02390024 0.03157352
v 0.02626491 0.01966968 0.03157353
v 0.03019950 0.01049275 0.03157352
v 0.03087170 0.00742727 0.03157352
v 0.03121463 0.00503953 0.03157353
v 0.02541378 -0.01858055 0.03157353
v 0.01804453 -0.02558337 0.03157352
v 0.00146880 -0.03092567 0.03157352
v 0.00511729 -0.03055676 0.03157352
v 0.02937490 0.01318258 0.03157352
v 0.02842391 0.01559540 0.03157353
v 0.02657732 0.01916347 0.03157352
v 0.03144609 0.00171699 0.03157352
v 0.03146200 0.00060248 0.03157352
v 0.03107939 -0.00465717 0.03157352
v 0.01000548 -0.02940870 0.03157353
v 0.01281582 -0.02837859 0.03157352
v 0.01453952 -0.02759505 0.03157352
v 0.02636206 -0.01722018 0.03157352
v 0.02799494 -0.01440464 0.03157352
v 0.02922680 -0.01165807 0.03157353
v 0.02990484 -0.00974099 0.03157352
v 0.03085936 -0.00595786 0.03157353
v 0.03265943 0.00060226 0.02928299
v 0.03239870 0.00519424 0.02928278
v 0.03203575 0.00765999 0.02928266
v 0.03171054 0.00926949 0.02928297
v 0.03132457 0.01083401 0.02928338
v 0.03080178 0.01260038 0.02928417
v 0.02960740 0.01577663 0.02928492
v 0.02813267 0.01876822 0.02928200
v 0.02675349 0.02100621 0.02928290
v 0.02492085 0.02342902 0.02928272
v 0.02287911 0.02559255 0.02928314
v 0.02061456 0.02749990 0.02928292
v 0.01908553 0.02855794 0.02928390
v 0.01825048 0.02906900 0.02928402
v 0.01569694 0.03037769 0.02928258
v 0.01408553 0.03103076 0.02928378
v 0.01128580 0.03189752 0.02928333
v 0.00835698 0.03250139 0.02928316
v 0.00000329 0.03198642 0.03157352
v 0.00432383 0.03295356 0.02928309
v 0.00593079 0.03171560 0.03157352
v 0.00529396 0.03287663 0.02928294
v 0.03250651 -0.00277544 0.02928296
v 0.03228046 -0.00467577 0.02928321
v 0.02955263 -0.01389383 0.02928296
v 0.03075035 -0.01093711 0.02928310
v 0.03102238 -0.01012412 0.02928305
v 0.02262804 -0.02182417 0.03157352
v 0.02570882 -0.02013551 0.02928300
v 0.02635617 -0.01929117 0.02928281
v 0.02751776 -0.01760544 0.02928266
v 0.01984453 -0.02577573 0.02928321
v 0.01865589 -0.02516576 0.03157352
v 0.02229864 -0.02377676 0.02928301
v 0.02366431 -0.02245985 0.02928219
v 0.01435008 -0.02900121 0.02928303
v 0.01508316 -0.02865217 0.02928302
v 0.01719354 -0.02751672 0.02928323
v 0.00684058 -0.03023990 0.03157352
v 0.01050394 -0.03049547 0.02928273
v 0.00337786 -0.03197816 0.02928255
v 0.00530977 -0.03172840 0.02928205
v 0.00729227 -0.03135655 0.02928205
v 0.00936959 -0.03083738 0.02928256
v 0.00492549 0.03221652 0.00724057
v 0.00610950 0.03189055 0.00294970
v 0.00290745 0.03222365 0.00301833
v 0.00288618 0.03196336 -0.00115442
v 0.00000062 0.03176989 -0.00464513
v 0.03165990 -0.00786211 0.02928311
v 0.02907692 -0.01487496 0.02928300
v 0.01361668 -0.02932869 0.02928304
v 0.00401408 -0.03190808 0.02928240
v 0.00000314 -0.03214996 0.02928299
v 0.00128851 0.03245625 0.00723879
v 0.03250582 0.00413609 0.02928310
v 0.00604489 -0.02971245 -0.11055730
v 0.01110353 -0.02971248 -0.11175207
v 0.03551501 -0.02971252 -0.10516237
v 0.03928525 -0.02971253 -0.10158431
v 0.04241576 -0.02971254 -0.09743495
v 0.04482130 -0.02971255 -0.09282728
v 0.03120770 -0.02971251 -0.10807171
v 0.01628977 -0.02971249 -0.11209869
v 0.01542120 -0.04141248 -0.05160502
v 0.02005435 -0.04141250 -0.05191788
v 0.02190980 -0.04141250 -0.05257081
v 0.02136644 -0.04141250 -0.05214384
v 0.01114509 -0.04141248 -0.09314351
v 0.01446360 -0.04141248 -0.08987930
v 0.02096158 -0.04141250 -0.08766830
v 0.00997150 -0.04141247 -0.09577115
v -0.00780476 -0.04141244 -0.07018366
v -0.00896953 -0.04141243 -0.07337537
v -0.00984274 -0.04141243 -0.08347153
v -0.00427430 -0.04141243 -0.06439485
v -0.00196987 -0.04141244 -0.06189820
v 0.00949565 -0.04141247 -0.09592254
v -0.00436819 -0.04141243 -0.09654272
v -0.00374814 -0.04141243 -0.09688111
v -0.00308863 -0.04141243 -0.09700606
v 0.02352599 -0.04141250 -0.08470429
v 0.02380155 -0.04141251 -0.07706937
v 0.02241176 -0.04141250 -0.08633163
v 0.02424774 -0.04141250 -0.08286887
v -0.00486268 -0.03886823 -0.10002325
v -0.00470651 -0.03894264 -0.09999642
v 0.04178381 -0.03769732 -0.08060266
v 0.03981350 -0.03769730 -0.07067547
v 0.04090185 -0.03769732 -0.07388905
v 0.04156237 -0.03769732 -0.08398830
v 0.03455631 -0.03770521 -0.09855565
v 0.03643442 -0.03769730 -0.09639775
v 0.03831585 -0.03769731 -0.09357430
v 0.03981350 -0.03769731 -0.09052985
v 0.04064716 -0.03765396 -0.07278110
v 0.04162671 -0.03765396 -0.07720856
v 0.04156237 -0.03769732 -0.07721701
v 0.04154656 -0.03765396 -0.07664600
v 0.04096454 -0.03765396 -0.07387230
v 0.04177517 -0.03765396 -0.07864654
v 0.04184869 -0.03765396 -0.08060266
v 0.04090185 -0.03769732 -0.08731627
v 0.04096454 -0.03765395 -0.08733303
v 0.04117543 -0.03765395 -0.08648782
v 0.04162671 -0.03765395 -0.08399675
v 0.04064716 -0.03765396 -0.08842422
v 0.03987346 -0.03765396 -0.09055463
v 0.03837208 -0.03765396 -0.09360668
v 0.03715336 -0.03765396 -0.09552449
v 0.03648595 -0.03765395 -0.09643718
v 0.03457862 -0.03770327 -0.09854174
v 0.03481087 -0.03765395 -0.09841447
v 0.03374310 -0.03770521 -0.09936886
v 0.02873266 -0.03769729 -0.10314512
v 0.01921403 -0.03769727 -0.10636987
v 0.02251777 -0.03769727 -0.10571064
v 0.03153941 -0.03769729 -0.10128193
v 0.02570852 -0.03769728 -0.10462967
v 0.02770719 -0.03765393 -0.10377663
v 0.02876497 -0.03765394 -0.10320139
v 0.03086610 -0.03765394 -0.10185741
v 0.02430852 -0.03765393 -0.10522960
v 0.02253457 -0.03765393 -0.10577331
v 0.02073846 -0.03765391 -0.10618710
v 0.01706884 -0.03765390 -0.10662985
v 0.01585277 -0.03769726 -0.10659628
v 0.01585292 -0.03765390 -0.10666116
v 0.01337350 -0.03765389 -0.10654894
v 0.01249045 -0.03769726 -0.10638607
v 0.01248222 -0.03765389 -0.10645044
v 0.00822356 -0.03765389 -0.10553851
v 0.02191406 -0.04141248 -0.05256916
v 0.02214580 -0.04136924 -0.05247600
v 0.02254183 -0.04138198 -0.08644416
v 0.02441388 -0.04138198 -0.08291339
v 0.02471228 -0.04138198 -0.08092468
v 0.02454040 -0.04141250 -0.08091848
v 0.02438911 -0.04141251 -0.07895206
v 0.02455802 -0.04138199 -0.07891963
v 0.02367795 -0.04138198 -0.08478487
v 0.02106316 -0.04138198 -0.08780709
v 0.01024574 -0.04138394 -0.09577920
v 0.00989925 -0.04138353 -0.09599055
v 0.00951055 -0.04138231 -0.09609291
v -0.00280310 -0.04141243 -0.09699855
v -0.00278820 -0.04138229 -0.09716891
v -0.00507120 -0.04137437 -0.09609415
v -0.00491758 -0.04141243 -0.09598008
v -0.00345108 -0.04138358 -0.09712848
v -0.00406535 -0.04138278 -0.09691878
v -0.00489172 -0.04128242 -0.09652770
v -0.00409190 -0.04130513 -0.09707321
v -0.00353474 -0.04130656 -0.09726066
v -0.00461298 -0.04137913 -0.09656721
v -0.00520143 -0.04126599 -0.09619086
v -0.01019410 -0.04126598 -0.08351085
v -0.00706823 -0.04126598 -0.09329649
v -0.00970468 -0.04141243 -0.07669249
v -0.00924327 -0.04141242 -0.08681583
v -0.00942898 -0.04137437 -0.08686192
v -0.00989381 -0.04137437 -0.07666348
v -0.00915321 -0.04137436 -0.07332176
v -0.00675914 -0.04141243 -0.09312484
v -0.00692642 -0.04137437 -0.09321773
v -0.00568336 -0.04126599 -0.09551999
v -0.00820942 -0.04141243 -0.09005232
v -0.00838746 -0.04137437 -0.09012242
v -0.00925913 -0.04126598 -0.08809751
v -0.01003290 -0.04137437 -0.08349282
v -0.00976803 -0.04126598 -0.08611796
v -0.00958641 -0.04126598 -0.08690100
v -0.00999744 -0.04141243 -0.08007745
v -0.01018874 -0.04137437 -0.08007356
v -0.01031741 -0.04126598 -0.08202896
v -0.01021675 -0.04126598 -0.07790444
v -0.00797980 -0.04137436 -0.07010636
v -0.00623058 -0.04141244 -0.06717275
v -0.00639394 -0.04137437 -0.06707312
v 0.00292091 -0.04141246 -0.05824966
v 0.00064274 -0.04141244 -0.05972611
v -0.00561100 -0.03839289 -0.10017285
v -0.00424873 -0.04130276 -0.09699502
v -0.00588321 -0.03841244 -0.09987096
v -0.00519074 -0.03868461 -0.10008445
v -0.00408904 -0.03915657 -0.09990453
v 0.00399890 -0.03471246 -0.10709733
v 0.00451539 -0.03477991 -0.10724797
v 0.00556008 -0.03528559 -0.10712497
v 0.00502301 -0.03496374 -0.10725895
v 0.00626582 -0.03598439 -0.10664366
v 0.00612710 -0.03581138 -0.10677700
v 0.00563595 -0.03534310 -0.10709254
v 0.01192318 -0.03489218 -0.10916235
v 0.01123876 -0.03547924 -0.10846662
v 0.01115204 -0.03562779 -0.10830171
v 0.01098544 -0.03614445 -0.10774876
v 0.01164713 -0.03505419 -0.10895989
v 0.01158182 -0.03510373 -0.10890018
v 0.01275428 -0.03471247 -0.10944332
v 0.01259496 -0.03471851 -0.10942003
v 0.01211473 -0.03481525 -0.10926521
v 0.03322827 -0.03477997 -0.10368952
v 0.03349159 -0.03496381 -0.10325540
v 0.03362625 -0.03581145 -0.10205825
v 0.03365394 -0.03534316 -0.10264137
v 0.03859007 -0.03489223 -0.09823138
v 0.03764533 -0.03547931 -0.09847623
v 0.03745916 -0.03562786 -0.09846887
v 0.03827671 -0.03505426 -0.09836920
v 0.03819234 -0.03510380 -0.09839591
v 0.03924895 -0.03471253 -0.09765210
v 0.03914912 -0.03471856 -0.09777844
v 0.03877492 -0.03481530 -0.09811691
v 0.03591970 -0.03700493 -0.09815530
v 0.03627026 -0.03672631 -0.09817593
v 0.03689699 -0.03614451 -0.09833668
v 0.03956480 -0.03471253 -0.09720883
v 0.04076559 -0.03471253 -0.09534124
v 0.04374452 -0.03471254 -0.08831961
v 0.03917135 -0.03765396 -0.09210775
v 0.04181057 -0.03471253 -0.09340642
v 0.04191681 -0.03471253 -0.09318821
v 0.04271633 -0.03471254 -0.09137202
v 0.04404086 -0.03471254 -0.08715213
v 0.04467332 -0.03471255 -0.08320285
v 0.04177517 -0.03765396 -0.08255878
v 0.04470830 -0.03471255 -0.08277958
v 0.04479012 -0.03471255 -0.08060266
v 0.04470830 -0.03471255 -0.07842574
v 0.04467331 -0.03471255 -0.07800248
v 0.03987346 -0.03765396 -0.07065069
v 0.04445388 -0.03471255 -0.07619939
v 0.04374453 -0.03471255 -0.07288572
v 0.03336044 -0.03674645 -0.10105878
v 0.03157872 -0.03765394 -0.10133354
v 0.03336623 -0.03723445 -0.10040590
v 0.03360192 -0.03765395 -0.09962341
v 0.03352414 -0.03614450 -0.10170954
v 0.03341058 -0.03649578 -0.10134560
v 0.03364409 -0.03528566 -0.10272329
v 0.03358014 -0.03598445 -0.10187145
v 0.01016666 -0.03749367 -0.10621130
v 0.00987502 -0.03765389 -0.10598102
v 0.01028536 -0.03740595 -0.10632678
v 0.01065387 -0.03700487 -0.10681172
v 0.01081129 -0.03672625 -0.10712562
v 0.01517010 -0.03471248 -0.10959604
v 0.01922257 -0.03765390 -0.10643419
v 0.02122329 -0.03471249 -0.10908916
v 0.02129702 -0.03471249 -0.10907499
v 0.02328354 -0.03471250 -0.10861780
v 0.02527006 -0.03471250 -0.10800943
v 0.02573328 -0.03765393 -0.10468965
v 0.02717694 -0.03471250 -0.10727363
v 0.03283956 -0.03471252 -0.10406148
v -0.01320169 -0.03841241 -0.07991322
v -0.01035092 -0.04126598 -0.08007026
v -0.01219100 -0.03841241 -0.08822218
v -0.01255737 -0.03841241 -0.08671989
v -0.01295569 -0.03841241 -0.08443396
v -0.01012716 -0.04126598 -0.08405697
v -0.01309608 -0.03841241 -0.08316931
v -0.01124221 -0.03841241 -0.09110283
v -0.00853839 -0.04126598 -0.09018185
v -0.01040920 -0.03841243 -0.09303632
v -0.00776540 -0.04126598 -0.09195056
v -0.01033618 -0.03841243 -0.09318904
v -0.00925398 -0.03841243 -0.09522434
v -0.00802692 -0.03841243 -0.09714803
v -0.00780651 -0.03841243 -0.09746088
v 0.00762663 -0.03736498 -0.10565356
v 0.00244609 -0.03471246 -0.10635022
v 0.00742806 -0.03723438 -0.10572564
v 0.00685976 -0.03674639 -0.10604707
v 0.03372920 -0.03770327 -0.09939116
v 0.03340309 -0.03736503 -0.10019790
v 0.03515612 -0.03749372 -0.09827702
v 0.03531548 -0.03740601 -0.09823199
v 0.03084050 -0.03471251 -0.10539148
v 0.02922812 -0.03471251 -0.10630130
v 0.02532811 -0.03471250 -0.10798928
v 0.01923877 -0.03471249 -0.10939688
v 0.01700179 -0.03471248 -0.10957734
v 0.04445388 -0.03471255 -0.08500593
v 0.01130360 -0.04141248 -0.05195180
v 0.02146240 -0.02971250 -0.11158774
v 0.02648059 -0.02971251 -0.11023312
v 0.04643637 -0.02971255 -0.08788676
v 0.04721700 -0.02971255 -0.08274790
v 0.04714192 -0.02971256 -0.07755063
v 0.04621320 -0.02971254 -0.07243647
f 99 134 137
f 134 136 137
f 133 134 99
f 133 268 40
f 99 268 133
f 42 133 40
f 368 367 422
f 175 154 155
f 155 154 176
f 158 75 160
f 160 161 158
f 197 194 196
f 197 161 194
f 235 183 239
f 229 234 247
f 247 246 229
f 463 360 464
f 360 361 363
f 403 402 430
f 371 374 419
f 494 493 538
f 487 472 470
f 537 544 538
f 538 544 502
f 502 494 538
f 544 541 502
f 152 74 55
f 73 55 74
f 70 55 73
f 48 46 152
f 152 49 48
f 134 133 453
f 39 37 453
f 453 49 152
f 453 37 49
f 422 367 450
f 367 366 450
f 450 366 364
f 259 154 205
f 259 176 154
f 360 358 373
f 373 361 360
f 369 374 370
f 370 374 371
f 370 371 405
f 405 427 370
f 370 427 428
f 174 175 155
f 282 146 147
f 239 183 182
f 183 184 182
f 213 402 233
f 234 229 233
f 233 232 234
f 154 175 153
f 160 75 79
f 79 101 160
f 85 164 100
f 160 101 162
f 162 100 164
f 101 100 162
f 157 158 159
f 159 158 161
f 161 197 159
f 50 176 52
f 155 176 50
f 77 158 157
f 157 78 77
f 75 158 77
f 198 200 199
f 199 159 198
f 198 159 197
f 249 235 239
f 147 146 265
f 265 232 238
f 146 150 265
f 224 222 223
f 213 222 224
f 472 537 445
f 223 222 221
f 254 253 252
f 252 228 226
f 252 253 228
f 487 470 584
f 584 473 487
f 584 477 473
f 360 463 359
f 359 358 360
f 359 4 358
f 135 137 136
f 136 3 135
f 58 37 57
f 49 37 58
f 628 466 624
f 465 363 466
f 464 360 465
f 360 363 465
f 364 363 362
f 362 363 361
f 362 450 364
f 466 363 365
f 365 366 367
f 364 366 365
f 365 363 364
f 487 473 474
f 454 370 428
f 372 370 454
f 423 424 208
f 154 153 202
f 175 261 202
f 202 153 175
f 199 200 201
f 429 430 402
f 402 401 429
f 438 638 439
f 421 374 369
f 369 368 421
f 421 368 422
f 371 415 414
f 382 414 415
f 383 414 382
f 393 392 412
f 393 383 392
f 241 386 392
f 392 383 241
f 241 423 208
f 404 402 403
f 403 454 404
f 404 454 428
f 405 371 460
f 412 392 411
f 411 371 412
f 411 410 371
f 392 386 384
f 493 494 500
f 438 436 500
f 500 638 438
f 471 472 487
f 471 537 472
f 542 541 544
f 503 502 501
f 494 502 503
f 501 637 503
f 152 55 54
f 52 176 54
f 54 176 152
f 54 53 52
f 96 95 63
f 64 95 5
f 5 66 64
f 64 66 45
f 64 63 95
f 57 37 38
f 38 37 39
f 56 42 40
f 271 272 97
f 41 453 133
f 133 42 41
f 424 426 449
f 422 450 449
f 449 426 422
f 355 151 179
f 179 206 355
f 178 206 179
f 178 259 205
f 205 206 178
f 361 373 452
f 452 373 358
f 358 4 452
f 452 4 136
f 156 78 157
f 155 78 156
f 156 174 155
f 147 145 281
f 281 282 147
f 145 249 281
f 146 282 318
f 318 150 146
f 12 13 322
f 322 281 12
f 15 13 14
f 15 322 13
f 280 322 15
f 16 316 15
f 15 316 280
f 324 320 315
f 280 316 315
f 86 88 14
f 87 86 85
f 88 86 87
f 53 54 69
f 116 69 70
f 115 69 116
f 191 185 190
f 190 184 183
f 190 185 184
f 186 187 188
f 186 240 192
f 188 240 186
f 188 187 189
f 191 190 189
f 189 190 188
f 196 194 195
f 213 233 242
f 226 228 242
f 242 225 226
f 7 79 75
f 101 79 7
f 7 103 101
f 256 162 164
f 68 78 155
f 155 50 68
f 51 50 52
f 196 200 243
f 200 198 243
f 243 197 196
f 243 198 197
f 184 185 170
f 11 171 168
f 168 128 11
f 12 10 11
f 84 164 85
f 84 165 164
f 167 165 168
f 167 189 187
f 187 186 167
f 92 128 168
f 168 165 92
f 165 84 92
f 92 11 128
f 85 86 92
f 92 84 85
f 264 249 145
f 235 249 264
f 264 145 147
f 234 232 251
f 232 265 251
f 247 234 251
f 251 150 247
f 251 265 150
f 478 477 581
f 212 214 213
f 215 216 218
f 218 217 215
f 215 217 213
f 213 214 215
f 214 216 215
f 437 436 438
f 210 217 218
f 218 480 210
f 210 480 481
f 245 225 230
f 230 229 245
f 245 229 246
f 332 318 321
f 332 148 150
f 150 318 332
f 228 253 219
f 254 252 661
f 661 253 254
f 661 219 253
f 321 320 326
f 328 326 329
f 582 584 481
f 477 584 582
f 481 480 582
f 582 480 218
f 582 581 477
f 690 470 469
f 690 584 470
f 269 303 268
f 270 303 269
f 357 359 3
f 4 359 357
f 357 3 136
f 136 4 357
f 467 135 3
f 3 359 467
f 467 359 463
f 607 463 464
f 81 95 96
f 626 465 466
f 623 465 626
f 367 368 375
f 375 365 367
f 375 368 369
f 369 370 375
f 479 476 473
f 473 477 479
f 473 476 488
f 488 474 473
f 372 454 431
f 403 430 431
f 431 454 403
f 205 154 204
f 154 202 204
f 174 201 180
f 180 261 175
f 175 174 180
f 434 638 435
f 696 638 637
f 430 429 696
f 696 370 372
f 372 431 696
f 696 431 430
f 433 638 434
f 433 439 638
f 635 637 501
f 695 634 633
f 695 635 634
f 370 696 695
f 695 696 637
f 637 635 695
f 376 241 377
f 379 241 376
f 421 379 420
f 420 419 374
f 374 421 420
f 420 376 419
f 379 376 420
f 412 371 413
f 371 414 413
f 413 414 383
f 413 393 412
f 383 393 413
f 371 419 418
f 418 417 371
f 377 417 418
f 418 376 377
f 419 376 418
f 416 415 371
f 371 417 416
f 416 417 377
f 381 241 380
f 380 241 379
f 380 379 421
f 422 381 380
f 380 421 422
f 425 241 381
f 423 241 425
f 424 423 425
f 425 426 424
f 425 381 422
f 422 426 425
f 260 241 208
f 260 208 1
f 1 355 260
f 260 355 206
f 181 200 196
f 196 195 181
f 240 404 181
f 181 195 240
f 386 241 181
f 181 404 386
f 181 202 261
f 261 180 181
f 181 201 200
f 181 180 201
f 386 404 395
f 395 427 405
f 236 240 188
f 236 404 240
f 236 233 402
f 402 404 236
f 236 190 183
f 188 190 236
f 236 237 238
f 238 232 236
f 232 233 236
f 183 235 236
f 235 237 236
f 386 460 406
f 406 371 407
f 406 460 371
f 392 384 391
f 391 384 410
f 391 411 392
f 410 411 391
f 385 384 386
f 385 406 407
f 386 406 385
f 410 384 409
f 371 410 409
f 493 500 636
f 636 500 436
f 442 493 636
f 636 436 442
f 638 500 504
f 504 500 494
f 494 503 504
f 637 638 504
f 504 503 637
f 544 537 543
f 543 542 544
f 537 471 543
f 543 471 487
f 487 474 543
f 474 488 543
f 492 502 541
f 46 48 61
f 61 63 46
f 65 66 67
f 45 66 65
f 67 74 65
f 65 74 152
f 44 64 45
f 45 65 44
f 152 46 44
f 44 65 152
f 46 63 47
f 63 64 47
f 47 44 46
f 64 44 47
f 42 56 121
f 270 97 121
f 121 41 42
f 97 41 121
f 98 56 40
f 40 268 98
f 268 303 98
f 98 121 56
f 98 303 270
f 270 121 98
f 8 271 35
f 8 272 271
f 120 97 272
f 272 8 120
f 120 8 35
f 120 58 57
f 35 58 120
f 39 453 43
f 453 41 43
f 43 41 97
f 97 120 43
f 43 120 57
f 57 38 43
f 43 38 39
f 151 355 459
f 459 355 1
f 1 208 459
f 208 424 459
f 177 178 179
f 177 356 152
f 259 178 177
f 179 151 177
f 151 356 177
f 152 176 177
f 176 259 177
f 451 362 361
f 361 452 451
f 450 362 451
f 451 449 450
f 424 449 451
f 451 459 424
f 151 459 451
f 451 356 151
f 451 452 356
f 2 452 136
f 2 136 134
f 134 453 2
f 356 452 2
f 2 453 152
f 152 356 2
f 12 281 144
f 144 281 249
f 144 143 12
f 144 249 239
f 239 143 144
f 321 318 317
f 280 315 317
f 317 320 321
f 317 315 320
f 323 322 280
f 280 317 323
f 323 317 318
f 323 318 282
f 282 281 323
f 281 322 323
f 316 314 319
f 319 315 316
f 324 315 319
f 319 325 324
f 102 100 101
f 101 103 102
f 85 100 102
f 102 87 85
f 70 69 71
f 71 69 54
f 71 55 70
f 71 54 55
f 130 69 115
f 130 51 52
f 52 53 130
f 53 69 130
f 70 73 72
f 72 74 67
f 72 73 74
f 115 116 111
f 107 106 113
f 106 111 113
f 89 107 91
f 25 26 23
f 239 182 248
f 248 143 239
f 227 222 213
f 213 242 227
f 220 221 227
f 227 221 222
f 227 219 220
f 227 242 228
f 228 219 227
f 231 242 233
f 231 229 230
f 231 233 229
f 230 225 231
f 225 242 231
f 193 256 192
f 193 195 194
f 192 240 193
f 240 195 193
f 162 256 163
f 163 161 160
f 160 162 163
f 194 161 163
f 163 193 194
f 256 193 163
f 157 159 257
f 257 159 199
f 199 201 257
f 169 185 191
f 169 170 185
f 169 167 168
f 168 171 169
f 171 170 169
f 191 189 169
f 189 167 169
f 166 186 192
f 166 167 186
f 192 256 166
f 166 256 164
f 164 165 166
f 165 167 166
f 11 92 93
f 14 13 93
f 93 86 14
f 93 92 86
f 93 13 12
f 12 11 93
f 250 237 235
f 235 264 250
f 250 264 147
f 213 224 211
f 211 212 213
f 213 217 387
f 387 402 213
f 387 401 402
f 387 433 434
f 443 397 209
f 209 387 217
f 390 389 445
f 443 209 390
f 390 209 389
f 266 245 246
f 266 246 247
f 247 150 266
f 150 148 266
f 324 325 353
f 293 353 352
f 352 353 325
f 214 212 567
f 478 581 567
f 567 216 214
f 567 581 216
f 263 661 244
f 244 661 252
f 244 252 226
f 226 225 244
f 225 245 244
f 244 245 263
f 579 661 667
f 667 328 665
f 328 667 327
f 331 329 665
f 665 328 331
f 331 328 329
f 218 216 583
f 583 582 218
f 216 581 583
f 581 582 583
f 458 690 469
f 210 690 458
f 469 470 458
f 458 470 472
f 472 445 458
f 445 389 458
f 217 210 458
f 458 209 217
f 585 210 481
f 585 690 210
f 481 584 585
f 584 690 585
f 304 97 270
f 270 269 304
f 340 461 591
f 138 461 340
f 677 340 591
f 142 340 677
f 692 467 659
f 135 467 692
f 659 467 685
f 685 467 684
f 463 607 660
f 660 467 463
f 684 467 660
f 660 526 684
f 539 488 546
f 546 518 539
f 59 48 49
f 49 60 59
f 49 58 119
f 119 60 49
f 80 81 96
f 5 95 83
f 95 81 83
f 466 628 627
f 627 626 466
f 466 365 693
f 365 375 693
f 624 466 693
f 577 477 478
f 577 479 477
f 561 667 665
f 579 667 561
f 455 435 638
f 638 696 455
f 455 696 429
f 455 429 401
f 401 435 455
f 378 382 415
f 415 416 378
f 378 416 377
f 377 241 378
f 383 382 378
f 378 241 383
f 207 181 241
f 207 206 205
f 207 260 206
f 241 260 207
f 394 460 386
f 386 395 394
f 405 460 394
f 394 395 405
f 427 395 396
f 396 395 404
f 428 427 396
f 396 404 428
f 408 409 384
f 408 385 407
f 384 385 408
f 407 371 408
f 371 409 408
f 501 502 505
f 502 492 505
f 505 635 501
f 634 635 505
f 633 634 505
f 506 631 633
f 506 492 631
f 633 505 506
f 506 505 492
f 545 488 539
f 623 626 513
f 17 18 16
f 14 88 17
f 16 15 17
f 17 15 14
f 16 18 19
f 19 18 20
f 94 17 88
f 18 17 94
f 20 279 278
f 278 19 20
f 313 314 278
f 278 279 313
f 16 19 278
f 278 316 16
f 278 314 316
f 325 319 334
f 334 352 325
f 334 314 313
f 334 319 314
f 129 130 115
f 129 7 75
f 104 111 106
f 131 116 70
f 131 111 116
f 131 113 111
f 70 72 131
f 114 113 132
f 67 114 132
f 132 72 67
f 132 131 72
f 113 131 132
f 108 91 107
f 21 279 20
f 21 25 279
f 255 182 184
f 184 170 255
f 255 170 171
f 171 11 255
f 255 11 10
f 258 156 157
f 157 257 258
f 174 156 258
f 258 201 174
f 258 257 201
f 238 237 262
f 237 250 262
f 262 250 147
f 147 265 262
f 262 265 238
f 538 493 456
f 456 444 538
f 400 435 401
f 401 387 400
f 434 435 400
f 400 387 434
f 437 209 399
f 432 209 437
f 387 209 432
f 438 439 432
f 432 437 438
f 439 433 432
f 433 387 432
f 443 390 446
f 446 447 443
f 538 447 446
f 448 397 443
f 443 447 448
f 444 397 448
f 538 444 448
f 448 447 538
f 329 335 663
f 668 335 293
f 668 663 335
f 292 335 329
f 293 335 292
f 292 353 293
f 324 353 330
f 329 326 330
f 330 292 329
f 353 292 330
f 330 320 324
f 330 326 320
f 313 279 300
f 300 334 313
f 352 334 300
f 300 25 23
f 279 25 300
f 293 352 351
f 351 267 293
f 149 327 667
f 149 661 263
f 149 667 661
f 263 245 149
f 149 266 148
f 245 266 149
f 333 332 321
f 148 332 333
f 321 326 333
f 333 149 148
f 327 149 333
f 326 328 333
f 328 327 333
f 389 209 354
f 354 458 389
f 209 458 354
f 529 655 656
f 656 692 657
f 139 461 138
f 462 461 139
f 138 291 139
f 673 267 283
f 586 339 142
f 142 677 586
f 141 339 586
f 586 677 591
f 652 468 688
f 688 468 687
f 654 655 529
f 652 533 604
f 462 304 604
f 604 468 652
f 304 468 604
f 521 520 529
f 686 692 659
f 657 692 686
f 539 518 496
f 522 519 526
f 518 546 522
f 475 488 476
f 475 546 488
f 118 59 60
f 118 80 96
f 32 80 118
f 118 119 32
f 60 119 118
f 34 58 35
f 34 119 58
f 32 119 34
f 633 631 632
f 478 567 566
f 566 211 224
f 212 211 566
f 566 567 212
f 566 224 223
f 181 207 203
f 203 204 202
f 202 181 203
f 205 204 203
f 203 207 205
f 488 545 486
f 495 492 541
f 631 492 495
f 541 542 540
f 540 495 541
f 507 495 540
f 540 545 499
f 499 507 540
f 624 693 629
f 629 693 689
f 511 507 499
f 511 628 624
f 618 607 464
f 626 627 625
f 625 513 626
f 497 545 539
f 539 496 497
f 88 87 126
f 126 94 88
f 89 94 126
f 18 94 90
f 90 94 89
f 89 91 90
f 90 91 26
f 130 129 76
f 50 51 76
f 51 130 76
f 76 68 50
f 76 129 75
f 75 77 76
f 76 77 78
f 78 68 76
f 115 111 6
f 111 104 6
f 6 129 115
f 6 104 103
f 103 7 6
f 7 129 6
f 105 106 107
f 105 104 106
f 105 107 89
f 89 126 105
f 107 113 112
f 112 108 107
f 112 113 114
f 117 112 114
f 117 66 5
f 67 66 117
f 117 114 67
f 26 91 125
f 91 108 125
f 143 248 173
f 173 255 10
f 173 248 182
f 182 255 173
f 12 143 173
f 398 209 397
f 398 399 209
f 398 397 444
f 444 456 398
f 388 399 442
f 437 399 388
f 442 436 388
f 436 437 388
f 442 399 441
f 441 493 442
f 457 390 445
f 457 446 390
f 538 446 457
f 457 537 538
f 457 445 537
f 665 329 664
f 329 663 664
f 293 267 670
f 670 668 293
f 692 656 691
f 137 135 691
f 135 692 691
f 691 656 655
f 655 654 691
f 691 654 687
f 691 468 137
f 687 468 691
f 306 304 462
f 462 139 306
f 35 271 302
f 271 97 302
f 137 468 140
f 140 468 304
f 99 137 140
f 140 304 269
f 140 268 99
f 140 269 268
f 673 283 674
f 309 291 138
f 309 341 291
f 299 351 352
f 352 300 299
f 532 533 652
f 652 688 532
f 536 596 648
f 490 589 594
f 529 656 528
f 528 521 529
f 528 656 657
f 524 519 523
f 659 685 524
f 547 522 546
f 547 475 476
f 546 475 547
f 519 522 547
f 642 609 517
f 48 59 62
f 59 118 62
f 62 61 48
f 62 118 96
f 96 63 62
f 63 61 62
f 32 34 33
f 630 632 631
f 694 693 375
f 632 630 694
f 694 375 370
f 370 695 694
f 694 695 633
f 633 632 694
f 689 693 694
f 694 630 689
f 563 577 478
f 478 566 563
f 563 566 577
f 577 566 578
f 479 577 578
f 665 664 575
f 663 668 573
f 489 540 542
f 542 543 489
f 489 486 545
f 545 540 489
f 489 543 488
f 488 486 489
f 509 495 507
f 509 629 689
f 628 511 512
f 512 511 499
f 499 625 512
f 512 627 628
f 512 625 627
f 622 465 623
f 545 497 498
f 499 545 498
f 498 625 499
f 513 625 498
f 517 497 516
f 516 497 496
f 516 642 517
f 20 18 24
f 18 90 24
f 24 21 20
f 25 21 24
f 26 25 24
f 24 90 26
f 127 105 126
f 127 102 103
f 103 104 127
f 104 105 127
f 87 102 127
f 127 126 87
f 109 125 108
f 5 83 109
f 109 117 5
f 108 112 109
f 112 117 109
f 172 10 12
f 12 173 172
f 172 173 10
f 440 441 399
f 440 398 456
f 399 398 440
f 440 456 493
f 493 441 440
f 672 267 673
f 672 670 267
f 672 671 670
f 308 139 291
f 291 302 308
f 97 304 308
f 308 302 97
f 291 341 301
f 301 302 291
f 35 302 301
f 138 340 289
f 289 309 138
f 284 339 141
f 142 339 287
f 339 284 287
f 287 284 286
f 273 345 296
f 296 295 273
f 273 9 110
f 309 289 290
f 290 289 340
f 530 532 688
f 530 688 687
f 606 535 598
f 606 461 462
f 605 604 533
f 533 535 605
f 535 606 605
f 462 604 605
f 605 606 462
f 650 535 649
f 649 601 650
f 603 535 599
f 593 603 599
f 594 603 593
f 490 594 593
f 523 521 527
f 521 528 527
f 527 528 657
f 657 686 527
f 519 524 525
f 684 526 525
f 526 519 525
f 525 685 684
f 525 524 685
f 640 642 522
f 640 639 641
f 640 610 609
f 640 522 526
f 607 608 640
f 640 660 607
f 526 660 640
f 36 34 35
f 36 33 34
f 35 301 36
f 36 301 33
f 32 33 31
f 689 630 510
f 510 509 689
f 495 509 510
f 631 495 510
f 510 630 631
f 580 578 566
f 580 566 223
f 223 221 580
f 580 221 220
f 666 561 665
f 665 575 666
f 663 573 576
f 576 664 663
f 576 575 664
f 668 670 669
f 670 671 669
f 669 671 572
f 669 573 668
f 572 573 669
f 507 511 508
f 508 509 507
f 508 511 624
f 624 629 508
f 629 509 508
f 513 498 514
f 514 498 497
f 623 513 514
f 514 622 623
f 642 516 680
f 518 522 680
f 522 642 680
f 680 496 518
f 680 516 496
f 23 26 22
f 26 125 124
f 307 306 139
f 139 308 307
f 337 586 588
f 351 299 336
f 267 351 336
f 336 283 267
f 298 336 299
f 82 109 83
f 82 83 81
f 110 9 82
f 288 340 142
f 288 290 340
f 310 287 286
f 290 288 310
f 142 287 310
f 310 288 142
f 520 530 653
f 653 530 687
f 529 520 653
f 653 654 529
f 687 654 653
f 598 594 592
f 592 606 598
f 461 606 592
f 591 461 592
f 592 594 589
f 592 586 591
f 592 589 586
f 651 535 650
f 650 601 651
f 651 601 535
f 648 596 600
f 599 535 600
f 535 601 600
f 601 649 647
f 648 600 647
f 647 600 601
f 647 535 648
f 647 649 535
f 558 536 648
f 598 535 602
f 535 603 602
f 602 594 598
f 602 603 594
f 597 593 599
f 599 600 597
f 597 600 596
f 597 596 490
f 490 593 597
f 523 527 658
f 659 524 658
f 658 524 523
f 658 686 659
f 658 527 686
f 681 640 641
f 642 640 681
f 639 640 644
f 645 640 608
f 610 640 645
f 645 612 610
f 29 80 32
f 32 31 29
f 81 80 29
f 33 301 343
f 343 31 33
f 578 580 662
f 662 661 579
f 579 578 662
f 219 661 662
f 220 219 662
f 662 580 220
f 574 666 575
f 561 666 574
f 579 561 574
f 574 578 579
f 479 578 574
f 554 551 485
f 565 576 573
f 565 573 572
f 575 576 565
f 565 574 575
f 565 564 479
f 479 574 565
f 515 514 497
f 515 682 683
f 517 682 515
f 515 497 517
f 622 514 616
f 464 465 616
f 465 622 616
f 275 300 23
f 23 22 275
f 275 299 300
f 275 298 299
f 277 22 26
f 26 124 277
f 277 124 27
f 277 275 22
f 27 124 123
f 305 308 304
f 305 307 308
f 304 306 305
f 306 307 305
f 286 284 285
f 312 337 588
f 588 675 312
f 283 336 312
f 675 674 312
f 312 674 283
f 350 298 349
f 336 298 350
f 337 312 350
f 350 312 336
f 28 82 9
f 28 124 125
f 28 123 124
f 125 109 28
f 109 82 28
f 346 310 286
f 296 345 346
f 554 558 534
f 534 535 533
f 533 554 534
f 648 535 534
f 534 558 648
f 491 676 536
f 490 678 491
f 678 676 491
f 490 491 557
f 557 491 558
f 557 558 554
f 572 671 569
f 588 586 556
f 586 589 556
f 532 530 531
f 533 532 531
f 531 530 520
f 520 551 531
f 531 554 533
f 531 551 554
f 549 551 520
f 520 521 549
f 679 678 490
f 595 676 678
f 596 536 595
f 536 676 595
f 490 596 595
f 678 679 595
f 595 679 490
f 641 639 646
f 646 681 641
f 609 642 646
f 642 681 646
f 81 29 30
f 30 82 81
f 110 82 30
f 342 301 341
f 342 343 301
f 341 309 342
f 309 290 342
f 555 557 554
f 618 515 611
f 611 515 614
f 611 614 608
f 611 608 607
f 607 618 611
f 615 515 612
f 614 515 615
f 612 645 615
f 608 614 615
f 615 645 608
f 621 515 620
f 683 682 621
f 619 515 683
f 620 515 619
f 683 621 619
f 619 621 620
f 514 515 617
f 617 616 514
f 617 515 618
f 617 618 464
f 464 616 617
f 27 123 297
f 337 285 338
f 338 284 141
f 338 285 284
f 141 586 338
f 586 337 338
f 347 295 296
f 347 297 295
f 349 297 347
f 122 28 9
f 122 273 295
f 9 273 122
f 123 28 122
f 295 297 122
f 122 297 123
f 348 285 337
f 337 350 348
f 348 350 349
f 349 347 348
f 286 285 311
f 311 346 286
f 285 348 311
f 296 346 311
f 311 347 296
f 311 348 347
f 536 558 590
f 590 491 536
f 558 491 590
f 572 569 571
f 571 565 572
f 564 565 571
f 479 564 571
f 476 479 571
f 562 569 671
f 562 672 673
f 671 672 562
f 551 549 482
f 476 485 482
f 548 521 523
f 548 549 521
f 523 519 548
f 519 547 548
f 548 547 476
f 476 482 548
f 548 482 549
f 639 644 643
f 643 646 639
f 643 644 640
f 643 640 609
f 609 646 643
f 274 273 110
f 110 30 274
f 345 273 274
f 274 343 345
f 294 29 31
f 294 30 29
f 31 343 294
f 343 274 294
f 294 274 30
f 343 342 344
f 310 346 344
f 290 310 344
f 344 342 290
f 345 343 344
f 344 346 345
f 557 555 587
f 587 556 589
f 587 589 490
f 490 557 587
f 612 515 613
f 515 621 613
f 517 609 613
f 613 682 517
f 613 621 682
f 609 610 613
f 610 612 613
f 275 277 276
f 298 275 276
f 276 277 27
f 27 297 276
f 349 298 276
f 276 297 349
f 484 485 476
f 554 485 484
f 484 555 554
f 568 569 552
f 568 571 569
f 673 674 570
f 570 562 673
f 552 569 570
f 569 562 570
f 570 674 675
f 550 485 551
f 551 482 550
f 550 482 485
f 552 556 559
f 556 587 559
f 559 587 555
f 560 570 675
f 560 675 588
f 588 556 560
f 560 556 552
f 552 570 560
f 553 568 552
f 552 559 553
f 483 553 559
f 555 484 483
f 483 559 555
f 568 553 483
f 571 568 483
f 476 571 483
f 483 484 476

