# https://github.com/mikedh/trimesh
v -0.00618159 0.02050000 0.02391385
v -0.00373127 0.02050000 0.02441635
v -0.01087368 0.02050000 0.02217757
v -0.00857292 0.02050000 0.02316450
v -0.02356697 0.02050000 -0.00739521
v -0.02397491 0.02050000 -0.00594145
v -0.00572968 0.02050000 -0.02402607
v -0.00123672 0.02050000 -0.02466901
v -0.02451808 0.02050000 -0.00299155
v -0.00277637 0.02050000 -0.02454339
v -0.02419515 0.02050000 -0.00496866
v -0.00860369 0.02050000 -0.02315309
v -0.01087367 0.02050000 -0.02217759
v -0.02307713 0.02050000 -0.00880504
v -0.01134554 0.02050000 -0.02193998
v -0.01306162 0.02050000 -0.02096395
v -0.01391855 0.02050000 -0.02040500
v -0.01511305 0.02050000 -0.01953660
v -0.01628795 0.02050000 -0.01856845
v -0.02184029 0.02050000 -0.01153672
v -0.02269780 0.02050000 -0.00974130
v -0.02269775 0.02050000 0.00974141
v -0.01873934 0.02050000 0.01609115
v -0.01701188 0.02050000 -0.01790772
v -0.01842152 0.02050000 -0.01645415
v -0.02159538 0.02050000 -0.01198899
v -0.01873929 0.02050000 -0.01609121
v -0.02027890 0.02050000 -0.01410139
v -0.01701188 0.02050000 0.01790772
v -0.01511301 0.02050000 0.01953664
v -0.01306165 0.02050000 0.02096393
v -0.02146999 -0.02250000 0.01221187
v -0.00865764 -0.02250000 0.02313291
v -0.01091470 -0.02250000 0.02215735
v -0.01306158 -0.02250000 0.02096388
v -0.01485125 -0.02250000 0.01973627
v -0.01677284 -0.02250000 0.01813162
v -0.02457781 -0.02250000 0.00245176
v -0.02470000 -0.02250000 0.00000001
v -0.02457780 -0.02250000 -0.00245179
v -0.02421260 -0.02250000 -0.00488211
v -0.02359956 -0.02250000 -0.00729016
v -0.01853356 -0.02250000 0.01632765
v -0.02010641 -0.02250000 0.01434604
v -0.02163651 -0.02250000 0.01191433
v -0.02273862 -0.02250000 0.00964529
v -0.02421261 -0.02250000 0.00488210
v -0.01853363 -0.02250000 -0.01632757
v 0.00121054 -0.02250000 0.02467000
v -0.00132110 -0.02250000 0.02466462
v -0.00383091 -0.02250000 0.02440088
v -0.02273858 -0.02250000 -0.00964538
v -0.02147004 -0.02250000 -0.01221178
v -0.02010649 -0.02250000 -0.01434592
v -0.00383085 -0.02250000 -0.02440089
v -0.00628751 -0.02250000 -0.02388619
v 0.07450000 -0.00000000 0.01670000
v 0.07054537 0.01448361 -0.01869983
v 0.07096564 0.01374652 0.01669977
v 0.07139304 0.01294001 -0.01869983
v 0.07151299 0.01270187 0.01669986
v 0.07200382 0.01166411 -0.01869999
v 0.07200382 0.01166411 0.01670000
v 0.07214282 0.01134913 -0.01870003
v 0.07225165 0.01109509 0.01670004
v 0.07279399 0.00971246 -0.01870003
v 0.07289343 0.00943364 0.01670000
v 0.07305065 0.00897287 -0.01869995
v 0.07314238 0.00869144 0.01669991
v 0.07330180 0.00817690 -0.01869984
v 0.07355779 0.00726762 -0.01869977
v 0.07330180 0.00817690 0.01669984
v 0.07362746 0.00699811 0.01669977
v 0.07400650 0.00528072 0.01669995
v 0.07413440 0.00455030 0.01670003
v 0.07413440 0.00455030 -0.01870003
v 0.07424438 0.00380852 -0.01870006
v 0.07427917 0.00354092 0.01670006
v 0.07435041 0.00291619 -0.01870003
v 0.07442557 0.00205837 -0.01869997
v 0.07435041 0.00291619 0.01670003
v 0.07444435 0.00178022 0.01669994
v 0.07448743 0.00084615 -0.01869990
v 0.06806871 0.01803392 -0.01869993
v 0.06855570 0.01742098 -0.01870002
v 0.06923889 0.01649860 -0.01870006
v 0.06873543 0.01718576 0.01670004
v 0.06946105 0.01618114 0.01670005
v 0.06959984 0.01597804 -0.01870003
v 0.06975366 0.01574844 0.01670001
v 0.07026258 0.01495250 -0.01869989
v 0.07026258 0.01495250 0.01669989
v 0.07067980 0.01425333 0.01669980
v 0.05956813 0.02506304 0.01669994
v 0.06085534 0.02432219 -0.01869970
v 0.06110717 0.02416657 0.01669968
v 0.06176523 0.02374252 0.01669970
v 0.06151777 0.02390500 -0.01869967
v 0.06271076 0.02308680 -0.01869988
v 0.06271076 0.02308680 0.01669988
v 0.06320183 0.02272327 0.01669998
v 0.06457065 0.02161900 0.01670007
v 0.06543763 0.02084295 -0.01869995
v 0.06557611 0.02071294 0.01669993
v 0.06567838 0.02061580 -0.01869990
v 0.06587041 0.02043078 0.01669986
v 0.06691249 0.01936278 -0.01869973
v 0.06709928 0.01915908 0.01669975
v 0.06745592 0.01875883 -0.01869980
v 0.06771050 0.01846359 0.01669986
v 0.06810776 0.01798601 0.01669994
v 0.06825484 0.01780372 0.01669997
v 0.05301762 0.02762251 0.01669994
v 0.05471062 0.02713623 0.01669974
v 0.05617923 0.02662017 0.01669987
v 0.05774515 0.02596732 -0.01870007
v 0.05636779 0.02654730 0.01669991
v 0.05798759 0.02585629 0.01670008
v 0.05851058 0.02560733 -0.01870007
v 0.05877177 0.02547807 0.01670005
v 0.05932445 0.02519343 -0.01869998
v 0.05956057 0.02506713 -0.01869994
v 0.04753149 0.02845882 -0.01869978
v 0.04782101 0.02844176 0.01669977
v 0.04848775 0.02839122 -0.01869980
v 0.04875326 0.02836670 0.01669983
v 0.04895660 0.02834623 -0.01869985
v 0.04895660 0.02834623 0.01669985
v 0.05050727 0.02814133 0.01670003
v 0.05225629 0.02780483 0.01670002
v 0.05262437 0.02771945 0.01669998
v 0.04672953 0.02849066 -0.01869986
v 0.04523734 0.02848979 0.01670003
v 0.04347882 0.02838827 0.01670003
v 0.04318411 0.02836055 -0.01870000
v 0.04270006 0.02830831 0.01669994
v 0.04240623 0.02827251 -0.01869990
v 0.04848776 -0.02839121 0.01669980
v 0.04752789 -0.02845902 0.01669978
v 0.04753149 -0.02845882 -0.01869978
v 0.04699605 -0.02848259 -0.01869983
v 0.04672954 -0.02849066 0.01669986
v 0.04523734 -0.02848979 -0.01870003
v 0.04473100 -0.02847173 -0.01870006
v 0.04318412 -0.02836055 0.01670000
v 0.04347882 -0.02838827 -0.01870003
v 0.05471062 -0.02713623 -0.01869974
v 0.05444707 -0.02721942 0.01669975
v 0.05301762 -0.02762251 -0.01869993
v 0.05273034 -0.02769391 0.01669997
v 0.05234969 -0.02778365 -0.01870001
v 0.05234969 -0.02778365 0.01670001
v 0.05196717 -0.02786831 0.01670004
v 0.05225629 -0.02780483 -0.01870002
v 0.05050727 -0.02814133 -0.01870003
v 0.05023419 -0.02818371 0.01670001
v 0.04875326 -0.02836670 -0.01869983
v 0.04856354 -0.02838447 -0.01869981
v 0.05932446 -0.02519343 0.01669998
v 0.05851050 -0.02560737 -0.01870007
v 0.05850974 -0.02560774 0.01670007
v 0.05798759 -0.02585629 -0.01870008
v 0.05774516 -0.02596731 0.01670007
v 0.05636779 -0.02654730 -0.01869991
v 0.05611897 -0.02664313 0.01669987
v 0.05602096 -0.02668015 -0.01869985
v 0.05602096 -0.02668015 0.01669985
v 0.05587820 -0.02673333 0.01669983
v 0.06828471 -0.01776631 0.01669998
v 0.06825484 -0.01780372 -0.01869997
v 0.06745586 -0.01875889 -0.01869980
v 0.06806871 -0.01803391 0.01669993
v 0.06691250 -0.01936278 0.01669973
v 0.06709928 -0.01915908 -0.01869975
v 0.06587041 -0.02043078 -0.01869986
v 0.06567840 -0.02061579 0.01669990
v 0.06569877 -0.02059632 -0.01869990
v 0.06457065 -0.02161900 -0.01870007
v 0.06436757 -0.02179180 0.01670008
v 0.06320183 -0.02272327 -0.01869998
v 0.06298067 -0.02288901 0.01669994
v 0.06275643 -0.02305367 -0.01869989
v 0.06275643 -0.02305367 0.01669989
v 0.06176523 -0.02374252 -0.01869970
v 0.06151778 -0.02390499 0.01669968
v 0.06110717 -0.02416657 -0.01869968
v 0.06085534 -0.02432219 0.01669970
v 0.05956813 -0.02506304 -0.01869994
v 0.05951092 -0.02509392 0.01669995
v 0.06855571 -0.01742097 0.01670002
v 0.06873543 -0.01718576 -0.01870004
v 0.06924496 -0.01649005 0.01670006
v 0.06959984 -0.01597803 0.01670003
v 0.06923883 -0.01649870 -0.01870006
v 0.06975366 -0.01574844 -0.01870001
v 0.07046744 -0.01461487 0.01669984
v 0.07046744 -0.01461487 -0.01869985
v 0.07054538 -0.01448360 0.01669983
v 0.07067980 -0.01425333 -0.01869980
v 0.07096389 -0.01374970 0.01669977
v 0.07139304 -0.01294000 0.01669983
v 0.07214283 -0.01134912 0.01670003
v 0.07220749 -0.01119899 -0.01870004
v 0.07225165 -0.01109509 -0.01870004
v 0.07279400 -0.00971245 0.01670003
v 0.07289343 -0.00943364 -0.01870000
v 0.07314238 -0.00869144 -0.01869991
v 0.07305065 -0.00897286 0.01669995
v 0.07320004 -0.00850929 -0.01869988
v 0.07347337 -0.00758050 0.01669978
v 0.07347337 -0.00758050 -0.01869978
v 0.07362746 -0.00699811 -0.01869977
v 0.07391405 -0.00574940 0.01669990
v 0.07400650 -0.00528072 -0.01869995
v 0.07395528 -0.00554552 0.01669992
v 0.07424217 -0.00382485 -0.01870006
v 0.07424439 -0.00380851 0.01670006
v 0.07427917 -0.00354092 -0.01870006
v 0.07435032 -0.00291709 0.01670003
v 0.07435041 -0.00291619 -0.01870003
v 0.07444435 -0.00178022 -0.01869994
v 0.07450000 -0.00000000 -0.01870000
v 0.07449845 -0.00029670 0.01669994
v -0.02813441 -0.01870003 0.00455030
v -0.02824438 -0.01870006 0.00380852
v -0.02827918 0.01670009 0.00354092
v -0.02835041 -0.01870003 0.00291618
v -0.02835408 0.01670011 0.00288034
v -0.02842557 -0.01869997 0.00205837
v -0.02844435 0.01670017 0.00178022
v -0.02850000 0.01670014 0.00000000
v -0.02849846 -0.01869994 0.00029671
v -0.02800650 0.01670018 0.00528072
v -0.02791441 -0.01869990 0.00574765
v -0.02755779 -0.01869977 0.00726762
v -0.02762746 0.01670033 0.00699811
v -0.02730180 0.01670026 0.00817690
v -0.02730180 -0.01869984 0.00817690
v -0.02714238 0.01670020 0.00869144
v -0.02705065 -0.01869995 0.00897287
v -0.02679399 -0.01870003 0.00971246
v -0.02689342 0.01670011 0.00943365
v -0.02614282 -0.01870003 0.01134913
v -0.02625164 0.01670007 0.01109510
v -0.02600382 0.01670012 0.01166411
v -0.02600382 -0.01869999 0.01166411
v -0.02551298 0.01670025 0.01270188
v -0.02491761 0.01670033 0.01383340
v -0.02539303 -0.01869983 0.01294001
v -0.02454537 -0.01869983 0.01448361
v -0.02467980 0.01670030 0.01425334
v -0.02426258 0.01670021 0.01495250
v -0.02426258 -0.01869989 0.01495250
v -0.02375366 0.01670010 0.01574845
v -0.02359984 -0.01870003 0.01597804
v -0.02339005 0.01670005 0.01628360
v -0.02323881 -0.01870006 0.01649872
v -0.02255570 -0.01870002 0.01742098
v -0.02225482 0.01670011 0.01780373
v -0.02206871 -0.01869993 0.01803392
v -0.02210777 0.01670013 0.01798601
v -0.02162230 0.01670022 0.01856680
v -0.02145584 -0.01869980 0.01875891
v -0.02109927 0.01670030 0.01915909
v -0.02091250 -0.01869973 0.01936278
v -0.01987040 0.01670021 0.02043079
v -0.01967838 -0.01869990 0.02061580
v -0.01957611 0.01670016 0.02071294
v -0.01943759 -0.01869995 0.02084299
v -0.01857064 0.01670003 0.02161901
v -0.01698067 -0.01869993 0.02288901
v -0.01671076 0.01670015 0.02308680
v -0.01576522 0.01670028 0.02374253
v -0.01510716 0.01670029 0.02416658
v -0.01356812 0.01670010 0.02506305
v -0.01332445 -0.01869998 0.02519343
v -0.01254659 0.01670001 0.02558971
v -0.01251050 -0.01870007 0.02560737
v -0.01174515 -0.01870007 0.02596732
v -0.01198758 0.01670000 0.02585630
v -0.01036778 0.01670015 0.02654730
v -0.01017922 0.01670017 0.02662017
v -0.01011895 -0.01869987 0.02664314
v -0.00987987 -0.01869983 0.02673272
v -0.00871060 0.01670028 0.02713624
v -0.00701760 0.01670010 0.02762251
v -0.00673033 -0.01869997 0.02769391
v -0.00662437 0.01670005 0.02771945
v -0.00625628 0.01670002 0.02780484
v -0.00596716 -0.01870004 0.02786832
v -0.00450726 0.01670002 0.02814133
v -0.00423418 -0.01870001 0.02818371
v -0.00275325 0.01670021 0.02836670
v -0.00295659 -0.01869985 0.02834623
v -0.00248775 -0.01869980 0.02839122
v -0.00142689 0.01670024 0.02846426
v -0.00153147 -0.01869978 0.02845882
v -0.00099603 0.01670020 0.02848259
v 0.00076267 0.01670001 0.02848979
v -0.00072953 -0.01869986 0.02849066
v 0.00076158 -0.01870003 0.02848982
v 0.00145919 0.01669997 0.02846262
v 0.00103888 -0.01870004 0.02848106
v 0.00252119 0.01669999 0.02838827
v 0.00281589 -0.01870000 0.02836055
v 0.00329995 0.01670006 0.02830831
v 0.00359376 -0.01869990 0.02827251
v 0.00281587 0.01670002 -0.02836055
v 0.00252118 -0.01870003 -0.02838827
v 0.00126900 0.01669998 -0.02847173
v 0.00103886 0.01669999 -0.02848106
v 0.00126900 -0.01870006 -0.02847173
v 0.00076266 -0.01870003 -0.02848979
v -0.00072955 0.01670017 -0.02849066
v -0.00099605 -0.01869983 -0.02848259
v -0.00142698 0.01670024 -0.02846425
v -0.00153149 -0.01869978 -0.02845882
v -0.00256354 -0.01869981 -0.02838447
v -0.00248777 0.01670023 -0.02839121
v -0.00423420 0.01670004 -0.02818371
v -0.00275326 -0.01869983 -0.02836670
v -0.00450727 -0.01870003 -0.02814133
v -0.00596718 0.01670000 -0.02786831
v -0.00625629 -0.01870002 -0.02780483
v -0.00634969 -0.01870001 -0.02778365
v -0.00634969 0.01670003 -0.02778365
v -0.00673036 0.01670006 -0.02769390
v -0.00701762 -0.01869993 -0.02762251
v -0.00844709 0.01670026 -0.02721942
v -0.00989185 0.01670020 -0.02672829
v -0.00871062 -0.01869974 -0.02713623
v -0.01002096 -0.01869985 -0.02668015
v -0.01332447 0.01670007 -0.02519342
v -0.01251058 -0.01870007 -0.02560733
v -0.01198759 -0.01870008 -0.02585629
v -0.01254662 0.01670001 -0.02558969
v -0.01174517 0.01670001 -0.02596730
v -0.01036779 -0.01869991 -0.02654730
v -0.01011898 0.01670018 -0.02664313
v -0.01002096 0.01670019 -0.02668015
v -0.01510717 -0.01869968 -0.02416657
v -0.01356813 -0.01869994 -0.02506304
v -0.01485537 0.01670028 -0.02432217
v -0.01351092 0.01670009 -0.02509392
v -0.01675644 -0.01869989 -0.02305367
v -0.01675644 0.01670014 -0.02305367
v -0.01551779 0.01670030 -0.02390498
v -0.01507104 0.01670029 -0.02418913
v -0.01857065 -0.01870007 -0.02161900
v -0.01962908 0.01670017 -0.02066275
v -0.01836758 0.01670002 -0.02179178
v -0.01720183 -0.01869998 -0.02272327
v -0.01743819 0.01670006 -0.02254239
v -0.01698069 0.01670011 -0.02288900
v -0.01967841 0.01670017 -0.02061578
v -0.01969877 -0.01869990 -0.02059632
v -0.01987041 -0.01869986 -0.02043078
v -0.02091252 0.01670031 -0.01936276
v -0.02109928 -0.01869975 -0.01915908
v -0.02162234 0.01670022 -0.01856675
v -0.02145593 -0.01869980 -0.01875881
v -0.02206873 0.01670014 -0.01803389
v -0.02228471 0.01670010 -0.01776631
v -0.02255572 0.01670007 -0.01742095
v -0.02225483 -0.01869997 -0.01780372
v -0.02273542 -0.01870004 -0.01718576
v -0.02339004 0.01670005 -0.01628362
v -0.02323891 -0.01870006 -0.01649858
v -0.02359986 0.01670007 -0.01597801
v -0.02375366 -0.01870001 -0.01574844
v -0.02446744 0.01670025 -0.01461487
v -0.02454538 0.01670027 -0.01448358
v -0.02446744 -0.01869985 -0.01461487
v -0.02467980 -0.01869980 -0.01425333
v -0.02491763 0.01670033 -0.01383336
v -0.02539305 0.01670028 -0.01293998
v -0.02551299 -0.01869986 -0.01270187
v -0.02618993 0.01670008 -0.01124001
v -0.02614284 0.01670009 -0.01134910
v -0.02620749 -0.01870004 -0.01119899
v -0.02620749 0.01670008 -0.01119899
v -0.02625165 -0.01870004 -0.01109509
v -0.02679401 0.01670009 -0.00971243
v -0.02689343 -0.01870000 -0.00943364
v -0.02714238 -0.01869991 -0.00869144
v -0.02720003 -0.01869988 -0.00850932
v -0.02747337 0.01670031 -0.00758050
v -0.02747337 -0.01869978 -0.00758050
v -0.02755780 0.01670033 -0.00726759
v -0.02762746 -0.01869977 -0.00699811
v -0.02800650 -0.01869995 -0.00528072
v -0.02824439 0.01670009 -0.00380849
v -0.02827918 -0.01870006 -0.00354092
v -0.02835041 -0.01870003 -0.00291619
v -0.02835409 0.01670011 -0.00288021
v -0.02842557 0.01670016 -0.00205833
v -0.02844435 -0.01869994 -0.00178022
v -0.02850000 -0.01870000 0.00000000
v 0.05906155 -0.02096391 0.02050000
v 0.05737098 -0.02192672 0.02050000
v 0.05253256 0.02382036 0.02050000
v 0.06959891 -0.00729228 0.02050000
v 0.05489228 0.02304370 0.02050000
v 0.06998271 -0.00590934 0.02050000
v 0.07021230 -0.00488362 0.02050000
v 0.07052178 -0.00295987 0.02050000
v 0.07057772 -0.00245256 0.02050000
v 0.05713665 0.02204665 0.02050000
v 0.05927132 0.02083173 0.02050000
v 0.04982816 -0.02440131 0.02050000
v 0.05175713 -0.02401947 0.02050000
v 0.05228537 -0.02388675 0.02050000
v 0.05008327 0.02435990 0.02050000
v 0.04757744 0.02464956 0.02050000
v 0.05463061 -0.02314300 0.02050000
v 0.05691403 -0.02215768 0.02050000
v 0.06111896 0.01953192 0.02050000
v 0.07070000 0.00000001 0.02050000
v 0.07057781 0.00245176 0.02050000
v 0.07021261 0.00488210 0.02050000
v 0.04721710 -0.02466996 0.02050000
v 0.04880729 -0.02453984 0.02050000
v 0.05994356 -0.02038782 0.02050000
v 0.06085747 -0.01973160 0.02050000
v 0.06231107 -0.01854805 0.02050000
v 0.06747478 -0.01220346 0.02050000
v 0.06629653 -0.01407581 0.02050000
v 0.06785527 -0.01150807 0.02050000
v 0.06873751 -0.00964789 0.02050000
v 0.06908813 -0.00877579 0.02050000
v 0.06277904 -0.01812590 0.02050000
v 0.06444192 -0.01643112 0.02050000
v 0.06611185 -0.01433840 0.02050000
v 0.06873862 0.00964529 0.02050000
v 0.06763651 0.01191434 0.02050000
v 0.06630319 0.01406621 0.02050000
v 0.06475738 0.01606995 0.02050000
v 0.05228752 0.02388619 -0.02250000
v 0.06747004 0.01221180 -0.02250000
v 0.06085127 -0.01973626 -0.02250000
v 0.05465766 0.02313290 -0.02250000
v 0.07057780 0.00245179 -0.02250000
v 0.07070000 -0.00000001 -0.02250000
v 0.06763651 -0.01191434 -0.02250000
v 0.07057781 -0.00245176 -0.02250000
v 0.05906155 0.02096391 -0.02250000
v 0.06085131 0.01973623 -0.02250000
v 0.06763650 0.01191437 -0.02250000
v 0.06873859 0.00964537 -0.02250000
v 0.07021261 -0.00488210 -0.02250000
v 0.06959955 -0.00729016 -0.02250000
v 0.06873862 -0.00964529 -0.02250000
v 0.05691474 0.02215733 -0.02250000
v 0.06746999 -0.01221186 -0.02250000
v 0.05906160 -0.02096388 -0.02250000
v 0.05691470 -0.02215736 -0.02250000
v 0.05465762 -0.02313291 -0.02250000
v 0.04478947 0.02467000 -0.02250000
v 0.06277294 0.01813154 -0.02250000
v 0.06453362 0.01632759 -0.02250000
v 0.06610648 0.01434593 -0.02250000
v 0.06610642 -0.01434602 -0.02250000
v 0.06453357 -0.01632763 -0.02250000
v 0.06277286 -0.01813161 -0.02250000
v 0.05228753 -0.02388618 -0.02250000
v 0.04983094 -0.02440087 -0.02250000
v 0.04478949 -0.02467000 -0.02250000
v -0.02457347 0.02050000 -0.00249620
v -0.02470014 0.02050000 -0.00000001
v -0.02849846 0.01670018 -0.00029667
v -0.02795528 0.01670020 -0.00554550
v -0.02705066 0.01670016 -0.00897284
v -0.02719259 0.01670021 -0.00853306
v -0.00618168 0.02050000 -0.02391382
v -0.00373127 0.02050000 -0.02441635
v -0.00123672 0.02050000 0.02466901
v -0.00295659 0.01670019 0.02834623
v -0.01720182 0.01670008 0.02272328
v -0.02273542 0.01670005 0.01718577
v -0.02027129 0.02050000 0.01411232
v -0.02159538 0.02050000 0.01198896
v -0.02356691 0.02050000 0.00739538
v -0.02419512 0.02050000 0.00496875
v -0.02457345 0.02050000 0.00249630
v 0.00121053 -0.02250000 -0.02467000
v -0.00132107 -0.02250000 -0.02466462
v -0.00865766 -0.02250000 -0.02313290
v -0.01091475 -0.02250000 -0.02215732
v -0.01306155 -0.02250000 -0.02096390
v -0.01485133 -0.02250000 -0.01973622
v -0.01576523 -0.01869970 -0.02374252
v -0.01677295 -0.02250000 -0.01813153
v -0.02163650 -0.02250000 -0.01191437
v -0.02824218 -0.01870006 -0.00382485
v -0.02795527 -0.01869992 0.00554553
v -0.02359956 -0.02250000 0.00729015
v -0.01836756 -0.01870008 0.02179180
v -0.01551777 -0.01869967 0.02390500
v -0.01671076 -0.01869988 0.02308680
v -0.01356057 -0.01869994 0.02506713
v -0.01485534 -0.01869970 0.02432219
v -0.00844706 -0.01869975 0.02721943
v -0.00628752 -0.02250000 0.02388618
v 0.04732111 -0.02466462 -0.02250000
v 0.07151299 -0.01270187 -0.01869986
v 0.07449845 0.00029671 -0.01869994
v 0.06959956 0.00729016 -0.02250000
v 0.07021260 0.00488211 -0.02250000
v 0.07395527 0.00554553 -0.01869992
v 0.06298067 0.02288901 -0.01869993
v 0.06436756 0.02179180 -0.01870008
v 0.05611895 0.02664314 -0.01869987
v 0.05587990 0.02673271 -0.01869983
v 0.05444706 0.02721943 -0.01869975
v 0.05273033 0.02769391 -0.01869997
v 0.05196716 0.02786832 -0.01870004
v 0.04983086 0.02440089 -0.02250000
v 0.05023418 0.02818371 -0.01870001
v 0.04732106 0.02466462 -0.02250000
v 0.04496112 0.02848106 -0.01870004
v 0.04523842 0.02848982 -0.01870003
v 0.04209370 0.02823103 0.01669986
v 0.04504655 0.02468129 0.02050000
v 0.04699605 0.02848259 0.01669983
v 0.06302068 0.01789923 0.02050000
v 0.06959955 0.00729016 0.02050000
v 0.04473100 -0.02847173 0.01670006
v 0.04496113 -0.02848106 0.01670004
v 0.06544468 -0.02083638 0.01669995
v 0.06746255 -0.01875124 0.01669980
v 0.07220749 -0.01119899 0.01670004
v 0.07355779 -0.00726761 0.01669977
v 0.07442557 -0.00205836 0.01669997
f 314 313 315
f 142 49 50
f 316 319 8
f 317 319 316
f 314 315 316
f 316 315 317
f 412 415 307
f 156 410 422
f 463 174 175
f 175 174 173
f 143 141 142
f 313 312 504
f 141 143 504
f 464 309 463
f 464 440 309
f 463 175 464
f 178 440 464
f 456 457 309
f 456 162 457
f 457 162 164
f 164 162 163
f 358 359 360
f 337 336 13
f 13 12 337
f 337 12 339
f 335 336 337
f 371 369 370
f 381 382 383
f 383 14 381
f 418 306 307
f 219 406 217
f 422 410 305
f 305 410 411
f 305 412 307
f 411 412 305
f 305 304 302
f 307 306 305
f 306 304 305
f 142 50 528
f 528 143 142
f 35 145 34
f 36 145 35
f 43 145 37
f 37 145 36
f 37 265 43
f 110 111 84
f 104 525 106
f 106 525 108
f 459 460 308
f 308 460 461
f 214 217 215
f 358 24 355
f 29 522 23
f 4 285 1
f 476 296 298
f 298 299 476
f 293 296 476
f 476 477 293
f 1 288 289
f 1 285 286
f 286 288 1
f 480 481 252
f 23 522 480
f 150 412 411
f 138 156 422
f 422 421 138
f 185 187 186
f 185 399 187
f 187 399 189
f 176 175 173
f 179 529 425
f 178 529 179
f 317 315 486
f 486 315 313
f 466 312 309
f 466 504 312
f 157 466 155
f 504 466 157
f 157 155 156
f 156 138 157
f 467 143 313
f 313 504 467
f 467 504 143
f 178 464 177
f 177 464 175
f 177 529 178
f 175 176 177
f 177 176 529
f 309 440 455
f 455 456 309
f 188 455 186
f 456 455 188
f 186 187 188
f 187 189 188
f 180 440 178
f 180 182 440
f 178 179 180
f 147 457 166
f 457 164 166
f 166 168 147
f 28 371 26
f 28 369 371
f 28 27 364
f 25 24 358
f 358 360 25
f 360 27 25
f 362 27 360
f 55 322 321
f 321 320 319
f 322 320 321
f 321 486 55
f 324 322 55
f 55 56 324
f 347 17 16
f 335 337 338
f 339 332 338
f 338 337 339
f 48 359 357
f 357 359 358
f 358 355 357
f 344 333 342
f 343 16 344
f 344 342 343
f 343 342 341
f 5 14 383
f 21 376 379
f 21 381 14
f 472 5 383
f 6 389 471
f 471 11 6
f 392 11 471
f 471 391 392
f 470 398 231
f 54 365 48
f 376 375 377
f 379 376 377
f 396 395 394
f 378 21 379
f 381 21 378
f 401 304 306
f 526 306 420
f 526 434 306
f 67 434 526
f 420 73 526
f 435 436 306
f 306 434 435
f 306 525 417
f 306 436 437
f 437 525 306
f 111 110 437
f 108 525 437
f 437 110 108
f 307 415 416
f 415 163 416
f 424 425 307
f 424 179 425
f 307 432 433
f 433 432 169
f 307 425 431
f 431 432 307
f 425 529 431
f 529 176 431
f 173 432 431
f 431 176 173
f 530 432 173
f 173 174 530
f 193 195 196
f 429 201 202
f 405 406 307
f 215 217 405
f 405 217 406
f 210 402 208
f 307 406 407
f 407 418 307
f 407 406 219
f 420 306 419
f 306 418 419
f 419 75 420
f 292 477 291
f 34 145 33
f 145 503 33
f 527 50 51
f 527 528 50
f 51 503 527
f 527 503 145
f 420 75 74
f 74 73 420
f 311 313 314
f 311 312 313
f 459 308 447
f 443 445 309
f 309 308 443
f 84 460 109
f 109 110 84
f 108 110 109
f 107 460 459
f 107 109 460
f 107 106 108
f 108 109 107
f 451 452 309
f 58 448 439
f 439 308 461
f 439 448 308
f 76 74 75
f 308 448 449
f 12 329 330
f 331 329 328
f 328 56 331
f 332 330 331
f 331 330 329
f 520 316 8
f 326 7 323
f 323 320 322
f 323 324 326
f 322 324 323
f 327 7 326
f 328 329 327
f 350 355 24
f 351 349 350
f 346 17 347
f 345 354 346
f 346 18 17
f 354 18 346
f 19 18 351
f 19 350 24
f 351 350 19
f 351 18 353
f 353 18 354
f 353 349 351
f 522 29 30
f 30 29 270
f 31 275 3
f 2 134 1
f 2 476 134
f 2 289 291
f 1 289 2
f 291 477 2
f 477 476 2
f 264 29 23
f 23 262 264
f 247 481 22
f 22 245 247
f 247 248 481
f 249 248 247
f 23 480 479
f 165 163 415
f 165 164 163
f 165 166 164
f 411 410 153
f 410 156 153
f 156 155 153
f 412 150 148
f 415 412 148
f 148 168 415
f 147 168 148
f 142 141 139
f 139 138 421
f 139 49 142
f 163 162 161
f 161 416 163
f 150 151 149
f 147 148 149
f 149 148 150
f 313 143 485
f 485 486 313
f 143 486 485
f 146 56 55
f 146 54 48
f 39 40 146
f 146 145 39
f 146 527 145
f 345 490 352
f 352 490 349
f 349 353 352
f 352 354 345
f 352 353 354
f 491 490 345
f 347 341 491
f 491 346 347
f 345 346 491
f 309 457 465
f 465 466 309
f 465 457 147
f 147 149 465
f 465 149 151
f 155 466 154
f 154 153 155
f 154 465 151
f 466 465 154
f 141 504 140
f 140 139 141
f 138 139 140
f 440 182 184
f 184 455 440
f 186 455 184
f 184 185 186
f 184 182 183
f 183 185 184
f 162 456 160
f 456 188 160
f 160 161 162
f 26 371 372
f 372 375 26
f 367 28 364
f 369 28 367
f 364 27 363
f 27 362 363
f 363 365 364
f 362 365 363
f 318 319 317
f 318 321 319
f 317 486 318
f 486 321 318
f 344 16 15
f 15 333 344
f 13 336 15
f 336 333 15
f 356 350 349
f 356 357 355
f 355 350 356
f 335 488 334
f 488 342 334
f 334 336 335
f 334 333 336
f 334 342 333
f 348 341 347
f 348 343 341
f 347 16 348
f 16 343 348
f 387 389 6
f 6 5 387
f 376 21 20
f 26 375 20
f 20 375 376
f 482 242 22
f 361 359 48
f 48 365 361
f 361 360 359
f 361 362 360
f 361 365 362
f 368 54 370
f 368 370 369
f 369 367 368
f 380 52 382
f 380 377 52
f 379 377 380
f 380 378 379
f 382 381 380
f 381 378 380
f 54 146 53
f 370 54 53
f 392 391 494
f 394 40 397
f 396 394 397
f 397 39 398
f 397 40 39
f 398 470 397
f 397 470 396
f 382 52 384
f 383 382 384
f 384 472 383
f 52 146 42
f 42 384 52
f 43 265 263
f 265 264 263
f 263 264 262
f 44 145 43
f 44 32 145
f 43 258 44
f 253 32 44
f 45 46 145
f 145 32 45
f 45 249 46
f 241 46 243
f 250 32 253
f 250 248 249
f 250 45 32
f 249 45 250
f 250 253 252
f 398 39 232
f 39 229 232
f 229 230 232
f 231 398 232
f 232 230 231
f 145 46 496
f 496 47 145
f 496 46 241
f 38 47 224
f 38 229 39
f 39 145 38
f 145 47 38
f 306 408 403
f 403 401 306
f 408 118 403
f 414 299 302
f 114 403 115
f 401 403 114
f 72 526 73
f 409 408 306
f 306 417 409
f 409 94 408
f 100 409 417
f 102 525 104
f 102 417 525
f 104 103 102
f 87 437 436
f 436 435 92
f 92 90 436
f 65 434 67
f 65 63 434
f 67 66 65
f 61 435 434
f 434 63 61
f 59 435 61
f 63 62 61
f 400 399 307
f 307 416 400
f 400 189 399
f 416 161 400
f 307 399 423
f 423 424 307
f 399 185 423
f 423 185 183
f 183 424 423
f 181 424 183
f 179 424 181
f 181 180 179
f 183 182 181
f 182 180 181
f 427 426 307
f 307 433 427
f 427 196 426
f 193 196 427
f 193 427 192
f 192 427 433
f 169 432 172
f 432 530 172
f 172 170 169
f 198 200 426
f 426 196 198
f 307 426 428
f 428 429 307
f 201 429 428
f 426 200 428
f 200 201 428
f 430 402 307
f 307 429 430
f 205 208 430
f 430 208 402
f 307 402 404
f 404 405 307
f 404 402 210
f 533 407 219
f 219 220 533
f 418 407 533
f 82 418 57
f 82 419 418
f 290 503 51
f 51 292 290
f 291 289 290
f 290 292 291
f 51 50 294
f 294 292 51
f 293 477 294
f 477 292 294
f 500 35 34
f 34 276 500
f 500 276 275
f 408 94 120
f 120 118 408
f 310 308 309
f 309 312 310
f 312 311 310
f 446 308 453
f 446 447 308
f 99 447 446
f 511 102 103
f 511 103 459
f 459 447 511
f 459 103 105
f 105 107 459
f 106 107 105
f 104 106 105
f 105 103 104
f 85 86 461
f 85 460 84
f 461 460 85
f 85 87 86
f 461 86 89
f 171 174 463
f 463 170 171
f 171 530 174
f 171 172 530
f 170 172 171
f 194 195 193
f 193 192 194
f 463 309 462
f 309 454 462
f 462 170 463
f 462 454 195
f 195 194 462
f 309 452 444
f 444 454 309
f 309 445 450
f 450 451 309
f 210 208 209
f 221 220 445
f 221 443 222
f 445 443 221
f 221 533 220
f 216 450 445
f 214 450 216
f 217 214 216
f 60 448 58
f 60 61 62
f 60 449 448
f 62 449 60
f 60 58 59
f 59 61 60
f 71 72 73
f 66 449 64
f 64 449 62
f 64 65 66
f 64 62 63
f 63 65 64
f 339 12 340
f 12 330 340
f 340 332 339
f 340 330 332
f 137 12 13
f 13 15 137
f 137 15 16
f 137 16 17
f 17 18 137
f 18 19 137
f 137 19 24
f 24 25 137
f 137 25 27
f 27 28 137
f 137 28 26
f 26 20 137
f 137 20 21
f 137 21 14
f 14 5 137
f 137 5 6
f 6 11 137
f 516 129 130
f 326 324 325
f 325 327 326
f 328 327 325
f 325 56 328
f 325 324 56
f 274 275 31
f 31 273 274
f 31 30 272
f 272 273 31
f 285 4 282
f 4 281 282
f 282 284 285
f 4 3 280
f 280 281 4
f 29 264 266
f 266 264 265
f 244 245 22
f 22 242 244
f 244 243 245
f 244 242 241
f 241 243 244
f 252 481 251
f 481 248 251
f 251 250 252
f 248 250 251
f 256 479 480
f 23 479 259
f 259 479 258
f 415 168 167
f 167 165 415
f 168 166 167
f 166 165 167
f 152 150 411
f 411 153 152
f 152 151 150
f 152 154 151
f 153 154 152
f 487 146 488
f 56 146 487
f 487 338 332
f 332 331 487
f 487 331 56
f 487 488 335
f 335 338 487
f 488 146 489
f 489 146 490
f 489 342 488
f 341 342 489
f 489 491 341
f 490 491 489
f 492 146 48
f 490 146 492
f 48 357 492
f 357 356 492
f 349 490 492
f 492 356 349
f 55 486 144
f 144 146 55
f 144 486 143
f 527 146 144
f 143 528 144
f 528 527 144
f 504 157 158
f 158 140 504
f 158 157 138
f 138 140 158
f 5 472 473
f 473 387 5
f 386 387 473
f 483 484 226
f 239 482 237
f 242 482 239
f 226 484 228
f 484 230 228
f 228 230 229
f 365 54 366
f 54 368 366
f 364 365 366
f 366 367 364
f 366 368 367
f 52 377 493
f 493 146 52
f 493 53 146
f 374 493 377
f 53 493 374
f 374 377 375
f 375 372 374
f 393 40 394
f 393 494 40
f 392 494 393
f 393 395 392
f 393 394 395
f 41 146 40
f 41 42 146
f 41 494 391
f 40 494 41
f 385 42 386
f 384 42 385
f 472 384 385
f 385 473 472
f 386 473 385
f 260 258 43
f 43 263 260
f 260 259 258
f 260 263 262
f 253 44 255
f 46 249 246
f 246 243 46
f 245 243 246
f 246 247 245
f 249 247 246
f 47 496 235
f 229 38 227
f 226 228 227
f 227 228 229
f 115 403 117
f 117 403 118
f 304 401 413
f 302 304 413
f 413 414 302
f 130 129 413
f 413 401 130
f 401 114 113
f 67 526 69
f 526 72 69
f 94 409 96
f 101 100 417
f 417 102 101
f 102 511 101
f 436 90 88
f 88 87 436
f 86 87 88
f 90 89 88
f 88 89 86
f 111 437 112
f 437 87 112
f 87 85 112
f 84 111 112
f 112 85 84
f 93 435 59
f 93 92 435
f 59 58 93
f 58 92 93
f 189 400 159
f 159 400 161
f 161 160 159
f 159 188 189
f 159 160 188
f 190 433 169
f 190 192 433
f 169 170 190
f 531 429 202
f 531 430 429
f 205 430 531
f 531 204 205
f 532 404 210
f 215 405 213
f 405 404 213
f 404 532 213
f 213 214 215
f 57 418 223
f 418 533 223
f 533 221 223
f 223 222 57
f 223 221 222
f 419 82 81
f 284 33 502
f 502 33 503
f 285 284 502
f 502 286 285
f 300 50 49
f 300 299 298
f 265 37 267
f 267 266 265
f 510 447 99
f 510 511 447
f 510 101 511
f 99 100 510
f 100 101 510
f 91 439 461
f 461 89 91
f 58 439 91
f 91 92 58
f 90 92 91
f 91 89 90
f 170 462 191
f 191 462 194
f 191 190 170
f 191 194 192
f 192 190 191
f 505 444 452
f 505 201 200
f 202 201 505
f 206 208 205
f 205 204 206
f 204 452 206
f 452 451 206
f 445 220 218
f 218 216 445
f 217 216 218
f 219 217 218
f 218 220 219
f 509 76 508
f 508 71 509
f 74 76 509
f 73 74 509
f 509 71 73
f 507 71 508
f 507 508 308
f 308 449 507
f 507 449 66
f 80 81 82
f 79 81 80
f 508 76 442
f 308 508 442
f 442 443 308
f 79 80 442
f 12 137 474
f 474 329 12
f 474 327 329
f 7 327 474
f 7 474 135
f 135 474 137
f 134 520 135
f 396 470 469
f 469 470 231
f 231 230 469
f 469 230 484
f 134 476 133
f 133 520 134
f 133 476 299
f 524 132 133
f 116 117 118
f 519 310 311
f 519 311 314
f 498 274 273
f 478 30 270
f 478 272 30
f 277 3 275
f 277 280 3
f 275 276 277
f 281 280 279
f 34 33 279
f 270 29 268
f 29 266 268
f 266 267 268
f 254 480 252
f 254 256 480
f 254 255 256
f 252 253 254
f 253 255 254
f 261 262 23
f 23 259 261
f 261 260 262
f 259 260 261
f 233 483 226
f 233 226 224
f 370 53 373
f 53 374 373
f 371 370 373
f 373 372 371
f 373 374 372
f 42 41 390
f 390 41 391
f 390 471 389
f 391 471 390
f 257 44 258
f 257 255 44
f 256 255 257
f 258 479 257
f 479 256 257
f 47 235 234
f 238 235 496
f 238 239 237
f 237 235 238
f 225 38 224
f 225 227 38
f 224 226 225
f 226 227 225
f 130 401 131
f 401 113 131
f 514 113 114
f 409 100 97
f 97 96 409
f 97 100 99
f 212 450 214
f 214 213 212
f 212 213 532
f 451 450 212
f 75 419 78
f 419 81 78
f 78 81 79
f 503 290 287
f 287 502 503
f 286 502 287
f 288 286 287
f 287 289 288
f 287 290 289
f 50 300 297
f 298 296 297
f 297 300 298
f 49 139 303
f 303 139 421
f 303 421 422
f 422 305 303
f 302 299 303
f 303 305 302
f 203 452 204
f 203 505 452
f 202 505 203
f 204 531 203
f 203 531 202
f 454 444 199
f 444 505 199
f 200 198 199
f 199 505 200
f 207 209 208
f 208 206 207
f 451 209 207
f 207 206 451
f 71 507 70
f 72 71 70
f 70 69 72
f 83 80 82
f 83 82 57
f 443 442 83
f 83 442 80
f 77 442 76
f 79 442 77
f 77 78 79
f 77 76 75
f 75 78 77
f 7 135 475
f 320 323 475
f 475 323 7
f 10 520 8
f 10 135 520
f 10 475 135
f 8 319 10
f 319 320 10
f 320 475 10
f 468 469 137
f 468 395 396
f 396 469 468
f 137 469 136
f 136 469 484
f 134 135 136
f 136 135 137
f 484 483 136
f 136 3 4
f 1 134 136
f 136 4 1
f 136 483 482
f 31 3 136
f 136 482 22
f 522 30 136
f 136 30 31
f 22 481 136
f 136 480 522
f 481 480 136
f 124 524 414
f 414 126 124
f 414 413 128
f 128 126 414
f 128 413 129
f 520 133 521
f 521 133 132
f 414 524 523
f 524 133 523
f 299 414 523
f 523 133 299
f 122 446 453
f 458 519 314
f 314 316 458
f 316 520 458
f 520 521 458
f 132 519 458
f 458 521 132
f 308 310 438
f 126 128 127
f 274 498 501
f 501 500 275
f 275 274 501
f 35 500 501
f 501 498 35
f 273 272 499
f 499 498 273
f 36 35 499
f 35 498 499
f 281 279 283
f 284 282 283
f 283 282 281
f 283 33 284
f 283 279 33
f 280 277 278
f 278 279 280
f 278 277 276
f 278 276 34
f 34 279 278
f 483 233 236
f 237 482 236
f 482 483 236
f 236 235 237
f 236 234 235
f 233 234 236
f 386 42 388
f 42 390 388
f 388 387 386
f 389 387 388
f 388 390 389
f 224 47 495
f 47 234 495
f 495 233 224
f 495 234 233
f 240 496 241
f 240 238 496
f 239 238 240
f 241 242 240
f 242 239 240
f 113 514 515
f 515 131 113
f 515 438 516
f 514 438 515
f 515 516 130
f 130 131 515
f 513 114 115
f 513 514 114
f 211 209 451
f 451 212 211
f 210 209 211
f 211 532 210
f 211 212 532
f 295 294 50
f 50 297 295
f 293 294 295
f 295 296 293
f 295 297 296
f 301 300 49
f 49 303 301
f 299 300 301
f 301 303 299
f 195 454 197
f 454 199 197
f 197 196 195
f 197 198 196
f 197 199 198
f 68 507 66
f 68 70 507
f 69 70 68
f 68 66 67
f 67 69 68
f 57 222 506
f 506 83 57
f 222 443 506
f 443 83 506
f 9 137 11
f 9 468 137
f 9 11 392
f 392 395 9
f 395 468 9
f 453 116 119
f 118 120 119
f 119 116 118
f 446 122 95
f 94 96 95
f 95 122 94
f 453 308 441
f 308 438 441
f 441 116 453
f 441 438 514
f 514 513 441
f 123 519 132
f 123 132 524
f 524 124 123
f 519 127 517
f 310 519 517
f 517 438 310
f 516 438 517
f 518 128 129
f 518 127 128
f 129 516 518
f 516 517 518
f 518 517 127
f 272 478 271
f 271 499 272
f 36 499 271
f 115 117 512
f 512 513 115
f 117 116 512
f 116 441 512
f 512 441 513
f 121 122 453
f 453 119 121
f 121 119 120
f 121 120 94
f 94 122 121
f 99 446 98
f 446 95 98
f 98 97 99
f 96 97 98
f 98 95 96
f 125 127 519
f 519 123 125
f 125 123 124
f 125 124 126
f 126 127 125
f 497 478 270
f 497 271 478
f 497 37 36
f 36 271 497
f 269 497 270
f 270 268 269
f 269 268 267
f 269 267 37
f 37 497 269

