# https://github.com/mikedh/trimesh
v 0.06894319 0.01693462 -0.04162990
v 0.06894296 0.01787089 -0.04126877
v 0.06894244 0.01976444 -0.04040091
v 0.06894192 0.02226172 -0.03893532
v 0.06894118 0.02520056 -0.03662490
v 0.06894023 0.02723411 -0.03453028
v 0.06893954 0.02851989 -0.03291963
v 0.06893930 0.02902883 -0.03220390
v 0.06893785 0.03111823 -0.02861037
v 0.06893724 0.03192851 -0.02679622
v 0.06893625 0.03298074 -0.02378335
v 0.06893522 0.03374468 -0.02062683
v 0.06689692 0.00710203 0.02451917
v 0.06689698 -0.00356883 0.02451920
v 0.01699795 0.02271021 -0.03590540
v -0.00822908 0.02271019 -0.02866260
v -0.01440078 0.02271019 -0.02611283
v -0.01985037 0.02271018 -0.02225365
v -0.02939458 0.02271018 -0.00502209
v -0.02977511 0.02271019 0.00164473
v -0.02866259 0.02271019 0.00822908
v -0.02611282 0.02271019 0.01440078
v -0.02225365 0.02271019 0.01985038
v -0.01727857 0.02271019 0.02430459
v -0.01143708 0.02271018 0.02754006
v -0.00502209 0.02271018 0.02939457
v 0.00164473 0.02271019 0.02977511
v 0.04371719 0.02224472 -0.04110561
v 0.04154002 0.02332522 -0.04076382
v 0.03898528 0.02417790 -0.04037978
v 0.03830643 0.02435216 -0.04027779
v 0.03496380 0.02498760 -0.03976116
v 0.03056603 0.02544199 -0.03901365
v 0.02158431 0.02570532 -0.03712181
v 0.02773036 0.02559108 -0.03847635
v 0.01699767 0.02571061 -0.03590537
v 0.06893347 0.02524459 0.01537294
v 0.06893259 0.02879352 0.01174531
v 0.06893116 0.03031594 0.00946486
v 0.06893015 0.03144570 0.00726394
v 0.06892914 0.03260875 0.00422647
v 0.06892917 0.03351684 0.00083055
v 0.06892937 0.03374459 -0.00027827
v 0.06893057 0.03438666 -0.00452331
v 0.06893124 0.03459221 -0.00683360
v 0.06893261 0.03470968 -0.01112556
v 0.06893323 0.03461594 -0.01370009
v 0.06893374 0.03447103 -0.01556280
v 0.06893449 0.03418662 -0.01797225
v 0.06893322 0.02700390 0.01379396
v 0.06893332 0.02650156 0.01428158
v 0.04714261 0.03374482 -0.02063325
v 0.06694820 0.00745624 0.02445443
v 0.06690019 0.00719166 0.02451509
v -0.00268419 0.03428881 -0.00621704
v -0.00348970 0.03428880 -0.00580333
v -0.00420830 0.03428879 -0.00530537
v -0.00544275 0.03428874 -0.00402913
v -0.00630299 0.03428867 -0.00247602
v -0.00657136 0.03428862 -0.00163582
v -0.00669431 0.03428849 0.00102304
v -0.00650904 0.03428844 0.00186912
v -0.00326417 0.03460885 0.00093759
v -0.00164539 0.03460871 0.00297130
v 0.00438960 0.03231248 0.01528934
v -0.00640595 0.02945722 -0.02231249
v -0.00734425 0.02768280 -0.02558066
v 0.00006051 0.03460865 0.00339603
v 0.00000015 0.03471630 0.00000049
v 0.00112082 0.03456061 0.00390391
v -0.00541906 0.03100820 -0.01887506
v -0.00438958 0.03231254 -0.01528930
v -0.00782266 0.03097098 -0.01811891
v 0.00450345 0.02571011 0.02947849
v 0.00164473 0.02571011 0.02977511
v 0.00045741 0.02817755 0.02571943
v -0.00331538 0.02571011 0.02963563
v -0.00502209 0.02571012 0.02939458
v -0.00285987 0.02817757 0.02556402
v 0.00223211 0.03410334 0.00777461
v 0.00102281 0.03428807 0.00669475
v 0.00012052 0.03428808 0.00677135
v -0.00075280 0.03428810 0.00673043
v -0.00082039 0.03460867 0.00329595
v -0.00163605 0.03428812 0.00657180
v -0.00328113 0.03428818 0.00592442
v -0.00470259 0.03428826 0.00487331
v -0.00402937 0.03428821 0.00544318
v -0.00235824 0.03460875 0.00244418
v -0.02015346 0.02817775 0.01598547
v -0.01786292 0.02817771 0.01850982
v -0.02225364 0.02571015 0.01985038
v -0.02070800 0.02571014 0.02145790
v -0.01530572 0.02817767 0.02067443
v -0.01246357 0.02817764 0.02250238
v -0.01727857 0.02571013 0.02430460
v -0.01444868 0.02571013 0.02608636
v -0.00940630 0.02817761 0.02394199
v -0.01143708 0.02571012 0.02754007
v -0.00720470 0.02571011 0.02893708
v -0.00580356 0.03428835 0.00349012
v -0.00530561 0.03428830 0.00420874
v -0.00291037 0.03460880 0.00175052
v -0.00621728 0.03428839 0.00268462
v -0.00339550 0.03460890 0.00006080
v -0.02939456 0.02571020 -0.00502209
v -0.02963563 0.02571020 -0.00331537
v -0.02977510 0.02571019 0.00164473
v -0.02947849 0.02571019 0.00450346
v -0.02542842 0.02817791 0.00388476
v -0.02866260 0.02571018 0.00822908
v -0.02361641 0.02817783 0.01019617
v -0.02204493 0.02817778 0.01325585
v -0.02611282 0.02571016 0.01440079
v -0.02336336 0.02571015 0.01853148
v -0.00329542 0.03460896 -0.00082011
v -0.00592398 0.03428871 -0.00328089
v -0.00297076 0.03460900 -0.00164510
v -0.00487288 0.03428876 -0.00470235
v -0.00244364 0.03460903 -0.00235795
v -0.01850977 0.02817816 -0.01786289
v -0.01985038 0.02571023 -0.02225364
v -0.02145788 0.02571023 -0.02070799
v -0.02067439 0.02817813 -0.01530570
v -0.02430459 0.02571023 -0.01727857
v -0.02250233 0.02817810 -0.01246354
v -0.02608635 0.02571022 -0.01444867
v -0.02754006 0.02571022 -0.01143708
v -0.02893708 0.02571021 -0.00720470
v -0.02496140 0.02817804 -0.00621482
v -0.00174999 0.03460906 -0.00291008
v -0.00709841 0.02817775 -0.02472438
v -0.01019612 0.02817819 -0.02361638
v -0.01182010 0.02571023 -0.02737786
v -0.01598542 0.02817818 -0.02015343
v -0.01440078 0.02571024 -0.02611282
v 0.00388474 0.02817755 0.02542847
v 0.00298047 0.03096992 0.01950933
v 0.00035095 0.03096993 0.01973256
v -0.00219413 0.03096996 0.01961333
v -0.00621484 0.02817759 0.02496144
v -0.00476813 0.03096999 0.01915102
v -0.00721669 0.03097003 0.01836888
v -0.01174285 0.03097013 0.01586193
v -0.01370478 0.03097018 0.01420120
v -0.01546213 0.03097025 0.01226446
v -0.01691332 0.03097032 0.01017024
v -0.02472463 0.02817787 0.00709852
v -0.01896923 0.03097045 0.00544621
v -0.01950920 0.03097052 0.00298054
v -0.02571937 0.02817796 0.00045743
v -0.01973243 0.03097059 0.00035103
v -0.02556397 0.02817800 -0.00285985
v -0.01961320 0.03097066 -0.00219406
v -0.01915089 0.03097072 -0.00476806
v -0.02394195 0.02817807 -0.00940628
v -0.01586181 0.03097087 -0.01174278
v -0.01420107 0.03097091 -0.01370471
v -0.01226433 0.03097094 -0.01546206
v -0.01325580 0.02817819 -0.02204491
v -0.01017012 0.03097097 -0.01691324
v 0.00202204 0.03302469 0.01323561
v 0.00023813 0.03302471 0.01338706
v -0.00148850 0.03302473 0.01330617
v -0.00323475 0.03302477 0.01299253
v -0.00489590 0.03302480 0.01246191
v -0.00956228 0.03097008 0.01726438
v -0.00648719 0.03302485 0.01171260
v -0.00796652 0.03302491 0.01076115
v -0.00929753 0.03302497 0.00963448
v -0.01048975 0.03302503 0.00832057
v -0.01147426 0.03302510 0.00689981
v -0.01811899 0.03097038 0.00782279
v -0.01229220 0.03302516 0.00530725
v -0.01286903 0.03302524 0.00369494
v -0.01330591 0.03302545 -0.00148836
v -0.01299226 0.03302551 -0.00323461
v -0.01836874 0.03097078 -0.00721663
v -0.01246164 0.03302557 -0.00489576
v -0.01726425 0.03097082 -0.00956221
v -0.01171233 0.03302563 -0.00648705
v -0.01076089 0.03302567 -0.00796638
v -0.00832030 0.03302575 -0.01048961
v -0.00689954 0.03302577 -0.01147412
v -0.00530699 0.03302578 -0.01229206
v -0.00369455 0.03302420 -0.01286848
v -0.00332459 0.03334985 -0.01157986
v 0.00332462 0.03334980 0.01157990
v -0.00247625 0.03428815 0.00630341
v -0.01323535 0.03302531 0.00202219
v -0.01338679 0.03302538 0.00023828
v -0.00677092 0.03428854 0.00012075
v -0.00673000 0.03428859 -0.00075257
v -0.00963423 0.03302571 -0.00929739
v -0.00223209 0.03410337 -0.00777457
v -0.00112080 0.03456063 -0.00390386
v 0.01911326 0.02997621 -0.02853586
v 0.02132659 0.03287332 -0.02082819
v 0.02021593 0.03159994 -0.02469528
v 0.02241969 0.03379807 -0.01702119
v 0.02522721 0.03477544 -0.00724204
v 0.00640596 0.02945711 0.02231252
v 0.03791392 0.03200010 -0.02766199
v 0.04469607 0.03184520 -0.02827175
v 0.04439875 0.03012578 -0.03277263
v 0.03684724 0.02556359 -0.03932477
v 0.01772757 0.02736887 -0.03336430
v 0.02368639 0.02784275 -0.03424899
v 0.03007396 0.02570165 -0.03867482
v 0.03027515 0.02701553 -0.03706596
v 0.03046038 0.02821302 -0.03526417
v 0.03080359 0.03027774 -0.03124507
v 0.04338335 0.02320522 -0.04070634
v 0.06894138 0.02458679 -0.03716935
v 0.06894172 0.02317567 -0.03829279
v 0.06893825 0.03058350 -0.02965343
v 0.05851400 0.03285473 -0.02439384
v 0.03147880 0.03319539 -0.02231958
v 0.02846798 0.03380096 -0.01871082
v 0.04498668 0.03312902 -0.02353654
v 0.03460594 0.03378008 -0.02003584
v 0.04086318 0.03375329 -0.02055885
v 0.03706355 0.02697853 -0.03786230
v 0.04405760 0.02785021 -0.03670575
v 0.03725794 0.02824512 -0.03614539
v 0.04423609 0.02906465 -0.03483344
v 0.03743523 0.02937109 -0.03422334
v 0.03760067 0.03036556 -0.03214296
v 0.03113632 0.03192956 -0.02687451
v 0.06893664 0.03264746 -0.02484834
v 0.05082338 0.02712709 -0.03681294
v 0.05100853 0.02847156 -0.03501760
v 0.04363323 0.02491846 -0.03967200
v 0.05061532 0.02561424 -0.03836782
v 0.04385817 0.02647028 -0.03833609
v 0.05147172 0.03157796 -0.02865952
v 0.04121853 0.03448149 -0.01547982
v 0.03532149 0.03450994 -0.01495224
v 0.03604047 0.03475570 -0.00984201
v 0.02952816 0.03453178 -0.01372701
v 0.03059586 0.03477716 -0.00870590
v 0.02381708 0.03452985 -0.01215423
v 0.04714078 0.03458010 -0.01425388
v 0.00822909 0.02571010 0.02866260
v -0.00822907 0.02571024 -0.02866259
v -0.02737786 0.02571017 0.01182010
v -0.02754007 0.02271018 -0.01143708
v -0.02430458 0.02271018 -0.01727858
v -0.01853147 0.02571023 -0.02336336
v 0.05117496 0.00705753 -0.04543024
v 0.05115095 0.00727552 -0.04540610
v 0.06691708 0.00710217 -0.04542571
v 0.06694862 0.00738033 -0.04538621
v 0.06699587 0.00753925 -0.04532529
v 0.05117500 -0.00347991 -0.04543028
v 0.05117198 -0.00356115 -0.04542686
v 0.05112429 -0.00381611 -0.04537181
v 0.06691707 -0.00356870 -0.04542569
v 0.06698633 -0.00397807 -0.04533810
v 0.05100888 -0.00407484 -0.04523283
v 0.06893697 -0.02662717 -0.02730541
v 0.06894082 -0.01419713 -0.03933565
v 0.06893970 -0.01704571 -0.03757145
v 0.06894053 -0.01472272 -0.03903970
v 0.06893989 -0.02262040 -0.03270403
v 0.06894056 -0.02139548 -0.03397401
v 0.06893993 -0.01888690 -0.03620020
v 0.06893697 -0.02624779 -0.02792778
v 0.06893818 -0.02431145 -0.03069968
v 0.06893741 -0.02787808 -0.02499675
v 0.06893755 -0.02847697 -0.02370858
v 0.06893359 -0.03106882 -0.01398371
v 0.06893354 -0.03102376 -0.01437970
v 0.06893399 -0.03045556 -0.01768516
v 0.06893618 -0.02954588 -0.02094173
v 0.06893689 -0.02920189 -0.02191620
v 0.06893367 -0.03125531 -0.01000126
v 0.06893393 -0.03125327 -0.01103461
v 0.06893233 -0.03116290 -0.00794473
v 0.06893136 -0.03103577 -0.00662715
v 0.06893029 -0.02924703 0.00088834
v 0.06893013 -0.02958715 -0.00008743
v 0.06892984 -0.03047782 -0.00331996
v 0.06893008 -0.02861199 0.00249129
v 0.06892914 -0.02792302 0.00399957
v 0.06892728 -0.02662724 0.00639994
v 0.06892671 -0.02374744 0.01049934
v 0.06892651 -0.02439139 0.00969112
v 0.06892695 -0.02630183 0.00693565
v 0.06892565 -0.01953343 0.01476380
v 0.06892705 -0.02146823 0.01299693
v 0.06892714 -0.02238930 0.01204888
v 0.06892518 -0.01896657 0.01523088
v 0.06892411 -0.01704582 0.01666602
v 0.06892395 -0.01625174 0.01719867
v 0.06892397 -0.01537660 0.01774815
v 0.05105482 -0.00394916 0.02439718
v 0.06692246 -0.00381882 0.02448738
v 0.05102525 -0.00401066 0.02436138
v 0.06699685 -0.00405745 0.02439183
v 0.05113516 -0.00369147 0.02449192
v 0.06893987 -0.01614221 -0.03817490
v 0.04914842 -0.01084170 -0.04095075
v 0.04913664 -0.02956531 -0.00002746
v 0.04914065 -0.03106881 -0.01398940
v 0.04914263 -0.02956527 -0.02088940
v 0.04914611 -0.02238919 -0.03296002
v 0.06893884 -0.02366435 -0.03150529
v 0.04913186 -0.01704581 0.01666034
v 0.04913318 -0.02238928 0.01204319
v 0.04913480 -0.02662723 0.00639425
v 0.04913665 -0.02956532 -0.00002746
v 0.04913862 -0.03106883 -0.00692747
v 0.04914067 -0.03106881 -0.01398940
v 0.04914265 -0.02956528 -0.02088941
v 0.04914450 -0.02662716 -0.02731111
v 0.04914613 -0.02238919 -0.03296003
v 0.04914746 -0.01704570 -0.03757715
v 0.04914844 -0.01084170 -0.04095076
v 0.09791681 -0.00852059 -0.03725042
v 0.09791681 -0.01162350 -0.03585690
v 0.09791683 -0.01724158 -0.03204103
v 0.09791682 -0.01968075 -0.02967028
v 0.09791682 -0.02182820 -0.02703239
v 0.09791683 -0.02365490 -0.02416304
v 0.09791682 -0.02513613 -0.02110101
v 0.09791682 -0.02625187 -0.01788774
v 0.09791683 -0.02698703 -0.01456667
v 0.09791681 -0.02733165 -0.01118269
v 0.09791681 -0.02728110 -0.00778159
v 0.09791681 -0.02683605 -0.00440936
v 0.09791683 -0.02322017 0.00508373
v 0.09791682 -0.02130900 0.00789753
v 0.09791683 -0.01908409 0.01047042
v 0.09791682 -0.01381724 0.01475807
v 0.09791683 -0.01084653 0.01641483
v 0.09791683 -0.00770356 0.01771552
v 0.09791681 -0.00443085 0.01864254
v 0.09791681 -0.00107264 0.01918335
v 0.09791683 0.00571804 0.01908240
v 0.09791683 0.00905869 0.01844202
v 0.09791683 0.01230241 0.01741814
v 0.09791683 0.01540533 0.01602462
v 0.09791683 0.01832549 0.01428029
v 0.09791681 0.02102339 0.01220875
v 0.09791682 0.02346257 0.00983800
v 0.09791682 0.02561003 0.00720011
v 0.09791681 0.02743672 0.00433076
v 0.09791683 0.03076885 -0.00526562
v 0.09791683 0.03111347 -0.00864959
v 0.09791683 0.03106292 -0.01205069
v 0.09791683 0.03061786 -0.01542292
v 0.09791683 0.02978433 -0.01872068
v 0.09791683 0.02857358 -0.02189937
v 0.09791683 0.02700199 -0.02491602
v 0.09791682 0.02509082 -0.02772981
v 0.09791683 0.01759906 -0.03459035
v 0.09791682 0.01462835 -0.03624711
v 0.09791681 0.00145618 -0.03916291
v 0.09791681 -0.00193622 -0.03891468
v 0.10000002 0.00218516 0.01008165
v 0.10000001 0.01719589 0.00295497
v 0.10000001 0.01294959 0.00674636
v 0.10000000 0.00780715 0.00918785
v 0.09999999 0.02163985 -0.01305635
v 0.09999999 0.01244947 -0.02690006
v 0.10000000 0.01680657 -0.02323656
v 0.10000000 0.01995505 -0.01849391
v 0.10000000 0.00159065 -0.02991393
v 0.10000000 0.00723672 -0.02918763
v 0.10000000 -0.00917378 -0.02657865
v 0.09999999 -0.01786403 -0.00677593
v 0.10000001 -0.00346091 0.00935534
v 0.10000001 -0.01303075 0.00340427
v 0.10000001 -0.00403133 -0.02902014
v 0.10000000 -0.01342007 -0.02278726
v 0.09999999 -0.01642620 -0.01795313
v 0.09999999 -0.01794864 -0.01246789
v 0.10000002 -0.01617924 -0.00133837
v 0.09999999 -0.00867365 0.00706778
v 0.10000000 0.02020202 -0.00187915
v 0.09999999 0.02172446 -0.00736438
v 0.09891684 -0.01658747 -0.03128462
v 0.09891682 -0.01116147 -0.03497004
v 0.09891682 -0.00503182 -0.03730479
v 0.09891681 0.00147104 -0.03816301
v 0.09891682 0.00799654 -0.03749845
v 0.09891681 0.02656336 0.00384369
v 0.09891682 0.02272508 0.00916264
v 0.09891681 0.01776362 0.01345306
v 0.09891681 0.00558721 0.01809100
v 0.09891681 0.00231078 0.01833074
v 0.09891681 -0.00097132 0.01818849
v 0.09891682 0.01972602 -0.03182439
v 0.09891682 0.02429766 -0.02712079
v 0.09891681 0.02766135 -0.02148969
v 0.09891684 0.02963574 -0.01523465
v 0.09891683 0.03011441 -0.00869289
v 0.09891681 0.02907154 -0.00221707
v 0.09891681 -0.02236167 0.00457092
v 0.09891681 -0.02599975 -0.01440767
v 0.09891683 -0.02101730 -0.02644723
v 0.09791683 0.00485446 -0.03901562
v 0.09791683 0.00821267 -0.03847482
v 0.09791681 0.01148538 -0.03754780
v 0.09891681 0.01419288 -0.03534691
v 0.09791682 0.02035735 -0.03259990
v 0.09791682 0.02286591 -0.03030270
v 0.09791683 0.03003369 -0.00194454
v 0.09791683 0.02891795 0.00126874
v 0.09891683 0.01194646 0.01648364
v 0.09791683 0.00232564 0.01933063
v 0.09891682 -0.00737554 0.01677085
v 0.09891681 -0.01328021 0.01391451
v 0.09791682 -0.01657553 0.01276763
v 0.09891682 -0.01836700 0.00977345
v 0.09791681 -0.02479175 0.00206709
v 0.09891681 -0.02504889 -0.00141261
v 0.09791682 -0.02600251 -0.00111160
v 0.09891681 -0.02628377 -0.00785457
v 0.09891682 -0.02421213 -0.02071863
v 0.09791681 -0.01454366 -0.03411257
v 0.09791681 -0.00527687 -0.03827430
f 23 304 311
f 255 16 15
f 328 274 327
f 277 330 279
f 24 23 311
f 24 93 23
f 255 252 258
f 390 344 343
f 254 1 405
f 3 358 2
f 2 358 405
f 405 1 2
f 324 402 325
f 267 322 266
f 329 330 277
f 328 329 272
f 275 327 274
f 276 326 275
f 275 326 327
f 386 403 387
f 321 259 320
f 267 318 263
f 318 302 263
f 90 113 115
f 310 24 311
f 310 290 309
f 26 309 299
f 299 297 26
f 296 309 295
f 296 299 309
f 52 220 222
f 12 220 52
f 204 220 217
f 203 220 204
f 204 228 203
f 203 228 229
f 80 44 81
f 250 251 252
f 250 252 255
f 34 251 250
f 256 16 255
f 256 257 16
f 255 258 256
f 256 258 259
f 259 257 256
f 260 257 259
f 344 390 345
f 361 362 363
f 362 367 368
f 368 397 365
f 361 379 375
f 375 362 361
f 375 367 362
f 395 368 367
f 352 397 353
f 352 351 397
f 351 46 350
f 44 349 350
f 381 368 365
f 362 368 381
f 382 381 365
f 399 381 382
f 346 345 389
f 389 345 390
f 389 363 362
f 390 363 389
f 269 324 268
f 316 269 268
f 268 261 316
f 325 261 268
f 268 324 325
f 317 318 267
f 267 266 317
f 317 269 316
f 323 266 322
f 402 324 323
f 322 383 323
f 323 383 402
f 273 274 328
f 328 272 273
f 278 329 277
f 278 272 329
f 316 261 270
f 270 261 325
f 325 326 270
f 253 254 405
f 253 403 252
f 252 251 253
f 259 258 360
f 386 385 360
f 405 387 404
f 404 387 403
f 404 253 405
f 403 253 404
f 333 400 416
f 259 321 262
f 422 383 322
f 422 322 267
f 267 263 422
f 422 263 302
f 376 383 371
f 402 383 376
f 379 378 376
f 371 375 376
f 376 375 379
f 372 378 379
f 328 327 401
f 401 329 328
f 295 309 294
f 291 310 292
f 290 310 291
f 311 304 312
f 312 285 311
f 147 113 90
f 43 349 44
f 43 44 80
f 90 115 92
f 92 91 90
f 93 91 92
f 23 93 92
f 92 115 23
f 23 115 22
f 304 23 22
f 24 310 25
f 25 97 24
f 25 309 26
f 25 310 309
f 34 250 36
f 36 15 16
f 255 15 36
f 36 250 255
f 71 72 199
f 199 72 229
f 35 251 34
f 205 228 204
f 224 223 225
f 18 123 122
f 20 107 19
f 27 298 14
f 297 298 301
f 301 298 27
f 26 297 301
f 301 27 26
f 299 296 300
f 297 299 300
f 300 298 297
f 219 240 221
f 222 220 221
f 221 237 222
f 70 81 44
f 169 168 88
f 48 237 243
f 45 70 44
f 68 70 45
f 44 350 45
f 45 350 46
f 318 303 319
f 319 260 318
f 411 363 390
f 411 390 343
f 366 367 370
f 367 375 370
f 353 397 396
f 397 368 396
f 368 395 396
f 357 358 3
f 355 396 395
f 394 367 366
f 394 395 367
f 399 382 398
f 397 351 398
f 351 350 398
f 349 399 398
f 398 350 349
f 365 397 398
f 398 382 365
f 346 389 347
f 347 348 39
f 388 381 399
f 388 347 389
f 348 347 388
f 362 381 388
f 388 389 362
f 410 388 399
f 348 388 410
f 18 318 307
f 318 317 307
f 316 18 307
f 307 317 316
f 266 323 265
f 265 317 266
f 314 273 272
f 272 278 314
f 274 273 314
f 314 278 277
f 271 326 276
f 271 270 326
f 316 270 271
f 320 259 423
f 259 360 423
f 423 385 320
f 423 360 385
f 359 403 386
f 386 360 359
f 359 360 258
f 359 258 252
f 252 403 359
f 335 300 296
f 335 296 295
f 295 294 335
f 374 379 361
f 374 400 379
f 374 416 400
f 264 262 321
f 264 422 302
f 321 422 264
f 264 302 318
f 318 260 264
f 264 260 259
f 259 262 264
f 384 422 321
f 383 422 384
f 320 385 384
f 384 321 320
f 371 383 384
f 384 375 371
f 385 375 384
f 402 376 377
f 377 376 378
f 378 401 377
f 378 372 420
f 420 401 378
f 331 330 420
f 330 329 420
f 329 401 420
f 311 285 286
f 286 289 311
f 288 310 311
f 311 289 288
f 288 289 333
f 332 400 333
f 332 417 400
f 333 289 332
f 289 286 332
f 285 417 332
f 332 286 285
f 93 24 96
f 24 97 96
f 96 97 95
f 146 147 90
f 90 91 146
f 146 91 145
f 145 91 94
f 94 144 145
f 95 144 94
f 94 96 95
f 94 91 93
f 93 96 94
f 349 43 42
f 42 162 41
f 188 43 80
f 162 42 188
f 188 42 43
f 251 32 31
f 32 206 31
f 28 253 251
f 251 29 28
f 254 253 28
f 1 254 28
f 28 2 1
f 229 228 212
f 212 199 229
f 71 199 212
f 185 72 184
f 185 186 72
f 186 185 187
f 184 195 187
f 187 185 184
f 229 72 198
f 72 186 198
f 186 187 198
f 33 206 32
f 223 206 33
f 33 32 251
f 251 35 33
f 224 225 226
f 17 318 18
f 17 303 318
f 16 257 17
f 257 260 17
f 17 319 303
f 260 319 17
f 16 17 134
f 67 134 133
f 114 115 113
f 114 22 115
f 114 246 22
f 22 246 21
f 304 22 21
f 342 411 343
f 100 25 26
f 346 347 38
f 38 347 39
f 412 13 14
f 339 298 338
f 339 14 298
f 339 412 14
f 338 393 339
f 393 412 339
f 11 220 12
f 11 217 220
f 353 230 11
f 204 217 11
f 11 230 204
f 11 352 353
f 12 352 11
f 10 230 353
f 9 205 10
f 201 131 69
f 69 46 201
f 68 45 69
f 69 45 46
f 47 48 243
f 243 239 47
f 47 239 46
f 47 46 351
f 351 48 47
f 237 48 49
f 49 52 222
f 222 237 49
f 12 52 49
f 49 352 12
f 351 352 49
f 49 48 351
f 201 46 241
f 46 239 241
f 241 240 201
f 238 239 243
f 243 237 238
f 240 241 238
f 238 241 239
f 238 221 240
f 237 221 238
f 361 363 364
f 363 411 364
f 340 412 391
f 361 364 391
f 391 364 411
f 369 370 375
f 369 385 386
f 369 375 385
f 386 387 369
f 387 370 369
f 354 10 353
f 9 10 354
f 353 396 354
f 396 355 354
f 407 394 357
f 406 394 366
f 366 370 406
f 406 370 387
f 405 358 406
f 406 387 405
f 358 357 406
f 357 394 406
f 409 399 349
f 409 410 399
f 41 410 409
f 349 42 409
f 409 42 41
f 39 348 40
f 348 410 40
f 40 410 41
f 308 265 323
f 308 324 269
f 308 323 324
f 269 317 308
f 317 265 308
f 277 279 313
f 313 314 277
f 313 283 312
f 313 312 304
f 304 21 313
f 313 21 20
f 338 298 337
f 298 300 337
f 333 416 334
f 334 291 292
f 309 290 293
f 293 294 309
f 416 374 380
f 402 377 421
f 421 377 401
f 325 402 421
f 421 326 325
f 327 326 421
f 421 401 327
f 418 372 379
f 418 420 372
f 379 400 418
f 331 420 418
f 400 417 418
f 331 283 280
f 280 330 331
f 280 279 330
f 280 313 279
f 283 313 280
f 292 310 287
f 310 288 287
f 287 288 333
f 333 334 287
f 287 334 292
f 147 146 172
f 30 29 251
f 251 31 30
f 3 2 213
f 2 28 213
f 213 28 29
f 224 8 7
f 227 212 228
f 227 226 225
f 228 205 227
f 205 226 227
f 210 35 34
f 210 225 223
f 71 212 66
f 200 198 187
f 200 187 195
f 232 8 224
f 224 226 232
f 232 226 8
f 216 205 9
f 216 226 205
f 8 226 216
f 355 8 216
f 9 354 216
f 216 354 355
f 245 134 67
f 67 207 245
f 245 207 36
f 245 36 16
f 16 134 245
f 136 133 134
f 136 134 17
f 73 72 71
f 71 66 73
f 73 66 133
f 184 159 183
f 248 123 18
f 248 18 316
f 306 248 316
f 247 248 306
f 19 247 305
f 20 19 305
f 305 306 314
f 247 306 305
f 305 313 20
f 314 313 305
f 341 342 53
f 340 391 341
f 411 342 341
f 341 391 411
f 340 341 54
f 54 341 53
f 54 412 340
f 13 412 54
f 95 97 99
f 97 25 99
f 25 100 99
f 79 142 141
f 143 141 142
f 41 162 65
f 74 38 39
f 343 344 74
f 74 342 343
f 53 342 74
f 74 54 53
f 204 230 236
f 230 10 236
f 236 205 204
f 236 10 205
f 86 88 168
f 86 64 88
f 103 69 63
f 68 69 84
f 84 69 64
f 242 196 131
f 201 240 242
f 242 131 201
f 55 196 242
f 242 195 55
f 242 200 195
f 242 240 219
f 219 200 242
f 56 196 55
f 131 196 56
f 55 195 56
f 56 195 184
f 184 183 56
f 392 412 393
f 392 391 412
f 392 393 361
f 361 391 392
f 395 394 408
f 394 407 408
f 300 335 336
f 336 337 300
f 415 334 416
f 415 335 294
f 294 293 415
f 415 293 290
f 290 291 415
f 291 334 415
f 361 393 373
f 373 374 361
f 373 380 374
f 285 312 284
f 312 281 284
f 284 417 285
f 284 281 417
f 312 283 282
f 282 281 312
f 180 182 157
f 156 178 180
f 20 21 109
f 112 114 113
f 246 114 112
f 177 59 179
f 171 146 145
f 171 172 146
f 175 149 173
f 149 112 173
f 113 147 173
f 173 112 113
f 152 110 150
f 174 62 175
f 175 173 174
f 147 172 174
f 174 173 147
f 235 223 224
f 235 206 223
f 211 210 34
f 212 227 211
f 211 227 225
f 225 210 211
f 209 33 35
f 35 210 209
f 223 33 209
f 209 210 223
f 212 211 208
f 208 207 67
f 208 211 34
f 34 36 208
f 36 207 208
f 218 200 219
f 198 200 218
f 229 198 218
f 219 221 218
f 218 203 229
f 220 203 218
f 218 221 220
f 156 128 129
f 129 247 19
f 129 128 247
f 159 135 121
f 123 124 121
f 121 122 123
f 121 135 122
f 125 124 123
f 123 248 125
f 247 128 127
f 127 248 247
f 127 125 248
f 182 119 194
f 157 182 194
f 122 135 249
f 249 136 17
f 18 122 249
f 249 17 18
f 133 136 160
f 160 73 133
f 136 249 160
f 160 249 135
f 276 275 315
f 315 271 276
f 315 275 274
f 316 271 315
f 315 306 316
f 274 314 315
f 314 306 315
f 141 143 98
f 95 99 98
f 98 99 100
f 100 141 98
f 167 143 168
f 167 168 169
f 169 144 167
f 167 144 95
f 95 98 167
f 167 98 143
f 165 164 85
f 85 164 83
f 68 84 83
f 83 84 85
f 163 188 80
f 163 83 164
f 162 188 163
f 164 139 163
f 163 65 162
f 163 139 65
f 140 142 79
f 140 139 164
f 140 165 142
f 164 165 140
f 26 27 77
f 346 38 50
f 50 345 346
f 88 64 89
f 64 69 89
f 69 103 89
f 102 89 103
f 69 118 116
f 116 118 59
f 120 69 131
f 120 118 69
f 59 118 117
f 179 59 117
f 131 56 57
f 57 120 131
f 119 120 57
f 57 56 183
f 57 194 119
f 183 194 57
f 356 355 395
f 395 408 356
f 356 8 355
f 356 7 8
f 6 7 356
f 356 408 6
f 414 336 335
f 414 415 416
f 335 415 414
f 416 380 414
f 417 281 419
f 281 282 419
f 331 418 419
f 419 418 417
f 419 283 331
f 419 282 283
f 182 180 181
f 179 117 181
f 181 178 179
f 181 180 178
f 156 180 126
f 157 124 126
f 126 180 157
f 126 128 156
f 126 127 128
f 124 125 126
f 125 127 126
f 110 109 111
f 111 21 246
f 111 109 21
f 108 109 110
f 108 107 20
f 20 109 108
f 152 176 154
f 176 177 154
f 170 171 145
f 170 144 169
f 145 144 170
f 170 102 171
f 233 30 31
f 233 31 206
f 206 235 233
f 29 30 233
f 233 213 29
f 231 235 224
f 6 235 231
f 224 7 231
f 231 7 6
f 197 66 212
f 212 208 197
f 197 208 66
f 132 208 67
f 66 208 132
f 67 133 132
f 133 66 132
f 107 153 106
f 106 19 107
f 106 129 19
f 156 129 130
f 130 178 156
f 130 106 153
f 129 106 130
f 158 183 159
f 158 194 183
f 157 194 158
f 159 121 158
f 158 124 157
f 158 121 124
f 161 135 159
f 161 160 135
f 73 160 161
f 161 159 184
f 184 72 161
f 72 73 161
f 166 143 142
f 142 165 166
f 168 143 166
f 166 86 168
f 82 70 68
f 68 83 82
f 81 70 82
f 80 81 82
f 82 163 80
f 83 163 82
f 75 77 27
f 27 14 75
f 14 13 75
f 13 54 75
f 54 74 75
f 79 141 78
f 78 77 79
f 78 141 100
f 78 100 26
f 26 77 78
f 38 74 244
f 244 50 38
f 244 345 37
f 344 345 244
f 244 74 344
f 37 345 51
f 345 50 51
f 51 244 37
f 50 244 51
f 65 139 138
f 138 202 40
f 41 65 138
f 138 40 41
f 101 102 103
f 172 171 101
f 171 102 101
f 63 69 105
f 69 116 105
f 105 116 193
f 193 192 105
f 60 116 59
f 193 116 60
f 59 177 60
f 60 177 176
f 176 193 60
f 118 120 58
f 58 117 118
f 58 120 119
f 58 119 182
f 182 181 58
f 58 181 117
f 337 336 413
f 336 414 413
f 413 393 338
f 338 337 413
f 413 373 393
f 380 373 413
f 413 414 380
f 110 111 148
f 148 112 149
f 246 112 148
f 148 111 246
f 148 150 110
f 149 150 148
f 151 108 110
f 151 110 152
f 151 153 107
f 107 108 151
f 152 154 151
f 151 154 153
f 155 154 177
f 179 178 155
f 155 177 179
f 178 130 155
f 153 154 155
f 155 130 153
f 102 170 87
f 88 89 87
f 89 102 87
f 169 88 87
f 87 170 169
f 190 149 175
f 190 150 149
f 3 213 4
f 213 233 4
f 4 357 3
f 189 165 85
f 189 166 165
f 86 166 189
f 64 86 189
f 85 84 189
f 189 84 64
f 79 77 76
f 77 75 76
f 76 140 79
f 139 140 76
f 104 103 63
f 104 101 103
f 63 62 104
f 62 174 104
f 104 174 172
f 172 101 104
f 61 105 192
f 192 190 61
f 61 62 63
f 63 105 61
f 175 62 61
f 61 190 175
f 191 190 192
f 191 193 176
f 191 192 193
f 191 176 152
f 152 150 191
f 150 190 191
f 215 407 357
f 357 4 215
f 215 214 407
f 215 4 233
f 137 75 74
f 137 76 75
f 137 74 39
f 39 40 137
f 40 202 137
f 202 138 137
f 137 138 139
f 139 76 137
f 5 408 407
f 407 214 5
f 6 408 5
f 5 235 6
f 234 233 235
f 235 5 234
f 234 5 214
f 234 215 233
f 214 215 234

