# https://github.com/mikedh/trimesh
v 0.00307673 0.06674471 -0.07775153
v 0.00047422 0.06526116 -0.07813954
v 0.00022773 0.06984230 -0.07680959
v 0.00285769 0.07076457 -0.07651193
v 0.00259471 0.07445043 -0.07502374
v -0.00008899 0.07428401 -0.07503988
v -0.00047540 0.07851198 -0.07279801
v -0.00092923 0.08244590 -0.07007107
v -0.00144614 0.08601822 -0.06689471
v -0.00128195 0.09535001 -0.05308565
v -0.00407216 0.09611254 -0.05093833
v -0.00149774 0.09584570 -0.05186450
v -0.00220277 0.09718056 -0.04787473
v -0.00363791 0.09864353 -0.03975324
v -0.00330809 0.09844884 -0.04161973
v -0.00560174 0.09834982 -0.04175145
v -0.00482877 0.09748266 -0.04640376
v -0.00292379 0.09811766 -0.04379446
v -0.00796074 0.09814721 -0.02764485
v -0.00716799 0.09863646 -0.03232671
v -0.00638186 0.09871970 -0.03704193
v -0.00876210 0.09729689 -0.02302120
v -0.00653445 0.09747142 -0.02336226
v -0.00649145 0.09752148 -0.02360557
v -0.00561051 0.09834831 -0.02859096
v -0.00933853 0.09209074 -0.00749361
v -0.01118689 0.09275791 -0.00969684
v -0.00899403 0.09301592 -0.00944317
v -0.00824427 0.09473652 -0.01368617
v -0.00791408 0.09538451 -0.01555477
v -0.00957197 0.09611627 -0.01847380
v -0.00967032 0.09110592 -0.00561599
v -0.01196460 0.09054381 -0.00553541
v -0.01028899 0.08897553 -0.00211486
v -0.01085062 0.08662605 0.00106352
v -0.01269644 0.08793697 -0.00159139
v -0.01336092 0.08492742 0.00207006
v -0.01226574 0.07787201 0.00907192
v -0.01442839 0.07778375 0.00831691
v -0.01172444 0.08184379 0.00600860
v -0.01393992 0.08152616 0.00538543
v -0.01137449 0.08395955 0.00402819
v 0.00317554 0.06445000 -0.07831070
v 0.00065216 0.06059545 -0.07909025
v 0.00338226 0.05739055 -0.07948051
v 0.00344942 0.05200000 -0.07986058
v 0.00345270 0.05157223 -0.07987917
v -0.01411323 0.05659738 0.01952697
v -0.01591937 0.06100493 0.01699348
v -0.01378858 0.06103022 0.01768978
v -0.01517631 0.06957011 0.01304991
v -0.01317724 0.06845939 0.01423017
v -0.01483158 0.07376775 0.01085462
v -0.01267352 0.07412165 0.01137962
v -0.01629532 0.05658434 0.01871090
v -0.01657449 0.05199997 0.02001271
v -0.01435736 0.05200000 0.02090851
v 0.00076707 0.05587253 -0.07968247
v -0.00202366 0.08918905 -0.06333234
v -0.00265875 0.09194300 -0.05945111
v -0.00334492 0.09425818 -0.05530370
v -0.01038369 0.09460694 -0.01402344
v -0.00286149 0.00851146 -0.05940517
v -0.00136485 0.00563613 -0.05601484
v 0.00170115 0.01959836 -0.06996743
v 0.00138990 0.01728509 -0.06820607
v 0.00116063 0.01572621 -0.06690864
v 0.00277572 0.03056874 -0.07604830
v 0.00254509 0.02761341 -0.07474320
v 0.00310180 0.03598263 -0.07789358
v 0.00285651 0.03174032 -0.07650553
v 0.00045769 0.03690775 -0.07818845
v 0.00319103 0.03793529 -0.07839847
v 0.00059648 0.04038854 -0.07897383
v 0.00328095 0.04031323 -0.07890733
v 0.00069399 0.04391681 -0.07952563
v -0.00343770 0.00595181 -0.05614446
v -0.00193026 0.01338045 -0.06467500
v -0.00150542 0.01600920 -0.06707921
v -0.00045205 0.02437623 -0.07304022
v -0.00110934 0.01877972 -0.06932060
v 0.00014854 0.01859114 -0.06934329
v 0.00060304 0.01233622 -0.06375327
v -0.00017187 0.02734504 -0.07462574
v 0.00007304 0.03041484 -0.07601169
v 0.00080963 0.02421958 -0.07308441
v 0.00216061 0.02355777 -0.07256748
v 0.00339762 0.04477246 -0.07956751
v 0.00028461 0.03362359 -0.07720900
v 0.00197470 0.05114600 -0.08004376
v 0.00075178 0.04752465 -0.07985271
v 0.03215672 0.09612351 -0.02550979
v 0.03240628 0.09517399 -0.02553269
v 0.03969195 0.06939451 -0.06703067
v 0.03971457 0.06786129 -0.06671129
v 0.04017987 0.05641421 -0.06978597
v 0.04007561 0.06080783 -0.06920148
v 0.04008579 0.05647783 -0.07056277
v 0.03997904 0.06094134 -0.06996830
v 0.03984261 0.05654049 -0.07130600
v 0.03945751 0.05659990 -0.07198840
v 0.03973369 0.06107021 -0.07070146
v 0.03934680 0.06118969 -0.07137401
v 0.03883553 0.06129479 -0.07195781
v 0.03821665 0.06138198 -0.07243330
v 0.03687260 0.05688752 -0.07361530
v 0.04001447 0.06079016 -0.06840845
v 0.04001804 0.06067449 -0.06842868
v 0.03929444 0.07382680 -0.06433377
v 0.03939677 0.07350323 -0.06536097
v 0.03898565 0.07696882 -0.06258636
v 0.03902267 0.07739697 -0.06324433
v 0.03874396 0.07899489 -0.06121863
v 0.03802062 0.08367750 -0.05712522
v 0.03803760 0.08424152 -0.05767090
v 0.03714642 0.08769859 -0.05217814
v 0.03611308 0.09104689 -0.04633041
v 0.03540489 0.09333839 -0.04277504
v 0.03496550 0.09342751 -0.03983629
v 0.03377645 0.09463205 -0.03310745
v 0.03389858 0.09529849 -0.03425181
v 0.03320162 0.09480526 -0.02985443
v 0.03312735 0.09558453 -0.02988830
v 0.03991443 0.06514454 -0.06829011
v 0.03981506 0.06534693 -0.06904167
v 0.03958861 0.06966783 -0.06775928
v 0.03928765 0.07384849 -0.06605727
v 0.03890618 0.07781295 -0.06389923
v 0.03856718 0.08099580 -0.06066677
v 0.03844192 0.08147877 -0.06127189
v 0.03744631 0.08710867 -0.05432576
v 0.03790233 0.08478463 -0.05821998
v 0.03730031 0.08770371 -0.05481483
v 0.03680494 0.08959224 -0.05069691
v 0.03612201 0.09167667 -0.04683301
v 0.03522284 0.09404529 -0.04306093
v 0.03466104 0.09455234 -0.03856545
v 0.03446586 0.09528168 -0.03877693
v 0.03368980 0.09604191 -0.03438707
v 0.03956709 0.06554101 -0.06975982
v 0.03933690 0.06992773 -0.06845544
v 0.03903067 0.07417380 -0.06672319
v 0.03864262 0.07820172 -0.06452717
v 0.03817056 0.08192732 -0.06185481
v 0.03664759 0.09023178 -0.05112208
v 0.03701050 0.08825345 -0.05529235
v 0.03595257 0.09235349 -0.04719032
v 0.03564162 0.09297821 -0.04754711
v 0.03490044 0.09469769 -0.04335228
v 0.03413156 0.09595480 -0.03900020
v 0.03334316 0.09672808 -0.03454053
v 0.03290522 0.09633377 -0.02994869
v 0.03212098 0.09621117 -0.02550991
v 0.03254633 0.09702546 -0.03003288
v 0.03917780 0.06571962 -0.07041806
v 0.03894421 0.07016455 -0.06909333
v 0.03823970 0.07854859 -0.06510467
v 0.03776107 0.08232437 -0.06239364
v 0.03720517 0.08572982 -0.05924756
v 0.03762209 0.08528717 -0.05875221
v 0.03634755 0.09082226 -0.05154110
v 0.03591373 0.09134071 -0.05193813
v 0.03519845 0.09352636 -0.04788993
v 0.03444743 0.09526990 -0.04363817
v 0.03366830 0.09654506 -0.03922700
v 0.03286930 0.09732975 -0.03470669
v 0.03206177 0.09763210 -0.03013807
v 0.03863339 0.07446697 -0.06733393
v 0.03842724 0.07036836 -0.06964627
v 0.03811221 0.07471569 -0.06786390
v 0.03722928 0.08265308 -0.06286582
v 0.03658544 0.08873662 -0.05574031
v 0.03604048 0.08913253 -0.05614004
v 0.03536131 0.09176481 -0.05229673
v 0.03463811 0.09397426 -0.04820468
v 0.03228344 0.09782065 -0.03487930
v 0.03146703 0.09812716 -0.03026074
v 0.03127058 0.09749155 -0.02556984
v 0.03866414 0.06587526 -0.07098885
v 0.03804329 0.06600273 -0.07145303
v 0.03780371 0.07053235 -0.07009568
v 0.03748552 0.07491164 -0.06829529
v 0.03771353 0.07883891 -0.06560752
v 0.03659515 0.08290260 -0.06325535
v 0.03666710 0.08609373 -0.05968530
v 0.03471281 0.09208079 -0.05260443
v 0.03398396 0.09430740 -0.04848027
v 0.03387881 0.09573709 -0.04390703
v 0.03309114 0.09702674 -0.03944839
v 0.03161104 0.09818511 -0.03505161
v 0.03078808 0.09849484 -0.03039566
v 0.02991780 0.09838808 -0.02574562
v 0.04023321 0.05200000 -0.07008929
v 0.03989635 0.05200000 -0.07161348
v 0.03986241 0.05200000 -0.07168857
v 0.03962329 0.05200000 -0.07212904
v 0.03866780 0.05200000 -0.07318014
v 0.03894780 0.05665358 -0.07258140
v 0.03832994 0.05669972 -0.07306518
v 0.03798199 0.05200000 -0.07360421
v 0.03693072 0.05200000 -0.07394421
v 0.03763081 0.05673627 -0.07341799
v 0.03734211 0.06609645 -0.07179021
v 0.03710049 0.07064943 -0.07042215
v 0.03678018 0.07504657 -0.06860984
v 0.03708328 0.07906306 -0.06601877
v 0.03637578 0.07921183 -0.06632143
v 0.03602872 0.08636695 -0.06005053
v 0.03539728 0.08942825 -0.05647781
v 0.03399500 0.09227740 -0.05284962
v 0.03321872 0.09608423 -0.04414915
v 0.03326278 0.09451438 -0.04870645
v 0.03242493 0.09738443 -0.03965610
v 0.03005198 0.09872370 -0.03053756
v 0.03751699 0.06144741 -0.07277931
v 0.03665683 0.06445000 -0.07239424
v 0.03630777 0.07125336 -0.07041895
v 0.03582807 0.07724218 -0.06770431
v 0.03561576 0.07927865 -0.06650286
v 0.03588551 0.08306303 -0.06354655
v 0.03516420 0.08285841 -0.06394747
v 0.03531680 0.08653902 -0.06032887
v 0.03468262 0.08961287 -0.05674062
v 0.03434288 0.08771638 -0.05929962
v 0.03392204 0.08967844 -0.05691803
v 0.03331334 0.09206749 -0.05347342
v 0.03219932 0.09535001 -0.04716919
v 0.03249398 0.09629977 -0.04435562
v 0.03173083 0.09637328 -0.04451800
v 0.03169654 0.09760657 -0.03984246
v 0.03101358 0.09757367 -0.04045903
v 0.03087903 0.09841162 -0.03521710
v 0.02070696 0.05200000 0.02677694
v 0.02157840 0.05200000 0.02645703
v 0.02244442 0.05731188 0.02440881
v 0.02099844 0.05741480 0.02507433
v 0.02136345 0.06260894 0.02283760
v 0.01982149 0.06264930 0.02287709
v 0.01942091 0.05738085 0.02514397
v 0.01912387 0.05200000 0.02682495
v 0.02352159 0.05713673 0.02324421
v 0.02407690 0.05691833 0.02178247
v 0.02524491 0.07102091 0.01517267
v 0.02390718 0.06206672 0.02106925
v 0.02475010 0.07170385 0.01639268
v 0.02214460 0.05200000 0.02610833
v 0.02384294 0.07226550 0.01730762
v 0.02282175 0.06240328 0.02220208
v 0.02218412 0.07276369 0.01796825
v 0.02030399 0.06845939 0.02014661
v 0.02069103 0.07289529 0.01795635
v -0.01724412 0.02878452 0.02534533
v -0.01722926 0.00554964 0.03088365
v -0.01527399 0.02878728 0.02609585
v -0.01942779 0.00554964 0.02941883
v -0.00513202 0.00499999 -0.05377997
v 0.03540008 0.00500000 -0.04266223
v 0.03507757 0.00500000 -0.04633841
v -0.00282916 0.00499999 -0.05505138
v -0.00154357 0.00499999 -0.05513710
v -0.00128689 0.00500000 -0.05511206
v 0.03285537 0.00500000 -0.04907876
v 0.03373094 0.00500000 -0.04859118
v 0.03448618 0.00500000 -0.04769259
v 0.03880803 0.02401360 -0.06158118
v 0.03922546 0.02807049 -0.06394344
v 0.03941305 0.03025432 -0.06500499
v 0.03974140 0.03500925 -0.06686314
v 0.03805330 0.01833523 -0.05731013
v 0.03767122 0.01596947 -0.05514793
v 0.03717769 0.01325988 -0.05235510
v 0.03522341 0.00500000 -0.04129576
v 0.04009940 0.04394522 -0.06888904
v 0.03984630 0.03695033 -0.06745677
v 0.01849069 0.00554976 0.03712092
v 0.01730931 0.00554967 0.03709355
v -0.01617187 0.00554964 0.03117708
v -0.01814986 0.00554964 0.03043714
v 0.02189378 0.00554965 0.03406687
v 0.02139690 0.00554971 0.03523245
v 0.02330591 0.04034062 0.02614545
v 0.02284263 0.02836020 0.02876719
v 0.02353009 0.04605644 0.02487683
v 0.02196130 0.00554970 0.03375464
v -0.02684136 0.00000000 0.01223892
v -0.02895374 0.00000000 0.00565077
v 0.03065364 0.00000000 -0.02569736
v 0.03165210 0.00000000 -0.02377727
v -0.02571048 0.00000000 -0.01446448
v -0.02837231 0.00000000 -0.00807851
v -0.02947358 0.00000000 -0.00124820
v 0.02621646 0.00000000 -0.03021088
v 0.02112287 0.00000000 -0.03396798
v -0.00771937 0.00000000 -0.03913189
v -0.00990745 0.00000000 -0.03875361
v 0.02018037 0.00000000 0.03453625
v 0.02202581 0.00000000 0.03338958
v 0.03174565 0.00000000 -0.02161512
v 0.02066302 0.00000000 -0.03411645
v -0.02080972 0.00000000 0.02597125
v -0.01860096 0.00000000 0.02768339
v -0.01992555 0.00000000 0.02709348
v -0.02052812 0.00000000 0.02646163
v -0.00820225 0.00000000 -0.03915001
v 0.03693708 0.05114442 -0.07398020
v 0.03839937 0.05113940 -0.07340892
v 0.03798614 0.05165124 -0.07362238
v 0.03952934 0.05112486 -0.07231867
v 0.03901838 0.05113324 -0.07291979
v 0.03962873 0.05160381 -0.07214762
v 0.03912970 0.05162596 -0.07278880
v 0.04015258 0.05110249 -0.07087757
v 0.04015367 0.05155535 -0.07084465
v 0.04024069 0.05108925 -0.07009378
v 0.04019500 0.05149933 -0.06943863
v 0.04023012 0.05200000 -0.06982538
v 0.04013930 0.05200000 -0.07086814
v 0.00345578 0.05114442 -0.07989665
v 0.00345160 0.04936611 -0.07987295
v 0.03689224 0.04552608 -0.07372642
v 0.03685207 0.04349002 -0.07349914
v 0.03625704 0.03056874 -0.07013184
v 0.03657994 0.03591848 -0.07195915
v 0.03667234 0.03793529 -0.07248201
v 0.03611134 0.02864409 -0.06930730
v 0.03562763 0.02342206 -0.06656998
v 0.03545743 0.02187539 -0.06560685
v 0.03464629 0.01575456 -0.06101660
v 0.00043049 0.01138264 -0.06277683
v 0.03391185 0.01138264 -0.05686036
v -0.00002313 0.00905159 -0.06020981
v 0.03693398 0.05157480 -0.07396265
v 0.01845058 0.03508502 0.03063510
v -0.00301148 0.00584501 -0.05614857
v -0.00351889 0.00547887 -0.05550956
v -0.00400029 0.00499999 -0.05463346
v -0.00312031 0.00586983 -0.05614930
v -0.00078087 0.00562275 -0.05592181
v 0.04017657 0.04958196 -0.06932579
v 0.03719703 0.01271282 -0.05286963
v 0.03662613 0.01058951 -0.04923380
v 0.03621877 0.00817589 -0.04733365
v 0.03540375 0.00500000 -0.04454169
v 0.03678815 0.01164827 -0.05394891
v 0.03607849 0.00757272 -0.04782230
v 0.03637115 0.01119983 -0.05444643
v 0.03536482 0.00652738 -0.04875161
v 0.03583228 0.01083146 -0.05488963
v 0.03447687 0.01038885 -0.05554704
v 0.03796426 0.01736530 -0.05849389
v 0.03769544 0.01691493 -0.05908325
v 0.03706703 0.01215926 -0.05341640
v 0.03728725 0.01651967 -0.05963067
v 0.03675563 0.01619496 -0.06011486
v 0.03519252 0.01055757 -0.05526131
v 0.03612125 0.01595352 -0.06051702
v 0.03540892 0.01580479 -0.06082153
v 0.04005373 0.04221038 -0.06863062
v 0.04015929 0.04386062 -0.06963311
v 0.03990265 0.03675791 -0.06818078
v 0.03981011 0.03656304 -0.06893954
v 0.03956582 0.03638300 -0.06966780
v 0.03917919 0.03622488 -0.07033714
v 0.03944566 0.04362560 -0.07184511
v 0.03893414 0.04356813 -0.07244306
v 0.03866526 0.03609490 -0.07092151
v 0.03804405 0.03599820 -0.07139817
v 0.03831471 0.04352533 -0.07292982
v 0.03761159 0.04349894 -0.07328645
v 0.03270048 0.00562288 -0.05000526
v 0.03345550 0.00564386 -0.04976709
v 0.03417428 0.00582767 -0.04949907
v 0.03481912 0.00612605 -0.04915614
v 0.03579014 0.00701596 -0.04830116
v 0.03808338 0.01785315 -0.05788553
v 0.03487124 0.01728509 -0.06228961
v 0.03621896 0.02191702 -0.06540556
v 0.03692804 0.02204030 -0.06508265
v 0.03755714 0.02224039 -0.06465062
v 0.03808167 0.02250948 -0.06412627
v 0.03848121 0.02283700 -0.06352996
v 0.03874020 0.02321013 -0.06288489
v 0.03851992 0.02165033 -0.05995073
v 0.03687191 0.02867546 -0.06910063
v 0.03757818 0.02876835 -0.06876177
v 0.03820270 0.02891911 -0.06830385
v 0.03872107 0.02912181 -0.06774466
v 0.03911313 0.02936849 -0.06710599
v 0.03936358 0.02964948 -0.06641264
v 0.03884865 0.02361427 -0.06221620
v 0.03946280 0.02995375 -0.06569166
v 0.03733983 0.03593861 -0.07174857
v 0.04007034 0.04377482 -0.07041222
v 0.03982938 0.04369543 -0.07115926
v 0.03991238 0.05111450 -0.07162898
v 0.03769651 0.05114315 -0.07376702
v 0.02243987 0.02862819 0.02992138
v 0.02066920 0.02906180 0.03159116
v 0.02066164 0.00554974 0.03611468
v 0.02169096 0.02886994 0.03089445
v 0.01947462 0.02918498 0.03194330
v 0.01961344 0.00554993 0.03680220
v 0.01993798 0.04116725 0.02932117
v 0.02113255 0.04104380 0.02896908
v 0.02215428 0.04085151 0.02827247
v 0.02290317 0.04060921 0.02729951
v 0.02321786 0.05200000 0.02493989
v 0.02080765 0.07412107 0.01729639
v 0.02169601 0.07283569 0.01801984
v 0.02181234 0.07405846 0.01736149
v 0.02231036 0.07398099 0.01731018
v 0.02305157 0.07255930 0.01773024
v 0.02274719 0.07388602 0.01721653
v 0.02395662 0.07346033 0.01666433
v 0.02433777 0.07325587 0.01636378
v 0.02524920 0.07239529 0.01497608
v 0.02260910 0.07679591 0.01561960
v 0.02408127 0.07630041 0.01511412
v 0.02486117 0.07287128 0.01576415
v 0.02515364 0.07554825 0.01414141
v 0.03244287 0.09468564 -0.02556068
v 0.03108583 0.09537810 -0.01942897
v 0.02901088 0.09222558 -0.00768680
v 0.02960486 0.09136039 -0.00950033
v 0.03003783 0.09406471 -0.01349830
v 0.03036695 0.09266942 -0.01381302
v 0.03101153 0.09354064 -0.01746070
v 0.03139348 0.09395571 -0.01962216
v 0.02839657 0.08852229 -0.00266260
v 0.02936173 0.09087142 -0.00812448
v 0.02747266 0.08547211 0.00256577
v 0.02800987 0.08978693 -0.00202206
v 0.02838590 0.08849218 -0.00260221
v 0.02706724 0.08667272 0.00331227
v 0.02739036 0.08514983 0.00303153
v 0.02662329 0.08481418 0.00582464
v 0.02664102 0.08169450 0.00727206
v 0.02581966 0.08050445 0.01037236
v 0.02655061 0.08119997 0.00778367
v 0.02546997 0.07809954 0.01235129
v 0.02593394 0.07721885 0.01127343
v 0.02580674 0.07623957 0.01199326
v 0.03235571 0.09546335 -0.02552120
v 0.03170088 0.09697397 -0.02553032
v 0.03017235 0.09672870 -0.01935534
v 0.02910396 0.09538949 -0.01330931
v 0.02805626 0.09351309 -0.00738038
v 0.02703147 0.09101621 -0.00158106
v 0.02752994 0.08832224 0.00069389
v 0.02653816 0.08951067 0.00121055
v 0.02606121 0.08781021 0.00390966
v 0.02620451 0.08274954 0.00819449
v 0.02560232 0.08588911 0.00650647
v 0.02516869 0.08375120 0.00896041
v 0.02477002 0.08142508 0.01121648
v 0.02440807 0.07893562 0.01326476
v 0.02880484 0.09761841 -0.01944215
v 0.02625084 0.09653758 -0.01350668
v 0.02556728 0.09538422 -0.00963840
v 0.02518516 0.09462887 -0.00747599
v 0.02666165 0.09436125 -0.00731384
v 0.02562119 0.09182601 -0.00142585
v 0.02414283 0.09209019 -0.00157741
v 0.02511908 0.09029356 0.00141559
v 0.02363488 0.09054047 0.00129708
v 0.02314555 0.08879597 0.00406621
v 0.02463272 0.08855954 0.00416788
v 0.02307674 0.08852755 0.00445561
v 0.02416402 0.08659723 0.00682031
v 0.02267363 0.08682141 0.00673680
v 0.02372059 0.08441105 0.00932965
v 0.02331282 0.08203155 0.01163723
v 0.02294280 0.07948640 0.01373119
v 0.03028066 0.09822076 -0.02569331
v 0.02772302 0.09626221 -0.01332012
v 0.02444865 0.06166668 0.01967870
v 0.02535281 0.07215509 0.01456206
v -0.01406032 0.05738085 0.01922753
v -0.00437007 0.09881081 -0.03560997
v 0.02983913 0.09864552 -0.03381284
v -0.00248469 0.09759691 -0.04627933
v -0.00082802 0.09416494 -0.05565445
v 0.00114596 0.08621347 -0.06682526
v 0.00095992 0.08721453 -0.06577245
v 0.00086161 0.08771638 -0.06521607
v 0.00041243 0.08980063 -0.06267417
v -0.00018924 0.09214268 -0.05926934
v 0.00234679 0.07724218 -0.07362076
v 0.00225761 0.07813162 -0.07311613
v 0.00186606 0.08150997 -0.07090030
v 0.00171028 0.08266487 -0.07001873
v 0.00142981 0.08453748 -0.06843156
v 0.00326267 0.06202169 -0.07880377
v 0.02132556 0.07876037 0.01436555
v -0.01215582 0.07876097 0.00844988
v -0.01185763 0.08095403 0.00676232
v 0.02181622 0.08222470 0.01158888
v 0.02212647 0.08406828 0.00983320
v -0.01113411 0.08524991 0.00266783
v -0.01047821 0.08823363 -0.00104401
v -0.00742277 0.09623839 -0.01833514
v 0.02698991 0.09752174 -0.01768906
v 0.02733705 0.09789283 -0.01965354
v 0.02845564 0.09867609 -0.02598368
v -0.00502563 0.09867617 -0.03190012
v 0.02378136 0.05200000 0.02345489
v 0.03765526 0.03853611 -0.05103496
v 0.03806982 0.04508162 -0.05338096
v 0.03505781 0.07954653 -0.03633597
v 0.03821053 0.05200009 -0.05417725
v 0.03806981 0.05891857 -0.05338091
v 0.03765524 0.06546406 -0.05103487
v 0.03698918 0.07128371 -0.04726561
v 0.03441777 0.06455753 -0.03271397
v 0.03610752 0.07606376 -0.04227631
v 0.03389663 0.08154425 -0.02976482
v 0.03268658 0.08194924 -0.02291713
v 0.03149289 0.08073966 -0.01616203
v 0.03037992 0.07798071 -0.00986372
v 0.02940767 0.07382114 -0.00436173
v 0.02862856 0.03551465 0.00004722
v 0.02940769 0.03017872 -0.00436187
v 0.03505784 0.02445356 -0.03633615
v 0.03037995 0.02601919 -0.00986389
v 0.03149292 0.02326029 -0.01616222
v 0.02862854 0.06848519 0.00004733
v 0.02808456 0.06226051 0.00312576
v 0.02780503 0.05548269 0.00470760
v 0.02776973 0.05199990 0.00490734
v 0.02780503 0.04851712 0.00470758
v 0.02808456 0.04173930 0.00312570
v 0.03268661 0.02205075 -0.02291732
v 0.03389666 0.02245578 -0.02976502
v 0.03610755 0.02793636 -0.04227647
v 0.03698920 0.03271645 -0.04726573
v -0.03410937 0.09155498 -0.01823938
v -0.03446105 0.09122843 -0.01787033
v -0.03605737 0.09030330 -0.01859325
v -0.03636800 0.01486824 -0.03381889
v -0.03594197 0.01601816 -0.03681551
v -0.03691242 0.01645345 -0.03132368
v -0.04151266 0.03555160 -0.00529088
v -0.04188895 0.04070359 -0.00316146
v -0.04204186 0.04107800 -0.00171048
v -0.04222421 0.04539150 -0.00067855
v -0.04212014 0.04606469 -0.00185316
v -0.04231603 0.04979898 -0.00015893
v -0.04231602 0.05423793 -0.00015897
v -0.04222418 0.05864540 -0.00067867
v -0.04218538 0.05496439 -0.00148395
v -0.04203991 0.06026250 -0.00230716
v -0.04204183 0.06295888 -0.00171065
v -0.04193045 0.06258524 -0.00292664
v -0.04177153 0.06711718 -0.00324028
v -0.04174469 0.06558272 -0.00397785
v -0.04129429 0.07072438 -0.00652668
v -0.04141711 0.07106133 -0.00524589
v -0.04047722 0.07808723 -0.01056481
v -0.03990505 0.08106934 -0.01380271
v -0.04041927 0.07719696 -0.01147843
v -0.03927524 0.08363941 -0.01736676
v -0.03925583 0.08256853 -0.01806232
v -0.03859675 0.08576098 -0.02120640
v -0.03790994 0.08619552 -0.02567871
v -0.03787917 0.08740398 -0.02526719
v -0.03713269 0.08854508 -0.02949151
v -0.03750300 0.08688246 -0.02798156
v -0.03636790 0.08916812 -0.03381947
v -0.03658207 0.08782970 -0.03319317
v -0.03539585 0.09129830 -0.01999560
v -0.03634428 0.09092168 -0.02250377
v -0.03732654 0.08902878 -0.01942483
v -0.03660545 0.09073856 -0.02375166
v -0.03743647 0.08920991 -0.02458210
v -0.03680737 0.09047436 -0.02563472
v -0.03296378 0.09167219 -0.01735077
v -0.03343438 0.08924942 -0.01277960
v -0.03262980 0.09169279 -0.01717183
v -0.03417591 0.08622340 -0.00858325
v -0.03544585 0.07876571 -0.00139665
v -0.03595625 0.07443983 0.00149167
v -0.03637353 0.06979594 0.00385309
v -0.03669179 0.06489991 0.00565410
v -0.03653032 0.01423225 -0.03185176
v -0.03713279 0.01549135 -0.02949094
v -0.04141717 0.03297550 -0.00524558
v -0.04099685 0.03075441 -0.00820983
v -0.04098370 0.02930141 -0.00769863
v -0.04047729 0.02594951 -0.01056440
v -0.04035584 0.02647223 -0.01183735
v -0.04031835 0.02626012 -0.01204947
v -0.03990513 0.02296735 -0.01380225
v -0.03954900 0.02258490 -0.01640324
v -0.03927534 0.02039723 -0.01736626
v -0.03874269 0.01981652 -0.02096617
v -0.03787927 0.01663253 -0.02526663
v -0.03786137 0.01774994 -0.02595356
v -0.03618713 0.01437166 -0.03434993
v -0.03584161 0.01474526 -0.03679776
v -0.03578281 0.01441815 -0.03678736
v -0.03314562 0.09165863 -0.01746200
v -0.03524949 0.08876309 -0.01340854
v -0.03664621 0.08231128 -0.00550446
v -0.03484958 0.08271223 -0.00477091
v -0.03723469 0.07841632 -0.00217427
v -0.03846435 0.06473164 0.00478438
v -0.03867626 0.05971923 0.00598358
v -0.03878297 0.05459761 0.00658748
v -0.03682721 0.08789613 -0.01423673
v -0.03598134 0.08577658 -0.00926700
v -0.03819099 0.08159655 -0.00651913
v -0.03876558 0.07779348 -0.00326751
v -0.03925742 0.07362484 -0.00048418
v -0.03773842 0.07414695 0.00067632
v -0.03815025 0.06956372 0.00300688
v -0.03965953 0.06914975 0.00179140
v -0.03996622 0.06443167 0.00352695
v -0.04017313 0.05953753 0.00469785
v -0.03807075 0.08670174 -0.01521334
v -0.03876154 0.08388278 -0.01130413
v -0.03754180 0.08498009 -0.01019290
v -0.03994458 0.07693541 -0.00460930
v -0.04042005 0.07290555 -0.00191862
v -0.04080878 0.06857944 0.00028120
v -0.04110525 0.06401842 0.00195897
v -0.04140601 0.05445290 0.00366093
v -0.04140601 0.04958406 0.00366096
v -0.04027733 0.05453675 0.00528751
v -0.04027733 0.04950024 0.00528755
v -0.04130530 0.04474974 0.00309102
v -0.04110529 0.04001851 0.00195917
v -0.04080882 0.03545748 0.00028146
v -0.04042010 0.03113133 -0.00191830
v -0.03956574 0.08255198 -0.01253252
v -0.04016711 0.07941768 -0.00912938
v -0.03938912 0.08061187 -0.00775266
v -0.04069937 0.07589477 -0.00611730
v -0.04152747 0.06788776 -0.00143105
v -0.04130528 0.05928721 0.00309090
v -0.04200324 0.05898362 0.00126131
v -0.04209976 0.05435121 0.00180753
v -0.04209977 0.04968572 0.00180757
v -0.04200326 0.04505330 0.00126143
v -0.04152752 0.03614912 -0.00143080
v -0.04115504 0.03200365 -0.00353868
v -0.04069943 0.02814204 -0.00611693
v -0.04016718 0.02461909 -0.00912896
v -0.03956582 0.02148473 -0.01253205
v -0.03890389 0.01878344 -0.01627794
v -0.03819077 0.01655352 -0.02031351
v -0.03578270 0.08961815 -0.03678795
v -0.03584151 0.08929105 -0.03679834
v -0.03665148 0.08989212 -0.03075824
v -0.03682461 0.09013359 -0.02836291
v -0.03819067 0.08748306 -0.02031407
v -0.03890380 0.08525321 -0.01627847
v -0.04098363 0.07473538 -0.00769899
v -0.04115498 0.07203320 -0.00353899
v -0.04181157 0.06351724 0.00017666
v -0.04181160 0.04051967 0.00017684
v -0.04177158 0.03691968 -0.00324004
v -0.03859684 0.01827559 -0.02120587
v -0.03743657 0.01482661 -0.02458151
v -0.03681200 0.01393555 -0.02865453
v -0.03387376 0.01390256 -0.04506064
v -0.03315303 0.01482595 -0.04882091
v -0.02333708 0.02527059 -0.06991988
v -0.02282669 0.02959647 -0.07280821
v -0.02209115 0.03913640 -0.07697064
v -0.02187643 0.04421515 -0.07818571
v -0.02176831 0.04940456 -0.07879760
v -0.02187641 0.05982047 -0.07818583
v -0.02240936 0.06979531 -0.07516990
v -0.02209111 0.06489924 -0.07697085
v -0.02393326 0.08271173 -0.06654610
v -0.02282663 0.07443924 -0.07280856
v -0.02534845 0.08924907 -0.05853751
v -0.02460693 0.08622297 -0.06273381
v -0.02866274 0.09145505 -0.05319396
v -0.02830171 0.09150242 -0.05341073
v -0.02805752 0.09122820 -0.05410698
v -0.02669036 0.09165768 -0.05403746
v -0.03315293 0.08921016 -0.04882149
v -0.03256583 0.09059227 -0.04839985
v -0.03380371 0.08740438 -0.04832965
v -0.03531500 0.08916870 -0.03977724
v -0.03497170 0.08758378 -0.04230625
v -0.03594187 0.08801816 -0.03681607
v -0.03227679 0.08121370 -0.05755674
v -0.03262540 0.08255921 -0.05558397
v -0.03240762 0.08363962 -0.05623015
v -0.03310527 0.08411594 -0.05286838
v -0.03308612 0.08576129 -0.05239048
v -0.03401035 0.08626415 -0.04774654
v -0.03455020 0.08854558 -0.04410527
v -0.03532719 0.08966465 -0.03921634
v -0.03120565 0.07808724 -0.06303213
v -0.03154508 0.07766124 -0.06169751
v -0.03069923 0.07473529 -0.06589794
v -0.03097538 0.07395911 -0.06492144
v -0.03026575 0.07106113 -0.06835103
v -0.03077301 0.07235703 -0.06606665
v -0.03028055 0.06743032 -0.06885349
v -0.02993049 0.06214686 -0.07083449
v -0.02964105 0.06295849 -0.07188620
v -0.02945870 0.05864492 -0.07291813
v -0.02936688 0.05423737 -0.07343777
v -0.02972986 0.05666576 -0.07196987
v -0.03069929 0.02930055 -0.06589758
v -0.03055677 0.03362532 -0.06729043
v -0.03026580 0.03297466 -0.06835074
v -0.02991138 0.03691888 -0.07035636
v -0.03034323 0.03586761 -0.06849881
v -0.02997060 0.04113411 -0.07060751
v -0.02964108 0.04107725 -0.07188603
v -0.02975274 0.04645318 -0.07184042
v -0.02945871 0.04539080 -0.07291803
v -0.02967746 0.05191546 -0.07226640
v -0.02936688 0.04979834 -0.07343773
v -0.03120572 0.02594865 -0.06303171
v -0.03164820 0.02580438 -0.06111398
v -0.03147917 0.02675390 -0.06207052
v -0.03085175 0.03103379 -0.06562111
v -0.03177790 0.02296649 -0.05979376
v -0.03201720 0.02395909 -0.05902582
v -0.03240771 0.02039638 -0.05622965
v -0.03239769 0.02233377 -0.05687260
v -0.03308622 0.01827477 -0.05238995
v -0.03321801 0.01959949 -0.05223041
v -0.03413537 0.01754715 -0.04703906
v -0.03380381 0.01663174 -0.04832909
v -0.03455030 0.01549062 -0.04410469
v -0.03508792 0.01635354 -0.04164859
v -0.03531511 0.01486757 -0.03977666
v -0.03128224 0.01500724 -0.05362815
v -0.03208759 0.01329764 -0.04931681
v -0.03334856 0.01371096 -0.04656333
v -0.02832521 0.01253654 -0.05339690
v -0.02805763 0.01280781 -0.05410636
v -0.02726919 0.01527316 -0.05856816
v -0.02587246 0.02172498 -0.06647225
v -0.02528399 0.02561995 -0.06980245
v -0.02478026 0.02988933 -0.07265304
v -0.02436842 0.03447256 -0.07498362
v -0.02240941 0.03424036 -0.07516962
v -0.02405433 0.03930465 -0.07676110
v -0.02373570 0.04943870 -0.07856421
v -0.02373569 0.05459692 -0.07856426
v -0.02176830 0.05463104 -0.07879765
v -0.02384239 0.05971856 -0.07796043
v -0.02405429 0.06473099 -0.07676131
v -0.02436838 0.06956311 -0.07498389
v -0.02478020 0.07414639 -0.07265340
v -0.02333701 0.07876517 -0.06992031
v -0.02528391 0.07841582 -0.06980286
v -0.02587238 0.08231084 -0.06647273
v -0.02653725 0.08577621 -0.06271024
v -0.02726909 0.08876279 -0.05856874
v -0.02613785 0.09169047 -0.05413083
v -0.02785390 0.01248133 -0.05363913
v -0.02903512 0.01614003 -0.05833089
v -0.02832054 0.01905608 -0.06237473
v -0.02653734 0.01825967 -0.06270971
v -0.02767135 0.02243964 -0.06604853
v -0.02709675 0.02624272 -0.06930014
v -0.02660491 0.03041138 -0.07208350
v -0.02620280 0.03488649 -0.07435908
v -0.02589611 0.03960458 -0.07609464
v -0.02384242 0.04431706 -0.07796031
v -0.02558499 0.04949955 -0.07785521
v -0.02558499 0.05453608 -0.07785525
v -0.02568917 0.05953690 -0.07726567
v -0.02589607 0.06443108 -0.07609484
v -0.02620274 0.06914920 -0.07435935
v -0.02767126 0.08159619 -0.06604899
v -0.02903502 0.08789593 -0.05833146
v -0.02960427 0.09130851 -0.05248344
v -0.02966435 0.01273801 -0.05243018
v -0.02980497 0.01373284 -0.05397435
v -0.03053802 0.01733430 -0.05783967
v -0.02984722 0.02015328 -0.06174891
v -0.02921964 0.02342421 -0.06530041
v -0.02866417 0.02710070 -0.06844380
v -0.02818871 0.03113060 -0.07113449
v -0.02750349 0.04001779 -0.07501213
v -0.02568919 0.04449874 -0.07726556
v -0.02730346 0.04474904 -0.07614406
v -0.02720274 0.04958339 -0.07671409
v -0.02750345 0.06401789 -0.07501231
v -0.02779992 0.06857897 -0.07333460
v -0.02818865 0.07290515 -0.07113482
v -0.02866411 0.07693509 -0.06844418
v -0.02660485 0.07362436 -0.07208384
v -0.02709668 0.07779305 -0.06930055
v -0.02921956 0.08061163 -0.06530085
v -0.02832045 0.08497981 -0.06237525
v -0.03053792 0.08670167 -0.05784022
v -0.03128213 0.08902880 -0.05362873
v -0.02980486 0.09030318 -0.05397496
v -0.03094720 0.09103508 -0.05103905
v -0.03239883 0.01655282 -0.05308899
v -0.03168569 0.01878270 -0.05712464
v -0.03102373 0.02148396 -0.06087062
v -0.03042236 0.02461830 -0.06427381
v -0.02989010 0.02814126 -0.06728593
v -0.02943447 0.03200286 -0.06986427
v -0.02779997 0.03545675 -0.07333434
v -0.02877788 0.04051893 -0.07357997
v -0.02858621 0.04505260 -0.07466464
v -0.02848968 0.04968506 -0.07521085
v -0.02848968 0.05435062 -0.07521090
v -0.02720273 0.05445227 -0.07671413
v -0.02730345 0.05928663 -0.07614417
v -0.02877785 0.06351679 -0.07358015
v -0.02906193 0.06788739 -0.07197249
v -0.02943442 0.07203291 -0.06986458
v -0.02989002 0.07589456 -0.06728631
v -0.03042228 0.07941756 -0.06427424
v -0.03102365 0.08255196 -0.06087111
v -0.02984713 0.08388262 -0.06174941
v -0.03168559 0.08525328 -0.05712516
v -0.03239873 0.08748323 -0.05308954
v -0.03208277 0.09073988 -0.04932634
v -0.03480066 0.01423443 -0.04164983
v -0.03453249 0.01414419 -0.04274965
v -0.02906197 0.03614835 -0.07197224
v -0.02858618 0.05898309 -0.07466474
v -0.02991135 0.06711689 -0.07035660
v -0.03177781 0.08106945 -0.05979422
v -0.03396231 0.09010076 -0.04478098
v -0.04003945 0.07924917 -0.01362780
v -0.03840165 0.08512697 -0.02289614
v -0.03137435 0.07665601 -0.06266367
v -0.04071331 0.07534537 -0.00981440
v -0.04220571 0.05148518 -0.00136892
v -0.02932183 0.09196107 -0.05055769
v -0.02850781 0.09197428 -0.05156897
v -0.03058696 0.09193470 -0.04835771
v -0.03152033 0.09191027 -0.04603307
v -0.03225853 0.09188952 -0.04366118
v -0.03286160 0.09187368 -0.04126756
v -0.03383116 0.09186033 -0.03645821
v -0.03456999 0.09187359 -0.03160892
v -0.03482493 0.09188940 -0.02915422
v -0.03494639 0.09191009 -0.02667937
v -0.03487022 0.09193448 -0.02417870
v -0.03444138 0.09196094 -0.02167196
v -0.03402649 0.09197423 -0.02043754
v -0.03027035 0.09148819 -0.05115435
v -0.02806036 0.09172430 -0.05310825
v -0.02927465 0.09161118 -0.05220865
v -0.03056031 0.09112176 -0.05151143
v -0.03289635 0.09101495 -0.04646375
v -0.03333437 0.09033021 -0.04660084
v -0.03374156 0.09082146 -0.04403322
v -0.03479343 0.08980407 -0.04168084
v -0.03440879 0.09067359 -0.04159856
v -0.03292970 0.09181446 -0.01772136
v -0.03554066 0.09148502 -0.02143917
v -0.03598817 0.09109519 -0.02134439
v -0.03413723 0.09172288 -0.01882896
v -0.03446911 0.09149977 -0.01862846
v -0.03684626 0.09032535 -0.02676978
v -0.03638821 0.09101193 -0.02674799
v -0.02655614 0.09181463 -0.05372454
v -0.02779818 0.09188780 -0.05277968
v -0.02890362 0.09183726 -0.05189921
v -0.02981652 0.09178204 -0.05086888
v -0.03123195 0.09167090 -0.04862891
v -0.03179686 0.09124256 -0.04886610
v -0.03308240 0.09147744 -0.04386799
v -0.03373485 0.09140855 -0.04145438
v -0.03542629 0.09054887 -0.03674021
v -0.03474417 0.09135004 -0.03661962
v -0.03545476 0.09140792 -0.03173303
v -0.03613735 0.09067216 -0.03182878
v -0.03567038 0.09147656 -0.02924281
v -0.03573200 0.09156550 -0.02671676
v -0.03634639 0.09081943 -0.02931389
v -0.03557073 0.09166935 -0.02414623
v -0.03501487 0.09178074 -0.02155052
v -0.03618369 0.09123892 -0.02411814
v -0.03451385 0.09183624 -0.02026422
v -0.03497041 0.09160859 -0.02010195
v -0.03377653 0.09188732 -0.01904687
v -0.03270179 0.09192809 -0.01799578
v -0.03217031 0.09184247 -0.01731473
v -0.03652649 0.08980188 -0.03188337
v -0.03226985 0.09156681 -0.04626766
v -0.03674034 0.01344405 -0.02477623
v -0.03684579 0.01370610 -0.02672967
v -0.03634835 0.01321485 -0.02928135
v -0.03614078 0.01336272 -0.03179724
v -0.02808214 0.01231344 -0.05309481
v -0.03029513 0.01255129 -0.05112366
v -0.03068306 0.01294112 -0.05136606
v -0.02930113 0.01242772 -0.05218446
v -0.03375087 0.01321688 -0.04400198
v -0.03291077 0.01302439 -0.04642682
v -0.03181735 0.01279739 -0.04882730
v -0.03292302 0.01356195 -0.04761632
v -0.03141494 0.01311464 -0.05039894
v -0.03474948 0.01268627 -0.03658958
v -0.03543161 0.01348745 -0.03671007
v -0.03441638 0.01336415 -0.04156774
v -0.03374232 0.01262839 -0.04142376
v -0.03309144 0.01255975 -0.04383707
v -0.03228361 0.01247081 -0.04623126
v -0.03125114 0.01236696 -0.04859085
v -0.02983935 0.01225556 -0.05083886
f 275 333 276
f 50 238 52
f 302 301 253
f 280 297 279
f 279 297 284
f 239 238 50
f 56 252 57
f 333 240 57
f 275 276 296
f 296 276 301
f 511 507 508
f 268 508 507
f 300 632 285
f 631 632 300
f 512 513 511
f 217 204 203
f 5 205 217
f 205 204 217
f 363 362 387
f 387 386 363
f 386 378 385
f 363 386 366
f 386 385 366
f 366 385 367
f 294 261 299
f 299 261 262
f 262 293 299
f 233 239 240
f 333 57 254
f 254 276 333
f 254 252 253
f 254 57 252
f 297 298 532
f 284 297 530
f 297 531 530
f 521 531 297
f 524 530 521
f 521 530 531
f 250 52 238
f 54 52 251
f 251 408 54
f 52 250 251
f 278 302 253
f 278 255 302
f 253 252 278
f 302 255 303
f 607 252 56
f 607 278 252
f 608 255 607
f 255 278 607
f 511 508 510
f 509 517 513
f 511 513 514
f 513 517 514
f 514 507 511
f 517 520 514
f 514 520 530
f 824 904 600
f 649 291 286
f 649 286 648
f 730 732 733
f 295 289 910
f 289 895 910
f 909 289 290
f 909 895 289
f 290 291 893
f 584 904 893
f 648 286 647
f 286 646 647
f 286 285 633
f 633 285 632
f 51 52 54
f 50 52 51
f 50 51 49
f 49 51 582
f 218 205 5
f 511 107 95
f 95 512 511
f 219 218 489
f 569 567 566
f 379 378 386
f 386 387 379
f 5 217 4
f 357 378 356
f 378 379 356
f 356 379 354
f 367 385 384
f 325 322 384
f 384 326 325
f 292 293 263
f 293 262 263
f 287 292 263
f 280 405 400
f 277 254 253
f 276 254 277
f 253 301 277
f 301 276 277
f 298 288 343
f 343 257 298
f 343 288 258
f 298 257 272
f 524 297 525
f 297 532 525
f 528 530 527
f 522 297 524
f 524 521 522
f 522 521 297
f 461 463 462
f 526 520 441
f 527 530 526
f 530 520 526
f 519 520 517
f 442 526 441
f 280 279 397
f 527 526 243
f 448 461 462
f 447 461 448
f 472 456 455
f 581 580 605
f 581 39 580
f 582 51 581
f 41 40 42
f 473 456 472
f 473 417 456
f 456 417 418
f 418 415 420
f 641 642 626
f 547 642 641
f 255 629 627
f 642 643 627
f 626 642 627
f 630 303 255
f 255 627 630
f 300 303 630
f 630 631 300
f 630 643 631
f 630 627 643
f 566 567 565
f 562 563 832
f 563 565 832
f 566 565 653
f 880 845 878
f 556 543 553
f 730 543 556
f 618 607 617
f 108 107 511
f 511 510 108
f 510 315 108
f 267 268 507
f 388 387 362
f 388 389 381
f 381 389 382
f 382 351 381
f 350 351 382
f 513 512 111
f 516 509 119
f 517 509 516
f 513 114 515
f 515 509 513
f 119 509 117
f 599 539 540
f 584 539 598
f 598 904 584
f 600 904 598
f 598 599 600
f 539 599 598
f 540 539 541
f 541 733 540
f 824 732 825
f 590 543 591
f 592 591 593
f 591 543 593
f 553 543 835
f 835 543 546
f 835 546 547
f 898 907 290
f 290 906 898
f 290 893 903
f 903 893 904
f 545 642 547
f 545 643 642
f 547 546 545
f 631 643 660
f 643 545 660
f 589 647 646
f 589 592 648
f 648 647 589
f 589 591 592
f 589 590 591
f 645 633 632
f 645 646 286
f 286 633 645
f 471 498 472
f 470 498 471
f 472 455 471
f 623 613 612
f 612 613 605
f 616 624 617
f 616 613 623
f 623 624 616
f 50 49 478
f 478 239 50
f 606 607 56
f 56 583 606
f 617 607 606
f 606 616 617
f 606 583 582
f 203 204 181
f 219 489 490
f 221 219 490
f 490 491 221
f 488 218 5
f 488 489 218
f 224 484 485
f 9 485 484
f 789 814 790
f 790 814 815
f 694 556 562
f 844 21 843
f 844 878 845
f 380 379 387
f 380 388 381
f 387 388 380
f 354 379 380
f 346 351 344
f 344 351 350
f 326 384 377
f 377 327 326
f 377 385 378
f 377 384 385
f 377 378 357
f 78 67 83
f 810 707 811
f 811 788 810
f 810 788 809
f 708 703 704
f 718 708 707
f 703 708 718
f 730 556 727
f 703 718 710
f 556 694 710
f 710 727 556
f 784 765 783
f 805 783 782
f 805 806 784
f 784 783 805
f 295 259 304
f 287 263 264
f 264 288 287
f 258 288 264
f 357 356 349
f 349 330 357
f 349 331 330
f 370 331 349
f 239 233 236
f 233 234 236
f 238 239 236
f 257 343 345
f 272 341 534
f 533 532 298
f 298 272 533
f 533 525 532
f 524 525 533
f 533 530 524
f 533 514 530
f 507 514 533
f 284 530 529
f 529 528 284
f 530 528 529
f 429 519 518
f 518 519 517
f 526 442 477
f 477 243 526
f 477 442 416
f 416 243 477
f 246 405 407
f 450 448 462
f 520 519 435
f 495 39 38
f 54 408 38
f 605 613 614
f 614 581 605
f 582 581 614
f 613 616 614
f 53 51 54
f 53 581 51
f 39 581 53
f 54 38 53
f 53 38 39
f 605 580 604
f 604 41 42
f 580 41 604
f 42 37 604
f 37 579 604
f 495 38 494
f 494 38 408
f 417 473 494
f 409 251 250
f 408 251 409
f 413 418 417
f 547 641 548
f 548 835 547
f 562 832 564
f 564 694 562
f 567 569 564
f 564 565 567
f 564 832 565
f 573 575 574
f 876 653 654
f 654 565 574
f 654 653 565
f 575 573 864
f 555 556 553
f 557 556 554
f 556 555 554
f 638 554 659
f 659 624 638
f 626 627 628
f 628 627 629
f 628 255 608
f 628 629 255
f 608 607 628
f 607 618 628
f 557 554 658
f 658 554 638
f 623 637 658
f 658 624 623
f 638 624 658
f 635 637 636
f 577 34 33
f 34 32 33
f 577 33 578
f 578 33 32
f 32 27 578
f 579 35 36
f 499 579 37
f 499 35 579
f 499 37 42
f 42 498 499
f 499 498 470
f 470 35 499
f 467 466 468
f 468 466 34
f 462 463 465
f 463 32 465
f 465 32 34
f 34 466 465
f 19 848 885
f 885 22 19
f 846 845 880
f 316 359 314
f 316 108 315
f 339 315 510
f 359 316 339
f 339 316 315
f 507 265 266
f 266 267 507
f 268 360 274
f 508 268 274
f 361 360 389
f 361 388 362
f 389 388 361
f 359 360 361
f 433 519 429
f 475 461 447
f 447 423 446
f 446 475 447
f 113 114 513
f 513 111 113
f 512 95 109
f 109 111 512
f 109 95 94
f 162 174 163
f 162 173 174
f 517 516 120
f 120 516 119
f 119 117 118
f 509 515 116
f 116 117 509
f 116 515 114
f 540 733 734
f 734 599 540
f 734 733 732
f 734 732 824
f 734 824 600
f 600 599 734
f 585 539 584
f 585 541 539
f 595 593 597
f 541 585 597
f 597 585 596
f 733 541 597
f 730 733 597
f 597 543 730
f 597 593 543
f 595 597 662
f 662 597 596
f 731 666 665
f 731 732 730
f 665 825 731
f 731 825 732
f 542 590 587
f 543 590 542
f 542 661 543
f 550 551 553
f 553 835 550
f 835 548 550
f 549 551 550
f 550 548 549
f 290 907 899
f 899 908 290
f 907 898 899
f 900 909 290
f 290 908 900
f 908 899 900
f 895 909 900
f 782 783 764
f 764 783 765
f 764 742 741
f 765 742 764
f 763 764 741
f 762 764 763
f 740 761 763
f 761 762 763
f 895 900 896
f 666 731 801
f 801 731 728
f 780 762 761
f 735 801 780
f 905 903 904
f 905 898 906
f 905 906 290
f 290 903 905
f 904 824 905
f 824 825 905
f 905 825 665
f 665 898 905
f 661 660 544
f 544 660 545
f 543 661 544
f 546 543 544
f 544 545 546
f 644 660 661
f 661 645 644
f 644 645 632
f 632 631 644
f 631 660 644
f 588 589 646
f 646 645 588
f 587 590 588
f 590 589 588
f 470 471 469
f 469 468 470
f 467 468 469
f 454 471 455
f 454 469 471
f 455 438 454
f 623 612 622
f 622 612 636
f 622 637 623
f 636 637 622
f 55 478 49
f 55 49 582
f 582 583 55
f 55 583 56
f 56 57 55
f 207 219 221
f 205 218 207
f 207 218 219
f 220 222 208
f 208 184 220
f 221 222 220
f 220 207 221
f 184 207 220
f 185 184 208
f 208 173 185
f 107 108 97
f 156 142 141
f 156 141 155
f 314 359 393
f 393 312 314
f 393 361 362
f 359 361 393
f 308 311 101
f 487 226 486
f 487 482 226
f 208 222 209
f 209 173 208
f 209 186 174
f 174 173 209
f 221 491 492
f 492 222 221
f 486 485 59
f 485 9 59
f 816 790 815
f 759 677 682
f 163 188 164
f 165 166 150
f 827 705 814
f 682 865 11
f 843 21 842
f 21 841 842
f 839 21 838
f 838 869 839
f 166 165 176
f 191 176 190
f 231 18 232
f 232 18 15
f 843 842 875
f 875 842 874
f 875 874 876
f 872 841 871
f 872 842 841
f 874 842 872
f 354 380 353
f 353 351 346
f 381 351 353
f 353 380 381
f 346 348 353
f 353 348 354
f 352 344 350
f 340 345 352
f 376 377 357
f 327 377 376
f 65 327 376
f 376 66 65
f 81 742 667
f 79 78 741
f 741 742 79
f 79 742 81
f 67 78 79
f 719 809 717
f 719 810 809
f 707 810 719
f 719 718 707
f 717 716 719
f 716 718 719
f 730 727 729
f 729 731 730
f 728 731 729
f 714 716 717
f 714 718 716
f 714 710 718
f 727 710 722
f 3 4 1
f 203 216 1
f 1 217 203
f 1 4 217
f 106 493 215
f 215 493 216
f 215 216 203
f 87 327 65
f 326 327 87
f 71 323 322
f 70 323 71
f 744 768 746
f 767 768 744
f 743 742 766
f 766 742 765
f 766 744 743
f 767 744 766
f 766 765 784
f 784 767 766
f 807 767 784
f 807 768 767
f 294 304 260
f 261 294 260
f 260 304 259
f 295 910 897
f 897 910 895
f 336 259 295
f 372 264 263
f 258 264 347
f 346 344 347
f 83 330 329
f 330 331 329
f 329 78 83
f 64 260 259
f 261 260 64
f 334 64 259
f 355 349 356
f 354 348 355
f 355 356 354
f 348 372 355
f 404 405 246
f 246 234 404
f 404 234 233
f 399 400 405
f 405 404 399
f 399 404 398
f 280 400 399
f 399 297 280
f 246 407 235
f 235 407 241
f 235 234 246
f 235 236 234
f 342 272 257
f 342 341 272
f 340 341 342
f 257 345 342
f 342 345 340
f 271 534 341
f 271 340 270
f 271 341 340
f 269 383 535
f 270 269 535
f 535 265 507
f 535 383 265
f 535 271 270
f 534 271 535
f 272 534 523
f 523 533 272
f 507 533 523
f 523 535 507
f 534 535 523
f 428 518 517
f 406 405 280
f 406 407 405
f 280 397 406
f 406 397 279
f 420 415 419
f 415 245 419
f 419 416 420
f 419 245 416
f 451 436 434
f 434 450 451
f 436 435 434
f 441 438 440
f 440 442 441
f 420 416 440
f 416 442 440
f 440 418 420
f 456 418 440
f 440 455 456
f 440 438 455
f 520 435 437
f 437 435 436
f 582 614 615
f 615 614 616
f 615 606 582
f 616 606 615
f 620 635 636
f 634 635 620
f 636 612 611
f 611 620 636
f 621 620 611
f 611 612 605
f 602 579 577
f 472 498 497
f 497 473 472
f 497 494 473
f 42 40 497
f 497 498 42
f 495 494 496
f 40 41 496
f 496 497 40
f 494 497 496
f 496 39 495
f 580 39 496
f 496 41 580
f 408 409 410
f 410 494 408
f 417 494 410
f 410 409 249
f 244 245 415
f 416 245 244
f 418 413 412
f 412 413 249
f 568 569 566
f 876 874 873
f 575 864 863
f 574 575 863
f 863 654 574
f 882 864 573
f 882 573 571
f 880 878 882
f 878 864 882
f 552 555 553
f 552 554 555
f 553 551 552
f 552 551 549
f 552 659 554
f 549 548 640
f 640 548 641
f 640 552 549
f 659 552 640
f 640 641 626
f 617 624 625
f 624 659 625
f 561 559 634
f 561 563 562
f 562 559 561
f 562 556 560
f 637 635 558
f 634 559 558
f 558 635 634
f 28 27 26
f 26 27 32
f 26 463 28
f 26 32 463
f 500 468 34
f 500 36 35
f 500 35 470
f 470 468 500
f 500 34 577
f 577 579 500
f 579 36 500
f 464 466 467
f 464 465 466
f 462 465 464
f 464 450 462
f 464 467 451
f 451 450 464
f 31 22 886
f 886 885 858
f 22 885 886
f 62 27 28
f 28 29 62
f 375 383 269
f 375 352 350
f 340 352 375
f 270 340 375
f 375 269 270
f 391 382 389
f 267 266 391
f 389 360 391
f 268 267 391
f 391 360 268
f 359 339 273
f 273 510 508
f 273 339 510
f 461 475 459
f 422 445 425
f 445 446 425
f 425 446 423
f 423 424 425
f 112 113 111
f 111 109 112
f 163 164 148
f 172 162 146
f 173 162 172
f 159 185 172
f 172 185 173
f 517 120 122
f 592 593 594
f 594 593 595
f 595 662 594
f 648 592 594
f 594 649 648
f 892 893 291
f 291 649 650
f 649 594 650
f 650 594 662
f 650 662 596
f 737 898 665
f 737 899 898
f 665 666 737
f 901 737 666
f 899 737 901
f 741 78 63
f 63 763 741
f 77 763 63
f 78 329 63
f 63 329 331
f 331 64 63
f 64 334 63
f 735 896 902
f 902 896 900
f 726 727 724
f 728 729 726
f 726 729 727
f 762 780 781
f 782 764 781
f 781 764 762
f 586 645 661
f 586 588 645
f 661 542 586
f 586 542 587
f 587 588 586
f 453 436 451
f 469 454 453
f 451 467 453
f 467 469 453
f 48 55 57
f 478 55 48
f 239 478 48
f 240 239 48
f 48 57 240
f 158 144 157
f 159 172 160
f 160 172 146
f 160 158 159
f 144 158 160
f 206 207 184
f 205 207 206
f 108 316 96
f 96 97 108
f 94 125 126
f 124 97 99
f 99 125 124
f 124 125 94
f 94 95 124
f 124 95 107
f 107 97 124
f 104 199 105
f 203 181 180
f 180 215 203
f 105 215 180
f 98 100 99
f 99 97 98
f 97 96 98
f 99 100 102
f 102 125 99
f 102 100 101
f 75 76 88
f 322 323 392
f 367 384 392
f 392 384 322
f 365 366 367
f 101 311 198
f 199 104 198
f 168 142 156
f 168 170 157
f 182 170 181
f 182 204 205
f 182 181 204
f 205 206 182
f 868 869 838
f 682 677 758
f 757 776 758
f 482 487 60
f 60 59 677
f 60 487 486
f 486 59 60
f 175 188 163
f 163 174 175
f 174 186 175
f 186 187 175
f 13 231 229
f 226 482 212
f 482 227 212
f 210 226 212
f 212 186 210
f 212 187 186
f 486 226 225
f 225 485 486
f 224 485 225
f 210 186 223
f 186 209 223
f 223 226 210
f 223 225 226
f 224 225 223
f 223 222 224
f 223 209 222
f 8 492 491
f 9 492 8
f 491 490 8
f 9 8 675
f 675 8 754
f 483 9 484
f 483 492 9
f 483 484 224
f 224 222 483
f 222 492 483
f 815 814 828
f 814 705 828
f 828 816 815
f 701 816 828
f 703 701 828
f 704 703 828
f 828 705 704
f 702 701 703
f 674 672 750
f 750 751 674
f 789 790 773
f 150 136 149
f 149 165 150
f 164 165 149
f 149 148 164
f 705 827 706
f 707 708 706
f 811 707 706
f 706 827 811
f 704 705 706
f 706 708 704
f 12 11 13
f 13 229 12
f 12 229 227
f 481 231 13
f 481 18 231
f 15 18 16
f 838 21 16
f 840 841 21
f 21 839 840
f 871 841 840
f 889 839 869
f 853 871 889
f 871 840 889
f 889 840 839
f 846 847 20
f 845 846 20
f 20 848 19
f 20 847 848
f 20 844 845
f 21 844 20
f 21 20 479
f 479 20 505
f 177 176 191
f 178 167 177
f 177 167 166
f 166 176 177
f 213 232 190
f 877 844 843
f 843 875 877
f 878 844 877
f 877 864 878
f 67 66 328
f 66 376 328
f 328 376 357
f 357 330 328
f 83 67 328
f 328 330 83
f 82 66 67
f 67 79 82
f 82 79 81
f 65 66 82
f 750 672 748
f 788 771 770
f 770 748 747
f 771 748 770
f 812 788 811
f 812 771 788
f 809 788 787
f 724 727 725
f 727 722 725
f 44 58 672
f 105 199 202
f 202 215 105
f 106 215 202
f 325 326 69
f 326 87 69
f 88 76 91
f 70 71 89
f 89 72 70
f 670 76 74
f 74 72 670
f 76 75 74
f 804 803 724
f 804 805 782
f 782 781 804
f 804 781 803
f 802 780 801
f 802 781 780
f 803 781 802
f 802 801 728
f 728 726 802
f 724 803 802
f 802 726 724
f 723 722 710
f 723 709 722
f 722 709 720
f 720 804 724
f 720 709 805
f 805 804 720
f 295 897 894
f 760 336 894
f 895 896 778
f 778 897 895
f 740 336 739
f 739 336 760
f 259 336 335
f 335 334 259
f 335 336 740
f 740 763 335
f 335 763 77
f 262 370 371
f 370 349 371
f 371 263 262
f 371 372 263
f 349 355 371
f 371 355 372
f 373 347 264
f 373 372 348
f 264 372 373
f 373 348 346
f 346 347 373
f 374 347 344
f 344 352 374
f 374 352 345
f 258 347 374
f 374 343 258
f 374 345 343
f 261 64 338
f 338 262 261
f 338 370 262
f 338 331 370
f 338 64 331
f 403 404 233
f 403 333 275
f 403 240 333
f 403 233 240
f 402 296 297
f 297 399 402
f 275 296 402
f 402 399 398
f 398 404 402
f 404 403 402
f 429 518 430
f 518 424 430
f 430 423 429
f 430 424 423
f 426 424 518
f 426 425 424
f 407 406 506
f 241 407 506
f 448 450 449
f 450 434 449
f 441 520 439
f 520 437 439
f 439 438 441
f 452 437 436
f 452 454 438
f 438 439 452
f 452 439 437
f 436 453 452
f 452 453 454
f 621 602 609
f 609 537 538
f 609 602 537
f 634 620 619
f 619 620 621
f 621 609 619
f 605 604 603
f 603 611 605
f 603 604 579
f 621 611 603
f 537 602 601
f 601 536 537
f 601 602 577
f 858 536 601
f 249 413 411
f 411 410 249
f 411 413 417
f 417 410 411
f 247 412 248
f 415 247 248
f 248 244 415
f 248 235 241
f 241 244 248
f 418 412 414
f 414 412 247
f 415 418 414
f 414 247 415
f 687 564 569
f 694 564 687
f 651 873 696
f 874 872 857
f 857 873 874
f 879 863 864
f 864 877 879
f 876 654 879
f 654 863 879
f 879 875 876
f 879 877 875
f 659 640 639
f 639 625 659
f 639 640 626
f 626 628 639
f 639 628 618
f 639 618 617
f 617 625 639
f 831 559 562
f 562 560 831
f 831 558 559
f 560 558 831
f 637 558 657
f 557 658 657
f 657 658 637
f 657 556 557
f 858 885 861
f 861 536 858
f 887 578 27
f 27 62 887
f 858 578 887
f 887 62 31
f 887 886 858
f 31 886 887
f 881 846 880
f 881 847 846
f 382 391 390
f 390 266 265
f 390 391 266
f 265 383 390
f 383 375 390
f 350 382 390
f 390 375 350
f 358 360 359
f 359 273 358
f 358 274 360
f 508 274 358
f 358 273 508
f 19 22 24
f 25 20 19
f 505 20 25
f 191 190 214
f 190 232 214
f 457 502 475
f 457 446 445
f 475 446 457
f 463 461 460
f 461 459 460
f 28 463 460
f 460 29 28
f 460 459 29
f 29 459 30
f 31 62 30
f 30 62 29
f 501 22 31
f 31 30 501
f 501 30 459
f 475 502 458
f 458 459 475
f 458 501 459
f 22 501 458
f 150 166 151
f 166 167 151
f 138 118 136
f 138 136 150
f 150 151 138
f 138 151 139
f 121 139 152
f 113 112 129
f 114 113 129
f 129 115 114
f 130 115 129
f 130 129 128
f 128 129 112
f 110 109 94
f 110 112 109
f 94 126 110
f 517 122 421
f 421 122 93
f 421 428 517
f 93 428 421
f 291 890 891
f 891 892 291
f 663 890 291
f 291 650 663
f 663 891 890
f 663 650 596
f 77 63 337
f 337 63 334
f 337 335 77
f 334 335 337
f 736 902 900
f 736 900 899
f 899 901 736
f 735 902 736
f 736 801 735
f 666 801 736
f 736 901 666
f 130 144 132
f 144 160 132
f 132 115 130
f 132 160 146
f 146 133 132
f 131 116 114
f 114 115 131
f 115 132 131
f 131 132 133
f 161 133 146
f 146 162 161
f 161 162 163
f 163 148 161
f 171 206 184
f 184 185 171
f 171 185 159
f 159 158 171
f 157 170 183
f 206 171 183
f 170 182 183
f 183 182 206
f 183 158 157
f 183 171 158
f 193 316 314
f 193 96 316
f 169 180 181
f 181 170 169
f 169 168 156
f 170 168 169
f 179 104 105
f 105 180 179
f 155 104 179
f 180 169 179
f 156 155 179
f 179 169 156
f 125 102 140
f 140 155 141
f 141 126 140
f 140 126 125
f 103 104 155
f 155 140 103
f 103 140 102
f 103 102 101
f 101 198 103
f 103 198 104
f 70 72 73
f 72 74 73
f 73 74 75
f 324 392 323
f 324 73 75
f 324 323 70
f 70 73 324
f 101 100 196
f 196 308 101
f 364 365 308
f 308 395 364
f 363 366 364
f 366 365 364
f 682 758 681
f 856 686 696
f 856 857 830
f 696 873 856
f 873 857 856
f 683 822 685
f 685 830 683
f 683 684 822
f 853 684 854
f 684 683 854
f 854 683 830
f 853 889 870
f 870 889 869
f 870 684 853
f 799 758 776
f 799 681 758
f 821 822 798
f 798 797 821
f 822 684 798
f 800 799 798
f 776 797 798
f 798 799 776
f 482 60 61
f 677 759 61
f 61 60 677
f 61 759 682
f 682 11 61
f 678 675 757
f 677 59 678
f 678 59 9
f 9 675 678
f 757 758 678
f 678 758 677
f 756 675 754
f 757 675 756
f 756 775 757
f 820 797 776
f 821 797 820
f 820 819 821
f 6 488 5
f 5 4 6
f 6 4 3
f 754 8 7
f 7 490 489
f 7 8 490
f 489 488 7
f 488 6 7
f 697 819 818
f 672 674 2
f 2 44 672
f 3 1 2
f 2 674 3
f 750 748 772
f 772 748 771
f 772 751 750
f 772 773 751
f 774 773 790
f 18 481 17
f 17 16 18
f 13 11 17
f 17 481 13
f 17 866 16
f 17 11 865
f 865 866 17
f 189 190 176
f 189 213 190
f 189 176 165
f 188 213 189
f 189 164 188
f 189 165 164
f 228 229 231
f 187 212 228
f 227 229 228
f 228 212 227
f 231 232 230
f 232 213 230
f 230 228 231
f 747 748 671
f 90 91 671
f 671 91 76
f 671 76 670
f 769 770 747
f 747 671 769
f 769 671 670
f 808 809 785
f 809 787 785
f 785 807 808
f 768 807 785
f 788 770 786
f 786 787 788
f 770 769 786
f 768 785 786
f 786 785 787
f 746 768 786
f 786 769 746
f 715 714 717
f 715 712 714
f 715 809 808
f 717 809 715
f 808 807 826
f 826 715 808
f 712 715 826
f 784 806 826
f 826 807 784
f 710 714 713
f 714 712 713
f 711 723 710
f 709 723 711
f 710 713 711
f 711 713 712
f 806 805 711
f 805 709 711
f 711 826 806
f 712 826 711
f 724 725 721
f 721 725 722
f 721 720 724
f 722 720 721
f 749 58 90
f 90 671 749
f 749 671 748
f 749 748 672
f 672 58 749
f 201 46 106
f 106 202 201
f 201 202 396
f 90 58 45
f 45 46 90
f 45 44 493
f 58 44 45
f 45 493 106
f 106 46 45
f 68 322 325
f 325 69 68
f 68 71 322
f 72 89 669
f 670 72 669
f 89 745 669
f 746 769 669
f 669 769 670
f 669 744 746
f 669 745 744
f 256 336 295
f 295 894 256
f 256 894 336
f 779 778 896
f 779 896 735
f 779 780 761
f 735 780 779
f 779 761 740
f 740 739 779
f 738 894 897
f 897 778 738
f 760 894 738
f 738 739 760
f 778 779 738
f 738 779 739
f 401 403 275
f 275 402 401
f 401 402 403
f 518 428 427
f 427 426 518
f 427 428 422
f 422 425 427
f 425 426 427
f 283 406 279
f 283 506 406
f 283 528 527
f 527 506 283
f 242 506 527
f 241 506 242
f 242 244 241
f 448 449 432
f 447 448 432
f 432 423 447
f 429 423 432
f 432 433 429
f 432 449 433
f 431 434 435
f 431 449 434
f 433 449 431
f 431 435 519
f 519 433 431
f 655 573 574
f 574 565 655
f 655 565 563
f 610 603 579
f 621 603 610
f 579 602 610
f 610 602 621
f 577 578 576
f 576 601 577
f 576 578 858
f 858 601 576
f 237 248 412
f 237 412 249
f 236 235 237
f 235 248 237
f 249 409 237
f 238 236 237
f 237 250 238
f 237 409 250
f 688 687 569
f 686 687 688
f 569 568 688
f 695 687 686
f 686 856 695
f 685 694 695
f 694 687 695
f 695 830 685
f 695 856 830
f 888 651 568
f 566 653 888
f 888 568 566
f 873 651 888
f 888 653 876
f 876 873 888
f 568 651 652
f 686 688 652
f 652 688 568
f 696 686 652
f 652 651 696
f 855 872 871
f 855 857 872
f 855 871 853
f 853 854 855
f 830 857 855
f 855 854 830
f 834 558 560
f 834 657 558
f 834 560 556
f 556 657 834
f 537 536 862
f 536 861 862
f 538 537 862
f 862 570 538
f 860 882 571
f 538 570 860
f 883 861 885
f 883 885 848
f 848 847 883
f 847 881 883
f 23 24 22
f 502 24 23
f 22 458 23
f 23 458 502
f 480 232 15
f 480 214 232
f 479 214 480
f 191 214 192
f 137 139 121
f 137 138 139
f 118 138 137
f 119 118 137
f 137 120 119
f 121 120 137
f 121 152 123
f 93 122 123
f 123 120 121
f 123 122 120
f 178 445 444
f 444 445 422
f 444 167 178
f 92 123 152
f 139 151 154
f 154 152 139
f 154 151 167
f 167 444 154
f 143 144 130
f 130 128 143
f 157 144 143
f 143 128 142
f 143 168 157
f 142 168 143
f 127 128 112
f 112 110 127
f 142 128 127
f 127 110 126
f 127 141 142
f 127 126 141
f 892 891 664
f 584 893 664
f 893 892 664
f 891 663 664
f 664 585 584
f 596 585 664
f 664 663 596
f 117 116 134
f 116 131 134
f 321 324 75
f 88 320 321
f 321 75 88
f 199 306 200
f 200 202 199
f 396 202 200
f 311 308 309
f 308 365 309
f 199 198 197
f 197 306 199
f 197 309 306
f 197 198 311
f 311 309 197
f 320 396 369
f 396 306 369
f 369 321 320
f 392 324 369
f 324 321 369
f 310 395 308
f 308 196 310
f 394 364 395
f 312 393 394
f 394 395 312
f 394 393 362
f 394 362 363
f 363 364 394
f 314 312 313
f 313 193 314
f 313 98 96
f 96 193 313
f 100 98 317
f 317 194 100
f 98 313 317
f 395 194 317
f 312 395 317
f 317 313 312
f 777 851 679
f 680 681 679
f 679 799 777
f 681 799 679
f 868 851 849
f 869 868 849
f 849 851 777
f 849 870 869
f 800 870 849
f 680 679 850
f 850 679 851
f 682 681 850
f 850 681 680
f 850 865 682
f 850 866 865
f 867 851 868
f 866 850 867
f 867 850 851
f 16 866 867
f 867 837 16
f 684 870 823
f 823 870 800
f 823 798 684
f 800 798 823
f 11 12 10
f 10 61 11
f 482 61 10
f 10 227 482
f 10 12 227
f 775 756 755
f 754 753 755
f 755 756 754
f 796 820 776
f 775 820 796
f 796 776 757
f 757 775 796
f 790 816 791
f 816 792 791
f 818 792 817
f 817 792 816
f 817 697 818
f 795 792 818
f 818 819 795
f 819 820 795
f 795 820 775
f 775 792 795
f 3 674 673
f 673 6 3
f 676 753 754
f 754 7 676
f 676 673 753
f 676 7 6
f 6 673 676
f 701 702 699
f 697 817 699
f 699 816 701
f 699 817 816
f 693 694 685
f 685 822 693
f 493 44 43
f 44 2 43
f 43 2 1
f 216 493 43
f 43 1 216
f 771 812 813
f 813 772 771
f 789 773 813
f 773 772 813
f 813 814 789
f 813 827 814
f 811 827 813
f 813 812 811
f 211 213 188
f 187 228 211
f 211 230 213
f 228 230 211
f 188 175 211
f 211 175 187
f 319 320 88
f 88 91 319
f 319 91 90
f 85 68 69
f 85 745 89
f 85 89 71
f 71 68 85
f 743 744 668
f 744 745 668
f 668 742 743
f 668 667 742
f 81 667 668
f 668 80 81
f 281 283 279
f 528 283 281
f 416 244 476
f 244 242 476
f 476 243 416
f 527 243 476
f 476 242 527
f 634 619 656
f 619 655 656
f 656 561 634
f 563 561 656
f 656 655 563
f 573 655 572
f 572 655 619
f 571 573 572
f 572 860 571
f 538 860 572
f 572 609 538
f 572 619 609
f 859 860 570
f 859 881 880
f 880 882 859
f 882 860 859
f 884 862 861
f 861 883 884
f 570 862 884
f 884 859 570
f 884 883 881
f 881 859 884
f 14 480 15
f 479 480 14
f 21 479 14
f 14 16 21
f 15 16 14
f 474 192 457
f 474 445 178
f 474 457 445
f 178 177 474
f 474 177 191
f 191 192 474
f 502 457 503
f 503 25 19
f 19 24 503
f 503 24 502
f 504 192 214
f 504 479 505
f 504 214 479
f 505 25 504
f 25 503 504
f 457 192 504
f 504 503 457
f 153 444 422
f 422 92 153
f 153 92 152
f 152 154 153
f 153 154 444
f 93 123 443
f 123 92 443
f 443 92 422
f 422 428 443
f 443 428 93
f 135 118 117
f 117 134 135
f 136 118 135
f 307 306 396
f 396 200 307
f 307 200 306
f 368 369 306
f 368 309 365
f 306 309 368
f 368 365 367
f 367 392 368
f 392 369 368
f 195 310 196
f 195 196 100
f 100 194 195
f 195 194 395
f 395 310 195
f 16 837 836
f 836 868 838
f 838 16 836
f 836 867 868
f 837 867 836
f 852 849 777
f 800 849 852
f 777 799 852
f 852 799 800
f 793 791 792
f 793 774 790
f 790 791 793
f 793 755 753
f 752 674 751
f 752 673 674
f 751 773 752
f 773 774 752
f 753 673 752
f 752 793 753
f 774 793 752
f 700 699 702
f 700 702 703
f 694 693 692
f 691 692 693
f 691 822 821
f 691 693 822
f 318 319 90
f 84 85 69
f 745 85 84
f 80 668 84
f 84 668 745
f 282 279 284
f 282 281 279
f 284 528 282
f 528 281 282
f 136 135 147
f 147 149 136
f 148 149 147
f 147 135 134
f 775 755 794
f 755 793 794
f 794 792 775
f 794 793 792
f 703 710 698
f 698 710 694
f 689 691 829
f 697 698 829
f 829 698 689
f 819 697 829
f 821 819 829
f 829 691 821
f 46 201 47
f 90 46 47
f 47 318 90
f 319 318 305
f 320 319 305
f 305 396 320
f 86 84 69
f 80 84 86
f 86 69 87
f 86 87 65
f 65 82 86
f 86 82 81
f 81 80 86
f 145 147 134
f 133 161 145
f 145 161 148
f 148 147 145
f 145 131 133
f 145 134 131
f 833 698 697
f 697 699 833
f 699 700 833
f 833 700 703
f 703 698 833
f 690 698 694
f 689 698 690
f 694 692 690
f 690 691 689
f 692 691 690
f 318 47 332
f 332 305 318
f 332 47 201
f 332 201 396
f 396 305 332
f 304 291 290
f 304 292 287
f 304 289 295
f 304 294 299
f 299 293 304
f 290 289 304
f 304 296 301
f 300 285 304
f 304 303 300
f 287 288 304
f 304 293 292
f 301 302 304
f 304 298 297
f 297 296 304
f 286 291 304
f 304 285 286
f 304 288 298
f 302 303 304

