# https://github.com/mikedh/trimesh
v 0.04810600 -0.04727978 -0.01106309
v 0.04948333 -0.04702218 -0.00990872
v 0.05211082 -0.04700341 -0.01291194
v 0.04825447 -0.04729442 -0.01124404
v 0.05863459 -0.04433465 -0.00221130
v 0.05717831 -0.04540914 -0.00744800
v 0.05646690 -0.04570358 -0.00834343
v 0.05366570 -0.04593801 -0.00569561
v 0.05438490 -0.04642655 -0.01072602
v 0.04948291 0.04736316 -0.00990886
v 0.04960190 0.04769555 -0.01290998
v 0.05178702 0.04737679 -0.01253560
v 0.05906071 0.04457812 -0.00263595
v 0.06008236 0.04429054 -0.00339630
v 0.05833082 0.04522215 -0.00591590
v 0.05581901 0.04529881 -0.00283167
v 0.05488005 0.04661456 -0.01019357
v 0.05211088 0.04734532 -0.01291242
v 0.05230488 0.04665781 -0.00716181
v 0.05732543 0.04568683 -0.00725835
v 0.05167810 0.04683745 -0.00782028
v 0.06757955 -0.01831299 0.02783214
v 0.06607138 -0.01860764 0.02876988
v 0.06853078 -0.01783668 0.02648679
v 0.06815942 -0.01809424 0.02719747
v 0.06839570 -0.02067382 0.02524597
v 0.06732925 -0.02294152 0.02567069
v 0.06697367 -0.02722106 0.02288781
v 0.06650187 -0.03106769 0.01954608
v 0.06701273 -0.03343411 0.01472366
v 0.06746930 -0.03082174 0.01775548
v 0.06505394 -0.03156974 0.02033479
v 0.06491820 -0.03255383 0.01931832
v 0.06593809 -0.03440665 0.01570945
v 0.06786025 -0.02765846 0.02071837
v 0.06530935 -0.02948541 0.02226243
v 0.06563331 -0.02612336 0.02483616
v 0.06549777 -0.02766654 0.02372911
v 0.05711710 -0.04446560 -0.00106187
v 0.06108662 -0.04243792 0.00214977
v 0.06164751 -0.04044942 0.00774318
v 0.06311240 -0.04015872 0.00668453
v 0.06332919 -0.03796815 0.01217481
v 0.06448942 -0.03499921 0.01646602
v 0.06476542 -0.03752704 0.01124563
v 0.06626324 -0.03580082 0.01150350
v 0.06008228 -0.04394867 -0.00339586
v 0.06281286 -0.04162244 0.00168703
v 0.06468235 -0.03903413 0.00639215
v 0.06556742 -0.03739440 0.00908021
v 0.06787674 0.02784551 0.02084584
v 0.06749387 0.03098536 0.01794132
v 0.06486090 0.03144021 0.02055680
v 0.06469800 0.03236982 0.01958321
v 0.06478319 0.03495996 0.01606158
v 0.06645112 0.03103548 0.01978191
v 0.06701291 0.03377600 0.01472337
v 0.06712372 0.03062358 0.01932552
v 0.06808574 0.02563903 0.02251802
v 0.06818349 0.02440364 0.02334329
v 0.06704402 0.02643205 0.02366969
v 0.06607137 0.01894962 0.02876967
v 0.06745605 0.02103177 0.02682406
v 0.06586786 0.02266778 0.02708043
v 0.06815639 0.01845478 0.02719468
v 0.06840573 0.02081819 0.02534324
v 0.06853072 0.01817863 0.02648659
v 0.06766320 0.02606311 0.02313416
v 0.06757426 0.01870210 0.02781861
v 0.06851016 0.01166540 0.02900125
v 0.06176788 0.04303606 -0.00049195
v 0.06079242 0.04299189 0.00179399
v 0.06282739 0.04085664 0.00575413
v 0.06353005 0.04108367 0.00336072
v 0.06414235 0.04022638 0.00491394
v 0.05732464 0.04445522 -0.00055537
v 0.06553484 0.03780239 0.00897483
v 0.06619229 0.03442748 0.01536072
v 0.06410186 0.03504203 0.01636578
v 0.06326582 0.03723964 0.01323033
v 0.06446406 0.03793167 0.01098473
v 0.06270646 0.04084504 0.00595243
v 0.06670845 0.03487332 0.01328963
v 0.06521790 0.03758514 0.01051898
v 0.06095068 0.04113312 0.00663425
v 0.06776738 0.00017086 0.03113675
v 0.06825018 0.00017075 0.03066806
v 0.06819269 -0.00451877 0.03052405
v 0.06876320 -0.00446771 0.02974570
v 0.06908387 -0.00542907 0.02882625
v 0.06910697 -0.00444561 0.02887927
v 0.06865626 0.00017071 0.03014087
v 0.06780431 -0.01381503 0.02921143
v 0.06838009 -0.01367002 0.02853546
v 0.06804318 -0.00919394 0.03006116
v 0.06621947 -0.01522849 0.02989213
v 0.06642981 -0.01090629 0.03087752
v 0.06861538 -0.00909944 0.02933129
v 0.06886104 -0.01120129 0.02821069
v 0.06869011 -0.01439409 0.02756798
v 0.06902850 -0.01688655 0.02510766
v 0.06893138 -0.01456222 0.02657709
v 0.06880218 -0.02158696 0.02304362
v 0.06957165 -0.02488788 0.01688284
v 0.06935085 -0.02260394 0.01992771
v 0.06919280 -0.02024810 0.02239632
v 0.06895751 -0.02508710 0.01934469
v 0.06966939 -0.02563581 0.01568199
v 0.06891436 -0.02817308 0.01599309
v 0.06867246 -0.03072593 0.01328527
v 0.06985880 -0.02678359 0.01353900
v 0.06816866 -0.02426619 0.02321163
v 0.07145467 -0.02982767 0.00052850
v 0.07088048 -0.02953329 0.00449517
v 0.07260206 -0.03308709 -0.02162390
v 0.07376325 -0.02744553 -0.01256495
v 0.07177271 -0.03055577 -0.00340414
v 0.07207797 -0.02962035 -0.00333716
v 0.07574356 -0.02171315 -0.02066424
v 0.07577458 -0.02209598 -0.02169874
v 0.07469214 -0.02507216 -0.01625980
v 0.07452089 -0.02774246 -0.02164451
v 0.07425088 -0.02619617 -0.01431544
v 0.07349937 -0.02778138 -0.01082865
v 0.06309286 -0.04229476 -0.00364829
v 0.06082944 -0.04443196 -0.01268469
v 0.07064641 -0.02923062 0.00627364
v 0.07040986 -0.02877194 0.00822182
v 0.06481467 -0.03913211 0.00560677
v 0.06730705 -0.03642679 0.00573415
v 0.06921478 -0.03327889 0.00574608
v 0.07030576 -0.03402686 -0.00335595
v 0.07057975 -0.02981982 0.00565856
v 0.06984951 -0.03782172 -0.02166449
v 0.06835881 -0.03721425 -0.00337883
v 0.06591702 -0.03999364 -0.00348306
v 0.06369442 -0.04340768 -0.02189427
v 0.06143136 -0.04460029 -0.02200253
v 0.07804670 -0.00561416 -0.02976042
v 0.07801942 -0.01102229 -0.03266026
v 0.07832005 -0.01652721 -0.04360938
v 0.07753529 -0.02215306 -0.04347670
v 0.07671584 -0.02242212 -0.03257035
v 0.07530556 -0.03043604 -0.04305194
v 0.07542145 -0.02800797 -0.03253968
v 0.07341840 -0.03329540 -0.03254429
v 0.07054001 -0.03799855 -0.03260650
v 0.07691898 -0.01625266 -0.02534626
v 0.07600299 -0.02070137 -0.02171331
v 0.06902850 0.01722848 0.02510749
v 0.06909809 0.01877337 0.02395909
v 0.06880217 0.02192888 0.02304339
v 0.06945150 0.02410616 0.01847931
v 0.06891436 0.02851494 0.01599280
v 0.06854973 0.03130343 0.01340176
v 0.06985916 0.02834985 0.01202235
v 0.06970325 0.02620837 0.01528357
v 0.06925654 0.02163254 0.02137291
v 0.06895752 0.02542898 0.01934445
v 0.06890368 0.01399086 0.02707467
v 0.06816415 0.00602794 0.03044112
v 0.06873504 0.00596670 0.02967311
v 0.06915337 0.00152239 0.02897315
v 0.06910694 0.00478856 0.02887917
v 0.06908408 0.00576264 0.02882672
v 0.06906657 0.00641242 0.02878454
v 0.06666210 0.00017101 0.03184425
v 0.06660381 0.00577588 0.03160366
v 0.06645330 0.01069400 0.03097503
v 0.06793673 0.01177931 0.02970518
v 0.06639951 0.01192869 0.03074964
v 0.07916136 0.00017083 -0.04377144
v 0.06984951 0.03816319 -0.02166488
v 0.06719134 0.04200012 -0.03834940
v 0.07054000 0.03833991 -0.03260688
v 0.07197969 0.03708149 -0.04237188
v 0.07412332 0.03347472 -0.04281419
v 0.07523967 0.03094852 -0.04303820
v 0.07650799 0.02710612 -0.04328741
v 0.07750166 0.02267419 -0.04347158
v 0.07341840 0.03363675 -0.03254464
v 0.07542145 0.02834933 -0.03253997
v 0.07600299 0.02104283 -0.02171353
v 0.07671585 0.02276347 -0.03257059
v 0.07691897 0.01659409 -0.02534644
v 0.07801941 0.01136365 -0.03266038
v 0.07761420 0.01150329 -0.02807064
v 0.07804669 0.00595555 -0.02976050
v 0.07890104 0.00982107 -0.04371601
v 0.07879841 0.01145479 -0.04369662
v 0.07827366 0.01728539 -0.04360392
v 0.06921479 0.03362064 0.00574573
v 0.07030577 0.03436853 -0.00335632
v 0.07529919 0.02360561 -0.01883851
v 0.07002251 0.02789197 0.01182267
v 0.07064641 0.02957236 0.00627333
v 0.07057975 0.03016157 0.00565825
v 0.06626763 0.03612948 0.01152016
v 0.06309287 0.04263641 -0.00364873
v 0.06143136 0.04494175 -0.02200300
v 0.06591701 0.04033530 -0.00348346
v 0.06835882 0.03755589 -0.00337923
v 0.06889543 0.03936164 -0.02169050
v 0.07426316 0.02896841 -0.02163842
v 0.07089563 0.02989036 0.00438364
v 0.07145467 0.03016936 0.00052820
v 0.07177271 0.03089743 -0.00340445
v 0.07168548 0.03014721 -0.00095063
v 0.07261273 0.03136664 -0.01251302
v 0.07041531 0.02912635 0.00817463
v 0.07109571 0.03479787 -0.01249802
v 0.06481468 0.03947386 0.00560638
v 0.06730705 0.03676852 0.00573379
v 0.07193036 0.03481139 -0.02162839
v 0.07260206 0.03342856 -0.02162423
v 0.07376325 0.02778709 -0.01256523
v 0.07380046 0.02753653 -0.01225670
v 0.07455738 0.02577279 -0.01567292
v 0.06928778 -0.00419495 0.02803670
v 0.06915324 -0.00119671 0.02897299
v 0.06925192 0.00017099 0.02852219
v 0.06915858 0.00017099 0.02898054
v 0.06975707 -0.01498346 0.02234719
v 0.06961098 -0.01044196 0.02482888
v 0.06954606 -0.00700663 0.02602861
v 0.06906407 -0.00615792 0.02877844
v 0.06914756 -0.00860156 0.02783221
v 0.06937460 -0.00827711 0.02678709
v 0.06917468 -0.01992585 0.02269270
v 0.06990279 -0.01784256 0.02011525
v 0.07009644 -0.02037072 0.01752345
v 0.07034473 -0.02252647 0.01462644
v 0.07074628 -0.02463901 0.01065297
v 0.07182111 -0.02834313 0.00057408
v 0.07207874 -0.02682259 0.00059548
v 0.07161639 -0.02657387 0.00370556
v 0.07002252 -0.02755017 0.01182293
v 0.07114536 -0.02584004 0.00724125
v 0.07134102 -0.02621615 0.00572011
v 0.07501201 -0.02416061 -0.01763216
v 0.07578728 -0.02058096 -0.01961515
v 0.07274080 -0.02788550 -0.00501490
v 0.07294298 -0.02641453 -0.00470887
v 0.07265376 -0.02665936 -0.00301923
v 0.07450390 -0.02358826 -0.01282661
v 0.07376242 -0.02636405 -0.01040156
v 0.07393385 -0.02489870 -0.01002494
v 0.07327786 -0.02601449 -0.00658021
v 0.07487655 -0.02255460 -0.01457934
v 0.07579385 -0.01932099 -0.01868238
v 0.07597694 -0.01853709 -0.01946695
v 0.07242952 -0.02932059 -0.00533798
v 0.07276511 -0.02893407 -0.00714047
v 0.07482523 -0.02382292 -0.01542041
v 0.07819521 0.00017068 -0.03033323
v 0.07780846 0.00017071 -0.02699913
v 0.07777637 -0.00244510 -0.02687243
v 0.07768421 -0.00498859 -0.02650155
v 0.07761420 -0.01116189 -0.02807052
v 0.07736927 -0.00942721 -0.02523543
v 0.07699723 -0.01270996 -0.02372861
v 0.07673492 -0.01451782 -0.02265376
v 0.07074634 0.02498052 0.01065261
v 0.07134107 0.02655768 0.00571979
v 0.07154948 0.02684483 0.00418269
v 0.07207876 0.02716417 0.00059520
v 0.06975710 0.01532526 0.02234687
v 0.07041573 0.02333906 0.01386785
v 0.06979635 0.01622637 0.02170867
v 0.06994630 0.01884636 0.01950154
v 0.07015351 0.02129182 0.01682030
v 0.06915838 0.00032489 0.02898083
v 0.06949615 0.00172937 0.02695550
v 0.06928777 0.00453692 0.02803665
v 0.06937460 0.00861908 0.02678699
v 0.06886102 0.01154326 0.02821058
v 0.06914736 0.00894380 0.02783296
v 0.06964717 0.01218543 0.02418193
v 0.06957057 0.00883508 0.02557226
v 0.06952047 0.00532748 0.02650428
v 0.06949418 0.00017098 0.02700022
v 0.06950688 -0.00345938 0.02675639
v 0.07341390 -0.01080169 0.00010881
v 0.07281376 -0.01997138 0.00032735
v 0.07063846 -0.02418938 0.01164511
v 0.06970508 -0.01366602 0.02318645
v 0.07516529 -0.02165030 -0.01590071
v 0.07652632 -0.01577112 -0.02179022
v 0.07763100 -0.00598613 -0.02628781
v 0.07774913 0.00373752 -0.02676273
v 0.07768422 0.00533000 -0.02650161
v 0.07757343 0.00724276 -0.02605672
v 0.07728463 0.01062210 -0.02489419
v 0.07689177 0.01381496 -0.02329799
v 0.07597694 0.01887859 -0.01946716
v 0.07640547 0.01678008 -0.02128619
v 0.07673492 0.01485927 -0.02265393
v 0.07182116 0.02868482 0.00057378
v 0.07376242 0.02670561 -0.01040184
v 0.07305288 0.02887214 -0.00862426
v 0.07274082 0.02822713 -0.00501517
v 0.07233695 0.02975212 -0.00482388
v 0.07353260 0.02806141 -0.01098877
v 0.07578729 0.02092244 -0.01961535
v 0.07536367 0.02131364 -0.01679217
v 0.07482522 0.02416444 -0.01542065
v 0.07471268 0.02336864 -0.01381575
v 0.07404569 0.02500808 -0.01058752
v 0.07224888 0.02716555 -0.00051802
v 0.07284380 0.02685107 -0.00413789
v 0.07294299 0.02675608 -0.00470912
v 0.07348203 0.02605467 -0.00768159
v 0.07298333 0.01826871 0.00026541
v 0.07328167 0.01379215 0.00015684
v 0.07328090 0.01380589 0.00015710
v 0.07349274 0.00915417 0.00008000
v 0.07108759 0.02604743 0.00770673
v 0.02535557 -0.04460953 -0.12389496
v 0.07061611 0.03305399 -0.12390275
v 0.06907383 0.03482919 -0.12390251
v 0.05236800 0.04212165 -0.12389986
v 0.03087368 0.04468501 -0.12389641
v 0.02535917 0.04495103 -0.12389553
v 0.02535917 -0.04460956 -0.12389495
v 0.05584285 -0.04109374 -0.12389991
v 0.06163712 -0.03930156 -0.12390085
v 0.07539625 -0.02126667 -0.12390317
v 0.07184740 -0.03090567 -0.12390254
v 0.07464132 0.02465915 -0.12390335
v 0.07288759 0.02932139 -0.12390310
v 0.04787638 -0.04239256 -0.12389860
v 0.03087368 -0.04434354 -0.12389585
v 0.07669164 0.01160216 -0.12390360
v 0.07589796 0.01886382 -0.12390351
v 0.07640316 -0.01463794 -0.12390339
v 0.07703114 0.00017045 -0.12390357
v 0.03495792 -0.04802272 -0.01157138
v 0.03497716 -0.04728027 -0.00500269
v 0.04330895 -0.04792424 -0.01437158
v 0.03120350 -0.04481473 -0.12340313
v 0.07752550 0.00017046 -0.12347879
v 0.07752185 -0.00117269 -0.12347908
v 0.07751052 -0.00251581 -0.12347909
v 0.07694608 -0.00595109 -0.12390353
v 0.04956539 -0.04269384 -0.12344863
v 0.05337823 -0.04210877 -0.12344962
v 0.06568426 -0.03722704 -0.12390152
v 0.06595252 -0.03764496 -0.12346112
v 0.06391608 -0.03880934 -0.12345787
v 0.06059832 -0.04023201 -0.12345593
v 0.05712036 -0.04129436 -0.12345272
v 0.06877025 -0.03547382 -0.12346488
v 0.06922053 -0.03433681 -0.12390210
v 0.07306391 -0.02973984 -0.12347033
v 0.07227058 -0.03116220 -0.12347044
v 0.07147171 -0.03238383 -0.12346985
v 0.06993998 -0.03429552 -0.12346539
v 0.07439123 -0.02668103 -0.12347271
v 0.07346951 -0.02891042 -0.12347063
v 0.07651673 -0.01775235 -0.12347417
v 0.07392637 -0.02651120 -0.12390291
v 0.07594208 -0.02107373 -0.12347405
v 0.07746173 -0.00520173 -0.12347827
v 0.07723214 -0.01057026 -0.12347741
v 0.07714710 -0.01181807 -0.12347782
v 0.06348842 0.03880874 -0.12390164
v 0.07752191 0.00150377 -0.12347911
v 0.07746276 0.00550267 -0.12347837
v 0.07751075 0.00283699 -0.12347914
v 0.07675993 0.01624057 -0.12347627
v 0.07612505 0.02047616 -0.12347401
v 0.07638838 0.01894152 -0.12347388
v 0.07512504 0.02476572 -0.12347441
v 0.07115438 0.03316302 -0.12346938
v 0.07277577 0.03062581 -0.12347071
v 0.07091500 0.03347756 -0.12346856
v 0.06994016 0.03463677 -0.12346583
v 0.06732472 0.03640036 -0.12390223
v 0.06371006 0.03925439 -0.12345813
v 0.06579659 0.03808561 -0.12346128
v 0.06267811 0.03974000 -0.12345725
v 0.05907287 0.04108340 -0.12345562
v 0.05566061 0.04198751 -0.12345111
v 0.05906998 0.04056462 -0.12390094
v 0.05036695 0.04292880 -0.12344976
v 0.05245006 0.04261212 -0.12345028
v 0.02535639 0.04545100 -0.12339166
v 0.03094461 0.04518523 -0.12340292
v 0.02766873 0.04542383 -0.12340137
v 0.03093115 0.04518669 -0.12340289
v 0.03646172 0.04873681 -0.01762895
v 0.04067495 0.04849773 -0.01580078
v 0.03495793 0.04836429 -0.01157184
v 0.04458088 0.04812654 -0.01359089
v 0.04810601 0.04762135 -0.01106359
v 0.03497716 0.04762154 -0.00500316
v 0.03497116 0.04643778 0.00214233
v 0.03495629 0.04481145 0.00916833
v 0.05691523 0.04470582 -0.00120502
v 0.05448223 0.04589837 -0.00462090
v 0.03494829 0.04311832 0.01470358
v 0.05925105 0.04299778 0.00288404
v 0.03494972 0.04359328 0.01328202
v 0.02571217 0.04545285 -0.12339608
v 0.07711665 0.02738212 -0.06308186
v 0.08016039 0.00017133 -0.07603986
v 0.08000083 0.00017140 -0.09012634
v 0.07981075 0.01063087 -0.08363253
v 0.04677654 0.04532656 -0.10211384
v 0.05218382 0.04462282 -0.10241953
v 0.06210884 0.04109257 -0.11350840
v 0.06894088 0.03565570 -0.12346528
v 0.06684443 0.03865920 -0.11363743
v 0.06665426 0.03751616 -0.12346308
v 0.07389788 0.03083339 -0.11381556
v 0.07401653 0.02799513 -0.12347205
v 0.07333450 0.02953674 -0.12347086
v 0.07087918 0.03520117 -0.11374059
v 0.07596920 0.02128152 -0.12347428
v 0.07591715 0.02592503 -0.11386586
v 0.07723757 0.01082481 -0.12347752
v 0.07718695 0.02077558 -0.11389632
v 0.07839896 0.01025151 -0.11392791
v 0.07966734 0.01078781 -0.06341160
v 0.07761490 0.02202602 -0.04349071
v 0.07839486 0.02191461 -0.06325093
v 0.07211820 0.03739944 -0.06234555
v 0.07373687 0.03509755 -0.06258901
v 0.07373842 0.03422320 -0.04273573
v 0.06812662 0.04132963 -0.06172445
v 0.06974003 0.03979402 -0.04190150
v 0.07110341 0.03824273 -0.04218866
v 0.06334457 0.04420195 -0.06094109
v 0.06142957 0.04533538 -0.04005608
v 0.05810611 0.04607071 -0.06005665
v 0.05815184 0.04644566 -0.03931672
v 0.05267322 0.04728503 -0.05914131
v 0.05434866 0.04736971 -0.03847135
v 0.05354198 0.04753300 -0.03829345
v 0.03376760 0.04907939 -0.04398788
v 0.03431490 0.04911655 -0.03675843
v 0.03591152 0.04906746 -0.04509316
v 0.03444924 0.04910221 -0.03419678
v 0.04797295 0.04840069 -0.03707433
v 0.04714681 0.04808713 -0.05821988
v 0.04472243 0.04873095 -0.03637195
v 0.04156195 0.04857424 -0.05729956
v 0.04126103 0.04896278 -0.03563134
v 0.03593761 0.04880297 -0.05638524
v 0.03283913 0.04895848 -0.05103348
v 0.03351435 0.04905233 -0.04634321
v 0.03593455 0.04769462 -0.07896036
v 0.02818226 0.04846433 -0.06340591
v 0.02566689 0.04818265 -0.06773960
v 0.02591673 0.04823041 -0.06690528
v 0.02675370 0.04833713 -0.06522793
v 0.02961690 0.04859026 -0.06125973
v 0.03070083 0.04869803 -0.05897056
v 0.03181301 0.04882421 -0.05566186
v 0.06808607 0.04050026 -0.08250761
v 0.06581319 0.04290070 -0.06135001
v 0.07024079 0.03948933 -0.06205738
v 0.07022978 0.03874147 -0.08272900
v 0.07213991 0.03672878 -0.08292069
v 0.07378900 0.03449594 -0.08308273
v 0.07517315 0.03209050 -0.08321681
v 0.07509632 0.03263110 -0.06279036
v 0.07722586 0.02694757 -0.08341118
v 0.07852740 0.02157707 -0.08352425
v 0.07932787 0.01611904 -0.08358851
v 0.07998945 0.00017116 -0.06346256
v 0.04710446 0.04696225 -0.08017907
v 0.05261488 0.04618796 -0.08079118
v 0.05803528 0.04501706 -0.08139929
v 0.06327149 0.04322714 -0.08198696
v 0.06441905 0.04390150 -0.04073158
v 0.05751225 0.04353811 -0.10272308
v 0.05701901 0.04268898 -0.11336322
v 0.06267437 0.04186983 -0.10301639
v 0.07317105 0.03361902 -0.10356499
v 0.07455645 0.03129604 -0.10363263
v 0.07660034 0.02630210 -0.10373131
v 0.07941736 0.00017123 -0.10407665
v 0.07914194 0.01039202 -0.10384714
v 0.07852328 0.00017087 -0.11542511
v 0.07868023 0.01574860 -0.10382351
v 0.07789171 0.02107157 -0.10378961
v 0.06745730 0.03933125 -0.10327654
v 0.06960133 0.03767540 -0.10338736
v 0.07151692 0.03576136 -0.10348350
v 0.02544424 0.04808651 -0.06960085
v 0.06627546 0.04193179 -0.02178053
v 0.05430325 0.04738198 -0.03695738
v 0.06049011 0.04567880 -0.03666877
v 0.06486646 0.04357921 -0.03647281
v 0.06031155 0.04568105 -0.03186899
v 0.06466628 0.04356692 -0.03167025
v 0.06446946 0.04326189 -0.02185921
v 0.05976061 0.04564225 -0.02208673
v 0.05412840 0.04739600 -0.03215567
v 0.05803646 0.04624045 -0.02217555
v 0.04194628 0.04873938 -0.02304369
v 0.03466728 0.04904915 -0.02865994
v 0.04456205 0.04872541 -0.03260094
v 0.03446481 0.04910029 -0.03386366
v 0.04408110 0.04859423 -0.02292558
v 0.06731892 0.04197429 -0.04138263
v 0.03480624 0.04895098 -0.02345619
v 0.03486579 0.04885456 -0.02029885
v 0.03489711 0.04879000 -0.01818388
v 0.03494664 0.04090756 0.02034927
v 0.03494667 0.04168125 0.01853250
v 0.02724005 0.04838277 -0.06456334
v 0.04406551 0.04849413 -0.01853601
v 0.04348261 0.04844731 -0.01681872
v 0.04203293 0.04852710 -0.01698536
v 0.04322441 0.04843052 -0.01634252
v 0.04229121 0.04854351 -0.01746156
v 0.04000360 0.04877063 -0.02050705
v 0.05060938 0.04764132 -0.01417443
v 0.04802651 0.04805241 -0.01610067
v 0.05436243 0.04719792 -0.02237028
v 0.04890574 0.04810340 -0.02266410
v 0.05447921 0.04690425 -0.01296029
v 0.05780815 0.04598874 -0.01278071
v 0.06082542 0.04477157 -0.01262934
v 0.03494713 -0.02261944 0.04121919
v 0.06588097 -0.02247770 0.02701808
v 0.03494708 -0.02599493 0.03909278
v 0.03494707 -0.02672995 0.03855669
v 0.03494705 -0.02791765 0.03762867
v 0.03494700 -0.02980921 0.03598068
v 0.03494693 -0.03262619 0.03307161
v 0.04690566 -0.04747422 -0.01198879
v 0.04960189 -0.04735400 -0.01290948
v 0.04322442 -0.04808899 -0.01634203
v 0.04348260 -0.04810580 -0.01681821
v 0.05060938 -0.04729977 -0.01417395
v 0.04309156 -0.04823327 -0.01905220
v 0.04229119 -0.04820200 -0.01746102
v 0.03889225 -0.04847858 -0.02096692
v 0.04203293 -0.04818558 -0.01698488
v 0.03489711 -0.04844887 -0.01818336
v 0.03929583 -0.04825102 -0.01645629
v 0.04698807 -0.04784668 -0.01679468
v 0.03480624 -0.04860990 -0.02345568
v 0.04206547 -0.04839091 -0.02303655
v 0.04858420 -0.04780232 -0.02268092
v 0.05448385 -0.04656499 -0.01301557
v 0.05781244 -0.04564924 -0.01283605
v 0.05976061 -0.04530079 -0.02208625
v 0.05773734 -0.04599173 -0.02219068
v 0.05373607 -0.04698619 -0.02240345
v 0.06466642 -0.04322549 -0.03166980
v 0.06627547 -0.04159033 -0.02178011
v 0.05430325 -0.04704067 -0.03695689
v 0.05788066 -0.04617915 -0.03925831
v 0.06058445 -0.04532167 -0.03986518
v 0.06049012 -0.04533748 -0.03666833
v 0.06162039 -0.04491729 -0.04009777
v 0.04456205 -0.04838406 -0.03260044
v 0.05412840 -0.04705464 -0.03215518
v 0.03446481 -0.04875896 -0.03386319
v 0.03444925 -0.04876075 -0.03419628
v 0.03937867 -0.04870120 -0.03523105
v 0.04472242 -0.04839009 -0.03637112
v 0.03466728 -0.04870774 -0.02865943
v 0.06031155 -0.04533968 -0.03186851
v 0.04408110 -0.04825277 -0.02292510
v 0.04650250 -0.04822385 -0.03675497
v 0.05268368 -0.04735556 -0.03810401
v 0.06486659 -0.04323781 -0.03647233
v 0.06455680 -0.04348204 -0.04076218
v 0.06686322 -0.04167439 -0.03157752
v 0.03494671 0.03926682 0.02375269
v 0.03494677 0.03796235 0.02610521
v 0.03494681 0.03685595 0.02789906
v 0.03494690 0.03417335 0.03163083
v 0.03494698 0.03119386 0.03497226
v 0.03494715 0.02111906 0.04217511
v 0.03494711 0.02463939 0.04022721
v 0.06557398 0.02617242 0.02496541
v 0.03494705 0.02790218 0.03791604
v 0.06517991 0.02941184 0.02245943
v 0.02535639 -0.04511005 -0.12339107
v 0.02544424 -0.04774538 -0.06960033
v 0.02548800 -0.04778565 -0.06877772
v 0.02590070 -0.04788571 -0.06694972
v 0.02623495 -0.04793483 -0.06614552
v 0.02724006 -0.04804153 -0.06456283
v 0.02754603 -0.04806844 -0.06418697
v 0.02818228 -0.04812225 -0.06340539
v 0.03376760 -0.04873818 -0.04398738
v 0.03308528 -0.04865073 -0.04953267
v 0.03250351 -0.04857042 -0.05279179
v 0.03161633 -0.04845838 -0.05634308
v 0.03431490 -0.04877420 -0.03675793
v 0.03494819 -0.04272600 0.01483954
v 0.03495629 -0.04446500 0.00916752
v 0.03497116 -0.04609711 0.00214330
v 0.03494663 -0.04057502 0.02032866
v 0.03494663 -0.04056634 0.02034970
v 0.03494718 -0.01865574 0.04311823
v 0.03494686 -0.03518989 0.02984083
v 0.03494674 -0.03849142 0.02456593
v 0.03494683 -0.03612597 0.02849018
v 0.03494721 -0.01436419 0.04457954
v 0.03494722 -0.01231900 0.04510363
v 0.03494724 -0.00974660 0.04562965
v 0.03494725 -0.00487325 0.04626811
v 0.03494726 0.00017098 0.04648477
v 0.03494726 0.00469253 0.04631081
v 0.03494724 0.00905610 0.04580242
v 0.03494722 0.01324085 0.04496498
v 0.03494718 0.01899766 0.04311799
v 0.03494719 0.01722310 0.04378744
v 0.05069523 -0.00530426 0.03895982
v 0.06660420 -0.00541503 0.03160537
v 0.05070701 -0.01230236 0.03783292
v 0.05069525 0.00564611 0.03895976
v 0.05070704 0.01264421 0.03783282
v 0.02982546 -0.04495212 -0.12340065
v 0.07211798 -0.03705763 -0.06234417
v 0.03591145 -0.04872521 -0.04509149
v 0.04714667 -0.04774505 -0.05821834
v 0.05810589 -0.04572869 -0.06005513
v 0.05267305 -0.04694298 -0.05913978
v 0.06731891 -0.04163261 -0.04138219
v 0.06581295 -0.04255877 -0.06134855
v 0.06812639 -0.04098773 -0.06172302
v 0.06777261 -0.04127086 -0.04148087
v 0.07024056 -0.03914748 -0.06205599
v 0.07205994 -0.03662772 -0.04239045
v 0.07110373 -0.03790168 -0.04219127
v 0.07005613 -0.03911734 -0.04197069
v 0.07373668 -0.03475578 -0.06258767
v 0.07412387 -0.03313352 -0.04281390
v 0.07380647 -0.03375505 -0.04274936
v 0.07711652 -0.02704044 -0.06308062
v 0.07655523 -0.02659186 -0.04329706
v 0.07966728 -0.01044627 -0.06341054
v 0.07990225 0.00017109 -0.06029854
v 0.07839477 -0.02157297 -0.06324975
v 0.07883995 -0.01049307 -0.04370422
v 0.07891916 -0.00914572 -0.04371954
v 0.07839898 -0.00991044 -0.11392728
v 0.07591707 -0.02558384 -0.11386507
v 0.07486761 -0.02527820 -0.12347375
v 0.07718693 -0.02043444 -0.11389559
v 0.07389775 -0.03049216 -0.11381472
v 0.06648572 -0.03729135 -0.12346224
v 0.07087900 -0.03485985 -0.11373968
v 0.06956925 -0.03469145 -0.12346493
v 0.06210864 -0.04075113 -0.11350741
v 0.06684424 -0.03831781 -0.11363648
v 0.05177545 -0.04337803 -0.11321202
v 0.05701884 -0.04234751 -0.11336224
v 0.04677642 -0.04498494 -0.10211270
v 0.02936444 -0.04822478 -0.06169927
v 0.03052131 -0.04833714 -0.05940092
v 0.06327128 -0.04288539 -0.08198568
v 0.05803509 -0.04467528 -0.08139798
v 0.06334433 -0.04385998 -0.06093963
v 0.03593754 -0.04846086 -0.05638368
v 0.03593449 -0.04735276 -0.07895900
v 0.04156184 -0.04823214 -0.05729800
v 0.04710433 -0.04662042 -0.08017775
v 0.07981073 -0.01028951 -0.08363164
v 0.07932784 -0.01577765 -0.08358756
v 0.06808584 -0.04015858 -0.08250637
v 0.07022956 -0.03839983 -0.08272777
v 0.07213971 -0.03638719 -0.08291949
v 0.07378882 -0.03415439 -0.08308157
v 0.07509615 -0.03228936 -0.06278905
v 0.07517300 -0.03174898 -0.08321568
v 0.07722574 -0.02660610 -0.08341011
v 0.07914194 -0.01005085 -0.10384641
v 0.07868021 -0.01540739 -0.10382275
v 0.07789166 -0.02073034 -0.10378878
v 0.07660025 -0.02596083 -0.10373043
v 0.07455631 -0.03095471 -0.10363169
v 0.04646255 -0.04403545 -0.11306067
v 0.05218368 -0.04428121 -0.10241842
v 0.05751207 -0.04319654 -0.10272198
v 0.06267419 -0.04152829 -0.10301531
v 0.06745709 -0.03898978 -0.10327549
v 0.06960113 -0.03733395 -0.10338634
v 0.07317089 -0.03327766 -0.10356401
v 0.05261471 -0.04584614 -0.08078986
v 0.07151674 -0.03541996 -0.10348251
v 0.07852732 -0.02123564 -0.08352324
v 0.05958888 -0.04260179 0.00329977
v 0.04426261 -0.02299612 -0.12412407
v 0.04934727 -0.01752528 -0.12412408
v 0.05292291 -0.01096794 -0.12412408
v 0.05476791 -0.00373055 -0.12412407
v 0.05476791 0.00373832 -0.12412407
v 0.05292291 0.01097570 -0.12412407
v 0.04934727 0.01753304 -0.12412407
v 0.04426261 0.02300388 -0.12412407
v 0.00573989 -0.02299611 -0.12412407
v 0.00573989 0.02300388 -0.12412407
v 0.00065523 0.01753303 -0.12412407
v -0.00292041 0.01097571 -0.12412407
v -0.00476541 0.00373831 -0.12412407
v -0.00476541 -0.00373055 -0.12412407
v -0.00292041 -0.01096793 -0.12412407
v 0.00065523 -0.01752529 -0.12412407
v 0.01350614 0.02300396 -0.12412407
v -0.01352146 0.02258500 -0.07310196
v -0.01702715 0.01440871 -0.07310182
v -0.01881653 0.00569438 -0.07310171
v -0.01881645 -0.00320178 -0.07310168
v -0.01702691 -0.01191610 -0.07310168
v -0.01352107 -0.02009231 -0.07310174
v 0.01513243 -0.04644041 -0.08047650
v 0.01690251 -0.04662183 -0.08038252
v 0.01885219 -0.04678748 -0.08038308
v 0.02102547 -0.04693928 -0.08038277
v 0.01330474 -0.04621307 -0.08085176
v 0.01267343 -0.04612504 -0.08105263
v 0.02189039 -0.04443877 -0.12389440
v 0.01929658 -0.04464024 -0.12340014
v 0.02435510 -0.04508689 -0.12338971
v 0.02118885 -0.04487434 -0.12339607
v -0.02631885 0.00017000 -0.12333451
v -0.02627189 -0.00466467 -0.12333474
v -0.01137777 -0.03822568 -0.12388911
v -0.01062812 -0.03909948 -0.12340641
v -0.01110917 -0.03889395 -0.12340534
v -0.00965682 -0.03948540 -0.12340929
v -0.00783252 -0.03959462 -0.12388966
v -0.01398044 -0.03683809 -0.12388869
v -0.01295486 -0.03800216 -0.12340003
v -0.01413385 -0.03674254 -0.12388868
v -0.01440032 -0.03716553 -0.12339440
v -0.01564359 -0.03632282 -0.12339819
v -0.01586815 -0.03553624 -0.12388840
v -0.01698503 -0.03525364 -0.12338606
v -0.01628382 -0.03519992 -0.12388833
v -0.01854615 -0.03373348 -0.12336865
v -0.01994323 -0.03203010 -0.12336150
v -0.01789239 -0.03369415 -0.12388809
v -0.01933123 -0.03200700 -0.12388786
v -0.02088497 -0.03062911 -0.12336192
v -0.02070734 -0.02996037 -0.12388765
v -0.02185203 -0.02775114 -0.12388749
v -0.02199396 -0.02861085 -0.12335919
v -0.02283588 -0.02527715 -0.12388733
v -0.02395643 -0.02138569 -0.12388717
v -0.02440710 -0.02164317 -0.12334213
v -0.02440879 -0.02163607 -0.12334214
v -0.02392614 -0.02151364 -0.12388718
v -0.02440964 -0.02163253 -0.12334216
v -0.02389304 -0.02164997 -0.12388718
v -0.02391800 -0.02154733 -0.12388717
v -0.02439693 -0.02168570 -0.12334203
v -0.02440371 -0.02165734 -0.12334210
v -0.02379104 -0.02206001 -0.12388720
v -0.02438330 -0.02174238 -0.12334193
v -0.02418487 -0.02253406 -0.12334114
v -0.02430001 -0.02208214 -0.12334140
v -0.02435582 -0.02185570 -0.12334171
v -0.02244681 -0.02763460 -0.12335577
v -0.02323159 -0.02565521 -0.12334768
v -0.02338664 -0.02521013 -0.12334613
v -0.02334464 -0.02369043 -0.12388726
v -0.02393991 -0.02343364 -0.12334178
v -0.02550182 -0.01550035 -0.12333710
v -0.02527938 -0.01709393 -0.12333743
v -0.02479870 -0.01693936 -0.12388706
v -0.02454998 -0.01847482 -0.12388709
v -0.02441048 -0.02162900 -0.12334216
v -0.02473532 -0.02016333 -0.12334069
v -0.02504013 -0.01856080 -0.12333935
v -0.02573137 -0.00613274 -0.12388697
v -0.02566761 -0.00761755 -0.12388697
v -0.02622802 -0.00615099 -0.12333474
v -0.02561183 -0.00868875 -0.12388697
v -0.02522827 -0.01354793 -0.12388702
v -0.02516124 -0.01416564 -0.12388701
v -0.02560125 -0.01469193 -0.12333712
v -0.02501291 -0.01539949 -0.12388704
v -0.00768738 -0.04016466 -0.12341535
v -0.00451546 -0.04102904 -0.12342147
v -0.00370856 -0.04070194 -0.12389032
v -0.00369284 -0.04121666 -0.12342221
v 0.00253954 -0.04178639 -0.12389131
v 0.02103875 0.04519868 -0.12339685
v 0.02293299 0.04485790 -0.12389502
v 0.02435509 0.04542688 -0.12339018
v 0.02435434 0.04492664 -0.12389389
v 0.01933088 0.04498518 -0.12340053
v 0.01801316 0.04426732 -0.12389424
v 0.00384055 0.04279222 -0.12343216
v -0.02622802 0.00649097 -0.12333482
v -0.02573137 0.00647272 -0.12388703
v -0.02631547 0.00165692 -0.12333445
v -0.02582208 0.00016999 -0.12388721
v -0.02096797 0.02984611 -0.12388792
v -0.02199255 0.02777627 -0.12388774
v -0.02285577 0.02555971 -0.12388759
v -0.02403791 0.02342324 -0.12334160
v -0.02343130 0.02373317 -0.12388749
v -0.02358033 0.02320106 -0.12388746
v -0.02441048 0.02196897 -0.12334239
v -0.02392614 0.02185361 -0.12388740
v -0.02193441 0.02907178 -0.12335984
v -0.02120889 0.03042664 -0.12336218
v -0.02064334 0.03040809 -0.12388796
v -0.02023615 0.03106155 -0.12388804
v -0.02107081 0.03066217 -0.12336226
v -0.01414104 0.03707812 -0.12388904
v -0.01416258 0.03706492 -0.12388905
v -0.01895066 0.03283082 -0.12388825
v -0.01995668 0.03235170 -0.12336181
v -0.01853348 0.03408724 -0.12336911
v -0.01783799 0.03480536 -0.12337643
v -0.01750510 0.03442903 -0.12388849
v -0.01653391 0.03532781 -0.12388866
v -0.01685626 0.03570469 -0.12338791
v -0.01620128 0.03624083 -0.12339479
v -0.01458944 0.03679442 -0.12388898
v -0.01424856 0.03701180 -0.12388903
v -0.01440032 0.03750552 -0.12339477
v -0.01137963 0.03856479 -0.12388949
v -0.01422224 0.03761626 -0.12339552
v -0.01413430 0.03708224 -0.12388904
v -0.00709431 0.04068565 -0.12341735
v -0.00741750 0.04058826 -0.12341650
v -0.00703763 0.04018213 -0.12389021
v -0.00739302 0.04007377 -0.12389015
v -0.00810061 0.03984678 -0.12389003
v -0.01022045 0.03960598 -0.12340795
v -0.01158659 0.03901966 -0.12340507
v -0.01137777 0.03856565 -0.12388949
v -0.00343700 0.04110147 -0.12389079
v -0.00632393 0.04038911 -0.12389032
v -0.00452238 0.04136739 -0.12342188
v -0.00392788 0.04150436 -0.12342241
v -0.00244492 0.04181744 -0.12342393
v 0.00059946 0.04184682 -0.12389144
v -0.00016479 0.04222935 -0.12342770
v 0.00242541 0.04211111 -0.12389172
v -0.02454998 0.01881478 -0.12388729
v -0.02504013 0.01890079 -0.12333956
v -0.02561830 0.01488600 -0.12333726
v -0.02457296 0.01868198 -0.12388729
v -0.02616365 0.00801595 -0.12333382
v -0.02609992 0.00921688 -0.12333441
v -0.02539050 0.01217964 -0.12388711
v -0.02570496 0.01410619 -0.12333724
v 0.02435435 -0.04458667 -0.12389344
v 0.01929905 -0.04413538 -0.12389399
v -0.02506244 0.00017001 -0.11272363
v -0.02541489 -0.00303639 -0.11561979
v -0.02436445 -0.00307170 -0.10777313
v -0.02306390 -0.00438812 -0.09943802
v -0.02300729 -0.00635941 -0.09940795
v -0.02353130 0.00017008 -0.10211340
v -0.02315535 -0.00309470 -0.09987760
v -0.02307740 -0.00635773 -0.09983687
v -0.02428784 -0.00631177 -0.10774536
v -0.02475044 -0.00628472 -0.11106654
v 0.00232638 -0.04226068 -0.12343027
v 0.00147345 -0.04384488 -0.08671632
v 0.00343664 -0.04426827 -0.09033793
v -0.00853224 -0.04000448 -0.09189877
v -0.02533959 -0.00624114 -0.11560488
v -0.02594313 -0.01118206 -0.12333599
v -0.02415274 -0.01501392 -0.11117630
v -0.02281173 -0.01019994 -0.09930469
v -0.02206794 -0.01738351 -0.09891665
v -0.02250388 -0.01387567 -0.09914380
v -0.02169039 -0.01981003 -0.09887822
v -0.02148471 -0.02071885 -0.09861331
v -0.02036352 -0.02511903 -0.09803098
v -0.02072654 -0.02437634 -0.09903692
v -0.02007227 -0.02661593 -0.09914530
v -0.01953782 -0.02747187 -0.09760249
v -0.01855989 -0.02968664 -0.09709522
v -0.01761375 -0.03143257 -0.09660460
v -0.01716213 -0.03289056 -0.09963037
v -0.01634835 -0.03334121 -0.09594861
v -0.01492913 -0.03507220 -0.09521306
v -0.01426080 -0.03642805 -0.10011627
v -0.01065594 -0.03919480 -0.10072130
v -0.01078246 -0.03863673 -0.09306449
v -0.00249531 -0.04262615 -0.08877182
v -0.00553760 -0.04145325 -0.09034757
v -0.00583869 -0.04145036 -0.09521945
v -0.00600482 -0.04124927 -0.09058958
v 0.00590701 -0.04491522 -0.08442020
v 0.00859712 -0.04545030 -0.08302706
v 0.00784366 -0.04504791 -0.09096418
v 0.01110662 -0.04588555 -0.08172748
v 0.01230057 -0.04558609 -0.09159441
v 0.00384075 -0.04294500 -0.11705761
v 0.00384198 -0.04376547 -0.10448300
v 0.00210709 -0.04355028 -0.10286701
v 0.00657279 -0.04420958 -0.10361844
v 0.00030289 -0.04196475 -0.12342805
v 0.00071788 -0.04257798 -0.11566789
v -0.00371138 -0.04171600 -0.11485775
v -0.01219494 -0.03854505 -0.11332216
v -0.01157173 -0.03868651 -0.12340470
v -0.01158287 -0.03868138 -0.12340469
v -0.01158656 -0.03867970 -0.12340467
v -0.01155687 -0.03869333 -0.12340470
v -0.01152713 -0.03870695 -0.12340473
v -0.01146760 -0.03873407 -0.12340479
v -0.01134837 -0.03878793 -0.12340494
v -0.02003743 -0.03047675 -0.11191810
v -0.01746535 -0.03424929 -0.11237783
v -0.01587688 -0.03588469 -0.11266188
v -0.02184660 -0.02626943 -0.11159415
v -0.02102870 -0.02840889 -0.11174080
v -0.02351359 -0.01955783 -0.11129317
v -0.02252027 -0.02406269 -0.11147300
v -0.00229150 -0.04259013 -0.10212723
v -0.00806284 -0.04043160 -0.11406747
v -0.00659257 -0.04119500 -0.10140409
v -0.01017126 -0.03957448 -0.11368660
v -0.01927796 -0.02878847 -0.09927732
v -0.01831434 -0.03089239 -0.09943792
v -0.01581064 -0.03474586 -0.09985653
v -0.01885307 -0.03243616 -0.11212980
v -0.01253010 -0.03791424 -0.10040662
v -0.01410741 -0.03731918 -0.11297876
v -0.00158578 -0.04291714 -0.09588966
v -0.00866865 -0.04028062 -0.10105516
v -0.00087994 -0.04316551 -0.08971955
v 0.02291950 -0.04501811 -0.12339246
v -0.00845265 0.03972798 -0.12388997
v -0.01027336 0.03904428 -0.12388968
v -0.00915293 0.03947930 -0.12388986
v -0.01590311 0.03584868 -0.12388876
v -0.02310440 0.00017011 -0.09945962
v -0.02105444 -0.02263180 -0.09838974
v -0.01333865 -0.03664976 -0.09438886
v -0.01279760 -0.03711883 -0.09410852
v -0.02308547 0.00341627 -0.09944954
v -0.02300730 0.00669964 -0.09940801
v 0.00744802 0.04557141 -0.08362261
v 0.00343664 0.04460859 -0.09033839
v 0.00071788 0.04291804 -0.11566832
v 0.00384199 0.04410565 -0.10448344
v 0.00657279 0.04454976 -0.10361888
v 0.01689705 0.04696174 -0.08038298
v 0.01899881 0.04713919 -0.08038361
v 0.01950006 0.04717663 -0.08038350
v 0.02000144 0.04721227 -0.08038335
v 0.02050294 0.04724617 -0.08038330
v 0.01329708 0.04655244 -0.08085445
v 0.01497197 0.04676250 -0.08049818
v 0.01517553 0.04678570 -0.08047166
v 0.01110662 0.04622595 -0.08172796
v 0.01230057 0.04592640 -0.09159488
v 0.01169802 0.04631988 -0.08144189
v -0.00253195 0.04295378 -0.08879123
v 0.00062052 0.04394712 -0.08715850
v 0.00395018 0.04481523 -0.08543407
v -0.00087994 0.04350583 -0.08971999
v -0.00583868 0.04179063 -0.09521987
v -0.01831434 0.03123261 -0.09943825
v -0.01927796 0.02912869 -0.09927762
v -0.02007227 0.02695616 -0.09914558
v -0.01932396 0.02834083 -0.09749182
v -0.02027602 0.02573600 -0.09798583
v -0.02072654 0.02471657 -0.09903716
v -0.02108511 0.02284676 -0.09840591
v -0.02126795 0.02206697 -0.09850088
v -0.02479819 0.00662169 -0.11142065
v -0.02286622 0.00966984 -0.09933335
v -0.02415274 0.01535402 -0.11117645
v -0.02351359 0.01989793 -0.11129337
v -0.02252028 0.02440280 -0.11147324
v -0.02389773 0.02392079 -0.12334225
v -0.02299838 0.02662796 -0.12335042
v -0.02102870 0.02874900 -0.11174109
v -0.01885307 0.03277627 -0.11213014
v -0.01746535 0.03458939 -0.11237818
v -0.01587688 0.03622476 -0.11266223
v -0.01410741 0.03765927 -0.11297916
v -0.01219494 0.03888513 -0.11332256
v -0.01017126 0.03991456 -0.11368700
v -0.01094558 0.03930496 -0.12340606
v -0.00371138 0.04205606 -0.11485817
v -0.00806283 0.04077168 -0.11406787
v -0.02191930 0.01868162 -0.09883948
v -0.02169039 0.02015025 -0.09887841
v -0.02184660 0.02660954 -0.11159442
v -0.02003743 0.03081684 -0.11191841
v -0.01716213 0.03323079 -0.09963072
v -0.01581064 0.03508607 -0.09985689
v -0.01426080 0.03676826 -0.10011663
v -0.01065594 0.03953502 -0.10072171
v -0.00866865 0.04062082 -0.10105557
v -0.00659257 0.04153521 -0.10140451
v -0.00229150 0.04293032 -0.10212767
v -0.01820709 0.03071640 -0.09691259
v -0.01783781 0.03138795 -0.09672109
v -0.01661072 0.03331831 -0.09608495
v -0.01522653 0.03507878 -0.09536753
v -0.01366500 0.03669185 -0.09455834
v -0.01208008 0.03803772 -0.09373715
v -0.01253009 0.03825446 -0.10040702
v -0.01019866 0.03936061 -0.09276243
v -0.00817554 0.04053678 -0.09171441
v -0.00158579 0.04325740 -0.09589009
v 0.00784367 0.04538822 -0.09096465
v 0.00210709 0.04389047 -0.10286745
v 0.00384058 0.04385060 -0.10879251
v -0.02248213 0.01442526 -0.09913260
v -0.00550302 0.04180839 -0.09033009
v -0.00601694 0.04158420 -0.09059628
f 710 579 578
f 53 578 579
f 466 482 481
f 468 482 466
f 611 713 610
f 713 714 603
f 603 714 527
f 675 680 676
f 678 668 669
f 681 680 675
f 350 349 654
f 555 125 137
f 632 672 623
f 710 578 577
f 580 64 581
f 621 616 614
f 614 613 621
f 579 583 584
f 584 53 579
f 796 849 797
f 797 849 850
f 712 615 580
f 616 615 712
f 614 616 712
f 712 613 614
f 612 613 712
f 712 713 611
f 611 612 712
f 479 474 475
f 477 474 479
f 80 575 576
f 576 577 80
f 669 668 641
f 641 668 406
f 490 464 480
f 463 464 490
f 460 430 463
f 465 428 466
f 465 480 464
f 466 481 465
f 481 480 465
f 466 428 467
f 467 468 466
f 420 481 482
f 749 707 747
f 708 707 701
f 701 743 708
f 863 872 862
f 874 873 713
f 713 872 874
f 38 36 28
f 28 36 29
f 527 714 529
f 533 44 33
f 533 714 715
f 533 532 714
f 713 608 609
f 609 610 713
f 608 97 609
f 607 608 713
f 713 603 607
f 618 609 97
f 406 668 407
f 407 408 406
f 675 676 674
f 679 676 680
f 567 565 541
f 138 137 126
f 126 137 125
f 338 600 890
f 39 599 8
f 599 600 8
f 326 349 350
f 693 701 694
f 694 701 707
f 694 707 706
f 680 681 647
f 647 679 680
f 655 686 685
f 655 654 349
f 685 654 655
f 661 662 685
f 661 686 670
f 685 686 661
f 684 654 685
f 685 662 684
f 134 146 115
f 34 29 33
f 33 44 34
f 134 115 132
f 136 555 134
f 136 125 555
f 623 672 673
f 673 681 675
f 670 686 687
f 686 655 687
f 635 632 623
f 672 632 671
f 670 687 671
f 671 630 670
f 632 630 671
f 79 577 578
f 79 80 577
f 612 168 620
f 620 613 612
f 168 613 620
f 53 584 56
f 56 584 61
f 582 584 583
f 582 581 64
f 583 581 582
f 64 61 582
f 61 584 582
f 798 796 797
f 726 856 798
f 856 855 798
f 852 975 847
f 850 975 852
f 871 872 863
f 871 874 872
f 873 874 871
f 797 850 851
f 850 852 851
f 851 852 847
f 1014 975 974
f 974 712 1014
f 973 850 849
f 973 975 850
f 974 975 973
f 849 796 973
f 973 855 860
f 796 798 973
f 973 798 855
f 847 975 976
f 713 712 938
f 943 712 974
f 974 973 943
f 711 579 710
f 711 583 579
f 711 581 583
f 580 581 711
f 711 712 580
f 322 385 321
f 839 838 829
f 840 839 988
f 988 839 829
f 472 390 389
f 389 390 322
f 389 323 404
f 322 323 389
f 445 472 447
f 445 444 437
f 410 472 473
f 473 477 410
f 474 477 473
f 437 474 473
f 473 445 437
f 472 445 473
f 505 503 448
f 441 448 442
f 442 448 447
f 957 508 503
f 435 474 437
f 433 475 435
f 435 475 474
f 434 476 433
f 433 435 434
f 434 435 436
f 200 476 434
f 519 510 391
f 503 508 519
f 502 448 519
f 448 503 519
f 393 392 391
f 391 510 393
f 203 202 173
f 173 175 203
f 201 203 492
f 202 203 201
f 497 498 492
f 497 476 200
f 200 498 497
f 433 476 461
f 461 430 460
f 460 475 461
f 461 475 433
f 428 465 427
f 427 465 464
f 427 176 428
f 471 641 406
f 642 641 471
f 415 480 481
f 481 420 415
f 489 463 490
f 460 463 489
f 428 176 429
f 429 467 428
f 469 486 487
f 487 468 469
f 482 468 487
f 487 420 482
f 470 486 469
f 408 486 470
f 469 426 470
f 484 486 408
f 408 407 484
f 484 407 483
f 746 707 708
f 746 747 707
f 689 667 683
f 683 684 689
f 689 684 662
f 689 662 627
f 786 701 788
f 728 701 732
f 732 701 786
f 722 701 318
f 318 701 693
f 693 332 318
f 859 872 713
f 713 862 859
f 859 862 872
f 860 855 857
f 857 855 856
f 33 29 32
f 29 36 32
f 32 36 532
f 32 533 33
f 532 533 32
f 531 36 38
f 532 36 531
f 714 532 531
f 605 43 606
f 606 43 44
f 606 885 605
f 882 533 715
f 619 97 608
f 608 607 619
f 291 292 280
f 280 290 291
f 291 188 292
f 290 188 291
f 255 290 256
f 255 188 290
f 172 188 255
f 193 202 213
f 213 192 193
f 202 201 213
f 57 52 155
f 155 192 57
f 263 153 268
f 611 610 167
f 610 618 167
f 167 612 611
f 167 168 612
f 610 609 617
f 617 618 610
f 609 618 617
f 38 28 37
f 527 529 37
f 27 37 28
f 256 290 273
f 273 290 280
f 97 619 96
f 96 619 607
f 96 607 603
f 603 23 96
f 95 618 97
f 146 633 638
f 636 633 623
f 623 673 636
f 636 638 633
f 674 638 636
f 675 674 636
f 636 673 675
f 676 679 691
f 691 678 669
f 691 679 678
f 678 679 649
f 649 646 678
f 679 647 649
f 483 646 485
f 677 646 483
f 678 646 677
f 668 678 677
f 483 407 677
f 677 407 668
f 541 543 546
f 546 567 541
f 565 567 563
f 605 885 602
f 602 43 605
f 599 888 868
f 868 600 599
f 598 888 599
f 598 599 39
f 939 714 713
f 741 915 914
f 626 556 627
f 627 662 626
f 626 661 663
f 662 661 626
f 47 126 125
f 548 570 571
f 627 556 571
f 126 47 550
f 693 326 325
f 325 326 350
f 358 647 650
f 650 647 681
f 652 357 356
f 355 650 356
f 695 327 361
f 348 655 349
f 652 687 352
f 352 687 655
f 145 115 146
f 260 225 283
f 30 34 46
f 117 132 115
f 130 46 50
f 30 46 130
f 688 673 672
f 681 673 688
f 688 650 681
f 652 356 688
f 688 356 650
f 134 555 147
f 147 146 134
f 147 633 146
f 670 630 629
f 629 661 670
f 663 661 629
f 578 53 54
f 54 79 578
f 53 56 54
f 63 69 65
f 63 61 64
f 706 776 799
f 726 798 799
f 799 798 797
f 706 780 779
f 706 750 772
f 706 707 759
f 705 694 706
f 705 704 694
f 797 851 705
f 706 799 705
f 705 799 797
f 702 323 709
f 790 323 702
f 698 697 699
f 696 327 695
f 695 697 696
f 696 697 336
f 336 697 333
f 333 697 334
f 368 336 333
f 333 421 368
f 333 334 370
f 370 421 333
f 975 1014 990
f 991 976 990
f 990 976 975
f 990 712 991
f 990 1014 712
f 847 976 846
f 977 803 806
f 806 976 977
f 806 846 976
f 845 846 806
f 712 943 942
f 860 938 942
f 942 938 712
f 942 973 860
f 942 943 973
f 969 968 967
f 711 968 969
f 991 712 972
f 712 711 972
f 972 976 991
f 792 323 790
f 838 839 837
f 837 839 840
f 837 702 838
f 842 702 837
f 843 793 795
f 790 702 794
f 794 789 790
f 793 789 794
f 377 376 319
f 437 444 439
f 447 448 446
f 446 445 447
f 444 445 446
f 409 472 410
f 409 390 472
f 410 385 409
f 447 472 452
f 472 389 452
f 452 389 404
f 443 448 441
f 441 505 443
f 443 505 448
f 457 452 404
f 946 793 843
f 961 393 962
f 962 393 510
f 510 508 944
f 508 957 944
f 944 962 510
f 945 962 944
f 454 455 456
f 456 491 454
f 436 501 496
f 496 501 499
f 496 499 200
f 200 434 496
f 518 519 391
f 509 508 510
f 510 519 509
f 509 519 508
f 515 517 394
f 394 517 392
f 392 393 394
f 11 521 394
f 394 521 515
f 397 1009 398
f 398 1009 1008
f 522 18 524
f 524 18 17
f 524 501 522
f 17 18 12
f 526 498 200
f 200 499 526
f 710 577 1003
f 992 977 967
f 965 1003 994
f 410 477 478
f 382 383 478
f 386 321 385
f 386 383 321
f 386 385 410
f 410 478 386
f 386 478 383
f 575 80 85
f 85 511 575
f 80 81 85
f 85 81 82
f 498 526 199
f 492 498 199
f 199 201 492
f 507 461 476
f 430 461 507
f 413 489 412
f 460 489 488
f 488 489 413
f 488 413 479
f 488 475 460
f 479 475 488
f 411 379 381
f 411 381 382
f 479 413 411
f 413 379 411
f 411 477 479
f 382 478 411
f 411 478 477
f 480 415 374
f 374 415 375
f 375 319 374
f 374 319 376
f 189 188 172
f 172 642 189
f 214 175 173
f 422 487 486
f 420 487 422
f 422 373 420
f 486 484 423
f 423 421 370
f 370 422 423
f 423 422 486
f 368 421 423
f 423 485 368
f 423 484 483
f 483 485 423
f 708 743 744
f 744 746 708
f 744 743 741
f 747 746 748
f 625 666 667
f 625 689 627
f 667 689 625
f 627 571 625
f 625 571 570
f 624 565 597
f 624 666 565
f 854 701 722
f 854 788 701
f 722 725 854
f 733 701 728
f 733 735 701
f 701 735 738
f 737 738 735
f 683 667 658
f 860 857 861
f 861 938 860
f 713 938 861
f 530 531 38
f 38 37 530
f 530 37 529
f 530 529 714
f 714 531 530
f 44 533 604
f 604 606 44
f 533 882 604
f 885 606 884
f 606 604 884
f 884 604 882
f 715 714 881
f 881 882 715
f 714 880 881
f 196 205 197
f 192 155 197
f 153 152 158
f 66 152 60
f 66 63 65
f 86 167 618
f 168 167 86
f 22 96 23
f 37 27 528
f 527 37 528
f 528 22 23
f 27 22 528
f 528 603 527
f 528 23 603
f 220 91 219
f 219 91 90
f 230 284 251
f 88 92 87
f 87 86 88
f 618 95 88
f 88 86 618
f 229 101 24
f 229 230 101
f 98 88 95
f 98 95 94
f 94 99 98
f 24 101 100
f 100 99 94
f 648 647 358
f 358 361 648
f 648 361 327
f 327 696 335
f 646 364 363
f 363 485 646
f 597 565 564
f 564 563 597
f 565 563 564
f 894 546 543
f 337 338 889
f 889 338 890
f 890 891 889
f 889 891 922
f 601 602 941
f 941 598 601
f 888 598 941
f 890 600 892
f 600 868 892
f 892 891 890
f 887 868 888
f 877 880 714
f 714 939 877
f 876 939 713
f 556 626 557
f 568 552 557
f 337 543 544
f 544 543 541
f 538 548 553
f 693 325 331
f 331 332 693
f 345 332 331
f 331 346 345
f 325 346 331
f 358 650 359
f 359 361 358
f 653 357 652
f 652 352 653
f 655 348 651
f 651 352 655
f 353 653 352
f 693 694 353
f 357 653 353
f 353 356 357
f 657 684 683
f 350 654 657
f 654 684 657
f 144 145 146
f 172 255 139
f 43 42 45
f 50 46 45
f 45 46 34
f 45 34 44
f 44 43 45
f 125 136 48
f 48 47 125
f 41 42 43
f 41 602 601
f 43 602 41
f 253 117 115
f 132 117 131
f 131 130 132
f 131 110 30
f 30 130 131
f 132 130 135
f 135 130 136
f 134 132 135
f 135 136 134
f 690 688 672
f 672 671 690
f 690 671 687
f 690 687 652
f 652 688 690
f 633 147 634
f 634 147 635
f 623 633 634
f 634 635 623
f 198 213 77
f 58 78 56
f 58 51 52
f 58 52 57
f 57 78 58
f 58 56 61
f 55 54 56
f 56 78 55
f 79 54 55
f 78 81 55
f 80 79 55
f 55 81 80
f 616 621 171
f 62 64 580
f 580 615 62
f 62 63 64
f 69 63 62
f 62 615 616
f 616 171 62
f 62 171 69
f 61 63 68
f 60 59 68
f 68 66 60
f 63 66 68
f 68 59 51
f 68 58 61
f 51 58 68
f 153 263 157
f 777 776 706
f 706 779 777
f 774 772 750
f 753 750 706
f 767 707 749
f 767 759 707
f 864 871 863
f 864 869 871
f 856 869 864
f 863 857 864
f 864 857 856
f 727 856 726
f 727 869 856
f 726 799 727
f 727 799 776
f 845 705 848
f 848 705 851
f 848 851 847
f 847 846 848
f 848 846 845
f 800 704 801
f 704 802 801
f 801 808 800
f 704 705 805
f 805 806 803
f 703 702 709
f 703 704 800
f 322 321 700
f 700 699 697
f 700 323 322
f 709 323 700
f 700 703 709
f 695 703 700
f 700 697 695
f 711 969 971
f 971 972 711
f 977 976 971
f 976 972 971
f 843 842 841
f 842 837 841
f 841 837 840
f 841 946 843
f 840 988 841
f 988 946 841
f 790 789 791
f 791 792 790
f 323 792 791
f 491 456 791
f 948 789 793
f 793 794 844
f 844 795 793
f 844 702 842
f 844 794 702
f 844 842 843
f 843 795 844
f 381 379 366
f 329 697 698
f 334 697 329
f 698 699 330
f 699 319 330
f 330 329 698
f 330 319 375
f 964 999 998
f 438 435 437
f 437 439 438
f 436 435 438
f 504 448 502
f 504 446 448
f 444 446 504
f 444 504 523
f 515 521 514
f 514 518 515
f 502 519 514
f 519 518 514
f 388 409 385
f 390 409 388
f 388 385 322
f 322 390 388
f 447 452 449
f 449 442 447
f 452 457 449
f 454 491 950
f 954 456 455
f 441 456 954
f 954 505 441
f 1000 945 1012
f 988 1000 1012
f 1012 946 988
f 947 946 1012
f 440 456 441
f 451 456 440
f 441 442 440
f 442 451 440
f 450 456 451
f 450 449 459
f 450 451 442
f 442 449 450
f 494 434 436
f 436 496 494
f 494 496 434
f 391 392 516
f 516 518 391
f 392 517 516
f 516 517 515
f 515 518 516
f 512 401 1006
f 511 85 512
f 10 12 11
f 398 1008 403
f 76 398 403
f 1006 401 403
f 403 1008 1006
f 520 12 18
f 520 523 521
f 520 521 11
f 11 12 520
f 520 18 522
f 522 523 520
f 20 13 15
f 71 13 72
f 72 13 76
f 72 85 82
f 76 13 399
f 399 398 76
f 14 526 15
f 15 13 14
f 14 13 71
f 71 199 14
f 14 199 526
f 999 1000 989
f 989 1000 988
f 978 803 977
f 977 992 978
f 817 982 818
f 994 995 981
f 981 995 982
f 966 965 980
f 980 992 966
f 967 968 966
f 966 992 967
f 1003 965 1002
f 710 1003 1002
f 212 213 201
f 201 75 212
f 77 213 212
f 71 72 74
f 74 199 71
f 74 75 201
f 201 199 74
f 476 497 495
f 495 507 476
f 174 497 492
f 174 495 497
f 507 495 174
f 430 507 462
f 462 463 430
f 464 463 462
f 462 427 464
f 413 412 414
f 418 489 490
f 418 412 489
f 377 412 418
f 418 376 377
f 490 480 418
f 480 374 418
f 418 374 376
f 642 471 424
f 424 189 642
f 406 408 424
f 424 471 406
f 408 470 424
f 424 470 426
f 173 202 211
f 211 214 173
f 211 202 193
f 370 334 372
f 334 371 372
f 372 422 370
f 371 422 372
f 747 748 764
f 765 749 764
f 749 747 764
f 745 748 746
f 746 744 745
f 913 748 745
f 933 725 722
f 593 624 597
f 723 854 725
f 743 701 740
f 701 738 740
f 739 915 741
f 741 743 739
f 743 740 739
f 738 737 739
f 739 740 738
f 735 733 736
f 736 737 735
f 324 318 332
f 858 861 857
f 863 862 858
f 858 857 863
f 858 862 713
f 713 861 858
f 883 884 882
f 882 881 925
f 913 883 925
f 925 883 882
f 913 925 917
f 917 748 913
f 917 764 748
f 917 916 765
f 765 764 917
f 271 270 313
f 271 158 270
f 268 153 271
f 153 158 271
f 267 313 269
f 313 270 269
f 150 267 269
f 280 292 316
f 316 279 280
f 315 313 267
f 160 267 150
f 267 160 278
f 278 160 277
f 278 315 267
f 314 315 278
f 279 316 278
f 270 158 151
f 150 269 151
f 151 269 270
f 151 158 152
f 152 66 151
f 96 22 93
f 94 95 93
f 97 96 93
f 93 95 97
f 24 100 25
f 25 100 94
f 25 22 27
f 94 93 25
f 25 93 22
f 222 92 220
f 274 273 280
f 220 219 221
f 221 222 220
f 273 274 221
f 221 274 163
f 232 284 231
f 284 230 231
f 231 229 106
f 230 229 231
f 102 100 101
f 99 100 102
f 286 102 101
f 105 104 232
f 232 231 105
f 105 231 106
f 226 98 99
f 90 91 89
f 89 226 90
f 98 226 89
f 220 92 89
f 89 91 220
f 92 88 89
f 88 98 89
f 646 649 360
f 327 335 360
f 344 696 336
f 344 335 696
f 364 335 344
f 344 363 364
f 369 336 368
f 368 485 369
f 485 363 343
f 343 344 336
f 363 344 343
f 718 933 719
f 725 933 718
f 940 602 885
f 940 941 602
f 941 940 886
f 886 914 915
f 886 940 885
f 931 887 905
f 922 891 931
f 891 892 931
f 931 892 868
f 868 887 931
f 880 877 879
f 878 877 939
f 878 879 877
f 713 873 875
f 875 876 713
f 562 552 553
f 562 571 556
f 556 557 562
f 562 557 552
f 553 548 562
f 548 571 562
f 550 552 551
f 138 126 551
f 126 550 551
f 551 568 138
f 551 552 568
f 558 626 663
f 558 557 626
f 561 570 548
f 337 544 536
f 600 338 2
f 2 8 600
f 2 4 535
f 3 538 553
f 535 538 3
f 3 2 535
f 545 538 535
f 535 536 545
f 548 538 545
f 354 650 355
f 354 359 650
f 347 326 693
f 693 353 347
f 349 326 347
f 347 348 349
f 347 651 348
f 352 651 347
f 347 353 352
f 328 353 694
f 328 694 695
f 695 361 328
f 328 354 355
f 355 356 328
f 356 353 328
f 361 359 328
f 359 354 328
f 656 657 683
f 346 657 656
f 345 346 656
f 656 682 345
f 683 658 656
f 658 682 656
f 350 657 351
f 351 657 346
f 351 325 350
f 351 346 325
f 237 238 111
f 111 109 237
f 236 234 235
f 146 638 637
f 637 144 146
f 637 638 674
f 674 144 637
f 641 141 643
f 669 641 643
f 643 691 669
f 261 260 283
f 283 286 261
f 261 286 262
f 172 139 645
f 645 642 172
f 645 641 642
f 129 48 136
f 129 130 50
f 136 130 129
f 42 48 129
f 47 48 40
f 40 48 42
f 42 41 40
f 115 145 122
f 122 253 115
f 118 117 252
f 117 253 252
f 628 629 630
f 555 137 554
f 554 137 138
f 138 572 554
f 83 78 57
f 83 198 78
f 213 198 83
f 57 192 83
f 192 213 83
f 84 81 78
f 78 198 84
f 84 198 77
f 77 212 84
f 84 212 75
f 169 621 613
f 169 171 621
f 169 613 168
f 153 157 159
f 159 59 60
f 51 59 159
f 60 152 159
f 159 152 153
f 317 157 263
f 781 780 706
f 706 783 781
f 706 772 771
f 771 783 706
f 765 916 766
f 766 749 765
f 766 767 749
f 939 876 918
f 876 875 918
f 873 871 918
f 918 875 873
f 706 759 755
f 755 753 706
f 869 727 778
f 778 777 779
f 776 777 778
f 778 727 776
f 804 802 704
f 704 805 804
f 804 978 802
f 804 805 803
f 803 978 804
f 807 705 845
f 807 805 705
f 845 806 807
f 806 805 807
f 815 703 811
f 977 971 970
f 970 971 969
f 967 977 970
f 970 969 967
f 404 323 387
f 323 791 387
f 791 453 387
f 387 457 404
f 387 453 457
f 1011 948 947
f 1011 944 957
f 947 1012 1011
f 945 944 1011
f 1011 1012 945
f 1013 946 947
f 947 948 1013
f 793 946 1013
f 1013 948 793
f 384 700 321
f 384 366 700
f 384 383 382
f 321 383 384
f 382 381 384
f 381 366 384
f 419 329 373
f 373 422 419
f 419 422 371
f 419 371 334
f 334 329 419
f 417 330 375
f 375 415 417
f 1010 1000 999
f 1010 963 961
f 1010 945 1000
f 961 962 1010
f 1010 962 945
f 436 438 493
f 493 438 439
f 506 504 502
f 502 514 506
f 506 523 504
f 521 523 506
f 506 514 521
f 459 449 458
f 458 449 457
f 458 453 459
f 457 453 458
f 454 950 949
f 949 455 454
f 949 956 455
f 789 956 949
f 949 950 789
f 952 791 789
f 455 956 955
f 955 954 455
f 505 954 959
f 503 505 959
f 959 957 503
f 959 1011 957
f 954 1011 959
f 456 450 513
f 513 791 456
f 513 453 791
f 513 450 459
f 459 453 513
f 1009 397 1016
f 397 1015 1016
f 998 1009 1016
f 1016 964 998
f 1016 1015 964
f 396 1015 397
f 397 10 396
f 396 394 393
f 21 397 19
f 21 10 397
f 12 10 21
f 21 19 17
f 17 12 21
f 997 1009 998
f 997 1008 1009
f 998 999 986
f 999 989 986
f 986 989 834
f 982 995 996
f 818 982 983
f 984 822 983
f 982 996 983
f 15 526 525
f 525 20 15
f 499 501 525
f 525 526 499
f 501 524 525
f 525 524 17
f 17 20 525
f 13 20 400
f 17 19 400
f 400 20 17
f 400 397 398
f 19 397 400
f 402 512 85
f 85 72 402
f 401 512 402
f 402 72 76
f 76 403 402
f 402 403 401
f 1006 996 1005
f 1005 996 995
f 575 511 1005
f 1005 512 1006
f 511 512 1005
f 994 1003 1004
f 1004 995 994
f 1004 1005 995
f 1004 577 576
f 1004 1003 577
f 576 575 1004
f 575 1005 1004
f 834 989 830
f 830 934 834
f 830 988 829
f 830 989 988
f 979 978 992
f 980 808 979
f 979 992 980
f 802 978 979
f 979 801 802
f 808 801 979
f 982 817 816
f 816 981 982
f 816 812 981
f 816 817 815
f 815 811 816
f 816 811 812
f 993 965 994
f 994 981 993
f 980 965 993
f 981 812 993
f 993 808 980
f 800 808 809
f 808 993 809
f 809 993 812
f 965 966 1001
f 1001 1002 965
f 1001 966 968
f 1001 968 711
f 1001 711 710
f 710 1002 1001
f 75 74 73
f 73 84 75
f 73 72 82
f 73 74 72
f 82 81 73
f 81 84 73
f 427 462 431
f 431 462 507
f 507 174 431
f 431 203 175
f 492 203 431
f 431 174 492
f 380 379 413
f 413 414 380
f 380 366 379
f 700 366 378
f 378 414 412
f 366 380 378
f 378 380 414
f 191 424 426
f 266 317 263
f 305 271 313
f 742 744 741
f 742 745 744
f 741 914 742
f 722 318 853
f 853 933 722
f 622 658 667
f 622 324 332
f 324 622 585
f 318 324 585
f 585 853 318
f 728 732 731
f 732 784 731
f 900 920 904
f 920 900 867
f 921 784 904
f 904 920 921
f 921 920 922
f 921 731 784
f 786 788 902
f 734 733 728
f 734 736 733
f 905 736 734
f 927 883 913
f 927 742 914
f 913 745 927
f 745 742 927
f 926 886 885
f 914 886 926
f 885 884 926
f 884 883 926
f 926 927 914
f 883 927 926
f 924 925 881
f 924 917 925
f 924 881 880
f 916 917 924
f 880 879 924
f 924 879 916
f 67 66 65
f 65 70 67
f 67 160 150
f 150 151 67
f 67 151 66
f 279 278 275
f 275 278 277
f 280 279 275
f 275 274 280
f 87 92 161
f 161 86 87
f 168 86 161
f 161 169 168
f 166 275 277
f 282 221 219
f 282 219 225
f 272 221 163
f 222 221 272
f 272 163 92
f 92 222 272
f 225 260 289
f 289 282 225
f 258 282 289
f 260 139 289
f 139 258 289
f 262 286 223
f 223 230 251
f 101 230 223
f 223 286 101
f 110 109 31
f 30 110 31
f 31 34 30
f 29 34 31
f 24 25 26
f 26 25 27
f 26 229 24
f 112 27 28
f 112 26 27
f 227 226 99
f 99 102 227
f 102 286 227
f 362 360 649
f 362 649 647
f 647 648 362
f 362 648 327
f 327 360 362
f 365 335 364
f 365 360 335
f 365 364 646
f 646 360 365
f 367 341 336
f 336 369 367
f 485 341 367
f 367 369 485
f 342 341 485
f 485 343 342
f 336 341 342
f 342 343 336
f 589 593 597
f 895 900 899
f 895 867 900
f 928 886 915
f 928 887 888
f 888 941 928
f 941 886 928
f 568 557 559
f 557 558 559
f 566 561 565
f 570 561 566
f 565 666 566
f 666 625 566
f 566 625 570
f 565 561 547
f 541 565 547
f 547 539 541
f 540 544 541
f 541 539 540
f 535 4 534
f 534 536 535
f 1 2 338
f 4 2 1
f 338 534 1
f 1 534 4
f 8 2 9
f 2 3 9
f 569 545 539
f 539 547 569
f 569 547 561
f 569 561 548
f 548 545 569
f 233 111 238
f 233 238 235
f 118 234 113
f 234 114 113
f 113 117 118
f 113 131 117
f 128 234 237
f 237 109 128
f 128 109 110
f 234 236 239
f 239 238 237
f 237 234 239
f 235 238 239
f 239 236 235
f 141 143 142
f 142 643 141
f 148 261 262
f 148 143 141
f 148 149 143
f 49 45 42
f 42 129 49
f 50 45 49
f 49 129 50
f 47 40 5
f 39 8 5
f 692 40 41
f 692 598 39
f 39 5 692
f 692 5 40
f 601 598 692
f 692 41 601
f 242 252 253
f 242 234 118
f 118 252 242
f 251 284 250
f 629 628 573
f 573 628 572
f 663 629 573
f 631 630 632
f 631 628 630
f 632 635 631
f 51 159 154
f 154 156 155
f 154 157 156
f 154 159 157
f 52 51 154
f 154 155 52
f 264 266 265
f 317 266 264
f 157 317 195
f 156 157 195
f 317 264 195
f 870 779 780
f 870 778 779
f 871 869 870
f 869 778 870
f 783 771 769
f 919 878 939
f 939 918 919
f 916 879 919
f 879 878 919
f 759 767 768
f 767 766 768
f 768 766 916
f 916 919 768
f 810 703 800
f 810 811 703
f 812 811 810
f 800 809 810
f 810 809 812
f 958 1011 954
f 954 955 958
f 789 948 958
f 948 1011 958
f 958 956 789
f 958 955 956
f 329 330 416
f 330 417 416
f 373 329 416
f 420 373 416
f 416 415 420
f 416 417 415
f 500 493 439
f 500 523 522
f 436 493 500
f 500 439 444
f 444 523 500
f 522 501 500
f 500 501 436
f 953 952 491
f 491 791 953
f 791 952 953
f 951 950 491
f 491 952 951
f 789 950 951
f 951 952 789
f 1015 396 960
f 961 963 960
f 960 393 961
f 960 396 393
f 964 1015 960
f 999 964 960
f 960 1010 999
f 963 1010 960
f 394 396 395
f 395 396 10
f 11 394 395
f 395 10 11
f 1007 997 984
f 1007 996 1006
f 1006 1008 1007
f 1008 997 1007
f 984 983 1007
f 1007 983 996
f 984 997 985
f 985 997 998
f 998 986 985
f 985 986 835
f 835 827 985
f 835 986 987
f 987 986 834
f 834 935 987
f 16 399 13
f 13 400 16
f 398 399 16
f 16 400 398
f 838 702 831
f 702 832 831
f 829 838 831
f 831 830 829
f 831 832 830
f 702 934 833
f 833 832 702
f 934 830 833
f 830 832 833
f 834 934 936
f 936 935 834
f 936 934 702
f 702 935 936
f 826 827 835
f 819 817 818
f 815 817 819
f 819 820 702
f 702 703 819
f 819 703 815
f 822 820 821
f 818 983 821
f 821 983 822
f 821 819 818
f 820 819 821
f 937 822 823
f 937 820 822
f 937 823 702
f 702 820 937
f 176 427 432
f 427 431 432
f 432 175 176
f 432 431 175
f 700 378 320
f 320 319 699
f 699 700 320
f 320 378 412
f 377 319 320
f 320 412 377
f 189 424 190
f 424 191 190
f 185 191 184
f 180 179 184
f 426 179 180
f 468 467 405
f 405 179 426
f 467 178 405
f 405 178 179
f 469 468 405
f 405 426 469
f 340 682 658
f 658 622 340
f 345 682 340
f 340 332 345
f 340 622 332
f 933 853 724
f 853 585 724
f 893 895 894
f 867 895 893
f 893 543 337
f 893 894 543
f 920 867 930
f 922 920 930
f 930 889 922
f 932 889 930
f 786 902 787
f 170 161 70
f 169 161 170
f 171 169 170
f 69 171 170
f 65 69 170
f 170 70 65
f 276 166 277
f 277 160 276
f 160 67 276
f 276 67 70
f 163 274 164
f 70 161 162
f 162 276 70
f 166 276 162
f 162 161 92
f 92 163 162
f 163 164 162
f 274 275 165
f 275 166 165
f 165 164 274
f 166 162 165
f 165 162 164
f 221 282 281
f 256 273 281
f 273 221 281
f 257 282 258
f 257 255 256
f 256 281 257
f 257 281 282
f 257 139 255
f 257 258 139
f 288 223 251
f 262 223 288
f 251 148 288
f 288 148 262
f 104 105 107
f 26 112 103
f 103 105 106
f 103 107 105
f 112 107 103
f 106 229 103
f 229 26 103
f 35 31 109
f 109 107 35
f 35 107 112
f 35 112 28
f 35 28 29
f 29 31 35
f 224 227 286
f 283 225 224
f 224 286 283
f 592 724 585
f 897 895 901
f 901 895 899
f 901 723 725
f 725 897 901
f 899 898 901
f 901 898 723
f 725 718 717
f 718 587 717
f 894 895 896
f 567 546 896
f 546 894 896
f 721 895 897
f 897 720 721
f 721 896 895
f 597 563 721
f 721 563 567
f 567 896 721
f 721 589 597
f 721 720 589
f 929 928 915
f 905 887 929
f 887 928 929
f 929 736 905
f 737 736 929
f 915 739 929
f 929 739 737
f 542 536 544
f 544 540 542
f 537 540 539
f 539 545 537
f 537 545 536
f 536 542 537
f 537 542 540
f 337 536 339
f 536 534 339
f 339 338 337
f 339 534 338
f 549 552 550
f 553 552 549
f 549 3 553
f 549 9 3
f 111 233 108
f 104 107 108
f 109 111 108
f 108 107 109
f 232 104 285
f 104 108 285
f 285 108 233
f 131 113 133
f 133 113 114
f 110 131 133
f 133 128 110
f 127 114 234
f 234 128 127
f 127 133 114
f 128 133 127
f 639 674 676
f 639 144 674
f 676 691 639
f 691 643 639
f 640 143 145
f 640 142 143
f 145 144 640
f 144 639 640
f 643 142 640
f 640 639 643
f 644 141 641
f 641 645 644
f 260 261 259
f 261 148 259
f 259 139 260
f 6 550 47
f 47 5 6
f 244 243 235
f 244 242 243
f 235 234 244
f 234 242 244
f 143 149 119
f 245 284 232
f 232 285 245
f 124 242 253
f 246 242 124
f 253 122 124
f 122 116 124
f 560 559 558
f 560 558 663
f 663 573 560
f 568 559 560
f 138 568 560
f 560 572 138
f 560 573 572
f 628 631 574
f 555 554 574
f 574 631 635
f 572 628 574
f 574 554 572
f 574 147 555
f 635 147 574
f 156 195 210
f 196 197 210
f 155 156 210
f 210 197 155
f 770 769 771
f 770 918 871
f 871 769 770
f 782 781 783
f 783 769 782
f 780 781 782
f 782 870 780
f 871 870 782
f 782 769 871
f 753 755 756
f 755 760 756
f 750 753 773
f 773 774 750
f 773 918 774
f 773 919 918
f 762 755 759
f 825 822 984
f 984 985 825
f 825 985 827
f 823 822 825
f 827 826 828
f 828 826 702
f 835 987 836
f 836 826 835
f 836 987 935
f 836 935 702
f 702 826 836
f 183 185 184
f 186 190 191
f 191 185 186
f 188 189 186
f 189 190 186
f 293 316 292
f 314 278 293
f 293 278 316
f 467 429 177
f 177 178 467
f 209 211 193
f 184 191 425
f 425 180 184
f 425 191 426
f 426 180 425
f 932 930 866
f 866 930 867
f 867 893 866
f 866 889 932
f 337 889 866
f 866 893 337
f 904 784 785
f 785 787 904
f 786 787 785
f 785 732 786
f 785 784 732
f 903 787 902
f 899 900 903
f 903 900 904
f 904 787 903
f 903 898 899
f 902 898 903
f 723 898 865
f 865 898 902
f 854 723 865
f 788 854 865
f 865 902 788
f 728 731 729
f 731 921 729
f 908 734 728
f 228 224 225
f 227 224 228
f 225 219 228
f 226 227 228
f 228 219 90
f 90 226 228
f 586 718 719
f 586 587 718
f 719 933 586
f 933 724 586
f 593 589 590
f 589 586 590
f 665 585 622
f 667 666 665
f 665 622 667
f 716 720 897
f 716 897 725
f 725 717 716
f 589 720 716
f 588 717 587
f 588 586 589
f 587 586 588
f 589 716 588
f 588 716 717
f 140 148 141
f 140 259 148
f 141 644 140
f 140 644 645
f 140 645 139
f 139 259 140
f 550 6 7
f 7 549 550
f 9 549 7
f 8 9 7
f 7 5 8
f 7 6 5
f 145 143 121
f 247 233 235
f 247 285 233
f 247 245 285
f 241 119 149
f 251 250 241
f 241 148 251
f 149 148 241
f 775 771 772
f 775 770 771
f 772 774 775
f 774 918 775
f 918 770 775
f 753 756 757
f 757 756 760
f 757 760 919
f 763 760 755
f 755 762 763
f 919 760 763
f 763 762 919
f 759 768 761
f 761 762 759
f 761 768 919
f 919 762 761
f 824 825 827
f 823 825 824
f 702 823 824
f 185 183 304
f 187 186 185
f 188 186 187
f 292 188 187
f 187 293 292
f 294 315 314
f 314 293 294
f 294 187 185
f 293 187 294
f 178 177 181
f 181 177 429
f 181 429 176
f 176 175 181
f 175 214 181
f 179 178 182
f 184 179 182
f 178 181 182
f 730 912 728
f 728 729 730
f 728 912 911
f 624 593 594
f 593 590 594
f 590 595 594
f 591 595 590
f 724 592 591
f 591 586 724
f 591 590 586
f 659 592 585
f 585 665 659
f 246 124 123
f 123 121 246
f 123 124 116
f 123 116 122
f 123 122 145
f 145 121 123
f 240 121 143
f 246 247 248
f 248 242 246
f 243 242 248
f 235 243 248
f 248 247 235
f 287 241 250
f 287 250 284
f 814 824 827
f 814 828 702
f 702 824 814
f 305 304 307
f 268 271 307
f 271 305 307
f 313 315 296
f 215 181 214
f 214 211 215
f 211 209 215
f 209 182 215
f 215 182 181
f 206 197 205
f 192 197 206
f 923 729 921
f 923 730 729
f 912 730 923
f 923 911 912
f 923 931 905
f 905 734 923
f 734 908 923
f 922 931 923
f 923 921 922
f 728 911 910
f 911 923 910
f 596 591 592
f 595 591 596
f 254 247 246
f 245 247 254
f 246 121 254
f 121 240 254
f 241 287 254
f 119 241 254
f 254 240 119
f 143 119 120
f 120 240 143
f 119 240 120
f 754 773 753
f 753 751 754
f 753 757 758
f 758 751 753
f 758 757 919
f 919 751 758
f 827 828 813
f 813 814 827
f 828 814 813
f 184 182 218
f 315 294 297
f 297 296 315
f 297 294 185
f 185 296 297
f 295 305 313
f 313 296 295
f 295 304 305
f 185 304 295
f 295 296 185
f 310 309 266
f 208 206 298
f 266 309 298
f 298 206 205
f 265 266 298
f 298 205 196
f 196 210 298
f 298 264 265
f 298 195 264
f 298 210 195
f 208 302 207
f 207 206 208
f 207 209 193
f 207 302 209
f 193 192 207
f 192 206 207
f 728 910 909
f 909 923 908
f 909 910 923
f 664 665 666
f 595 596 664
f 666 624 664
f 624 594 664
f 664 594 595
f 245 254 249
f 249 254 287
f 284 245 249
f 249 287 284
f 919 773 752
f 752 751 919
f 204 182 209
f 194 304 183
f 194 183 184
f 184 218 194
f 266 312 311
f 311 310 266
f 312 299 311
f 728 909 906
f 906 909 908
f 660 664 596
f 592 659 660
f 660 596 592
f 660 659 665
f 665 664 660
f 308 299 312
f 308 266 263
f 308 312 266
f 308 263 268
f 268 307 308
f 301 302 208
f 208 298 301
f 309 310 301
f 301 298 309
f 310 311 301
f 301 311 299
f 218 299 306
f 306 194 218
f 306 308 307
f 299 308 306
f 306 307 304
f 304 194 306
f 907 908 728
f 728 906 907
f 907 906 908
f 217 299 218
f 217 303 299
f 217 218 182
f 300 301 299
f 299 303 300
f 302 301 300
f 209 302 300
f 300 204 209
f 300 303 204
f 182 204 216
f 216 217 182
f 204 303 216
f 303 217 216
f 694 704 703
f 695 694 703

