# https://github.com/mikedh/trimesh
v 0.03244376 0.00504181 0.03296803
v 0.03244377 0.00373931 0.03316019
v 0.03244375 0.01056530 0.03156007
v 0.03244374 0.01598118 0.02912162
v 0.03244374 0.02046773 0.02606119
v 0.03244373 0.02446194 0.02225924
v 0.03244371 0.03027211 0.01310934
v 0.03244372 0.02779056 0.01786567
v 0.03244370 0.03192227 0.00814481
v 0.03244369 0.03279255 0.00297503
v 0.03244369 0.03283550 -0.00227686
v 0.03244377 -0.01290987 0.03098921
v 0.03244377 -0.00681788 0.03280280
v -0.03243832 0.03027202 0.01310949
v -0.03243829 0.03283539 -0.00227668
v -0.03243831 0.03192218 0.00814498
v -0.03243833 0.02446185 0.02225939
v -0.03243833 0.02836061 0.01693074
v -0.03243838 -0.01290998 0.03098936
v -0.03243838 -0.00681799 0.03280298
v -0.03243838 -0.00041558 0.03342677
v 0.04018138 -0.00243986 0.01849071
v 0.04018141 -0.00495301 0.01803643
v 0.04018131 -0.00735463 0.01725174
v 0.04018133 -0.00741682 0.01722629
v 0.04018131 -0.00835380 0.01681275
v 0.04018131 -0.01058971 0.01555360
v 0.04018132 -0.01118763 0.01514281
v 0.04018135 -0.01317483 0.01349817
v 0.04018135 -0.01490340 0.01160682
v 0.04018136 -0.01556107 0.01072610
v 0.04018136 -0.01615904 0.00981800
v 0.04018137 -0.01689169 0.00851605
v 0.04018138 -0.01789643 0.00615839
v 0.04018135 -0.01891628 0.00002948
v 0.04018134 -0.01887963 -0.00106602
v 0.04018134 -0.01853809 -0.00362172
v 0.04018139 -0.01745149 -0.00711309
v 0.04018135 -0.01511784 -0.01112937
v 0.04018135 -0.01481604 -0.01151391
v 0.04018129 -0.00921169 -0.01617559
v 0.04018132 -0.00686291 -0.01724037
v 0.04018135 -0.00514851 -0.01778423
v 0.04018136 -0.00440420 -0.01796471
v 0.04018132 -0.00077192 -0.01839670
v 0.04018123 0.00295660 -0.01809104
v 0.04018124 0.00214549 -0.01822268
v 0.04018063 -0.00041481 -0.01840012
v 0.04018126 0.00545330 -0.01744523
v 0.04018132 0.00782253 -0.01646485
v 0.04018082 0.01000032 -0.01519476
v 0.04017995 0.01200167 -0.01362996
v 0.04018175 0.01656369 -0.00723841
v 0.04018172 0.01696707 -0.00622498
v 0.04018139 0.01742293 -0.00480457
v 0.04018039 0.01793692 -0.00230249
v 0.04017988 0.01805267 0.00139509
v 0.04018158 0.01696770 0.00642870
v 0.04018091 0.01480755 0.01062168
v 0.04018028 0.01321408 0.01262538
v 0.04018066 0.01137211 0.01436840
v 0.04018147 0.00817456 0.01648585
v 0.04018177 0.00487726 0.01782505
v 0.04091366 -0.00613308 -0.00628074
v 0.04091366 -0.00503572 -0.00711503
v 0.04103577 -0.00041544 0.00010107
v 0.04091366 -0.00786084 -0.00413977
v 0.04091366 -0.00708629 -0.00527652
v 0.04091366 -0.00736265 0.00511656
v 0.04091366 -0.00643400 0.00619991
v 0.04091366 -0.00295608 0.00828422
v 0.04064639 -0.00590155 -0.01230027
v 0.04064639 -0.00400280 -0.01297643
v 0.04018136 -0.00333039 -0.01816868
v 0.04064639 -0.00206453 -0.01335891
v 0.04018129 -0.01016263 -0.01562451
v 0.04064639 -0.00772757 -0.01131921
v 0.04018133 -0.01410477 -0.01234450
v 0.04064639 -0.00946427 -0.00999888
v 0.04018132 -0.01224124 -0.01412727
v 0.04064639 -0.01097284 -0.00840961
v 0.04064639 -0.01395999 0.00076110
v 0.04018138 -0.01784964 -0.00608944
v 0.04064639 -0.01310464 -0.00468167
v 0.04018139 -0.01628239 -0.00941264
v 0.04064639 -0.01333757 0.00421310
v 0.04018138 -0.01822447 0.00511251
v 0.04064639 -0.01380101 0.00227291
v 0.04018137 -0.01874848 0.00258667
v 0.04064639 -0.01141020 0.00803868
v 0.04018131 -0.00735760 0.01725055
v 0.04018131 -0.00760601 0.01714785
v 0.04018131 -0.00716695 0.01732648
v 0.04064639 -0.00245548 0.01350738
v 0.04091366 -0.00170447 0.00857205
v 0.04041535 -0.00041543 0.01641310
v 0.04091342 -0.00041514 -0.00847392
v 0.04091366 -0.00041514 -0.00846743
v 0.04091366 -0.00388192 -0.00773488
v 0.04091366 -0.00268217 -0.00816216
v 0.04091342 -0.00041543 0.00867606
v 0.04091366 -0.00887331 0.00147338
v 0.04091366 -0.00858048 0.00269933
v 0.04091366 -0.00896835 -0.00041517
v 0.04091366 -0.00880096 -0.00166016
v 0.04091366 -0.00897377 0.00051812
v 0.04064639 -0.00443630 0.01305188
v 0.04064639 -0.00639702 0.01227118
v 0.04091366 -0.00419499 0.00779093
v 0.04064639 -0.00825823 0.01116366
v 0.04091366 -0.00537103 0.00709114
v 0.04064639 -0.00994052 0.00975318
v 0.04064639 -0.01256178 0.00613073
v 0.04091366 -0.00809029 0.00391100
v 0.04064639 -0.01395143 -0.00071593
v 0.04064639 -0.01368650 -0.00268628
v 0.04091366 -0.00843330 -0.00292098
v 0.04064639 -0.01219866 -0.00661056
v 0.04091366 -0.00145744 -0.00840383
v 0.04091342 0.00387181 0.00752739
v 0.04091342 0.00615321 0.00561319
v 0.04091342 0.00509624 0.00667010
v 0.04091342 0.00701058 0.00438882
v 0.04091342 0.00764233 0.00303415
v 0.04091342 0.00802934 -0.00138768
v 0.04091342 0.00701088 -0.00418617
v 0.04091342 0.00764252 -0.00283148
v 0.04091342 0.00615358 -0.00541060
v 0.04091342 0.00251766 -0.00795670
v 0.04018167 0.00236814 0.01838870
v 0.04041535 0.00241657 0.01616536
v 0.04041535 0.00516309 0.01542954
v 0.04018172 0.00582276 0.01751531
v 0.04018098 0.01037644 0.01513229
v 0.04041535 0.00774010 0.01422797
v 0.04041535 0.01006930 0.01259715
v 0.04041535 0.01207994 0.01058666
v 0.04018040 0.01376286 0.01199887
v 0.04041535 0.01371090 0.00825755
v 0.04018122 0.01533216 0.00981392
v 0.04018166 0.01652546 0.00753025
v 0.04041535 0.01491265 0.00568063
v 0.04018125 0.01740217 0.00508613
v 0.04041535 0.01564866 0.00293417
v 0.04018081 0.01769176 0.00392000
v 0.04041535 0.01589658 0.00010164
v 0.04017974 0.01809918 0.00010170
v 0.04017997 0.01805455 -0.00115480
v 0.04041535 0.01491304 -0.00547745
v 0.04041535 0.01564886 -0.00273093
v 0.04018073 0.01780969 -0.00311186
v 0.04041535 0.01208064 -0.01038366
v 0.04018017 0.01385555 -0.01168846
v 0.04018116 0.01534707 -0.00958844
v 0.04041535 0.01371145 -0.00805445
v 0.04041535 0.01007015 -0.01239430
v 0.04041535 0.00241766 -0.01596304
v 0.04041535 0.00516412 -0.01522701
v 0.04041535 0.00774105 -0.01402526
v 0.04018129 0.00890711 -0.01587992
v 0.04018136 -0.00041542 0.01860211
v 0.04091342 0.00107388 -0.00834360
v 0.04041535 -0.00041488 -0.01621093
v 0.04091342 0.00387232 -0.00732495
v 0.04091342 0.00509669 -0.00646757
v 0.04091342 0.00815956 0.00010137
v 0.04091342 0.00802924 0.00159038
v 0.04091342 0.00251712 0.00815905
v 0.04091342 0.00107332 0.00854586
v -0.00428166 -0.03975628 -0.06776210
v -0.02993088 0.00844281 -0.06742977
v -0.00417431 0.02660264 -0.06744839
v -0.00575593 0.02637008 -0.06744749
v -0.00778749 0.02595677 -0.06744631
v -0.01129156 0.02492322 -0.06744423
v -0.03243831 -0.03489017 0.00622762
v -0.03220880 0.00264077 -0.06742761
v -0.03102154 0.00605965 -0.06742825
v -0.03349540 -0.00764356 -0.06745093
v -0.03328470 -0.00271620 -0.06743259
v -0.03344587 -0.00449238 -0.06743509
v -0.04015042 -0.01911251 -0.00073131
v -0.04014929 -0.01903250 0.00199545
v -0.04014695 -0.01856096 0.00469250
v -0.04014541 -0.01770743 0.00728742
v -0.04014613 -0.01648986 0.00971843
v -0.04014766 -0.01493461 0.01193235
v -0.04014541 -0.01088703 0.01563893
v -0.04014540 -0.00853537 0.01699845
v -0.04014626 -0.00744654 0.01748157
v -0.04013795 -0.00169865 -0.01863678
v -0.04013572 0.00100947 -0.01863428
v -0.04014465 -0.00696228 -0.01746055
v -0.04014705 -0.00943498 -0.01630982
v -0.04014967 -0.01878974 -0.00345196
v -0.04014808 -0.01175810 -0.01479002
v -0.04014756 -0.01384543 -0.01295279
v -0.04014642 -0.01559338 -0.01088126
v -0.04014627 -0.01701130 -0.00858532
v -0.04014616 -0.00515869 0.01824034
v -0.04014588 -0.00280220 0.01870168
v -0.04013573 0.00135653 -0.01860448
v -0.04015252 0.01018660 0.00314898
v -0.04014564 -0.00041552 0.01885576
v -0.04014566 0.00219341 0.01867075
v -0.04014567 0.00486393 0.01809330
v -0.04014568 0.00598522 0.01772619
v -0.04014580 0.01822846 -0.00201001
v -0.04014585 0.01834707 -0.00032421
v -0.04014578 0.01807586 -0.00305816
v -0.04014575 0.01740423 -0.00573503
v -0.04014570 0.00742750 0.01713468
v -0.04014573 0.00981887 0.01581846
v -0.04014574 0.01196838 0.01419456
v -0.04014569 0.01387850 0.01225487
v -0.04014569 0.01454853 0.01141561
v -0.04014572 0.01549640 0.01002965
v -0.04014580 0.01677543 0.00758962
v -0.04014591 0.01820946 0.00238089
v -0.04014580 0.01636063 -0.00827487
v -0.04014592 0.01498644 -0.01060687
v -0.04014599 0.01438744 -0.01142644
v -0.04014613 0.01330531 -0.01270150
v -0.04013555 0.00387958 -0.01818245
v -0.03975470 0.01028767 -0.01824658
v -0.03997762 0.00965501 -0.01716216
v -0.04014600 0.00903404 -0.01609757
v -0.04014624 0.01129742 -0.01455652
v -0.03728847 0.02187742 -0.01724090
v -0.03463066 0.02991067 -0.01167451
v -0.03463240 0.02813775 -0.01549007
v -0.03728829 0.02471368 -0.01276018
v -0.03463223 0.03060998 -0.00968792
v -0.03464445 0.03212288 0.00068043
v -0.03728822 0.02765432 -0.00306719
v -0.03463481 0.03117980 -0.00766318
v -0.03464011 0.03177242 0.00487299
v -0.03728830 0.02774769 0.00233180
v -0.03464291 0.03202499 0.00267361
v -0.03728817 0.02494994 0.01249526
v -0.03728826 0.02684199 0.00746853
v -0.03464050 0.02519271 0.02017347
v -0.03464004 0.02553475 0.01972870
v -0.03463598 0.02756618 0.01669962
v -0.03463261 0.02947322 0.01294939
v -0.03464028 0.02238719 0.02330882
v -0.03463858 0.02132432 0.02430476
v -0.03728838 0.01845555 0.02110989
v -0.03728834 0.01410176 0.02431420
v -0.03463608 0.01919893 0.02605400
v -0.03728824 0.00922057 0.02663563
v -0.03463576 0.01190137 0.03020800
v -0.03463500 0.01568456 0.02836723
v -0.03463617 0.00378294 0.03235267
v -0.03463587 0.00467733 0.03222407
v -0.03728836 0.00400452 0.02798040
v -0.03463505 0.00791177 0.03154386
v -0.03975501 0.00290945 0.02107505
v -0.03975502 0.01050742 0.01831646
v -0.03975494 0.00683351 0.02006195
v -0.03975504 0.01378362 0.01590649
v -0.03975488 0.01653135 0.01291580
v -0.03975506 0.02077195 0.00177513
v -0.04014588 0.01768460 0.00501452
v -0.03975504 0.02009076 0.00564004
v -0.03975493 0.01866698 0.00942222
v -0.03975494 0.02070026 -0.00228744
v -0.03975496 0.01848617 -0.00958051
v -0.03975517 0.01635172 -0.01295163
v -0.03975547 0.01357976 -0.01589202
v -0.03730404 -0.00041554 0.02829925
v -0.03891553 -0.00041552 0.02448387
v -0.03889919 0.00340963 0.02422885
v -0.03889908 0.00792380 0.02306424
v -0.03889919 0.01214904 0.02105577
v -0.03728817 0.02211069 0.01713748
v -0.03889900 0.01907955 0.01484386
v -0.03889902 0.02153655 0.01082561
v -0.03889914 0.02317418 0.00647504
v -0.03889918 0.02395790 0.00202925
v -0.03889906 0.02387627 -0.00264369
v -0.03728820 0.02650556 -0.00839700
v -0.03889903 0.02288147 -0.00725665
v -0.03889912 0.02133031 -0.01103290
v -0.03889935 0.01887530 -0.01491081
v -0.03889966 0.01568705 -0.01829325
v -0.03975489 0.01983491 -0.00629770
v -0.03889923 0.01591736 0.01828305
v -0.03976648 -0.00041552 0.02128244
v -0.01153338 -0.03928705 -0.02601187
v -0.01283804 -0.03923578 -0.02634289
v -0.01155837 -0.03930195 -0.02642303
v -0.00840220 -0.03944555 -0.02652772
v -0.02238020 -0.03865493 -0.02403053
v -0.02698740 -0.03829420 -0.02104118
v -0.02883560 -0.03813384 -0.01898502
v -0.03138252 -0.03763487 -0.01545652
v -0.03252558 -0.03737023 -0.01244377
v -0.03153447 -0.03780595 -0.01415118
v -0.03244749 -0.03761005 -0.01152410
v -0.03209819 -0.03776807 -0.01137467
v -0.03335300 -0.03732952 -0.00600763
v -0.03191014 -0.03777774 -0.01130055
v -0.03290019 -0.03739581 -0.00590791
v -0.03313074 -0.03738602 -0.00595569
v -0.03355286 -0.03721860 -0.00606202
v -0.01976216 -0.03883762 -0.02490743
v -0.02482032 -0.03846916 -0.02274882
v -0.03018056 -0.03802176 -0.01655873
v -0.03034849 -0.03797694 -0.01666330
v -0.03227720 -0.03771225 -0.01144876
v -0.03136143 -0.03788230 -0.01406114
v -0.03118214 -0.03791045 -0.01397224
v -0.01705300 -0.03900529 -0.02547218
v -0.03303836 0.01114422 0.03136284
v -0.03357491 0.03019411 0.01325969
v -0.03303828 0.03143130 0.00995539
v -0.03357535 0.03163652 0.00919981
v -0.03303825 0.03291520 0.00069417
v -0.03303824 0.03271228 -0.00361203
v -0.03357648 0.03254294 0.00498776
v -0.03303827 0.03256029 0.00499035
v -0.03357578 0.02824003 0.01709963
v -0.03303830 0.02825545 0.01710916
v -0.03303832 0.02378522 0.02302588
v -0.03303833 0.02294657 0.02387975
v -0.03357682 0.02293424 0.02386693
v -0.03303835 0.01608114 0.02906514
v -0.03303834 0.01794462 0.02792198
v -0.03303836 0.01220431 0.03095062
v -0.03303837 0.00811663 0.03231991
v -0.03397449 0.03153121 0.00916974
v -0.03397756 0.03243700 0.00497196
v -0.03357737 0.03289820 0.00069393
v -0.03397998 0.03279302 0.00069211
v -0.03303835 -0.00041558 0.03342677
v -0.03303837 0.00388642 0.03314976
v -0.03357562 0.00811209 0.03230224
v -0.03397544 0.00386997 0.03302241
v -0.03430303 0.00383735 0.03277130
v -0.03430017 0.02986039 0.01311595
v -0.03430189 0.03128842 0.00910057
v -0.03430672 0.03218944 0.00493510
v -0.03303830 0.02836058 0.01693074
v -0.03397787 0.02572224 0.02058868
v -0.03430699 0.02552483 0.02043382
v -0.03303834 0.01968181 0.02669481
v -0.03357587 0.01967104 0.02668015
v -0.03397534 0.01960513 0.02659256
v -0.03397474 0.01601811 0.02895359
v -0.03434093 0.02846781 -0.01567083
v -0.03397214 0.03053791 -0.01191940
v -0.03429858 0.03030269 -0.01182749
v -0.03357514 0.03193797 -0.00785132
v -0.03397451 0.03183261 -0.00782504
v -0.03430217 0.03158855 -0.00776448
v -0.03397813 0.03258972 -0.00359791
v -0.03357656 0.03269513 -0.00360998
v -0.03430777 0.03234205 -0.00356971
v -0.03464122 0.03192338 -0.00352209
v -0.03431053 0.03254448 0.00068779
v -0.03463461 0.03088297 0.00898511
v -0.03463339 0.02881405 0.01438577
v -0.03303828 0.03165396 0.00920496
v -0.03397339 0.03009287 0.01321600
v -0.03430307 0.02792901 0.01691482
v -0.03397533 0.02814606 0.01704366
v -0.03430669 0.02268273 0.02361021
v -0.03303831 0.02582056 0.02066634
v -0.03357678 0.02580685 0.02065522
v -0.03397772 0.02285867 0.02378971
v -0.03430301 0.01945301 0.02639080
v -0.03463489 0.01631135 0.02800117
v -0.03430213 0.01589313 0.02873383
v -0.03430283 0.01206087 0.03059850
v -0.03463554 0.01068746 0.03067605
v -0.03357560 0.01607230 0.02904917
v -0.03430220 0.00801954 0.03195165
v -0.03357577 0.01219763 0.03093372
v -0.03397520 0.01215632 0.03083230
v -0.03397479 0.00808409 0.03219606
v -0.03357605 0.00388412 0.03313161
v -0.03397565 -0.00041557 0.03329886
v -0.03430344 -0.00041557 0.03304611
v -0.03463667 -0.00041557 0.03262408
v -0.03430201 -0.03030796 0.01565314
v -0.03430077 -0.03246851 0.01148603
v -0.03463428 -0.02425012 0.02273170
v -0.03397208 -0.03442744 0.00721411
v -0.03397353 -0.03269371 0.01160191
v -0.03463433 -0.02734196 0.01926530
v -0.03430107 -0.02766619 0.01953564
v -0.03397296 -0.02785797 0.01969979
v -0.03397411 -0.03051793 0.01579363
v -0.03357318 -0.02793696 0.01977603
v -0.03430112 -0.02453830 0.02304027
v -0.03397344 -0.02470942 0.02322678
v -0.03397604 -0.01286240 0.03087161
v -0.03430435 -0.01276801 0.03063805
v -0.03397330 -0.01712964 0.02884344
v -0.03430194 -0.01700882 0.02862282
v -0.03430113 -0.02096192 0.02608646
v -0.03463623 -0.01680599 0.02825345
v -0.03463446 -0.02071516 0.02574457
v -0.03430038 -0.03419187 0.00712360
v -0.03417793 -0.03566452 0.00266636
v -0.03397952 -0.03579053 0.00270025
v -0.03357450 -0.03060499 0.01586104
v -0.03357463 -0.03278868 0.01165898
v -0.03357181 -0.03452766 0.00725786
v -0.03375575 -0.03586759 0.00272144
v -0.03352026 -0.03590202 0.00273154
v -0.03357321 -0.01718134 0.02893902
v -0.03357385 -0.02117064 0.02638207
v -0.03397328 -0.02110872 0.02629174
v -0.03304379 -0.03591333 0.00273673
v -0.03303404 -0.03454129 0.00727350
v -0.03303766 -0.03279898 0.01168064
v -0.03303695 -0.03061228 0.01588417
v -0.03303621 -0.02980913 0.01717568
v -0.03357406 -0.02478058 0.02331103
v -0.03303804 -0.01290985 0.03098921
v -0.03357597 -0.01290317 0.03097249
v -0.03303513 -0.01718897 0.02895526
v -0.03303637 -0.02117768 0.02639941
v -0.03303674 -0.02290622 0.02503584
v -0.03303642 -0.02478650 0.02333079
v -0.03303580 -0.02637873 0.02166859
v -0.03463523 -0.00662713 0.03202279
v -0.03463786 -0.01260993 0.03024701
v -0.03357549 -0.00677679 0.03279225
v -0.03430219 -0.00670765 0.03243665
v -0.03397469 -0.00675588 0.03268461
v -0.03357607 -0.00041558 0.03340856
v -0.03303822 -0.00678020 0.03281013
v -0.03243837 0.00373921 0.03316037
v -0.03243837 0.00504170 0.03296820
v -0.03243836 0.01056519 0.03156025
v -0.03243835 0.01598111 0.02912177
v -0.03243835 0.02046766 0.02606134
v -0.03243833 0.02779047 0.01786585
v -0.03303829 0.03021088 0.01326714
v -0.03243830 0.03279245 0.00297521
v -0.03303826 0.03283678 0.00246478
v -0.03976649 -0.00642197 0.02041171
v -0.03976649 -0.00442875 0.02089737
v -0.03730415 -0.00841093 0.02713824
v -0.03891562 -0.00732944 0.02348072
v -0.03822254 -0.01025367 0.02440895
v -0.03993254 -0.00800801 0.01886685
v -0.03923215 -0.00918255 0.02175737
v -0.03891561 -0.00503519 0.02403996
v -0.03730413 -0.00575792 0.02778519
v -0.03662889 -0.01145737 0.02739457
v -0.03303540 -0.02794265 0.01979808
v -0.03283256 -0.03701268 -0.00272565
v -0.03299101 -0.03652772 0.00001646
v -0.03400713 -0.03670353 -0.00621991
v -0.03372316 -0.03706507 -0.00611602
v -0.03423570 -0.03649069 -0.00460427
v -0.03395446 -0.03686158 -0.00451012
v -0.03378576 -0.03702161 -0.00446268
v -0.03358674 -0.03714061 -0.00441675
v -0.03336388 -0.03720648 -0.00437506
v -0.03313134 -0.03722677 -0.00433852
v -0.03412745 -0.03662316 -0.00290143
v -0.03396023 -0.03678675 -0.00286066
v -0.03353984 -0.03698581 -0.00279208
v -0.03330566 -0.03701520 -0.00276684
v -0.03376263 -0.03691182 -0.00282340
v -0.03434623 -0.03550183 0.00262303
v -0.03451065 -0.03600992 -0.00156741
v -0.03322382 -0.00245451 -0.06760088
v -0.03348780 -0.00564554 -0.06751991
v -0.03183257 0.00376886 -0.06760158
v -0.03267929 0.00068289 -0.06760242
v -0.03069329 0.00676324 -0.06760146
v -0.02928101 0.00961916 -0.06760076
v -0.00684083 0.02613287 -0.06760698
v -0.00994176 0.02534078 -0.06760690
v -0.01293909 0.02425881 -0.06760726
v -0.00367904 0.02663027 -0.06760723
v -0.00050206 0.02685526 -0.06745047
v -0.03302030 -0.00089076 -0.06743024
v -0.03277193 -0.01410805 -0.06761972
v -0.03319551 -0.01160344 -0.06742815
v -0.03325057 -0.01088618 -0.06762180
v -0.03346614 -0.00764248 -0.06761872
v -0.02414472 -0.03160639 -0.06739492
v -0.02426885 -0.03140893 -0.06760801
v -0.02637477 -0.02901546 -0.06738793
v -0.02638269 -0.02892933 -0.06760634
v -0.02834657 -0.02609446 -0.06738595
v -0.02821781 -0.02622628 -0.06760655
v -0.02925807 -0.02446127 -0.06738687
v -0.02976337 -0.02336346 -0.06760957
v -0.03005373 -0.02283265 -0.06738897
v -0.03102903 -0.02037642 -0.06761225
v -0.03145529 -0.01927557 -0.06739707
v -0.03203137 -0.01728098 -0.06761550
v -0.03251233 -0.01549793 -0.06741019
v -0.03290093 -0.01356332 -0.06741857
v -0.01635668 -0.03709438 -0.06760763
v -0.01921262 -0.03554279 -0.06760117
v -0.01928904 -0.03555128 -0.06741197
v -0.01015611 -0.03912442 -0.06761128
v -0.01331719 -0.03828857 -0.06761193
v -0.01365437 -0.03822113 -0.06742845
v -0.01513950 -0.03767151 -0.06742435
v -0.01655350 -0.03705250 -0.06742030
v -0.00695622 -0.03962882 -0.06761409
v -0.00695889 -0.03966050 -0.06744564
v -0.00732880 -0.03961805 -0.06744473
v -0.01058539 -0.03907105 -0.06743655
v -0.00318156 -0.03990997 -0.06745484
v -0.00049899 -0.03991727 -0.06761726
v -0.02186934 -0.03362981 -0.06760482
v -0.02302913 -0.03269052 -0.06739918
v -0.02185859 -0.03370353 -0.06740340
v -0.00049734 -0.03994247 -0.05862613
v -0.00509283 -0.03982224 -0.05862609
v -0.00048023 -0.03981645 -0.03325545
v -0.00048322 -0.03977129 -0.03130184
v -0.00048779 -0.03973383 -0.02994814
v -0.00049758 -0.03959250 -0.02658298
v -0.04013932 0.00651525 -0.01733579
v -0.03996195 0.00328863 -0.01958044
v -0.04014129 -0.00436689 -0.01824107
v -0.04014773 -0.01807998 -0.00610047
v -0.03913125 -0.02170062 -0.01232742
v -0.03979985 -0.02108415 -0.00447695
v -0.03946099 -0.01571276 0.01656259
v -0.04014723 -0.01304939 0.01392217
v -0.03978052 -0.00854748 0.01954524
v -0.03888863 -0.01168176 0.02177481
v -0.03463711 -0.01479206 0.02928845
v -0.03567384 -0.01760973 0.02602092
v -0.03657617 -0.02175125 0.02092535
v -0.03463193 -0.03379542 0.00697569
v -0.03463284 -0.03209019 0.01129822
v -0.03463484 -0.02995345 0.01542367
v -0.03678565 -0.02577366 0.01557718
v -0.03463454 -0.02850919 0.01767651
v -0.03440707 -0.03624880 -0.00298565
v -0.03327437 -0.03630318 -0.01356568
v -0.03349796 -0.03700995 -0.00887003
v -0.00048541 -0.03975254 -0.03059792
v -0.00079576 -0.03975867 -0.03096150
v -0.00048196 -0.03984994 -0.03497680
v -0.00161572 -0.03990150 -0.04145342
v -0.03966946 -0.01457073 -0.01663872
v -0.00049750 -0.03993347 -0.04348533
v -0.00049645 -0.03991899 -0.04024049
v -0.00048784 -0.03988271 -0.03694731
v -0.03827104 -0.01879711 0.01877792
v -0.03841602 -0.02281079 0.01338462
v -0.03635606 -0.02966068 0.01009570
v -0.03801299 -0.02675871 0.00786154
v -0.03538864 -0.03336761 0.00461171
v -0.03710032 -0.03062718 0.00231055
v -0.03463025 -0.03513216 0.00252507
v -0.03953952 -0.01970057 0.01115094
v -0.03918936 -0.02367375 0.00561289
v -0.03993564 -0.02044099 0.00336773
v -0.03922360 -0.02444196 -0.00224563
v -0.03691328 -0.03149701 -0.00556683
v -0.03788866 -0.02845051 -0.00787749
v -0.03860779 -0.02515848 -0.01012759
v -0.03669144 -0.02918431 -0.01568492
v -0.03472352 -0.03491437 -0.01099141
v -0.03696086 -0.03039527 -0.01066025
v -0.03733360 -0.02584553 -0.01790505
v -0.03948141 -0.01815167 -0.01449235
v -0.03447803 -0.03388898 -0.01601293
v -0.03751246 -0.01470565 0.02394057
v -0.03835630 -0.02763925 0.00001867
v -0.03561927 -0.03427126 -0.00320052
v -0.03459984 -0.03587893 -0.00589909
v -0.03592358 -0.03328948 -0.00831368
v -0.03583564 -0.03223281 -0.01338388
v 0.03244370 -0.03489008 0.00622744
v 0.00050499 -0.03959915 -0.02658295
v 0.03102693 0.00605974 -0.06742843
v 0.03217483 0.00276223 -0.06742657
v 0.03298662 -0.00069336 -0.06742627
v 0.03341515 -0.00405740 -0.06742754
v 0.00050456 -0.03991647 -0.06761768
v -0.00049725 -0.03994139 -0.06746190
v 0.00050451 -0.03994051 -0.06746241
v 0.00050461 0.02682544 -0.06761599
v 0.00050461 0.02685364 -0.06745046
v 0.00524151 -0.03969801 -0.06776298
v 0.04014840 -0.00436761 -0.01824119
v 0.04014570 -0.00169706 -0.01863714
v 0.04015208 -0.00695836 -0.01746215
v 0.04015439 -0.00943336 -0.01631056
v 0.04015482 -0.01176318 -0.01478644
v 0.04015467 -0.01383769 -0.01296096
v 0.04015429 -0.01559972 -0.01087301
v 0.04015301 -0.01701520 -0.00857850
v 0.04015357 -0.01808064 -0.00609901
v 0.04015636 -0.01879178 -0.00344264
v 0.04015804 -0.01911337 -0.00071885
v 0.04015670 -0.01903435 0.00197817
v 0.04015385 -0.01855995 0.00469471
v 0.04015233 -0.01770758 0.00728632
v 0.04015315 -0.01649204 0.00971458
v 0.04015533 -0.01493464 0.01193206
v 0.04015619 -0.01304697 0.01392467
v 0.04015372 -0.01087991 0.01564429
v 0.04015244 -0.00853765 0.01699744
v 0.04015166 -0.00744644 0.01748140
v 0.04015156 -0.00515859 0.01824019
v 0.04015127 -0.00280210 0.01870153
v 0.04015103 -0.00041542 0.01885561
v 0.04015039 0.00486227 0.01809985
v 0.04015034 0.00979863 0.01583416
v 0.04015092 0.01821087 0.00238488
v 0.04015031 0.01198006 0.01418291
v 0.04015037 0.01388344 0.01225058
v 0.04015044 0.01455024 0.01141665
v 0.04015055 0.01549891 0.01003052
v 0.04015061 0.01677607 0.00759883
v 0.04015072 0.01768415 0.00502361
v 0.04015094 0.01834667 -0.00033363
v 0.04015084 0.01822780 -0.00201010
v 0.04015080 0.01807644 -0.00305622
v 0.04015094 0.01741219 -0.00571220
v 0.04015107 0.01438120 -0.01142149
v 0.04015188 0.01128097 -0.01456176
v 0.04015139 0.00903414 -0.01609774
v 0.04014996 0.00649981 -0.01734444
v 0.04014820 0.00387691 -0.01818537
v 0.04014608 0.00135031 -0.01860552
v 0.03976086 0.01357986 -0.01589220
v 0.03729364 0.00922068 0.02663545
v 0.03464115 0.01190146 0.03020785
v 0.03464029 0.01631142 0.02800099
v 0.03729374 0.01410185 0.02431403
v 0.03729356 0.02211079 0.01713730
v 0.03464590 0.02519281 0.02017329
v 0.03464567 0.02238730 0.02330864
v 0.03729378 0.01845566 0.02110974
v 0.03464137 0.02756629 0.01669947
v 0.03463878 0.02881415 0.01438559
v 0.03729356 0.02495004 0.01249508
v 0.03463800 0.02947331 0.01294924
v 0.03729366 0.02684209 0.00746838
v 0.03464000 0.03088306 0.00898496
v 0.03729370 0.02774780 0.00233162
v 0.03464830 0.03202510 0.00267343
v 0.03464984 0.03212298 0.00068028
v 0.03729360 0.02650567 -0.00839715
v 0.03463762 0.03061007 -0.00968807
v 0.03729368 0.02471379 -0.01276036
v 0.03729387 0.02187751 -0.01724105
v 0.03989452 0.00991889 -0.01761650
v 0.04015134 0.01327655 -0.01271500
v 0.03976056 0.01635182 -0.01295181
v 0.03976035 0.01848628 -0.00958069
v 0.04015105 0.01499066 -0.01059326
v 0.03976028 0.01983501 -0.00629788
v 0.04015114 0.01637347 -0.00825049
v 0.03976043 0.02009085 0.00563986
v 0.03976032 0.01866707 0.00942204
v 0.03976028 0.01653145 0.01291565
v 0.03976043 0.01378372 0.01590634
v 0.03976041 0.01050751 0.01831631
v 0.04015028 0.00741214 0.01714982
v 0.04015029 0.00598768 0.01773248
v 0.04015079 0.00219819 0.01867453
v 0.03976034 0.00683361 0.02006177
v 0.03976047 -0.00041542 0.02133928
v 0.03890472 -0.00041543 0.02453188
v 0.03890505 0.01568714 -0.01829340
v 0.03890475 0.01887541 -0.01491096
v 0.03890451 0.02133042 -0.01103308
v 0.03890442 0.02288155 -0.00725683
v 0.03890445 0.02387637 -0.00264387
v 0.03729361 0.02765443 -0.00306736
v 0.03890457 0.02395798 0.00202907
v 0.03890453 0.02317427 0.00647486
v 0.03890441 0.02153665 0.01082547
v 0.03890462 0.01591745 0.01828287
v 0.03890458 0.01214913 0.02105559
v 0.03890448 0.00792389 0.02306406
v 0.03890459 0.00340973 0.02422870
v 0.03729375 0.00400461 0.02798022
v 0.03729389 -0.00041544 0.02832944
v 0.03464157 0.00378305 0.03235249
v 0.03464206 -0.00041547 0.03262393
v 0.03976040 0.00290954 0.02107490
v 0.03890439 0.01907964 0.01484368
v 0.03976046 0.02077204 0.00177495
v 0.03976033 0.02070035 -0.00228759
v 0.01153878 -0.03928696 -0.02601208
v 0.00594703 -0.03952974 -0.02657177
v 0.03372855 -0.03706496 -0.00611620
v 0.03245293 -0.03760992 -0.01152428
v 0.03330637 -0.03709292 -0.00974046
v 0.03153991 -0.03780583 -0.01415138
v 0.03035392 -0.03797682 -0.01666348
v 0.02884102 -0.03813373 -0.01898520
v 0.02699282 -0.03829411 -0.02104138
v 0.02482574 -0.03846906 -0.02274903
v 0.02238561 -0.03865483 -0.02403074
v 0.01976757 -0.03883752 -0.02490764
v 0.01705840 -0.03900521 -0.02547239
v 0.01279182 -0.03923871 -0.02634504
v 0.01156365 -0.03930210 -0.02641957
v 0.00754347 -0.03947825 -0.02655109
v 0.03290558 -0.03739571 -0.00590809
v 0.03191556 -0.03777764 -0.01130073
v 0.03118756 -0.03791034 -0.01397245
v 0.03210361 -0.03776797 -0.01137485
v 0.03313613 -0.03738592 -0.00595587
v 0.03018598 -0.03802165 -0.01655894
v 0.03136685 -0.03788219 -0.01406132
v 0.03228263 -0.03771213 -0.01144897
v 0.03355825 -0.03721850 -0.00606220
v 0.03335840 -0.03732941 -0.00600781
v 0.03304365 0.03283688 0.00246460
v 0.03304366 0.03256038 0.00499020
v 0.03358188 0.03254305 0.00498761
v 0.03304367 0.03143141 0.00995524
v 0.03430846 0.02792910 0.01691468
v 0.03464397 0.02132446 0.02430458
v 0.03464147 0.01919903 0.02605383
v 0.03430841 0.01945311 0.02639062
v 0.03304375 0.01114433 0.03136266
v 0.03358101 0.00811218 0.03230206
v 0.03464093 0.01068752 0.03067590
v 0.03430883 -0.00041547 0.03304593
v 0.03304374 -0.00041547 0.03342659
v 0.03304376 0.00811674 0.03231974
v 0.03304376 0.00388652 0.03314961
v 0.03358144 0.00388423 0.03313143
v 0.03398084 0.00387007 0.03302224
v 0.03358146 -0.00041547 0.03340838
v 0.03398018 0.00808419 0.03219588
v 0.03430842 0.00383745 0.03277115
v 0.03398104 -0.00041547 0.03329868
v 0.03304375 0.01220441 0.03095047
v 0.03358099 0.01607241 0.02904899
v 0.03398059 0.01215643 0.03083212
v 0.03358116 0.01219772 0.03093357
v 0.03430759 0.00801963 0.03195147
v 0.03464126 0.00467751 0.03222389
v 0.03304373 0.01794471 0.02792183
v 0.03358126 0.01967114 0.02668000
v 0.03398013 0.01601821 0.02895344
v 0.03464045 0.00791188 0.03154368
v 0.03430823 0.01206097 0.03059832
v 0.03464039 0.01568465 0.02836705
v 0.03430752 0.01589324 0.02873365
v 0.03398073 0.01960524 0.02659238
v 0.03304373 0.01968192 0.02669466
v 0.03358218 0.02580694 0.02065505
v 0.03398326 0.02572234 0.02058850
v 0.03398312 0.02285876 0.02378953
v 0.03431209 0.02268283 0.02361003
v 0.03304370 0.02582064 0.02066616
v 0.03358221 0.02293435 0.02386675
v 0.03304372 0.02294666 0.02387957
v 0.03358117 0.02824013 0.01709948
v 0.03304369 0.02825555 0.01710899
v 0.03304369 0.02836068 0.01693056
v 0.03398072 0.02814616 0.01704351
v 0.03431238 0.02552493 0.02043364
v 0.03304367 0.03165404 0.00920482
v 0.03358074 0.03163663 0.00919966
v 0.03358030 0.03019419 0.01325951
v 0.03464543 0.02553487 0.01972852
v 0.03397878 0.03009297 0.01321582
v 0.03430557 0.02986050 0.01311577
v 0.03304365 0.03291531 0.00069399
v 0.03398295 0.03243710 0.00497181
v 0.03397989 0.03153132 0.00916956
v 0.03430728 0.03128852 0.00910042
v 0.03464551 0.03177251 0.00487284
v 0.03398537 0.03279310 0.00069196
v 0.03358277 0.03289829 0.00069375
v 0.03358195 0.03269523 -0.00361012
v 0.03358053 0.03193806 -0.00785147
v 0.03397991 0.03183270 -0.00782522
v 0.03431593 0.03254458 0.00068764
v 0.03431316 0.03234214 -0.00356986
v 0.03464662 0.03192349 -0.00352224
v 0.03463605 0.02991077 -0.01167466
v 0.03430397 0.03030278 -0.01182764
v 0.03464020 0.03117991 -0.00766333
v 0.03430757 0.03158866 -0.00776466
v 0.03397753 0.03053801 -0.01191958
v 0.03431211 0.03218953 0.00493492
v 0.03398352 0.03258982 -0.00359808
v 0.03398589 -0.03579026 0.00270004
v 0.03430577 -0.03419177 0.00712345
v 0.03358121 -0.01290303 0.03097222
v 0.03357860 -0.01718124 0.02893884
v 0.03304052 -0.01718887 0.02895511
v 0.03304176 -0.02117758 0.02639923
v 0.03357925 -0.02117053 0.02638189
v 0.03304213 -0.02290612 0.02503569
v 0.03464163 -0.01680589 0.02825327
v 0.03430652 -0.02096183 0.02608631
v 0.03463986 -0.02071506 0.02574439
v 0.03430652 -0.02453819 0.02304010
v 0.03463967 -0.02425001 0.02273152
v 0.03463973 -0.02734186 0.01926515
v 0.03304182 -0.02478640 0.02333064
v 0.03357946 -0.02478049 0.02331088
v 0.03304119 -0.02637864 0.02166841
v 0.03357857 -0.02793686 0.01977588
v 0.03304080 -0.02794255 0.01979790
v 0.03304161 -0.02980903 0.01717550
v 0.03357989 -0.03060489 0.01586086
v 0.03304306 -0.03279888 0.01168046
v 0.03303943 -0.03454120 0.00727333
v 0.03357720 -0.03452756 0.00725768
v 0.03304918 -0.03591322 0.00273655
v 0.03358545 -0.03589620 0.00272960
v 0.03397747 -0.03442734 0.00721396
v 0.03358002 -0.03278858 0.01165880
v 0.03397950 -0.03051784 0.01579345
v 0.03397835 -0.02785788 0.01969961
v 0.03397883 -0.02470933 0.02322663
v 0.03397869 -0.01712954 0.02884326
v 0.03397892 -0.03269360 0.01160176
v 0.03430617 -0.03246842 0.01148588
v 0.03430740 -0.03030786 0.01565299
v 0.03430646 -0.02766610 0.01953546
v 0.03397867 -0.02110863 0.02629156
v 0.03430734 -0.01700872 0.02862267
v 0.03430902 -0.01276772 0.03063739
v 0.03464023 -0.02995335 0.01542349
v 0.03463823 -0.03209009 0.01129804
v 0.03431213 -0.03554456 0.00263424
v 0.03464063 -0.00662702 0.03202261
v 0.03430758 -0.00670755 0.03243647
v 0.03398008 -0.00675578 0.03268443
v 0.03358088 -0.00677669 0.03279207
v 0.03464325 -0.01260982 0.03024686
v 0.03398082 -0.01286214 0.03087101
v 0.03304361 -0.00678010 0.03280998
v 0.03304364 0.03271237 -0.00361221
v 0.03304368 0.03021099 0.01326699
v 0.03244372 0.02836071 0.01693059
v 0.03304372 0.02378532 0.02302570
v 0.03304374 0.01608125 0.02906496
v 0.03977188 -0.00642188 0.02041153
v 0.03908346 -0.00937033 0.02223803
v 0.03892101 -0.00732934 0.02348057
v 0.03892104 -0.00955819 0.02270249
v 0.03730955 -0.00841083 0.02713809
v 0.03661030 -0.01147158 0.02743293
v 0.03977189 -0.00442865 0.02089722
v 0.03892100 -0.00503509 0.02403981
v 0.03730952 -0.00575782 0.02778501
v 0.03975979 -0.00838087 0.01979170
v 0.03304343 -0.01290975 0.03098903
v 0.03304234 -0.03061218 0.01588399
v 0.03283795 -0.03701258 -0.00272583
v 0.03395985 -0.03686149 -0.00451030
v 0.03413284 -0.03662306 -0.00290157
v 0.03379115 -0.03702150 -0.00446283
v 0.03359214 -0.03714050 -0.00441693
v 0.03396562 -0.03678665 -0.00286083
v 0.03376802 -0.03691172 -0.00282358
v 0.03336927 -0.03720638 -0.00437524
v 0.03313673 -0.03722667 -0.00433867
v 0.03354523 -0.03698571 -0.00279223
v 0.03331105 -0.03701510 -0.00276699
v 0.03424109 -0.03649060 -0.00460445
v 0.03451604 -0.03600982 -0.00156759
v 0.03299658 -0.03652783 0.00001631
v 0.03430539 0.02850722 -0.01569255
v 0.03463779 0.02813785 -0.01549022
v 0.00684622 0.02613297 -0.06760714
v 0.00994715 0.02534087 -0.06760708
v 0.00368444 0.02663037 -0.06760740
v 0.01294448 0.02425891 -0.06760743
v 0.03328589 -0.00271668 -0.06742585
v 0.03069868 0.00676333 -0.06760163
v 0.03183796 0.00376897 -0.06760175
v 0.03268468 0.00068298 -0.06760258
v 0.03322921 -0.00245441 -0.06760105
v 0.03350340 -0.00564549 -0.06752411
v 0.02928640 0.00961927 -0.06760093
v 0.01129981 0.02492088 -0.06744500
v 0.00777132 0.02595547 -0.06744667
v 0.00415037 0.02660164 -0.06744864
v 0.03347153 -0.00764239 -0.06761888
v 0.03350080 -0.00764345 -0.06745110
v 0.00158122 -0.03993637 -0.06746029
v 0.00696161 -0.03962871 -0.06761425
v 0.01332258 -0.03828847 -0.06761209
v 0.01278497 -0.03850053 -0.06741355
v 0.01016150 -0.03912432 -0.06761146
v 0.00959207 -0.03927375 -0.06742633
v 0.00618212 -0.03973823 -0.06744296
v 0.01921801 -0.03554269 -0.06760135
v 0.01865776 -0.03593963 -0.06738979
v 0.01636207 -0.03709429 -0.06760781
v 0.01514487 -0.03767133 -0.06740593
v 0.02618521 -0.02926750 -0.06739790
v 0.02638808 -0.02892923 -0.06760650
v 0.02427424 -0.03140882 -0.06760817
v 0.02388015 -0.03187997 -0.06739504
v 0.02303382 -0.03268963 -0.06739334
v 0.02187473 -0.03362972 -0.06760500
v 0.02135465 -0.03410607 -0.06738941
v 0.03203676 -0.01728088 -0.06761567
v 0.03250280 -0.01557267 -0.06744363
v 0.03141832 -0.01940170 -0.06743076
v 0.03103442 -0.02037632 -0.06761242
v 0.02996479 -0.02303870 -0.06741781
v 0.02976876 -0.02336336 -0.06760973
v 0.02822320 -0.02622618 -0.06760671
v 0.02826005 -0.02624756 -0.06740510
v 0.03325596 -0.01088609 -0.06762198
v 0.03319941 -0.01162903 -0.06745302
v 0.03277732 -0.01410795 -0.06761988
v 0.03290858 -0.01356363 -0.06744928
v 0.02926386 -0.02446139 -0.06741197
v 0.01923389 -0.03558918 -0.06738853
v 0.01582495 -0.03738584 -0.06740259
v 0.00050470 -0.03993946 -0.05862624
v 0.00047429 -0.03983953 -0.03409438
v 0.00051193 -0.03988465 -0.03710457
v 0.00051200 -0.03988035 -0.03682010
v 0.00051142 -0.03977221 -0.03135173
v 0.00051072 -0.03974999 -0.03051656
v 0.00050407 -0.03993126 -0.04280442
v 0.00050048 -0.03993478 -0.04882276
v 0.00050432 -0.03993058 -0.04261275
v -0.00049744 -0.03993080 -0.04264182
v 0.00050473 -0.03992952 -0.04233095
v -0.00049744 -0.03993073 -0.04262297
v 0.00050875 -0.03991865 -0.04021334
v -0.00049724 -0.03992573 -0.04143189
v 0.03691867 -0.03149691 -0.00556697
v 0.03562467 -0.03427117 -0.00320070
v 0.00080115 -0.03975858 -0.03096168
v 0.03441246 -0.03624871 -0.00298580
v 0.03460523 -0.03587883 -0.00589927
v 0.03401252 -0.03670343 -0.00622009
v 0.03679105 -0.02577356 0.01557703
v 0.03463993 -0.02850909 0.01767633
v 0.03567923 -0.01760962 0.02602074
v 0.03804918 -0.01040412 0.02479390
v 0.03889402 -0.01168166 0.02177463
v 0.03978591 -0.00854738 0.01954509
v 0.03946638 -0.01571266 0.01656241
v 0.03994104 -0.02044090 0.00336758
v 0.03861318 -0.02515837 -0.01012777
v 0.03913664 -0.02170051 -0.01232760
v 0.03948680 -0.01815156 -0.01449253
v 0.03967485 -0.01457064 -0.01663887
v 0.00162112 -0.03990141 -0.04145359
v 0.00579058 -0.03976984 -0.05862570
v 0.00295834 -0.03987969 -0.05198196
v 0.03464250 -0.01479194 0.02928827
v 0.03751785 -0.01470555 0.02394039
v 0.03658156 -0.02175115 0.02092520
v 0.03827643 -0.01879701 0.01877777
v 0.03842142 -0.02281069 0.01338447
v 0.03636146 -0.02966058 0.01009555
v 0.03801838 -0.02675860 0.00786139
v 0.03954492 -0.01970047 0.01115079
v 0.03710571 -0.03062708 0.00231041
v 0.03919476 -0.02367365 0.00561271
v 0.03224556 -0.03743488 -0.01335402
v 0.03327977 -0.03630308 -0.01356586
v 0.03278456 -0.03728032 -0.01168655
v 0.03592898 -0.03328938 -0.00831382
v 0.03463732 -0.03379531 0.00697554
v 0.03539403 -0.03336751 0.00461153
v 0.03463564 -0.03513207 0.00252489
v 0.03836169 -0.02763916 0.00001849
v 0.03696625 -0.03039518 -0.01066040
v 0.03980524 -0.02108405 -0.00447713
v 0.03789406 -0.02845041 -0.00787764
v 0.03669683 -0.02918421 -0.01568507
v 0.03733899 -0.02584543 -0.01790520
v 0.03448343 -0.03388888 -0.01601311
v 0.03472891 -0.03491428 -0.01099159
v 0.03584104 -0.03223271 -0.01338403
v 0.03922899 -0.02444186 -0.00224580
v 0.02992975 0.00845662 -0.06742928
v -0.00000000 0.01776000 -0.10320000
v 0.00621166 0.01694222 -0.10320000
v 0.01697056 0.01073057 -0.10320000
v 0.02318222 -0.00002834 -0.10320000
v 0.02400000 -0.00624000 -0.10320000
v 0.02318222 -0.01245165 -0.10320000
v 0.02078461 -0.01824000 -0.10320000
v 0.01697056 -0.02321056 -0.10320000
v 0.00621166 -0.02942222 -0.10320000
v -0.00000000 -0.03024000 -0.10320000
v -0.00621166 -0.02942222 -0.10320000
v -0.01200000 -0.02702461 -0.10320000
v -0.02078461 -0.01824000 -0.10320000
v -0.02318222 -0.01245165 -0.10320000
v -0.02400000 -0.00624000 -0.10320000
v -0.02318222 -0.00002834 -0.10320000
v -0.02078461 0.00576000 -0.10320000
v -0.01697056 0.01073057 -0.10320000
v -0.01200000 0.01454461 -0.10320000
v -0.00621166 0.01694222 -0.10320000
v -0.01697056 -0.02321056 -0.10320000
v 0.01200000 -0.02702461 -0.10320000
v 0.02078461 0.00576000 -0.10320000
v 0.01200000 0.01454461 -0.10320000
f 182 187 203
f 280 235 281
f 657 886 635
f 994 886 586
f 993 886 994
f 999 998 895
f 511 1000 999
f 16 723 322
f 723 10 322
f 880 991 990
f 880 891 991
f 990 590 880
f 880 590 591
f 991 891 878
f 203 220 221
f 187 182 183
f 235 280 238
f 238 234 235
f 287 210 267
f 263 280 281
f 281 267 263
f 885 676 675
f 635 886 585
f 885 675 585
f 585 675 635
f 585 993 885
f 585 886 993
f 586 886 882
f 882 657 586
f 886 657 882
f 660 676 677
f 677 676 656
f 676 884 656
f 1012 883 993
f 999 516 515
f 990 1009 482
f 1009 172 482
f 172 358 482
f 318 333 332
f 334 358 335
f 334 319 15
f 15 358 334
f 319 334 444
f 881 1013 991
f 785 1013 881
f 879 991 890
f 991 878 890
f 784 890 878
f 784 785 879
f 879 890 784
f 722 723 724
f 722 10 723
f 722 444 10
f 722 776 319
f 319 444 722
f 15 319 11
f 319 776 11
f 1003 499 500
f 1003 485 487
f 487 194 179
f 1003 487 1004
f 480 1009 175
f 1009 481 175
f 1008 481 1009
f 222 223 203
f 203 221 222
f 222 269 223
f 222 221 269
f 223 269 270
f 838 691 733
f 861 420 419
f 861 419 418
f 418 817 861
f 187 183 186
f 186 183 184
f 556 563 558
f 558 542 556
f 564 183 182
f 184 183 564
f 239 238 237
f 234 238 239
f 219 263 209
f 209 263 267
f 203 219 209
f 268 221 220
f 269 221 268
f 285 269 268
f 210 287 211
f 211 220 203
f 203 210 211
f 211 268 220
f 287 268 211
f 418 417 818
f 818 817 418
f 176 818 417
f 995 994 920
f 292 550 293
f 293 550 554
f 524 525 293
f 582 525 524
f 412 176 410
f 410 176 417
f 630 657 635
f 630 631 657
f 52 156 630
f 676 660 659
f 635 675 659
f 659 675 676
f 885 993 584
f 993 884 584
f 584 676 885
f 584 884 676
f 993 883 583
f 583 884 993
f 583 656 884
f 1001 1000 509
f 1000 511 506
f 511 513 506
f 587 516 999
f 999 894 587
f 592 894 999
f 910 1011 997
f 717 705 704
f 717 707 706
f 706 705 717
f 170 511 999
f 999 515 170
f 170 515 511
f 588 515 516
f 516 587 588
f 520 515 588
f 511 515 512
f 512 513 511
f 296 513 512
f 480 354 174
f 354 479 174
f 174 1009 480
f 174 479 1009
f 173 358 172
f 173 172 1009
f 1009 479 173
f 173 479 354
f 354 358 173
f 320 358 15
f 357 358 354
f 335 358 357
f 483 590 990
f 990 482 483
f 591 590 483
f 483 482 358
f 358 320 483
f 483 320 15
f 15 11 483
f 283 267 281
f 283 287 267
f 232 283 282
f 281 235 282
f 282 283 281
f 231 232 230
f 230 351 231
f 353 351 230
f 232 282 230
f 332 333 343
f 343 239 237
f 16 322 321
f 321 318 16
f 333 318 321
f 322 444 321
f 321 444 334
f 335 333 321
f 321 334 335
f 443 322 10
f 10 444 443
f 443 444 322
f 889 991 879
f 889 881 991
f 879 785 889
f 785 881 889
f 591 483 845
f 845 483 11
f 179 194 193
f 196 182 203
f 196 195 182
f 501 485 1003
f 1003 500 501
f 486 487 485
f 488 487 179
f 488 1004 487
f 355 357 354
f 481 1008 355
f 355 175 481
f 355 354 480
f 480 175 355
f 474 488 179
f 1004 488 474
f 179 191 474
f 191 192 474
f 724 723 9
f 9 723 16
f 364 318 317
f 317 725 364
f 16 318 364
f 681 650 682
f 678 653 679
f 966 947 968
f 968 947 967
f 967 835 836
f 947 835 967
f 395 420 455
f 420 861 815
f 815 455 420
f 182 195 531
f 531 564 182
f 569 500 499
f 563 556 562
f 562 564 563
f 187 186 562
f 532 562 556
f 187 562 532
f 545 574 491
f 545 491 490
f 267 210 208
f 208 209 267
f 208 210 203
f 203 209 208
f 279 238 280
f 717 702 718
f 697 713 712
f 712 582 697
f 870 465 712
f 711 713 697
f 696 713 711
f 697 928 711
f 416 176 412
f 412 457 416
f 818 176 581
f 581 819 818
f 581 416 820
f 176 416 581
f 997 996 906
f 915 996 995
f 892 920 994
f 958 920 596
f 955 983 984
f 984 983 912
f 943 928 697
f 290 303 292
f 292 293 290
f 290 293 303
f 389 410 409
f 409 417 418
f 409 410 417
f 391 542 543
f 408 420 395
f 419 420 408
f 394 409 408
f 418 419 408
f 408 409 418
f 49 633 632
f 152 156 52
f 49 632 158
f 631 630 51
f 51 630 156
f 635 659 658
f 658 630 635
f 52 630 658
f 658 152 52
f 677 656 655
f 655 678 677
f 653 678 655
f 655 583 883
f 656 583 655
f 679 653 680
f 650 681 680
f 680 681 679
f 680 652 650
f 653 655 789
f 790 1012 992
f 790 876 1012
f 507 509 1000
f 1001 509 503
f 894 592 900
f 999 895 900
f 900 592 999
f 900 706 707
f 705 706 900
f 900 704 705
f 520 933 552
f 552 515 520
f 552 550 515
f 929 928 554
f 711 929 959
f 959 933 894
f 998 897 898
f 898 897 702
f 998 1011 904
f 904 1011 903
f 702 897 904
f 291 550 292
f 589 587 894
f 589 588 587
f 520 588 589
f 589 927 520
f 894 927 589
f 296 512 295
f 295 512 308
f 284 268 287
f 287 283 284
f 285 268 284
f 284 283 232
f 229 475 285
f 285 284 229
f 229 284 232
f 231 351 1006
f 1006 353 1007
f 1006 351 353
f 239 343 361
f 234 239 361
f 361 333 335
f 361 343 333
f 335 357 361
f 724 777 781
f 528 191 179
f 179 193 528
f 195 196 197
f 194 487 551
f 551 196 194
f 487 486 551
f 551 197 196
f 572 501 500
f 500 569 572
f 572 569 568
f 352 355 1008
f 352 1008 1007
f 1007 353 352
f 356 352 353
f 355 352 356
f 285 476 286
f 286 269 285
f 286 270 269
f 285 475 177
f 177 476 285
f 177 475 1005
f 1005 476 177
f 180 270 473
f 1005 1004 473
f 202 192 191
f 202 474 192
f 225 270 180
f 225 226 270
f 180 473 181
f 181 225 180
f 226 225 181
f 1004 474 181
f 181 473 1004
f 223 270 228
f 270 226 228
f 203 223 228
f 724 9 771
f 771 777 724
f 365 341 366
f 135 62 132
f 66 104 105
f 167 124 66
f 648 649 647
f 682 650 648
f 650 780 648
f 648 780 649
f 665 683 666
f 629 658 659
f 688 687 636
f 674 688 689
f 687 688 674
f 685 667 684
f 968 967 970
f 942 941 970
f 980 983 955
f 601 600 38
f 953 966 969
f 969 608 953
f 37 602 601
f 850 859 612
f 162 129 66
f 64 65 66
f 814 815 813
f 455 815 814
f 395 397 393
f 393 408 395
f 394 408 393
f 395 455 428
f 812 814 813
f 810 428 812
f 455 814 812
f 812 428 455
f 529 531 195
f 529 197 198
f 195 197 529
f 568 531 530
f 485 501 530
f 530 572 568
f 501 572 530
f 563 564 565
f 564 531 565
f 565 531 568
f 185 562 186
f 564 562 185
f 185 186 184
f 184 564 185
f 491 574 494
f 494 495 1002
f 1002 495 496
f 717 718 714
f 714 707 717
f 714 708 707
f 701 718 702
f 821 581 820
f 819 581 821
f 821 796 822
f 822 819 821
f 995 912 914
f 914 915 995
f 912 983 914
f 983 915 914
f 913 912 995
f 995 922 913
f 913 984 912
f 995 920 921
f 921 920 958
f 957 921 958
f 887 632 633
f 887 994 586
f 887 892 994
f 586 657 887
f 657 632 887
f 958 596 597
f 928 943 931
f 549 293 554
f 549 522 293
f 554 928 549
f 928 522 549
f 524 293 548
f 293 522 548
f 465 305 304
f 304 712 465
f 582 712 304
f 525 582 304
f 304 293 525
f 303 293 304
f 304 305 303
f 464 305 465
f 389 406 407
f 389 409 390
f 390 409 394
f 541 543 542
f 657 631 50
f 50 632 657
f 50 158 632
f 128 152 155
f 156 152 128
f 129 158 159
f 158 50 159
f 159 51 156
f 652 680 788
f 877 789 655
f 1012 876 877
f 876 790 877
f 877 790 789
f 877 888 1012
f 655 888 877
f 992 1013 793
f 793 790 992
f 793 1013 785
f 517 1010 1001
f 1000 506 514
f 514 507 1000
f 514 506 513
f 309 513 296
f 309 514 513
f 296 295 309
f 309 295 308
f 1001 503 504
f 504 517 1001
f 505 517 504
f 299 311 300
f 299 300 298
f 298 297 299
f 717 704 703
f 704 900 703
f 703 900 895
f 894 933 934
f 934 927 894
f 934 933 520
f 520 927 934
f 554 550 553
f 553 929 554
f 930 711 928
f 928 929 930
f 930 929 711
f 710 713 696
f 696 711 710
f 711 959 710
f 708 714 710
f 710 714 713
f 707 708 960
f 960 900 707
f 894 900 960
f 899 895 998
f 998 898 899
f 717 703 899
f 899 703 895
f 899 702 717
f 899 898 702
f 896 897 998
f 998 904 896
f 896 904 897
f 909 910 997
f 997 906 905
f 905 907 997
f 903 1011 902
f 1011 901 902
f 902 701 903
f 550 291 521
f 521 512 515
f 515 550 521
f 477 1006 1005
f 782 11 776
f 776 722 782
f 782 722 724
f 724 781 782
f 236 282 235
f 357 355 359
f 355 356 359
f 234 361 359
f 359 361 357
f 270 286 484
f 484 286 476
f 484 473 270
f 484 476 1005
f 1005 473 484
f 527 202 224
f 474 202 527
f 226 181 526
f 526 181 474
f 224 202 526
f 526 527 224
f 474 527 526
f 264 219 203
f 203 218 264
f 217 218 203
f 212 213 203
f 214 215 203
f 203 213 214
f 188 532 534
f 205 206 203
f 254 271 385
f 385 429 384
f 256 271 254
f 340 385 384
f 254 385 340
f 770 771 9
f 770 9 16
f 16 364 770
f 770 364 725
f 725 771 770
f 777 771 778
f 725 7 846
f 323 344 316
f 316 344 442
f 316 318 332
f 332 365 316
f 317 318 316
f 316 442 317
f 317 442 14
f 14 725 317
f 14 7 725
f 14 846 7
f 442 846 14
f 642 761 727
f 727 761 729
f 136 137 60
f 134 136 61
f 134 135 136
f 117 67 66
f 66 105 117
f 139 137 123
f 123 124 139
f 66 124 123
f 149 150 125
f 125 150 146
f 953 859 951
f 965 966 953
f 953 951 965
f 965 951 963
f 947 966 965
f 650 652 651
f 651 780 650
f 759 768 765
f 766 8 765
f 693 640 684
f 666 683 693
f 684 667 693
f 693 667 666
f 769 768 759
f 646 683 682
f 682 648 646
f 646 693 683
f 640 693 646
f 646 648 647
f 623 665 622
f 666 621 622
f 622 665 666
f 661 659 660
f 661 629 659
f 660 663 661
f 152 658 153
f 658 629 153
f 153 661 152
f 629 661 153
f 687 674 673
f 636 687 686
f 686 685 636
f 667 685 668
f 685 686 668
f 132 133 63
f 63 131 132
f 609 610 953
f 953 608 609
f 813 815 816
f 816 825 813
f 824 825 816
f 816 815 861
f 816 861 817
f 828 830 824
f 977 970 967
f 982 980 955
f 941 980 982
f 975 980 941
f 975 941 942
f 116 117 105
f 968 970 979
f 979 970 941
f 941 982 979
f 850 612 613
f 88 102 86
f 100 72 73
f 66 67 68
f 68 64 66
f 421 397 395
f 395 428 421
f 396 393 397
f 736 2 734
f 447 429 453
f 453 448 447
f 453 385 271
f 429 385 453
f 804 805 806
f 813 825 826
f 948 835 947
f 947 809 948
f 948 830 835
f 198 197 573
f 197 551 573
f 573 551 486
f 531 529 199
f 199 530 531
f 199 529 198
f 198 573 199
f 199 573 530
f 567 565 568
f 566 560 576
f 576 567 566
f 565 567 576
f 563 565 576
f 558 563 576
f 576 560 558
f 578 579 570
f 574 545 570
f 574 570 580
f 580 570 579
f 580 495 574
f 580 496 495
f 574 495 493
f 493 494 574
f 495 494 493
f 491 494 492
f 492 494 1002
f 1002 1010 492
f 490 491 492
f 492 1010 490
f 1003 1002 498
f 1002 496 498
f 498 499 1003
f 498 569 499
f 713 714 715
f 715 714 718
f 926 904 903
f 903 701 926
f 702 904 926
f 926 701 702
f 1011 910 911
f 911 901 1011
f 874 837 864
f 918 906 996
f 996 924 918
f 996 915 917
f 917 924 996
f 955 984 956
f 984 913 956
f 956 957 600
f 956 913 922
f 923 922 995
f 995 921 923
f 921 957 923
f 923 956 922
f 957 956 923
f 893 887 594
f 892 887 893
f 595 596 893
f 920 892 893
f 893 596 920
f 634 887 633
f 73 72 42
f 85 38 600
f 932 931 943
f 932 582 524
f 697 582 932
f 932 943 697
f 524 548 547
f 547 932 524
f 456 465 870
f 870 862 456
f 457 456 875
f 875 456 862
f 820 416 875
f 875 416 457
f 875 821 820
f 411 410 389
f 389 407 411
f 412 410 411
f 411 457 412
f 411 468 457
f 470 407 406
f 468 411 470
f 470 411 407
f 300 311 306
f 306 462 459
f 298 300 546
f 546 545 298
f 300 306 546
f 546 306 459
f 546 570 545
f 387 541 540
f 543 541 386
f 541 387 386
f 386 390 394
f 386 387 390
f 577 560 566
f 577 579 578
f 566 579 577
f 557 542 558
f 558 560 557
f 560 559 557
f 557 539 540
f 559 539 557
f 557 541 542
f 540 541 557
f 129 159 164
f 164 159 156
f 66 129 164
f 160 50 631
f 160 159 50
f 631 51 160
f 51 159 160
f 883 1012 989
f 1012 888 989
f 989 655 883
f 989 888 655
f 652 788 787
f 791 680 653
f 791 788 680
f 490 1010 518
f 1010 517 518
f 509 507 508
f 507 514 508
f 303 305 301
f 294 309 308
f 307 309 294
f 308 512 294
f 512 521 294
f 294 521 307
f 505 504 510
f 510 504 503
f 510 299 505
f 510 503 509
f 509 299 510
f 519 299 297
f 519 297 298
f 519 517 505
f 505 299 519
f 298 518 519
f 519 518 517
f 940 553 550
f 929 553 939
f 939 959 929
f 553 940 939
f 709 710 959
f 959 960 709
f 708 710 709
f 709 960 708
f 961 959 894
f 894 960 961
f 961 960 959
f 997 907 908
f 908 909 997
f 925 902 901
f 701 902 925
f 901 911 925
f 925 911 701
f 314 521 291
f 307 521 314
f 314 291 292
f 478 232 231
f 231 1006 478
f 178 229 232
f 232 477 178
f 475 229 178
f 1005 475 178
f 178 477 1005
f 783 782 781
f 783 845 11
f 11 782 783
f 783 880 591
f 591 845 783
f 891 880 783
f 783 878 891
f 783 784 878
f 233 230 282
f 282 236 233
f 353 230 233
f 233 356 353
f 233 236 356
f 360 236 235
f 235 234 360
f 234 359 360
f 356 236 360
f 360 359 356
f 227 228 226
f 226 526 227
f 227 528 193
f 191 528 227
f 227 193 194
f 227 202 191
f 227 526 202
f 194 196 227
f 227 196 203
f 203 228 227
f 265 264 218
f 265 263 219
f 219 264 265
f 280 263 265
f 265 279 280
f 278 279 265
f 203 215 216
f 216 217 203
f 203 206 207
f 207 212 203
f 261 214 213
f 215 214 261
f 187 532 533
f 532 188 533
f 203 187 533
f 533 200 203
f 206 205 258
f 445 446 200
f 272 446 452
f 448 453 452
f 452 445 448
f 446 445 452
f 452 271 272
f 452 453 271
f 451 445 534
f 448 445 451
f 534 532 451
f 532 535 451
f 538 542 391
f 391 388 538
f 238 279 241
f 237 238 241
f 638 729 755
f 649 780 779
f 772 765 768
f 772 778 771
f 772 771 725
f 725 846 772
f 442 344 18
f 324 344 323
f 324 18 344
f 643 640 642
f 642 727 643
f 684 640 643
f 138 60 137
f 619 134 61
f 61 136 619
f 136 60 619
f 62 135 617
f 135 134 617
f 667 668 617
f 617 619 667
f 134 619 617
f 122 137 136
f 122 120 66
f 122 135 120
f 136 135 122
f 66 128 126
f 126 128 155
f 155 149 126
f 150 149 55
f 125 146 166
f 66 125 166
f 166 167 66
f 124 167 144
f 167 166 144
f 144 166 146
f 695 678 679
f 851 951 859
f 850 852 851
f 851 859 850
f 838 854 858
f 689 691 858
f 691 838 858
f 858 674 689
f 858 854 852
f 855 854 838
f 963 951 950
f 950 855 963
f 854 855 950
f 852 854 950
f 766 765 767
f 767 772 846
f 765 772 767
f 367 345 323
f 367 365 366
f 366 346 367
f 367 346 345
f 323 316 367
f 367 316 365
f 760 769 759
f 761 769 760
f 641 761 642
f 641 769 761
f 642 640 641
f 623 622 140
f 154 663 155
f 154 661 663
f 155 152 154
f 152 661 154
f 850 613 856
f 672 668 686
f 830 828 829
f 836 835 829
f 835 830 829
f 824 816 823
f 823 828 824
f 823 816 817
f 817 818 823
f 818 819 823
f 823 819 822
f 822 828 823
f 836 829 797
f 797 828 822
f 797 829 828
f 822 796 797
f 796 837 797
f 976 967 836
f 976 977 967
f 836 797 976
f 976 797 837
f 973 906 985
f 973 905 906
f 907 905 973
f 973 908 907
f 83 37 601
f 83 116 37
f 601 38 83
f 115 105 104
f 115 116 105
f 82 35 115
f 37 116 115
f 602 37 36
f 37 115 36
f 36 115 35
f 968 979 971
f 971 966 968
f 971 969 966
f 952 612 859
f 952 611 612
f 610 611 952
f 953 610 952
f 952 859 953
f 132 131 168
f 66 120 168
f 168 135 132
f 120 135 168
f 82 115 106
f 106 115 104
f 106 88 82
f 102 88 106
f 106 104 66
f 66 102 106
f 86 102 103
f 103 102 66
f 89 35 82
f 82 88 89
f 77 72 65
f 66 65 99
f 99 100 66
f 65 72 99
f 72 100 99
f 73 163 75
f 162 97 75
f 75 100 73
f 46 633 157
f 157 75 163
f 157 633 49
f 49 158 157
f 162 75 157
f 157 158 129
f 129 162 157
f 44 163 73
f 67 117 118
f 38 85 118
f 426 421 427
f 427 803 426
f 810 803 427
f 427 428 810
f 427 421 428
f 393 396 392
f 391 543 392
f 392 388 391
f 392 396 388
f 543 386 392
f 394 393 392
f 392 386 394
f 801 803 802
f 12 800 860
f 800 12 19
f 19 20 422
f 19 12 20
f 839 838 733
f 733 840 839
f 839 840 834
f 739 844 841
f 734 844 739
f 736 734 739
f 964 806 808
f 947 965 964
f 964 965 963
f 964 809 947
f 808 809 964
f 805 826 807
f 808 806 807
f 807 806 805
f 807 826 825
f 802 803 811
f 811 803 810
f 810 812 811
f 811 812 813
f 813 826 811
f 830 948 831
f 831 825 824
f 824 830 831
f 831 948 809
f 831 807 825
f 831 809 808
f 808 807 831
f 502 486 485
f 502 573 486
f 485 530 502
f 530 573 502
f 569 580 571
f 568 569 571
f 571 567 568
f 566 567 571
f 571 579 566
f 571 580 579
f 496 580 497
f 497 498 496
f 497 580 569
f 569 498 497
f 718 701 719
f 719 715 718
f 721 715 719
f 716 715 721
f 721 869 716
f 716 712 713
f 713 715 716
f 870 712 716
f 716 869 870
f 978 837 874
f 978 874 942
f 977 976 978
f 978 976 837
f 942 970 978
f 970 977 978
f 866 869 721
f 872 875 862
f 872 862 870
f 870 869 872
f 919 924 985
f 919 918 924
f 985 906 919
f 906 918 919
f 916 915 983
f 916 917 915
f 74 893 594
f 593 893 74
f 74 44 593
f 163 44 74
f 47 633 46
f 47 634 633
f 46 157 47
f 163 634 47
f 47 157 163
f 887 634 48
f 48 634 163
f 598 957 958
f 523 548 522
f 523 547 548
f 523 522 928
f 928 931 523
f 931 932 523
f 932 547 523
f 466 460 461
f 459 462 461
f 457 468 469
f 469 456 457
f 465 456 469
f 469 464 465
f 468 464 469
f 467 470 406
f 462 470 467
f 466 461 467
f 467 461 462
f 463 470 462
f 462 306 463
f 463 464 468
f 468 470 463
f 302 306 311
f 302 301 305
f 311 301 302
f 302 463 306
f 305 464 302
f 464 463 302
f 578 570 458
f 570 546 458
f 458 546 459
f 458 460 578
f 458 461 460
f 459 461 458
f 405 406 389
f 389 390 405
f 390 387 405
f 405 387 540
f 540 539 405
f 561 539 559
f 561 559 560
f 560 577 561
f 156 128 165
f 165 164 156
f 165 128 66
f 66 164 165
f 652 787 786
f 786 651 652
f 786 781 777
f 653 789 654
f 654 791 653
f 789 790 654
f 489 518 298
f 490 518 489
f 298 545 489
f 489 545 490
f 514 309 310
f 310 508 514
f 310 299 509
f 509 508 310
f 312 310 309
f 299 310 312
f 311 299 312
f 312 301 311
f 938 940 550
f 937 939 940
f 940 938 937
f 959 939 937
f 1006 477 171
f 171 478 1006
f 171 477 232
f 232 478 171
f 795 783 781
f 781 786 795
f 795 786 787
f 795 787 785
f 785 784 795
f 784 783 795
f 218 217 266
f 266 265 218
f 278 265 266
f 213 212 259
f 259 261 213
f 200 533 190
f 188 189 190
f 190 533 188
f 450 188 534
f 450 189 188
f 450 190 189
f 534 445 450
f 450 445 200
f 200 190 450
f 273 258 272
f 274 258 273
f 272 271 273
f 271 256 273
f 251 274 273
f 273 256 251
f 200 446 201
f 201 204 205
f 203 200 201
f 201 205 203
f 289 446 272
f 272 258 289
f 289 201 446
f 204 201 289
f 289 258 205
f 205 204 289
f 555 556 542
f 542 538 555
f 555 532 556
f 555 535 532
f 341 245 363
f 366 341 363
f 363 244 366
f 243 276 242
f 244 276 243
f 366 244 243
f 242 346 243
f 243 346 366
f 237 241 362
f 362 241 245
f 362 245 341
f 240 279 278
f 240 241 279
f 278 277 240
f 277 276 240
f 240 276 244
f 244 363 240
f 245 241 240
f 240 363 245
f 756 760 750
f 729 761 756
f 761 760 756
f 4 849 328
f 849 749 328
f 242 276 246
f 246 276 248
f 252 249 251
f 733 691 741
f 741 738 733
f 747 738 741
f 3 438 735
f 735 438 331
f 730 438 3
f 3 735 730
f 730 735 731
f 736 739 737
f 740 738 747
f 740 737 738
f 731 737 740
f 794 779 780
f 780 651 794
f 777 778 794
f 778 779 794
f 794 786 777
f 651 786 794
f 774 779 778
f 778 772 774
f 774 772 768
f 847 846 442
f 442 18 847
f 847 767 846
f 766 767 847
f 847 324 766
f 18 324 847
f 441 762 8
f 369 762 441
f 441 8 766
f 766 324 441
f 441 324 323
f 639 637 636
f 636 685 639
f 639 685 684
f 684 643 639
f 728 727 729
f 728 643 727
f 728 639 643
f 728 729 638
f 638 639 728
f 620 138 621
f 60 138 620
f 620 621 666
f 666 667 620
f 667 619 620
f 620 619 60
f 121 123 137
f 137 122 121
f 66 123 121
f 121 122 66
f 127 149 125
f 127 126 149
f 127 125 66
f 66 126 127
f 54 55 149
f 139 124 142
f 124 144 142
f 57 144 146
f 664 681 682
f 682 683 664
f 683 665 664
f 664 665 623
f 679 681 694
f 694 695 679
f 681 664 694
f 678 695 662
f 662 660 677
f 677 678 662
f 662 663 660
f 857 858 852
f 674 858 857
f 857 852 850
f 850 856 857
f 857 673 674
f 857 856 673
f 842 855 838
f 838 839 842
f 842 839 834
f 951 851 853
f 853 950 951
f 853 851 852
f 852 950 853
f 759 765 758
f 758 765 8
f 8 762 758
f 645 646 647
f 768 769 726
f 726 774 768
f 59 622 621
f 59 140 622
f 621 138 59
f 59 138 137
f 59 137 139
f 139 140 59
f 673 856 614
f 614 856 613
f 614 23 22
f 613 23 614
f 131 63 130
f 130 63 616
f 616 671 130
f 673 671 692
f 687 673 692
f 692 671 616
f 616 672 692
f 692 686 687
f 692 672 686
f 670 672 616
f 616 63 670
f 670 63 133
f 668 672 669
f 62 617 669
f 669 617 668
f 672 670 669
f 669 670 133
f 132 62 669
f 669 133 132
f 602 36 603
f 603 36 35
f 608 969 607
f 66 168 169
f 169 168 131
f 610 609 28
f 29 609 608
f 608 30 29
f 29 28 609
f 113 34 86
f 33 34 113
f 86 103 113
f 69 90 113
f 66 69 114
f 114 103 66
f 69 113 114
f 114 113 103
f 35 89 604
f 604 603 35
f 72 77 41
f 41 42 72
f 41 596 595
f 595 42 41
f 98 162 66
f 98 97 162
f 100 75 119
f 119 75 97
f 97 98 119
f 66 100 119
f 119 98 66
f 73 42 43
f 43 44 73
f 43 42 595
f 593 44 43
f 595 893 43
f 43 893 593
f 117 116 84
f 84 118 117
f 116 83 84
f 84 83 38
f 38 118 84
f 422 413 424
f 424 19 422
f 800 19 424
f 414 413 400
f 414 421 426
f 433 383 384
f 400 413 423
f 423 398 400
f 423 413 422
f 834 840 843
f 843 840 841
f 860 800 799
f 802 827 799
f 799 801 802
f 800 801 799
f 833 805 804
f 834 843 833
f 833 843 827
f 832 827 802
f 832 826 805
f 805 833 832
f 832 833 827
f 802 811 832
f 832 811 826
f 21 844 734
f 13 12 860
f 860 844 13
f 20 12 13
f 13 844 20
f 841 840 742
f 742 739 841
f 742 840 733
f 733 738 742
f 738 737 742
f 742 737 739
f 949 964 963
f 806 964 949
f 804 806 949
f 963 855 949
f 908 973 972
f 910 909 972
f 909 908 972
f 972 911 910
f 701 911 972
f 867 864 837
f 796 868 867
f 867 837 796
f 871 872 869
f 871 866 868
f 869 866 871
f 871 868 796
f 796 821 871
f 821 875 871
f 875 872 871
f 868 866 865
f 865 867 868
f 874 864 944
f 864 873 944
f 942 874 944
f 987 916 983
f 983 980 987
f 917 916 987
f 980 975 987
f 985 924 987
f 924 917 987
f 594 887 45
f 887 48 45
f 45 48 163
f 45 74 594
f 163 74 45
f 957 598 599
f 600 957 599
f 599 85 600
f 958 597 80
f 80 598 958
f 79 80 77
f 65 64 79
f 79 77 65
f 471 405 539
f 539 561 471
f 406 405 471
f 466 467 471
f 471 467 406
f 472 561 577
f 466 471 472
f 472 471 561
f 791 654 792
f 785 787 792
f 792 654 790
f 792 787 788
f 788 791 792
f 792 793 785
f 790 793 792
f 313 312 309
f 301 312 313
f 303 301 313
f 292 303 313
f 313 314 292
f 313 309 307
f 307 314 313
f 550 552 936
f 936 938 550
f 936 552 933
f 935 937 938
f 935 936 933
f 938 936 935
f 933 959 935
f 959 937 935
f 262 216 215
f 215 261 262
f 217 216 262
f 262 266 217
f 262 261 277
f 262 277 278
f 278 266 262
f 260 258 274
f 274 259 260
f 260 207 206
f 206 258 260
f 212 207 260
f 260 259 212
f 261 259 275
f 275 259 274
f 275 274 251
f 251 249 275
f 404 538 388
f 404 537 538
f 388 396 404
f 447 448 449
f 448 451 449
f 449 451 535
f 538 537 575
f 575 555 538
f 535 555 575
f 575 449 535
f 342 362 341
f 342 365 332
f 341 365 342
f 332 343 342
f 342 343 237
f 237 362 342
f 638 755 754
f 755 637 754
f 754 639 638
f 637 639 754
f 752 688 636
f 331 438 315
f 438 730 315
f 750 5 757
f 757 5 440
f 757 749 750
f 369 325 17
f 848 758 762
f 370 325 369
f 323 345 370
f 370 441 323
f 369 441 370
f 327 370 345
f 325 370 327
f 4 328 439
f 439 328 330
f 329 328 749
f 749 757 329
f 248 249 250
f 345 346 371
f 371 327 345
f 251 256 257
f 690 741 691
f 690 691 689
f 689 688 690
f 731 735 1
f 736 737 1
f 1 737 731
f 731 740 745
f 383 382 339
f 339 340 384
f 384 383 339
f 434 382 383
f 336 21 436
f 436 2 736
f 436 734 2
f 436 21 734
f 779 774 775
f 647 649 775
f 649 779 775
f 775 645 647
f 774 726 775
f 775 726 645
f 53 54 149
f 155 663 53
f 53 149 155
f 150 55 151
f 139 142 141
f 141 140 139
f 623 140 141
f 623 141 58
f 58 141 142
f 625 626 695
f 695 694 625
f 55 54 628
f 663 662 628
f 628 53 663
f 54 53 628
f 855 842 962
f 804 949 962
f 962 949 855
f 962 833 804
f 962 842 834
f 834 833 962
f 769 641 773
f 773 726 769
f 773 641 640
f 615 671 673
f 673 614 615
f 615 614 22
f 602 603 981
f 601 602 981
f 955 956 981
f 981 600 601
f 981 956 600
f 87 34 605
f 86 34 87
f 87 88 86
f 605 89 87
f 87 89 88
f 606 34 33
f 606 607 969
f 33 607 606
f 32 607 33
f 33 113 32
f 32 113 90
f 610 28 27
f 27 611 610
f 27 26 611
f 76 41 77
f 76 80 597
f 77 80 76
f 76 597 596
f 596 41 76
f 425 424 413
f 413 414 425
f 425 414 426
f 425 801 800
f 800 424 425
f 426 803 425
f 803 801 425
f 398 433 399
f 537 404 403
f 860 799 798
f 798 843 841
f 827 843 798
f 798 799 827
f 798 844 860
f 841 844 798
f 721 719 720
f 720 866 721
f 720 865 866
f 974 972 973
f 973 700 974
f 985 987 986
f 986 987 975
f 986 973 985
f 986 700 973
f 598 80 78
f 80 79 78
f 64 68 81
f 81 79 64
f 81 68 67
f 67 118 81
f 81 78 79
f 544 472 577
f 578 460 544
f 544 577 578
f 544 460 466
f 466 472 544
f 277 261 288
f 261 275 288
f 248 276 288
f 288 276 277
f 288 249 248
f 288 275 249
f 415 414 400
f 397 421 415
f 421 414 415
f 447 449 454
f 449 575 454
f 454 429 447
f 454 430 429
f 454 575 537
f 747 752 732
f 636 637 732
f 732 752 636
f 747 741 748
f 748 752 747
f 741 690 748
f 688 752 748
f 748 690 688
f 6 17 325
f 325 848 6
f 6 848 762
f 6 762 369
f 369 17 6
f 758 848 763
f 763 760 759
f 759 758 763
f 763 848 764
f 750 760 763
f 763 5 750
f 764 5 763
f 326 327 440
f 326 5 764
f 440 5 326
f 325 327 326
f 764 848 326
f 326 848 325
f 327 371 348
f 440 327 348
f 247 250 372
f 247 246 248
f 248 250 247
f 376 252 251
f 251 257 376
f 255 256 254
f 255 257 256
f 254 340 255
f 328 329 377
f 329 348 377
f 249 252 253
f 380 377 350
f 437 735 331
f 437 1 735
f 736 1 437
f 746 730 731
f 731 745 746
f 751 755 729
f 729 756 751
f 753 740 747
f 753 745 740
f 747 732 753
f 753 732 637
f 753 637 755
f 755 751 753
f 753 751 745
f 383 433 431
f 431 434 383
f 431 433 398
f 398 423 431
f 336 436 337
f 337 434 336
f 382 434 337
f 337 437 382
f 337 436 736
f 736 437 337
f 150 151 56
f 695 626 627
f 627 662 695
f 626 56 627
f 627 56 151
f 627 151 55
f 55 628 627
f 627 628 662
f 624 664 623
f 623 58 624
f 147 57 146
f 147 625 57
f 644 773 640
f 726 773 644
f 640 646 644
f 646 645 644
f 645 726 644
f 161 130 671
f 671 615 161
f 161 615 22
f 988 971 979
f 988 979 982
f 988 982 955
f 955 981 988
f 31 90 30
f 31 32 90
f 31 30 608
f 608 607 31
f 607 32 31
f 28 29 110
f 110 27 28
f 94 169 131
f 23 107 94
f 93 107 23
f 93 613 612
f 93 23 613
f 432 399 433
f 384 429 432
f 432 433 384
f 429 430 432
f 430 399 432
f 699 720 719
f 700 720 699
f 699 974 700
f 972 974 699
f 699 719 701
f 701 972 699
f 698 720 700
f 865 720 698
f 40 599 598
f 598 78 40
f 78 81 40
f 401 415 400
f 400 398 401
f 398 399 401
f 402 404 396
f 402 396 397
f 397 415 402
f 415 401 402
f 402 403 404
f 402 401 403
f 430 454 536
f 536 399 430
f 537 403 536
f 536 454 537
f 536 401 399
f 403 401 536
f 349 348 371
f 372 350 349
f 350 377 349
f 349 377 348
f 347 329 757
f 347 348 329
f 347 757 440
f 440 348 347
f 246 247 368
f 368 371 346
f 368 247 372
f 368 346 242
f 242 246 368
f 372 349 368
f 368 349 371
f 374 253 252
f 374 350 372
f 373 250 249
f 249 253 373
f 253 374 373
f 372 250 373
f 373 374 372
f 379 315 330
f 377 380 379
f 330 328 379
f 328 377 379
f 378 376 257
f 340 339 378
f 378 255 340
f 257 255 378
f 743 849 4
f 743 746 849
f 4 439 743
f 743 439 330
f 730 746 743
f 330 315 743
f 743 315 730
f 744 746 745
f 745 751 744
f 849 746 744
f 744 749 849
f 750 749 744
f 744 756 750
f 744 751 756
f 336 434 435
f 434 431 435
f 20 844 435
f 422 20 435
f 435 21 336
f 844 21 435
f 435 423 422
f 435 431 423
f 626 625 148
f 148 56 626
f 148 147 146
f 625 147 148
f 148 146 150
f 150 56 148
f 57 625 618
f 618 625 694
f 144 57 618
f 618 694 664
f 664 624 618
f 954 981 603
f 954 988 981
f 603 604 954
f 971 988 954
f 954 89 605
f 954 604 89
f 605 34 954
f 34 606 954
f 969 971 954
f 954 606 969
f 112 110 29
f 30 90 112
f 112 29 30
f 70 69 66
f 70 90 69
f 70 112 90
f 107 93 108
f 26 27 108
f 27 110 108
f 169 94 101
f 66 169 101
f 107 71 95
f 95 94 107
f 95 101 94
f 95 71 66
f 66 101 95
f 96 94 131
f 131 130 96
f 130 161 96
f 96 161 22
f 22 23 96
f 23 94 96
f 700 986 946
f 946 698 700
f 865 698 863
f 863 873 864
f 863 946 873
f 698 946 863
f 864 867 863
f 867 865 863
f 39 40 81
f 39 118 85
f 39 81 118
f 85 599 39
f 599 40 39
f 375 380 350
f 350 374 375
f 375 374 252
f 252 376 375
f 376 378 375
f 381 378 339
f 381 339 382
f 380 375 381
f 381 375 378
f 144 618 145
f 145 618 624
f 111 108 110
f 110 112 111
f 112 70 111
f 111 70 66
f 26 108 92
f 612 611 92
f 611 26 92
f 945 986 975
f 945 946 986
f 873 946 945
f 945 975 942
f 942 944 945
f 945 944 873
f 338 381 382
f 338 437 331
f 382 437 338
f 331 315 338
f 315 379 338
f 338 379 380
f 380 381 338
f 143 145 624
f 143 58 142
f 143 624 58
f 143 142 144
f 144 145 143
f 108 111 109
f 109 71 107
f 107 108 109
f 66 71 109
f 109 111 66
f 25 92 108
f 612 92 25
f 24 108 93
f 24 93 612
f 91 25 108
f 108 24 91
f 612 25 91
f 91 24 612
f 1006 1009 990
f 992 1012 1006
f 995 996 1006
f 990 991 1006
f 1006 998 999
f 1006 1013 992
f 1007 1008 1006
f 1006 994 995
f 999 1000 1006
f 1003 1004 1006
f 993 994 1006
f 1006 1000 1001
f 991 1013 1006
f 1001 1010 1006
f 1006 1002 1003
f 1006 1012 993
f 1006 1004 1005
f 1006 1008 1009
f 1006 996 997
f 1006 1011 998
f 997 1011 1006
f 1006 1010 1002

