# https://github.com/mikedh/trimesh
v 0.04473100 0.02847173 0.01670006
v 0.04496113 0.02848106 0.01670004
v 0.04732106 0.02466462 0.02050000
v 0.04848776 0.02839121 0.01669980
v 0.04983086 0.02440089 0.02050000
v 0.05023419 0.02818371 0.01670001
v 0.05196717 0.02786831 0.01670004
v 0.05228752 0.02388619 0.02050000
v 0.05234969 0.02778365 0.01670001
v 0.05444707 0.02721942 0.01669975
v 0.05273034 0.02769391 0.01669997
v 0.05611896 0.02664313 0.01669987
v 0.05602096 0.02668015 0.01669985
v 0.05465766 0.02313290 0.02050000
v 0.05587990 0.02673271 0.01669983
v 0.05774515 0.02596731 0.01670007
v 0.05691474 0.02215733 0.02050000
v 0.05906155 0.02096391 0.02050000
v 0.05951092 0.02509392 0.01669995
v 0.05932445 0.02519343 0.01669998
v 0.05851058 0.02560733 0.01670007
v 0.06275643 0.02305367 0.01669989
v 0.06085131 0.01973623 0.02050000
v 0.06151778 0.02390499 0.01669968
v 0.06085534 0.02432219 0.01669970
v 0.06298067 0.02288901 0.01669994
v 0.06436757 0.02179180 0.01670008
v 0.06277294 0.01813154 0.02050000
v 0.06806871 0.01803391 0.01669993
v 0.06745592 0.01875883 0.01669980
v 0.06453362 0.01632759 0.02050000
v 0.06691250 0.01936278 0.01669973
v 0.06567839 0.02061579 0.01669990
v 0.06543763 0.02084295 0.01669995
v 0.06855571 0.01742097 0.01670002
v 0.06828471 0.01776631 0.01669998
v 0.06610648 0.01434593 0.02050000
v 0.06959984 0.01597803 0.01670003
v 0.06747004 0.01221180 0.02050000
v 0.07046744 0.01461487 0.01669984
v 0.07054538 0.01448360 0.01669983
v 0.07139304 0.01294000 0.01669983
v 0.06763650 0.01191437 0.02050000
v 0.06873859 0.00964537 0.02050000
v 0.07214282 0.01134912 0.01670003
v 0.07305065 0.00897286 0.01669995
v 0.06959955 0.00729016 0.02050000
v 0.07279400 0.00971245 0.01670003
v 0.07220749 0.01119899 0.01670004
v 0.07355779 0.00726761 0.01669977
v 0.07021260 0.00488211 0.02050000
v 0.07424438 0.00380851 0.01670006
v 0.07395527 0.00554552 0.01669992
v 0.07391441 0.00574765 0.01669990
v 0.07450000 0.00000000 0.01670000
v 0.07449845 0.00029670 0.01669994
v 0.07057779 0.00245179 0.02050000
v 0.07435041 0.00291619 0.01670003
v 0.04209370 -0.02823103 0.01669986
v 0.07314238 -0.00869144 0.01669991
v 0.07444435 -0.00178022 0.01669994
v 0.07070000 -0.00000001 0.02050000
v 0.07413440 -0.00455030 0.01670003
v 0.07057781 -0.00245176 0.02050000
v 0.07427917 -0.00354092 0.01670006
v 0.07435041 -0.00291619 0.01670003
v 0.07320003 -0.00850929 0.01669988
v 0.07330180 -0.00817690 0.01669984
v 0.07362746 -0.00699811 0.01669977
v 0.07400650 -0.00528072 0.01669995
v 0.07289343 -0.00943364 0.01670000
v 0.07096564 -0.01374652 0.01669977
v 0.06873862 -0.00964529 0.02050000
v 0.07151299 -0.01270187 0.01669986
v 0.07200382 -0.01166411 0.01670000
v 0.07225165 -0.01109509 0.01670004
v 0.06763650 -0.01191434 0.02050000
v 0.06630319 -0.01406621 0.02050000
v 0.07026257 -0.01495250 0.01669989
v 0.06771050 -0.01846359 0.01669986
v 0.06810776 -0.01798601 0.01669994
v 0.06825484 -0.01780372 0.01669997
v 0.06475738 -0.01606995 0.02050000
v 0.06873542 -0.01718576 0.01670004
v 0.06946104 -0.01618114 0.01670005
v 0.06975366 -0.01574844 0.01670001
v 0.06709928 -0.01915908 0.01669975
v 0.06302068 -0.01789923 0.02050000
v 0.06271076 -0.02308680 0.01669988
v 0.06320183 -0.02272327 0.01669998
v 0.06111896 -0.01953192 0.02050000
v 0.06351074 -0.02248609 0.01670003
v 0.06457065 -0.02161900 0.01670007
v 0.06176523 -0.02374252 0.01669970
v 0.05927132 -0.02083173 0.02050000
v 0.05956813 -0.02506304 0.01669994
v 0.05877177 -0.02547807 0.01670005
v 0.05798759 -0.02585629 0.01670008
v 0.05713665 -0.02204665 0.02050000
v 0.05301762 -0.02762251 0.01669994
v 0.05253256 -0.02382036 0.02050000
v 0.05471062 -0.02713623 0.01669974
v 0.05489228 -0.02304370 0.02050000
v 0.05617923 -0.02662017 0.01669987
v 0.05636779 -0.02654729 0.01669991
v 0.05225629 -0.02780483 0.01670002
v 0.05262437 -0.02771945 0.01669998
v 0.05050727 -0.02814133 0.01670003
v 0.04895660 -0.02834623 0.01669985
v 0.04875326 -0.02836670 0.01669983
v 0.04699605 -0.02848259 0.01669983
v 0.04757744 -0.02464956 0.02050000
v 0.04782101 -0.02844176 0.01669977
v 0.04270006 -0.02830831 0.01669994
v 0.04347882 -0.02838827 0.01670003
v 0.04504655 -0.02468129 0.02050000
v 0.04523734 -0.02848979 0.01670003
v 0.06747003 -0.01221180 -0.02250000
v 0.06763650 -0.01191437 -0.02250000
v 0.04240623 -0.02827251 -0.01869990
v 0.04318411 -0.02836055 -0.01870000
v 0.04732106 -0.02466462 -0.02250000
v 0.04753149 -0.02845882 -0.01869978
v 0.04672952 -0.02849066 -0.01869986
v 0.04478947 -0.02467000 -0.02250000
v 0.04523842 -0.02848982 -0.01870003
v 0.04848775 -0.02839122 -0.01869980
v 0.04895660 -0.02834623 -0.01869985
v 0.04983086 -0.02440089 -0.02250000
v 0.05023418 -0.02818371 -0.01870001
v 0.05228752 -0.02388619 -0.02250000
v 0.05196716 -0.02786832 -0.01870004
v 0.05273033 -0.02769391 -0.01869997
v 0.05465766 -0.02313290 -0.02250000
v 0.05444705 -0.02721943 -0.01869975
v 0.05691474 -0.02215733 -0.02250000
v 0.05851058 -0.02560733 -0.01870007
v 0.05774514 -0.02596732 -0.01870007
v 0.05611895 -0.02664314 -0.01869987
v 0.05587990 -0.02673271 -0.01869983
v 0.05932444 -0.02519343 -0.01869998
v 0.05956057 -0.02506713 -0.01869994
v 0.05906155 -0.02096391 -0.02250000
v 0.06151777 -0.02390500 -0.01869967
v 0.06085131 -0.01973623 -0.02250000
v 0.06271076 -0.02308680 -0.01869988
v 0.06567838 -0.02061580 -0.01869990
v 0.06543763 -0.02084295 -0.01869995
v 0.06277294 -0.01813154 -0.02250000
v 0.06298067 -0.02288901 -0.01869993
v 0.06453362 -0.01632759 -0.02250000
v 0.06691249 -0.01936279 -0.01869973
v 0.06745592 -0.01875883 -0.01869980
v 0.06610648 -0.01434593 -0.02250000
v 0.06855570 -0.01742098 -0.01870002
v 0.06806871 -0.01803392 -0.01869993
v 0.07026257 -0.01495250 -0.01869989
v 0.06959984 -0.01597804 -0.01870003
v 0.06923889 -0.01649860 -0.01870006
v 0.07200382 -0.01166411 -0.01869999
v 0.07139304 -0.01294001 -0.01869983
v 0.07054537 -0.01448361 -0.01869983
v 0.07305065 -0.00897287 -0.01869995
v 0.07279399 -0.00971246 -0.01870003
v 0.06873859 -0.00964537 -0.02250000
v 0.07214282 -0.01134913 -0.01870003
v 0.07330180 -0.00817690 -0.01869984
v 0.06959955 -0.00729016 -0.02250000
v 0.07355779 -0.00726762 -0.01869977
v 0.07395527 -0.00554553 -0.01869992
v 0.07413440 -0.00455030 -0.01870003
v 0.07021260 -0.00488211 -0.02250000
v 0.07057779 -0.00245179 -0.02250000
v 0.07424438 -0.00380852 -0.01870006
v 0.07070000 0.00000001 -0.02250000
v 0.07450000 0.00000000 -0.01870000
v 0.07449845 -0.00029671 -0.01869994
v 0.07448743 -0.00084615 -0.01869990
v 0.07442557 -0.00205837 -0.01869997
v 0.07435041 -0.00291619 -0.01870003
v 0.07444435 0.00178022 -0.01869994
v 0.07057781 0.00245176 -0.02250000
v 0.07435041 0.00291619 -0.01870003
v 0.07021261 0.00488210 -0.02250000
v 0.07424217 0.00382485 -0.01870006
v 0.07427917 0.00354092 -0.01870006
v 0.07347337 0.00758050 -0.01869978
v 0.07362746 0.00699811 -0.01869977
v 0.07400650 0.00528072 -0.01869995
v 0.07289343 0.00943364 -0.01870000
v 0.06959955 0.00729016 -0.02250000
v 0.07314238 0.00869144 -0.01869991
v 0.07320003 0.00850929 -0.01869988
v 0.07046744 0.01461487 -0.01869985
v 0.07067980 0.01425333 -0.01869980
v 0.07151299 0.01270187 -0.01869986
v 0.06763650 0.01191434 -0.02250000
v 0.07220749 0.01119899 -0.01870004
v 0.06873862 0.00964529 -0.02250000
v 0.06746999 0.01221186 -0.02250000
v 0.06975366 0.01574844 -0.01870001
v 0.06610642 0.01434602 -0.02250000
v 0.06453357 0.01632763 -0.02250000
v 0.06825484 0.01780372 -0.01869997
v 0.06873542 0.01718576 -0.01870004
v 0.06923883 0.01649870 -0.01870006
v 0.06569877 0.02059632 -0.01869990
v 0.06277286 0.01813161 -0.02250000
v 0.06709928 0.01915908 -0.01869975
v 0.06745586 0.01875889 -0.01869980
v 0.06457065 0.02161900 -0.01870007
v 0.06085127 0.01973626 -0.02250000
v 0.06320183 0.02272327 -0.01869998
v 0.06176523 0.02374252 -0.01869970
v 0.05691470 0.02215736 -0.02250000
v 0.05906160 0.02096388 -0.02250000
v 0.05956813 0.02506304 -0.01869994
v 0.06110717 0.02416657 -0.01869968
v 0.05602096 0.02668015 -0.01869985
v 0.05636779 0.02654729 -0.01869991
v 0.05465762 0.02313291 -0.02250000
v 0.05798759 0.02585629 -0.01870008
v 0.05851050 0.02560737 -0.01870007
v 0.05471062 0.02713623 -0.01869974
v 0.05228753 0.02388618 -0.02250000
v 0.05301762 0.02762251 -0.01869993
v 0.05234969 0.02778365 -0.01870001
v 0.04875326 0.02836670 -0.01869983
v 0.04732111 0.02466462 -0.02250000
v 0.04983094 0.02440087 -0.02250000
v 0.05050727 0.02814133 -0.01870003
v 0.05225629 0.02780483 -0.01870002
v 0.04478949 0.02467000 -0.02250000
v 0.04347882 0.02838827 -0.01870003
v 0.04523734 0.02848979 -0.01870003
v -0.02454537 0.01869983 0.01448361
v 0.00359377 0.01869990 0.02827251
v 0.00121054 0.02250000 0.02467000
v 0.00103888 0.01870004 0.02848106
v -0.00248775 0.01869980 0.02839122
v -0.00153147 0.01869978 0.02845882
v -0.00072952 0.01869986 0.02849066
v -0.00132110 0.02250000 0.02466462
v 0.00076158 0.01870003 0.02848982
v -0.00383091 0.02250000 0.02440088
v -0.00295660 0.01869985 0.02834623
v -0.00423418 0.01870001 0.02818371
v -0.00596716 0.01870004 0.02786832
v -0.00628752 0.02250000 0.02388618
v -0.00673033 0.01869997 0.02769391
v -0.00844705 0.01869975 0.02721943
v -0.00987987 0.01869983 0.02673272
v -0.01332444 0.01869998 0.02519343
v -0.01251050 0.01870007 0.02560737
v -0.01091471 0.02250000 0.02215735
v -0.01174514 0.01870007 0.02596732
v -0.00865764 0.02250000 0.02313291
v -0.01011895 0.01869987 0.02664314
v -0.01356057 0.01869994 0.02506713
v -0.01485533 0.01869970 0.02432219
v -0.01306158 0.02250000 0.02096388
v -0.01485125 0.02250000 0.01973627
v -0.01671076 0.01869988 0.02308680
v -0.01943759 0.01869995 0.02084299
v -0.01836756 0.01870008 0.02179180
v -0.01677284 0.02250000 0.01813162
v -0.01698067 0.01869993 0.02288901
v -0.01967838 0.01869990 0.02061580
v -0.02091249 0.01869973 0.01936279
v -0.01853356 0.02250000 0.01632765
v -0.02010641 0.02250000 0.01434604
v -0.02255570 0.01870002 0.01742098
v -0.02206871 0.01869993 0.01803392
v -0.02145584 0.01869980 0.01875891
v -0.02426258 0.01869989 0.01495250
v -0.02146998 0.02250000 0.01221187
v -0.02359984 0.01870003 0.01597804
v -0.02323881 0.01870006 0.01649872
v -0.02163651 0.02250000 0.01191433
v -0.02600382 0.01869999 0.01166411
v -0.02539304 0.01869983 0.01294001
v -0.02705065 0.01869995 0.00897287
v -0.02359955 0.02250000 0.00729015
v -0.02273862 0.02250000 0.00964529
v -0.02679399 0.01870003 0.00971246
v -0.02614282 0.01870003 0.01134913
v -0.02730180 0.01869984 0.00817690
v -0.02755779 0.01869977 0.00726762
v -0.02795527 0.01869992 0.00554553
v -0.02813440 0.01870003 0.00455030
v -0.02850000 0.01870000 0.00000000
v -0.02849845 0.01869994 0.00029671
v -0.02470000 0.02250000 0.00000001
v -0.02842557 0.01869997 0.00205837
v -0.02457781 0.02250000 0.00245176
v -0.02835041 0.01870003 0.00291618
v -0.02824438 0.01870006 0.00380852
v -0.00099605 0.01869983 -0.02848259
v -0.00153149 0.01869978 -0.02845882
v -0.02844435 0.01869994 -0.00178022
v -0.02457780 0.02250000 -0.00245179
v -0.02827917 0.01870006 -0.00354092
v -0.02835041 0.01870003 -0.00291619
v -0.02720002 0.01869988 -0.00850932
v -0.02359955 0.02250000 -0.00729016
v -0.02747337 0.01869978 -0.00758050
v -0.02421260 0.02250000 -0.00488211
v -0.02824217 0.01870006 -0.00382485
v -0.02147004 0.02250000 -0.01221178
v -0.02163650 0.02250000 -0.01191437
v -0.02273859 0.02250000 -0.00964538
v -0.02620749 0.01870004 -0.01119899
v -0.02625165 0.01870004 -0.01109509
v -0.02375366 0.01870001 -0.01574844
v -0.02010649 0.02250000 -0.01434592
v -0.01853363 0.02250000 -0.01632757
v -0.02225484 0.01869997 -0.01780372
v -0.02273543 0.01870004 -0.01718576
v -0.01677295 0.02250000 -0.01813153
v -0.01987041 0.01869986 -0.02043078
v -0.02109928 0.01869975 -0.01915908
v -0.02145593 0.01869980 -0.01875881
v -0.01675643 0.01869989 -0.02305367
v -0.01720183 0.01869998 -0.02272327
v -0.01857065 0.01870007 -0.02161900
v -0.01485133 0.02250000 -0.01973622
v -0.01943764 0.01869995 -0.02084294
v -0.01969877 0.01869990 -0.02059632
v -0.01576523 0.01869970 -0.02374252
v -0.01306155 0.02250000 -0.02096390
v -0.01510717 0.01869968 -0.02416657
v -0.01356813 0.01869994 -0.02506304
v -0.01091475 0.02250000 -0.02215732
v -0.01251058 0.01870007 -0.02560733
v -0.01198759 0.01870008 -0.02585629
v -0.00865766 0.02250000 -0.02313290
v -0.01036779 0.01869991 -0.02654729
v -0.00871062 0.01869974 -0.02713623
v -0.01002096 0.01869985 -0.02668015
v -0.00634969 0.01870001 -0.02778365
v -0.00701762 0.01869993 -0.02762251
v -0.00715928 0.01869992 -0.02758613
v -0.00256354 0.01869981 -0.02838447
v -0.00132107 0.02250000 -0.02466462
v -0.00275326 0.01869983 -0.02836670
v -0.00383085 0.02250000 -0.02440089
v -0.00450727 0.01870003 -0.02814133
v -0.00625629 0.01870002 -0.02780483
v 0.00076266 0.01870003 -0.02848979
v 0.00133159 0.01870006 -0.02846888
v 0.00252118 0.01870003 -0.02838827
v 0.00121053 0.02250000 -0.02467000
v -0.02470014 -0.02050000 -0.00000001
v -0.02419512 -0.02050000 0.00496875
v -0.02457346 -0.02050000 0.00249630
v -0.02835407 -0.01670011 0.00288034
v -0.02844435 -0.01670017 0.00178022
v -0.02714238 -0.01670020 0.00869144
v -0.02730180 -0.01670026 0.00817690
v -0.02762746 -0.01670033 0.00699811
v -0.02356691 -0.02050000 0.00739538
v -0.02689343 -0.01670011 0.00943365
v -0.02269775 -0.02050000 0.00974141
v -0.02625164 -0.01670007 0.01109510
v -0.02491761 -0.01670033 0.01383340
v -0.02551298 -0.01670025 0.01270188
v -0.02600382 -0.01670012 0.01166411
v -0.02467980 -0.01670030 0.01425334
v -0.02426258 -0.01670021 0.01495250
v -0.02027129 -0.02050000 0.01411232
v -0.02225482 -0.01670011 0.01780373
v -0.01873934 -0.02050000 0.01609115
v -0.02273542 -0.01670005 0.01718577
v -0.02339005 -0.01670005 0.01628360
v -0.02375366 -0.01670010 0.01574845
v -0.01957611 -0.01670016 0.02071294
v -0.01987040 -0.01670021 0.02043079
v -0.01701188 -0.02050000 0.01790772
v -0.02109927 -0.01670030 0.01915909
v -0.02162230 -0.01670022 0.01856680
v -0.02210776 -0.01670013 0.01798601
v -0.01857064 -0.01670003 0.02161901
v -0.01576522 -0.01670028 0.02374253
v -0.01511301 -0.02050000 0.01953664
v -0.01671076 -0.01670015 0.02308680
v -0.01087368 -0.02050000 0.02217757
v -0.01306165 -0.02050000 0.02096393
v -0.01356811 -0.01670010 0.02506305
v -0.01510716 -0.01670029 0.02416658
v -0.01036778 -0.01670015 0.02654730
v -0.00857292 -0.02050000 0.02316450
v -0.01198758 -0.01670000 0.02585629
v -0.01254659 -0.01670001 0.02558971
v -0.01017923 -0.01670017 0.02662017
v -0.00871060 -0.01670028 0.02713624
v -0.00625628 -0.01670002 0.02780484
v -0.00662437 -0.01670005 0.02771945
v -0.00618159 -0.02050000 0.02391385
v -0.00123672 -0.02050000 0.02466901
v -0.00275325 -0.01670021 0.02836670
v -0.00373127 -0.02050000 0.02441635
v -0.00295660 -0.01670019 0.02834623
v -0.00450726 -0.01670002 0.02814133
v 0.00145919 -0.01669997 0.02846262
v 0.00126900 -0.01669998 -0.02847173
v 0.00281587 -0.01670002 -0.02836055
v 0.00103886 -0.01669999 -0.02848106
v -0.00072955 -0.01670017 -0.02849066
v -0.00142698 -0.01670024 -0.02846425
v -0.00248777 -0.01670023 -0.02839121
v -0.00123672 -0.02050000 -0.02466901
v -0.00423420 -0.01670004 -0.02818371
v -0.00373127 -0.02050000 -0.02441635
v -0.00596718 -0.01670000 -0.02786831
v -0.00618168 -0.02050000 -0.02391382
v -0.00634969 -0.01670003 -0.02778365
v -0.00857298 -0.02050000 -0.02316448
v -0.00844708 -0.01670026 -0.02721942
v -0.00673036 -0.01670006 -0.02769390
v -0.01011898 -0.01670018 -0.02664313
v -0.01002096 -0.01670019 -0.02668015
v -0.00989185 -0.01670020 -0.02672829
v -0.01174517 -0.01670001 -0.02596730
v -0.01306162 -0.02050000 -0.02096395
v -0.01087367 -0.02050000 -0.02217759
v -0.01351092 -0.01670009 -0.02509392
v -0.01332447 -0.01670007 -0.02519342
v -0.01254662 -0.01670001 -0.02558969
v -0.01698069 -0.01670011 -0.02288900
v -0.01675643 -0.01670014 -0.02305367
v -0.01511305 -0.02050000 -0.01953660
v -0.01551779 -0.01670030 -0.02390498
v -0.01485537 -0.01670028 -0.02432217
v -0.01836758 -0.01670002 -0.02179178
v -0.01743818 -0.01670006 -0.02254239
v -0.01701188 -0.02050000 -0.01790772
v -0.02091252 -0.01670031 -0.01936276
v -0.01873929 -0.02050000 -0.01609121
v -0.02228471 -0.01670010 -0.01776631
v -0.02206873 -0.01670014 -0.01803389
v -0.02162234 -0.01670022 -0.01856675
v -0.02454538 -0.01670027 -0.01448358
v -0.02446744 -0.01670025 -0.01461487
v -0.02027125 -0.02050000 -0.01411238
v -0.02359985 -0.01670007 -0.01597801
v -0.02491763 -0.01670033 -0.01383336
v -0.02539305 -0.01670028 -0.01293998
v -0.02159538 -0.02050000 -0.01198899
v -0.02269780 -0.02050000 -0.00974130
v -0.02614284 -0.01670009 -0.01134910
v -0.02747337 -0.01670031 -0.00758050
v -0.02705066 -0.01670016 -0.00897284
v -0.02356697 -0.02050000 -0.00739521
v -0.02679401 -0.01670009 -0.00971243
v -0.02620749 -0.01670008 -0.01119899
v -0.02755779 -0.01670033 -0.00726759
v -0.02419515 -0.02050000 -0.00496866
v -0.02791740 -0.01670022 -0.00573312
v -0.02824439 -0.01670009 -0.00380849
v -0.02795528 -0.01670020 -0.00554550
v -0.02850000 -0.01670014 0.00000000
v -0.02849845 -0.01670018 -0.00029667
v -0.02842557 -0.01670016 -0.00205833
v -0.02457347 -0.02050000 -0.00249620
v -0.02835409 -0.01670011 -0.00288021
v 0.05008327 -0.02435990 0.02050000
v 0.06959955 -0.00729016 0.02050000
v 0.07021261 -0.00488210 0.02050000
v -0.02800650 0.01869995 -0.00528072
v -0.02762746 0.01869977 -0.00699811
v -0.02714238 0.01869991 -0.00869144
v -0.02689343 0.01870000 -0.00943364
v -0.02551299 0.01869986 -0.01270187
v -0.02467980 0.01869980 -0.01425333
v -0.02255572 -0.01670007 -0.01742095
v -0.02323891 0.01870006 -0.01649858
v -0.02446744 0.01869985 -0.01461487
v -0.01967840 -0.01670017 -0.02061578
v 0.00329995 -0.01670006 0.02830831
v 0.00252119 -0.01669999 0.02838827
v 0.00281589 0.01870000 0.02836055
v 0.00076267 -0.01670001 0.02848979
v -0.00099603 -0.01670020 0.02848259
v -0.00142689 -0.01670024 0.02846426
v -0.00701761 -0.01670010 0.02762251
v -0.01551777 0.01869967 0.02390500
v -0.01720182 -0.01670008 0.02272328
v -0.02800650 -0.01670018 0.00528072
v -0.02827917 -0.01670009 0.00354092
v 0.07442557 0.00205836 0.01669997
v 0.07347337 0.00758050 0.01669978
v 0.07225165 0.01109509 -0.01870004
v 0.06587041 0.02043078 -0.01869986
v 0.06923889 0.01649860 0.01670006
v 0.06275643 0.02305367 -0.01869989
v 0.04856354 0.02838447 -0.01869981
v 0.04753149 0.02845882 0.01669978
v 0.04672954 0.02849066 0.01669986
v 0.04753149 0.02845882 -0.01869978
v 0.04699605 0.02848259 -0.01869983
v 0.04473100 0.02847173 -0.01870006
v 0.04318412 0.02836055 0.01670000
v 0.04496112 -0.02848106 -0.01870004
v 0.05343904 -0.02751201 0.01669988
v 0.06436756 -0.02179180 -0.01870008
v 0.06110717 -0.02416657 0.01669968
v 0.06085533 -0.02432219 -0.01869970
v 0.06587041 -0.02043078 0.01669986
v 0.06557611 -0.02071294 0.01669993
v 0.07067980 -0.01425333 0.01669980
v -0.02421261 0.02250000 0.00488210
v -0.00628750 0.02250000 -0.02388619
v -0.02159538 -0.02050000 0.01198896
f 419 415 418
f 242 244 238
f 415 413 121
f 413 411 121
f 405 406 131
f 338 418 422
f 419 418 342
f 342 418 338
f 17 237 18
f 17 14 237
f 8 14 10
f 237 14 8
f 239 238 244
f 242 238 243
f 19 17 18
f 345 412 347
f 229 230 350
f 513 370 369
f 513 363 114
f 114 370 513
f 363 513 366
f 111 117 124
f 114 387 384
f 387 385 384
f 114 391 386
f 386 387 114
f 386 391 392
f 119 118 406
f 378 379 372
f 372 373 370
f 355 353 114
f 114 354 355
f 114 363 361
f 361 354 114
f 353 463 464
f 414 412 413
f 414 413 415
f 347 412 414
f 408 125 409
f 409 298 408
f 413 412 410
f 410 411 413
f 410 409 411
f 412 345 410
f 503 121 411
f 503 409 125
f 411 409 503
f 114 121 115
f 117 399 115
f 115 503 117
f 121 503 115
f 129 405 131
f 131 132 129
f 122 125 408
f 405 129 122
f 124 125 122
f 341 340 419
f 419 342 341
f 242 243 241
f 211 208 212
f 28 32 33
f 31 32 28
f 237 31 28
f 298 409 299
f 409 410 299
f 229 350 349
f 349 233 229
f 408 298 349
f 224 226 10
f 224 225 226
f 224 219 221
f 221 225 224
f 267 385 263
f 378 384 382
f 258 394 252
f 251 250 249
f 251 485 250
f 274 379 269
f 5 8 7
f 7 6 5
f 231 6 7
f 364 363 367
f 363 366 367
f 365 366 513
f 370 373 374
f 70 69 170
f 170 69 169
f 69 68 169
f 169 68 167
f 170 169 172
f 108 132 106
f 107 101 106
f 481 8 5
f 237 8 481
f 5 3 481
f 481 3 239
f 398 391 114
f 114 115 398
f 482 399 117
f 482 239 244
f 482 244 242
f 392 391 390
f 391 394 390
f 390 256 392
f 390 258 256
f 394 258 390
f 395 394 391
f 391 398 395
f 395 398 485
f 485 251 395
f 252 394 395
f 395 251 252
f 59 370 114
f 59 372 370
f 378 372 59
f 59 384 378
f 114 384 59
f 362 363 364
f 362 361 363
f 364 285 362
f 200 202 201
f 200 195 197
f 184 189 185
f 416 415 419
f 416 414 415
f 419 340 416
f 347 414 348
f 348 416 340
f 414 416 348
f 126 125 124
f 126 503 125
f 124 117 126
f 117 503 126
f 128 122 129
f 109 110 128
f 407 122 408
f 405 122 407
f 408 349 407
f 407 350 405
f 407 349 350
f 238 239 497
f 239 3 497
f 249 250 248
f 245 1 249
f 245 243 1
f 249 248 245
f 245 248 247
f 243 245 246
f 246 245 247
f 201 202 206
f 202 205 206
f 25 24 218
f 25 19 18
f 18 24 25
f 217 25 218
f 19 25 217
f 215 223 217
f 218 216 217
f 217 216 215
f 14 17 16
f 16 12 14
f 222 215 221
f 222 223 215
f 37 31 237
f 237 39 37
f 30 31 29
f 30 32 31
f 32 30 209
f 27 28 34
f 34 28 33
f 34 211 27
f 343 410 345
f 343 299 410
f 351 350 230
f 230 225 351
f 351 225 221
f 406 405 351
f 405 350 351
f 221 215 351
f 351 191 184
f 215 216 351
f 351 216 212
f 351 200 197
f 212 208 351
f 202 200 351
f 351 208 203
f 203 202 351
f 219 224 15
f 15 224 10
f 10 14 15
f 392 256 254
f 269 268 266
f 383 385 387
f 387 389 383
f 263 385 383
f 387 386 388
f 388 389 387
f 260 389 388
f 377 379 378
f 269 379 377
f 377 268 269
f 487 384 385
f 487 382 384
f 385 267 487
f 487 267 265
f 265 382 487
f 264 382 265
f 265 266 264
f 264 266 268
f 512 341 342
f 512 342 338
f 340 341 512
f 512 348 340
f 283 511 288
f 11 8 10
f 10 226 11
f 231 7 232
f 232 230 231
f 232 225 230
f 292 293 291
f 292 294 293
f 368 513 369
f 368 365 513
f 369 236 368
f 236 365 368
f 78 86 79
f 84 83 82
f 84 78 83
f 82 155 84
f 72 161 74
f 166 76 75
f 165 119 406
f 165 161 119
f 170 172 171
f 171 70 170
f 63 70 171
f 134 135 131
f 131 406 134
f 406 136 134
f 406 145 143
f 143 136 406
f 406 118 154
f 154 151 406
f 154 155 151
f 149 145 406
f 406 151 149
f 505 145 149
f 149 151 152
f 133 132 131
f 131 135 133
f 107 106 133
f 133 106 132
f 147 149 152
f 88 87 83
f 466 109 108
f 108 106 466
f 466 106 101
f 468 70 63
f 63 64 468
f 69 70 468
f 247 248 403
f 479 88 83
f 83 78 479
f 479 468 64
f 237 481 479
f 380 372 379
f 380 381 372
f 379 274 380
f 274 273 380
f 380 273 381
f 373 372 371
f 372 381 371
f 272 373 371
f 371 273 272
f 381 273 371
f 339 421 420
f 420 337 339
f 422 421 339
f 338 422 339
f 437 436 438
f 300 303 463
f 291 293 300
f 358 359 361
f 361 362 358
f 461 292 291
f 360 488 354
f 354 361 360
f 361 359 360
f 359 288 360
f 489 488 290
f 489 355 354
f 354 488 489
f 431 436 434
f 424 425 120
f 120 431 424
f 436 431 120
f 415 121 120
f 438 436 120
f 120 453 449
f 353 464 120
f 114 353 120
f 120 121 114
f 426 425 424
f 424 433 426
f 194 200 201
f 195 200 194
f 201 40 194
f 188 189 184
f 184 191 188
f 188 191 187
f 188 187 50
f 187 191 193
f 197 195 196
f 195 42 196
f 199 351 197
f 191 351 199
f 197 196 199
f 199 196 198
f 190 191 199
f 66 61 64
f 180 179 66
f 66 179 61
f 58 183 186
f 55 176 56
f 176 181 56
f 130 129 132
f 130 128 129
f 130 132 108
f 108 109 130
f 109 128 130
f 124 122 123
f 123 111 124
f 113 111 123
f 4 497 3
f 5 6 4
f 4 3 5
f 238 497 498
f 498 243 238
f 240 241 243
f 243 246 240
f 27 211 213
f 213 26 27
f 213 495 26
f 213 211 212
f 212 495 213
f 23 28 27
f 27 26 23
f 18 237 23
f 237 28 23
f 23 24 18
f 21 16 17
f 223 222 21
f 21 222 16
f 221 219 220
f 220 222 221
f 16 222 220
f 219 12 220
f 12 16 220
f 494 206 205
f 38 37 39
f 39 40 38
f 38 494 37
f 38 40 201
f 201 206 38
f 206 494 38
f 44 49 45
f 45 42 44
f 45 196 42
f 49 198 45
f 198 196 45
f 44 42 43
f 237 44 43
f 43 39 237
f 204 202 203
f 204 205 202
f 203 208 493
f 493 209 203
f 33 32 493
f 32 209 493
f 48 49 44
f 48 46 190
f 406 351 175
f 175 181 176
f 13 12 219
f 219 15 13
f 14 12 13
f 13 15 14
f 256 258 257
f 257 258 252
f 257 251 249
f 252 251 257
f 253 254 255
f 255 254 256
f 256 257 255
f 270 273 274
f 270 274 269
f 269 266 270
f 270 271 272
f 272 273 270
f 263 261 262
f 262 267 263
f 265 267 262
f 262 266 265
f 263 383 486
f 486 261 263
f 260 261 486
f 486 389 260
f 486 383 389
f 393 386 392
f 393 388 386
f 392 254 393
f 393 254 253
f 253 388 393
f 260 388 259
f 259 388 253
f 259 261 260
f 253 255 259
f 259 255 261
f 378 382 376
f 376 377 378
f 382 264 376
f 268 377 376
f 376 264 268
f 446 473 474
f 502 234 293
f 1 234 502
f 502 511 283
f 271 270 502
f 502 270 266
f 266 262 502
f 502 262 261
f 261 255 502
f 502 255 257
f 249 1 502
f 502 257 249
f 311 234 310
f 310 234 309
f 473 311 310
f 310 474 473
f 309 474 310
f 315 234 316
f 309 234 315
f 314 309 315
f 316 234 319
f 330 234 333
f 347 348 346
f 348 512 346
f 346 345 347
f 346 512 234
f 280 367 366
f 283 288 287
f 287 288 359
f 359 358 287
f 289 511 290
f 289 288 511
f 290 488 289
f 488 360 289
f 289 360 288
f 272 271 278
f 271 277 278
f 278 277 374
f 278 373 272
f 278 374 373
f 275 277 271
f 275 236 369
f 374 277 375
f 369 370 375
f 370 374 375
f 375 275 369
f 277 275 375
f 9 7 8
f 8 11 9
f 9 232 7
f 226 225 227
f 225 232 227
f 227 11 226
f 227 9 11
f 232 9 227
f 153 87 152
f 152 151 153
f 162 161 72
f 118 119 162
f 119 161 162
f 85 86 78
f 78 84 85
f 158 86 85
f 159 84 155
f 159 154 158
f 155 154 159
f 158 85 159
f 159 85 84
f 160 166 75
f 75 74 160
f 160 74 161
f 161 165 160
f 160 165 166
f 71 76 164
f 76 166 164
f 164 163 71
f 166 165 164
f 406 172 168
f 168 165 406
f 168 169 167
f 168 172 169
f 167 163 168
f 168 164 165
f 163 164 168
f 63 171 174
f 140 134 139
f 135 134 140
f 140 102 135
f 146 143 145
f 83 87 80
f 87 153 80
f 148 93 505
f 505 149 148
f 149 147 148
f 504 102 101
f 135 102 504
f 504 133 135
f 102 140 104
f 139 105 104
f 104 140 139
f 87 88 508
f 152 87 508
f 508 147 152
f 94 95 506
f 94 89 95
f 94 146 89
f 95 89 91
f 91 479 95
f 88 479 91
f 93 88 91
f 506 95 96
f 112 111 113
f 113 110 112
f 112 110 109
f 109 466 112
f 47 44 237
f 237 51 47
f 47 48 44
f 46 48 47
f 47 51 50
f 57 51 237
f 50 51 54
f 54 51 53
f 54 188 50
f 54 53 189
f 189 188 54
f 53 51 52
f 52 57 58
f 51 57 52
f 58 186 52
f 52 186 185
f 52 185 189
f 189 53 52
f 467 68 69
f 69 468 467
f 468 479 467
f 396 403 248
f 396 248 250
f 401 115 399
f 401 398 115
f 401 396 398
f 403 396 401
f 241 240 484
f 103 479 101
f 105 98 103
f 103 104 105
f 101 102 103
f 102 104 103
f 480 466 101
f 101 479 480
f 480 479 481
f 434 436 478
f 436 437 478
f 441 440 322
f 438 440 441
f 441 437 438
f 447 473 446
f 460 459 469
f 470 469 307
f 316 322 317
f 317 315 316
f 318 315 317
f 322 440 317
f 318 317 475
f 448 120 449
f 448 447 446
f 449 447 448
f 464 459 457
f 457 459 460
f 457 120 464
f 453 120 457
f 454 455 449
f 449 453 454
f 291 300 462
f 462 461 291
f 462 300 463
f 462 463 353
f 353 461 462
f 294 292 357
f 292 461 357
f 353 355 357
f 357 461 353
f 424 431 430
f 415 120 417
f 417 120 425
f 417 418 415
f 417 422 418
f 417 421 422
f 420 421 417
f 425 428 423
f 420 417 423
f 423 417 425
f 423 428 335
f 423 337 420
f 335 337 423
f 427 428 425
f 425 426 427
f 192 191 190
f 192 193 191
f 190 46 192
f 46 193 192
f 190 199 492
f 492 199 198
f 492 48 190
f 492 198 49
f 49 48 492
f 490 56 181
f 490 183 58
f 490 181 183
f 58 57 490
f 122 128 127
f 127 123 122
f 113 123 127
f 127 110 113
f 127 128 110
f 1 243 2
f 243 498 2
f 500 498 497
f 26 495 22
f 24 23 22
f 22 23 26
f 212 216 214
f 214 495 212
f 214 216 218
f 218 24 214
f 24 22 214
f 214 22 495
f 223 21 20
f 19 217 20
f 20 217 223
f 17 19 20
f 20 21 17
f 37 494 35
f 35 494 205
f 205 204 35
f 41 43 42
f 41 42 195
f 41 40 39
f 39 43 41
f 195 194 41
f 41 194 40
f 203 209 210
f 210 204 203
f 210 209 30
f 210 30 29
f 29 204 210
f 208 211 207
f 207 493 208
f 211 34 207
f 207 34 33
f 33 493 207
f 173 172 406
f 406 175 173
f 180 174 173
f 173 179 180
f 173 171 172
f 173 174 171
f 182 351 184
f 182 175 351
f 182 186 183
f 183 181 182
f 181 175 182
f 184 185 182
f 185 186 182
f 61 179 178
f 179 173 178
f 178 173 175
f 55 61 178
f 477 309 314
f 477 474 309
f 295 502 293
f 511 502 295
f 293 294 295
f 294 296 295
f 290 511 295
f 284 502 283
f 279 502 284
f 284 283 285
f 271 502 276
f 276 502 279
f 276 275 271
f 276 279 236
f 236 275 276
f 293 234 301
f 234 307 301
f 301 300 293
f 303 300 301
f 305 234 311
f 305 307 234
f 311 472 305
f 306 470 305
f 305 470 307
f 314 315 476
f 476 315 318
f 476 445 314
f 318 475 476
f 476 475 445
f 326 234 330
f 326 319 234
f 434 478 327
f 336 512 338
f 338 339 336
f 234 512 336
f 336 333 234
f 336 339 337
f 336 337 335
f 335 333 336
f 344 343 345
f 345 346 344
f 299 343 344
f 298 299 344
f 344 349 298
f 334 333 335
f 335 428 334
f 428 427 334
f 330 333 332
f 332 331 330
f 333 334 332
f 332 426 433
f 433 331 332
f 332 427 426
f 332 334 427
f 236 279 281
f 281 280 366
f 279 284 281
f 281 284 280
f 366 365 281
f 281 365 236
f 285 283 282
f 283 287 282
f 282 287 358
f 282 362 285
f 282 358 362
f 156 155 82
f 156 80 153
f 151 155 156
f 156 153 151
f 157 162 79
f 157 86 158
f 157 79 86
f 118 162 157
f 157 154 118
f 158 154 157
f 510 162 72
f 79 162 510
f 63 174 65
f 65 64 63
f 65 66 64
f 180 66 65
f 65 174 180
f 150 145 505
f 150 146 145
f 89 146 150
f 136 143 142
f 82 83 81
f 83 80 81
f 81 156 82
f 80 156 81
f 100 101 107
f 100 504 101
f 107 133 100
f 133 504 100
f 509 88 93
f 509 508 88
f 93 148 509
f 509 148 147
f 147 508 509
f 93 91 92
f 505 93 92
f 92 150 505
f 116 482 117
f 116 112 482
f 117 111 116
f 111 112 116
f 491 47 50
f 46 47 491
f 491 193 46
f 50 187 491
f 187 193 491
f 237 479 62
f 62 57 237
f 62 479 64
f 62 61 55
f 64 61 62
f 55 56 62
f 56 490 62
f 62 490 57
f 60 467 71
f 71 163 60
f 73 76 71
f 71 467 73
f 75 76 73
f 73 74 75
f 73 467 479
f 485 398 397
f 398 396 397
f 250 485 397
f 397 396 250
f 399 482 483
f 483 484 399
f 483 482 242
f 242 241 483
f 241 484 483
f 402 401 399
f 403 401 402
f 402 246 247
f 247 403 402
f 95 479 99
f 479 103 99
f 99 96 95
f 97 96 99
f 99 98 97
f 99 103 98
f 404 112 466
f 466 480 404
f 482 112 404
f 239 482 404
f 404 481 239
f 404 480 481
f 313 472 311
f 455 454 313
f 313 454 472
f 473 447 450
f 449 455 450
f 450 447 449
f 465 464 463
f 465 459 464
f 463 303 465
f 439 317 440
f 439 475 317
f 439 440 438
f 438 475 439
f 444 475 438
f 445 475 444
f 438 120 444
f 120 448 444
f 458 457 460
f 460 469 458
f 469 470 458
f 451 453 456
f 453 457 456
f 457 458 456
f 456 458 470
f 456 306 451
f 456 470 306
f 452 453 451
f 452 454 453
f 472 454 452
f 356 296 294
f 294 357 356
f 489 296 356
f 355 489 356
f 356 357 355
f 432 433 424
f 424 430 432
f 432 331 433
f 435 431 434
f 231 230 228
f 228 230 229
f 228 6 231
f 228 4 6
f 229 233 235
f 235 500 229
f 233 349 235
f 235 2 498
f 498 500 235
f 31 37 36
f 37 35 36
f 29 31 36
f 36 204 29
f 36 35 204
f 177 175 176
f 177 178 175
f 177 176 55
f 55 178 177
f 314 445 443
f 443 477 314
f 445 444 443
f 443 444 448
f 290 295 297
f 297 295 296
f 297 489 290
f 297 296 489
f 286 284 285
f 280 284 286
f 286 285 364
f 364 367 286
f 367 280 286
f 307 469 308
f 308 301 307
f 308 469 459
f 306 305 304
f 451 306 304
f 304 452 451
f 330 331 329
f 329 326 330
f 331 432 329
f 329 432 430
f 325 327 319
f 325 326 324
f 319 326 325
f 434 327 325
f 325 435 434
f 324 435 325
f 316 319 320
f 320 478 437
f 507 142 143
f 506 96 507
f 96 142 507
f 139 134 138
f 138 134 136
f 138 105 139
f 138 98 105
f 90 91 89
f 90 92 91
f 89 150 90
f 150 92 90
f 68 467 67
f 467 60 67
f 167 68 67
f 67 163 167
f 67 60 163
f 72 74 77
f 74 73 77
f 77 510 72
f 77 479 78
f 77 73 479
f 78 79 77
f 79 510 77
f 399 484 400
f 400 402 399
f 400 484 240
f 400 240 246
f 246 402 400
f 312 311 473
f 312 313 311
f 473 450 312
f 455 313 312
f 312 450 455
f 429 430 431
f 431 435 429
f 429 435 324
f 229 500 499
f 499 500 497
f 497 4 499
f 349 344 352
f 352 235 349
f 344 235 352
f 501 235 344
f 501 346 234
f 501 344 346
f 501 234 1
f 1 2 501
f 2 235 501
f 474 477 442
f 477 443 442
f 446 474 442
f 442 448 446
f 442 443 448
f 303 301 302
f 301 308 302
f 302 308 459
f 302 465 303
f 459 465 302
f 471 305 472
f 471 304 305
f 472 452 471
f 452 304 471
f 324 326 323
f 326 329 323
f 323 329 430
f 323 429 324
f 430 429 323
f 319 327 328
f 328 320 319
f 328 327 478
f 478 320 328
f 321 322 316
f 316 320 321
f 321 320 437
f 321 441 322
f 437 441 321
f 143 146 144
f 144 507 143
f 146 94 144
f 144 94 506
f 506 507 144
f 137 138 136
f 97 98 137
f 98 138 137
f 496 228 229
f 229 499 496
f 4 228 496
f 496 499 4
f 136 142 141
f 141 137 136
f 97 137 141
f 141 96 97
f 141 142 96

