# https://github.com/mikedh/trimesh
v 0.03103593 -0.04442306 0.01218816
v -0.00140400 0.00000001 0.02846539
v -0.00747178 -0.00000000 0.02750314
v -0.01319235 -0.00000000 0.02526287
v -0.02255708 0.00000000 0.01741918
v -0.02576608 -0.00000000 0.01218026
v -0.02849868 -0.00000000 0.00027420
v -0.02777777 -0.00000000 0.00637538
v -0.02789530 -0.00000001 -0.00583968
v -0.02599568 0.00000001 -0.01168223
v -0.02288809 0.00000001 -0.01698191
v -0.01871693 -0.00000000 -0.02149249
v -0.01367602 -0.00000000 -0.02500434
v -0.00799961 0.00000000 -0.02735426
v -0.00195148 0.00000001 -0.02843312
v -0.00027421 0.00000001 -0.02849869
v 0.00747178 0.00000000 -0.02750314
v 0.00140400 -0.00000001 -0.02846540
v 0.01319235 -0.00000001 -0.02526284
v 0.01829990 0.00000000 -0.02184866
v 0.02255708 -0.00000000 -0.01741918
v 0.02576608 -0.00000000 -0.01218027
v 0.02777777 -0.00000001 -0.00637536
v 0.02849868 0.00000000 -0.00027421
v 0.02789531 0.00000000 0.00583968
v 0.01871693 0.00000000 0.02149249
v 0.02288809 0.00000001 0.01698191
v 0.01367602 0.00000000 0.02500433
v 0.00799961 -0.00000000 0.02735426
v 0.00195148 0.00000001 0.02843311
v 0.03103589 -0.00685850 -0.00691728
v 0.03103585 -0.00619812 -0.01632729
v 0.03103583 -0.00658066 -0.01934603
v 0.03103575 -0.00666474 -0.01980564
v 0.03103578 -0.00809198 -0.00273596
v 0.03103589 -0.00716847 -0.00564524
v 0.03103588 -0.00652881 -0.00861982
v 0.03103588 -0.00630395 -0.01023163
v 0.03103586 -0.00610491 -0.01328679
v 0.03103585 -0.00614875 -0.01558946
v -0.03101234 -0.00685835 -0.00691717
v -0.03101234 -0.00705342 -0.00609063
v -0.03101233 -0.00793091 -0.00317934
v -0.03101237 -0.00623704 -0.01678208
v -0.03101236 -0.00610030 -0.01374181
v -0.03101235 -0.00614625 -0.01211720
v -0.03101235 -0.00620690 -0.01122334
v -0.03101235 -0.00645711 -0.00907221
v -0.03101237 -0.00666474 -0.01980564
v -0.02869827 -0.00601349 -0.02740529
v -0.02953693 -0.00570547 -0.02325894
v -0.02946653 -0.00670410 -0.02768678
v -0.02927446 -0.00630771 -0.02727943
v -0.02943021 -0.01031063 -0.03456795
v -0.02943765 -0.00821893 -0.03127791
v -0.02925591 -0.00785588 -0.03114941
v -0.02901136 -0.00611725 -0.02735530
v -0.02943893 -0.00808669 -0.03102294
v -0.02900309 -0.00767021 -0.03125392
v -0.02869576 -0.00756391 -0.03131806
v -0.02925066 -0.01009676 -0.03472815
v -0.02869670 -0.00981574 -0.03493859
v -0.02837843 -0.00862531 -0.03328797
v -0.03101225 -0.03065458 0.01721335
v -0.02945796 -0.04214115 0.02173126
v -0.03101224 -0.04137023 0.01789191
v -0.02945497 -0.04317696 0.02139937
v -0.03101224 -0.04437309 0.01742608
v -0.02945819 -0.04647015 0.02020539
v -0.03101223 -0.04732785 0.01667341
v -0.03101223 -0.05163693 0.01500816
v -0.02942873 -0.05488965 0.01636108
v -0.02945856 -0.05108932 0.01824574
v -0.03101224 -0.03831392 0.01806740
v -0.03101226 -0.02620275 0.01580680
v -0.03101227 -0.02342602 0.01454592
v -0.03101228 -0.01829245 0.01125295
v -0.03101230 -0.01286478 0.00581133
v -0.03101228 -0.01703521 0.01021269
v -0.03101231 -0.01073564 0.00272960
v -0.03101225 -0.03364637 0.01777009
v -0.03101224 -0.03668672 0.01804094
v -0.03101232 -0.00928386 0.00006310
v 0.00695500 -0.00541350 0.03958220
v 0.02238930 -0.00504655 0.03593264
v 0.02238172 -0.00567810 0.03607218
v 0.02246045 -0.00541474 0.03610058
v 0.01881561 -0.00567275 0.03726669
v 0.02192878 -0.00567737 0.03624121
v 0.00741581 -0.00566244 0.03946264
v 0.01358886 -0.00541479 0.03860185
v 0.01489982 -0.00566812 0.03826316
v 0.01715190 -0.00541510 0.03779118
v 0.01714165 -0.00567064 0.03772913
v -0.00598408 -0.00565917 0.03999324
v 0.00001168 -0.00565990 0.03995853
v -0.00036084 -0.00541192 0.04004296
v 0.00584611 -0.00566173 0.03961783
v -0.00787233 -0.00541008 0.04001165
v -0.01096563 -0.00565867 0.03976632
v -0.00787520 -0.00565889 0.03993652
v -0.02237485 -0.00566364 0.03794223
v -0.02100085 -0.00540788 0.03838020
v -0.02099092 -0.00566212 0.03830684
v -0.01887647 -0.00566054 0.03876614
v -0.01525084 -0.00565919 0.03934576
v -0.01525334 -0.00540830 0.03942164
v -0.02510758 -0.00550419 0.03706192
v -0.02099784 -0.00526076 0.03838866
v -0.01524847 -0.00526221 0.03943042
v -0.00786891 -0.00526437 0.04001951
v -0.00036069 -0.00526614 0.04004951
v 0.01358537 -0.00526732 0.03860529
v 0.01714839 -0.00526641 0.03779289
v 0.02245761 -0.00526355 0.03609835
v 0.02520613 -0.00523724 0.03493028
v 0.02244414 -0.00516754 0.03606725
v 0.01713750 -0.00517077 0.03776305
v 0.01357633 -0.00517192 0.03857609
v 0.00694710 -0.00517231 0.03955885
v -0.00036159 -0.00517152 0.04002155
v 0.00695250 -0.00526728 0.03958742
v -0.00786503 -0.00517008 0.03999248
v -0.01524049 -0.00516814 0.03940419
v -0.02098775 -0.00516662 0.03836313
v -0.02511559 -0.00523533 0.03708221
v 0.02242159 -0.00509697 0.03601243
v 0.00693909 -0.00510110 0.03950405
v -0.00036326 -0.00510059 0.03996705
v -0.00786026 -0.00509958 0.03993860
v -0.01522930 -0.00509814 0.03935103
v -0.02097145 -0.00509692 0.03831128
v 0.02514717 -0.00506240 0.03480345
v 0.01712017 -0.00509964 0.03770820
v 0.01354312 -0.00504885 0.03844034
v 0.01356237 -0.00510064 0.03852135
v 0.00692825 -0.00504919 0.03942252
v -0.00036570 -0.00504893 0.03988538
v -0.00785437 -0.00504835 0.03985730
v -0.02094842 -0.00504675 0.03823238
v -0.02508600 -0.00509472 0.03700776
v -0.02509962 -0.00513413 0.03704191
v 0.01709596 -0.00504822 0.03762749
v -0.01521447 -0.00504752 0.03927043
v -0.02506854 -0.00506259 0.03696417
v 0.02892837 -0.00513178 0.02867078
v 0.02899899 -0.00523564 0.02870629
v 0.02903977 -0.00536973 0.02873283
v 0.02626587 -0.00506147 0.03420907
v 0.02518478 -0.00513449 0.03488431
v 0.02631802 -0.00513312 0.03428318
v 0.02634977 -0.00523593 0.03432513
v 0.02519079 -0.00568237 0.03489599
v 0.02636114 -0.00536717 0.03433698
v 0.02633884 -0.00568616 0.03429881
v 0.02727952 -0.00506050 0.03339843
v 0.02734162 -0.00513179 0.03346882
v 0.02737677 -0.00523488 0.03351370
v 0.02803738 -0.00505820 0.03232925
v 0.02811038 -0.00512819 0.03239841
v 0.02815123 -0.00523083 0.03245139
v 0.02738782 -0.00536742 0.03353293
v 0.02849198 -0.00505731 0.03112348
v 0.02857777 -0.00512684 0.03118728
v 0.02862997 -0.00522940 0.03124242
v 0.02816543 -0.00536445 0.03248321
v 0.02865379 -0.00536361 0.03128036
v 0.02906054 -0.00569972 0.02874861
v -0.02900937 -0.00523312 0.02924654
v -0.02651981 -0.00517926 0.03635551
v -0.02650582 -0.00513224 0.03633130
v -0.02649202 -0.00567459 0.03632568
v -0.02734088 -0.00568374 0.03564994
v -0.02770180 -0.00535854 0.03530533
v -0.02842147 -0.00569657 0.03384218
v -0.02841994 -0.00535200 0.03390059
v -0.02879096 -0.00535375 0.03237978
v -0.02897331 -0.00570004 0.03093264
v -0.02904921 -0.00536735 0.02927412
v -0.02767981 -0.00512542 0.03522169
v -0.02762345 -0.00505675 0.03514465
v -0.02646101 -0.00506126 0.03625805
v -0.02639502 -0.00501977 0.03615486
v -0.02871548 -0.00511832 0.03226917
v -0.02837259 -0.00511764 0.03378778
v -0.02876795 -0.00521886 0.03233325
v -0.02841043 -0.00521771 0.03385511
v -0.02770363 -0.00522650 0.03527691
v -0.02653015 -0.00536261 0.03637918
v -0.02652831 -0.00523367 0.03637135
v -0.02769543 -0.00517190 0.03525242
v -0.02829848 -0.00505181 0.03370962
v -0.02561973 -0.00566856 0.03679159
v -0.02837853 -0.00977729 -0.03496741
v 0.02840200 -0.00869016 -0.03339089
v -0.03101238 -0.00759268 -0.02346711
v -0.02947246 -0.00654829 -0.02719048
v -0.03101239 -0.00896455 -0.02703368
v -0.03101240 -0.01035962 -0.02975149
v -0.03101240 -0.01076849 -0.03044230
v -0.03101237 -0.01246699 -0.03295298
v 0.02945359 -0.01031064 -0.03456796
v 0.03103577 -0.01202504 -0.03234794
v 0.03103578 -0.01038728 -0.02979948
v 0.02946162 -0.00808570 -0.03102197
v 0.02949414 -0.00654807 -0.02719107
v 0.03103580 -0.00867729 -0.02638268
v 0.03103581 -0.00760966 -0.02352016
v 0.03103582 -0.00737503 -0.02275298
v 0.02927127 -0.04597939 0.02080980
v 0.02803297 -0.02591784 0.02825325
v 0.02924505 -0.03609731 0.02405194
v 0.02821817 -0.04600663 0.02142851
v 0.02811196 -0.04337401 0.02252782
v 0.02837818 -0.03606488 0.02507877
v 0.02778736 -0.03708790 0.02493623
v 0.02728254 -0.02942433 0.02758274
v 0.02534941 -0.00726035 0.03442622
v 0.02823199 -0.01570807 0.03039883
v 0.02814737 -0.00569631 0.03248831
v 0.02736313 -0.00569211 0.03351421
v 0.02695289 -0.01567405 0.03153785
v 0.02865061 -0.00569879 0.03129843
v 0.02920211 -0.02595725 0.02636278
v 0.02865282 -0.01571837 0.02963065
v 0.02926193 -0.04108100 0.02256039
v 0.02876298 -0.02594571 0.02742919
v 0.02843880 -0.02593395 0.02788112
v 0.02888979 -0.03608693 0.02464333
v 0.02894524 -0.04108350 0.02298631
v 0.02862506 -0.04601633 0.02132624
v 0.02637738 -0.01819508 0.03113507
v 0.02765980 -0.01569345 0.03104343
v 0.02653230 -0.01997815 0.03058732
v 0.02898669 -0.04600680 0.02111669
v 0.02179621 -0.01820067 0.03255837
v 0.02173091 -0.02456775 0.03049466
v 0.01453966 -0.03093917 0.02928657
v 0.02037134 -0.05551228 0.01747681
v 0.02516333 -0.03088136 0.02760801
v 0.02186335 -0.01179974 0.03449712
v 0.02155050 -0.04338663 0.02333931
v 0.02160769 -0.03717814 0.02591126
v 0.02149681 -0.04949847 0.02052859
v 0.02835272 -0.05066742 0.01930447
v 0.00378806 -0.05581853 0.01802342
v 0.00001171 -0.05202954 0.02011654
v 0.00725721 -0.03729855 0.02714319
v 0.00001170 -0.03646141 0.02772059
v 0.00729223 -0.03099077 0.02986952
v 0.00001170 -0.03104473 0.03009972
v 0.00001170 -0.02743691 0.03162237
v 0.00732635 -0.02463612 0.03246278
v 0.00001169 -0.01751313 0.03558737
v 0.00735876 -0.01824218 0.03493621
v 0.00738893 -0.01181248 0.03730150
v 0.01435892 -0.04962647 0.02096453
v 0.01441645 -0.04347247 0.02392400
v 0.01447702 -0.03723759 0.02668790
v 0.01812414 -0.03091636 0.02884304
v 0.01826356 -0.01820687 0.03339924
v 0.01466781 -0.01821617 0.03406516
v 0.02166795 -0.03089680 0.02828696
v 0.02512172 -0.03715174 0.02538800
v 0.02530155 -0.01180146 0.03326901
v 0.02579104 -0.01179516 0.03307187
v 0.00718845 -0.04971505 0.02122272
v 0.00722228 -0.04354446 0.02426855
v 0.01460352 -0.02459610 0.03173994
v 0.01473196 -0.01180270 0.03627623
v 0.01057512 -0.00566435 0.03905514
v -0.01431642 -0.04957388 0.02099939
v 0.00001171 -0.04464101 0.02388470
v 0.00001171 -0.04358383 0.02439879
v -0.00720654 -0.03095253 0.03005253
v -0.00716585 -0.04350441 0.02433866
v -0.00790013 -0.05578171 0.01795731
v 0.00001170 -0.05582952 0.01804283
v -0.01814245 -0.05557773 0.01759263
v -0.02824888 -0.04817159 0.02044036
v -0.02836172 -0.05284398 0.01820495
v -0.02513518 -0.03067147 0.02809902
v -0.02670765 -0.02341280 0.03033335
v -0.02174032 -0.01804909 0.03363428
v -0.01817578 -0.01808915 0.03429237
v -0.02161645 -0.03072393 0.02876159
v -0.02523236 -0.01801227 0.03271155
v -0.02508993 -0.00566780 0.03701674
v -0.01435735 -0.04338617 0.02402759
v -0.01445256 -0.03083984 0.02962890
v -0.01455422 -0.01813099 0.03476167
v -0.00724222 -0.01821364 0.03526069
v -0.02754197 -0.03455776 0.02607377
v -0.02505299 -0.04318126 0.02305272
v -0.02150851 -0.04324934 0.02345612
v -0.02146270 -0.04941894 0.02056504
v -0.02837862 -0.05521376 0.01694150
v -0.02900822 -0.04919006 0.01969412
v -0.02900139 -0.05512490 0.01678279
v -0.02925611 -0.04313400 0.02183563
v -0.02925099 -0.03697229 0.02381652
v -0.02711674 -0.01795950 0.03199227
v -0.02798838 -0.04209226 0.02305976
v -0.02928182 -0.04915324 0.01941938
v -0.02895773 -0.04310197 0.02221986
v -0.02866037 -0.04920145 0.01988825
v -0.02854926 -0.04306263 0.02251538
v -0.02890427 -0.03690928 0.02442877
v -0.02821222 -0.03057911 0.02718071
v -0.02784286 -0.01799098 0.03141254
v -0.02879334 -0.00569950 0.03236307
v -0.02878933 -0.02435397 0.02819177
v -0.02856765 -0.03061427 0.02682497
v -0.02884699 -0.03064834 0.02641089
v -0.02924584 -0.03071499 0.02547045
v -0.02839429 -0.03684536 0.02491863
v -0.02777032 -0.03054324 0.02744994
v 0.02947361 -0.04595031 0.02044322
v 0.02945387 -0.05488756 0.01636050
v 0.02927579 -0.05057399 0.01886168
v 0.02939354 -0.05493905 0.01644935
v 0.02902341 -0.05512574 0.01678203
v 0.02870541 -0.05066483 0.01924094
v 0.02840184 -0.05521308 0.01694226
v 0.02945952 -0.05103985 0.01832782
v 0.02947072 -0.04701823 0.02003974
v 0.02902376 -0.05063457 0.01909494
v -0.03101241 -0.02799980 -0.04412227
v -0.03101241 -0.02907418 -0.04445608
v -0.03101223 -0.05357302 0.01400893
v -0.03101241 -0.01983594 -0.04005387
v -0.03101241 -0.01892254 -0.03939707
v -0.03101239 -0.05016154 -0.04332089
v -0.03101241 -0.02627347 -0.04349673
v -0.03101241 -0.01442036 -0.03531539
v -0.03101241 -0.01657463 -0.03746422
v -0.03101223 -0.04885492 0.01616438
v -0.03101224 -0.05799339 0.01102578
v -0.03101224 -0.06236538 0.00675826
v -0.03101239 -0.00865086 -0.02632091
v -0.03101241 -0.03810766 -0.04573004
v -0.03101241 -0.03043997 -0.04482148
v -0.03101241 -0.03205760 -0.04517189
v -0.03101241 -0.03474848 -0.04556410
v -0.03101241 -0.03507121 -0.04559550
v -0.03101226 -0.06780689 -0.00246752
v -0.03101225 -0.06657740 0.00034348
v -0.03101225 -0.06509666 0.00300217
v -0.03101224 -0.06337164 0.00550465
v -0.03101241 -0.03911807 -0.04571061
v -0.03101241 -0.03971452 -0.04568408
v -0.03101240 -0.04276671 -0.04537204
v -0.03101238 -0.00681371 -0.02053920
v -0.03101225 -0.02771246 0.01636489
v -0.03101227 -0.02079393 0.01303174
v -0.03101226 -0.06818905 -0.00352564
v -0.03101227 -0.06903317 -0.00644728
v -0.03101240 -0.04346665 -0.04525828
v -0.03101240 -0.04575066 -0.04477424
v -0.03101239 -0.04771254 -0.04421560
v -0.03101239 -0.04866047 -0.04389612
v -0.03101237 -0.05555625 -0.04046433
v -0.03101238 -0.05293838 -0.04201613
v -0.03101238 -0.05177598 -0.04260213
v -0.03101228 -0.06959544 -0.00943766
v -0.03101228 -0.06987122 -0.01249061
v -0.03101229 -0.06977420 -0.01665391
v -0.03101234 -0.06510610 -0.03064821
v -0.03101233 -0.06591890 -0.02926132
v -0.03101235 -0.06142583 -0.03548249
v -0.03101236 -0.05923741 -0.03763287
v -0.03101237 -0.05801136 -0.03867252
v -0.03101235 -0.00809202 -0.00273594
v -0.03101229 -0.01484654 0.00811404
v -0.03101231 -0.01109465 0.00330628
v -0.03101232 -0.06688242 -0.02737230
v -0.03101232 -0.06726583 -0.02652244
v -0.03101231 -0.06834226 -0.02367530
v -0.03101231 -0.06865552 -0.02265161
v -0.03101230 -0.06936065 -0.01966843
v -0.03101235 -0.06338248 -0.03315165
v -0.03101234 -0.06475954 -0.03119436
v 0.03103592 -0.00928559 0.00006512
v 0.03103593 -0.01073460 0.00272704
v 0.03103593 -0.01112354 0.00335042
v 0.03103570 -0.02658745 -0.04361910
v 0.03103570 -0.02627342 -0.04349687
v 0.03103571 -0.02377852 -0.04238493
v 0.03103571 -0.02232718 -0.04161483
v 0.03103567 -0.04769663 -0.04422083
v 0.03103569 -0.05809533 -0.03860477
v 0.03103568 -0.05720921 -0.03929801
v 0.03103570 -0.02810255 -0.04415616
v 0.03103569 -0.03043993 -0.04482165
v 0.03103596 -0.04143309 0.01788387
v 0.03103597 -0.03837508 0.01806589
v 0.03103595 -0.03249776 0.01239843
v 0.03103597 -0.03371738 0.01777881
v 0.03103597 -0.03675358 0.01804301
v 0.03103597 -0.02625667 0.01582693
v 0.03103595 -0.02679917 0.01051651
v 0.03103597 -0.02777843 0.01638569
v 0.03103597 -0.03072437 0.01722807
v 0.03103597 -0.02348258 0.01457313
v 0.03103596 -0.02084529 0.01306262
v 0.03103572 -0.02112228 -0.04089984
v 0.03103573 -0.01862266 -0.03917067
v 0.03103568 -0.03474847 -0.04556428
v 0.03103568 -0.03403170 -0.04548264
v 0.03103568 -0.05467378 -0.04102565
v 0.03103567 -0.05200646 -0.04249081
v 0.03103567 -0.04921524 -0.04369375
v 0.03103571 -0.06428490 -0.03190483
v 0.03103595 -0.04738632 0.01665525
v 0.03103594 -0.04891163 0.01614343
v 0.03103594 -0.01289891 0.00585300
v 0.03103595 -0.01488502 0.00815280
v 0.03103596 -0.01834076 0.01128904
v 0.03103575 -0.01246699 -0.03295298
v 0.03103567 -0.04346668 -0.04525845
v 0.03103567 -0.04173033 -0.04551152
v 0.03103568 -0.03911808 -0.04571079
v 0.03103568 -0.03869826 -0.04572274
v 0.03103572 -0.06641541 -0.02832664
v 0.03103571 -0.06490590 -0.03096669
v 0.03103569 -0.06036314 -0.03657856
v 0.03103569 -0.05905513 -0.03779437
v 0.03103580 -0.00899238 -0.02709465
v 0.03103591 -0.05769802 0.01125985
v 0.03103590 -0.06081501 0.00846333
v 0.03103589 -0.06158701 0.00764490
v 0.03103582 -0.06909706 -0.00672249
v 0.03103580 -0.06963243 -0.00971440
v 0.03103580 -0.06979964 -0.01131316
v 0.03103578 -0.06989437 -0.01438398
v 0.03103583 -0.06827816 -0.00379153
v 0.03103588 -0.06285918 0.00615853
v 0.03103588 -0.06353945 0.00528174
v 0.03103586 -0.06524426 0.00276143
v 0.03103575 -0.06921125 -0.02042002
v 0.03103573 -0.06688239 -0.02737226
v 0.02945368 -0.05754462 -0.04237374
v 0.03103576 -0.01312336 -0.03379937
v 0.03103575 -0.06865542 -0.02265159
v 0.03024468 -0.06975684 -0.02367029
v 0.03103573 -0.06766724 -0.02555333
v 0.03024468 -0.06590382 -0.03190539
v 0.03103570 -0.06242873 -0.03434435
v 0.03103570 -0.06213401 -0.03469029
v 0.03103568 -0.05558071 -0.04044834
v 0.03024468 -0.05238152 -0.04380566
v 0.03024468 -0.05634505 -0.04155764
v 0.03103567 -0.04473225 -0.04501185
v 0.03024468 -0.04814782 -0.04549064
v 0.03103568 -0.03709080 -0.04571743
v 0.03103569 -0.03103361 -0.04496048
v 0.03024468 -0.03463745 -0.04690682
v 0.03024468 -0.03014638 -0.04613644
v 0.03024468 -0.02168839 -0.04280096
v 0.03024468 -0.01788037 -0.04029853
v 0.03024468 -0.01146253 -0.03385850
v 0.03103575 -0.01513980 -0.03607944
v 0.03103575 -0.01538653 -0.03633016
v 0.03103574 -0.01737075 -0.03816235
v 0.02945360 -0.01435110 -0.03907868
v 0.03024468 -0.01445027 -0.03729894
v 0.02945360 -0.01198662 -0.03663504
v 0.02945361 -0.01695802 -0.04128912
v 0.02945361 -0.01978591 -0.04324115
v 0.02945362 -0.02533222 -0.04602156
v 0.02945362 -0.02281064 -0.04491137
v 0.02945361 -0.02089035 -0.04389708
v 0.02945362 -0.02599641 -0.04627508
v 0.02945363 -0.02914619 -0.04727214
v 0.02945363 -0.02985280 -0.04745129
v 0.02945364 -0.03231366 -0.04795376
v 0.02945365 -0.03881624 -0.04841461
v 0.02945364 -0.03554643 -0.04833716
v 0.02945364 -0.03433136 -0.04822921
v 0.03024468 -0.04372351 -0.04658087
v 0.02945365 -0.04209388 -0.04818111
v 0.02945366 -0.04425597 -0.04785380
v 0.02945366 -0.04398034 -0.04790333
v 0.02945366 -0.04534946 -0.04763443
v 0.02945366 -0.04855267 -0.04677530
v 0.02945367 -0.05167308 -0.04560726
v 0.02945367 -0.05468037 -0.04413689
v 0.02945367 -0.05299294 -0.04500623
v 0.02945369 -0.06499218 -0.03546661
v 0.02945369 -0.06420655 -0.03641186
v 0.03024468 -0.05996396 -0.03878879
v 0.02945369 -0.06272815 -0.03802185
v 0.02945370 -0.06700323 -0.03268545
v 0.02945371 -0.06873751 -0.02970181
v 0.02945371 -0.06955793 -0.02800047
v 0.02945371 -0.06934381 -0.02846802
v -0.02900164 -0.00992087 -0.03485988
v -0.02943029 -0.06962369 -0.02785508
v -0.02900281 -0.07172879 -0.02347135
v -0.02925196 -0.07151569 -0.02341430
v -0.02925075 -0.06986977 -0.02795896
v -0.02943029 -0.06934452 -0.02846838
v -0.02925077 -0.06760971 -0.03223197
v -0.02943028 -0.06738055 -0.03209502
v -0.02943028 -0.06704954 -0.03261747
v -0.02869667 -0.06505306 -0.03637153
v -0.02837854 -0.06570440 -0.03564367
v -0.02943028 -0.06457216 -0.03598369
v -0.02925074 -0.06478021 -0.03615127
v -0.02943028 -0.06420784 -0.03641310
v -0.02837854 -0.06265333 -0.03903892
v -0.02837854 -0.06509022 -0.03640188
v -0.02943027 -0.06125096 -0.03944455
v -0.02925071 -0.06143377 -0.03963946
v -0.02925072 -0.05763896 -0.04263371
v -0.02943027 -0.06087258 -0.03978287
v -0.02943027 -0.05748505 -0.04241534
v -0.02943027 -0.05710987 -0.04266777
v -0.02837854 -0.05537271 -0.04451493
v -0.02869668 -0.05784107 -0.04292044
v -0.02837854 -0.05919006 -0.04201228
v -0.02925071 -0.05346610 -0.04507401
v -0.02943026 -0.05334403 -0.04483634
v -0.02943026 -0.05298741 -0.04501010
v -0.02837854 -0.05126270 -0.04650088
v -0.02869669 -0.05362660 -0.04538601
v -0.02925070 -0.04899501 -0.04691163
v -0.02943026 -0.04890718 -0.04665928
v -0.02869668 -0.04438246 -0.04845979
v -0.02869670 -0.04911087 -0.04724292
v -0.02837853 -0.04693108 -0.04794035
v -0.02837854 -0.04912711 -0.04728809
v -0.02943026 -0.04858299 -0.04676524
v -0.02943025 -0.04426166 -0.04785366
v -0.02925070 -0.04431354 -0.04811576
v -0.02837853 -0.04439250 -0.04850675
v -0.02869660 -0.03464982 -0.04888308
v -0.02869664 -0.03953077 -0.04900914
v -0.02837853 -0.03953438 -0.04905700
v -0.02837853 -0.04244993 -0.04880927
v -0.02869665 -0.02983335 -0.04808268
v -0.02837853 -0.03333986 -0.04878153
v -0.02837853 -0.03464695 -0.04893093
v -0.02869670 -0.02517350 -0.04662346
v -0.02837853 -0.02795932 -0.04763094
v -0.02837853 -0.02515755 -0.04666886
v -0.02943025 -0.04398045 -0.04790433
v -0.02943025 -0.03949524 -0.04839260
v -0.02943024 -0.03470021 -0.04826788
v -0.02925072 -0.03467786 -0.04853396
v -0.02943024 -0.02996866 -0.04747989
v -0.02943023 -0.02539233 -0.04604525
v -0.02925068 -0.02529719 -0.04629492
v -0.02943023 -0.02105828 -0.04399261
v -0.02925069 -0.01688858 -0.04157376
v -0.02943022 -0.01344421 -0.03819826
v -0.02925068 -0.01325498 -0.03838675
v -0.02900161 -0.01675667 -0.04174902
v -0.02900163 -0.02082304 -0.04441863
v -0.02925068 -0.02092900 -0.04422635
v -0.02925070 -0.02990952 -0.04774035
v -0.02900163 -0.02986138 -0.04795454
v -0.02900161 -0.03465990 -0.04875254
v -0.02900163 -0.03952274 -0.04887833
v -0.02925071 -0.03951016 -0.04865925
v -0.02900166 -0.04435644 -0.04833116
v -0.02900167 -0.04906738 -0.04711905
v -0.02900166 -0.05356650 -0.04526935
v -0.02900166 -0.05776547 -0.04281323
v -0.02900168 -0.06158405 -0.03979975
v -0.02900166 -0.06495110 -0.03628909
v -0.02900167 -0.07007190 -0.02804452
v -0.02869736 -0.07185619 -0.02350571
v -0.02900162 -0.01309953 -0.03854181
v -0.02869665 -0.01300682 -0.03863456
v -0.02900165 -0.02521938 -0.04650039
v -0.02869666 -0.02076020 -0.04453377
v -0.02869672 -0.06167378 -0.03989561
v -0.02900163 -0.06779778 -0.03234456
v -0.02869660 -0.06790993 -0.03241190
v -0.02869667 -0.07019252 -0.02809585
v -0.02837855 -0.07190263 -0.02351859
v -0.02837853 -0.02370560 -0.04606334
v -0.02837853 -0.01968817 -0.04396297
v -0.02869661 -0.01667819 -0.04185391
v -0.02837853 -0.01597344 -0.04136446
v -0.02837853 -0.01262279 -0.03831082
v -0.02853004 -0.05520561 0.01692856
v -0.02867403 -0.05648065 0.01615039
v -0.02837859 -0.06842569 0.00398731
v -0.02837858 -0.06987033 0.00125374
v -0.02868433 -0.06983051 0.00123546
v -0.02837858 -0.07056929 -0.00032081
v -0.02837856 -0.07298162 -0.00940982
v -0.02837857 -0.07284027 -0.00840909
v -0.02837857 -0.07254806 -0.00678484
v -0.02869161 -0.07279451 -0.00841597
v -0.02868808 -0.07166070 -0.00348633
v -0.02837857 -0.07207049 -0.00475257
v -0.02837856 -0.07306353 -0.01011349
v -0.02837856 -0.07325791 -0.01349155
v -0.02837856 -0.07312601 -0.01687938
v -0.02837856 -0.07325781 -0.01414730
v -0.02869660 -0.07289315 -0.01854306
v -0.02837856 -0.07294068 -0.01854937
v -0.02925253 -0.07254229 -0.01850083
v -0.02943034 -0.07192163 -0.02060685
v -0.02943031 -0.07241797 -0.01729013
v -0.02925406 -0.07285487 -0.01348558
v -0.02943020 -0.07259256 -0.01395741
v -0.02943003 -0.07244369 -0.01061296
v -0.02925629 -0.07244029 -0.00847508
v -0.02942990 -0.07218303 -0.00851897
v -0.02942956 -0.07117898 -0.00404037
v -0.02942974 -0.07173791 -0.00618697
v -0.02925893 -0.07131457 -0.00359625
v -0.02942982 -0.07196944 -0.00729194
v -0.02942943 -0.07065032 -0.00239876
v -0.02942902 -0.06867572 0.00216111
v -0.02926176 -0.06949954 0.00107570
v -0.02942851 -0.06502905 0.00776129
v -0.02926449 -0.06703316 0.00543679
v -0.02942875 -0.06698429 0.00505402
v -0.02942817 -0.06036380 0.01256284
v -0.02926863 -0.06035227 0.01289432
v -0.02942831 -0.06281364 0.01027488
v -0.02926687 -0.06395837 0.00941171
v -0.02926951 -0.05628188 0.01582728
v -0.02837855 -0.07267246 -0.02023060
v -0.02837859 -0.06740060 0.00563222
v -0.02868070 -0.06734161 0.00564415
v -0.02837859 -0.06575790 0.00791196
v -0.02867753 -0.06423694 0.00966322
v -0.02837859 -0.06539842 0.00836346
v -0.02837860 -0.06314556 0.01088668
v -0.02867519 -0.06059404 0.01318488
v -0.02837860 -0.06066925 0.01317503
v -0.02837860 -0.05797666 0.01522375
v -0.02900276 -0.07276189 -0.01852709
v -0.02900264 -0.07307749 -0.01348049
v -0.02869457 -0.07321051 -0.01347749
v -0.02900246 -0.07266212 -0.00843824
v -0.02900224 -0.07153153 -0.00352782
v -0.02900201 -0.06970727 0.00117515
v -0.02900179 -0.06722710 0.00556596
v -0.02900160 -0.06413390 0.00956851
v -0.02900139 -0.05640779 0.01602925
v -0.02900146 -0.06050500 0.01307570
v -0.02943029 -0.07125887 -0.02334578
v 0.02840193 -0.02915053 -0.04796218
v 0.02840193 -0.02795932 -0.04763094
v 0.01626362 -0.02771779 -0.04844406
v 0.01626362 -0.02893765 -0.04878325
v 0.01075791 -0.02887925 -0.04900848
v 0.00946912 -0.02886902 -0.04904795
v -0.02108171 -0.02900867 -0.04850930
v -0.02113518 -0.02779938 -0.04816936
v -0.01343736 -0.02890494 -0.04890941
v -0.00867495 -0.02763368 -0.04872716
v -0.00687977 -0.02885254 -0.04911151
v -0.00579801 -0.02884714 -0.04913233
v -0.00579801 -0.02761511 -0.04878973
v 0.00378816 -0.02760641 -0.04881898
v 0.00183956 -0.02883519 -0.04917841
v -0.02837853 -0.02915053 -0.04796218
v -0.02358622 -0.02905264 -0.04833970
v -0.02113518 -0.02900956 -0.04850587
v -0.02250464 -0.07235266 -0.02364730
v -0.02113518 -0.07088263 -0.02803991
v 0.01626362 -0.07114568 -0.02815359
v 0.02840179 -0.07036705 -0.02781713
v 0.02840178 -0.07071390 -0.02698541
v 0.01821158 -0.07261702 -0.02372341
v 0.02840177 -0.07177487 -0.02395507
v 0.02840181 -0.07190278 -0.02351948
v 0.01626362 -0.06901766 -0.03231549
v 0.02840179 -0.06934734 -0.02997353
v 0.02840180 -0.06828900 -0.03188128
v 0.02840181 -0.06578380 -0.03554038
v 0.02840182 -0.06361112 -0.03806542
v 0.02840184 -0.05771285 -0.04306523
v 0.01626362 -0.05970013 -0.04269059
v 0.02840184 -0.05856443 -0.04247260
v 0.02840184 -0.05919036 -0.04201265
v 0.01626362 -0.06324653 -0.03964541
v 0.02840183 -0.06119844 -0.04038412
v 0.02840183 -0.06265345 -0.03903901
v 0.01626362 -0.05579007 -0.04525213
v 0.02840186 -0.05271892 -0.04587146
v 0.01626362 -0.05158186 -0.04728706
v 0.02840188 -0.04693117 -0.04794075
v 0.02840187 -0.04859063 -0.04746252
v 0.02840187 -0.04955621 -0.04714305
v 0.02840186 -0.05126280 -0.04650113
v 0.02840189 -0.04288761 -0.04875024
v 0.01626362 -0.04255693 -0.04965016
v 0.02840190 -0.03944143 -0.04906119
v 0.01626362 -0.03322779 -0.04962219
v 0.00378816 -0.02883949 -0.04916187
v 0.00378816 -0.03317609 -0.05000989
v -0.00867495 -0.03318875 -0.04991493
v -0.02837853 -0.02982407 -0.04812977
v -0.02113518 -0.04252076 -0.04936590
v -0.02113518 -0.03789231 -0.04965219
v -0.02837853 -0.03789401 -0.04909012
v -0.02113518 -0.03326566 -0.04933815
v -0.02113518 -0.04707345 -0.04848408
v -0.02113518 -0.05147407 -0.04702155
v -0.02837854 -0.05364874 -0.04542860
v -0.02113518 -0.05564889 -0.04500274
v -0.02837854 -0.05786875 -0.04295966
v -0.02113518 -0.05952791 -0.04246157
v -0.02837854 -0.06170653 -0.03993073
v -0.02113518 -0.06304616 -0.03944057
v -0.02113518 -0.06614467 -0.03599035
v -0.02837854 -0.06795084 -0.03243681
v -0.02837854 -0.06828874 -0.03188115
v -0.02837855 -0.07023652 -0.02811494
v -0.00215465 -0.07310858 -0.02386359
v 0.00802386 -0.07301899 -0.02383815
v 0.00378806 -0.07309416 -0.02385958
v 0.00378816 -0.07150471 -0.02830872
v 0.00378816 -0.06935364 -0.03251572
v 0.00378816 -0.06667712 -0.03640959
v 0.01626362 -0.06636981 -0.03616764
v 0.00378816 -0.05993519 -0.04300320
v 0.00378816 -0.05598278 -0.04559246
v 0.00378816 -0.05172899 -0.04764945
v 0.00378816 -0.04724511 -0.04913966
v 0.01626362 -0.04714604 -0.04876129
v 0.00378816 -0.04260629 -0.05003815
v 0.00378816 -0.03789027 -0.05032987
v 0.01626362 -0.03789144 -0.04993875
v -0.00867495 -0.07141678 -0.02827074
v -0.00867495 -0.06927136 -0.03246668
v -0.00867495 -0.06660186 -0.03635031
v 0.00378816 -0.06351999 -0.03992504
v -0.00867495 -0.05987762 -0.04292664
v -0.00867495 -0.05593558 -0.04550911
v -0.00867495 -0.05169295 -0.04756068
v -0.00867495 -0.04259420 -0.04994313
v -0.00867495 -0.03789057 -0.05023406
v -0.01232910 -0.07288647 -0.02379996
v -0.02113518 -0.06877150 -0.03216879
v -0.00867495 -0.06345301 -0.03985657
v -0.00867495 -0.04722084 -0.04904701
v -0.02113518 -0.02347792 -0.04657679
v 0.02840193 -0.01262279 -0.03831082
v -0.00867495 -0.01179976 -0.03910479
v 0.00378816 -0.01173082 -0.03917127
v 0.01626362 -0.01201231 -0.03889973
v -0.02113518 -0.01221856 -0.03870079
v 0.01626362 -0.02336174 -0.04683876
v -0.00867495 -0.02324202 -0.04710872
v 0.00378816 -0.02320317 -0.04719630
v 0.02840193 -0.02370560 -0.04606334
v 0.00378816 -0.01904454 -0.04502208
v -0.00867495 -0.01909429 -0.04494021
v 0.02840193 -0.01968817 -0.04396297
v 0.01626362 -0.01544356 -0.04202682
v 0.00378816 -0.01519923 -0.04233224
v 0.01626362 -0.01924766 -0.04468782
v -0.00867495 -0.01525907 -0.04225744
v -0.02113518 -0.01939647 -0.04444294
v -0.02113518 -0.01562257 -0.04180306
v -0.02113528 -0.07106168 -0.00004333
v 0.01019434 -0.05575004 0.01790131
v 0.01626352 -0.05562730 0.01768221
v 0.02840182 -0.05897039 0.01451520
v 0.02840182 -0.05768824 0.01542029
v 0.02840181 -0.06509218 0.00873607
v 0.02840181 -0.06413059 0.00984287
v 0.01626352 -0.06317831 0.01205045
v 0.02840182 -0.06258684 0.01144249
v 0.01626352 -0.05947487 0.01519709
v 0.01626352 -0.07132617 0.00006694
v 0.02840180 -0.06977998 0.00144266
v 0.02840181 -0.06889039 0.00317013
v 0.02840181 -0.06842617 0.00398761
v 0.01626352 -0.06915811 0.00441624
v 0.01626352 -0.06642567 0.00843502
v 0.02840181 -0.06712016 0.00605045
v 0.01626352 -0.07289056 -0.00453408
v 0.02840180 -0.07157978 -0.00307707
v 0.02840180 -0.07038286 0.00011898
v 0.02840179 -0.07280852 -0.00820844
v 0.02840178 -0.07325484 -0.01324800
v 0.02840178 -0.07325823 -0.01414733
v 0.01626352 -0.07410641 -0.01415495
v 0.02840178 -0.07314029 -0.01672960
v 0.01626352 -0.07373586 -0.01900052
v 0.02840178 -0.07289638 -0.01887907
v 0.02840178 -0.07267960 -0.02020009
v -0.02113528 -0.07345224 -0.01895949
v -0.02837856 -0.07289462 -0.01887884
v -0.02113528 -0.07353862 -0.00933944
v -0.02113528 -0.07381985 -0.01415236
v -0.02837857 -0.07171448 -0.00350795
v -0.02113528 -0.07261364 -0.00460786
v -0.02837858 -0.06912711 0.00273220
v -0.02113528 -0.06891083 0.00427143
v -0.02113528 -0.06297848 0.01184506
v -0.02837860 -0.06258672 0.01144237
v -0.02837859 -0.06426843 0.00969031
v -0.02113528 -0.05930443 0.01496672
v -0.02837860 -0.05897009 0.01451479
v -0.00867505 -0.05965052 0.01543453
v 0.00378806 -0.05970750 0.01551154
v 0.00378806 -0.06673357 0.00867620
v 0.00378806 -0.07168715 0.00021750
v 0.00378806 -0.07326849 -0.00443339
v 0.00378806 -0.07421096 -0.00925447
v 0.00378806 -0.07449751 -0.01415846
v 0.01626352 -0.07382293 -0.00930352
v 0.00378806 -0.07412295 -0.01905651
v -0.00867505 -0.06338423 0.01226213
v 0.00378806 -0.06345104 0.01233080
v -0.00867505 -0.06665816 0.00861712
v 0.00378806 -0.06949563 0.00461390
v -0.00867505 -0.07159875 0.00018063
v -0.00867505 -0.07317592 -0.00445803
v -0.00867505 -0.07411592 -0.00926649
v -0.00867505 -0.07440172 -0.01415759
v -0.00867505 -0.07402815 -0.01904278
v -0.00867505 -0.07300210 -0.02383306
v -0.02113528 -0.06620006 0.00825829
v -0.00867505 -0.06941295 0.00456549
v -0.02942813 -0.05932075 0.01341237
v -0.02942810 -0.05771593 0.01459572
v -0.03021604 -0.05540435 0.01450661
v -0.03021604 -0.05851459 0.01234303
v -0.02942839 -0.06377522 0.00924410
v -0.03021604 -0.06389932 0.00702923
v -0.03021604 -0.06794374 0.00063587
v -0.02942913 -0.06927099 0.00096396
v -0.02942929 -0.07008049 -0.00088446
v -0.03021604 -0.07043854 -0.00650613
v -0.03021604 -0.06939489 -0.00286396
v -0.02943033 -0.07227883 -0.01846971
v -0.03021604 -0.07101647 -0.01780843
v -0.03021604 -0.07125462 -0.01402719
v -0.03021604 -0.07034976 -0.02153806
v -0.03101229 -0.06989865 -0.01361530
v -0.03021604 -0.07106115 -0.01024337
v -0.03021604 -0.06610392 0.00394793
v -0.03101223 -0.05553878 0.01281462
v -0.03021604 -0.06135855 0.00983975
v -0.03101224 -0.06027171 0.00900675
v -0.03022131 -0.01146255 -0.03385847
v -0.03022131 -0.01445028 -0.03729891
v -0.03101241 -0.01538657 -0.03633011
v -0.03022131 -0.01788038 -0.04029853
v -0.03022131 -0.02580284 -0.04475916
v -0.03101241 -0.02516067 -0.04303236
v -0.03101241 -0.02243682 -0.04167625
v -0.03022131 -0.03919167 -0.04705590
v -0.03022131 -0.03463745 -0.04690682
v -0.03022131 -0.04814782 -0.04549060
v -0.03022131 -0.05996396 -0.03878876
v -0.03101235 -0.06213398 -0.03469025
v -0.03022131 -0.06975682 -0.02367028
v -0.02943022 -0.01704940 -0.04136059
v -0.03022131 -0.02168841 -0.04280093
v -0.03022131 -0.03014638 -0.04613641
v 0.02945401 -0.07125877 -0.02334643
v 0.02945371 -0.07017238 -0.02654381
v 0.02928795 -0.06978828 -0.02809703
v 0.02928741 -0.06742088 -0.03249986
v 0.02928675 -0.06442709 -0.03654244
v 0.02945369 -0.06124879 -0.03944688
v 0.02945368 -0.05710938 -0.04266695
v 0.02928483 -0.05747355 -0.04272896
v 0.02945368 -0.06023663 -0.04033027
v 0.02928597 -0.06142262 -0.03962864
v 0.02945369 -0.06087279 -0.03978315
v 0.02945365 -0.03926527 -0.04840109
v 0.02927969 -0.03931698 -0.04865964
v 0.02928110 -0.04430928 -0.04810719
v 0.02927833 -0.03431011 -0.04849105
v 0.02927717 -0.02936755 -0.04760212
v 0.02927527 -0.02076235 -0.04413023
v 0.02927626 -0.02529507 -0.04629102
v 0.02840193 -0.01597344 -0.04136446
v 0.02871910 -0.01637426 -0.04162039
v 0.02840193 -0.00977729 -0.03496741
v 0.02871661 -0.02517648 -0.04662543
v 0.02840192 -0.03248687 -0.04865704
v 0.02871509 -0.02929239 -0.04795037
v 0.02840191 -0.03333988 -0.04878141
v 0.02840191 -0.03596282 -0.04903180
v 0.02871103 -0.03934263 -0.04901891
v 0.02840190 -0.03789399 -0.04909052
v 0.02870892 -0.04438615 -0.04846165
v 0.02840189 -0.04244987 -0.04880872
v 0.02840188 -0.04626941 -0.04810719
v 0.02870709 -0.04857467 -0.04741950
v 0.02840185 -0.05537215 -0.04451399
v 0.02870498 -0.05327791 -0.04555985
v 0.02840185 -0.05573013 -0.04430853
v 0.02870127 -0.06167824 -0.03989717
v 0.02870300 -0.05768742 -0.04302935
v 0.02840182 -0.06474639 -0.03680634
v 0.02869995 -0.06471433 -0.03677861
v 0.02869866 -0.06773937 -0.03269299
v 0.02869798 -0.07013195 -0.02824373
v 0.02840180 -0.06770038 -0.03283426
v 0.02854023 -0.07188959 -0.02351423
v 0.02927404 -0.01009676 -0.03472815
v 0.02927412 -0.01286215 -0.03798420
v 0.02945360 -0.01351400 -0.03826772
v 0.02927451 -0.01658593 -0.04133977
v 0.02902483 -0.01645288 -0.04151511
v 0.02902483 -0.02065671 -0.04432440
v 0.02902466 -0.02931896 -0.04781997
v 0.02902435 -0.03933183 -0.04888501
v 0.02902428 -0.04435642 -0.04832979
v 0.02902418 -0.04852917 -0.04729150
v 0.02928228 -0.04845499 -0.04707503
v 0.02902402 -0.05321461 -0.04543889
v 0.02928359 -0.05310979 -0.04523388
v 0.02902387 -0.05760732 -0.04291800
v 0.02902380 -0.06158281 -0.03979769
v 0.02902366 -0.06460733 -0.03669119
v 0.02902343 -0.06762098 -0.03262157
v 0.02902364 -0.07172689 -0.02347028
v 0.02872009 -0.00981575 -0.03493860
v 0.02902503 -0.00992088 -0.03485985
v 0.02871985 -0.01261072 -0.03822917
v 0.02902495 -0.01270454 -0.03813734
v 0.02871803 -0.02059503 -0.04444106
v 0.02902481 -0.02521954 -0.04650003
v 0.02902444 -0.03429291 -0.04871473
v 0.02871308 -0.03428490 -0.04884801
v 0.02902349 -0.07000428 -0.02818944
v 0.03103596 -0.01707698 0.01024716
v 0.03103567 -0.05357301 0.01400893
v 0.03103594 -0.05170429 0.01497511
v 0.03103596 -0.04443652 0.01741230
v 0.02871944 -0.00756253 -0.03131726
v 0.02840179 -0.00684759 -0.02986384
v 0.02902545 -0.00766938 -0.03125284
v 0.02872296 -0.00601144 -0.02740641
v 0.02933936 -0.00545915 -0.02328368
v 0.02903618 -0.00611485 -0.02735657
v 0.02929855 -0.00630642 -0.02728036
v 0.02927761 -0.00785566 -0.03114801
v 0.02955789 -0.00570107 -0.02323232
v 0.02868509 -0.05630541 0.01625089
v 0.02869747 -0.07290982 -0.01839630
v 0.02870524 -0.07319798 -0.01325464
v 0.02840179 -0.07298141 -0.00940986
v 0.02870828 -0.07275083 -0.00821664
v 0.02840179 -0.07302743 -0.00979078
v 0.02840179 -0.07246564 -0.00639015
v 0.02840180 -0.07207093 -0.00475247
v 0.02870939 -0.06972604 0.00141928
v 0.02840180 -0.07054330 -0.00025951
v 0.02870926 -0.07158793 -0.00329668
v 0.02870630 -0.06409658 0.00979496
v 0.02840181 -0.06575790 0.00791196
v 0.02870862 -0.06721351 0.00580846
v 0.02870025 -0.06042387 0.01330957
v 0.02840182 -0.06282827 0.01120535
v 0.02840182 -0.06035197 0.01343901
v 0.02945350 -0.06242432 0.01066766
v 0.02910732 -0.06029284 0.01315136
v 0.02945349 -0.05994696 0.01290966
v 0.02910328 -0.06395094 0.00965504
v 0.02945345 -0.06363863 0.00939370
v 0.02945352 -0.06668631 0.00550335
v 0.02910216 -0.06704720 0.00569567
v 0.02945344 -0.06468257 0.00818624
v 0.02945354 -0.07102110 -0.00351976
v 0.02945352 -0.07064994 -0.00239928
v 0.02910173 -0.07139748 -0.00335950
v 0.02945351 -0.06986962 -0.00037655
v 0.02910159 -0.06954581 0.00133179
v 0.02945352 -0.06841943 0.00264279
v 0.02945358 -0.07186382 -0.00676327
v 0.02945357 -0.07215173 -0.00832181
v 0.02945353 -0.07238754 -0.01006404
v 0.02910240 -0.07255261 -0.00824993
v 0.02910433 -0.07299513 -0.01325576
v 0.02945359 -0.07259075 -0.01340854
v 0.02945365 -0.07246922 -0.01675842
v 0.02910971 -0.07270388 -0.01837373
v 0.02945359 -0.07230091 -0.01831898
v 0.02945353 -0.07202440 -0.02007828
v 0.02911804 -0.05619472 0.01606837
v 0.03024449 -0.06609683 0.00394299
v 0.03103592 -0.05617315 0.01238540
v 0.03024449 -0.05539997 0.01449918
v 0.03024449 -0.05850942 0.01233611
v 0.03024449 -0.06135267 0.00983340
v 0.03103591 -0.05858830 0.01053462
v 0.03024449 -0.06389280 0.00702353
v 0.03103585 -0.06717362 -0.00092916
v 0.03024449 -0.06793615 0.00063172
v 0.03103585 -0.06670050 0.00009162
v 0.03024449 -0.07105263 -0.01024490
v 0.03024449 -0.07034118 -0.02153681
v 0.03024449 -0.07100780 -0.01780812
v 0.03024449 -0.07124599 -0.01402778
v 0.03103577 -0.06969643 -0.01742176
v 0.03024449 -0.06938690 -0.00286728
v 0.03024449 -0.07043023 -0.00650858
v 0.02945351 -0.06918152 0.00114965
v 0.02945338 -0.05726199 0.01490416
v -0.01182333 0.00000000 0.02455140
v -0.01829990 -0.00000000 0.02184865
v -0.02455140 0.00000001 0.01182332
v -0.02656678 0.00000000 0.00606371
v 0.00027421 -0.00000001 0.02849868
v 0.00606370 0.00000001 0.02656678
v 0.02455140 0.00000001 0.01182332
v 0.02599568 0.00000001 0.01168223
v 0.00000000 0.00000001 -0.02725000
v 0.02455140 0.00000001 -0.01182333
v -0.00606370 0.00000001 0.02656678
f 704 741 703
f 704 703 539
f 700 732 701
f 396 395 414
f 101 95 99
f 14 13 11
f 48 169 7
f 479 478 879
f 704 539 705
f 540 539 703
f 796 797 823
f 436 1 414
f 436 413 1
f 611 609 612
f 612 609 640
f 640 609 639
f 639 609 606
f 378 379 377
f 792 791 793
f 790 791 792
f 537 542 543
f 704 705 543
f 543 705 537
f 663 755 652
f 658 701 706
f 706 543 542
f 706 701 704
f 704 543 706
f 704 701 742
f 742 701 732
f 742 741 704
f 742 732 741
f 753 755 757
f 652 755 753
f 395 396 223
f 399 396 414
f 399 400 398
f 398 168 399
f 403 168 398
f 96 95 254
f 255 96 254
f 992 321 1008
f 967 993 1008
f 349 339 348
f 68 66 74
f 74 81 68
f 8 10 7
f 7 184 8
f 7 10 9
f 9 49 7
f 57 10 11
f 53 9 57
f 57 9 10
f 15 14 11
f 11 10 15
f 752 763 765
f 761 751 760
f 757 763 761
f 761 760 757
f 752 765 575
f 7 169 186
f 186 184 7
f 364 333 524
f 364 523 363
f 524 523 364
f 333 364 361
f 525 526 530
f 526 568 530
f 478 479 457
f 411 486 412
f 741 732 731
f 728 729 690
f 728 727 739
f 739 727 726
f 538 705 539
f 539 540 538
f 564 537 538
f 537 705 538
f 536 540 703
f 813 823 824
f 824 823 797
f 984 434 981
f 995 436 414
f 995 965 994
f 967 965 995
f 432 436 973
f 796 823 822
f 822 821 796
f 796 821 799
f 810 783 776
f 783 784 776
f 810 821 811
f 811 783 810
f 780 776 777
f 596 799 599
f 796 799 596
f 612 640 642
f 833 339 349
f 610 611 366
f 609 611 610
f 841 367 610
f 549 550 548
f 350 548 351
f 856 548 350
f 655 663 652
f 655 698 700
f 700 701 661
f 758 763 757
f 757 755 758
f 755 754 758
f 702 706 542
f 733 698 890
f 890 892 733
f 733 732 700
f 700 698 733
f 733 731 732
f 20 939 19
f 19 17 20
f 195 17 19
f 19 939 195
f 650 653 652
f 652 651 650
f 38 39 24
f 24 147 38
f 28 30 29
f 26 156 27
f 27 28 26
f 2 30 27
f 148 147 165
f 148 168 417
f 769 962 948
f 966 965 967
f 967 1008 966
f 966 962 959
f 414 1 397
f 397 399 414
f 400 168 402
f 168 403 402
f 240 237 216
f 216 217 240
f 240 217 237
f 95 96 97
f 97 99 95
f 254 252 253
f 253 255 254
f 98 97 96
f 415 318 326
f 326 318 210
f 319 321 992
f 211 229 228
f 347 834 619
f 619 348 347
f 374 78 373
f 373 81 64
f 331 343 373
f 373 68 81
f 374 373 79
f 79 373 77
f 70 301 315
f 315 68 70
f 315 175 68
f 65 301 70
f 65 300 301
f 70 68 337
f 305 300 304
f 185 8 184
f 185 186 187
f 184 186 185
f 140 3 145
f 145 3 4
f 135 143 29
f 29 30 135
f 144 139 2
f 144 3 140
f 2 3 144
f 106 107 105
f 287 284 102
f 254 95 292
f 292 95 101
f 292 252 254
f 275 252 292
f 106 291 100
f 100 107 106
f 100 292 101
f 291 292 100
f 101 99 100
f 290 289 275
f 275 292 290
f 290 292 291
f 51 9 53
f 11 13 12
f 12 57 11
f 1019 3 2
f 4 3 1019
f 1019 1009 4
f 749 763 752
f 752 15 749
f 16 761 763
f 763 749 16
f 16 749 15
f 16 17 18
f 16 20 17
f 18 751 750
f 751 761 750
f 750 16 18
f 761 16 750
f 586 575 765
f 587 15 752
f 752 575 587
f 14 15 587
f 56 52 53
f 331 863 855
f 187 186 177
f 47 48 7
f 340 196 52
f 53 52 197
f 197 196 53
f 52 196 197
f 179 373 83
f 179 48 41
f 169 48 179
f 179 186 169
f 179 177 186
f 723 670 722
f 670 720 722
f 676 670 723
f 435 434 984
f 436 432 435
f 413 436 435
f 447 413 425
f 413 424 425
f 362 364 363
f 370 364 371
f 371 362 372
f 364 362 371
f 360 361 359
f 525 530 532
f 532 530 531
f 524 527 522
f 522 523 524
f 486 411 451
f 410 411 450
f 729 731 696
f 731 733 696
f 689 690 694
f 728 690 688
f 688 727 728
f 688 690 689
f 726 727 688
f 688 682 726
f 512 714 715
f 724 676 723
f 869 490 489
f 738 739 726
f 517 516 372
f 372 362 517
f 564 538 566
f 797 602 794
f 794 824 797
f 1000 981 434
f 991 995 414
f 992 1008 991
f 991 1008 993
f 429 993 967
f 967 995 429
f 429 991 993
f 995 991 429
f 980 432 979
f 599 799 798
f 975 979 973
f 957 776 784
f 821 822 812
f 812 811 821
f 812 823 813
f 812 822 823
f 783 811 812
f 975 976 977
f 810 776 819
f 776 780 819
f 780 781 819
f 245 324 323
f 213 245 323
f 277 247 276
f 275 289 276
f 613 611 612
f 346 373 379
f 348 373 346
f 346 365 357
f 346 347 348
f 834 347 346
f 796 594 600
f 600 797 796
f 600 601 797
f 595 594 796
f 796 596 595
f 603 602 797
f 797 601 603
f 612 642 616
f 616 642 643
f 845 348 619
f 380 367 379
f 379 842 380
f 840 367 380
f 608 367 840
f 608 610 367
f 608 606 609
f 609 610 608
f 549 344 857
f 857 343 549
f 344 343 857
f 735 724 723
f 668 669 743
f 743 794 668
f 824 794 743
f 924 904 903
f 903 904 679
f 856 350 341
f 549 548 341
f 341 548 856
f 550 562 563
f 563 537 564
f 561 550 549
f 561 562 550
f 652 653 654
f 654 655 652
f 653 698 654
f 698 655 654
f 700 661 664
f 660 701 658
f 660 661 701
f 755 663 662
f 662 754 755
f 663 664 662
f 662 664 661
f 661 660 662
f 657 747 754
f 764 765 763
f 763 758 764
f 754 747 764
f 764 758 754
f 541 702 542
f 541 542 537
f 537 563 541
f 541 563 562
f 658 706 656
f 656 657 658
f 24 23 22
f 24 22 1018
f 21 20 1018
f 1018 22 21
f 926 885 17
f 17 195 926
f 942 20 21
f 760 884 762
f 757 760 762
f 762 753 757
f 883 884 760
f 887 698 653
f 653 650 887
f 753 756 886
f 886 651 652
f 652 753 886
f 759 762 884
f 37 147 148
f 37 38 147
f 29 143 85
f 85 28 29
f 160 156 157
f 26 28 149
f 149 156 26
f 149 157 156
f 24 1018 1016
f 159 156 160
f 159 27 156
f 159 1016 27
f 163 1016 159
f 30 28 1014
f 1014 27 30
f 28 27 1014
f 160 165 164
f 163 159 164
f 164 159 160
f 164 147 146
f 164 165 147
f 416 385 148
f 148 417 416
f 237 217 236
f 217 88 94
f 94 236 217
f 90 98 256
f 256 271 90
f 262 271 256
f 96 255 256
f 256 98 96
f 237 236 261
f 216 237 261
f 261 94 92
f 236 94 261
f 255 253 269
f 269 256 255
f 262 256 269
f 216 264 214
f 243 213 214
f 214 264 243
f 229 230 226
f 210 318 226
f 226 230 210
f 226 415 414
f 226 318 415
f 215 211 217
f 229 211 215
f 215 217 216
f 215 230 229
f 216 214 215
f 215 214 230
f 228 219 233
f 233 211 228
f 395 223 224
f 155 154 153
f 166 220 223
f 46 373 48
f 45 373 46
f 48 47 46
f 7 45 46
f 46 47 7
f 196 373 353
f 53 196 353
f 353 51 53
f 49 9 353
f 9 51 353
f 375 373 78
f 78 179 375
f 64 75 76
f 76 373 64
f 41 48 42
f 48 373 42
f 42 179 41
f 68 373 848
f 848 348 339
f 848 373 348
f 624 338 848
f 848 847 624
f 175 315 312
f 67 65 70
f 300 65 67
f 70 337 67
f 67 337 300
f 846 338 831
f 71 337 68
f 68 848 71
f 71 848 338
f 300 337 69
f 69 304 300
f 337 71 69
f 69 71 304
f 305 304 298
f 140 145 132
f 132 145 141
f 132 144 140
f 103 105 109
f 109 102 103
f 189 173 172
f 172 193 189
f 4 1009 1010
f 1010 1009 5
f 302 193 172
f 283 193 302
f 293 287 283
f 282 284 293
f 284 287 293
f 102 109 126
f 126 109 125
f 647 628 625
f 277 276 272
f 272 276 289
f 8 6 1011
f 1011 6 5
f 2 27 1011
f 1011 1019 2
f 5 1009 1011
f 1009 1019 1011
f 192 6 8
f 8 185 192
f 183 145 4
f 4 1010 183
f 182 171 141
f 141 145 182
f 145 183 182
f 137 135 30
f 30 138 137
f 124 132 125
f 1013 30 2
f 1013 138 30
f 2 139 1013
f 139 138 1013
f 104 105 103
f 284 105 104
f 103 102 104
f 102 284 104
f 285 105 284
f 285 291 106
f 106 105 285
f 288 193 283
f 283 287 288
f 288 287 102
f 289 290 295
f 286 284 282
f 286 285 284
f 286 290 291
f 291 285 286
f 585 586 765
f 585 764 584
f 765 764 585
f 575 586 585
f 332 331 336
f 336 200 335
f 331 373 336
f 373 200 336
f 354 75 64
f 82 81 74
f 74 177 82
f 82 177 81
f 74 66 311
f 311 177 74
f 66 68 311
f 68 175 311
f 55 200 199
f 56 61 55
f 52 56 58
f 58 340 52
f 56 55 58
f 58 55 199
f 815 720 791
f 815 791 813
f 813 824 815
f 815 824 719
f 719 722 721
f 721 722 720
f 721 815 719
f 720 815 721
f 672 905 925
f 986 925 988
f 1003 435 984
f 867 924 868
f 869 489 868
f 370 371 513
f 513 371 516
f 372 516 859
f 859 371 372
f 516 371 859
f 360 359 858
f 534 359 358
f 352 359 361
f 358 359 352
f 361 373 352
f 352 343 351
f 352 373 343
f 351 548 352
f 746 729 728
f 746 703 741
f 741 731 746
f 746 731 729
f 409 479 476
f 476 479 879
f 478 477 877
f 879 478 877
f 921 874 922
f 900 684 922
f 922 874 869
f 492 490 869
f 869 874 492
f 492 449 490
f 893 696 695
f 697 733 892
f 697 696 733
f 915 877 878
f 878 877 481
f 689 694 898
f 898 694 919
f 693 694 690
f 413 489 448
f 448 489 490
f 490 449 448
f 709 526 525
f 519 526 709
f 709 710 519
f 712 710 739
f 739 738 712
f 714 713 712
f 518 517 362
f 518 362 363
f 363 523 518
f 523 522 518
f 527 566 567
f 567 530 568
f 568 522 567
f 567 522 527
f 540 536 529
f 529 538 540
f 529 566 538
f 529 536 531
f 531 530 529
f 530 567 529
f 529 567 566
f 433 432 980
f 980 981 433
f 981 1000 433
f 433 1000 434
f 434 435 433
f 433 435 432
f 984 981 983
f 950 986 983
f 955 784 783
f 789 791 790
f 813 791 789
f 789 812 813
f 950 983 952
f 992 991 936
f 936 319 992
f 1006 432 973
f 973 979 1006
f 1006 979 432
f 599 798 598
f 598 596 599
f 598 798 593
f 598 644 643
f 958 957 784
f 784 955 958
f 975 977 958
f 766 799 821
f 593 798 766
f 766 798 799
f 593 766 591
f 591 766 801
f 826 801 818
f 630 801 826
f 246 808 767
f 277 807 278
f 807 808 278
f 808 246 278
f 278 247 277
f 278 246 247
f 973 436 974
f 974 975 973
f 974 976 975
f 956 961 779
f 957 958 956
f 956 958 977
f 999 439 978
f 782 780 779
f 779 961 782
f 782 781 780
f 971 977 978
f 971 956 977
f 961 956 971
f 818 801 827
f 827 819 818
f 801 766 827
f 818 819 809
f 809 819 781
f 989 1008 321
f 989 966 1008
f 948 962 989
f 962 966 989
f 322 989 321
f 948 989 322
f 322 324 948
f 322 323 324
f 323 322 327
f 238 269 253
f 242 245 213
f 242 213 243
f 611 613 844
f 844 613 365
f 366 611 844
f 844 365 366
f 843 346 379
f 365 346 843
f 366 365 843
f 379 367 843
f 843 367 841
f 843 610 366
f 841 610 843
f 357 614 356
f 356 346 357
f 597 600 594
f 594 595 597
f 597 595 596
f 596 598 597
f 643 642 597
f 597 598 643
f 601 600 641
f 641 603 601
f 600 597 641
f 602 603 641
f 641 642 640
f 641 597 642
f 612 616 615
f 615 616 614
f 615 614 357
f 357 837 615
f 614 616 618
f 618 356 614
f 621 833 349
f 339 833 621
f 623 845 619
f 623 621 349
f 349 348 623
f 348 845 623
f 839 608 840
f 606 608 839
f 840 380 839
f 377 382 369
f 381 377 379
f 381 382 377
f 379 373 381
f 381 373 361
f 381 364 370
f 381 361 364
f 505 382 381
f 861 379 378
f 606 839 607
f 607 380 842
f 607 839 380
f 639 606 499
f 734 743 669
f 723 722 734
f 734 735 723
f 734 722 719
f 679 904 906
f 678 676 906
f 906 904 678
f 345 344 549
f 549 341 345
f 345 341 350
f 345 350 351
f 351 343 345
f 345 343 344
f 549 343 551
f 551 561 549
f 551 343 342
f 553 561 551
f 663 655 699
f 699 664 663
f 699 655 700
f 700 664 699
f 659 660 658
f 659 662 660
f 754 662 659
f 658 657 659
f 659 657 754
f 747 583 577
f 584 764 577
f 577 764 747
f 577 585 584
f 546 657 545
f 747 657 546
f 546 583 747
f 665 541 545
f 702 541 665
f 706 702 666
f 702 665 666
f 545 657 666
f 666 665 545
f 1017 1018 20
f 1017 16 15
f 20 16 1017
f 1017 1011 27
f 1017 15 10
f 10 1011 1017
f 939 20 940
f 20 942 940
f 393 474 473
f 394 474 393
f 387 470 471
f 911 469 881
f 881 912 911
f 468 469 911
f 748 751 18
f 760 751 748
f 748 883 760
f 18 17 748
f 17 885 748
f 890 698 889
f 698 887 889
f 913 912 881
f 884 912 913
f 394 393 456
f 409 476 456
f 456 476 475
f 28 85 133
f 133 149 28
f 25 1016 163
f 163 164 25
f 24 1016 25
f 25 164 146
f 25 147 24
f 146 147 25
f 399 397 401
f 1 413 401
f 401 397 1
f 404 168 400
f 404 405 168
f 168 405 418
f 418 404 400
f 405 404 418
f 400 399 418
f 399 401 418
f 770 769 948
f 808 773 775
f 769 770 775
f 767 808 775
f 775 768 767
f 245 242 244
f 244 242 258
f 244 324 245
f 241 88 217
f 241 89 88
f 113 271 91
f 262 269 263
f 263 264 216
f 216 261 263
f 263 261 262
f 229 226 212
f 212 226 414
f 221 233 219
f 219 220 221
f 155 233 221
f 221 154 155
f 222 233 155
f 211 233 222
f 155 153 222
f 414 395 938
f 395 224 938
f 938 212 414
f 224 212 938
f 225 220 219
f 223 220 225
f 225 224 223
f 167 166 223
f 167 399 168
f 167 168 148
f 148 165 167
f 167 223 396
f 396 399 167
f 161 165 160
f 158 166 161
f 161 167 165
f 166 167 161
f 161 157 158
f 160 157 161
f 44 373 45
f 44 353 373
f 49 353 44
f 7 49 44
f 44 45 7
f 83 373 80
f 373 375 80
f 80 179 83
f 80 375 179
f 77 373 355
f 373 76 355
f 177 179 178
f 178 76 75
f 178 355 76
f 75 354 178
f 77 355 178
f 178 354 64
f 178 79 77
f 64 81 178
f 81 177 178
f 374 79 178
f 178 78 374
f 178 179 78
f 373 179 43
f 43 42 373
f 179 42 43
f 830 628 72
f 338 846 330
f 330 71 338
f 846 830 330
f 72 71 330
f 330 830 72
f 73 71 72
f 304 71 73
f 647 589 299
f 299 628 647
f 72 628 299
f 299 298 304
f 299 73 72
f 304 73 299
f 175 312 174
f 174 313 173
f 173 189 174
f 180 185 187
f 187 191 180
f 180 191 171
f 171 182 180
f 283 302 317
f 317 302 309
f 317 293 283
f 142 126 125
f 142 132 141
f 125 132 142
f 141 171 142
f 829 625 628
f 829 846 831
f 628 830 829
f 829 830 846
f 277 272 279
f 279 807 277
f 279 805 807
f 297 589 279
f 279 589 638
f 638 805 279
f 296 295 280
f 296 279 272
f 296 272 289
f 289 295 296
f 10 8 1012
f 1012 1011 10
f 8 1011 1012
f 122 271 113
f 122 121 112
f 112 121 123
f 139 144 131
f 144 132 131
f 132 124 131
f 107 100 110
f 110 105 107
f 110 109 105
f 125 109 110
f 110 124 125
f 120 129 121
f 121 122 120
f 113 119 120
f 120 122 113
f 128 137 138
f 138 129 128
f 129 120 128
f 128 120 119
f 193 288 108
f 108 189 193
f 108 126 189
f 102 126 108
f 108 288 102
f 282 293 303
f 303 286 282
f 294 295 290
f 290 286 294
f 286 303 294
f 280 295 294
f 294 303 280
f 57 12 50
f 198 373 196
f 198 200 373
f 196 340 198
f 199 200 198
f 198 58 199
f 340 58 198
f 62 587 575
f 335 200 201
f 332 336 852
f 334 854 853
f 554 854 855
f 554 855 863
f 554 863 331
f 853 854 552
f 854 554 552
f 328 334 552
f 552 334 853
f 552 551 328
f 553 551 552
f 176 311 175
f 177 311 176
f 187 177 176
f 175 174 176
f 678 904 677
f 677 676 678
f 677 904 924
f 670 676 677
f 671 672 670
f 671 905 672
f 670 677 671
f 671 677 905
f 673 674 675
f 791 720 673
f 673 720 670
f 793 791 673
f 673 675 793
f 670 672 673
f 672 674 673
f 793 675 907
f 907 925 793
f 675 674 907
f 907 674 672
f 672 925 907
f 867 925 934
f 934 925 905
f 934 924 867
f 934 677 924
f 905 677 934
f 446 424 413
f 413 435 446
f 435 440 446
f 446 440 444
f 988 925 865
f 985 1003 984
f 984 983 985
f 985 983 986
f 435 1003 985
f 793 925 949
f 925 986 949
f 949 792 793
f 790 792 949
f 949 950 790
f 949 986 950
f 867 868 494
f 494 425 424
f 370 513 510
f 535 566 527
f 564 566 535
f 533 535 527
f 534 535 533
f 533 858 359
f 359 534 533
f 707 532 531
f 703 746 707
f 531 536 707
f 707 536 703
f 728 739 740
f 740 746 728
f 932 914 879
f 879 877 932
f 932 877 915
f 888 650 651
f 651 886 888
f 886 914 888
f 888 887 650
f 914 932 888
f 931 914 886
f 481 877 876
f 876 877 477
f 421 481 876
f 477 422 876
f 876 422 421
f 486 451 488
f 488 451 411
f 410 871 487
f 487 411 410
f 487 488 411
f 410 450 452
f 452 871 410
f 873 875 874
f 686 684 900
f 682 684 686
f 921 922 901
f 901 922 684
f 923 922 869
f 924 903 923
f 923 903 900
f 900 922 923
f 869 868 923
f 923 868 924
f 894 695 696
f 696 697 894
f 893 695 894
f 891 697 892
f 891 892 890
f 891 894 697
f 483 878 481
f 481 480 483
f 730 696 893
f 893 895 730
f 729 696 730
f 730 895 691
f 730 690 729
f 730 693 690
f 919 694 917
f 714 512 511
f 511 713 714
f 511 512 506
f 517 518 515
f 516 517 515
f 515 522 568
f 515 518 522
f 726 682 685
f 685 737 726
f 682 686 685
f 724 737 685
f 715 714 736
f 724 735 736
f 714 712 745
f 745 712 738
f 745 736 714
f 745 738 726
f 726 737 745
f 745 737 724
f 724 736 745
f 391 873 392
f 519 710 711
f 710 712 711
f 790 950 788
f 788 789 790
f 982 981 980
f 980 979 982
f 982 983 981
f 982 952 983
f 979 975 982
f 975 958 982
f 982 958 952
f 937 936 991
f 414 415 937
f 937 991 414
f 415 326 937
f 937 326 325
f 319 936 937
f 937 325 321
f 321 319 937
f 954 958 955
f 952 958 954
f 954 786 952
f 954 955 783
f 590 801 630
f 630 631 590
f 817 808 807
f 807 816 817
f 817 773 808
f 817 816 818
f 818 809 817
f 781 773 817
f 817 809 781
f 807 805 802
f 802 816 807
f 802 826 818
f 818 816 802
f 959 962 774
f 772 773 781
f 1005 974 436
f 976 974 1005
f 777 956 778
f 778 956 779
f 778 780 777
f 779 780 778
f 785 956 777
f 957 956 785
f 777 776 785
f 776 957 785
f 994 965 430
f 430 995 994
f 430 431 995
f 978 439 990
f 969 972 431
f 969 430 965
f 431 430 969
f 439 999 438
f 438 990 439
f 438 999 436
f 436 995 438
f 995 431 438
f 978 977 1007
f 1007 977 976
f 436 999 997
f 997 1005 436
f 976 1005 997
f 997 1007 976
f 999 1007 997
f 968 971 972
f 972 969 968
f 959 961 968
f 961 971 968
f 968 969 965
f 968 966 959
f 965 966 968
f 820 827 766
f 820 821 810
f 820 766 821
f 810 819 820
f 819 827 820
f 320 326 210
f 325 326 320
f 321 325 320
f 320 322 321
f 320 327 322
f 213 323 231
f 323 327 231
f 231 214 213
f 230 214 231
f 273 276 247
f 250 238 253
f 250 253 252
f 260 238 243
f 269 238 260
f 260 263 269
f 243 264 260
f 264 263 260
f 617 615 837
f 365 613 617
f 617 613 612
f 612 615 617
f 357 365 617
f 617 837 357
f 619 834 835
f 346 356 838
f 838 618 346
f 356 618 838
f 626 625 624
f 624 847 626
f 847 848 626
f 621 623 622
f 622 623 619
f 644 645 622
f 368 382 505
f 368 369 382
f 377 369 376
f 502 376 369
f 860 381 370
f 370 510 860
f 668 794 629
f 606 607 500
f 500 499 606
f 501 499 500
f 507 512 715
f 506 512 507
f 716 507 715
f 744 734 669
f 735 734 744
f 669 718 744
f 744 718 717
f 717 716 744
f 744 716 715
f 715 736 744
f 744 736 735
f 825 734 719
f 743 734 825
f 719 824 825
f 824 743 825
f 558 559 555
f 575 585 558
f 585 577 558
f 558 577 559
f 553 559 576
f 559 577 576
f 562 561 576
f 576 561 553
f 328 551 329
f 667 656 706
f 706 666 667
f 657 656 667
f 667 666 657
f 1015 1017 27
f 1018 1017 1015
f 27 1016 1015
f 1015 1016 1018
f 939 940 944
f 944 940 942
f 944 22 23
f 21 22 944
f 944 942 21
f 880 474 475
f 475 476 880
f 473 474 880
f 880 476 879
f 879 914 880
f 914 931 880
f 473 470 386
f 470 387 386
f 386 393 473
f 386 456 393
f 386 389 406
f 388 387 471
f 471 459 388
f 388 459 389
f 388 386 387
f 389 386 388
f 413 448 426
f 426 456 413
f 422 456 426
f 426 391 392
f 426 448 449
f 449 492 426
f 421 422 420
f 420 481 421
f 420 480 481
f 423 422 477
f 929 926 927
f 929 911 912
f 930 756 753
f 930 886 756
f 930 759 884
f 884 913 930
f 753 762 930
f 762 759 930
f 930 931 886
f 913 931 930
f 383 35 148
f 409 456 408
f 408 456 422
f 408 479 409
f 408 457 479
f 478 457 408
f 458 456 475
f 394 456 458
f 475 474 458
f 458 474 394
f 114 119 113
f 149 133 151
f 158 157 151
f 157 149 151
f 116 153 154
f 116 117 115
f 935 417 168
f 168 418 935
f 935 416 417
f 935 418 416
f 964 775 773
f 964 774 962
f 773 774 964
f 962 769 964
f 769 775 964
f 324 244 239
f 948 324 239
f 239 770 948
f 768 775 239
f 239 775 770
f 767 768 257
f 768 239 257
f 257 239 244
f 258 268 257
f 257 244 258
f 88 89 87
f 87 114 88
f 115 114 87
f 87 89 86
f 86 153 87
f 153 116 87
f 87 116 115
f 270 271 262
f 270 91 271
f 262 261 270
f 270 261 92
f 92 91 270
f 228 229 227
f 229 212 227
f 227 212 224
f 224 225 227
f 227 219 228
f 227 225 219
f 220 166 162
f 162 221 220
f 162 166 158
f 154 221 162
f 173 313 310
f 310 313 309
f 309 302 310
f 172 173 310
f 310 302 172
f 301 300 308
f 308 300 305
f 309 313 308
f 298 299 306
f 588 589 297
f 588 299 589
f 314 174 312
f 313 174 314
f 314 315 301
f 314 312 315
f 301 308 314
f 314 308 313
f 190 174 189
f 189 126 190
f 181 192 185
f 185 180 181
f 6 192 181
f 5 6 181
f 181 1010 5
f 181 183 1010
f 181 182 183
f 181 180 182
f 293 317 316
f 316 317 309
f 316 308 305
f 309 308 316
f 624 625 828
f 625 829 828
f 828 829 831
f 828 338 624
f 831 338 828
f 806 805 638
f 638 589 806
f 806 589 647
f 647 625 648
f 648 806 647
f 636 806 648
f 90 271 84
f 271 122 84
f 84 98 90
f 97 98 84
f 112 97 84
f 84 122 112
f 139 131 130
f 124 123 130
f 130 131 124
f 130 138 139
f 130 129 138
f 121 129 130
f 130 123 121
f 111 100 99
f 111 110 100
f 112 123 111
f 111 123 124
f 124 110 111
f 111 97 112
f 99 97 111
f 136 128 119
f 135 137 136
f 137 128 136
f 54 556 335
f 61 556 54
f 54 201 200
f 200 55 54
f 54 55 61
f 851 336 335
f 335 556 851
f 336 556 862
f 862 852 336
f 862 554 331
f 555 554 862
f 862 331 332
f 332 852 862
f 574 62 575
f 575 558 574
f 574 558 555
f 14 587 194
f 194 62 14
f 587 62 194
f 13 14 63
f 14 62 63
f 59 63 62
f 53 57 59
f 59 56 53
f 560 559 553
f 553 552 560
f 560 552 554
f 555 559 560
f 560 554 555
f 188 176 174
f 174 190 188
f 188 191 187
f 187 176 188
f 988 440 1004
f 1004 440 435
f 1004 985 1002
f 435 985 1004
f 424 446 441
f 441 446 495
f 444 440 1001
f 1001 865 444
f 1001 440 988
f 988 865 1001
f 445 446 444
f 444 865 445
f 1002 985 987
f 987 1004 1002
f 988 1004 987
f 987 986 988
f 987 985 986
f 496 495 867
f 867 494 496
f 496 441 495
f 496 494 424
f 424 441 496
f 493 494 868
f 493 868 489
f 447 425 493
f 425 494 493
f 493 413 447
f 493 489 413
f 508 510 509
f 508 509 505
f 505 381 508
f 381 860 508
f 508 860 510
f 564 535 565
f 565 548 550
f 565 563 564
f 550 563 565
f 858 533 528
f 528 361 360
f 360 858 528
f 333 361 528
f 524 333 528
f 528 527 524
f 528 533 527
f 708 707 746
f 746 740 708
f 532 707 708
f 525 532 708
f 708 709 525
f 710 709 708
f 739 710 708
f 708 740 739
f 890 889 933
f 933 891 890
f 933 889 887
f 933 932 915
f 915 891 933
f 887 888 933
f 933 888 932
f 488 487 920
f 486 488 920
f 919 917 920
f 872 487 871
f 872 920 487
f 872 874 921
f 872 873 874
f 921 919 872
f 919 920 872
f 871 452 442
f 392 873 442
f 442 450 392
f 442 452 450
f 442 872 871
f 873 872 442
f 870 492 874
f 874 875 870
f 870 426 492
f 683 684 682
f 683 901 684
f 897 688 689
f 689 898 897
f 897 919 921
f 897 898 919
f 482 483 480
f 480 420 482
f 484 878 482
f 878 483 482
f 692 730 691
f 693 730 692
f 412 486 485
f 485 454 412
f 916 917 893
f 915 878 916
f 893 894 916
f 916 891 915
f 894 891 916
f 506 571 578
f 578 511 506
f 713 511 578
f 900 903 680
f 724 685 725
f 676 724 725
f 679 906 725
f 725 906 676
f 521 712 713
f 521 711 712
f 713 578 521
f 519 711 520
f 711 521 520
f 520 526 519
f 520 521 578
f 787 788 950
f 789 788 787
f 783 812 814
f 814 954 783
f 786 954 814
f 812 789 814
f 789 787 814
f 950 952 953
f 953 787 950
f 953 814 787
f 800 591 801
f 801 590 800
f 592 590 631
f 592 645 644
f 592 631 645
f 592 800 590
f 591 800 592
f 593 591 592
f 592 598 593
f 644 598 592
f 635 802 803
f 636 648 803
f 781 782 960
f 960 961 959
f 960 782 961
f 963 774 773
f 773 772 963
f 959 774 963
f 963 772 959
f 972 971 970
f 970 438 972
f 990 438 970
f 970 971 978
f 978 990 970
f 431 972 437
f 437 438 431
f 998 999 978
f 978 1007 998
f 998 1007 999
f 235 231 327
f 235 320 210
f 327 320 235
f 210 230 235
f 230 231 235
f 275 276 249
f 238 250 259
f 258 242 259
f 243 238 259
f 259 242 243
f 645 631 632
f 632 631 630
f 630 826 632
f 826 634 632
f 646 622 645
f 645 632 646
f 646 803 648
f 619 835 620
f 620 622 619
f 644 622 620
f 643 644 620
f 620 616 643
f 346 618 836
f 834 346 836
f 836 835 834
f 836 620 835
f 836 618 616
f 616 620 836
f 504 502 369
f 504 368 505
f 369 368 504
f 377 376 498
f 376 502 498
f 498 502 501
f 378 377 498
f 498 861 378
f 605 794 602
f 668 629 582
f 582 669 668
f 582 718 669
f 572 499 501
f 649 607 842
f 649 500 607
f 649 842 379
f 379 861 649
f 861 498 649
f 501 500 649
f 649 498 501
f 506 507 580
f 507 716 580
f 580 716 717
f 544 541 562
f 562 576 544
f 545 541 544
f 544 546 545
f 583 546 544
f 544 577 583
f 544 576 577
f 342 329 864
f 864 551 342
f 864 329 551
f 206 205 946
f 946 908 927
f 946 205 908
f 39 38 40
f 24 39 40
f 38 37 40
f 37 209 40
f 406 407 464
f 464 407 468
f 456 386 208
f 208 386 406
f 406 464 208
f 206 209 208
f 473 880 882
f 882 880 931
f 882 470 473
f 471 470 882
f 881 471 882
f 882 913 881
f 882 931 913
f 468 407 460
f 460 407 406
f 460 469 468
f 460 406 469
f 472 471 881
f 472 459 471
f 881 469 472
f 389 459 472
f 469 406 472
f 406 389 472
f 390 426 392
f 392 450 390
f 390 411 412
f 390 450 411
f 412 454 390
f 454 485 390
f 390 485 484
f 391 426 427
f 873 391 427
f 426 870 427
f 462 910 467
f 926 929 928
f 885 926 928
f 928 748 885
f 884 883 928
f 883 748 928
f 928 912 884
f 928 929 912
f 468 911 465
f 465 464 468
f 385 416 384
f 148 385 384
f 384 383 148
f 416 418 384
f 384 418 401
f 35 383 36
f 148 35 36
f 422 423 455
f 455 408 422
f 478 408 455
f 455 477 478
f 455 423 477
f 93 94 88
f 88 114 93
f 92 94 93
f 93 91 92
f 113 91 93
f 93 114 113
f 127 85 143
f 127 133 85
f 118 114 115
f 115 117 118
f 119 114 118
f 118 136 119
f 152 116 154
f 158 151 152
f 152 162 158
f 154 162 152
f 117 116 150
f 133 127 150
f 150 127 117
f 150 151 133
f 150 152 151
f 116 152 150
f 767 257 267
f 267 246 767
f 247 246 267
f 267 257 268
f 267 273 247
f 268 273 267
f 218 222 153
f 218 266 222
f 218 153 86
f 86 266 218
f 86 89 234
f 89 241 234
f 234 241 217
f 217 211 234
f 211 222 234
f 297 279 281
f 279 296 281
f 281 588 297
f 281 296 280
f 280 306 281
f 281 306 299
f 299 588 281
f 171 191 170
f 170 142 171
f 191 188 170
f 170 188 190
f 126 142 170
f 170 190 126
f 307 303 293
f 293 316 307
f 307 316 305
f 305 298 307
f 298 306 307
f 280 303 307
f 307 306 280
f 335 201 849
f 849 54 335
f 201 54 849
f 850 556 336
f 336 851 850
f 850 851 556
f 557 556 61
f 557 574 555
f 555 862 557
f 557 862 556
f 62 574 497
f 497 59 62
f 497 557 61
f 574 557 497
f 497 61 56
f 56 59 497
f 13 63 60
f 63 59 60
f 60 12 13
f 60 50 12
f 57 50 60
f 60 59 57
f 495 446 866
f 446 445 866
f 866 445 865
f 867 495 866
f 866 925 867
f 866 865 925
f 547 535 534
f 547 565 535
f 548 565 547
f 547 352 548
f 547 534 358
f 358 352 547
f 486 920 918
f 918 920 917
f 918 485 486
f 484 485 918
f 918 878 484
f 918 916 878
f 917 916 918
f 682 688 681
f 681 683 682
f 901 683 681
f 693 692 896
f 694 693 896
f 896 917 694
f 896 692 691
f 893 917 896
f 896 895 893
f 691 895 896
f 570 578 571
f 570 571 509
f 570 520 578
f 900 680 687
f 687 680 685
f 687 686 900
f 687 685 686
f 902 903 679
f 679 725 902
f 902 680 903
f 685 680 902
f 902 725 685
f 952 786 951
f 951 953 952
f 786 814 951
f 814 953 951
f 636 803 637
f 637 803 802
f 637 802 805
f 805 806 637
f 637 806 636
f 771 772 781
f 781 960 771
f 959 772 771
f 771 960 959
f 972 438 996
f 996 437 972
f 438 437 996
f 251 252 275
f 275 249 251
f 251 250 252
f 274 273 268
f 268 249 274
f 276 273 274
f 274 249 276
f 248 249 268
f 248 268 258
f 250 251 248
f 248 251 249
f 258 259 248
f 248 259 250
f 621 622 627
f 622 646 627
f 625 626 627
f 627 648 625
f 627 646 648
f 633 632 634
f 633 646 632
f 635 803 633
f 803 646 633
f 501 502 503
f 502 504 503
f 503 504 505
f 505 509 503
f 509 571 503
f 795 629 794
f 794 605 795
f 717 718 581
f 581 580 717
f 718 582 581
f 579 571 506
f 506 580 579
f 579 503 571
f 579 581 572
f 580 581 579
f 579 572 501
f 501 503 579
f 206 946 945
f 945 944 23
f 945 209 206
f 945 34 209
f 939 944 941
f 941 946 927
f 944 945 941
f 941 945 946
f 941 195 939
f 927 926 941
f 941 926 195
f 209 34 33
f 33 23 24
f 33 34 23
f 428 203 204
f 204 205 428
f 422 426 453
f 426 390 453
f 453 420 422
f 453 390 484
f 484 482 453
f 453 482 420
f 875 873 491
f 873 427 491
f 491 870 875
f 491 427 870
f 202 467 908
f 202 203 419
f 204 203 202
f 202 205 204
f 908 205 202
f 908 467 909
f 927 908 909
f 909 929 927
f 909 467 910
f 910 465 909
f 911 929 909
f 909 465 911
f 462 467 443
f 419 203 443
f 467 202 443
f 443 464 462
f 203 428 443
f 443 208 464
f 466 910 462
f 466 465 910
f 462 464 463
f 464 465 463
f 463 466 462
f 465 466 463
f 31 36 383
f 383 384 31
f 31 37 148
f 148 36 31
f 31 384 401
f 31 209 37
f 31 208 209
f 31 401 413
f 413 456 31
f 456 208 31
f 117 127 134
f 134 118 117
f 134 127 143
f 136 118 134
f 143 135 134
f 135 136 134
f 86 234 232
f 222 266 232
f 232 234 222
f 901 681 899
f 921 901 899
f 899 897 921
f 688 897 899
f 899 681 688
f 514 570 509
f 509 510 514
f 514 510 513
f 514 513 516
f 516 515 514
f 520 570 569
f 569 515 568
f 569 514 515
f 570 514 569
f 569 568 526
f 526 520 569
f 339 621 832
f 621 627 832
f 832 627 626
f 832 848 339
f 832 626 848
f 804 634 826
f 804 633 634
f 826 802 804
f 804 802 635
f 635 633 804
f 604 795 605
f 604 605 602
f 629 795 604
f 602 641 604
f 604 640 639
f 604 641 640
f 573 581 582
f 573 582 629
f 499 572 573
f 572 581 573
f 629 604 573
f 639 499 573
f 573 604 639
f 23 34 943
f 943 945 23
f 32 40 209
f 209 33 32
f 24 40 32
f 32 33 24
f 206 208 207
f 207 205 206
f 207 428 205
f 208 443 207
f 207 443 428
f 461 202 419
f 419 443 461
f 461 443 202
f 265 266 86
f 86 232 265
f 265 232 266
f 34 945 947
f 947 943 34
f 945 943 947
f 402 403 398
f 398 400 402
f 329 334 328
f 329 343 331
f 342 343 329
f 331 855 329
f 855 854 329
f 854 334 329

