# https://github.com/mikedh/trimesh
v 0.04818239 0.02273242 -0.01359420
v 0.03446059 -0.03838685 -0.01362559
v 0.04919493 0.01747450 -0.01359689
v 0.04988040 0.01056884 -0.01360043
v 0.04115063 -0.03459086 -0.01362361
v 0.04319974 -0.03259692 -0.01362258
v 0.04935794 -0.01639202 -0.01361426
v 0.04949309 -0.01530109 -0.01361370
v 0.05018653 0.00043494 -0.01360560
v -0.01510933 0.02085115 -0.00000000
v -0.02574981 -0.00009954 0.00000001
v -0.02416286 -0.00890049 -0.00000000
v -0.01966152 -0.01662792 -0.00000000
v -0.01278870 -0.02234977 0.00000000
v -0.00437338 -0.02537590 -0.00000000
v 0.00456943 -0.02534132 0.00000000
v 0.01296111 -0.02225021 0.00000001
v 0.01978948 -0.01647540 -0.00000001
v 0.02423095 -0.00871341 -0.00000000
v 0.02574981 0.00009954 -0.00000001
v 0.02416286 0.00890049 0.00000000
v 0.01278870 0.02234975 -0.00000000
v 0.00437338 0.02537590 0.00000000
v -0.00456943 0.02534132 -0.00000000
v -0.00000000 0.00000000 0.00000001
v -0.01296111 0.02225021 -0.00000001
v 0.01966152 0.01662790 0.00000000
v -0.01978948 0.01647540 0.00000001
v -0.02423095 0.00871342 0.00000000
v 0.00515784 0.02358011 -0.13821387
v -0.00825078 0.02222924 -0.16223015
v 0.02552161 0.03153591 -0.07672407
v 0.03025324 0.02689632 -0.07832903
v 0.01747406 0.03007170 -0.09941239
v 0.02379988 0.02590336 -0.09636212
v 0.01572171 0.02479548 -0.11633549
v 0.01301402 0.02446529 -0.12228660
v 0.02425548 0.03238760 -0.07629152
v 0.03068333 0.02623691 -0.07847357
v 0.03091811 0.02578346 -0.07856838
v 0.03415953 0.02440960 -0.07073999
v 0.03452359 0.02610163 -0.06747925
v 0.03740218 0.02503521 -0.05878405
v 0.04404502 0.02998878 -0.02096084
v 0.03889741 0.02702237 -0.04983622
v 0.04388392 0.02994575 -0.02179948
v 0.03372829 0.02749868 -0.06724555
v 0.03810313 0.02844212 -0.04968971
v 0.04879335 0.00058386 -0.02097207
v 0.04862264 0.00848904 -0.02096719
v 0.04521829 0.01354362 -0.03558185
v 0.04848538 0.01103527 -0.02096643
v 0.04076980 0.02580312 -0.04408602
v 0.03157593 0.02398246 -0.07881752
v 0.03666975 0.02049100 -0.06508468
v 0.03323169 0.00983797 -0.07955848
v 0.03308197 -0.00996010 -0.07946341
v 0.03723294 -0.01458450 -0.06517048
v 0.03279593 -0.01347369 -0.07932740
v 0.03617018 -0.02150421 -0.06486009
v 0.03474531 -0.02495379 -0.06675114
v 0.04480445 -0.02773795 -0.02099031
v 0.04608307 -0.02468733 -0.02098686
v 0.04217791 -0.02692183 -0.03431416
v 0.04388002 -0.02137508 -0.03519797
v 0.04745921 -0.01944722 -0.02098195
v 0.04509140 -0.01451662 -0.03549397
v 0.04576555 -0.00049513 -0.03568579
v 0.04879447 0.00043336 -0.02097229
v 0.04161404 0.01352372 -0.05052605
v 0.04220153 -0.00052858 -0.05064202
v 0.03752337 0.01352505 -0.06530664
v 0.03799437 -0.00054219 -0.06540246
v 0.03259135 0.01759815 -0.07927487
v 0.04062794 0.02045020 -0.05029469
v 0.04019242 -0.02140925 -0.05009510
v 0.03782257 -0.02568476 -0.05458836
v 0.04139626 -0.01454843 -0.05041182
v 0.03345114 0.00040412 -0.07964672
v 0.04421721 0.02046306 -0.03536397
v 0.03823473 -0.02745771 -0.04969878
v 0.03395972 -0.02641653 -0.06726075
v 0.03079283 -0.02522878 -0.07843715
v 0.03113359 -0.02424336 -0.07854991
v 0.03803547 -0.02900610 -0.04630632
v 0.03435567 -0.02805209 -0.06229039
v 0.03122156 -0.02738918 -0.07342371
v 0.02972487 -0.02710893 -0.07802433
v 0.02781772 -0.02917643 -0.07738067
v 0.02683930 -0.03006417 -0.07704831
v 0.03034208 -0.03128064 -0.06348524
v 0.02480324 -0.03159275 -0.07635327
v 0.01716229 -0.03489788 -0.07370973
v 0.02447774 -0.03663841 -0.04736258
v 0.03544598 -0.03681378 -0.02100144
v 0.03367360 -0.03222983 -0.04916886
v 0.03789608 -0.03546162 -0.02100017
v 0.04071676 -0.03328471 -0.02099870
v 0.04310477 -0.03056784 -0.02099326
v 0.02595660 -0.03389573 -0.06261889
v 0.02926249 -0.03487735 -0.04834581
v 0.00113845 -0.02982528 -0.13045380
v -0.01021177 -0.03071127 -0.14651428
v 0.01594306 -0.03175166 -0.09448040
v 0.02156368 -0.03335371 -0.07523779
v 0.02458122 -0.02621366 -0.09270752
v 0.02279487 -0.02591180 -0.09766773
v 0.01974598 -0.02914983 -0.09625473
v -0.00755004 -0.02915432 -0.14775050
v 0.00468757 -0.02704364 -0.13208674
v -0.00710748 -0.02884179 -0.14795545
v -0.00429590 -0.02635316 -0.14924888
v 0.00664953 -0.02363779 -0.13493425
v -0.00196243 -0.02337465 -0.15029879
v 0.01361899 -0.02453473 -0.12022766
v 0.01268927 -0.02804103 -0.11438867
v 0.01917887 -0.02533393 -0.10713216
v 0.00900364 -0.03069613 -0.11268897
v 0.00490984 -0.03250125 -0.11077552
v 0.01175038 -0.03349415 -0.09252152
v -0.00285330 -0.03176088 -0.12858702
v -0.04227843 -0.03552742 -0.15278287
v -0.04089505 -0.03543054 -0.15565319
v -0.03949858 -0.03525873 -0.15855326
v -0.03948242 -0.03525625 -0.15858687
v -0.03904296 -0.03518276 -0.15953179
v -0.01081171 -0.02557639 -0.16076773
v -0.04254338 -0.03550546 -0.15279797
v -0.01871754 0.02123941 -0.17895997
v -0.00394576 0.01956258 -0.15758763
v -0.00703455 0.01924768 -0.16277836
v -0.00783082 0.02141283 -0.16243273
v 0.02459934 0.02452956 -0.09667371
v 0.02190321 0.02562348 -0.10141344
v 0.02513083 0.02301088 -0.09687924
v 0.01651260 0.02342079 -0.11666816
v 0.00592109 0.02218293 -0.13855772
v 0.00646767 0.02066604 -0.13878126
v -0.01032599 0.01099945 -0.17046784
v -0.01931391 -0.01763848 -0.18184678
v -0.01857830 -0.01149459 -0.18233287
v -0.01144029 0.01880417 -0.16992459
v -0.00321842 0.01583379 -0.15790178
v -0.01090803 0.01586726 -0.17018268
v -0.01764539 0.01820524 -0.17948060
v -0.01930834 0.01804851 -0.18193959
v 0.00453845 -0.01107301 -0.14548285
v 0.02819442 -0.01291273 -0.09239239
v 0.02066142 -0.02247597 -0.10738871
v 0.02883002 -0.00009333 -0.09269846
v 0.02613404 -0.02337484 -0.09281454
v 0.03226324 -0.01807143 -0.07907667
v 0.02360882 -0.00008274 -0.10626926
v 0.02299074 -0.01275538 -0.10595545
v -0.01809976 -0.00001620 -0.18266752
v -0.01032206 -0.01079190 -0.17043595
v -0.00985737 0.00010328 -0.17068662
v -0.01809962 0.00025767 -0.18266828
v -0.01909414 0.01661507 -0.18207295
v -0.00262434 0.01098722 -0.15816009
v -0.00214560 0.00013462 -0.15835974
v -0.00261873 -0.01071704 -0.15813591
v -0.01141544 -0.01846198 -0.16987884
v 0.00456413 0.01128335 -0.14552705
v 0.01170984 0.00004054 -0.13279870
v 0.00396466 0.01628864 -0.14527205
v 0.01117215 -0.01166284 -0.13253215
v 0.01732842 -0.01228933 -0.11934628
v 0.01790868 -0.00003089 -0.11964570
v 0.01124921 0.01174474 -0.13260819
v 0.01746203 0.01222831 -0.11945239
v 0.01489620 -0.02163433 -0.12092571
v 0.02316986 0.01259061 -0.10607774
v 0.02777007 0.01852681 -0.09223802
v 0.02839057 0.01272673 -0.09251394
v 0.02255634 0.01832356 -0.10579280
v 0.01685592 0.01775965 -0.11917128
v 0.01704587 0.02190396 -0.11687835
v 0.01064682 0.01700589 -0.13234185
v 0.00503782 0.00010472 -0.14571804
v -0.00562612 -0.01910196 -0.16040006
v 0.01361111 -0.02145779 -0.12374459
v 0.01305455 -0.02297053 -0.12353614
v 0.00764209 -0.02067730 -0.13613151
v 0.00286266 -0.02167831 -0.14408296
v -0.00151665 -0.02268378 -0.15049481
v -0.00049909 -0.02053116 -0.15091889
v -0.00023679 -0.01972223 -0.15101145
v 0.02192829 -0.02427428 -0.10251088
v -0.00819136 -0.02193141 -0.16210806
v -0.01526449 -0.02116324 -0.17351075
v -0.01409195 -0.01817661 -0.17405784
v -0.03533246 -0.03357111 -0.17367114
v -0.03463220 -0.03121454 -0.18448029
v -0.03730636 -0.03475036 -0.16407195
v -0.03585088 -0.03405352 -0.17024857
v -0.03581821 -0.03402815 -0.17046031
v -0.02242590 -0.02048243 -0.18423526
v -0.04106544 -0.03526516 -0.15783019
v -0.04063020 -0.03519158 -0.15877002
v -0.04021354 -0.03511128 -0.15971772
v -0.03864647 -0.03510487 -0.16044088
v -0.04195254 -0.03542272 -0.15537593
v -0.02032517 0.02109928 -0.18140034
v -0.02521868 -0.00915854 -0.19147825
v -0.04031061 -0.00833111 -0.20828764
v -0.03222983 0.00025250 -0.20037618
v -0.02522698 0.00963321 -0.19152369
v -0.02494560 0.00025092 -0.19169745
v -0.02817656 0.01728230 -0.19384818
v -0.03169007 -0.01601784 -0.19829746
v -0.03242881 -0.00879910 -0.20018926
v -0.03152423 -0.01601730 -0.19810048
v -0.03154746 -0.01637587 -0.19805212
v -0.03020074 -0.01662124 -0.19636753
v -0.02987732 -0.01665019 -0.19596319
v -0.03427697 0.01675860 -0.20124656
v -0.04034821 0.00883396 -0.20831245
v -0.04689609 0.01569577 -0.21357475
v -0.04895049 0.01553769 -0.21522729
v -0.04020220 0.00025846 -0.20842387
v -0.04857691 -0.00026970 -0.21537961
v -0.04857757 0.00015664 -0.21537983
v -0.03185625 -0.01601837 -0.19849414
v -0.03517492 -0.01602926 -0.20227627
v -0.03579335 -0.01603070 -0.20294979
v -0.01853563 0.01146325 -0.18241723
v -0.04867914 0.00792621 -0.21534283
v -0.03245046 0.00928268 -0.20022653
v -0.02886000 0.01722520 -0.19471732
v -0.03723549 -0.01595562 -0.20449600
v -0.02039216 -0.02065513 -0.18129575
v -0.02986063 -0.02402817 -0.19072203
v -0.03399369 -0.02645106 -0.19324096
v -0.03309536 -0.02391704 -0.19507752
v -0.03267879 -0.02673548 -0.19103658
v -0.03462109 -0.03094001 -0.18532994
v -0.03440610 -0.02835643 -0.19078991
v -0.02714682 -0.02090753 -0.19017269
v -0.03099787 -0.01977525 -0.19595769
v -0.03067814 -0.01980234 -0.19554748
v -0.03087670 -0.02264470 -0.19355513
v -0.02778155 -0.02004369 -0.19171430
v -0.03650659 -0.03319436 -0.17551693
v -0.03593704 -0.03356358 -0.17351428
v -0.03478401 -0.03239696 -0.18003923
v -0.03654161 -0.03355603 -0.17335741
v -0.03688413 -0.03403820 -0.16996828
v -0.03692847 -0.03406882 -0.16973975
v -0.03720522 -0.03422191 -0.16848996
v -0.03631314 -0.03433931 -0.16778393
v -0.03897973 -0.03482517 -0.16273578
v -0.06631486 0.01746936 -0.22468947
v -0.06692530 0.01746709 -0.22485058
v -0.06753924 0.01746480 -0.22499792
v -0.08939834 0.01738028 -0.22497539
v -0.09895071 0.01734168 -0.22171240
v -0.12724932 0.01720739 -0.17314495
v -0.12291033 0.01721572 -0.15668985
v -0.11292928 0.01728267 -0.21200718
v -0.11844547 0.01725801 -0.20548609
v -0.12274549 0.01723759 -0.19810620
v -0.12569869 0.01722206 -0.19009171
v -0.12721531 0.01721189 -0.18168616
v -0.02412922 0.02081230 -0.18685769
v -0.02449144 0.01759283 -0.18904766
v -0.03155437 -0.01649651 -0.19803417
v -0.03155933 -0.01657969 -0.19802111
v -0.03159026 -0.01693815 -0.19796145
v -0.03157591 -0.01678979 -0.19798669
v -0.03155876 -0.01657080 -0.19802253
v -0.02486348 0.01918273 -0.18887024
v -0.03761523 0.01757086 -0.20465741
v -0.04016906 0.01624826 -0.20747501
v -0.03157829 0.01758993 -0.19793051
v -0.02918426 0.01882931 -0.19456422
v -0.03188654 0.02009925 -0.19731863
v -0.04708456 0.01753798 -0.21352127
v -0.04825321 0.01753544 -0.21451309
v -0.04905562 0.01753121 -0.21518177
v -0.04887069 -0.01492569 -0.21522540
v -0.05085216 0.00085463 -0.21701245
v -0.05100246 0.01300236 -0.21687555
v -0.05017900 0.01752881 -0.21605495
v -0.05327331 0.00893104 -0.21853375
v -0.04892132 -0.01607578 -0.21520054
v -0.05328365 -0.01609012 -0.21839501
v -0.04717611 -0.01606978 -0.21370953
v -0.04873841 -0.01607514 -0.21505417
v -0.04062675 -0.01563965 -0.20795427
v -0.03723334 -0.01603609 -0.20448051
v -0.04273847 -0.01605461 -0.20986973
v -0.04705220 -0.01507507 -0.21375954
v -0.03682514 -0.01599576 -0.20405835
v -0.03723445 -0.01599556 -0.20448853
v -0.03682407 -0.01603595 -0.20405062
v -0.03641694 -0.01603580 -0.20361869
v -0.03584104 -0.01629335 -0.20290411
v -0.03643217 -0.01616303 -0.20360385
v -0.03349812 -0.01602374 -0.20040053
v -0.03522390 -0.01629195 -0.20222999
v -0.03328996 -0.02396474 -0.19526140
v -0.03310041 -0.02327739 -0.19568296
v -0.03296824 -0.02280350 -0.19594920
v -0.03278328 -0.02214454 -0.19628981
v -0.03230490 -0.02047881 -0.19700673
v -0.03206844 -0.01967570 -0.19728470
v -0.03342696 -0.02445779 -0.19493262
v -0.03656816 -0.03277810 -0.17766830
v -0.03655512 -0.03277900 -0.17766897
v -0.11995392 -0.01473642 -0.15801352
v -0.12179019 -0.01208510 -0.15716951
v -0.12259151 -0.00941325 -0.15680313
v -0.12281806 -0.00569638 -0.15670331
v -0.05341480 0.01751600 -0.21838035
v -0.05677567 0.01750534 -0.22050244
v -0.06196071 0.01748612 -0.22314638
v -0.04191140 0.01755681 -0.20891383
v -0.03544330 0.01757782 -0.20234446
v -0.12284319 -0.00016054 -0.15669875
v -0.12579963 0.01720868 -0.16472760
v -0.10627364 -0.00560127 -0.21747971
v -0.11995387 -0.01645568 -0.16411862
v -0.12182035 -0.01645876 -0.17360455
v -0.12128242 -0.01645865 -0.16951446
v -0.12102516 -0.01645811 -0.16819994
v -0.12265925 -0.01474302 -0.16553949
v -0.12052672 -0.01645695 -0.16610093
v -0.12401663 -0.01474423 -0.17342089
v -0.12191696 -0.01645806 -0.17505021
v -0.12105998 -0.01644910 -0.18611838
v -0.11465552 -0.01641725 -0.20143886
v -0.11577336 -0.01469683 -0.20370278
v -0.11562749 -0.01642113 -0.19991077
v -0.11979958 -0.01471595 -0.19679278
v -0.11780454 -0.01643060 -0.19585682
v -0.12256473 -0.01473047 -0.18928860
v -0.11397146 -0.01641433 -0.20243594
v -0.12461411 -0.01209201 -0.16502535
v -0.12603098 -0.01209326 -0.17325222
v -0.12398480 -0.01474000 -0.18141825
v -0.12451545 -0.01207891 -0.18981548
v -0.12162909 -0.01206374 -0.19764858
v -0.11742639 -0.01204378 -0.20486148
v -0.12546679 -0.00942026 -0.16480187
v -0.12690943 -0.00942154 -0.17317839
v -0.12599777 -0.01208885 -0.18160015
v -0.12687561 -0.00941705 -0.18167816
v -0.12242747 -0.00939148 -0.19801851
v -0.11203503 -0.01201968 -0.21123499
v -0.11265890 -0.00934662 -0.21185204
v -0.10612600 -0.00931859 -0.21728966
v -0.12570712 -0.00570343 -0.16474038
v -0.12715667 -0.00570471 -0.17315704
v -0.12712269 -0.00570021 -0.18169755
v -0.12536633 -0.00940694 -0.19004291
v -0.12560618 -0.00569004 -0.19010238
v -0.12265323 -0.00567451 -0.19811620
v -0.11835358 -0.00565411 -0.20549549
v -0.11814832 -0.00937117 -0.20536260
v -0.11283784 -0.00562944 -0.21201603
v -0.10636453 0.01731084 -0.21747130
v -0.09888353 -0.00003458 -0.22172131
v -0.06740934 -0.01614036 -0.22501515
v -0.07308062 -0.01616178 -0.22596069
v -0.06747208 0.00008852 -0.22500683
v -0.07756007 0.01742668 -0.22621363
v -0.07743017 -0.01617845 -0.22623079
v -0.08191055 -0.01619582 -0.22610527
v -0.08926842 -0.01622481 -0.22499253
v -0.09061840 -0.01623019 -0.22466180
v -0.06028010 0.01749243 -0.22237983
v -0.06003251 0.00068888 -0.22237585
v -0.05320657 0.00014038 -0.21858247
v -0.06652507 -0.01613710 -0.22479783
v -0.05335990 -0.01646313 -0.21828081
v -0.05333474 -0.01641063 -0.21831813
v -0.04894362 -0.01627639 -0.21517150
v -0.05328889 -0.01620020 -0.21838674
v -0.05330424 -0.01630622 -0.21836358
v -0.04807194 -0.01627423 -0.21442221
v -0.04897085 -0.01636866 -0.21513683
v -0.04809809 -0.01636276 -0.21438874
v -0.04901069 -0.01644807 -0.21508636
v -0.04719154 -0.01618282 -0.21369028
v -0.04281045 -0.01635217 -0.20978943
v -0.03726653 -0.01624004 -0.20444843
v -0.03685584 -0.01623919 -0.20401983
v -0.06747060 -0.01660956 -0.22473852
v -0.06015893 -0.01658262 -0.22208060
v -0.06006205 -0.01632956 -0.22231477
v -0.06009707 -0.01648660 -0.22222495
v -0.06743620 -0.01651376 -0.22489111
v -0.06741565 -0.01635670 -0.22498392
v -0.06005105 -0.01611362 -0.22234659
v -0.08190735 -0.01641183 -0.22607321
v -0.09882078 -0.01626339 -0.22172956
v -0.09060945 -0.01644582 -0.22463058
v -0.09880649 -0.01647953 -0.22170049
v -0.09058483 -0.01660269 -0.22453812
v -0.09876596 -0.01663621 -0.22161406
v -0.09869999 -0.01673154 -0.22147197
v -0.09054510 -0.01669846 -0.22438656
v -0.07309282 -0.01653481 -0.22583389
v -0.07310914 -0.01663070 -0.22567824
v -0.08188784 -0.01666449 -0.22582193
v -0.08189973 -0.01656875 -0.22597808
v -0.07308324 -0.01637777 -0.22592871
v -0.12129320 -0.01645051 -0.18490773
v -0.11502001 -0.01672029 -0.19953755
v -0.11744044 -0.01642884 -0.19661100
v -0.11836147 -0.01673629 -0.19274846
v -0.12059234 -0.01674928 -0.18477619
v -0.12043846 -0.01644532 -0.18871248
v -0.11958208 -0.01644021 -0.19148801
v -0.12178919 -0.01645387 -0.18121882
v -0.12184083 -0.01645432 -0.18060674
v -0.12125289 -0.01675586 -0.17654394
v -0.12032557 -0.01675668 -0.16833846
v 0.02733672 0.03437553 -0.06045392
v 0.02745470 0.02996219 -0.07738218
v 0.03156997 0.03153535 -0.06152096
v 0.03890375 0.03359076 -0.02966469
v 0.04050852 0.03409972 -0.02165206
v 0.04227747 0.02951472 -0.02995690
v 0.03886856 0.02862839 -0.04623019
v 0.03457692 0.03661317 -0.02931364
v 0.03544806 0.03255489 -0.04563995
v 0.03117078 0.03548570 -0.04493149
v 0.03613172 0.03717120 -0.02147547
v 0.04547990 0.02701696 -0.02096008
v 0.05018588 0.00058548 -0.01360552
v 0.04796478 0.02087629 -0.01735956
v 0.04917105 0.01111859 -0.01736242
v 0.04691136 0.02249610 -0.02095809
v 0.04797134 0.01658542 -0.02096304
v 0.02779916 -0.04024430 -0.01362656
v 0.02991257 -0.03977792 -0.01362632
v 0.02645811 -0.03959903 -0.02101239
v 0.03044257 -0.03866327 -0.02100619
v 0.03435300 -0.03730518 -0.02100228
v 0.03819994 -0.03663491 -0.01362468
v 0.04369773 -0.03200731 -0.01362228
v 0.04573642 -0.02894304 -0.01362071
v 0.04727345 -0.02550028 -0.01361893
v 0.04638738 -0.02376752 -0.02098559
v 0.04863051 -0.02067078 -0.01361645
v 0.04876791 -0.00387400 -0.02097471
v 0.05007703 -0.00712632 -0.01360950
v 0.04832808 -0.01304312 -0.02097952
v 0.04818435 -0.01450288 -0.02098054
v 0.00051982 -0.04329936 -0.00052770
v 0.05236448 -0.00341286 -0.00050553
v 0.05238468 0.00043674 -0.00050356
v 0.01083930 -0.04323148 -0.00052732
v 0.01507006 -0.04307404 -0.00052711
v 0.05182664 -0.01405396 -0.00051100
v 0.05209814 -0.01065830 -0.00050927
v 0.05227292 -0.00711116 -0.00050743
v 0.02040211 -0.04271545 -0.00052675
v 0.02812931 -0.04171547 -0.00052597
v 0.05013166 -0.02376179 -0.00051604
v 0.05025113 -0.02332369 -0.00051581
v 0.03157056 -0.04098570 -0.00052549
v 0.03465511 -0.04010231 -0.00052494
v 0.04764571 -0.02999963 -0.00051932
v 0.04861578 -0.02804508 -0.00051829
v 0.04943937 -0.02596427 -0.00051720
v 0.05092498 -0.02038798 -0.00051429
v 0.05144211 -0.01729754 -0.00051269
v 0.03572799 -0.03972847 -0.00052471
v 0.03806942 -0.03875842 -0.00052414
v 0.04018141 -0.03765062 -0.00052350
v 0.04208800 -0.03638966 -0.00052278
v 0.04255964 -0.03602907 -0.00052259
v 0.04291348 -0.03574369 -0.00052243
v 0.04548103 -0.03318360 -0.00052103
v 0.04671870 -0.03152149 -0.00052014
v 0.01468520 0.04365977 -0.00048264
v 0.01050338 0.04378244 -0.00048272
v 0.01006512 0.04379024 -0.00048273
v 0.00523168 0.04382192 -0.00048287
v 0.05235296 0.00336341 -0.00050206
v 0.05214927 0.00932611 -0.00049900
v 0.03097328 0.04176250 -0.00048307
v 0.02998096 0.04198299 -0.00048300
v 0.02728007 0.04248838 -0.00048282
v 0.02590166 0.04270062 -0.00048277
v 0.02328165 0.04303447 -0.00048268
v 0.01909094 0.04341468 -0.00048261
v 0.05175703 0.01451242 -0.00049636
v 0.05163875 0.01561375 -0.00049580
v 0.05125728 0.01847832 -0.00049434
v 0.05063456 0.02186421 -0.00049263
v 0.03827461 0.03928146 -0.00048410
v 0.03730445 0.03972627 -0.00048391
v 0.03499699 0.04061971 -0.00048353
v 0.03255453 0.04136543 -0.00048322
v 0.04985921 0.02490989 -0.00049109
v 0.04753541 0.03061160 -0.00048824
v 0.04659897 0.03216077 -0.00048747
v 0.04185650 0.03714368 -0.00048508
v 0.04013341 0.03828415 -0.00048455
v 0.04393080 0.03538941 -0.00048592
v 0.04343941 0.03585135 -0.00048570
v 0.02489188 -0.04222213 -0.00052634
v 0.03487900 -0.03889650 -0.00896084
v 0.03013492 -0.04042268 -0.00803923
v 0.03932737 -0.03662667 -0.00982332
v 0.04134507 -0.03513859 -0.01021447
v 0.04315877 -0.03340337 -0.01056645
v 0.04409830 -0.03468132 -0.00052184
v 0.04473311 -0.03143722 -0.01087271
v 0.04605586 -0.02927483 -0.01113116
v 0.04713486 -0.02696387 -0.01134360
v 0.04918778 -0.01957731 -0.01175846
v 0.05026655 -0.00936276 -0.01199632
v 0.05061303 0.00043540 -0.01121139
v 0.05018279 -0.00345793 -0.01350563
v 0.04963365 -0.01415928 -0.01351114
v 0.04988800 -0.01449001 -0.01190899
v 0.04868798 -0.02048299 -0.01351441
v 0.04799434 -0.02455360 -0.01151474
v 0.04763384 -0.02450207 -0.01351651
v 0.04686324 -0.02660511 -0.01351762
v 0.04594636 -0.02858296 -0.01351865
v 0.04506470 -0.03012246 -0.01351948
v 0.04389499 -0.03178518 -0.01352037
v 0.04257391 -0.03329496 -0.01352119
v 0.04109640 -0.03465574 -0.01352193
v 0.04071055 -0.03496651 -0.01352210
v 0.03890050 -0.03623267 -0.01352281
v 0.03715732 -0.03787050 -0.00940267
v 0.03386285 -0.03862083 -0.01352420
v 0.02921182 -0.03995466 -0.01352505
v 0.02773212 -0.04026909 -0.01352526
v 0.00822703 -0.04328548 -0.00052745
v 0.04991337 -0.01075426 -0.01350938
v 0.04923278 -0.01740246 -0.01351281
v 0.03466953 -0.03832008 -0.01352402
v 0.03096781 -0.03952012 -0.01352476
v 0.04827392 -0.02227845 -0.01351535
v 0.03689585 -0.03734457 -0.01352345
v 0.05015342 0.00429356 -0.01350166
v 0.04911653 0.01812486 -0.01349460
v 0.04953360 0.01490675 -0.01349624
v 0.04983355 0.01152885 -0.01349796
v 0.05003498 0.00799123 -0.01349977
v 0.04856031 0.02118232 -0.01349305
v 0.03846660 0.03710559 -0.01348521
v 0.04030726 0.03586142 -0.01348579
v 0.04735976 0.02559226 -0.01349082
v 0.04353979 0.03273752 -0.01348729
v 0.00018324 0.04377056 -0.00048306
v 0.03416930 0.03914431 -0.01348432
v 0.03457538 0.03964211 -0.00892057
v 0.04534488 0.03385457 -0.00048665
v 0.04289738 0.03421480 -0.01053178
v 0.04448687 0.03226121 -0.01084004
v 0.04903310 0.02043700 -0.01173795
v 0.05019080 0.01023135 -0.01198627
v 0.04977263 0.01535542 -0.01189368
v 0.04780123 0.02540367 -0.01148913
v 0.04770711 0.03029376 -0.00048841
v 0.04692314 0.02780703 -0.01131552
v 0.04794509 0.02983302 -0.00048863
v 0.04897980 0.02749601 -0.00048980
v 0.04582629 0.03010938 -0.01110071
v 0.04802889 0.02339403 -0.01349194
v 0.03904117 0.03740762 -0.00978537
v 0.04107033 0.03593558 -0.01017803
v 0.03686157 0.03863420 -0.00936344
v -0.00081670 0.04375206 -0.00048311
v -0.00591902 0.04361226 -0.00048335
v -0.00901522 0.04348507 -0.00048351
v -0.05099453 0.01250521 -0.00050079
v -0.05126983 0.00853241 -0.00050284
v -0.01880096 0.04278689 -0.00048419
v -0.02354508 0.04220801 -0.00048465
v -0.02466030 0.04203903 -0.00048478
v -0.04966575 0.02135880 -0.00049622
v -0.05057316 0.01629064 -0.00049885
v -0.04600352 0.03077509 -0.00049125
v -0.04702763 0.02895849 -0.00049223
v -0.04734264 0.02831450 -0.00049256
v -0.04903094 0.02380293 -0.00049494
v -0.03110762 0.04070080 -0.00048568
v -0.03401031 0.03980885 -0.00048623
v -0.03661299 0.03877113 -0.00048684
v -0.03722939 0.03848292 -0.00048701
v -0.03923484 0.03740093 -0.00048764
v -0.04268741 0.03481242 -0.00048907
v -0.04350645 0.03400236 -0.00048952
v -0.01450706 -0.04277917 -0.00052793
v -0.01004258 -0.04302770 -0.00052792
v -0.00536610 -0.04319420 -0.00052784
v -0.00048023 -0.04328860 -0.00052774
v -0.04940164 -0.02168374 -0.00051828
v -0.02948251 -0.04079401 -0.00052741
v -0.02818093 -0.04107951 -0.00052753
v -0.05064108 -0.01476735 -0.00051477
v -0.05008046 -0.01848247 -0.00051666
v -0.04981213 -0.01987040 -0.00051737
v -0.02659595 -0.04138693 -0.00052763
v -0.02278880 -0.04197848 -0.00052780
v -0.01875679 -0.04243544 -0.00052791
v -0.04166324 -0.03533148 -0.00052503
v -0.04316116 -0.03395437 -0.00052436
v -0.04141631 -0.03553250 -0.00052512
v -0.04002360 -0.03655473 -0.00052559
v -0.03824537 -0.03763333 -0.00052609
v -0.03754207 -0.03800297 -0.00052625
v -0.03540016 -0.03897134 -0.00052667
v -0.03312251 -0.03979525 -0.00052703
v -0.03071483 -0.04049211 -0.00052730
v -0.04860811 -0.02447666 -0.00051969
v -0.04848029 -0.02486207 -0.00051987
v -0.04534111 -0.03130273 -0.00052308
v -0.04398682 -0.03305753 -0.00052393
v -0.05110342 -0.00999320 -0.00051233
v -0.05137557 -0.00463340 -0.00050960
v -0.04757569 -0.02722230 -0.00052106
v -0.04653161 -0.02936522 -0.00052213
v -0.01311026 0.04325582 -0.00048377
v -0.02749551 0.04153644 -0.00048513
v -0.04104899 0.03618140 -0.00048833
v -0.04483297 0.03245724 -0.00049036
v -0.04826374 0.02612193 -0.00049371
v -0.04525568 0.03188976 -0.00049066
v -0.05141911 0.00437469 -0.00050498
v -0.05145704 0.00003532 -0.00050721
v -0.05018354 0.01879309 -0.00049754
v -0.07069161 0.04529067 -0.21287000
v -0.06402437 0.04531528 -0.21072018
v -0.05789061 0.04533714 -0.20733625
v -0.05251630 0.04535548 -0.20284282
v -0.09074800 0.04517505 -0.14283042
v -0.07002013 0.04525458 -0.14171712
v -0.07764675 0.04526423 -0.21370649
v -0.11370710 0.04509976 -0.16756213
v -0.11121438 0.04510582 -0.16101530
v -0.10751688 0.04511689 -0.15506528
v -0.10275080 0.04513251 -0.14993122
v -0.04454421 0.04536508 -0.16384737
v -0.04200928 0.04538234 -0.17756101
v -0.04261570 0.04537621 -0.17058200
v -0.05203730 0.04532972 -0.15208547
v -0.04274730 0.04538328 -0.18452735
v -0.06339465 0.04528142 -0.14399236
v -0.04809938 0.04536960 -0.19740544
v -0.04480257 0.04537898 -0.19122438
v -0.10134531 0.03587316 -0.21480870
v -0.10296293 0.03586604 -0.21322395
v -0.12145084 0.03577880 -0.18420345
v -0.09460039 0.03590104 -0.21815892
v -0.08738296 0.03593012 -0.22030981
v -0.07990444 0.03595952 -0.22119837
v -0.07238395 0.03598837 -0.22079854
v -0.06504180 0.03601583 -0.21912205
v -0.05809309 0.03604111 -0.21621802
v -0.12220345 0.03577473 -0.18206762
v -0.12238923 0.03576991 -0.17453873
v -0.12128834 0.03577012 -0.16708845
v -0.04617281 0.03608223 -0.20710112
v -0.08463360 0.04523695 -0.21319887
v -0.04772379 0.04534941 -0.15760522
v -0.05732585 0.04530679 -0.14749144
v -0.07695825 0.04522723 -0.14074954
v -0.08395343 0.04520039 -0.14112526
v -0.09709168 0.04515215 -0.14580223
v -0.05174140 0.03606346 -0.21217152
v -0.04155047 0.03609688 -0.20115533
v -0.11893307 0.03577533 -0.15993504
f 203 128 412
f 654 661 640
f 654 263 661
f 122 128 203
f 13 607 14
f 203 412 410
f 410 199 203
f 402 199 410
f 128 599 418
f 582 259 576
f 640 661 662
f 354 353 258
f 258 353 321
f 345 354 346
f 353 354 345
f 345 339 313
f 18 17 476
f 19 17 18
f 16 14 15
f 16 17 14
f 17 16 471
f 14 17 25
f 454 483 20
f 256 370 371
f 371 257 256
f 659 255 658
f 256 657 367
f 367 658 255
f 657 658 367
f 640 634 633
f 633 665 640
f 633 634 659
f 659 658 633
f 656 665 657
f 656 657 256
f 368 367 365
f 365 367 255
f 650 634 648
f 661 263 264
f 258 662 264
f 264 662 661
f 262 654 261
f 263 654 262
f 357 263 262
f 640 665 653
f 653 654 640
f 653 665 652
f 261 654 653
f 15 14 613
f 128 122 606
f 413 412 128
f 128 418 413
f 314 345 313
f 353 345 314
f 259 586 673
f 673 321 259
f 585 584 673
f 29 584 585
f 581 586 259
f 581 29 586
f 355 263 357
f 355 264 263
f 355 354 258
f 258 264 355
f 313 339 312
f 339 311 312
f 13 618 619
f 619 312 311
f 618 312 619
f 19 18 466
f 19 463 469
f 518 483 454
f 460 16 456
f 452 123 537
f 537 15 452
f 537 16 15
f 464 16 461
f 24 587 588
f 646 648 666
f 666 648 634
f 37 30 650
f 254 255 659
f 659 253 254
f 260 653 652
f 261 653 260
f 370 400 398
f 398 371 370
f 636 634 650
f 636 635 634
f 142 145 129
f 657 665 639
f 665 633 639
f 639 658 657
f 639 633 658
f 652 665 655
f 665 656 655
f 655 257 652
f 256 257 655
f 655 656 256
f 38 420 32
f 15 613 614
f 128 606 605
f 605 606 15
f 200 199 402
f 402 201 200
f 200 126 199
f 201 126 200
f 389 392 390
f 368 365 408
f 369 370 256
f 369 367 368
f 256 367 369
f 403 406 194
f 340 329 339
f 340 345 346
f 339 345 340
f 342 335 337
f 353 314 320
f 259 321 320
f 320 321 353
f 585 673 628
f 628 673 586
f 628 29 585
f 586 29 628
f 321 673 663
f 663 662 258
f 258 321 663
f 640 662 663
f 663 673 640
f 14 25 11
f 12 13 11
f 11 13 14
f 582 576 11
f 11 602 12
f 632 259 582
f 632 581 259
f 582 11 632
f 29 581 632
f 632 11 29
f 346 354 348
f 354 355 348
f 348 355 357
f 325 613 326
f 313 312 617
f 608 619 311
f 607 13 608
f 13 619 608
f 411 410 412
f 91 86 96
f 96 86 85
f 470 20 19
f 19 469 470
f 457 20 470
f 238 390 392
f 389 390 238
f 68 67 71
f 71 51 68
f 63 64 65
f 67 65 76
f 71 58 73
f 73 58 57
f 71 73 72
f 72 73 56
f 461 16 506
f 16 460 506
f 456 16 455
f 16 537 455
f 455 126 456
f 17 473 474
f 17 471 472
f 472 473 17
f 471 507 472
f 465 471 16
f 16 464 465
f 465 507 471
f 490 479 23
f 648 479 490
f 645 648 646
f 645 479 648
f 26 24 588
f 580 642 625
f 625 642 587
f 625 24 580
f 587 24 625
f 588 587 641
f 587 642 641
f 641 642 640
f 641 593 592
f 640 673 641
f 641 673 593
f 203 199 124
f 124 123 203
f 124 537 123
f 124 455 537
f 202 126 201
f 252 195 202
f 202 201 252
f 456 126 202
f 202 460 456
f 195 460 202
f 20 494 21
f 19 20 21
f 21 17 19
f 21 25 17
f 497 498 23
f 23 22 497
f 454 20 453
f 20 459 453
f 453 518 454
f 458 20 457
f 458 459 20
f 449 453 459
f 32 420 422
f 422 420 429
f 429 428 422
f 130 131 132
f 132 131 142
f 142 129 132
f 650 648 651
f 651 38 32
f 651 37 650
f 36 37 651
f 420 38 651
f 429 420 651
f 651 497 556
f 498 497 651
f 648 486 651
f 209 208 158
f 205 209 155
f 155 209 158
f 141 216 205
f 205 155 141
f 141 155 156
f 375 254 253
f 322 260 362
f 652 257 362
f 362 260 652
f 363 362 257
f 257 371 363
f 204 145 146
f 204 129 145
f 241 306 240
f 241 240 216
f 216 240 269
f 306 241 305
f 240 306 307
f 307 269 240
f 418 614 324
f 324 330 418
f 325 329 324
f 329 330 324
f 419 613 325
f 419 614 613
f 325 324 419
f 419 324 614
f 615 418 599
f 615 614 418
f 615 599 15
f 15 614 615
f 128 605 604
f 604 605 15
f 594 606 122
f 122 595 594
f 15 606 594
f 594 595 15
f 596 122 203
f 596 595 122
f 203 123 596
f 15 595 596
f 391 375 395
f 368 408 404
f 407 400 370
f 407 403 400
f 406 403 407
f 368 404 407
f 405 406 407
f 407 404 405
f 342 337 341
f 341 330 329
f 583 673 584
f 583 629 673
f 584 29 583
f 593 673 627
f 673 629 627
f 620 11 621
f 620 314 313
f 620 621 314
f 356 348 357
f 327 311 339
f 339 329 327
f 327 329 325
f 325 326 327
f 607 608 327
f 327 608 311
f 610 611 14
f 612 613 14
f 14 611 612
f 612 326 613
f 323 327 328
f 328 327 326
f 328 610 323
f 611 610 328
f 326 612 328
f 328 612 611
f 623 312 618
f 623 13 12
f 623 618 13
f 336 411 412
f 335 411 336
f 402 410 338
f 478 466 18
f 18 477 478
f 462 463 19
f 19 468 462
f 467 515 468
f 19 466 467
f 467 468 19
f 85 86 81
f 88 83 87
f 87 86 91
f 62 64 63
f 91 96 97
f 99 6 85
f 85 81 99
f 99 62 527
f 99 81 64
f 64 62 99
f 85 6 98
f 98 96 85
f 98 97 96
f 527 478 513
f 513 478 477
f 513 99 527
f 511 6 477
f 66 65 67
f 468 515 445
f 63 524 445
f 149 168 154
f 154 151 149
f 148 151 154
f 106 83 88
f 144 145 142
f 142 131 144
f 157 155 158
f 156 155 157
f 146 145 159
f 145 144 159
f 159 144 139
f 158 208 227
f 227 157 158
f 139 157 227
f 227 159 139
f 389 238 237
f 237 405 389
f 194 406 237
f 237 406 405
f 236 238 234
f 234 233 236
f 234 238 392
f 392 376 234
f 194 237 109
f 109 237 111
f 49 68 50
f 50 68 51
f 71 67 78
f 78 58 71
f 67 76 78
f 60 76 61
f 60 78 76
f 58 78 60
f 59 148 57
f 57 58 59
f 79 73 57
f 56 73 79
f 70 51 71
f 71 72 70
f 75 51 70
f 75 70 55
f 55 70 72
f 476 17 475
f 17 474 475
f 461 506 197
f 197 193 461
f 245 193 197
f 489 23 488
f 489 490 23
f 488 648 489
f 648 490 489
f 23 481 482
f 482 24 23
f 554 24 482
f 482 637 554
f 482 481 666
f 23 479 480
f 480 481 23
f 479 645 480
f 646 481 480
f 480 645 646
f 646 666 644
f 644 481 646
f 666 481 644
f 24 624 578
f 578 624 642
f 589 26 588
f 588 641 589
f 10 26 591
f 24 26 10
f 554 637 670
f 640 642 670
f 626 641 592
f 591 641 626
f 592 10 626
f 626 10 591
f 199 126 125
f 125 124 199
f 126 455 125
f 455 124 125
f 488 23 487
f 23 486 487
f 487 648 488
f 487 486 648
f 23 498 485
f 485 486 23
f 498 651 485
f 485 651 486
f 27 21 501
f 27 502 22
f 505 502 27
f 27 22 23
f 496 22 495
f 496 497 22
f 556 497 496
f 484 20 483
f 484 491 20
f 493 494 20
f 518 453 519
f 453 449 519
f 449 448 519
f 423 430 424
f 428 423 48
f 48 423 426
f 36 651 134
f 134 651 34
f 138 166 130
f 254 375 364
f 393 392 389
f 393 391 392
f 393 404 408
f 389 405 393
f 405 404 393
f 600 599 128
f 128 604 600
f 15 599 600
f 600 604 15
f 597 123 452
f 597 596 123
f 452 15 597
f 15 596 597
f 370 369 396
f 396 407 370
f 396 369 368
f 368 407 396
f 247 249 402
f 245 197 247
f 250 201 402
f 402 249 250
f 252 201 250
f 250 195 252
f 249 197 250
f 347 340 346
f 346 348 347
f 329 340 347
f 347 341 329
f 342 341 347
f 347 356 342
f 348 356 347
f 577 11 576
f 577 630 11
f 577 576 259
f 259 630 577
f 621 11 631
f 11 630 631
f 314 621 631
f 631 320 314
f 259 320 631
f 631 630 259
f 602 11 601
f 11 620 601
f 313 602 601
f 601 620 313
f 323 610 609
f 607 327 609
f 609 327 323
f 14 607 609
f 609 610 14
f 622 617 312
f 312 623 622
f 12 617 622
f 622 623 12
f 12 602 603
f 603 598 12
f 603 602 313
f 313 598 603
f 616 617 12
f 12 598 616
f 313 617 616
f 616 598 313
f 415 337 335
f 335 336 415
f 415 336 412
f 410 411 334
f 334 411 335
f 335 333 334
f 352 351 322
f 261 260 359
f 359 262 261
f 361 260 322
f 322 351 361
f 361 359 260
f 351 359 361
f 82 81 86
f 86 87 82
f 82 83 61
f 82 87 83
f 88 87 89
f 89 106 88
f 91 90 89
f 89 87 91
f 107 106 89
f 525 62 63
f 63 445 525
f 525 445 515
f 515 526 525
f 525 526 62
f 531 98 5
f 97 98 531
f 531 532 97
f 99 513 528
f 512 511 477
f 512 18 476
f 512 477 18
f 529 98 6
f 6 511 529
f 5 98 529
f 529 511 5
f 516 470 469
f 63 65 446
f 65 66 446
f 446 524 63
f 189 151 83
f 83 106 189
f 189 106 107
f 149 151 189
f 189 107 117
f 189 183 149
f 117 183 189
f 153 154 168
f 172 168 149
f 149 183 172
f 115 117 116
f 115 183 117
f 236 233 191
f 160 166 164
f 379 395 287
f 379 391 395
f 392 391 377
f 377 376 392
f 2 507 534
f 507 465 534
f 92 100 105
f 92 90 91
f 91 100 92
f 49 50 544
f 483 518 544
f 58 60 152
f 152 59 58
f 152 151 148
f 148 59 152
f 75 55 43
f 43 53 75
f 251 506 460
f 251 460 195
f 195 250 251
f 668 670 637
f 649 482 667
f 580 24 579
f 24 578 579
f 579 642 580
f 579 578 642
f 573 24 554
f 573 574 24
f 554 670 573
f 575 624 24
f 24 574 575
f 642 624 575
f 591 26 590
f 26 589 590
f 590 641 591
f 590 589 641
f 592 593 28
f 28 10 592
f 593 627 28
f 28 627 629
f 28 583 29
f 629 583 28
f 29 11 28
f 23 24 28
f 24 10 28
f 28 11 25
f 28 27 23
f 25 21 28
f 21 27 28
f 495 22 503
f 22 502 503
f 503 430 495
f 424 430 551
f 551 430 550
f 21 567 566
f 499 21 494
f 499 567 21
f 557 27 501
f 548 544 50
f 548 484 483
f 483 544 548
f 20 491 492
f 492 493 20
f 494 493 560
f 69 519 448
f 69 68 49
f 69 448 68
f 556 496 572
f 572 430 556
f 572 496 495
f 495 430 572
f 429 651 427
f 651 430 427
f 427 428 429
f 427 423 428
f 430 423 427
f 555 651 556
f 556 430 555
f 555 430 651
f 425 423 424
f 426 423 425
f 424 558 553
f 558 557 553
f 565 566 567
f 44 566 565
f 75 53 80
f 80 51 75
f 44 565 431
f 35 39 133
f 133 134 35
f 133 54 135
f 42 39 47
f 47 48 42
f 47 422 428
f 428 48 47
f 32 422 421
f 422 47 421
f 421 651 32
f 34 651 421
f 421 134 34
f 35 134 421
f 30 37 137
f 137 31 30
f 137 132 31
f 130 132 137
f 137 138 130
f 136 37 36
f 136 137 37
f 138 137 136
f 36 134 136
f 134 133 136
f 212 209 205
f 205 213 212
f 255 254 366
f 254 364 366
f 366 365 255
f 366 364 365
f 394 408 365
f 365 364 394
f 394 393 408
f 394 364 375
f 375 391 394
f 391 393 394
f 216 269 215
f 269 270 215
f 205 216 215
f 215 213 205
f 248 197 249
f 249 247 248
f 248 247 197
f 244 193 245
f 245 247 244
f 244 247 402
f 330 341 417
f 341 416 417
f 418 330 417
f 417 413 418
f 417 416 413
f 332 338 410
f 410 334 332
f 333 338 332
f 332 334 333
f 397 352 322
f 397 363 371
f 322 362 397
f 362 363 397
f 402 338 401
f 401 338 333
f 401 398 400
f 401 403 402
f 400 403 401
f 342 356 349
f 349 356 357
f 77 82 61
f 81 82 77
f 61 76 77
f 77 76 65
f 77 65 64
f 64 81 77
f 527 62 444
f 62 526 444
f 515 467 514
f 514 526 515
f 514 467 466
f 514 444 526
f 527 444 514
f 514 478 527
f 466 478 514
f 473 472 533
f 533 472 507
f 532 531 509
f 509 474 473
f 530 531 5
f 6 99 443
f 99 528 443
f 477 6 443
f 443 513 477
f 443 528 513
f 447 469 463
f 447 516 469
f 169 153 168
f 165 171 169
f 57 148 150
f 150 79 57
f 148 154 150
f 154 153 150
f 56 79 150
f 110 115 116
f 140 141 156
f 156 192 140
f 216 141 140
f 163 192 156
f 163 191 192
f 242 305 241
f 242 304 305
f 303 304 242
f 139 144 143
f 143 160 139
f 143 144 131
f 143 131 130
f 130 166 143
f 166 160 143
f 161 157 139
f 139 160 161
f 161 160 164
f 391 379 380
f 380 377 391
f 233 234 308
f 308 242 233
f 246 119 193
f 193 244 246
f 246 244 310
f 246 403 194
f 402 403 246
f 120 119 105
f 105 93 120
f 193 119 120
f 120 93 193
f 90 92 108
f 108 89 90
f 108 118 116
f 107 89 108
f 116 117 108
f 117 107 108
f 49 544 432
f 432 544 518
f 432 69 49
f 61 83 84
f 84 60 61
f 84 152 60
f 83 151 84
f 151 152 84
f 42 43 41
f 41 43 55
f 53 43 45
f 45 48 426
f 42 48 45
f 45 43 42
f 426 425 45
f 45 431 53
f 425 431 45
f 40 39 42
f 42 41 40
f 40 41 54
f 40 133 39
f 54 133 40
f 135 54 174
f 74 72 56
f 74 55 72
f 74 174 54
f 74 41 55
f 54 41 74
f 196 197 506
f 506 251 196
f 196 250 197
f 196 251 250
f 637 482 669
f 669 668 637
f 482 668 669
f 670 668 638
f 640 670 638
f 638 667 666
f 638 634 640
f 638 666 634
f 649 667 638
f 638 482 649
f 638 668 482
f 647 482 666
f 666 667 647
f 647 667 482
f 574 573 643
f 643 573 670
f 643 670 642
f 642 575 643
f 643 575 574
f 424 551 571
f 571 505 424
f 571 502 505
f 570 551 550
f 570 503 502
f 502 571 570
f 570 571 551
f 550 430 570
f 430 503 570
f 501 21 500
f 500 44 501
f 567 499 563
f 563 565 567
f 552 431 563
f 563 431 565
f 494 560 549
f 549 560 433
f 505 27 504
f 27 557 504
f 504 557 558
f 424 505 504
f 504 558 424
f 434 548 50
f 450 538 520
f 67 68 450
f 68 448 450
f 450 448 449
f 449 538 450
f 458 538 517
f 517 538 449
f 459 458 517
f 517 449 459
f 521 458 457
f 521 538 458
f 520 538 521
f 521 8 520
f 457 470 521
f 7 521 470
f 8 521 7
f 46 425 424
f 424 553 46
f 46 553 44
f 44 431 46
f 46 431 425
f 501 44 559
f 44 553 559
f 559 557 501
f 559 553 557
f 435 80 53
f 53 431 435
f 435 431 552
f 552 563 435
f 33 39 35
f 35 421 33
f 33 47 39
f 33 421 47
f 170 171 165
f 171 170 177
f 207 212 206
f 209 212 207
f 374 373 316
f 287 395 374
f 395 373 374
f 315 316 660
f 659 634 660
f 634 635 660
f 218 219 274
f 274 219 318
f 129 204 672
f 650 30 672
f 672 132 129
f 30 31 672
f 31 132 672
f 214 267 224
f 213 215 214
f 214 215 267
f 268 215 270
f 309 244 402
f 310 244 309
f 402 246 309
f 309 246 310
f 413 416 409
f 409 331 413
f 409 416 341
f 409 341 337
f 337 331 409
f 337 415 414
f 414 331 337
f 413 331 414
f 412 413 414
f 414 415 412
f 399 350 351
f 399 401 350
f 351 352 399
f 352 397 399
f 398 401 399
f 371 398 399
f 399 397 371
f 343 335 342
f 342 349 343
f 357 262 358
f 358 349 357
f 262 359 358
f 359 349 358
f 344 343 349
f 344 401 333
f 350 401 344
f 344 333 335
f 335 343 344
f 474 509 510
f 510 509 531
f 510 475 474
f 531 530 510
f 476 475 510
f 510 530 5
f 510 512 476
f 5 511 510
f 511 512 510
f 542 447 463
f 463 462 542
f 524 446 542
f 542 446 66
f 66 447 542
f 66 516 522
f 522 447 66
f 516 447 522
f 167 184 147
f 147 165 167
f 167 169 168
f 165 169 167
f 147 184 188
f 187 181 188
f 187 188 185
f 185 188 184
f 182 172 183
f 183 184 182
f 184 167 182
f 168 172 182
f 182 167 168
f 112 110 111
f 111 237 112
f 112 237 238
f 192 191 232
f 232 140 192
f 232 191 233
f 233 242 232
f 156 157 162
f 157 161 162
f 147 188 162
f 162 188 181
f 162 163 156
f 181 163 162
f 180 161 164
f 164 170 180
f 180 170 165
f 180 165 147
f 147 162 180
f 180 162 161
f 206 292 293
f 386 307 306
f 306 305 386
f 305 304 386
f 386 304 303
f 303 242 235
f 242 308 235
f 105 119 104
f 119 118 104
f 104 92 105
f 104 108 92
f 118 108 104
f 121 118 119
f 119 246 121
f 193 93 439
f 461 193 536
f 536 437 461
f 193 437 536
f 518 519 9
f 9 432 518
f 519 69 9
f 69 432 9
f 56 150 175
f 175 150 153
f 175 74 56
f 174 74 175
f 21 566 564
f 564 500 21
f 52 50 51
f 52 434 50
f 484 548 561
f 548 434 561
f 491 484 561
f 433 560 545
f 545 560 493
f 493 3 545
f 520 8 451
f 451 450 520
f 8 7 451
f 451 66 67
f 67 450 451
f 539 516 66
f 66 451 539
f 539 451 7
f 470 516 539
f 539 7 470
f 569 563 499
f 569 435 563
f 138 136 178
f 178 133 135
f 178 136 133
f 174 175 173
f 173 175 153
f 153 169 173
f 173 169 171
f 218 207 221
f 221 207 206
f 206 293 221
f 221 293 222
f 229 207 218
f 218 274 229
f 229 275 208
f 217 275 229
f 208 209 229
f 209 207 229
f 228 219 218
f 218 221 228
f 230 210 208
f 208 275 230
f 317 375 253
f 317 253 659
f 659 660 317
f 395 375 317
f 317 373 395
f 285 316 315
f 285 374 316
f 273 274 318
f 217 229 273
f 273 229 274
f 265 204 146
f 265 672 204
f 211 214 224
f 213 214 211
f 224 212 211
f 211 212 213
f 224 267 271
f 267 215 271
f 215 268 271
f 387 386 292
f 307 386 387
f 300 212 224
f 224 271 300
f 300 271 268
f 300 268 270
f 300 270 269
f 360 359 351
f 351 350 360
f 350 344 360
f 360 349 359
f 360 344 349
f 97 95 101
f 91 97 101
f 101 100 91
f 532 509 442
f 97 532 442
f 533 543 442
f 442 95 97
f 442 543 95
f 473 533 442
f 442 509 473
f 540 507 2
f 540 533 507
f 524 542 523
f 523 542 462
f 523 462 468
f 468 445 523
f 523 445 524
f 115 110 113
f 183 115 113
f 110 112 113
f 113 184 183
f 113 185 184
f 190 181 187
f 236 191 190
f 190 163 181
f 191 163 190
f 243 241 216
f 216 140 243
f 243 242 241
f 292 386 381
f 287 222 281
f 222 293 281
f 303 235 302
f 302 235 308
f 118 121 103
f 103 121 246
f 194 109 103
f 103 246 194
f 535 437 193
f 193 439 535
f 535 439 93
f 44 500 568
f 500 564 568
f 568 566 44
f 568 564 566
f 546 434 436
f 434 52 436
f 436 52 51
f 51 80 436
f 433 545 436
f 436 545 3
f 436 435 433
f 80 435 436
f 562 492 491
f 493 492 562
f 562 3 493
f 546 436 562
f 562 436 3
f 547 434 546
f 546 562 547
f 491 561 547
f 547 562 491
f 1 499 494
f 1 569 499
f 494 549 1
f 1 549 433
f 433 435 1
f 435 569 1
f 138 178 179
f 179 178 177
f 179 177 170
f 166 138 179
f 164 166 179
f 179 170 164
f 176 178 135
f 177 178 176
f 135 174 176
f 174 173 176
f 171 177 176
f 176 173 171
f 318 219 278
f 219 279 278
f 219 228 220
f 672 265 272
f 272 265 146
f 276 275 277
f 276 230 275
f 210 230 276
f 316 373 372
f 373 317 372
f 372 660 316
f 372 317 660
f 374 285 282
f 282 222 287
f 287 374 282
f 277 275 319
f 319 275 217
f 217 273 319
f 290 292 206
f 290 387 292
f 212 300 225
f 225 300 269
f 441 101 95
f 441 540 2
f 100 101 441
f 95 543 441
f 2 534 441
f 534 100 441
f 441 543 533
f 533 540 441
f 114 113 112
f 236 190 127
f 127 114 112
f 190 114 127
f 127 238 236
f 127 112 238
f 140 232 198
f 198 243 140
f 198 232 242
f 288 293 292
f 383 386 303
f 383 381 386
f 289 281 293
f 293 288 289
f 102 103 109
f 118 103 102
f 102 109 111
f 116 118 102
f 102 110 116
f 111 110 102
f 437 535 508
f 508 464 461
f 461 437 508
f 440 100 534
f 4 561 434
f 434 547 4
f 4 547 561
f 671 278 279
f 315 660 671
f 318 278 671
f 635 636 671
f 671 660 635
f 280 279 219
f 219 220 280
f 280 671 279
f 283 220 228
f 283 285 315
f 228 282 283
f 283 282 285
f 266 272 146
f 146 159 266
f 210 276 266
f 266 276 272
f 159 227 266
f 266 227 208
f 208 210 266
f 222 282 223
f 223 282 228
f 223 221 222
f 223 228 221
f 307 387 388
f 388 299 307
f 387 299 388
f 231 290 206
f 206 212 231
f 226 297 212
f 212 225 226
f 226 299 297
f 226 225 299
f 301 225 269
f 299 225 301
f 269 307 301
f 186 190 187
f 186 114 190
f 187 185 186
f 185 113 186
f 113 114 186
f 242 243 239
f 239 198 242
f 243 198 239
f 292 381 385
f 385 288 292
f 381 289 385
f 385 289 288
f 384 308 234
f 384 234 376
f 376 377 384
f 378 380 379
f 378 289 381
f 287 281 286
f 281 289 286
f 286 379 287
f 286 378 379
f 289 378 286
f 94 535 93
f 100 440 94
f 94 93 105
f 105 100 94
f 464 508 541
f 541 465 464
f 541 534 465
f 541 440 534
f 664 273 318
f 318 671 664
f 664 319 273
f 277 319 664
f 664 671 636
f 664 276 277
f 664 636 650
f 650 672 664
f 672 272 664
f 272 276 664
f 284 280 220
f 284 283 315
f 220 283 284
f 315 671 284
f 671 280 284
f 387 290 291
f 291 299 387
f 307 299 298
f 298 301 307
f 299 301 298
f 381 383 382
f 382 378 381
f 382 384 377
f 303 302 382
f 382 383 303
f 382 302 308
f 308 384 382
f 377 380 382
f 380 378 382
f 535 94 438
f 438 94 440
f 440 541 438
f 438 508 535
f 438 541 508
f 290 231 295
f 295 291 290
f 297 299 296
f 299 291 296
f 291 295 296
f 294 295 231
f 294 296 295
f 294 231 212
f 212 297 294
f 297 296 294

