# https://github.com/mikedh/trimesh
v -0.03743657 -0.01482661 -0.02458151
v -0.03669179 -0.06489991 0.00565410
v -0.03637353 -0.06979594 0.00385309
v -0.03544585 -0.07876571 -0.00139665
v -0.03484958 -0.08271223 -0.00477091
v -0.03417591 -0.08622340 -0.00858325
v -0.03343438 -0.08924942 -0.01277960
v -0.03410937 -0.09155498 -0.01823938
v -0.03314562 -0.09165863 -0.01746200
v -0.03446105 -0.09122843 -0.01787033
v -0.03296378 -0.09167219 -0.01735077
v -0.03524949 -0.08876309 -0.01340854
v -0.03732654 -0.08902878 -0.01942483
v -0.03634428 -0.09092168 -0.02250377
v -0.03578270 -0.08961815 -0.03678795
v -0.03636790 -0.08916812 -0.03381947
v -0.03665148 -0.08989212 -0.03075824
v -0.03713269 -0.08854508 -0.02949151
v -0.03584141 -0.08929168 -0.03679832
v -0.03658207 -0.08782970 -0.03319317
v -0.03750300 -0.08688246 -0.02798156
v -0.03787917 -0.08740398 -0.02526719
v -0.03790994 -0.08619552 -0.02567871
v -0.03859675 -0.08576098 -0.02120640
v -0.03927524 -0.08363941 -0.01736676
v -0.03925583 -0.08256853 -0.01806232
v -0.04003945 -0.07924917 -0.01362780
v -0.03990505 -0.08106934 -0.01380271
v -0.04041927 -0.07719696 -0.01147843
v -0.04071331 -0.07534537 -0.00981440
v -0.04129429 -0.07072438 -0.00652668
v -0.04141711 -0.07106133 -0.00524589
v -0.04177153 -0.06711718 -0.00324028
v -0.04174469 -0.06558272 -0.00397785
v -0.04204183 -0.06295888 -0.00171065
v -0.04193045 -0.06258524 -0.00292664
v -0.04222418 -0.05864540 -0.00067867
v -0.04203991 -0.06026250 -0.00230716
v -0.04231602 -0.05423793 -0.00015897
v -0.04231603 -0.04979898 -0.00015893
v -0.04218538 -0.05496439 -0.00148395
v -0.04222421 -0.04539150 -0.00067855
v -0.04212014 -0.04606469 -0.00185316
v -0.04188895 -0.04070359 -0.00316146
v -0.04204186 -0.04107800 -0.00171048
v -0.04151266 -0.03555160 -0.00529088
v -0.04098370 -0.02930141 -0.00769863
v -0.04047729 -0.02594951 -0.01056440
v -0.04099685 -0.03075441 -0.00820983
v -0.04035584 -0.02647223 -0.01183735
v -0.03990513 -0.02296735 -0.01380225
v -0.03954900 -0.02258490 -0.01640324
v -0.04031835 -0.02626012 -0.01204947
v -0.03713279 -0.01549135 -0.02949094
v -0.03786137 -0.01774994 -0.02595356
v -0.03787927 -0.01663253 -0.02526663
v -0.03874269 -0.01981652 -0.02096617
v -0.03927534 -0.02039723 -0.01736626
v -0.03636800 -0.01486824 -0.03381889
v -0.03578281 -0.01441815 -0.03678736
v -0.03584151 -0.01474463 -0.03679774
v -0.03691242 -0.01645345 -0.03132368
v -0.03594197 -0.01601816 -0.03681551
v -0.03878297 -0.05459761 0.00658748
v -0.03867626 -0.05971923 0.00598358
v -0.03846435 -0.06473164 0.00478438
v -0.03595625 -0.07443983 0.00149167
v -0.03723469 -0.07841632 -0.00217427
v -0.03664621 -0.08231128 -0.00550446
v -0.03598134 -0.08577658 -0.00926700
v -0.03262980 -0.09169279 -0.01717183
v -0.04017313 -0.05953753 0.00469785
v -0.03996622 -0.06443167 0.00352695
v -0.03815025 -0.06956372 0.00300688
v -0.03965953 -0.06914975 0.00179140
v -0.03925742 -0.07362484 -0.00048418
v -0.03773842 -0.07414695 0.00067632
v -0.03819099 -0.08159655 -0.00651913
v -0.03754180 -0.08498009 -0.01019290
v -0.03682721 -0.08789613 -0.01423673
v -0.03605737 -0.09030330 -0.01859325
v -0.03446911 -0.09149977 -0.01862846
v -0.04042010 -0.03113133 -0.00191830
v -0.04080882 -0.03545748 0.00028146
v -0.04110529 -0.04001851 0.00195917
v -0.04130530 -0.04474974 0.00309102
v -0.04140601 -0.04958406 0.00366096
v -0.04027733 -0.04950024 0.00528755
v -0.04140601 -0.05445290 0.00366093
v -0.04027733 -0.05453675 0.00528751
v -0.04110525 -0.06401842 0.00195897
v -0.04080878 -0.06857944 0.00028120
v -0.04042005 -0.07290555 -0.00191862
v -0.03876558 -0.07779348 -0.00326751
v -0.03994458 -0.07693541 -0.00460930
v -0.03807075 -0.08670174 -0.01521334
v -0.03743647 -0.08920991 -0.02458210
v -0.03819067 -0.08748306 -0.02031407
v -0.03890380 -0.08525321 -0.01627847
v -0.03876154 -0.08388278 -0.01130413
v -0.03956574 -0.08255198 -0.01253252
v -0.03938912 -0.08061187 -0.00775266
v -0.04016711 -0.07941768 -0.00912938
v -0.04069937 -0.07589477 -0.00611730
v -0.04152747 -0.06788776 -0.00143105
v -0.04130528 -0.05928721 0.00309090
v -0.04200324 -0.05898362 0.00126131
v -0.04209976 -0.05435121 0.00180753
v -0.04209977 -0.04968572 0.00180757
v -0.04200326 -0.04505330 0.00126143
v -0.04152752 -0.03614912 -0.00143080
v -0.04115504 -0.03200365 -0.00353868
v -0.04069943 -0.02814204 -0.00611693
v -0.04016718 -0.02461909 -0.00912896
v -0.03956582 -0.02148473 -0.01253205
v -0.03890389 -0.01878344 -0.01627794
v -0.03618713 -0.01437166 -0.03434993
v -0.03653032 -0.01423225 -0.03185176
v -0.03859684 -0.01827559 -0.02120587
v -0.03819077 -0.01655352 -0.02031351
v -0.04141717 -0.03297550 -0.00524558
v -0.04177158 -0.03691968 -0.00324004
v -0.04181160 -0.04051967 0.00017684
v -0.04181157 -0.06351724 0.00017666
v -0.04115498 -0.07203320 -0.00353899
v -0.04098363 -0.07473538 -0.00769899
v -0.04047722 -0.07808723 -0.01056481
v -0.03682461 -0.09013359 -0.02836291
v -0.03292302 -0.01356195 -0.04761632
v -0.03315303 -0.01482595 -0.04882091
v -0.02534845 -0.08924907 -0.05853751
v -0.02830171 -0.09150242 -0.05341073
v -0.03094720 -0.09103508 -0.05103905
v -0.03315293 -0.08921016 -0.04882149
v -0.03531511 -0.01486757 -0.03977666
v -0.03508792 -0.01635354 -0.04164859
v -0.03380381 -0.01663174 -0.04832909
v -0.03308622 -0.01827477 -0.05238995
v -0.03413537 -0.01754715 -0.04703906
v -0.03321801 -0.01959949 -0.05223041
v -0.03240771 -0.02039638 -0.05622965
v -0.03239769 -0.02233377 -0.05687260
v -0.03177790 -0.02296649 -0.05979376
v -0.03120572 -0.02594865 -0.06303171
v -0.03164820 -0.02580438 -0.06111398
v -0.03147917 -0.02675390 -0.06207052
v -0.03069929 -0.02930055 -0.06589758
v -0.03085175 -0.03103379 -0.06562111
v -0.03026580 -0.03297466 -0.06835074
v -0.02991138 -0.03691888 -0.07035636
v -0.03055677 -0.03362532 -0.06729043
v -0.03034323 -0.03586761 -0.06849881
v -0.02997060 -0.04113411 -0.07060751
v -0.02964108 -0.04107725 -0.07188603
v -0.02975274 -0.04645318 -0.07184042
v -0.02945871 -0.04539080 -0.07291803
v -0.02936688 -0.04979834 -0.07343773
v -0.02936688 -0.05423737 -0.07343777
v -0.02967746 -0.05191546 -0.07226640
v -0.02945870 -0.05864492 -0.07291813
v -0.02972986 -0.05666576 -0.07196987
v -0.02964105 -0.06295849 -0.07188620
v -0.02993049 -0.06214686 -0.07083449
v -0.03028055 -0.06743032 -0.06885349
v -0.03026575 -0.07106113 -0.06835103
v -0.03077301 -0.07235703 -0.06606665
v -0.03097538 -0.07395911 -0.06492144
v -0.03069923 -0.07473529 -0.06589794
v -0.03137435 -0.07665601 -0.06266367
v -0.03120565 -0.07808724 -0.06303213
v -0.03154508 -0.07766124 -0.06169751
v -0.03227679 -0.08121370 -0.05755674
v -0.03177781 -0.08106945 -0.05979422
v -0.03262540 -0.08255921 -0.05558397
v -0.03240762 -0.08363962 -0.05623015
v -0.03308612 -0.08576129 -0.05239048
v -0.03380371 -0.08740438 -0.04832965
v -0.03310527 -0.08411594 -0.05286838
v -0.03455020 -0.08854558 -0.04410527
v -0.03531500 -0.08916870 -0.03977724
v -0.03497170 -0.08758378 -0.04230625
v -0.02960427 -0.09130851 -0.05248344
v -0.02613785 -0.09169047 -0.05413083
v -0.02393326 -0.08271173 -0.06654610
v -0.02333701 -0.07876517 -0.06992031
v -0.02282663 -0.07443924 -0.07280856
v -0.02209111 -0.06489924 -0.07697085
v -0.02240936 -0.06979531 -0.07516990
v -0.02187641 -0.05982047 -0.07818583
v -0.02176831 -0.04940456 -0.07879760
v -0.02187643 -0.04421515 -0.07818571
v -0.02209115 -0.03913640 -0.07697064
v -0.02240941 -0.03424036 -0.07516962
v -0.02333708 -0.02527059 -0.06991988
v -0.02282669 -0.02959647 -0.07280821
v -0.02805763 -0.01280781 -0.05410636
v -0.02726919 -0.01527316 -0.05856816
v -0.02832521 -0.01253654 -0.05339690
v -0.03068306 -0.01294112 -0.05136606
v -0.03128224 -0.01500724 -0.05362815
v -0.03141494 -0.01311464 -0.05039894
v -0.03480066 -0.01423443 -0.04164983
v -0.03455030 -0.01549062 -0.04410469
v -0.03453249 -0.01414419 -0.04274965
v -0.03387376 -0.01390256 -0.04506064
v -0.02669036 -0.09165768 -0.05403746
v -0.02726909 -0.08876279 -0.05856874
v -0.02653725 -0.08577621 -0.06271024
v -0.02460693 -0.08622297 -0.06273381
v -0.02528391 -0.07841582 -0.06980286
v -0.02436838 -0.06956311 -0.07498389
v -0.02405429 -0.06473099 -0.07676131
v -0.02384239 -0.05971856 -0.07796043
v -0.02373569 -0.05459692 -0.07856426
v -0.02176830 -0.05463104 -0.07879765
v -0.02373570 -0.04943870 -0.07856421
v -0.02405433 -0.03930465 -0.07676110
v -0.02436842 -0.03447256 -0.07498362
v -0.02478026 -0.02988933 -0.07265304
v -0.02528399 -0.02561995 -0.06980245
v -0.02587246 -0.02172498 -0.06647225
v -0.02866274 -0.09145505 -0.05319396
v -0.02805752 -0.09122820 -0.05410698
v -0.02832045 -0.08497981 -0.06237525
v -0.02767126 -0.08159619 -0.06604899
v -0.02587238 -0.08231084 -0.06647273
v -0.02709668 -0.07779305 -0.06930055
v -0.02478020 -0.07414639 -0.07265340
v -0.02620274 -0.06914920 -0.07435935
v -0.02589607 -0.06443108 -0.07609484
v -0.02568917 -0.05953690 -0.07726567
v -0.02558499 -0.05453608 -0.07785525
v -0.02558499 -0.04949955 -0.07785521
v -0.02384242 -0.04431706 -0.07796031
v -0.02589611 -0.03960458 -0.07609464
v -0.02620280 -0.03488649 -0.07435908
v -0.02660491 -0.03041138 -0.07208350
v -0.02767135 -0.02243964 -0.06604853
v -0.02832054 -0.01905608 -0.06237473
v -0.02903512 -0.01614003 -0.05833089
v -0.02653734 -0.01825967 -0.06270971
v -0.02980486 -0.09030318 -0.05397496
v -0.03053792 -0.08670167 -0.05784022
v -0.02903502 -0.08789593 -0.05833146
v -0.02660485 -0.07362436 -0.07208384
v -0.02779992 -0.06857897 -0.07333460
v -0.02750345 -0.06401789 -0.07501231
v -0.02720274 -0.04958339 -0.07671409
v -0.02568919 -0.04449874 -0.07726556
v -0.02730346 -0.04474904 -0.07614406
v -0.02750349 -0.04001779 -0.07501213
v -0.02818871 -0.03113060 -0.07113449
v -0.02866417 -0.02710070 -0.06844380
v -0.02709675 -0.02624272 -0.06930014
v -0.02921964 -0.02342421 -0.06530041
v -0.02984722 -0.02015328 -0.06174891
v -0.03053802 -0.01733430 -0.05783967
v -0.02980497 -0.01373284 -0.05397435
v -0.02966435 -0.01273801 -0.05243018
v -0.03208759 -0.01329764 -0.04931681
v -0.03239883 -0.01655282 -0.05308899
v -0.03168569 -0.01878270 -0.05712464
v -0.03102373 -0.02148396 -0.06087062
v -0.03042236 -0.02461830 -0.06427381
v -0.02989010 -0.02814126 -0.06728593
v -0.02943447 -0.03200286 -0.06986427
v -0.02779997 -0.03545675 -0.07333434
v -0.02877788 -0.04051893 -0.07357997
v -0.02858621 -0.04505260 -0.07466464
v -0.02848968 -0.04968506 -0.07521085
v -0.02720273 -0.05445227 -0.07671413
v -0.02848968 -0.05435062 -0.07521090
v -0.02730345 -0.05928663 -0.07614417
v -0.02877785 -0.06351679 -0.07358015
v -0.02906193 -0.06788739 -0.07197249
v -0.02818865 -0.07290515 -0.07113482
v -0.02943442 -0.07203291 -0.06986458
v -0.02866411 -0.07693509 -0.06844418
v -0.02989002 -0.07589456 -0.06728631
v -0.02921956 -0.08061163 -0.06530085
v -0.03042228 -0.07941756 -0.06427424
v -0.02984713 -0.08388262 -0.06174941
v -0.03102365 -0.08255196 -0.06087111
v -0.03168559 -0.08525328 -0.05712516
v -0.03128213 -0.08902880 -0.05362873
v -0.03239873 -0.08748323 -0.05308954
v -0.03208277 -0.09073988 -0.04932634
v -0.03256583 -0.09059227 -0.04839985
v -0.03532719 -0.08966465 -0.03921634
v -0.03396231 -0.09010076 -0.04478098
v -0.02991135 -0.06711689 -0.07035660
v -0.02858618 -0.05898309 -0.07466474
v -0.02906197 -0.03614835 -0.07197224
v -0.03334856 -0.01371096 -0.04656333
v -0.03840165 -0.08512697 -0.02289614
v -0.03201720 -0.02395909 -0.05902582
v -0.04220571 -0.05148518 -0.00136892
v -0.03401035 -0.08626415 -0.04774654
v -0.03594187 -0.08801816 -0.03681607
v -0.03487022 -0.09193448 -0.02417870
v -0.03444138 -0.09196094 -0.02167196
v -0.03402649 -0.09197423 -0.02043754
v -0.03494639 -0.09191009 -0.02667937
v -0.03456999 -0.09187359 -0.03160892
v -0.03383116 -0.09186033 -0.03645821
v -0.03286160 -0.09187368 -0.04126756
v -0.03225853 -0.09188952 -0.04366118
v -0.03152033 -0.09191027 -0.04603307
v -0.03058696 -0.09193470 -0.04835771
v -0.02932183 -0.09196107 -0.05055769
v -0.02850781 -0.09197428 -0.05156897
v -0.02806036 -0.09172430 -0.05310825
v -0.02655614 -0.09181463 -0.05372454
v -0.03027035 -0.09148819 -0.05115435
v -0.03056031 -0.09112176 -0.05151143
v -0.02927465 -0.09161118 -0.05220865
v -0.03479343 -0.08980407 -0.04168084
v -0.03440879 -0.09067359 -0.04159856
v -0.03374156 -0.09082146 -0.04403322
v -0.03289635 -0.09101495 -0.04646375
v -0.03333437 -0.09033021 -0.04660084
v -0.03179686 -0.09124256 -0.04886610
v -0.03292970 -0.09181446 -0.01772136
v -0.03413723 -0.09172288 -0.01882896
v -0.03539585 -0.09129830 -0.01999560
v -0.03554066 -0.09148502 -0.02143917
v -0.03598817 -0.09109519 -0.02134439
v -0.03638821 -0.09101193 -0.02674799
v -0.03684626 -0.09032535 -0.02676978
v -0.03618369 -0.09123892 -0.02411814
v -0.03660545 -0.09073856 -0.02375166
v -0.03680737 -0.09047436 -0.02563472
v -0.02779818 -0.09188780 -0.05277968
v -0.02890362 -0.09183726 -0.05189921
v -0.02981652 -0.09178204 -0.05086888
v -0.03123195 -0.09167090 -0.04862891
v -0.03308240 -0.09147744 -0.04386799
v -0.03373485 -0.09140855 -0.04145438
v -0.03542629 -0.09054887 -0.03674021
v -0.03613735 -0.09067216 -0.03182878
v -0.03474417 -0.09135004 -0.03661962
v -0.03545476 -0.09140792 -0.03173303
v -0.03567038 -0.09147656 -0.02924281
v -0.03634639 -0.09081943 -0.02931389
v -0.03573200 -0.09156550 -0.02671676
v -0.03557073 -0.09166935 -0.02414623
v -0.03501487 -0.09178074 -0.02155052
v -0.03451385 -0.09183624 -0.02026422
v -0.03497041 -0.09160859 -0.02010195
v -0.03377653 -0.09188732 -0.01904687
v -0.03217031 -0.09184247 -0.01731473
v -0.03270179 -0.09192809 -0.01799578
v -0.03652649 -0.08980188 -0.03188337
v -0.03226985 -0.09156681 -0.04626766
v -0.03482493 -0.09188940 -0.02915422
v -0.03614078 -0.01336272 -0.03179724
v -0.03634835 -0.01321485 -0.02928135
v -0.03681200 -0.01393555 -0.02865453
v -0.03684579 -0.01370610 -0.02672967
v -0.03674034 -0.01344405 -0.02477623
v -0.02808214 -0.01231344 -0.05309481
v -0.02785390 -0.01248133 -0.05363913
v -0.02930113 -0.01242772 -0.05218446
v -0.03029513 -0.01255129 -0.05112366
v -0.03181735 -0.01279739 -0.04882730
v -0.03291077 -0.01302439 -0.04642682
v -0.03543161 -0.01348745 -0.03671007
v -0.03474948 -0.01268627 -0.03658958
v -0.03441638 -0.01336415 -0.04156774
v -0.03375087 -0.01321688 -0.04400198
v -0.03374232 -0.01262839 -0.04142376
v -0.03309144 -0.01255975 -0.04383707
v -0.03228361 -0.01247081 -0.04623126
v -0.03125114 -0.01236696 -0.04859085
v -0.02983935 -0.01225556 -0.05083886
v -0.01267352 -0.07412165 0.01137962
v -0.01226916 -0.07784250 0.00909130
v -0.01442839 -0.07778375 0.00831691
v -0.01215567 -0.07876037 0.00844911
v -0.01182086 -0.08120456 0.00655436
v -0.01393992 -0.08152616 0.00538543
v -0.01133950 -0.08415318 0.00383035
v -0.01336092 -0.08492742 0.00207006
v -0.01113388 -0.08524863 0.00266673
v -0.01081743 -0.08677677 0.00087592
v -0.01196460 -0.09054381 -0.00553541
v -0.01269644 -0.08793697 -0.00159139
v -0.00976950 -0.09079069 -0.00505435
v -0.01024576 -0.08913768 -0.00235917
v -0.01118689 -0.09275791 -0.00969684
v -0.00891464 -0.09321531 -0.00989205
v -0.00933842 -0.09209019 -0.00749386
v -0.00961478 -0.09127676 -0.00592995
v -0.00813770 -0.09495220 -0.01428881
v -0.01038369 -0.09460694 -0.01402344
v -0.00638186 -0.09871970 -0.03704193
v -0.00716799 -0.09863646 -0.03232671
v -0.00543095 -0.09846800 -0.02960640
v -0.00796074 -0.09814721 -0.02764485
v -0.00876210 -0.09729689 -0.02302120
v -0.00728359 -0.09645645 -0.01912220
v -0.00957197 -0.09611627 -0.01847380
v -0.00560174 -0.09834982 -0.04175145
v -0.00482877 -0.09748266 -0.04640376
v -0.00291719 -0.09811056 -0.04383251
v -0.00330822 -0.09844807 -0.04161965
v -0.00202366 -0.08918905 -0.06333234
v -0.00265875 -0.09194300 -0.05945111
v -0.00082853 -0.09416617 -0.05565216
v -0.00128206 -0.09534992 -0.05308563
v -0.00334492 -0.09425818 -0.05530370
v -0.00150449 -0.09586032 -0.05182691
v -0.00407216 -0.09611254 -0.05093833
v -0.00220509 -0.09718403 -0.04786225
v -0.00144614 -0.08601822 -0.06689471
v -0.00092923 -0.08244590 -0.07007107
v 0.00259479 -0.07444724 -0.07502449
v -0.00047540 -0.07851198 -0.07279801
v 0.00022773 -0.06984230 -0.07680959
v 0.00285756 -0.07076760 -0.07651149
v 0.00307661 -0.06674630 -0.07775100
v 0.00317548 -0.06444996 -0.07831052
v 0.00076707 -0.05587253 -0.07968247
v 0.00326404 -0.06197615 -0.07881167
v 0.00338305 -0.05734719 -0.07948507
v 0.00344942 -0.05200000 -0.07986058
v 0.00345270 -0.05157223 -0.07987917
v 0.00197470 -0.05114600 -0.08004376
v 0.00345578 -0.05114442 -0.07989665
v -0.01591937 -0.06100493 0.01699348
v -0.01517631 -0.06957011 0.01304991
v -0.01317724 -0.06845939 0.01423017
v -0.01378858 -0.06103022 0.01768978
v -0.01657449 -0.05199997 0.02001271
v -0.01411323 -0.05659738 0.01952697
v 0.00065216 -0.06059545 -0.07909025
v 0.00047422 -0.06526116 -0.07813954
v -0.00008899 -0.07428401 -0.07503988
v -0.01483158 -0.07376775 0.01085462
v -0.01629532 -0.05658434 0.01871090
v 0.00319108 -0.03793523 -0.07839876
v 0.00059648 -0.04038854 -0.07897383
v 0.00340493 -0.04517452 -0.07960890
v 0.00069399 -0.04391681 -0.07952563
v 0.00311911 -0.03633782 -0.07799152
v 0.00287942 -0.03208905 -0.07663517
v 0.00277573 -0.03056870 -0.07604837
v -0.00017187 -0.02734504 -0.07462574
v 0.00138988 -0.01728518 -0.06820597
v -0.00145527 -0.00564104 -0.05602788
v -0.00002447 -0.00904517 -0.06020221
v -0.00193026 -0.01338045 -0.06467500
v 0.00060209 -0.01233089 -0.06374792
v -0.00286149 -0.00851146 -0.05940517
v -0.00150542 -0.01600920 -0.06707921
v -0.00110934 -0.01877972 -0.06932060
v 0.00014854 -0.01859114 -0.06934329
v 0.00174710 -0.01996209 -0.07022747
v 0.00080963 -0.02421958 -0.07308441
v 0.00219726 -0.02390984 -0.07277486
v -0.00045205 -0.02437623 -0.07304022
v 0.00257407 -0.02795825 -0.07490722
v 0.00007304 -0.03041484 -0.07601169
v 0.00045769 -0.03690775 -0.07818845
v 0.00028461 -0.03362359 -0.07720900
v 0.00075178 -0.04752465 -0.07985271
v 0.03678018 -0.07504657 -0.06860984
v 0.03630777 -0.07125336 -0.07041895
v 0.02845564 -0.09867609 -0.02598368
v 0.03496550 -0.09342751 -0.03983629
v 0.04001447 -0.06079016 -0.06840845
v 0.03971457 -0.06786129 -0.06671129
v 0.03969195 -0.06939451 -0.06703067
v 0.03991443 -0.06514454 -0.06829011
v 0.03244287 -0.09468564 -0.02556068
v 0.03312735 -0.09558453 -0.02988830
v 0.04007561 -0.06080783 -0.06920148
v 0.03958861 -0.06966783 -0.06775928
v 0.03981506 -0.06534693 -0.06904167
v 0.03933690 -0.06992773 -0.06845544
v 0.03206177 -0.09763210 -0.03013807
v 0.03127051 -0.09749148 -0.02556985
v 0.03254633 -0.09702546 -0.03003288
v 0.03290522 -0.09633377 -0.02994869
v 0.03212454 -0.09621252 -0.02550919
v 0.03216024 -0.09612489 -0.02550906
v 0.03956709 -0.06554101 -0.06975982
v 0.03894421 -0.07016455 -0.06909333
v 0.03917780 -0.06571962 -0.07041806
v 0.03842724 -0.07036836 -0.06964627
v 0.03780371 -0.07053235 -0.07009568
v 0.03866414 -0.06587526 -0.07098885
v 0.03804329 -0.06600273 -0.07145303
v 0.03710049 -0.07064943 -0.07042215
v 0.03734211 -0.06609645 -0.07179021
v 0.04017987 -0.05641421 -0.06978597
v 0.03997904 -0.06094134 -0.06996830
v 0.04008579 -0.05647783 -0.07056277
v 0.03973369 -0.06107021 -0.07070146
v 0.03934680 -0.06118969 -0.07137401
v 0.03984261 -0.05654049 -0.07130600
v 0.03945751 -0.05659990 -0.07198840
v 0.03883553 -0.06129479 -0.07195781
v 0.03821665 -0.06138198 -0.07243330
v 0.03751699 -0.06144741 -0.07277931
v 0.03005198 -0.09872370 -0.03053756
v 0.02991865 -0.09839173 -0.02574521
v 0.03078808 -0.09849484 -0.03039566
v 0.04001804 -0.06067449 -0.06842868
v 0.03714642 -0.08769859 -0.05217814
v 0.03744631 -0.08710867 -0.05432576
v 0.03802062 -0.08367750 -0.05712522
v 0.03803760 -0.08424152 -0.05767090
v 0.03874396 -0.07899489 -0.06121863
v 0.03898565 -0.07696882 -0.06258636
v 0.03929444 -0.07382680 -0.06433377
v 0.03902267 -0.07739697 -0.06324433
v 0.03389858 -0.09529849 -0.03425181
v 0.03466104 -0.09455234 -0.03856545
v 0.03540489 -0.09333839 -0.04277504
v 0.03611308 -0.09104689 -0.04633041
v 0.03928765 -0.07384849 -0.06605727
v 0.03939677 -0.07350323 -0.06536097
v 0.03844192 -0.08147877 -0.06127189
v 0.03856718 -0.08099580 -0.06066677
v 0.03790233 -0.08478463 -0.05821998
v 0.03730031 -0.08770371 -0.05481483
v 0.03680494 -0.08959224 -0.05069691
v 0.03612201 -0.09167667 -0.04683301
v 0.03522284 -0.09404529 -0.04306093
v 0.03446586 -0.09528168 -0.03877693
v 0.03368980 -0.09604191 -0.03438707
v 0.03903067 -0.07417380 -0.06672319
v 0.03864262 -0.07820172 -0.06452717
v 0.03890618 -0.07781295 -0.06389923
v 0.03701050 -0.08825345 -0.05529235
v 0.03664759 -0.09023178 -0.05112208
v 0.03564162 -0.09297821 -0.04754711
v 0.03595257 -0.09235349 -0.04719032
v 0.03490044 -0.09469769 -0.04335228
v 0.03413156 -0.09595480 -0.03900020
v 0.03334316 -0.09672808 -0.03454053
v 0.03823970 -0.07854859 -0.06510467
v 0.03817056 -0.08192732 -0.06185481
v 0.03720517 -0.08572982 -0.05924756
v 0.03762209 -0.08528717 -0.05875221
v 0.03634755 -0.09082226 -0.05154110
v 0.03591373 -0.09134071 -0.05193813
v 0.03519845 -0.09352636 -0.04788993
v 0.03444743 -0.09526990 -0.04363817
v 0.03366830 -0.09654506 -0.03922700
v 0.03863339 -0.07446697 -0.06733393
v 0.03776107 -0.08232437 -0.06239364
v 0.03604048 -0.08913253 -0.05614004
v 0.03658544 -0.08873662 -0.05574031
v 0.03536131 -0.09176481 -0.05229673
v 0.03463811 -0.09397426 -0.04820468
v 0.03387881 -0.09573709 -0.04390703
v 0.03228344 -0.09782065 -0.03487930
v 0.03286930 -0.09732975 -0.03470669
v 0.03748552 -0.07491164 -0.06829529
v 0.03811221 -0.07471569 -0.06786390
v 0.03771353 -0.07883891 -0.06560752
v 0.03659515 -0.08290260 -0.06325535
v 0.03722928 -0.08265308 -0.06286582
v 0.03602872 -0.08636695 -0.06005053
v 0.03666710 -0.08609373 -0.05968530
v 0.03471281 -0.09208079 -0.05260443
v 0.03398396 -0.09430740 -0.04848027
v 0.03321872 -0.09608423 -0.04414915
v 0.03161104 -0.09818511 -0.03505161
v 0.03309114 -0.09702674 -0.03944839
v 0.03763081 -0.05673627 -0.07341799
v 0.03866780 -0.05200000 -0.07318014
v 0.03832994 -0.05669972 -0.07306518
v 0.03962329 -0.05200000 -0.07212904
v 0.03894780 -0.05665358 -0.07258140
v 0.03986241 -0.05200000 -0.07168857
v 0.04013930 -0.05200000 -0.07086814
v 0.03637578 -0.07921183 -0.06632143
v 0.03708328 -0.07906306 -0.06601877
v 0.03588551 -0.08306303 -0.06354655
v 0.03531680 -0.08653902 -0.06032887
v 0.03539728 -0.08942825 -0.05647781
v 0.03399500 -0.09227740 -0.05284962
v 0.03326278 -0.09451438 -0.04870645
v 0.03242493 -0.09738443 -0.03965610
v 0.03665683 -0.06445000 -0.07239424
v 0.03687260 -0.05688752 -0.07361530
v 0.03693072 -0.05200000 -0.07394421
v 0.03798199 -0.05200000 -0.07360421
v 0.03582807 -0.07724218 -0.06770431
v 0.03561576 -0.07927865 -0.06650286
v 0.03516420 -0.08285841 -0.06394747
v 0.03434288 -0.08771638 -0.05929962
v 0.03468262 -0.08961287 -0.05674062
v 0.03392204 -0.08967844 -0.05691803
v 0.03331334 -0.09206749 -0.05347342
v 0.03219932 -0.09535001 -0.04716919
v 0.03173083 -0.09637328 -0.04451800
v 0.03101358 -0.09757367 -0.04045903
v 0.03249398 -0.09629977 -0.04435562
v 0.03169654 -0.09760657 -0.03984246
v 0.03087903 -0.09841162 -0.03521710
v 0.03146703 -0.09812716 -0.03026074
v 0.03377645 -0.09463205 -0.03310745
v 0.02524491 -0.07102091 0.01517267
v 0.02474200 -0.07171086 0.01640467
v 0.02390718 -0.06206672 0.02106925
v 0.02218412 -0.07276369 0.01796825
v 0.02407690 -0.05691833 0.02178247
v 0.02244442 -0.05731188 0.02440881
v 0.02352159 -0.05713673 0.02324421
v 0.02321786 -0.05200000 0.02493989
v 0.02214460 -0.05200000 0.02610833
v 0.02157840 -0.05200000 0.02645703
v 0.02282175 -0.06240328 0.02220208
v 0.02136345 -0.06260894 0.02283760
v 0.02099844 -0.05741480 0.02507433
v 0.02070696 -0.05200000 0.02677694
v 0.02030399 -0.06845939 0.02014661
v 0.01982149 -0.06264930 0.02287709
v 0.01942091 -0.05738085 0.02514397
v 0.01912387 -0.05200000 0.02682495
v -0.01435736 -0.05200000 0.02090851
v -0.01724412 -0.02878452 0.02534533
v -0.01942779 -0.00554964 0.02941883
v -0.01814986 -0.00554964 0.03043714
v -0.01722926 -0.00554964 0.03088365
v -0.01527399 -0.02878728 0.02609585
v -0.00128689 -0.00500000 -0.05511206
v -0.00304776 -0.00499305 -0.05500565
v 0.03539615 -0.00499741 -0.04264588
v 0.03539613 -0.00499757 -0.04459292
v 0.03372402 -0.00499789 -0.04858936
v 0.03285537 -0.00500000 -0.04907876
v 0.03508736 -0.00499932 -0.04630184
v 0.03805330 -0.01833523 -0.05731013
v 0.03767122 -0.01596947 -0.05514793
v 0.03717769 -0.01325988 -0.05235510
v 0.03522341 -0.00500000 -0.04129576
v 0.04009940 -0.04394522 -0.06888904
v 0.03984630 -0.03695033 -0.06745677
v 0.03974140 -0.03500925 -0.06686314
v 0.03941305 -0.03025432 -0.06500499
v 0.03922546 -0.02807049 -0.06394344
v 0.03880803 -0.02401360 -0.06158118
v -0.01617187 -0.00554964 0.03117708
v 0.01730931 -0.00554967 0.03709355
v 0.01849660 -0.00554967 0.03712009
v 0.02139660 -0.00554969 0.03523226
v 0.02188079 -0.00554969 0.03411761
v 0.02330591 -0.04034062 0.02614545
v 0.02353009 -0.04605644 0.02487683
v 0.02196130 -0.00554970 0.03375464
v -0.02571048 -0.00000000 -0.01446448
v -0.02837231 -0.00000000 -0.00807851
v -0.02947358 -0.00000000 -0.00124820
v -0.02895374 -0.00000000 0.00565077
v -0.02684136 -0.00000000 0.01223892
v 0.02621646 -0.00000000 -0.03021088
v 0.03065364 -0.00000000 -0.02569736
v 0.02018037 -0.00000000 0.03453625
v 0.02066302 -0.00000000 -0.03411645
v 0.02112287 -0.00000000 -0.03396798
v 0.02202581 -0.00000000 0.03338958
v 0.03165210 -0.00000000 -0.02377727
v -0.00771937 -0.00000000 -0.03913189
v -0.00990745 -0.00000000 -0.03875361
v -0.02080972 -0.00000000 0.02597125
v -0.01860096 -0.00000000 0.02768339
v -0.02052812 -0.00000000 0.02646163
v -0.01992555 -0.00000000 0.02709348
v 0.03174565 -0.00000000 -0.02161512
v -0.00820225 -0.00000000 -0.03915001
v 0.04024069 -0.05108925 -0.07009378
v 0.04019500 -0.05149933 -0.06943863
v 0.04015258 -0.05110249 -0.07087757
v 0.04015367 -0.05155535 -0.07084465
v 0.03991238 -0.05111450 -0.07162898
v 0.03962873 -0.05160381 -0.07214762
v 0.03952934 -0.05112486 -0.07231867
v 0.03912970 -0.05162596 -0.07278880
v 0.03901838 -0.05113324 -0.07291979
v 0.03839937 -0.05113940 -0.07340892
v 0.03798614 -0.05165124 -0.07362238
v 0.03769651 -0.05114315 -0.07376702
v 0.04023012 -0.05200000 -0.06982538
v 0.04023321 -0.05200000 -0.07008929
v 0.03391185 -0.01138264 -0.05686036
v 0.00043049 -0.01138265 -0.06277682
v 0.00121629 -0.01609488 -0.06722364
v 0.03487124 -0.01728509 -0.06228961
v 0.03545743 -0.02187539 -0.06560685
v 0.03562763 -0.02342206 -0.06656998
v 0.03611134 -0.02864409 -0.06930730
v 0.03625704 -0.03056874 -0.07013184
v 0.03657994 -0.03591848 -0.07195915
v 0.03667234 -0.03793529 -0.07248201
v 0.00329352 -0.04069282 -0.07897846
v 0.03685207 -0.04349002 -0.07349914
v 0.03689224 -0.04552608 -0.07372642
v 0.00345343 -0.04980155 -0.07988333
v 0.03693708 -0.05114442 -0.07398020
v 0.03693398 -0.05157480 -0.07396265
v 0.01845058 -0.03508502 0.03063510
v -0.00171178 -0.00499940 -0.05514654
v -0.00351889 -0.00547887 -0.05550956
v -0.00308274 -0.00586430 -0.05615329
v -0.00423774 -0.00499869 -0.05449877
v -0.00078087 -0.00562275 -0.05592181
v 0.03270048 -0.00562288 -0.05000526
v 0.03345550 -0.00564386 -0.04976709
v 0.04017657 -0.04958196 -0.06932579
v 0.03990265 -0.03675791 -0.06818078
v 0.04015929 -0.04386062 -0.06963311
v 0.04005373 -0.04221038 -0.06863062
v 0.03946280 -0.02995375 -0.06569166
v 0.03851992 -0.02165033 -0.05995073
v 0.03719703 -0.01271282 -0.05286963
v 0.03808338 -0.01785315 -0.05788553
v 0.03662613 -0.01058951 -0.04923380
v 0.03540892 -0.01580479 -0.06082153
v 0.03464629 -0.01575456 -0.06101660
v 0.03447687 -0.01038885 -0.05554704
v 0.03687191 -0.02867546 -0.06910063
v 0.03621896 -0.02191702 -0.06540556
v 0.03761159 -0.04349894 -0.07328645
v 0.03831471 -0.04352533 -0.07292982
v 0.03804405 -0.03599820 -0.07139817
v 0.03733983 -0.03593861 -0.07174857
v 0.03757818 -0.02876835 -0.06876177
v 0.03692804 -0.02204030 -0.06508265
v 0.03612125 -0.01595352 -0.06051702
v 0.03519252 -0.01055757 -0.05526131
v 0.03893414 -0.04356813 -0.07244306
v 0.03866526 -0.03609490 -0.07092151
v 0.03820270 -0.02891911 -0.06830385
v 0.03755714 -0.02224039 -0.06465062
v 0.03675563 -0.01619496 -0.06011486
v 0.03583228 -0.01083146 -0.05488963
v 0.03481912 -0.00612605 -0.04915614
v 0.03944566 -0.04362560 -0.07184511
v 0.03917919 -0.03622488 -0.07033714
v 0.03872107 -0.02912181 -0.06774466
v 0.03808167 -0.02250948 -0.06412627
v 0.03728725 -0.01651967 -0.05963067
v 0.03637115 -0.01119983 -0.05444643
v 0.03536482 -0.00652738 -0.04875161
v 0.03956582 -0.03638300 -0.06966780
v 0.03911313 -0.02936849 -0.06710599
v 0.03848121 -0.02283700 -0.06352996
v 0.03769544 -0.01691493 -0.05908325
v 0.03678815 -0.01164827 -0.05394891
v 0.03579014 -0.00701596 -0.04830116
v 0.03982938 -0.04369543 -0.07115926
v 0.03981011 -0.03656304 -0.06893954
v 0.03936358 -0.02964948 -0.06641264
v 0.03874020 -0.02321013 -0.06288489
v 0.03796426 -0.01736530 -0.05849389
v 0.03706703 -0.01215926 -0.05341640
v 0.03607849 -0.00757272 -0.04782230
v 0.03449647 -0.00499670 -0.04766971
v 0.03417428 -0.00582767 -0.04949907
v 0.04007034 -0.04377482 -0.07041222
v 0.03884865 -0.02361427 -0.06221620
v 0.03621877 -0.00817589 -0.04733365
v 0.01947462 -0.02918498 0.03194330
v 0.02066920 -0.02906180 0.03159116
v 0.01963638 -0.00554967 0.03679227
v 0.02169096 -0.02886994 0.03089445
v 0.02067766 -0.00554968 0.03610017
v 0.02243987 -0.02862819 0.02992138
v 0.01993798 -0.04116725 0.02932117
v 0.02113255 -0.04104380 0.02896908
v 0.02215428 -0.04085151 0.02827247
v 0.02290317 -0.04060921 0.02729951
v 0.02284263 -0.02836020 0.02876719
v 0.02524920 -0.07239529 0.01497608
v 0.02395662 -0.07346033 0.01666433
v 0.02365641 -0.07234630 0.01742934
v 0.02433777 -0.07325587 0.01636378
v 0.02486117 -0.07287128 0.01576415
v 0.02069103 -0.07289529 0.01795635
v 0.02181234 -0.07405846 0.01736149
v 0.02080765 -0.07412107 0.01729639
v 0.03032853 -0.09819901 -0.02568639
v 0.02960486 -0.09136039 -0.00950033
v 0.02408127 -0.07630041 0.01511412
v 0.02260910 -0.07679591 0.01561960
v 0.02231036 -0.07398099 0.01731018
v 0.02274719 -0.07388602 0.01721653
v 0.02901088 -0.09222558 -0.00768680
v 0.02936173 -0.09087142 -0.00812448
v 0.02839657 -0.08852229 -0.00266260
v 0.02800987 -0.08978693 -0.00202206
v 0.02838590 -0.08849218 -0.00260221
v 0.02752994 -0.08832224 0.00069389
v 0.02706724 -0.08667272 0.00331227
v 0.02739036 -0.08514983 0.00303153
v 0.02664102 -0.08169450 0.00727206
v 0.02662329 -0.08481418 0.00582464
v 0.02655061 -0.08119997 0.00778367
v 0.02581966 -0.08050445 0.01037236
v 0.02593394 -0.07721885 0.01127343
v 0.02546997 -0.07809954 0.01235129
v 0.02580674 -0.07623957 0.01199326
v 0.02515364 -0.07554825 0.01414141
v 0.03235772 -0.09546412 -0.02552079
v 0.03240745 -0.09517305 -0.02553254
v 0.03108583 -0.09537810 -0.01942897
v 0.03036695 -0.09266942 -0.01381302
v 0.03003783 -0.09406471 -0.01349830
v 0.03101153 -0.09354064 -0.01746070
v 0.03139348 -0.09395571 -0.01962216
v 0.03017235 -0.09672870 -0.01935534
v 0.03174029 -0.09692001 -0.02552716
v 0.02910396 -0.09538949 -0.01330931
v 0.02805626 -0.09351309 -0.00738038
v 0.02703147 -0.09101621 -0.00158106
v 0.02653816 -0.08951067 0.00121055
v 0.02606121 -0.08781021 0.00390966
v 0.02560232 -0.08588911 0.00650647
v 0.02620451 -0.08274954 0.00819449
v 0.02516869 -0.08375120 0.00896041
v 0.02477002 -0.08142508 0.01121648
v 0.02440807 -0.07893562 0.01326476
v 0.02698991 -0.09752174 -0.01768906
v 0.02880484 -0.09761841 -0.01944215
v 0.02625084 -0.09653758 -0.01350668
v 0.02556728 -0.09538422 -0.00963840
v 0.02518516 -0.09462887 -0.00747599
v 0.02414283 -0.09209019 -0.00157741
v 0.02666165 -0.09436125 -0.00731384
v 0.02562119 -0.09182601 -0.00142585
v 0.02363488 -0.09054047 0.00129708
v 0.02511908 -0.09029356 0.00141559
v 0.02314555 -0.08879597 0.00406621
v 0.02307674 -0.08852755 0.00445561
v 0.02463272 -0.08855954 0.00416788
v 0.02267363 -0.08682141 0.00673680
v 0.02372059 -0.08441105 0.00932965
v 0.02331282 -0.08203155 0.01163723
v 0.02132556 -0.07876037 0.01436555
v 0.02294280 -0.07948640 0.01373119
v 0.02772302 -0.09626221 -0.01332012
v 0.02416402 -0.08659723 0.00682031
v 0.02378136 -0.05200000 0.02345489
v 0.02444865 -0.06166668 0.01967870
v 0.02747266 -0.08547211 0.00256577
v 0.02535281 -0.07215509 0.01456206
v -0.01406032 -0.05738085 0.01922753
v 0.00168280 -0.08285818 -0.06986366
v 0.00143307 -0.08451767 -0.06845046
v 0.00114602 -0.08621426 -0.06682605
v 0.00094926 -0.08726975 -0.06571261
v 0.00086153 -0.08771645 -0.06521614
v 0.00041271 -0.08979894 -0.06267632
v -0.00018487 -0.09212678 -0.05929459
v -0.00246782 -0.09757357 -0.04637548
v 0.02983913 -0.09864552 -0.03381284
v -0.00248481 -0.09759682 -0.04627933
v -0.00363668 -0.09864248 -0.03976088
v -0.00436887 -0.09881081 -0.03561744
v 0.00171014 -0.08266456 -0.07001837
v 0.00186455 -0.08152079 -0.07089213
v 0.00225373 -0.07817083 -0.07309449
v 0.00234684 -0.07724251 -0.07362137
v -0.00502563 -0.09867617 -0.03190012
v 0.02733705 -0.09789283 -0.01965354
v -0.00636811 -0.09766018 -0.02430300
v -0.00791398 -0.09538422 -0.01555485
v 0.02212647 -0.08406828 0.00983320
v -0.01047813 -0.08823336 -0.00104419
v 0.02181622 -0.08222470 0.01158888
v 0.02808456 -0.06226051 0.00312576
v 0.02862854 -0.06848519 0.00004733
v 0.02940767 -0.07382114 -0.00436173
v 0.03149292 -0.02326029 -0.01616222
v 0.03037995 -0.02601919 -0.00986389
v 0.03389666 -0.02245578 -0.02976502
v 0.03268661 -0.02205075 -0.02291732
v 0.03765526 -0.03853611 -0.05103496
v 0.03610755 -0.02793636 -0.04227647
v 0.03765524 -0.06546406 -0.05103487
v 0.03806981 -0.05891857 -0.05338091
v 0.03821053 -0.05200009 -0.05417725
v 0.03806982 -0.04508162 -0.05338096
v 0.03505781 -0.07954653 -0.03633597
v 0.03441777 -0.06455753 -0.03271397
v 0.03610752 -0.07606376 -0.04227631
v 0.03698918 -0.07128371 -0.04726561
v 0.03037992 -0.07798071 -0.00986372
v 0.03149289 -0.08073966 -0.01616203
v 0.03268658 -0.08194924 -0.02291713
v 0.03389663 -0.08154425 -0.02976482
v 0.02940769 -0.03017872 -0.00436187
v 0.02862856 -0.03551465 0.00004722
v 0.02780503 -0.04851712 0.00470758
v 0.02776973 -0.05199990 0.00490734
v 0.02780503 -0.05548269 0.00470760
v 0.03698920 -0.03271645 -0.04726573
v 0.03505784 -0.02445356 -0.03633615
v 0.02808456 -0.04173930 0.00312570
f 649 706 650
f 432 622 433
f 629 671 673
f 652 666 651
f 655 666 652
f 433 622 623
f 625 626 434
f 625 624 706
f 663 649 650
f 671 649 663
f 888 883 886
f 883 888 644
f 660 84 670
f 670 84 85
f 886 892 885
f 495 494 468
f 468 467 417
f 468 494 467
f 745 750 744
f 744 738 745
f 737 738 744
f 664 631 668
f 636 631 664
f 664 665 636
f 624 623 620
f 630 625 706
f 706 649 630
f 629 626 630
f 626 625 630
f 882 674 666
f 899 666 655
f 899 904 666
f 666 904 898
f 898 899 880
f 904 899 898
f 622 432 621
f 784 432 376
f 376 786 784
f 784 621 432
f 629 673 628
f 673 627 628
f 628 626 629
f 672 627 673
f 434 626 65
f 626 628 65
f 65 627 64
f 65 628 627
f 887 888 886
f 892 895 889
f 890 892 886
f 890 895 892
f 886 883 890
f 890 878 895
f 899 878 890
f 60 367 202
f 659 658 116
f 115 659 116
f 136 203 139
f 375 656 669
f 375 364 656
f 657 656 374
f 656 364 374
f 356 658 657
f 356 367 118
f 114 659 115
f 114 113 659
f 83 660 659
f 84 660 83
f 376 432 431
f 431 432 433
f 430 431 433
f 3 431 430
f 417 467 592
f 472 471 886
f 886 885 472
f 867 592 593
f 18 21 20
f 738 733 739
f 739 745 738
f 738 737 732
f 732 737 730
f 732 733 738
f 420 468 417
f 734 733 723
f 734 739 733
f 740 739 734
f 635 665 661
f 635 636 665
f 635 661 662
f 735 741 740
f 740 734 735
f 725 734 723
f 725 735 734
f 771 776 651
f 629 630 648
f 648 630 649
f 648 671 629
f 648 649 671
f 879 666 880
f 879 882 666
f 876 899 901
f 880 666 897
f 897 898 880
f 666 898 897
f 835 833 834
f 805 878 877
f 877 899 876
f 877 878 899
f 895 878 893
f 805 877 807
f 773 652 651
f 607 877 876
f 835 834 820
f 820 834 819
f 826 827 843
f 378 380 379
f 378 4 380
f 68 4 67
f 4 378 67
f 67 431 3
f 382 380 381
f 380 4 381
f 843 827 845
f 827 790 845
f 789 790 827
f 808 782 789
f 89 109 108
f 108 109 40
f 87 88 627
f 87 110 109
f 87 109 89
f 627 672 86
f 86 87 627
f 86 672 670
f 670 85 86
f 85 110 86
f 110 87 86
f 22 21 18
f 295 24 26
f 295 22 24
f 17 22 18
f 36 44 31
f 31 44 139
f 29 31 26
f 73 65 72
f 886 471 509
f 509 887 886
f 509 677 887
f 883 644 645
f 750 745 751
f 752 758 751
f 759 758 752
f 752 753 759
f 759 753 760
f 515 885 892
f 470 889 896
f 896 889 895
f 891 512 892
f 892 889 891
f 521 889 470
f 63 59 61
f 117 59 118
f 118 367 117
f 117 367 60
f 60 61 117
f 117 61 59
f 62 59 63
f 63 136 62
f 204 203 202
f 53 44 50
f 52 53 51
f 52 44 53
f 297 44 36
f 43 44 297
f 40 43 297
f 657 372 370
f 370 371 657
f 368 356 657
f 367 356 368
f 40 109 42
f 109 110 42
f 42 43 40
f 123 110 85
f 123 42 110
f 113 114 48
f 115 51 48
f 48 114 115
f 51 53 48
f 53 50 48
f 84 83 112
f 659 113 112
f 112 83 659
f 843 873 842
f 842 873 841
f 842 826 843
f 73 92 75
f 93 76 75
f 75 92 93
f 852 430 433
f 433 623 852
f 434 65 66
f 66 2 434
f 66 65 73
f 73 75 66
f 3 2 66
f 491 494 495
f 866 867 593
f 866 593 594
f 417 592 868
f 592 867 868
f 857 856 595
f 284 286 175
f 303 300 346
f 745 739 746
f 752 751 746
f 746 751 745
f 746 739 740
f 726 732 730
f 726 697 696
f 634 667 674
f 674 633 634
f 637 667 634
f 634 755 637
f 754 753 748
f 760 753 754
f 272 158 270
f 270 248 272
f 269 248 270
f 163 164 161
f 158 161 159
f 159 161 164
f 142 31 139
f 151 159 164
f 31 142 151
f 255 238 253
f 255 253 265
f 252 266 265
f 265 253 252
f 675 632 669
f 763 635 662
f 662 667 763
f 763 667 637
f 453 692 452
f 636 635 713
f 735 725 713
f 724 692 453
f 723 693 724
f 693 692 724
f 619 620 623
f 619 616 620
f 619 623 622
f 900 899 655
f 655 901 900
f 900 901 899
f 894 893 795
f 895 893 894
f 851 807 877
f 877 607 851
f 779 807 851
f 851 607 779
f 614 776 615
f 835 820 821
f 800 893 878
f 377 378 379
f 377 786 376
f 77 76 68
f 68 67 77
f 77 67 3
f 77 75 76
f 376 431 439
f 431 67 439
f 439 67 378
f 439 377 376
f 378 377 439
f 5 4 68
f 382 381 5
f 5 381 4
f 5 383 382
f 5 6 383
f 379 380 844
f 844 377 379
f 786 377 844
f 844 845 790
f 780 789 782
f 790 789 792
f 789 780 792
f 621 784 785
f 785 610 621
f 785 784 786
f 786 844 785
f 785 844 790
f 39 108 40
f 40 297 39
f 23 295 26
f 23 20 21
f 21 22 23
f 22 295 23
f 36 31 34
f 31 29 30
f 93 92 125
f 125 92 105
f 32 125 33
f 33 125 105
f 33 31 32
f 33 34 31
f 124 33 105
f 105 92 124
f 90 87 89
f 88 87 90
f 64 627 90
f 627 88 90
f 90 65 64
f 90 72 65
f 386 389 7
f 71 386 7
f 393 386 71
f 71 390 393
f 384 385 841
f 384 873 382
f 841 873 384
f 382 383 384
f 383 6 384
f 6 385 384
f 387 385 6
f 839 838 840
f 836 833 835
f 836 393 833
f 836 838 389
f 350 302 399
f 399 400 350
f 68 76 94
f 94 76 93
f 676 716 688
f 677 509 688
f 887 677 714
f 714 688 716
f 677 688 714
f 646 647 883
f 883 645 646
f 643 715 644
f 643 644 888
f 758 715 757
f 750 751 757
f 757 751 758
f 757 715 716
f 795 893 797
f 819 834 846
f 818 793 819
f 819 846 818
f 892 512 514
f 514 515 892
f 516 472 885
f 885 515 516
f 473 472 516
f 549 556 548
f 556 554 548
f 606 896 895
f 470 896 606
f 520 521 470
f 510 891 889
f 889 521 510
f 512 891 510
f 135 136 63
f 63 61 135
f 203 136 135
f 202 203 135
f 60 202 135
f 135 61 60
f 118 59 54
f 59 62 54
f 55 52 57
f 55 54 62
f 56 54 55
f 55 62 136
f 55 136 139
f 139 44 55
f 44 52 55
f 119 55 57
f 56 55 119
f 205 130 137
f 139 203 137
f 137 204 205
f 203 204 137
f 49 50 46
f 46 50 44
f 44 122 46
f 36 38 41
f 41 297 36
f 41 39 297
f 41 38 37
f 37 39 41
f 366 372 657
f 657 373 366
f 366 370 372
f 657 374 365
f 365 373 657
f 365 366 373
f 365 374 364
f 199 365 364
f 261 137 130
f 138 137 261
f 240 239 257
f 257 261 200
f 367 368 369
f 371 370 369
f 657 371 369
f 369 368 657
f 369 202 367
f 369 204 202
f 205 204 369
f 369 370 205
f 45 123 122
f 42 123 45
f 45 122 44
f 45 44 43
f 43 42 45
f 122 123 111
f 111 112 122
f 84 112 111
f 111 85 84
f 111 123 85
f 113 48 47
f 47 112 113
f 47 50 49
f 47 48 50
f 847 842 841
f 841 839 847
f 847 839 840
f 826 842 825
f 842 847 825
f 825 804 826
f 430 852 440
f 3 430 440
f 440 2 3
f 434 2 440
f 440 625 434
f 594 593 580
f 580 592 467
f 593 592 580
f 566 583 582
f 582 564 566
f 582 583 594
f 594 580 582
f 582 580 564
f 566 564 567
f 567 554 566
f 477 509 471
f 480 533 488
f 489 480 488
f 765 716 676
f 676 678 765
f 750 757 765
f 765 757 716
f 502 683 682
f 858 598 859
f 598 409 859
f 584 583 566
f 566 554 584
f 556 568 584
f 584 554 556
f 594 853 865
f 865 866 594
f 867 866 418
f 418 868 867
f 856 857 415
f 550 558 549
f 541 560 551
f 176 286 177
f 176 175 286
f 413 313 206
f 305 396 304
f 305 306 396
f 309 396 308
f 308 336 309
f 559 551 560
f 571 559 508
f 604 405 601
f 406 405 604
f 304 396 355
f 304 355 343
f 337 306 338
f 306 305 338
f 338 305 341
f 747 746 740
f 748 753 747
f 747 753 752
f 752 746 747
f 747 741 748
f 740 741 747
f 674 882 881
f 882 879 881
f 881 879 880
f 880 899 881
f 899 890 881
f 883 903 881
f 881 890 883
f 641 633 674
f 674 881 641
f 641 881 903
f 902 903 883
f 902 638 639
f 902 719 638
f 883 647 902
f 647 719 902
f 761 754 755
f 760 754 761
f 762 634 633
f 720 761 762
f 755 634 762
f 762 761 755
f 162 292 274
f 156 269 157
f 269 270 157
f 157 270 158
f 158 159 157
f 157 155 156
f 157 159 155
f 140 142 139
f 139 137 140
f 140 137 138
f 156 155 153
f 155 159 153
f 159 151 153
f 146 151 142
f 187 212 213
f 421 420 419
f 421 588 495
f 495 468 421
f 468 420 421
f 505 424 589
f 588 424 505
f 495 588 505
f 696 697 447
f 237 236 252
f 218 237 219
f 236 237 218
f 217 235 218
f 218 235 236
f 252 236 267
f 236 235 267
f 707 675 668
f 707 668 631
f 632 675 707
f 363 375 669
f 669 361 363
f 364 375 363
f 669 632 710
f 710 361 669
f 635 763 764
f 764 713 635
f 735 713 764
f 741 735 764
f 637 755 749
f 749 763 637
f 749 754 748
f 755 754 749
f 694 458 693
f 449 692 693
f 693 458 449
f 219 237 220
f 241 240 197
f 241 239 240
f 238 239 241
f 725 451 712
f 636 713 712
f 712 713 725
f 690 451 725
f 690 724 453
f 690 725 723
f 723 724 690
f 615 776 775
f 775 616 615
f 620 616 775
f 776 771 772
f 772 775 776
f 769 775 772
f 772 771 651
f 651 666 772
f 612 614 615
f 613 614 612
f 615 616 612
f 616 619 612
f 895 894 815
f 651 776 777
f 776 614 777
f 777 773 651
f 652 773 777
f 783 782 808
f 783 608 782
f 808 779 783
f 779 608 783
f 799 802 822
f 822 821 799
f 799 800 802
f 806 804 805
f 805 807 806
f 806 779 808
f 806 807 779
f 808 789 806
f 806 789 827
f 827 826 806
f 826 804 806
f 801 800 878
f 802 800 801
f 74 77 3
f 75 77 74
f 3 66 74
f 74 66 75
f 875 873 843
f 843 845 875
f 845 844 875
f 875 844 380
f 875 380 382
f 382 873 875
f 791 792 610
f 610 785 791
f 790 792 791
f 791 785 790
f 18 20 16
f 339 341 340
f 97 332 331
f 331 332 328
f 328 330 331
f 128 17 340
f 97 22 128
f 22 17 128
f 93 125 104
f 107 39 37
f 108 39 107
f 89 108 107
f 33 124 35
f 35 107 37
f 124 107 35
f 35 38 36
f 37 38 35
f 36 34 35
f 34 33 35
f 91 92 73
f 91 124 92
f 389 386 388
f 388 386 393
f 388 836 389
f 393 836 388
f 392 390 391
f 393 390 392
f 391 833 392
f 833 393 392
f 389 838 874
f 838 839 874
f 385 387 874
f 841 385 874
f 874 839 841
f 7 389 874
f 874 6 7
f 874 387 6
f 840 838 837
f 838 836 837
f 837 836 835
f 835 821 837
f 822 840 837
f 837 821 822
f 352 400 402
f 323 350 352
f 352 350 400
f 391 390 395
f 395 394 391
f 346 300 347
f 300 301 347
f 7 6 12
f 12 9 7
f 10 9 12
f 68 94 78
f 78 94 102
f 95 94 93
f 102 94 95
f 93 104 95
f 95 104 102
f 98 22 97
f 24 22 98
f 97 331 98
f 98 331 13
f 13 96 98
f 638 719 721
f 760 761 721
f 721 761 720
f 639 638 721
f 721 720 639
f 758 759 718
f 718 646 645
f 718 715 758
f 718 645 644
f 644 715 718
f 642 714 716
f 888 887 642
f 887 714 642
f 402 400 401
f 871 400 399
f 831 846 834
f 816 818 829
f 829 818 846
f 813 816 811
f 813 818 816
f 793 818 813
f 813 788 793
f 515 514 517
f 517 516 515
f 538 550 549
f 536 548 555
f 555 548 554
f 555 567 545
f 554 567 555
f 475 606 895
f 810 606 475
f 895 815 475
f 475 815 810
f 58 52 51
f 57 52 58
f 58 119 57
f 58 51 115
f 115 116 58
f 658 356 357
f 120 116 658
f 120 58 116
f 119 58 120
f 56 119 120
f 205 370 294
f 370 366 294
f 294 130 205
f 130 294 129
f 129 294 366
f 201 199 200
f 365 199 201
f 143 142 141
f 141 140 138
f 142 140 141
f 256 257 239
f 256 238 255
f 256 239 238
f 122 112 121
f 112 47 121
f 121 46 122
f 49 46 121
f 121 47 49
f 822 802 823
f 823 825 847
f 823 840 822
f 823 847 840
f 625 440 435
f 435 440 852
f 435 852 623
f 435 623 624
f 624 625 435
f 543 544 553
f 546 555 545
f 536 555 546
f 545 553 546
f 546 553 544
f 564 580 581
f 581 580 467
f 496 688 509
f 509 477 496
f 478 479 473
f 497 477 474
f 474 479 497
f 473 479 474
f 474 472 473
f 471 472 474
f 474 477 471
f 504 575 503
f 493 491 495
f 495 505 493
f 493 505 504
f 497 501 498
f 498 477 497
f 498 496 477
f 499 501 497
f 497 479 499
f 502 501 499
f 701 702 443
f 577 683 502
f 577 503 575
f 488 533 552
f 543 562 552
f 491 562 561
f 467 494 561
f 494 491 561
f 561 581 467
f 309 336 335
f 408 859 409
f 858 859 408
f 549 558 557
f 557 556 549
f 557 568 556
f 557 569 568
f 600 601 414
f 586 409 598
f 586 599 409
f 586 598 585
f 585 568 586
f 568 569 586
f 597 598 858
f 858 857 597
f 597 857 595
f 596 568 585
f 596 584 568
f 585 598 596
f 598 597 596
f 596 597 595
f 595 583 596
f 583 584 596
f 417 868 438
f 868 418 438
f 438 420 417
f 419 420 438
f 246 274 247
f 275 274 246
f 247 230 246
f 246 230 229
f 854 853 594
f 594 583 854
f 407 857 858
f 407 415 857
f 858 408 407
f 540 530 541
f 541 551 540
f 540 551 550
f 550 538 540
f 298 176 177
f 298 23 26
f 26 31 298
f 31 151 298
f 175 172 173
f 284 175 173
f 175 176 178
f 176 298 178
f 414 413 412
f 412 600 414
f 599 600 412
f 601 405 862
f 403 405 406
f 403 396 309
f 396 306 307
f 307 308 396
f 307 306 337
f 336 308 354
f 354 337 320
f 354 307 337
f 308 307 354
f 397 301 300
f 300 303 397
f 399 302 397
f 302 301 397
f 397 355 396
f 303 355 397
f 864 397 396
f 869 397 864
f 508 559 605
f 605 481 482
f 560 481 605
f 605 559 560
f 571 604 587
f 304 343 342
f 342 305 304
f 341 305 342
f 340 341 342
f 345 355 303
f 345 343 355
f 345 303 346
f 346 330 345
f 345 330 328
f 328 343 345
f 292 162 160
f 160 158 272
f 272 292 160
f 160 161 158
f 163 161 160
f 160 162 163
f 233 232 248
f 216 214 233
f 233 214 232
f 272 248 271
f 248 232 271
f 250 248 269
f 296 142 143
f 296 146 142
f 231 214 213
f 232 214 231
f 213 212 231
f 212 230 231
f 211 230 212
f 229 230 211
f 212 187 211
f 189 187 213
f 213 214 189
f 419 187 437
f 437 421 419
f 187 189 437
f 573 575 504
f 504 505 573
f 573 505 589
f 697 698 446
f 446 447 697
f 446 698 445
f 190 214 216
f 191 444 190
f 443 428 466
f 466 444 443
f 428 190 466
f 466 190 444
f 192 464 191
f 217 218 192
f 442 444 191
f 191 464 442
f 143 263 264
f 255 265 264
f 264 256 255
f 263 256 264
f 261 257 262
f 257 256 262
f 262 256 263
f 138 261 262
f 262 141 138
f 262 263 143
f 143 141 262
f 151 146 148
f 146 147 148
f 144 147 146
f 143 264 144
f 265 147 144
f 144 264 265
f 711 712 451
f 631 636 711
f 636 712 711
f 632 707 450
f 450 711 451
f 450 707 631
f 631 711 450
f 259 199 364
f 364 363 259
f 196 710 197
f 763 749 742
f 741 764 742
f 742 764 763
f 748 741 742
f 742 749 748
f 727 694 693
f 727 693 723
f 723 733 727
f 733 732 727
f 732 726 727
f 458 694 460
f 455 452 692
f 238 220 254
f 254 220 237
f 254 253 238
f 252 253 254
f 254 237 252
f 708 241 197
f 197 710 708
f 708 710 632
f 691 690 453
f 451 690 691
f 453 452 691
f 620 775 774
f 650 706 774
f 706 624 774
f 624 620 774
f 666 663 770
f 770 772 666
f 770 663 650
f 769 772 770
f 770 775 769
f 770 774 775
f 613 612 617
f 794 894 795
f 794 788 894
f 795 793 794
f 793 788 794
f 894 788 812
f 788 813 812
f 848 777 614
f 848 614 613
f 798 821 820
f 798 799 821
f 803 878 805
f 803 801 878
f 805 804 803
f 802 801 824
f 804 825 824
f 824 803 804
f 801 803 824
f 824 823 802
f 825 823 824
f 177 290 179
f 179 298 177
f 289 339 15
f 318 338 341
f 341 339 318
f 13 331 14
f 14 331 330
f 328 332 329
f 329 332 97
f 97 128 329
f 102 104 103
f 106 107 124
f 124 91 106
f 89 107 106
f 106 90 89
f 72 90 106
f 73 72 106
f 106 91 73
f 390 71 351
f 351 395 390
f 351 71 323
f 402 395 351
f 323 352 351
f 351 352 402
f 326 330 346
f 346 347 326
f 323 71 11
f 11 9 323
f 11 71 7
f 7 9 11
f 324 350 323
f 70 12 6
f 79 12 70
f 80 12 79
f 79 96 80
f 81 10 80
f 10 12 80
f 13 81 80
f 80 96 13
f 69 5 68
f 68 78 69
f 6 5 69
f 69 70 6
f 69 78 79
f 79 70 69
f 101 96 100
f 102 103 100
f 100 103 101
f 100 96 79
f 100 78 102
f 79 78 100
f 24 98 99
f 99 96 101
f 99 98 96
f 27 29 26
f 26 28 27
f 127 103 104
f 127 30 29
f 127 28 101
f 101 103 127
f 29 27 127
f 127 27 28
f 766 718 759
f 647 646 766
f 646 718 766
f 766 719 647
f 766 721 719
f 766 759 760
f 760 721 766
f 716 715 717
f 717 642 716
f 715 643 717
f 717 643 888
f 888 642 717
f 832 834 833
f 832 831 834
f 832 833 391
f 391 394 832
f 394 831 832
f 872 831 394
f 401 831 872
f 402 401 872
f 872 395 402
f 394 395 872
f 400 871 828
f 828 829 846
f 482 816 787
f 816 829 787
f 787 605 482
f 508 605 787
f 542 560 541
f 542 481 560
f 530 520 531
f 541 530 531
f 531 542 541
f 532 542 531
f 484 532 518
f 525 517 514
f 525 514 512
f 512 513 525
f 525 513 524
f 535 525 524
f 517 525 535
f 473 516 523
f 516 517 523
f 523 478 473
f 359 360 658
f 658 357 359
f 658 360 1
f 1 120 658
f 360 359 1
f 56 120 1
f 365 201 260
f 366 365 260
f 260 129 366
f 260 201 200
f 200 261 260
f 260 261 130
f 130 129 260
f 526 544 524
f 526 546 544
f 524 513 526
f 536 546 526
f 526 527 536
f 512 510 511
f 511 513 512
f 511 526 513
f 527 526 511
f 536 527 547
f 547 548 536
f 549 548 547
f 547 538 549
f 564 581 565
f 565 567 564
f 545 567 565
f 565 553 545
f 563 562 543
f 563 565 581
f 563 561 562
f 581 561 563
f 543 553 563
f 553 565 563
f 676 688 689
f 688 496 689
f 491 493 490
f 490 562 491
f 488 552 490
f 490 552 562
f 504 503 492
f 492 493 504
f 492 503 489
f 492 490 493
f 492 489 488
f 488 490 492
f 487 499 479
f 480 489 487
f 487 478 480
f 479 478 487
f 489 503 500
f 500 487 489
f 499 487 500
f 502 499 500
f 500 577 502
f 503 577 500
f 445 698 699
f 744 750 756
f 750 765 756
f 756 765 678
f 678 680 756
f 576 501 502
f 502 682 576
f 579 498 501
f 501 680 579
f 579 680 678
f 177 286 134
f 134 290 177
f 286 288 134
f 321 288 320
f 321 134 288
f 290 134 321
f 322 354 320
f 336 354 322
f 320 288 322
f 285 288 286
f 285 286 284
f 284 243 285
f 285 242 133
f 411 408 409
f 411 413 206
f 418 185 186
f 186 438 418
f 226 185 184
f 284 173 283
f 170 281 283
f 283 173 170
f 291 165 164
f 291 164 163
f 163 162 291
f 291 274 275
f 291 162 274
f 856 415 855
f 415 854 855
f 595 856 855
f 855 583 595
f 855 854 583
f 223 242 207
f 223 207 206
f 207 242 244
f 244 285 243
f 242 285 244
f 20 23 181
f 23 298 181
f 181 179 180
f 298 179 181
f 170 173 171
f 171 173 172
f 171 151 164
f 171 298 151
f 164 165 166
f 166 167 164
f 165 168 166
f 166 168 167
f 174 172 175
f 175 178 174
f 174 178 298
f 174 171 172
f 298 171 174
f 414 601 860
f 601 862 860
f 404 862 405
f 405 403 404
f 404 860 862
f 403 333 404
f 404 413 414
f 414 860 404
f 313 413 404
f 404 333 313
f 406 604 861
f 559 571 572
f 571 587 572
f 551 559 572
f 572 587 558
f 558 550 572
f 550 551 572
f 601 600 602
f 602 586 569
f 602 600 599
f 599 586 602
f 603 604 601
f 603 587 604
f 601 602 603
f 340 342 344
f 344 342 343
f 344 343 328
f 328 329 344
f 344 128 340
f 344 329 128
f 633 641 767
f 641 722 767
f 767 722 720
f 767 762 633
f 720 762 767
f 640 902 639
f 639 720 640
f 720 722 640
f 903 902 884
f 884 641 903
f 884 722 641
f 902 640 884
f 884 640 722
f 216 233 234
f 234 190 216
f 191 190 234
f 217 192 234
f 234 192 191
f 251 269 268
f 251 250 269
f 268 267 251
f 251 267 235
f 249 233 248
f 248 250 249
f 249 234 233
f 249 251 235
f 250 251 249
f 249 235 217
f 217 234 249
f 156 153 154
f 153 150 154
f 268 269 154
f 154 269 156
f 293 267 268
f 268 154 293
f 293 154 150
f 293 266 252
f 252 267 293
f 152 153 151
f 152 150 153
f 151 148 149
f 149 148 147
f 149 152 151
f 150 152 149
f 149 265 266
f 149 147 265
f 266 293 149
f 149 293 150
f 145 296 143
f 146 296 145
f 143 144 145
f 145 144 146
f 273 271 232
f 232 231 273
f 273 230 247
f 273 231 230
f 247 274 273
f 274 292 273
f 273 292 272
f 272 271 273
f 188 187 419
f 188 211 187
f 419 438 188
f 438 186 188
f 421 437 422
f 422 424 588
f 588 421 422
f 589 426 590
f 590 573 589
f 687 573 590
f 445 464 465
f 465 446 445
f 464 192 465
f 219 220 195
f 195 218 219
f 199 259 258
f 200 199 258
f 240 257 258
f 258 257 200
f 197 240 258
f 258 196 197
f 361 710 362
f 710 196 362
f 458 460 459
f 695 460 694
f 695 726 696
f 695 727 726
f 694 727 695
f 692 449 457
f 457 455 692
f 457 449 458
f 458 459 457
f 454 691 452
f 451 691 454
f 454 450 451
f 238 241 221
f 221 220 238
f 221 455 220
f 221 454 452
f 241 454 221
f 452 455 221
f 650 774 768
f 768 770 650
f 774 770 768
f 609 617 782
f 613 617 609
f 782 608 609
f 609 608 779
f 781 792 780
f 781 617 792
f 781 780 782
f 782 617 781
f 618 612 619
f 618 617 612
f 618 619 622
f 610 792 618
f 792 617 618
f 622 621 618
f 621 610 618
f 814 815 894
f 894 812 814
f 811 815 814
f 814 813 811
f 814 812 813
f 652 777 654
f 777 848 654
f 876 901 654
f 654 848 876
f 876 848 611
f 611 848 613
f 613 609 611
f 796 798 820
f 796 820 819
f 819 793 796
f 796 793 795
f 795 797 796
f 797 798 796
f 800 799 850
f 799 798 850
f 850 798 797
f 893 800 850
f 850 797 893
f 317 179 290
f 290 318 317
f 289 180 317
f 180 179 317
f 317 339 289
f 317 318 339
f 16 15 353
f 353 17 18
f 18 16 353
f 353 15 339
f 340 17 353
f 353 339 340
f 19 15 16
f 19 180 289
f 289 15 19
f 337 338 319
f 338 318 319
f 320 337 319
f 319 321 320
f 319 318 290
f 290 321 319
f 327 81 13
f 13 14 327
f 327 14 330
f 330 326 327
f 8 9 10
f 323 9 8
f 8 324 323
f 82 10 81
f 82 8 10
f 324 8 82
f 349 326 347
f 324 82 349
f 101 28 25
f 25 99 101
f 24 99 25
f 26 24 25
f 25 28 26
f 126 127 104
f 126 125 32
f 126 104 125
f 30 127 126
f 32 31 126
f 31 30 126
f 846 831 830
f 830 828 846
f 830 831 401
f 830 401 400
f 400 828 830
f 399 397 398
f 398 397 869
f 469 398 869
f 869 864 469
f 518 532 519
f 532 531 519
f 519 531 520
f 519 520 470
f 470 606 519
f 519 606 518
f 476 484 518
f 476 606 810
f 518 606 476
f 817 816 482
f 811 816 817
f 482 481 817
f 484 476 486
f 483 542 532
f 532 484 483
f 481 542 483
f 483 817 481
f 524 544 534
f 534 535 524
f 534 544 543
f 533 535 534
f 543 552 534
f 534 552 533
f 517 535 522
f 522 523 517
f 522 535 533
f 478 523 522
f 533 480 522
f 480 478 522
f 358 359 357
f 358 356 118
f 358 357 356
f 358 1 359
f 118 54 358
f 358 54 56
f 56 1 358
f 528 510 521
f 528 511 510
f 700 699 701
f 700 701 443
f 443 444 700
f 444 442 700
f 702 701 728
f 728 687 702
f 701 699 728
f 728 685 687
f 729 685 728
f 730 737 736
f 736 729 730
f 591 685 575
f 575 573 591
f 591 573 687
f 684 682 683
f 684 736 682
f 684 685 729
f 729 736 684
f 574 577 575
f 575 685 574
f 685 684 574
f 683 577 574
f 574 684 683
f 578 680 501
f 501 576 578
f 682 680 681
f 681 576 682
f 680 578 681
f 681 578 576
f 679 579 678
f 679 678 676
f 676 689 679
f 498 579 679
f 496 498 679
f 679 689 496
f 222 316 182
f 222 223 132
f 182 242 222
f 242 223 222
f 314 316 335
f 314 335 336
f 182 316 314
f 336 322 314
f 314 322 133
f 312 222 132
f 316 222 312
f 312 223 206
f 132 223 312
f 206 313 312
f 313 333 312
f 335 316 334
f 334 312 333
f 316 312 334
f 334 333 403
f 403 311 334
f 287 322 288
f 133 322 287
f 288 285 287
f 287 285 133
f 183 411 206
f 410 412 413
f 413 411 410
f 410 411 409
f 409 599 410
f 599 412 410
f 415 184 416
f 416 184 185
f 853 854 416
f 416 854 415
f 416 865 853
f 866 865 416
f 416 418 866
f 416 185 418
f 415 407 209
f 209 184 415
f 228 186 185
f 211 188 228
f 228 188 186
f 170 171 169
f 169 168 170
f 167 168 169
f 164 167 169
f 169 171 164
f 406 861 863
f 863 861 864
f 863 864 396
f 396 403 863
f 863 403 406
f 558 587 570
f 570 602 569
f 587 603 570
f 570 603 602
f 570 557 558
f 569 557 570
f 189 423 436
f 436 437 189
f 424 422 436
f 436 422 437
f 589 424 425
f 425 426 589
f 424 436 425
f 425 436 423
f 428 426 425
f 425 423 428
f 215 189 214
f 215 423 189
f 428 423 215
f 215 190 428
f 214 190 215
f 703 428 443
f 703 429 428
f 443 702 703
f 427 426 428
f 428 429 427
f 427 590 426
f 193 192 218
f 193 465 192
f 218 195 193
f 361 362 198
f 198 362 196
f 198 363 361
f 198 259 363
f 198 258 259
f 196 258 198
f 462 459 460
f 696 447 462
f 462 695 696
f 460 695 462
f 456 459 461
f 456 457 459
f 461 195 456
f 220 455 456
f 455 457 456
f 241 708 709
f 709 454 241
f 709 708 632
f 632 450 709
f 450 454 709
f 652 654 653
f 653 654 901
f 849 609 779
f 849 611 609
f 779 607 849
f 849 607 876
f 876 611 849
f 299 181 180
f 180 19 299
f 20 181 299
f 299 16 20
f 299 19 16
f 348 349 347
f 302 350 348
f 350 324 348
f 324 349 348
f 348 301 302
f 348 347 301
f 325 327 326
f 326 349 325
f 81 327 325
f 325 82 81
f 325 349 82
f 829 828 870
f 870 469 829
f 398 469 870
f 399 398 870
f 870 871 399
f 870 828 871
f 507 787 829
f 829 469 507
f 508 787 507
f 811 817 485
f 485 486 811
f 484 486 485
f 485 483 484
f 817 483 485
f 809 476 810
f 809 486 476
f 811 486 809
f 809 815 811
f 810 815 809
f 521 520 529
f 529 528 521
f 529 520 530
f 445 699 441
f 699 700 441
f 441 464 445
f 441 442 464
f 441 700 442
f 730 729 731
f 729 728 731
f 731 728 699
f 731 699 698
f 731 698 697
f 731 726 730
f 697 726 731
f 682 736 743
f 743 680 682
f 743 756 680
f 744 756 743
f 743 737 744
f 743 736 737
f 687 685 686
f 686 591 687
f 685 591 686
f 310 311 403
f 309 335 310
f 310 403 309
f 335 334 310
f 310 334 311
f 182 314 315
f 315 314 133
f 315 242 182
f 133 242 315
f 207 209 131
f 131 407 408
f 131 209 407
f 206 207 131
f 131 183 206
f 408 411 131
f 411 183 131
f 208 209 207
f 207 244 208
f 208 244 224
f 226 184 208
f 184 209 208
f 210 228 185
f 210 185 226
f 245 246 229
f 229 211 245
f 211 228 245
f 245 210 227
f 228 210 245
f 227 278 245
f 275 246 277
f 277 168 165
f 277 291 275
f 165 291 277
f 281 278 280
f 280 283 281
f 429 703 704
f 704 703 702
f 702 687 704
f 465 193 463
f 463 462 447
f 447 446 463
f 446 465 463
f 448 195 461
f 448 193 195
f 448 463 193
f 461 459 448
f 459 462 448
f 462 463 448
f 194 195 220
f 220 456 194
f 194 456 195
f 655 652 778
f 652 653 778
f 778 901 655
f 778 653 901
f 508 507 506
f 506 507 469
f 506 861 604
f 864 861 506
f 506 469 864
f 506 571 508
f 506 604 571
f 539 529 530
f 530 540 539
f 539 540 538
f 528 529 539
f 246 245 276
f 276 245 278
f 276 277 246
f 278 277 276
f 279 278 281
f 279 277 278
f 168 277 279
f 279 281 170
f 170 168 279
f 225 278 227
f 225 280 278
f 226 208 225
f 225 208 224
f 225 210 226
f 227 210 225
f 283 280 282
f 282 243 284
f 284 283 282
f 282 244 243
f 224 244 282
f 282 225 224
f 280 225 282
f 705 427 429
f 429 704 705
f 590 427 705
f 687 590 705
f 705 704 687
f 528 539 537
f 537 547 527
f 538 547 537
f 537 539 538
f 527 511 537
f 511 528 537
f 657 658 675
f 662 661 675
f 669 656 675
f 664 668 675
f 675 665 664
f 675 656 657
f 671 663 675
f 675 660 670
f 670 672 675
f 675 667 662
f 661 665 675
f 675 673 671
f 666 674 675
f 675 663 666
f 675 658 659
f 659 660 675
f 674 667 675
f 675 672 673

