# https://github.com/mikedh/trimesh
v 0.01699795 -0.02271021 -0.03590540
v 0.06894296 -0.01787089 -0.04126877
v 0.06894319 -0.01693462 -0.04162990
v 0.06893825 -0.03058350 -0.02965343
v 0.06893930 -0.02902883 -0.03220390
v 0.06893954 -0.02851989 -0.03291963
v 0.06894023 -0.02723411 -0.03453028
v 0.06894118 -0.02520056 -0.03662490
v 0.06894138 -0.02458679 -0.03716935
v 0.06894172 -0.02317567 -0.03829279
v 0.06894192 -0.02226172 -0.03893532
v 0.06894244 -0.01976444 -0.04040091
v 0.06893625 -0.03298074 -0.02378335
v 0.06893664 -0.03264746 -0.02484834
v 0.06689692 -0.00710203 0.02451917
v 0.06690019 -0.00719166 0.02451509
v 0.06689698 0.00356883 0.02451920
v 0.00164473 -0.02271019 0.02977511
v -0.00822908 -0.02271019 -0.02866260
v -0.00502209 -0.02271018 0.02939457
v -0.01727857 -0.02271019 0.02430459
v -0.02225365 -0.02271019 0.01985038
v -0.02866259 -0.02271019 0.00822908
v -0.02977511 -0.02271019 0.00164473
v -0.02754007 -0.02271018 -0.01143708
v -0.02430458 -0.02271018 -0.01727858
v -0.01985037 -0.02271018 -0.02225365
v -0.01440078 -0.02271019 -0.02611283
v 0.04371719 -0.02224472 -0.04110561
v 0.03830643 -0.02435216 -0.04027779
v 0.03898528 -0.02417790 -0.04037978
v 0.04154002 -0.02332522 -0.04076382
v 0.01699767 -0.02571061 -0.03590537
v 0.03496380 -0.02498760 -0.03976116
v 0.03056603 -0.02544199 -0.03901365
v 0.02773036 -0.02559108 -0.03847635
v 0.02336662 -0.02569173 -0.03754447
v 0.06892937 -0.03374459 -0.00027827
v 0.06892917 -0.03351684 0.00083055
v 0.06892914 -0.03260875 0.00422647
v 0.06893015 -0.03144570 0.00726394
v 0.06893116 -0.03031594 0.00946486
v 0.06893259 -0.02879352 0.01174531
v 0.06893347 -0.02524459 0.01537294
v 0.06893323 -0.03461594 -0.01370009
v 0.06893261 -0.03470968 -0.01112556
v 0.06893124 -0.03459221 -0.00683360
v 0.06893057 -0.03438666 -0.00452331
v 0.06893322 -0.02700390 0.01379396
v 0.06893332 -0.02650156 0.01428158
v 0.06893374 -0.03447103 -0.01556280
v 0.04714078 -0.03458010 -0.01425388
v 0.06893449 -0.03418662 -0.01797225
v 0.04714261 -0.03374482 -0.02063325
v 0.06893522 -0.03374468 -0.02062683
v 0.06694820 -0.00745624 0.02445443
v 0.00438960 -0.03231248 0.01528934
v -0.01019612 -0.02817819 -0.02361638
v -0.00244364 -0.03460903 -0.00235795
v 0.00000015 -0.03471630 0.00000049
v -0.00174999 -0.03460906 -0.00291008
v -0.00297076 -0.03460900 -0.00164510
v -0.00329542 -0.03460896 -0.00082011
v -0.00326417 -0.03460885 0.00093759
v 0.00102281 -0.03428807 0.00669475
v 0.00023813 -0.03302471 0.01338706
v 0.00012052 -0.03428808 0.00677135
v 0.00202204 -0.03302469 0.01323561
v 0.00298047 -0.03096992 0.01950933
v 0.00006051 -0.03460865 0.00339603
v 0.00112082 -0.03456061 0.00390391
v -0.00082039 -0.03460867 0.00329595
v -0.00331538 -0.02571011 0.02963563
v -0.00075280 -0.03428810 0.00673043
v -0.00148850 -0.03302473 0.01330617
v 0.00035095 -0.03096993 0.01973256
v -0.00163605 -0.03428812 0.00657180
v 0.00223211 -0.03410334 0.00777461
v 0.00332462 -0.03334980 0.01157990
v 0.00164473 -0.02571011 0.02977511
v 0.00045741 -0.02817755 0.02571943
v -0.00285987 -0.02817757 0.02556402
v -0.00219413 -0.03096996 0.01961333
v -0.00476813 -0.03096999 0.01915102
v -0.00323475 -0.03302477 0.01299253
v -0.00489590 -0.03302480 0.01246191
v -0.00247625 -0.03428815 0.00630341
v -0.00328113 -0.03428818 0.00592442
v 0.00388474 -0.02817755 0.02542847
v -0.00164539 -0.03460871 0.00297130
v -0.00502209 -0.02571012 0.02939458
v -0.00720470 -0.02571011 0.02893708
v -0.00940630 -0.02817761 0.02394199
v -0.00721669 -0.03097003 0.01836888
v -0.00648719 -0.03302485 0.01171260
v -0.00796652 -0.03302491 0.01076115
v -0.00402937 -0.03428821 0.00544318
v -0.00470259 -0.03428826 0.00487331
v -0.01546213 -0.03097025 0.01226446
v -0.01370478 -0.03097018 0.01420120
v -0.01786292 -0.02817771 0.01850982
v -0.01727857 -0.02571013 0.02430460
v -0.01530572 -0.02817767 0.02067443
v -0.01444868 -0.02571013 0.02608636
v -0.01143708 -0.02571012 0.02754007
v -0.01246357 -0.02817764 0.02250238
v -0.00956228 -0.03097008 0.01726438
v -0.01174285 -0.03097013 0.01586193
v -0.00530561 -0.03428830 0.00420874
v -0.00235824 -0.03460875 0.00244418
v -0.00291037 -0.03460880 0.00175052
v -0.00621728 -0.03428839 0.00268462
v -0.01691332 -0.03097032 0.01017024
v -0.01147426 -0.03302510 0.00689981
v -0.02015346 -0.02817775 0.01598547
v -0.02225364 -0.02571015 0.01985038
v -0.02070800 -0.02571014 0.02145790
v -0.00580356 -0.03428835 0.00349012
v -0.01048975 -0.03302503 0.00832057
v -0.00929753 -0.03302497 0.00963448
v -0.00621484 -0.02817759 0.02496144
v -0.02204493 -0.02817778 0.01325585
v -0.02611282 -0.02571016 0.01440079
v -0.02361641 -0.02817783 0.01019617
v -0.01896923 -0.03097045 0.00544621
v -0.01286903 -0.03302524 0.00369494
v -0.01323535 -0.03302531 0.00202219
v -0.00677092 -0.03428854 0.00012075
v -0.00669431 -0.03428849 0.00102304
v -0.02977510 -0.02571019 0.00164473
v -0.00657136 -0.03428862 -0.00163582
v -0.01299226 -0.03302551 -0.00323461
v -0.01330591 -0.03302545 -0.00148836
v -0.01961320 -0.03097066 -0.00219406
v -0.02947849 -0.02571019 0.00450346
v -0.01950920 -0.03097052 0.00298054
v -0.00673000 -0.03428859 -0.00075257
v -0.00339550 -0.03460890 0.00006080
v -0.02754006 -0.02571022 -0.01143708
v -0.02394195 -0.02817807 -0.00940628
v -0.00592398 -0.03428871 -0.00328089
v -0.02556397 -0.02817800 -0.00285985
v -0.02571937 -0.02817796 0.00045743
v -0.00630299 -0.03428867 -0.00247602
v -0.01338679 -0.03302538 0.00023828
v -0.01973243 -0.03097059 0.00035103
v -0.02542842 -0.02817791 0.00388476
v -0.02472463 -0.02817787 0.00709852
v -0.02866260 -0.02571018 0.00822908
v -0.02336336 -0.02571015 0.01853148
v -0.01811899 -0.03097038 0.00782279
v -0.01229220 -0.03302516 0.00530725
v -0.00650904 -0.03428844 0.00186912
v -0.02250233 -0.02817810 -0.01246354
v -0.02608635 -0.02571022 -0.01444867
v -0.02067439 -0.02817813 -0.01530570
v -0.02430459 -0.02571023 -0.01727857
v -0.02145788 -0.02571023 -0.02070799
v -0.01850977 -0.02817816 -0.01786289
v -0.01985038 -0.02571023 -0.02225364
v -0.01853147 -0.02571023 -0.02336336
v -0.01325580 -0.02817819 -0.02204491
v -0.01440078 -0.02571024 -0.02611282
v -0.01182010 -0.02571023 -0.02737786
v -0.00734425 -0.02768280 -0.02558066
v -0.00822907 -0.02571024 -0.02866259
v -0.00782266 -0.03097098 -0.01811891
v -0.01598542 -0.02817818 -0.02015343
v -0.01226433 -0.03097094 -0.01546206
v -0.01420107 -0.03097091 -0.01370471
v -0.01017012 -0.03097097 -0.01691324
v -0.00689954 -0.03302577 -0.01147412
v -0.00832030 -0.03302575 -0.01048961
v -0.00963423 -0.03302571 -0.00929739
v -0.01586181 -0.03097087 -0.01174278
v -0.01726425 -0.03097082 -0.00956221
v -0.00530699 -0.03302578 -0.01229206
v -0.00268419 -0.03428881 -0.00621704
v -0.00348970 -0.03428880 -0.00580333
v -0.00420830 -0.03428879 -0.00530537
v -0.02939456 -0.02571020 -0.00502209
v -0.02893708 -0.02571021 -0.00720470
v -0.02496140 -0.02817804 -0.00621482
v -0.01076089 -0.03302567 -0.00796638
v -0.00544275 -0.03428874 -0.00402913
v -0.00487288 -0.03428876 -0.00470235
v -0.00112080 -0.03456063 -0.00390386
v -0.00223209 -0.03410337 -0.00777457
v -0.00332459 -0.03334985 -0.01157986
v -0.02963563 -0.02571020 -0.00331537
v -0.01915089 -0.03097072 -0.00476806
v -0.01246164 -0.03302557 -0.00489576
v -0.01836874 -0.03097078 -0.00721663
v -0.01171233 -0.03302563 -0.00648705
v -0.00541906 -0.03100820 -0.01887506
v 0.00822909 -0.02571010 0.02866260
v 0.00640596 -0.02945711 0.02231252
v 0.02522721 -0.03477544 -0.00724204
v 0.02381708 -0.03452985 -0.01215423
v 0.02241969 -0.03379807 -0.01702119
v 0.02155338 -0.03309141 -0.02003811
v -0.00369455 -0.03302420 -0.01286848
v 0.02033764 -0.03175656 -0.02427176
v -0.00438958 -0.03231254 -0.01528930
v -0.00709841 -0.02817775 -0.02472438
v 0.01806907 -0.02807455 -0.03217453
v -0.00640595 -0.02945722 -0.02231249
v 0.02158431 -0.02570532 -0.03712181
v 0.06893724 -0.03192851 -0.02679622
v 0.03684724 -0.02556359 -0.03932477
v 0.03027515 -0.02701553 -0.03706596
v 0.02368639 -0.02784275 -0.03424899
v 0.01920124 -0.03011954 -0.02822965
v 0.02846798 -0.03380096 -0.01871082
v 0.03147880 -0.03319539 -0.02231958
v 0.03460594 -0.03378008 -0.02003584
v 0.04086318 -0.03375329 -0.02055885
v 0.03113632 -0.03192956 -0.02687451
v 0.04498668 -0.03312902 -0.02353654
v 0.03791392 -0.03200010 -0.02766199
v 0.03080359 -0.03027774 -0.03124507
v 0.03760067 -0.03036556 -0.03214296
v 0.04469607 -0.03184520 -0.02827175
v 0.03046038 -0.02821302 -0.03526417
v 0.03743523 -0.02937109 -0.03422334
v 0.04423609 -0.02906465 -0.03483344
v 0.04439875 -0.03012578 -0.03277263
v 0.03725794 -0.02824512 -0.03614539
v 0.04363323 -0.02491846 -0.03967200
v 0.04338335 -0.02320522 -0.04070634
v 0.05061532 -0.02561424 -0.03836782
v 0.04385817 -0.02647028 -0.03833609
v 0.03706355 -0.02697853 -0.03786230
v 0.05851400 -0.03285473 -0.02439384
v 0.03007396 -0.02570165 -0.03867482
v 0.04405760 -0.02785021 -0.03670575
v 0.05082338 -0.02712709 -0.03681294
v 0.05100853 -0.02847156 -0.03501760
v 0.05147172 -0.03157796 -0.02865952
v 0.02952816 -0.03453178 -0.01372701
v 0.03059586 -0.03477716 -0.00870590
v 0.03604047 -0.03475570 -0.00984201
v 0.03532149 -0.03450994 -0.01495224
v 0.04121853 -0.03448149 -0.01547982
v -0.02939458 -0.02271018 -0.00502209
v -0.02611282 -0.02271019 0.01440078
v -0.02737786 -0.02571017 0.01182010
v -0.01143708 -0.02271018 0.02754006
v 0.00450345 -0.02571011 0.02947849
v 0.05115095 -0.00727552 -0.04540610
v 0.05117496 -0.00705753 -0.04543024
v 0.06699587 -0.00753925 -0.04532529
v 0.06691708 -0.00710217 -0.04542571
v 0.05117500 0.00347991 -0.04543028
v 0.06694862 -0.00738033 -0.04538621
v 0.05117198 0.00356115 -0.04542686
v 0.05112429 0.00381611 -0.04537181
v 0.06691707 0.00356870 -0.04542569
v 0.06698633 0.00397807 -0.04533810
v 0.05100888 0.00407484 -0.04523283
v 0.06892728 0.02662724 0.00639994
v 0.06892695 0.02630183 0.00693565
v 0.06892395 0.01625174 0.01719867
v 0.06892397 0.01537660 0.01774815
v 0.06892518 0.01896657 0.01523088
v 0.06892411 0.01704582 0.01666602
v 0.06892671 0.02374744 0.01049934
v 0.06892714 0.02238930 0.01204888
v 0.06892705 0.02146823 0.01299693
v 0.06892565 0.01953343 0.01476380
v 0.06892651 0.02439139 0.00969112
v 0.06892914 0.02792302 0.00399957
v 0.06893008 0.02861199 0.00249129
v 0.06893013 0.02958715 -0.00008743
v 0.06893029 0.02924703 0.00088834
v 0.06893367 0.03125531 -0.01000126
v 0.06893233 0.03116290 -0.00794473
v 0.06893136 0.03103577 -0.00662715
v 0.06892984 0.03047782 -0.00331996
v 0.06893393 0.03125327 -0.01103461
v 0.06893359 0.03106882 -0.01398371
v 0.06893354 0.03102376 -0.01437970
v 0.06893399 0.03045556 -0.01768516
v 0.06893755 0.02847697 -0.02370858
v 0.06893689 0.02920189 -0.02191620
v 0.06893618 0.02954588 -0.02094173
v 0.06893741 0.02787808 -0.02499675
v 0.06893697 0.02662717 -0.02730541
v 0.06893818 0.02431145 -0.03069968
v 0.06893989 0.02262040 -0.03270403
v 0.06894056 0.02139548 -0.03397401
v 0.06893987 0.01614221 -0.03817490
v 0.06893970 0.01704571 -0.03757145
v 0.06893993 0.01888690 -0.03620020
v 0.06894082 0.01419713 -0.03933565
v 0.06894053 0.01472272 -0.03903970
v 0.05113516 0.00369147 0.02449192
v 0.05105482 0.00394916 0.02439718
v 0.06692246 0.00381882 0.02448738
v 0.05102525 0.00401066 0.02436138
v 0.06699685 0.00405745 0.02439183
v 0.04913480 0.02662723 0.00639425
v 0.04914842 0.01084170 -0.04095075
v 0.04914746 0.01704570 -0.03757715
v 0.04914611 0.02238919 -0.03296002
v 0.04914450 0.02662716 -0.02731111
v 0.06893697 0.02624779 -0.02792778
v 0.06893884 0.02366435 -0.03150529
v 0.04913862 0.03106883 -0.00692747
v 0.04913664 0.02956531 -0.00002746
v 0.04913186 0.01704581 0.01666034
v 0.04913318 0.02238928 0.01204319
v 0.04914263 0.02956527 -0.02088940
v 0.04914065 0.03106881 -0.01398940
v 0.09791682 -0.02509082 -0.02772981
v 0.09791683 -0.02700199 -0.02491602
v 0.09791683 -0.02857358 -0.02189937
v 0.09791683 -0.02978433 -0.01872068
v 0.09791683 -0.03061786 -0.01542292
v 0.09791683 -0.03106292 -0.01205069
v 0.09791683 -0.03111347 -0.00864959
v 0.09791683 -0.03076885 -0.00526562
v 0.09791681 -0.02743672 0.00433076
v 0.09791682 -0.02561003 0.00720011
v 0.09791682 -0.02346257 0.00983800
v 0.09791681 -0.02102339 0.01220875
v 0.09791683 -0.01832549 0.01428029
v 0.09791683 -0.01540533 0.01602462
v 0.09791683 -0.01230241 0.01741814
v 0.09791683 -0.00905869 0.01844202
v 0.09791683 -0.00571804 0.01908240
v 0.09791681 0.00107264 0.01918335
v 0.09791681 0.00443085 0.01864254
v 0.09791683 0.00770356 0.01771552
v 0.09791683 0.01084653 0.01641483
v 0.09791682 0.01381724 0.01475807
v 0.09791683 0.01908409 0.01047042
v 0.09791682 0.02130900 0.00789753
v 0.09791683 0.02322017 0.00508373
v 0.09791682 0.02600251 -0.00111160
v 0.09791681 0.02683605 -0.00440936
v 0.09791681 0.02728110 -0.00778159
v 0.09791681 0.02733165 -0.01118269
v 0.09791683 0.02698703 -0.01456667
v 0.09791682 0.02625187 -0.01788774
v 0.09791682 0.02513613 -0.02110101
v 0.09791683 0.02365490 -0.02416304
v 0.09791682 0.02182820 -0.02703239
v 0.09791682 0.01968075 -0.02967028
v 0.09791683 0.01724158 -0.03204103
v 0.09791681 0.01162350 -0.03585690
v 0.09791681 0.00852059 -0.03725042
v 0.09791681 0.00193622 -0.03891468
v 0.09791681 -0.00145618 -0.03916291
v 0.10000002 -0.00218516 0.01008165
v 0.10000001 0.00346091 0.00935534
v 0.09999999 0.01786403 -0.00677593
v 0.10000001 0.01303075 0.00340427
v 0.10000000 0.00917378 -0.02657865
v 0.10000000 0.01342007 -0.02278726
v 0.10000000 -0.00159065 -0.02991393
v 0.10000000 -0.01995505 -0.01849391
v 0.10000000 -0.01680657 -0.02323656
v 0.09999999 -0.01244947 -0.02690006
v 0.09999999 -0.02163985 -0.01305635
v 0.10000000 -0.00780715 0.00918785
v 0.10000001 -0.01294959 0.00674636
v 0.10000001 -0.01719589 0.00295497
v 0.10000000 -0.00723672 -0.02918763
v 0.09999999 -0.02172446 -0.00736438
v 0.10000000 -0.02020202 -0.00187915
v 0.09999999 0.00867365 0.00706778
v 0.10000002 0.01617924 -0.00133837
v 0.09999999 0.01794864 -0.01246789
v 0.09999999 0.01642620 -0.01795313
v 0.10000001 0.00403133 -0.02902014
v 0.09891681 0.00097132 0.01818849
v 0.09891681 -0.01419288 -0.03534691
v 0.09891682 -0.00799654 -0.03749845
v 0.09891681 -0.00147104 -0.03816301
v 0.09891682 0.00503182 -0.03730479
v 0.09891681 -0.00231078 0.01833074
v 0.09891681 -0.00558721 0.01809100
v 0.09891681 -0.01776362 0.01345306
v 0.09891681 0.02236167 0.00457092
v 0.09891684 0.01658747 -0.03128462
v 0.09891683 0.02101730 -0.02644723
v 0.09891682 -0.02272508 0.00916264
v 0.09891681 -0.02656336 0.00384369
v 0.09891681 -0.02907154 -0.00221707
v 0.09891683 -0.03011441 -0.00869289
v 0.09891684 -0.02963574 -0.01523465
v 0.09891681 -0.02766135 -0.02148969
v 0.09891682 -0.02429766 -0.02712079
v 0.09891682 -0.01972602 -0.03182439
v 0.09791681 0.00527687 -0.03827430
v 0.09891682 0.01116147 -0.03497004
v 0.09791681 0.01454366 -0.03411257
v 0.09891682 0.02421213 -0.02071863
v 0.09891681 0.02599975 -0.01440767
v 0.09891681 0.02628377 -0.00785457
v 0.09891681 0.02504889 -0.00141261
v 0.09791681 0.02479175 0.00206709
v 0.09891682 0.01836700 0.00977345
v 0.09791682 0.01657553 0.01276763
v 0.09891681 0.01328021 0.01391451
v 0.09891682 0.00737554 0.01677085
v 0.09791683 -0.00232564 0.01933063
v 0.09891683 -0.01194646 0.01648364
v 0.09791683 -0.02891795 0.00126874
v 0.09791683 -0.03003369 -0.00194454
v 0.09791682 -0.02286591 -0.03030270
v 0.09791682 -0.02035735 -0.03259990
v 0.09791683 -0.01759906 -0.03459035
v 0.09791682 -0.01462835 -0.03624711
v 0.09791681 -0.01148538 -0.03754780
v 0.09791683 -0.00821267 -0.03847482
v 0.09791683 -0.00485446 -0.03901562
f 302 310 22
f 1 19 254
f 345 283 344
f 277 342 276
f 302 22 21
f 22 117 21
f 19 1 33
f 33 1 254
f 318 13 14
f 258 253 254
f 328 327 384
f 416 3 252
f 2 3 416
f 347 387 348
f 291 350 294
f 276 342 343
f 281 343 344
f 283 345 286
f 286 346 285
f 345 346 286
f 380 379 418
f 352 259 351
f 293 304 294
f 293 292 304
f 272 310 302
f 150 122 115
f 302 21 312
f 311 270 312
f 27 304 28
f 304 303 28
f 28 257 19
f 19 33 166
f 300 311 20
f 20 298 300
f 263 311 264
f 311 300 264
f 45 320 46
f 253 250 251
f 254 253 251
f 251 33 254
f 251 250 37
f 220 218 222
f 254 19 256
f 19 257 256
f 256 258 254
f 259 258 256
f 256 257 259
f 326 384 327
f 367 368 355
f 362 363 368
f 365 392 362
f 376 373 355
f 355 368 376
f 368 363 376
f 394 316 315
f 363 362 394
f 318 392 319
f 392 320 319
f 320 53 319
f 319 13 318
f 321 46 320
f 321 322 48
f 365 362 371
f 371 362 368
f 365 371 370
f 370 371 390
f 388 326 325
f 384 326 388
f 368 367 388
f 388 367 384
f 5 316 4
f 315 316 5
f 4 316 317
f 307 348 289
f 307 289 306
f 306 288 307
f 307 288 347
f 347 348 307
f 294 304 305
f 305 291 294
f 305 27 306
f 305 304 27
f 306 289 305
f 350 291 349
f 349 348 387
f 349 386 350
f 387 386 349
f 344 283 282
f 282 281 344
f 276 343 280
f 343 281 280
f 287 288 306
f 347 288 287
f 287 346 347
f 417 379 416
f 417 418 379
f 253 258 354
f 354 418 253
f 380 418 354
f 404 385 338
f 295 351 259
f 350 386 398
f 294 350 398
f 398 293 294
f 292 293 398
f 359 386 360
f 360 386 387
f 360 374 373
f 360 376 359
f 373 376 360
f 373 374 357
f 400 345 344
f 344 343 400
f 266 311 263
f 268 312 269
f 269 312 270
f 65 48 78
f 65 71 48
f 97 95 96
f 115 122 113
f 48 322 38
f 78 48 38
f 116 150 115
f 115 101 116
f 116 101 117
f 116 117 22
f 22 150 116
f 248 312 21
f 21 104 248
f 20 311 248
f 311 312 248
f 36 211 37
f 37 250 36
f 250 35 36
f 260 28 303
f 257 28 260
f 260 303 304
f 259 257 260
f 164 28 19
f 19 166 164
f 163 28 164
f 222 218 221
f 17 299 18
f 297 299 298
f 18 299 297
f 297 298 20
f 20 18 297
f 301 264 300
f 301 300 298
f 298 299 301
f 45 46 242
f 13 319 55
f 55 319 53
f 51 320 45
f 51 53 320
f 60 61 198
f 60 70 72
f 198 46 60
f 198 61 199
f 178 188 199
f 208 251 37
f 33 251 208
f 37 211 208
f 13 55 219
f 223 14 13
f 223 219 220
f 223 220 222
f 222 227 223
f 209 227 4
f 4 317 209
f 318 14 209
f 209 317 318
f 384 367 409
f 328 384 409
f 369 363 364
f 369 376 363
f 412 394 315
f 315 7 412
f 7 8 412
f 364 363 395
f 363 394 395
f 394 412 395
f 391 370 390
f 391 320 392
f 391 321 320
f 391 390 322
f 322 321 391
f 391 392 365
f 365 370 391
f 47 321 48
f 46 321 47
f 48 71 47
f 71 70 47
f 47 60 46
f 70 60 47
f 324 388 325
f 42 323 324
f 390 371 389
f 388 324 389
f 389 324 323
f 389 371 368
f 368 388 389
f 390 389 410
f 410 389 323
f 6 7 315
f 315 5 6
f 5 236 6
f 316 394 393
f 393 317 316
f 393 362 392
f 393 394 362
f 393 392 318
f 318 317 393
f 290 349 291
f 291 305 290
f 281 282 314
f 314 280 281
f 314 282 283
f 276 280 314
f 285 346 284
f 346 287 284
f 284 287 306
f 416 252 255
f 255 417 416
f 255 250 253
f 253 418 255
f 418 417 255
f 353 258 259
f 353 354 258
f 353 381 380
f 380 354 353
f 264 301 336
f 263 264 336
f 336 266 263
f 355 373 358
f 373 385 358
f 385 404 358
f 351 295 296
f 292 398 296
f 296 398 351
f 304 292 296
f 296 260 304
f 296 295 259
f 259 260 296
f 351 398 397
f 397 398 386
f 397 381 352
f 352 351 397
f 397 386 359
f 359 376 397
f 397 376 381
f 375 360 387
f 374 360 375
f 375 400 374
f 401 357 374
f 374 400 401
f 401 342 341
f 401 343 342
f 401 400 343
f 261 272 302
f 302 262 261
f 302 312 271
f 271 262 302
f 338 262 271
f 278 279 341
f 341 342 278
f 342 277 278
f 340 275 403
f 341 279 340
f 338 385 339
f 385 403 339
f 339 262 338
f 339 261 262
f 339 403 272
f 272 261 339
f 102 21 117
f 102 104 21
f 106 104 102
f 115 113 99
f 99 101 115
f 100 101 99
f 103 101 100
f 100 108 103
f 103 108 106
f 106 102 103
f 117 101 103
f 103 102 117
f 39 38 322
f 40 68 39
f 78 38 79
f 79 39 68
f 38 39 79
f 235 36 35
f 211 36 235
f 163 164 58
f 122 150 123
f 123 124 122
f 247 124 123
f 24 135 23
f 130 135 24
f 24 190 130
f 182 25 139
f 27 28 161
f 161 28 163
f 27 158 26
f 306 27 26
f 139 154 140
f 183 182 140
f 140 182 139
f 158 159 156
f 156 159 170
f 328 409 329
f 20 248 92
f 43 324 325
f 42 324 43
f 17 15 408
f 333 299 332
f 299 17 332
f 17 408 332
f 332 377 333
f 332 408 377
f 243 242 241
f 241 46 198
f 241 242 46
f 45 242 52
f 52 242 243
f 52 51 45
f 54 53 217
f 54 55 53
f 217 219 54
f 54 219 55
f 53 51 244
f 217 53 244
f 244 52 243
f 51 52 244
f 218 220 215
f 220 219 215
f 189 188 172
f 178 199 187
f 187 199 61
f 240 199 214
f 243 241 240
f 198 199 240
f 240 241 198
f 13 219 234
f 234 223 13
f 219 223 234
f 239 223 227
f 227 209 239
f 14 223 239
f 239 209 14
f 222 221 225
f 225 227 222
f 366 367 355
f 366 409 367
f 383 408 331
f 383 366 355
f 409 366 383
f 376 369 361
f 380 381 361
f 381 376 361
f 361 379 380
f 361 369 379
f 364 395 378
f 378 369 364
f 379 369 378
f 416 379 378
f 414 378 395
f 414 11 12
f 10 11 414
f 322 390 411
f 390 410 411
f 411 410 40
f 411 39 322
f 40 39 411
f 41 323 42
f 41 410 323
f 40 410 41
f 12 11 230
f 230 2 12
f 232 8 7
f 349 290 308
f 289 348 308
f 348 349 308
f 308 305 289
f 308 290 305
f 309 23 310
f 309 314 24
f 24 23 309
f 310 279 309
f 279 278 309
f 309 278 277
f 309 277 276
f 276 314 309
f 25 314 313
f 306 26 313
f 313 26 25
f 313 286 285
f 283 286 313
f 313 314 283
f 313 284 306
f 285 284 313
f 396 259 352
f 396 353 259
f 352 381 396
f 381 353 396
f 334 299 333
f 334 301 299
f 337 404 338
f 268 269 337
f 265 270 311
f 311 266 265
f 372 358 404
f 399 375 387
f 400 375 399
f 399 387 347
f 347 346 399
f 399 346 345
f 345 400 399
f 373 357 402
f 357 401 402
f 402 385 373
f 402 403 385
f 402 340 403
f 402 401 341
f 341 340 402
f 267 312 268
f 267 271 312
f 338 271 267
f 267 337 338
f 268 337 267
f 310 272 273
f 273 275 310
f 272 403 273
f 403 275 273
f 274 279 310
f 310 275 274
f 274 340 279
f 275 340 274
f 95 97 88
f 72 70 74
f 74 77 72
f 149 23 135
f 247 23 149
f 135 130 147
f 147 149 135
f 211 235 233
f 233 235 35
f 233 232 236
f 165 164 166
f 165 58 164
f 247 123 246
f 246 23 247
f 246 150 22
f 246 123 150
f 246 22 310
f 310 23 246
f 181 182 183
f 160 158 27
f 27 161 160
f 160 159 158
f 157 26 158
f 158 156 157
f 157 156 154
f 163 58 162
f 162 161 163
f 58 167 162
f 56 329 330
f 330 383 331
f 330 329 409
f 409 383 330
f 16 330 331
f 56 330 16
f 331 408 16
f 16 408 15
f 105 104 106
f 105 248 104
f 105 92 248
f 121 84 82
f 84 121 94
f 77 74 75
f 57 68 40
f 42 43 249
f 249 327 328
f 328 329 249
f 249 329 56
f 56 16 249
f 216 219 217
f 216 215 219
f 214 215 216
f 217 244 216
f 216 244 243
f 243 240 216
f 216 240 214
f 188 189 200
f 200 199 188
f 214 199 200
f 227 225 226
f 4 227 226
f 226 5 4
f 377 408 382
f 408 383 382
f 355 377 382
f 382 383 355
f 413 395 412
f 413 414 395
f 413 412 8
f 8 9 413
f 413 9 10
f 10 414 413
f 416 378 415
f 378 414 415
f 415 414 12
f 12 2 415
f 415 2 416
f 2 230 29
f 3 2 29
f 29 230 32
f 29 252 3
f 29 255 252
f 29 32 250
f 250 255 29
f 34 35 250
f 237 232 7
f 236 232 237
f 7 6 237
f 237 6 236
f 335 336 301
f 301 334 335
f 404 337 405
f 266 336 405
f 405 265 266
f 270 265 405
f 405 269 270
f 405 337 269
f 356 377 355
f 355 358 356
f 358 372 356
f 96 108 120
f 120 108 100
f 176 140 154
f 72 77 87
f 211 233 228
f 228 233 236
f 236 226 228
f 228 226 225
f 203 221 218
f 218 204 203
f 212 166 33
f 212 165 166
f 33 208 212
f 207 167 58
f 25 182 245
f 182 181 245
f 24 314 245
f 245 314 25
f 245 190 24
f 245 181 190
f 155 154 139
f 155 157 154
f 139 25 155
f 25 26 155
f 26 157 155
f 161 162 168
f 168 160 161
f 159 160 168
f 171 162 167
f 171 168 162
f 171 204 172
f 167 204 171
f 93 94 121
f 93 105 106
f 92 105 93
f 93 121 92
f 95 94 107
f 96 95 107
f 107 108 96
f 106 108 107
f 107 93 106
f 94 93 107
f 77 75 85
f 85 87 77
f 66 75 74
f 78 79 66
f 66 79 68
f 66 76 75
f 68 57 66
f 57 76 66
f 82 84 83
f 75 76 83
f 84 85 83
f 83 85 75
f 73 18 20
f 49 43 325
f 325 326 49
f 201 200 189
f 201 215 214
f 214 200 201
f 218 215 201
f 201 204 218
f 238 236 5
f 5 226 238
f 238 226 236
f 32 230 229
f 229 230 11
f 229 11 10
f 232 233 210
f 210 229 232
f 210 233 35
f 35 34 210
f 336 335 406
f 404 405 406
f 406 405 336
f 406 372 404
f 90 60 72
f 90 88 97
f 72 87 90
f 90 87 88
f 64 138 60
f 60 111 64
f 129 138 64
f 64 153 129
f 64 111 112
f 112 153 64
f 119 109 120
f 100 99 119
f 119 120 100
f 179 187 61
f 61 180 179
f 178 187 179
f 179 188 178
f 172 188 179
f 179 173 172
f 180 173 179
f 174 173 180
f 170 173 174
f 61 60 59
f 60 62 59
f 59 180 61
f 128 138 129
f 128 137 138
f 138 137 63
f 60 138 63
f 63 62 60
f 147 136 148
f 149 147 148
f 148 124 247
f 247 149 148
f 143 130 190
f 143 147 130
f 195 204 167
f 195 203 204
f 221 203 195
f 167 207 195
f 224 225 221
f 221 212 224
f 211 228 224
f 224 228 225
f 224 208 211
f 224 212 208
f 165 212 205
f 58 165 205
f 205 207 58
f 172 173 169
f 169 171 172
f 169 173 170
f 168 171 169
f 170 159 169
f 159 168 169
f 84 94 86
f 86 85 84
f 86 94 95
f 87 85 86
f 95 88 86
f 88 87 86
f 78 66 67
f 67 66 74
f 67 65 78
f 71 65 67
f 67 70 71
f 67 74 70
f 18 73 80
f 80 17 18
f 80 15 17
f 80 16 15
f 80 249 16
f 91 121 82
f 82 73 91
f 92 121 91
f 20 92 91
f 91 73 20
f 196 249 43
f 43 49 196
f 44 326 196
f 196 326 327
f 327 249 196
f 50 326 44
f 50 49 326
f 44 196 50
f 50 196 49
f 69 76 57
f 41 197 69
f 69 57 40
f 40 41 69
f 202 201 189
f 204 201 202
f 32 229 31
f 250 32 31
f 10 9 231
f 231 229 10
f 232 229 231
f 231 9 8
f 8 232 231
f 407 335 334
f 407 406 335
f 333 377 407
f 407 334 333
f 377 356 407
f 407 356 372
f 372 406 407
f 120 109 98
f 98 97 96
f 96 120 98
f 110 111 60
f 60 90 110
f 110 109 111
f 110 98 109
f 110 90 97
f 97 98 110
f 109 119 118
f 112 111 118
f 111 109 118
f 151 113 122
f 122 124 151
f 194 176 184
f 180 59 186
f 186 174 180
f 186 184 174
f 185 62 141
f 185 59 62
f 185 186 59
f 184 186 185
f 141 194 185
f 194 184 185
f 192 194 141
f 137 128 145
f 131 63 137
f 213 207 221
f 221 195 213
f 213 195 207
f 206 205 212
f 207 205 206
f 206 212 221
f 221 207 206
f 81 73 82
f 81 80 73
f 82 83 81
f 81 83 76
f 172 204 177
f 204 202 177
f 177 189 172
f 177 202 189
f 229 210 30
f 30 31 229
f 30 210 34
f 30 34 250
f 250 31 30
f 175 184 176
f 175 156 170
f 170 174 175
f 174 184 175
f 154 156 175
f 175 176 154
f 137 145 133
f 133 131 137
f 132 131 133
f 133 134 132
f 129 153 126
f 132 134 191
f 191 192 132
f 146 145 136
f 143 134 146
f 146 133 145
f 134 133 146
f 146 136 147
f 147 143 146
f 142 134 143
f 142 143 190
f 183 191 142
f 142 191 134
f 142 181 183
f 190 181 142
f 62 63 144
f 63 131 144
f 141 62 144
f 144 192 141
f 132 192 144
f 144 131 132
f 249 80 89
f 80 81 89
f 42 249 89
f 89 41 42
f 89 197 41
f 89 69 197
f 76 69 89
f 89 81 76
f 125 126 151
f 125 148 136
f 124 148 125
f 125 151 124
f 136 145 127
f 127 125 136
f 126 125 127
f 129 126 127
f 127 128 129
f 127 145 128
f 113 151 152
f 151 126 152
f 152 153 112
f 152 126 153
f 192 191 193
f 193 176 194
f 194 192 193
f 140 176 193
f 183 140 193
f 193 191 183
f 113 152 114
f 114 99 113
f 114 119 99
f 114 118 119
f 112 118 114
f 114 152 112

