# https://github.com/mikedh/trimesh
v 0.03211816 -0.01812331 -0.30729350
v 0.02868662 -0.01806626 -0.31278431
v 0.03091313 -0.01810838 -0.31035823
v 0.02573675 -0.01800263 -0.31424692
v 0.02242449 -0.01742727 -0.31505033
v 0.02586485 -0.01750773 -0.31473586
v 0.02245845 -0.01792598 -0.31455022
v 0.02634436 -0.01801621 -0.31405109
v 0.03174863 -0.01812054 -0.30863807
v 0.03131554 -0.01761923 -0.31067842
v 0.02896527 -0.01757467 -0.31321132
v 0.02964999 -0.01808544 -0.31194744
v 0.03273980 -0.01263703 -0.30741289
v 0.03146781 -0.01262125 -0.31064788
v 0.02911760 -0.01257681 -0.31320876
v 0.02600385 -0.01250964 -0.31475261
v 0.02254344 -0.01242873 -0.31507275
v 0.03260469 -0.01763554 -0.30747229
v -0.03360546 -0.00152181 -0.17337191
v -0.03300111 0.02471905 -0.14421628
v -0.03322664 -0.02428159 -0.15405509
v -0.03332749 -0.02253825 -0.15908259
v -0.03341800 -0.01977001 -0.16362724
v -0.03349409 -0.01610231 -0.16748305
v -0.03355230 -0.01170137 -0.17047529
v -0.03359000 -0.00676667 -0.17246836
v -0.02497340 0.03076168 -0.15297030
v 0.03095618 0.01732914 -0.31035316
v 0.03216122 0.01731421 -0.30728844
v 0.02577981 0.01743489 -0.31424186
v 0.03262396 0.01680227 -0.30746275
v 0.03136815 0.01681801 -0.31061596
v 0.03133481 0.01681856 -0.31066886
v 0.02872969 0.01737126 -0.31277925
v 0.02901793 0.01686247 -0.31317678
v 0.02898455 0.01686315 -0.31320176
v 0.02244377 0.01701054 -0.31504077
v 0.02250153 0.01751154 -0.31454515
v 0.02588413 0.01693008 -0.31472632
v 0.03264013 0.01680225 -0.30738091
v 0.02590417 0.01692964 -0.31472066
v -0.03638584 0.01327685 -0.10515442
v -0.03635009 0.01434463 -0.10446953
v -0.03631758 0.01537703 -0.10373222
v -0.03638423 0.01308269 -0.10527126
v -0.03638394 -0.01300939 -0.10527129
v -0.03638554 -0.01320358 -0.10515444
v -0.03610293 -0.01986464 -0.10151877
v -0.03620302 -0.01838984 -0.10176762
v -0.03616915 -0.01893145 -0.10164855
v -0.03601275 -0.02093994 -0.10147848
v -0.03602493 -0.02080485 -0.10147823
v -0.03279303 -0.03296291 -0.10392922
v -0.03255073 -0.03319702 -0.10436621
v -0.03208375 -0.03354748 -0.10532306
v -0.03215600 -0.03350335 -0.10516082
v -0.02983360 -0.03381133 -0.11217511
v -0.03166504 -0.03369639 -0.10646003
v -0.02798570 -0.03389756 -0.11739754
v -0.03631823 -0.01527059 -0.10375770
v -0.03633096 -0.01485746 -0.10406103
v -0.02864294 0.03394341 -0.11559082
v -0.03076161 0.03382819 -0.10936216
v -0.03166611 0.03376821 -0.10645824
v -0.03171230 0.03376342 -0.10630883
v -0.03174616 0.03375670 -0.10620656
v -0.03207075 0.03362453 -0.10536009
v -0.03339077 0.03230165 -0.10299002
v -0.03292616 0.03289158 -0.10370456
v -0.03258815 0.03323589 -0.10429636
v -0.03247031 0.03333968 -0.10451929
v -0.03491639 0.02876913 -0.10149860
v -0.03484866 0.02904068 -0.10150757
v -0.03582495 0.02290969 -0.10148114
v -0.03534051 0.02660765 -0.10149053
v -0.03626664 0.01729373 -0.10213637
v -0.03602559 0.02087627 -0.10147712
v -0.03616290 0.01910291 -0.10163330
v -0.03612549 0.01964005 -0.10155215
v -0.03621946 0.01818673 -0.10184214
v -0.03629483 0.01439733 -0.10564083
v -0.03558244 0.02493859 -0.10148588
v -0.03613641 0.01598647 -0.10646746
v -0.03626635 -0.01721750 -0.10213912
v -0.03545529 -0.02578302 -0.10148969
v -0.03557314 -0.02493184 -0.10148737
v -0.03185887 -0.03365380 -0.10588171
v 0.06359558 0.00712422 0.01631420
v 0.06234558 -0.00002084 -0.02764794
v 0.06390739 0.00139364 0.01654637
v 0.06391962 -0.00004082 0.01655554
v 0.06342739 0.00877700 0.01618594
v 0.06235152 0.00618359 -0.02254405
v 0.06246207 0.01478596 0.01298098
v 0.06172585 0.01250858 -0.02252117
v 0.06265871 0.01383649 0.01413338
v 0.06269441 0.01365274 0.01430523
v 0.06278133 0.01318978 0.01468447
v 0.06304041 0.01166156 0.01552997
v 0.06312373 0.01111353 0.01572586
v 0.05924502 0.02499106 -0.02192078
v 0.06068102 0.01878769 -0.02248478
v 0.05933657 0.02473551 -0.02116330
v 0.05942806 0.02448029 -0.02037900
v 0.06003686 0.02279384 -0.01434768
v 0.06031149 0.02204552 -0.01107778
v 0.06059053 0.02126970 -0.00758975
v 0.06117348 0.01949886 -0.00066698
v 0.06177955 0.01745125 0.00617679
v 0.06066391 -0.00000487 -0.06215245
v 0.05879532 0.01919099 -0.06210819
v 0.04671601 0.03436623 -0.06186675
v 0.05205201 0.03265583 -0.04112815
v 0.05134797 0.03287709 -0.06195758
v 0.05056331 0.03323727 -0.06194215
v 0.05519124 0.02988300 -0.06203363
v 0.05344563 0.03157332 -0.06199896
v 0.05650096 0.02784156 -0.06205996
v 0.05748756 0.02777122 -0.04176308
v 0.05794805 0.02769483 -0.02835678
v 0.05877816 0.02614927 -0.02493739
v 0.05864424 0.02531626 -0.03649322
v 0.05906309 0.02547717 -0.02324033
v 0.05608941 0.02978756 -0.04159237
v 0.05424557 0.03141807 -0.04137687
v 0.05594147 0.03011587 -0.03267331
v 0.05716662 0.02879651 -0.03046316
v 0.05319089 0.03206204 -0.03546547
v 0.05378546 0.03172449 -0.03500913
v 0.05523569 0.03072189 -0.03359179
v 0.05114665 0.03298113 -0.03669876
v 0.04704531 0.03408932 -0.04057129
v 0.04498672 0.03433523 -0.03977890
v 0.04682652 0.03408560 -0.03840958
v 0.04992073 0.03339110 -0.03727417
v 0.05818184 -0.02546085 -0.04577078
v 0.06065688 -0.01883154 -0.02250090
v 0.06008284 -0.02263938 -0.01351188
v 0.05954870 -0.02410352 -0.01903715
v 0.05939662 -0.02452436 -0.02040008
v 0.05929483 -0.02480644 -0.02126823
v 0.05921293 -0.02503354 -0.02194230
v 0.06204912 -0.01646556 0.00937435
v 0.06170977 -0.01255376 -0.02253189
v 0.06255811 -0.01432385 0.01368372
v 0.06231968 -0.01540397 0.01204891
v 0.06224150 -0.01572788 0.01137192
v 0.06300159 -0.01189082 0.01545826
v 0.06262620 -0.01398853 0.01404797
v 0.06192825 -0.01690884 0.00804838
v 0.06187046 -0.01711753 0.00741176
v 0.06148419 -0.01846233 0.00312473
v 0.06357706 -0.00730544 0.01630110
v 0.06340779 -0.00893006 0.01617088
v 0.06382067 -0.00392391 0.01648214
v 0.06234356 -0.00622955 -0.02254933
v 0.06326274 -0.01010320 0.01599571
v 0.06085379 -0.01273779 -0.04233696
v 0.06065010 -0.00153946 -0.06215291
v 0.04700157 -0.03410010 -0.04060062
v 0.04197298 -0.03481237 -0.06180498
v 0.04274716 -0.03461809 -0.04839949
v 0.04565747 -0.03425717 -0.03902314
v 0.05110443 -0.03300049 -0.03672737
v 0.04852957 -0.03376204 -0.03784500
v 0.04809435 -0.03385769 -0.03800322
v 0.04672468 -0.03410704 -0.03845673
v 0.04642294 -0.03415264 -0.03856966
v 0.05218116 -0.03256043 -0.03613120
v 0.05201010 -0.03267255 -0.04115625
v 0.05392153 -0.03164141 -0.03488914
v 0.05420525 -0.03143740 -0.04140391
v 0.05447238 -0.03128297 -0.03438924
v 0.05591137 -0.03013696 -0.03268686
v 0.05605118 -0.02980907 -0.04161801
v 0.05657723 -0.02947101 -0.03160606
v 0.05745191 -0.02779439 -0.04178698
v 0.05836834 -0.02694771 -0.02672051
v 0.05857941 -0.02653679 -0.02578731
v 0.05702924 -0.02649697 -0.06209424
v 0.05636646 -0.02804085 -0.06208210
v 0.05514864 -0.02989096 -0.06205927
v 0.05052067 -0.03323418 -0.06197075
v 0.04766721 -0.03414946 -0.06191561
v 0.04452848 -0.03439729 -0.04083812
v 0.04540726 -0.03455907 -0.06187177
v 0.05339168 0.00308569 -0.15326600
v 0.05101754 0.01792402 -0.15321368
v 0.05166710 0.01536879 -0.15322737
v 0.05208117 0.01348820 -0.15323621
v 0.05311920 0.00675273 -0.15325919
v 0.05164739 -0.01528881 -0.15324056
v 0.05099460 -0.01784301 -0.15322907
v 0.05346045 0.00003896 -0.15326858
v 0.05318763 -0.00588555 -0.15326607
v 0.05344433 0.01894209 -0.13051602
v 0.05736230 0.01927599 -0.08493978
v 0.05846527 0.01285252 -0.08496336
v 0.05983622 0.01278809 -0.06213109
v 0.05735492 0.02552426 -0.06207756
v 0.05239274 0.02533761 -0.12376842
v 0.05081746 0.02474029 -0.13866960
v 0.05549279 0.00628484 -0.13056105
v 0.05884860 0.00000950 -0.09251501
v 0.06046218 0.00633341 -0.06214592
v 0.05748859 0.00638712 -0.10778856
v 0.05676817 0.01287745 -0.10777199
v 0.05557661 0.01929406 -0.10774636
v 0.05772033 0.00001687 -0.10779564
v 0.05471946 0.01265608 -0.13054340
v 0.04201764 0.03482627 -0.06177501
v 0.04840433 0.02863819 -0.14235814
v 0.04680156 0.03023079 -0.14238569
v 0.04955722 0.02669525 -0.14232902
v 0.05400059 0.02561823 -0.10705896
v 0.05394109 0.02561314 -0.10771223
v 0.05309834 0.02772525 -0.10800523
v 0.05500480 0.02783293 -0.08505871
v 0.05594101 0.02561061 -0.08359588
v 0.05378192 0.02977918 -0.08505613
v 0.05215841 0.03141053 -0.08504160
v 0.05018036 0.03270479 -0.08501446
v 0.04552669 0.03434135 -0.08492730
v 0.03812713 0.03279359 -0.14655615
v 0.04014572 0.03280488 -0.14236294
v 0.03628843 0.03316273 -0.14524353
v 0.03659898 0.03414890 -0.13011344
v 0.04478657 0.03140458 -0.14239754
v 0.04504155 0.03014722 -0.15148485
v 0.05192617 0.02959251 -0.10802153
v 0.05036106 0.03116284 -0.10802535
v 0.04843313 0.03241146 -0.10801306
v 0.04380252 0.03405065 -0.10793982
v 0.03892075 0.03487447 -0.10311177
v 0.04967232 0.02909111 -0.13093185
v 0.04810272 0.03065174 -0.13095203
v 0.04614620 0.03184789 -0.13095529
v 0.04152961 0.03336459 -0.13090481
v 0.05082352 0.02721141 -0.13090391
v 0.03210695 0.03414698 -0.13645968
v 0.03406747 0.03354049 -0.14322767
v 0.03321309 0.03369603 -0.14206418
v 0.03294343 0.03375028 -0.14159738
v 0.03229511 0.03391386 -0.13992064
v 0.03218489 0.03395776 -0.13937823
v 0.03206678 0.03405996 -0.13792016
v 0.03215084 0.03418971 -0.13568817
v 0.03291057 0.03470426 -0.12391391
v 0.03825064 0.03473700 -0.11131956
v 0.03361781 0.03494882 -0.11482800
v 0.04187495 0.03485062 -0.06374331
v 0.03413529 0.03504959 -0.10894305
v 0.03427231 0.03506887 -0.10747243
v 0.03488078 0.03512768 -0.10130109
v 0.04004415 0.03498172 -0.08867788
v 0.05675166 -0.01284291 -0.10778305
v 0.06045431 -0.00633889 -0.06215138
v 0.05977635 -0.01312382 -0.06214140
v 0.05748042 -0.00635349 -0.10779403
v 0.05732217 -0.02552977 -0.06209952
v 0.05733758 -0.01926185 -0.08495636
v 0.05548476 -0.00622906 -0.13056645
v 0.05684605 0.00002201 -0.11834572
v 0.05429440 0.00003512 -0.14528774
v 0.05269226 -0.00992519 -0.15325835
v 0.05470327 -0.01259931 -0.13055427
v 0.05342007 -0.01888372 -0.13053231
v 0.05220851 -0.02523926 -0.12528072
v 0.05555188 -0.01925801 -0.10776293
v 0.05391381 -0.02557557 -0.10767348
v 0.03514922 -0.03325887 -0.14438733
v 0.03668787 -0.03413070 -0.12872531
v 0.03887025 -0.03482142 -0.10314117
v 0.03219185 -0.03417841 -0.13425936
v 0.03436483 -0.03502403 -0.10605777
v 0.03829599 -0.03469945 -0.11022531
v 0.03210705 -0.03409957 -0.13571726
v 0.03206319 -0.03405610 -0.13648900
v 0.03220649 -0.03383679 -0.13975221
v 0.03251188 -0.03374440 -0.14078216
v 0.03342157 -0.03355388 -0.14247711
v 0.03409705 -0.03343383 -0.14334023
v 0.04548441 -0.03431447 -0.08481924
v 0.04841174 -0.03237315 -0.10776683
v 0.05166674 -0.02505584 -0.13050115
v 0.05083204 -0.02716526 -0.13051796
v 0.04480221 -0.03134914 -0.14194743
v 0.04146357 -0.03178253 -0.14896822
v 0.04240192 -0.03143871 -0.14962922
v 0.03805439 -0.03270841 -0.14656354
v 0.03920994 -0.03243845 -0.14737017
v 0.04377557 -0.03400672 -0.10769468
v 0.04019826 -0.03494872 -0.08594216
v 0.05014326 -0.03268478 -0.08490514
v 0.05221308 -0.03238219 -0.06200331
v 0.05375222 -0.02976273 -0.08494455
v 0.05497884 -0.02781679 -0.08494559
v 0.05575804 -0.02560367 -0.08562134
v 0.04967758 -0.02904260 -0.13054740
v 0.04366477 -0.03087266 -0.15051827
v 0.04426755 -0.03054233 -0.15094849
v 0.04810549 -0.03060084 -0.13056864
v 0.04557527 -0.02960039 -0.15200013
v 0.04614741 -0.03179530 -0.13057260
v 0.04015882 -0.03274875 -0.14191322
v 0.04152619 -0.03330916 -0.13052282
v 0.05308729 -0.02769005 -0.10775559
v 0.05191148 -0.02955705 -0.10777331
v 0.05034284 -0.03112628 -0.10777826
v 0.05212487 -0.03139281 -0.08493129
v 0.05756056 -0.02825642 -0.02942088
v 0.06024504 -0.02220108 -0.01157364
v 0.06028255 -0.02210038 -0.01110462
v 0.06100205 -0.02002175 -0.00237672
v 0.06142629 -0.01865655 0.00247445
v 0.06109913 -0.01813223 0.00554009
v 0.06135722 -0.01722788 0.00835667
v 0.06158037 -0.01641067 0.01076661
v 0.06181348 -0.01547023 0.01279478
v 0.06187269 -0.01521265 0.01321089
v 0.06211809 -0.01405857 0.01460242
v 0.06221793 -0.01354735 0.01503714
v 0.06249237 -0.01199240 0.01594005
v 0.06287854 -0.01262981 0.01509312
v 0.06259150 -0.01136602 0.01617641
v 0.06290642 -0.00903838 0.01667001
v 0.06309260 -0.00727642 0.01681595
v 0.06343579 -0.00004072 0.01707123
v 0.06298199 0.00838886 0.01673296
v 0.06271682 0.01052710 0.01640418
v 0.06253042 0.01177199 0.01600848
v 0.06248658 0.01204255 0.01589418
v 0.06225991 0.01333779 0.01514744
v 0.06213963 0.01396302 0.01463116
v 0.06210479 0.01413695 0.01446377
v 0.06180296 0.01552451 0.01258005
v 0.06153971 0.01656791 0.01012640
v 0.06233318 0.01535475 0.01201096
v 0.06222971 0.01578159 0.01108291
v 0.06201949 0.01658090 0.00882940
v 0.06141760 0.01701760 0.00879026
v 0.06095560 0.01863321 0.00370872
v 0.04578788 0.03423551 -0.03892784
v 0.04426724 0.03443678 -0.04211552
v 0.03553905 0.03515337 -0.09518845
v 0.03519181 0.03335262 -0.14435855
v 0.03754252 0.03291855 -0.14614683
v 0.03945572 0.03247787 -0.14748460
v 0.04150436 0.03187212 -0.14894074
v 0.04003751 0.03232300 -0.14789312
v 0.04262799 0.03145270 -0.14973292
v 0.04463488 0.03042706 -0.15116575
v 0.04640304 -0.02873282 -0.15285133
v 0.04025313 -0.03216022 -0.14810364
v 0.03941412 -0.03238694 -0.14751250
v 0.04492889 -0.03434569 -0.03983015
v 0.04474955 -0.03436729 -0.04016099
v 0.03634889 -0.03510297 -0.08797091
v 0.03565852 -0.03510557 -0.09376834
v 0.03549399 -0.03510240 -0.09521861
v 0.03422737 -0.03500570 -0.10750236
v 0.03286629 -0.03462529 -0.12394109
v 0.03202275 -0.03396985 -0.13791682
v 0.06061670 0.01974338 -0.00010566
v 0.06065144 0.01441481 0.01391261
v 0.06058031 0.01480293 0.01338194
v 0.06188898 0.01515061 0.01320238
v 0.06325974 0.00522899 0.01693989
v 0.06342132 -0.00148949 0.01706051
v 0.06075289 -0.01928917 0.00169954
v -0.02358690 -0.03456291 0.01894470
v -0.02634772 -0.03456290 0.01483521
v -0.02840249 -0.03456291 0.01033098
v -0.02969633 -0.03456291 0.00555227
v -0.03019471 -0.03456291 0.00062665
v 0.02943498 -0.03456290 0.00763477
v 0.02787329 -0.03456291 0.01216236
v 0.02561771 -0.03456291 0.01638732
v 0.02272457 -0.03456290 0.02020408
v 0.01926617 -0.03456290 0.02351730
v 0.01532891 -0.03456291 0.02624418
v 0.01101116 -0.03456291 0.02831660
v 0.00642079 -0.03456291 0.02968279
v 0.00167250 -0.03456291 0.03030860
v -0.00311509 -0.03456290 0.03017841
v -0.00782235 -0.03456291 0.02929546
v -0.01233169 -0.03456290 0.02768182
v -0.01653043 -0.03456291 0.02537780
v -0.02031367 -0.03456291 0.02244097
v 0.03097472 0.03490786 -0.04469039
v -0.00854789 0.03555635 -0.06081815
v 0.01733617 0.03529935 -0.06132346
v 0.01543839 0.03532615 -0.06128632
v 0.00021334 -0.01571235 0.03904960
v -0.03420392 -0.01568742 0.01860266
v -0.02802656 -0.01569323 0.02706590
v 0.03098989 -0.03280095 -0.15314524
v 0.01841989 -0.03331009 -0.15284835
v -0.00280452 0.01584480 -0.31193665
v -0.00024598 -0.01605336 -0.31225935
v -0.00333248 -0.01571424 -0.31180018
v -0.00447072 -0.00816333 -0.31141752
v -0.00593760 -0.01544422 -0.31072846
v -0.00715233 -0.00816344 -0.30995980
v -0.00799926 -0.00816342 -0.30929315
v -0.00841002 -0.01521319 -0.30892298
v -0.01004519 -0.00816336 -0.30702952
v -0.01035270 -0.01506888 -0.30656785
v -0.01062199 -0.00816338 -0.30612233
v -0.01147115 -0.00816335 -0.30432338
v -0.01147117 -0.01501469 -0.30432335
v -0.01245865 -0.01496621 -0.29968432
v -0.01163063 -0.01500701 -0.30387199
v -0.01244864 0.01503549 -0.29978117
v -0.01099030 0.00823669 -0.30543259
v -0.01147117 0.01508131 -0.30432332
v -0.01156278 0.00823675 -0.30407131
v -0.01174363 0.01506757 -0.30351275
v -0.00623977 0.00823665 -0.31055561
v -0.00846834 0.01528662 -0.30886760
v -0.00865239 0.00823663 -0.30868796
v -0.00937674 0.00823659 -0.30789980
v -0.01025801 0.00823662 -0.30671492
v -0.00430943 0.00823658 -0.31147936
v -0.00134081 0.00823665 -0.31218752
v -0.00024787 0.01612622 -0.31226030
v -0.02013619 0.03509207 -0.12969643
v -0.01542872 0.03452972 -0.14179234
v -0.02015909 0.03508873 -0.12970544
v -0.01666238 -0.03467809 -0.13856475
v -0.01912103 -0.03495649 -0.13226919
v -0.01795397 -0.03484803 -0.13524659
v -0.01780406 -0.03483132 -0.13562796
v -0.01546766 -0.03446524 -0.14168830
v -0.01662701 -0.03467260 -0.13865638
v -0.01900269 -0.03494494 -0.13260125
v 0.01336534 -0.01786293 0.03778571
v 0.01341321 -0.02478998 0.03776890
v 0.01563826 -0.01786293 0.03690804
v 0.01641813 -0.02478991 0.03656965
v 0.00203178 -0.02479027 0.04000292
v 0.00780428 -0.02479013 0.03930061
v -0.00951582 -0.02479056 0.03887660
v -0.01014783 -0.01786292 0.03871449
v -0.00558221 -0.01786292 0.03964382
v -0.00378444 -0.02479041 0.03986048
v 0.00021559 -0.01786292 0.04004928
v -0.00102319 -0.02479035 0.04003381
v 0.00167860 -0.02479028 0.04001845
v -0.02580592 -0.01786292 0.03052721
v -0.02927791 -0.02479113 0.02719641
v -0.02179080 -0.01786291 0.03352782
v -0.02503142 -0.02479099 0.03116900
v -0.02106769 -0.02479086 0.03398989
v -0.02106758 -0.01786292 0.03398972
v -0.01670483 -0.01786292 0.03634827
v -0.02025148 -0.02479084 0.03448545
v -0.01824483 -0.02479079 0.03559491
v -0.03346132 -0.01786292 0.02181298
v -0.03183662 -0.02479123 0.02413421
v -0.02995073 -0.01786292 0.02644956
v -0.03011451 -0.02479115 0.02626202
v -0.03939611 -0.01786292 0.00637983
v -0.03912035 -0.02479166 0.00791007
v -0.03829497 -0.01786292 0.01126740
v -0.03648810 -0.01786292 0.01621503
v -0.03626247 -0.01786292 0.01671634
v -0.03583183 -0.02479141 0.01762575
v -0.03989659 -0.01786292 0.00058706
v -0.03989256 -0.02379186 0.00083137
v -0.03962450 -0.01786292 0.00473778
v -0.03962449 -0.02479174 0.00473778
v -0.03936431 -0.02479169 0.00657536
v -0.02179104 -0.03436290 0.02269953
v -0.02429656 -0.03436291 0.01997583
v -0.02261212 -0.03373253 0.02697749
v -0.02802588 -0.03373253 0.02126030
v -0.03477173 -0.03385983 0.00073125
v -0.03310382 -0.03424870 0.00069864
v -0.03444048 -0.03373253 0.00697216
v -0.03203737 -0.03373253 0.01447718
v -0.02952025 -0.03436290 0.01072414
v -0.03989255 -0.02479183 0.00083137
v -0.03648825 -0.02479145 0.01621509
v -0.03800115 -0.02479155 0.01222806
v -0.03143675 -0.02878548 0.02383263
v -0.03290302 -0.02479127 0.02265096
v -0.01801515 -0.02878549 0.03514983
v -0.00975856 -0.02878549 0.03829866
v -0.01014785 -0.02479058 0.03871457
v -0.01504299 -0.02479070 0.03707258
v -0.00100914 -0.02878549 0.03953316
v 0.01336536 -0.02478999 0.03778575
v 0.00779387 -0.02878548 0.03879216
v 0.02382657 -0.02878548 0.03162843
v 0.01621383 -0.02878548 0.03611237
v 0.03231159 -0.03288608 0.01781704
v 0.02880046 -0.03183818 0.02483443
v 0.02676141 -0.03373252 0.02307357
v 0.03034979 -0.03396432 0.01673494
v 0.03094568 -0.03373252 0.01706362
v 0.01470774 -0.03436290 0.02795747
v 0.02126042 -0.03373253 0.02821294
v 0.01888684 -0.03436291 0.02533386
v 0.00516513 -0.03436290 0.03113950
v 0.01447105 -0.03373254 0.03221193
v 0.00995593 -0.03436291 0.02996773
v 0.01295055 -0.03436290 0.02880903
v 0.00696176 -0.03373253 0.03460188
v -0.00088923 -0.03373253 0.03526273
v -0.00869224 -0.03373253 0.03416176
v -0.02171463 -0.03436290 0.02277313
v -0.01881571 -0.03436290 0.02523763
v -0.01605593 -0.03373253 0.03135346
v -0.01445451 -0.03436290 0.02798533
v -0.00990860 -0.03436290 0.02991712
v -0.03708210 -0.03183817 0.00750159
v 0.02287874 -0.03183818 0.03036688
v 0.01557013 -0.03183818 0.03467171
v 0.00748653 -0.03183819 0.03724444
v -0.00096486 -0.03183819 0.03795583
v -0.00936470 -0.03183819 0.03677066
v -0.01729150 -0.03183818 0.03374760
v -0.03017692 -0.03183818 0.02288251
v -0.03449520 -0.03183818 0.01558061
v -0.03986643 -0.02579151 0.00083086
v -0.03862927 -0.02878548 0.00781166
v -0.02536642 -0.02878549 0.03024318
v -0.02434910 -0.03183819 0.02903696
v -0.03593473 -0.02878547 0.01622687
v -0.03863693 -0.03064387 0.00080682
v -0.03763836 -0.03203563 0.00078730
v -0.02215635 0.03525038 -0.05207607
v -0.03539591 0.03397089 -0.07100525
v -0.03552249 0.03343705 -0.07226554
v -0.03515087 0.03338615 -0.08014667
v -0.03275758 0.03478079 -0.06144161
v -0.03358248 0.03470544 -0.06395268
v -0.03413445 0.03464145 -0.06725127
v -0.02436193 0.03519655 -0.05292726
v -0.02439840 0.03519551 -0.05294360
v -0.02499442 0.03517797 -0.05322228
v -0.02521687 0.03517107 -0.05333263
v -0.02527043 0.03516940 -0.05335985
v -0.02606800 0.03513838 -0.05367597
v -0.02683770 0.03511482 -0.05426291
v -0.02818689 0.03505489 -0.05512848
v -0.02721279 0.03510020 -0.05451740
v -0.02971349 0.03498508 -0.05671718
v -0.02096098 0.03526925 -0.05163791
v -0.02395491 0.03509682 -0.05219082
v -0.01841948 0.03515352 -0.05055187
v -0.01973834 0.03529232 -0.05142027
v -0.01808869 0.03530775 -0.05101215
v -0.01834014 0.03525600 -0.05076962
v -0.03427537 0.03462290 -0.06752400
v -0.03500292 0.03442706 -0.07108954
v -0.03454776 0.03452347 -0.07560382
v -0.03411181 0.03452548 -0.08003549
v -0.03398398 0.03457557 -0.06379460
v -0.03457408 0.03456472 -0.07114857
v -0.03193730 0.03474572 -0.05883266
v -0.03006120 0.03496204 -0.05694901
v -0.03170864 0.03486355 -0.05948769
v -0.03318022 0.03474646 -0.06293389
v -0.02375470 0.03520828 -0.05256152
v -0.03150029 0.03487784 -0.05912732
v -0.03158502 0.03486850 -0.05907155
v -0.03523915 0.03423789 -0.07104642
v -0.03420321 0.03439009 -0.06369428
v -0.02846712 0.03493885 -0.05481371
v -0.03499255 0.03403616 -0.08012877
v -0.03434491 0.03412617 -0.06361242
v -0.03213010 0.03456294 -0.05869247
v -0.02862563 0.03475856 -0.05463769
v -0.00026459 -0.01751482 0.03998525
v 0.00167860 -0.01786293 0.04001828
v 0.00784727 -0.01786293 0.03929198
v -0.01126362 -0.01786293 0.03840141
v -0.00834922 -0.01751482 0.03908296
v -0.01608331 -0.01751482 0.03656120
v -0.02924418 -0.01751482 0.02714062
v -0.02314597 -0.01751482 0.03252460
v -0.03758573 -0.01751482 0.01327072
v -0.03412493 -0.01751482 0.02063266
v -0.03948298 -0.01751482 0.00536023
v -0.02300995 -0.01715249 0.03233458
v -0.01598861 -0.01715249 0.03634756
v 0.00783515 -0.01751483 0.03923063
v -0.03552974 0.03334879 -0.07351432
v -0.03547808 0.03334796 -0.07067193
v -0.03511458 0.03353062 -0.06690369
v -0.00776197 -0.03436290 0.03055250
v -0.02725090 -0.03436290 0.01565825
v 0.00001953 -0.03436291 0.03154936
v -0.00489860 -0.03436290 0.03115036
v -0.02862373 -0.03436291 0.01294463
v 0.02276278 -0.03436290 0.02192745
v -0.00835981 0.03531940 -0.05125662
v -0.02614640 0.03495461 -0.11526341
v -0.02559868 0.03507667 -0.11554077
v -0.03370975 0.03453151 -0.08341756
v -0.03180923 0.03465319 -0.09424231
v -0.03100882 0.03463185 -0.09952675
v -0.02909153 0.03486533 -0.10493147
v -0.03446696 0.03417966 -0.08344916
v -0.03412130 0.03442453 -0.08343498
v -0.00816788 0.03416953 -0.14732353
v -0.01897963 0.03570045 -0.10380503
v -0.00738340 0.03588281 -0.09661230
v -0.00536915 0.03574506 -0.11434978
v -0.01038899 0.03555495 -0.12526767
v -0.01790202 0.03568185 -0.11487319
v -0.03058195 0.03475057 -0.09948861
v -0.01680915 0.03548941 -0.12592693
v -0.01507016 0.03445318 -0.14274633
v -0.00928344 0.03506969 -0.13631305
v -0.01569009 0.03498641 -0.13695613
v -0.03319066 -0.03451213 -0.08704353
v -0.03370956 -0.03449407 -0.08341813
v -0.03390906 -0.03435696 -0.08525413
v -0.03375796 -0.03429006 -0.08707297
v -0.03419916 -0.03413399 -0.08526710
v -0.03447239 -0.03411283 -0.08344956
v -0.03458639 -0.03395000 -0.08345393
v -0.00861320 0.03562853 -0.06568018
v -0.00833947 0.03581747 -0.08233169
v -0.01798979 0.03531226 -0.05107055
v -0.03451303 0.03455696 -0.07299447
v -0.03447633 0.03457787 -0.07116014
v -0.02721940 0.03509995 -0.05452247
v -0.02196424 0.03525434 -0.05201428
v -0.00833946 -0.03574430 -0.08233168
v -0.00861004 -0.03563348 -0.07157886
v -0.02630928 -0.03522157 -0.08307456
v -0.02130617 -0.03548321 -0.08285794
v -0.03417857 -0.03436030 -0.07962427
v -0.03568279 -0.03291945 -0.07355492
v -0.03548649 -0.03328504 -0.07354508
v -0.03430169 -0.03426729 -0.08344267
v -0.03538319 -0.03306004 -0.07805061
v -0.03590702 -0.03208869 -0.07110865
v -0.03489038 0.03417996 -0.08011764
v -0.03473794 0.03431574 -0.08010124
v -0.03421587 0.03451074 -0.08004628
v -0.03011322 -0.03462418 -0.10291526
v -0.03183866 -0.03460033 -0.09407780
v -0.02490758 -0.03491727 -0.11864761
v -0.02013654 -0.03502065 -0.12969659
v -0.02552089 -0.03501061 -0.11573221
v -0.02536350 -0.03521171 -0.10443153
v -0.02922136 -0.03479262 -0.10447473
v -0.01569201 -0.03491462 -0.13695699
v -0.01681073 -0.03542085 -0.12592816
v -0.01180906 -0.03573313 -0.08247054
v -0.01898153 -0.03564096 -0.10380730
v -0.00725206 -0.03581317 -0.09801878
v -0.01038967 -0.03548420 -0.12526919
v -0.00816976 -0.03409665 -0.14732459
v -0.00928465 -0.03499771 -0.13631426
v -0.00478704 -0.03558227 -0.11894497
v -0.03632145 -0.03312888 0.00076155
v -0.03930637 -0.02906742 0.00081991
v -0.00024253 0.01712108 -0.31212726
v 0.00941044 0.01951808 -0.30526900
v 0.00628906 0.01935599 -0.30746642
v 0.00695669 0.01928172 -0.30826923
v 0.00281381 0.01898926 -0.30934808
v 0.00540252 0.01926498 -0.30813286
v 0.00359944 0.01892870 -0.31018135
v -0.00022827 0.01820298 -0.31139269
v -0.00021560 0.01852387 -0.31074157
v -0.00023983 0.01747243 -0.31199259
v 0.00940360 -0.01944242 -0.30529448
v -0.00024305 -0.01704902 -0.31212687
v -0.00023534 -0.01781539 -0.31172696
v 0.00692371 -0.01920323 -0.30830580
v 0.00743035 -0.01939546 -0.30632907
v -0.00023335 -0.01792846 -0.31162480
v 0.00353420 -0.01884648 -0.31021085
v -0.00019691 -0.01858903 -0.30975989
v -0.00022290 -0.01831353 -0.31108841
v -0.00024316 -0.01703012 -0.31213242
v -0.00024382 -0.01691576 -0.31216303
v -0.01229685 -0.01604105 -0.29988948
v -0.01184741 -0.01693481 -0.29969713
v -0.00796675 -0.01765088 -0.30732831
v -0.00633548 -0.01796566 -0.30744812
v -0.00399723 -0.01818891 -0.30891377
v -0.00308229 -0.01812783 -0.31033295
v -0.00127038 -0.01847324 -0.30968267
v -0.01057906 -0.01610858 -0.30589470
v -0.00870330 -0.01624037 -0.30842125
v -0.01174201 -0.01605922 -0.30297863
v -0.00962630 -0.01753328 -0.30496153
v -0.00605850 -0.01731264 -0.30992246
v -0.00573093 -0.01785432 -0.30916256
v -0.00843927 -0.01709746 -0.30800337
v -0.01023397 -0.01696867 -0.30553350
v -0.01132772 -0.01692742 -0.30269468
v -0.00325771 -0.01759765 -0.31115723
v -0.00335308 -0.01673275 -0.31164542
v -0.00623825 -0.01645463 -0.31038278
v -0.01184797 0.01700739 -0.29969740
v -0.00020846 0.01861116 -0.31037095
v -0.00023281 0.01800097 -0.31162560
v -0.00325777 0.01767028 -0.31115785
v -0.01230114 0.01609880 -0.29989159
v -0.01049817 0.01513556 -0.30633250
v -0.01174599 0.01611726 -0.30298170
v -0.01058232 0.01616668 -0.30589858
v -0.00870572 0.01629849 -0.30842561
v -0.00623983 0.01651279 -0.31038737
v -0.00335386 0.01679091 -0.31165007
v -0.00584257 0.01552961 -0.31078047
v -0.00307931 0.01820572 -0.31032011
v -0.00303145 0.01836075 -0.30928916
v -0.00572543 0.01793257 -0.30915058
v -0.00571660 0.01809529 -0.30792642
v -0.00961627 0.01761199 -0.30495247
v -0.00605868 0.01738526 -0.30992305
v -0.00795889 0.01772940 -0.30731758
v -0.01132822 0.01700002 -0.30269501
v -0.00843956 0.01717009 -0.30800387
v -0.01023437 0.01704129 -0.30553398
v -0.00240029 0.00823663 -0.31202433
v -0.00529407 0.00823662 -0.31105995
v -0.01197338 0.00823662 -0.30265388
v -0.01226004 0.00823662 -0.30120707
v -0.00346010 -0.00816338 -0.31176341
v -0.01180277 -0.00816338 -0.30330953
v -0.01224353 -0.00816338 -0.30130765
v 0.03405879 -0.03396105 0.00891250
v 0.03540526 -0.03411454 0.00041026
v 0.03558237 -0.03324213 0.00940840
v 0.01437964 0.03565558 -0.10702129
v 0.03942170 0.03490881 -0.06175670
v 0.01384235 0.03510552 -0.13015163
v 0.03128990 0.03400411 -0.13935463
v 0.01651514 0.03341200 -0.15279663
v 0.03124308 0.03421417 -0.13604438
v 0.03267780 0.03366354 -0.14284043
v 0.03098941 0.03287370 -0.15314706
v 0.03234087 0.03372719 -0.14231165
v 0.03653637 0.03514581 -0.08020409
v 0.03509653 0.03519933 -0.09146827
v 0.03396405 0.03516970 -0.10171116
v 0.03225524 0.03484610 -0.12084582
v 0.02598188 0.03477170 -0.13042448
v 0.03162459 0.03452280 -0.12980339
v 0.04301113 0.03113408 -0.15107685
v 0.03321668 0.03356767 -0.14355797
v 0.04019173 -0.03207985 -0.14912312
v 0.03893379 -0.03241191 -0.14822257
v 0.03476023 -0.03323254 -0.14516984
v 0.01542150 -0.03525470 -0.06128155
v 0.03266847 -0.03359260 -0.14290026
v 0.03199389 -0.03372453 -0.14176004
v 0.03130362 -0.03391437 -0.13968101
v 0.03116909 -0.03399252 -0.13861559
v 0.03117743 -0.03411838 -0.13658844
v 0.03150038 -0.03439645 -0.13116093
v 0.01382541 -0.03503849 -0.13014905
v 0.01436271 -0.03558705 -0.10701866
v 0.03403392 -0.03510867 -0.10067703
v 0.03505717 -0.03513066 -0.09148775
v 0.03644833 -0.03507921 -0.08057810
v 0.03158609 -0.03445654 -0.12982078
v 0.02595613 -0.03470521 -0.13042177
v 0.03206209 -0.03471656 -0.12292565
v 0.02649222 -0.03531799 -0.10729584
v 0.03204144 0.03378824 -0.14176100
v 0.04315626 -0.03099620 -0.15121961
v -0.01981898 -0.01569962 0.03357910
v -0.01017361 -0.01570615 0.03767215
v 0.04361356 0.03449617 -0.04108704
v 0.04138107 0.03473762 -0.05139719
v 0.03120719 0.03405858 -0.13859661
v 0.00527462 -0.01917842 -0.30821538
v 0.00265380 -0.01889868 -0.30939195
v -0.00774840 0.01792195 -0.30596992
v 0.00752518 0.01947781 -0.30621901
f 519 518 495
f 518 503 498
f 376 734 733
f 469 46 483
f 733 734 167
f 518 498 321
f 192 266 267
f 267 193 192
f 177 136 179
f 182 181 177
f 260 258 136
f 179 136 142
f 256 266 262
f 47 483 46
f 720 27 600
f 665 34 30
f 708 19 20
f 20 67 723
f 232 237 233
f 223 112 115
f 745 736 392
f 610 736 611
f 506 503 518
f 518 519 506
f 509 507 506
f 506 520 509
f 519 520 506
f 506 507 382
f 497 498 499
f 499 498 503
f 497 735 318
f 377 376 733
f 377 500 378
f 733 500 377
f 511 522 514
f 521 492 489
f 489 522 521
f 521 520 492
f 509 520 521
f 182 177 175
f 165 164 733
f 182 175 172
f 1 302 303
f 302 287 303
f 518 321 322
f 320 321 498
f 17 6 5
f 15 14 10
f 13 40 194
f 265 266 192
f 262 266 265
f 265 195 262
f 296 308 297
f 296 181 182
f 297 181 296
f 297 308 307
f 307 286 268
f 307 299 286
f 308 299 307
f 176 175 311
f 311 175 177
f 180 181 297
f 180 260 136
f 136 177 180
f 180 177 181
f 258 256 259
f 259 256 262
f 258 260 261
f 261 256 258
f 139 137 138
f 61 47 24
f 45 19 46
f 42 19 45
f 45 46 469
f 469 42 45
f 26 47 46
f 46 19 26
f 26 19 412
f 613 601 609
f 615 601 613
f 613 609 610
f 610 611 613
f 609 542 541
f 541 540 609
f 610 609 627
f 627 736 610
f 392 736 627
f 627 393 392
f 712 713 420
f 399 426 425
f 17 5 425
f 667 30 38
f 665 30 667
f 36 30 34
f 17 425 37
f 37 425 426
f 723 708 704
f 704 20 723
f 708 20 704
f 411 408 692
f 699 694 692
f 692 694 411
f 412 694 685
f 700 694 699
f 686 685 700
f 700 685 694
f 349 29 28
f 221 231 222
f 222 231 232
f 115 114 222
f 222 223 115
f 222 232 233
f 233 223 222
f 221 222 117
f 117 222 114
f 233 227 249
f 238 227 233
f 233 237 238
f 600 601 429
f 429 720 600
f 429 428 719
f 378 500 379
f 500 499 379
f 633 379 380
f 378 379 633
f 633 377 378
f 382 633 381
f 381 633 380
f 492 520 494
f 497 499 501
f 501 499 500
f 501 735 497
f 733 735 501
f 501 500 733
f 503 380 598
f 598 499 503
f 380 379 598
f 598 379 499
f 317 318 735
f 514 522 523
f 396 450 583
f 583 455 774
f 452 455 583
f 483 47 526
f 47 61 526
f 526 472 483
f 22 685 686
f 686 700 22
f 466 467 395
f 509 521 510
f 522 511 510
f 510 521 522
f 510 384 509
f 734 376 163
f 733 167 166
f 166 165 733
f 166 167 160
f 283 183 184
f 184 183 164
f 164 165 184
f 184 166 160
f 165 166 184
f 164 183 170
f 174 175 176
f 174 172 175
f 173 172 174
f 174 735 173
f 294 183 283
f 304 287 302
f 302 284 304
f 287 288 289
f 301 287 1
f 1 303 301
f 301 303 287
f 258 259 257
f 518 322 323
f 495 518 323
f 323 325 495
f 149 322 321
f 137 144 149
f 319 498 497
f 319 320 498
f 146 320 319
f 497 318 319
f 15 10 11
f 268 286 285
f 285 267 268
f 28 29 31
f 31 29 40
f 31 13 14
f 40 13 31
f 194 195 18
f 18 13 194
f 195 265 18
f 18 265 192
f 192 193 18
f 18 10 14
f 14 13 18
f 18 285 286
f 193 267 18
f 267 285 18
f 286 299 18
f 194 40 187
f 40 191 187
f 190 191 40
f 212 29 213
f 40 29 212
f 178 177 179
f 178 311 177
f 298 261 260
f 298 180 297
f 260 180 298
f 136 137 140
f 137 139 140
f 60 61 24
f 24 47 25
f 47 26 25
f 25 26 412
f 25 685 24
f 412 685 25
f 600 27 62
f 62 63 600
f 27 63 62
f 64 720 723
f 723 65 64
f 27 720 64
f 64 63 27
f 609 601 605
f 605 601 600
f 600 63 605
f 63 64 605
f 391 393 626
f 393 627 626
f 399 401 730
f 730 424 399
f 401 403 402
f 402 730 401
f 424 730 402
f 723 720 725
f 726 401 399
f 399 425 726
f 726 425 401
f 401 425 400
f 400 425 5
f 713 712 721
f 721 707 713
f 714 707 673
f 713 707 714
f 30 36 41
f 35 36 34
f 15 36 35
f 664 37 426
f 673 37 664
f 664 426 399
f 399 714 664
f 664 714 673
f 706 37 673
f 706 707 671
f 673 707 706
f 706 671 38
f 38 37 706
f 695 700 699
f 414 19 708
f 414 729 19
f 418 729 414
f 413 694 412
f 411 694 413
f 411 416 410
f 410 415 411
f 416 415 410
f 409 408 411
f 411 415 409
f 91 155 89
f 89 155 156
f 95 88 93
f 489 492 446
f 446 443 489
f 454 455 452
f 228 237 213
f 228 238 237
f 349 238 228
f 135 134 337
f 135 132 134
f 112 132 135
f 115 112 135
f 135 131 115
f 113 114 115
f 115 131 113
f 221 117 116
f 116 119 118
f 337 555 552
f 551 552 550
f 550 552 555
f 550 555 554
f 628 599 391
f 391 626 628
f 227 238 225
f 225 238 349
f 227 750 248
f 250 249 248
f 248 249 227
f 250 736 252
f 736 747 252
f 252 249 250
f 736 745 746
f 746 747 736
f 390 745 392
f 392 393 390
f 390 393 391
f 390 628 554
f 391 599 390
f 599 628 390
f 668 705 428
f 719 428 717
f 428 705 717
f 427 601 615
f 427 429 601
f 781 429 719
f 756 633 764
f 377 633 756
f 374 636 373
f 382 507 383
f 383 633 382
f 383 507 509
f 634 384 385
f 633 383 634
f 634 383 384
f 504 380 503
f 503 381 504
f 504 381 380
f 503 506 502
f 502 381 503
f 442 494 493
f 441 449 492
f 492 494 441
f 441 494 442
f 495 325 496
f 325 326 496
f 496 326 440
f 496 519 495
f 496 520 519
f 496 494 520
f 496 493 494
f 440 328 439
f 437 439 368
f 368 439 328
f 440 326 327
f 327 326 154
f 318 317 143
f 451 486 528
f 484 467 466
f 529 486 524
f 528 486 529
f 524 477 529
f 529 477 476
f 529 476 514
f 514 523 529
f 587 774 396
f 396 583 587
f 587 583 774
f 469 483 470
f 483 472 470
f 524 486 525
f 23 22 51
f 24 685 23
f 685 22 23
f 86 526 51
f 51 22 86
f 642 526 86
f 585 395 467
f 396 395 585
f 385 384 595
f 595 510 385
f 384 510 595
f 356 163 376
f 168 167 734
f 734 163 168
f 160 167 168
f 186 356 185
f 186 293 283
f 283 184 186
f 163 356 186
f 186 184 160
f 160 168 186
f 186 168 163
f 164 170 169
f 733 164 169
f 169 735 733
f 171 172 173
f 171 170 172
f 171 169 170
f 173 735 171
f 735 169 171
f 308 296 310
f 310 296 182
f 292 276 272
f 292 304 284
f 292 294 283
f 284 294 292
f 306 288 287
f 287 304 306
f 304 292 306
f 306 292 272
f 287 289 773
f 156 144 158
f 258 257 158
f 158 257 156
f 158 144 137
f 136 258 158
f 158 137 136
f 156 155 153
f 154 144 153
f 153 144 156
f 153 327 154
f 155 327 153
f 321 320 145
f 145 149 321
f 145 320 146
f 146 137 145
f 137 149 145
f 157 144 154
f 157 326 325
f 154 326 157
f 324 323 322
f 322 149 324
f 324 149 144
f 764 633 657
f 2 398 674
f 9 753 754
f 754 3 9
f 288 753 9
f 9 18 1
f 9 289 288
f 9 3 10
f 10 18 9
f 1 773 9
f 9 773 289
f 7 5 6
f 6 4 7
f 8 11 2
f 2 674 8
f 8 4 6
f 6 11 8
f 28 31 32
f 32 31 14
f 353 299 302
f 353 18 299
f 353 302 1
f 1 18 353
f 189 190 40
f 196 190 189
f 191 190 210
f 210 190 196
f 111 95 199
f 199 95 93
f 221 116 220
f 118 218 220
f 220 116 118
f 219 218 118
f 213 237 236
f 237 232 236
f 232 231 236
f 196 202 201
f 40 212 214
f 261 298 269
f 256 261 269
f 269 267 266
f 266 256 269
f 141 142 136
f 136 140 141
f 463 473 464
f 472 473 463
f 609 605 565
f 604 64 65
f 604 605 64
f 605 604 614
f 614 604 603
f 420 713 715
f 715 419 420
f 399 424 715
f 403 419 715
f 715 714 399
f 713 714 715
f 408 423 407
f 407 406 408
f 404 419 403
f 403 406 404
f 420 419 404
f 693 692 408
f 408 406 693
f 618 427 615
f 428 429 618
f 429 427 618
f 724 721 712
f 712 711 724
f 724 711 725
f 15 11 16
f 16 11 6
f 16 36 15
f 16 41 36
f 16 6 17
f 38 30 39
f 30 41 39
f 39 37 38
f 17 37 39
f 39 16 17
f 41 16 39
f 81 19 42
f 81 83 19
f 417 418 416
f 417 413 418
f 417 416 411
f 411 413 417
f 728 729 418
f 723 725 710
f 725 711 710
f 710 708 723
f 416 418 710
f 710 711 416
f 710 414 708
f 418 414 710
f 709 409 415
f 709 423 408
f 408 409 709
f 709 415 416
f 416 711 709
f 709 712 420
f 709 711 712
f 332 333 394
f 93 88 90
f 91 89 90
f 90 89 93
f 88 368 90
f 90 328 91
f 90 368 328
f 156 257 159
f 159 89 156
f 110 89 159
f 458 456 455
f 452 583 453
f 453 454 452
f 453 583 450
f 528 454 453
f 453 451 528
f 450 451 453
f 445 394 580
f 580 443 445
f 443 446 445
f 442 493 578
f 578 493 437
f 578 441 442
f 551 774 775
f 775 579 580
f 580 394 775
f 352 228 213
f 29 228 352
f 29 349 351
f 349 228 351
f 125 117 114
f 102 95 111
f 126 108 127
f 124 116 117
f 117 125 124
f 126 127 124
f 119 116 124
f 124 127 119
f 551 550 566
f 540 541 566
f 566 541 542
f 609 540 533
f 533 627 609
f 540 566 533
f 533 566 550
f 553 550 554
f 554 628 553
f 553 626 627
f 553 628 626
f 777 390 776
f 250 248 748
f 748 736 250
f 748 738 736
f 227 225 226
f 247 750 227
f 243 244 227
f 743 34 665
f 249 252 234
f 234 223 233
f 233 249 234
f 112 776 344
f 344 133 112
f 776 133 344
f 337 134 343
f 343 555 337
f 134 132 343
f 554 555 343
f 343 132 112
f 112 133 343
f 343 390 554
f 343 133 776
f 776 390 343
f 669 668 428
f 666 667 669
f 716 717 705
f 671 707 716
f 707 721 716
f 516 511 514
f 514 387 516
f 514 388 515
f 515 387 514
f 388 387 515
f 635 636 374
f 374 373 479
f 478 479 480
f 509 384 505
f 505 383 509
f 384 383 505
f 655 387 388
f 655 634 387
f 633 634 655
f 655 373 636
f 655 657 633
f 382 381 508
f 381 502 508
f 508 506 382
f 508 502 506
f 438 496 440
f 493 496 438
f 440 439 438
f 437 493 438
f 438 439 437
f 329 330 437
f 437 368 329
f 329 368 88
f 369 328 440
f 440 327 369
f 369 327 155
f 91 328 369
f 369 155 91
f 176 311 314
f 311 178 314
f 314 178 179
f 179 142 314
f 137 315 314
f 316 317 735
f 318 143 147
f 146 319 147
f 147 319 318
f 147 137 146
f 147 143 137
f 485 484 466
f 389 655 388
f 476 477 474
f 477 475 474
f 373 655 372
f 700 695 58
f 530 525 486
f 486 487 530
f 484 485 530
f 526 50 48
f 50 23 48
f 638 526 642
f 527 473 472
f 472 526 527
f 464 473 527
f 527 485 464
f 527 530 485
f 525 530 527
f 24 23 84
f 84 526 61
f 84 60 24
f 61 60 84
f 467 484 468
f 468 585 467
f 484 530 468
f 468 530 487
f 459 585 468
f 468 487 459
f 376 185 357
f 357 356 376
f 185 356 357
f 283 293 273
f 273 292 283
f 276 292 273
f 767 756 764
f 377 756 767
f 376 377 767
f 308 310 309
f 309 284 302
f 309 294 284
f 309 310 294
f 302 299 309
f 309 299 308
f 183 294 295
f 294 310 295
f 295 170 183
f 172 170 295
f 182 172 295
f 295 310 182
f 354 753 288
f 1 287 300
f 300 773 1
f 287 773 300
f 325 323 148
f 323 324 148
f 148 157 325
f 144 157 148
f 148 324 144
f 680 681 682
f 682 7 680
f 680 7 4
f 682 681 690
f 696 693 703
f 703 406 403
f 703 693 406
f 698 693 696
f 699 692 698
f 692 693 698
f 764 657 661
f 661 763 764
f 654 657 656
f 636 635 656
f 656 655 636
f 657 655 656
f 649 654 650
f 659 398 660
f 398 763 660
f 290 3 754
f 759 763 398
f 397 398 2
f 4 8 677
f 677 659 779
f 779 680 677
f 677 680 4
f 33 34 28
f 28 32 33
f 33 35 34
f 15 35 33
f 33 14 15
f 33 32 14
f 188 189 40
f 196 189 188
f 40 202 188
f 188 202 196
f 111 199 198
f 198 206 207
f 203 210 207
f 207 206 203
f 191 210 203
f 203 187 191
f 110 159 204
f 204 257 259
f 204 159 257
f 230 218 217
f 230 220 218
f 230 231 221
f 221 220 230
f 200 219 118
f 208 210 196
f 207 210 208
f 239 201 202
f 239 202 40
f 40 214 239
f 217 201 239
f 239 214 212
f 270 269 298
f 270 307 268
f 268 267 270
f 267 269 270
f 297 307 270
f 270 298 297
f 71 606 67
f 70 606 71
f 67 20 71
f 20 70 71
f 20 68 69
f 69 70 20
f 66 604 65
f 723 67 66
f 66 65 723
f 77 20 19
f 77 74 20
f 77 590 74
f 471 534 469
f 472 463 471
f 469 470 471
f 471 470 472
f 609 567 549
f 549 547 609
f 534 471 592
f 584 485 466
f 466 395 584
f 539 565 605
f 564 567 609
f 609 565 564
f 727 402 403
f 403 715 727
f 424 402 727
f 727 715 424
f 422 407 423
f 422 709 420
f 423 709 422
f 406 407 422
f 405 406 420
f 420 404 405
f 405 404 406
f 676 675 5
f 684 400 5
f 401 400 684
f 665 667 782
f 782 667 666
f 740 743 665
f 665 782 740
f 722 781 719
f 722 725 720
f 722 724 725
f 720 429 722
f 429 781 722
f 20 72 73
f 572 590 534
f 572 73 72
f 20 73 572
f 572 69 68
f 572 68 20
f 75 590 72
f 75 72 20
f 535 590 469
f 534 590 535
f 732 413 412
f 729 728 732
f 412 19 732
f 19 729 732
f 94 367 335
f 335 775 394
f 336 367 94
f 337 552 336
f 336 552 551
f 333 332 98
f 88 95 92
f 95 100 92
f 92 329 88
f 92 100 330
f 330 329 92
f 330 100 331
f 444 443 580
f 580 579 444
f 455 454 457
f 457 458 455
f 491 579 456
f 456 458 491
f 492 449 448
f 448 446 492
f 437 330 589
f 589 578 437
f 330 331 589
f 589 331 332
f 589 332 394
f 588 775 774
f 350 225 349
f 350 349 28
f 213 29 229
f 229 352 213
f 29 352 229
f 751 228 29
f 29 351 751
f 751 351 228
f 341 342 131
f 341 135 337
f 131 135 341
f 337 340 341
f 131 342 128
f 128 342 129
f 128 113 131
f 129 125 128
f 114 113 128
f 128 125 114
f 129 342 130
f 130 125 129
f 126 124 130
f 130 124 125
f 364 108 126
f 364 342 108
f 126 130 364
f 364 130 342
f 108 102 107
f 121 108 107
f 105 102 104
f 120 108 121
f 120 127 108
f 120 121 119
f 119 127 120
f 632 533 550
f 550 553 632
f 627 533 632
f 632 553 627
f 738 740 617
f 617 618 615
f 347 225 224
f 347 226 225
f 347 224 28
f 28 34 347
f 34 226 347
f 227 244 246
f 253 252 747
f 253 234 252
f 747 746 345
f 428 618 616
f 616 669 428
f 666 669 616
f 670 669 667
f 668 669 670
f 670 667 38
f 705 668 670
f 671 716 672
f 672 716 705
f 705 670 672
f 38 671 672
f 672 670 38
f 385 510 596
f 596 510 511
f 386 516 387
f 386 634 385
f 387 634 386
f 385 596 386
f 375 635 374
f 374 479 375
f 482 479 373
f 482 480 479
f 525 480 481
f 481 477 524
f 524 525 481
f 480 482 481
f 481 482 373
f 137 314 313
f 313 314 142
f 142 141 313
f 313 141 140
f 313 139 138
f 313 140 139
f 370 316 735
f 735 174 370
f 370 174 176
f 176 314 370
f 370 314 315
f 317 316 151
f 582 451 450
f 582 461 451
f 582 450 396
f 396 585 582
f 582 585 459
f 459 461 582
f 460 487 486
f 460 461 459
f 459 487 460
f 465 463 464
f 464 485 465
f 485 584 465
f 476 389 513
f 513 389 388
f 514 476 513
f 513 388 514
f 512 389 476
f 476 474 512
f 512 474 389
f 371 475 477
f 371 474 475
f 389 474 371
f 655 389 371
f 371 372 655
f 57 58 695
f 51 526 52
f 526 48 52
f 52 23 51
f 52 48 23
f 21 638 22
f 21 22 700
f 85 86 22
f 22 638 85
f 642 86 85
f 85 638 642
f 662 637 478
f 478 480 662
f 625 21 624
f 517 480 525
f 525 527 517
f 517 662 480
f 532 662 517
f 531 532 517
f 517 527 531
f 663 527 526
f 531 527 663
f 526 638 663
f 663 638 531
f 49 23 50
f 49 84 23
f 49 50 526
f 526 84 49
f 162 186 185
f 162 185 376
f 186 162 161
f 293 186 161
f 161 162 376
f 161 767 293
f 376 767 161
f 753 354 305
f 288 306 305
f 305 354 288
f 305 306 272
f 689 690 691
f 691 690 681
f 691 430 689
f 658 657 654
f 658 661 657
f 654 660 658
f 763 661 658
f 658 660 763
f 651 656 635
f 650 654 651
f 654 656 651
f 654 649 431
f 648 649 650
f 695 649 648
f 650 57 648
f 697 690 689
f 689 688 697
f 696 690 697
f 697 698 696
f 689 430 433
f 433 688 689
f 432 688 433
f 681 680 780
f 780 680 779
f 276 273 361
f 361 770 276
f 272 282 271
f 271 305 272
f 290 305 271
f 763 759 769
f 363 280 272
f 758 759 398
f 398 397 758
f 397 757 758
f 758 757 280
f 678 8 674
f 678 677 8
f 678 674 398
f 678 398 659
f 659 677 678
f 194 187 264
f 187 203 264
f 262 195 264
f 264 195 194
f 206 198 205
f 205 204 206
f 205 198 199
f 110 204 205
f 205 199 93
f 205 89 110
f 93 89 205
f 121 107 123
f 123 107 101
f 122 104 102
f 122 123 101
f 122 102 111
f 111 200 122
f 121 123 122
f 119 121 122
f 118 119 122
f 122 200 118
f 196 201 216
f 216 208 196
f 216 201 217
f 197 198 207
f 207 208 197
f 111 198 197
f 197 208 219
f 197 200 111
f 219 200 197
f 235 239 212
f 235 230 217
f 217 239 235
f 235 212 213
f 213 236 235
f 235 236 231
f 231 230 235
f 603 604 607
f 604 66 607
f 67 606 607
f 607 66 67
f 558 614 603
f 558 629 614
f 558 557 561
f 561 629 558
f 19 83 79
f 79 77 19
f 590 77 79
f 609 546 544
f 609 547 631
f 631 546 609
f 396 774 575
f 586 471 463
f 586 592 471
f 563 549 567
f 547 549 563
f 574 584 395
f 574 395 396
f 396 575 574
f 565 539 538
f 561 557 556
f 556 557 560
f 560 538 556
f 556 538 539
f 537 564 565
f 560 562 537
f 537 538 560
f 565 538 537
f 420 406 421
f 421 422 420
f 406 422 421
f 5 7 679
f 679 676 5
f 679 7 682
f 702 403 401
f 702 703 403
f 675 676 702
f 401 684 702
f 5 675 683
f 683 684 5
f 675 702 683
f 683 702 684
f 718 716 721
f 721 724 718
f 724 722 718
f 718 722 719
f 719 717 718
f 717 716 718
f 72 590 536
f 536 572 72
f 590 572 536
f 569 572 534
f 560 557 569
f 74 590 82
f 590 75 82
f 20 74 82
f 82 75 20
f 469 534 591
f 591 535 469
f 534 535 591
f 413 732 731
f 731 732 728
f 418 413 731
f 731 728 418
f 365 335 367
f 775 335 365
f 102 340 339
f 339 340 337
f 337 336 339
f 367 336 366
f 366 365 367
f 775 365 366
f 551 775 366
f 366 336 551
f 96 102 94
f 95 102 96
f 94 335 96
f 99 100 95
f 95 98 99
f 99 98 332
f 332 331 99
f 99 331 100
f 488 454 528
f 488 457 454
f 528 529 488
f 488 529 523
f 458 457 488
f 488 522 489
f 488 523 522
f 489 491 488
f 488 491 458
f 579 491 490
f 443 444 490
f 490 444 579
f 489 443 490
f 490 491 489
f 578 589 577
f 441 578 577
f 577 589 394
f 449 441 577
f 579 775 581
f 775 588 581
f 456 579 581
f 581 588 774
f 774 455 581
f 455 456 581
f 224 225 348
f 225 350 348
f 28 224 348
f 348 350 28
f 342 341 109
f 109 341 340
f 108 342 109
f 109 102 108
f 109 340 102
f 101 107 106
f 105 104 106
f 106 102 105
f 106 107 102
f 211 777 776
f 211 776 112
f 112 251 211
f 737 251 745
f 745 390 737
f 390 777 737
f 777 211 737
f 737 211 251
f 738 617 612
f 736 738 612
f 612 617 615
f 612 611 736
f 615 613 612
f 612 613 611
f 618 617 608
f 608 782 666
f 608 740 782
f 608 617 740
f 666 616 608
f 608 616 618
f 240 247 227
f 227 246 240
f 240 741 247
f 246 741 240
f 750 247 749
f 247 741 749
f 738 748 749
f 749 248 750
f 749 748 248
f 743 740 772
f 244 243 772
f 346 226 34
f 34 743 346
f 227 226 346
f 747 345 254
f 254 253 747
f 234 253 254
f 255 345 746
f 234 254 255
f 255 254 345
f 745 251 255
f 223 234 255
f 255 746 745
f 112 223 255
f 255 251 112
f 511 516 593
f 516 386 593
f 593 596 511
f 593 386 596
f 373 372 597
f 597 481 373
f 372 481 597
f 138 137 312
f 312 313 138
f 137 313 312
f 152 151 316
f 152 370 315
f 316 370 152
f 152 315 137
f 137 151 152
f 137 143 150
f 150 151 137
f 150 143 317
f 317 151 150
f 486 451 462
f 462 460 486
f 451 461 462
f 461 460 462
f 573 465 584
f 463 465 573
f 534 592 573
f 584 574 573
f 573 586 463
f 592 586 573
f 594 371 477
f 372 371 594
f 477 481 594
f 594 481 372
f 646 647 58
f 58 57 646
f 620 651 635
f 478 637 620
f 620 479 478
f 635 375 620
f 620 375 479
f 641 21 625
f 638 21 641
f 639 624 532
f 531 638 639
f 639 532 531
f 625 624 639
f 639 641 625
f 638 641 639
f 58 647 622
f 293 767 358
f 358 359 293
f 358 767 764
f 291 290 754
f 291 305 290
f 436 688 432
f 59 57 695
f 695 648 59
f 59 648 57
f 698 697 687
f 687 695 699
f 699 698 687
f 687 697 688
f 688 436 687
f 687 436 431
f 687 649 695
f 687 431 649
f 653 433 430
f 659 660 653
f 653 660 654
f 432 433 653
f 779 659 653
f 653 436 432
f 654 431 653
f 431 436 653
f 681 780 435
f 435 691 681
f 430 691 435
f 435 653 430
f 275 361 273
f 770 361 771
f 771 769 770
f 361 275 771
f 764 763 771
f 763 769 771
f 771 358 764
f 12 397 2
f 10 3 12
f 12 11 10
f 2 11 12
f 272 276 362
f 276 770 362
f 281 757 282
f 280 757 281
f 281 282 272
f 272 280 281
f 755 757 397
f 397 12 755
f 755 271 282
f 282 757 755
f 755 12 3
f 3 290 755
f 290 271 755
f 280 363 279
f 279 758 280
f 279 363 759
f 759 758 279
f 209 204 259
f 206 204 209
f 103 122 101
f 104 122 103
f 101 106 103
f 103 106 104
f 219 208 215
f 208 216 215
f 218 219 215
f 217 218 215
f 215 216 217
f 602 645 603
f 603 607 602
f 602 607 645
f 630 539 605
f 605 614 630
f 614 629 630
f 630 629 561
f 561 556 630
f 630 556 539
f 603 645 559
f 559 558 603
f 645 558 559
f 644 607 606
f 557 558 644
f 645 607 644
f 644 558 645
f 644 569 557
f 83 81 80
f 543 542 609
f 609 544 543
f 545 544 546
f 545 543 544
f 551 566 545
f 545 566 542
f 542 543 545
f 547 563 571
f 571 545 547
f 571 563 562
f 551 545 571
f 562 574 571
f 571 574 575
f 571 774 551
f 571 575 774
f 568 537 562
f 564 537 568
f 567 564 568
f 568 563 567
f 562 563 568
f 676 679 701
f 701 702 676
f 682 690 701
f 701 679 682
f 701 690 696
f 696 703 701
f 703 702 701
f 338 336 94
f 338 339 336
f 94 102 338
f 102 339 338
f 97 98 95
f 95 96 97
f 333 98 97
f 576 577 394
f 394 445 576
f 245 246 244
f 778 741 246
f 778 749 741
f 246 245 778
f 744 742 743
f 743 772 744
f 744 772 243
f 241 346 743
f 227 346 241
f 560 569 570
f 570 573 574
f 570 569 534
f 534 573 570
f 570 562 560
f 570 574 562
f 652 57 650
f 652 646 57
f 647 646 652
f 650 651 652
f 652 620 647
f 651 620 652
f 621 622 647
f 53 624 21
f 21 54 53
f 53 54 624
f 753 305 355
f 305 291 355
f 754 753 355
f 355 291 754
f 434 435 780
f 653 435 434
f 434 780 779
f 779 653 434
f 360 275 273
f 360 273 293
f 293 359 360
f 359 771 360
f 359 358 766
f 766 771 359
f 358 771 766
f 761 762 769
f 272 362 768
f 768 762 272
f 768 362 770
f 770 769 768
f 769 762 768
f 263 264 203
f 263 203 206
f 206 209 263
f 262 264 263
f 263 259 262
f 263 209 259
f 572 569 643
f 569 644 643
f 643 644 606
f 643 606 70
f 70 69 643
f 69 572 643
f 78 79 83
f 83 80 78
f 78 80 469
f 469 590 78
f 590 79 78
f 76 80 81
f 76 42 469
f 469 80 76
f 546 631 548
f 548 545 546
f 548 631 547
f 547 545 548
f 333 97 334
f 394 333 334
f 334 335 394
f 334 96 335
f 334 97 96
f 577 576 447
f 447 448 449
f 449 577 447
f 446 448 447
f 447 445 446
f 447 576 445
f 739 245 244
f 739 778 245
f 244 772 739
f 739 772 740
f 739 740 738
f 738 749 739
f 749 778 739
f 743 742 752
f 752 241 743
f 242 744 243
f 742 744 242
f 242 243 227
f 227 241 242
f 242 752 742
f 241 752 242
f 647 620 619
f 619 621 647
f 620 621 619
f 622 621 640
f 640 55 622
f 637 662 640
f 640 620 637
f 640 621 620
f 640 662 532
f 532 624 640
f 56 54 21
f 21 55 56
f 624 54 56
f 55 640 56
f 58 622 87
f 622 55 87
f 700 58 87
f 87 21 700
f 87 55 21
f 765 771 275
f 275 360 765
f 765 360 771
f 759 363 760
f 760 769 759
f 760 761 769
f 43 81 42
f 42 76 43
f 623 640 624
f 624 56 623
f 623 56 640
f 278 277 761
f 278 760 363
f 761 760 278
f 278 363 272
f 272 277 278
f 272 762 274
f 274 277 272
f 762 761 274
f 761 277 274
f 44 76 81
f 81 43 44
f 44 43 76

