# https://github.com/mikedh/trimesh
v 0.00000219 0.03096011 0.03157370
v -0.01725415 -0.02245400 -0.08676151
v -0.01728541 -0.02247811 -0.08643024
v -0.01647446 -0.02247872 -0.08988616
v -0.01562836 -0.02223789 -0.09299820
v -0.01530592 -0.02247892 -0.09321513
v -0.01373162 -0.02247865 -0.09650583
v -0.01185470 -0.02247850 -0.09953092
v -0.01303906 -0.02161355 -0.09876645
v -0.00969388 -0.02247864 -0.10230248
v -0.00707398 -0.02247832 -0.10499434
v -0.01078058 -0.01815027 -0.10380856
v -0.00825722 -0.02247850 -0.10385373
v 0.00137159 -0.01977226 -0.11103246
v 0.00170186 -0.02247889 -0.11077770
v -0.00142458 -0.02247934 -0.10916457
v -0.00128366 -0.02066916 -0.10966097
v -0.00375301 -0.02147640 -0.10800041
v -0.00601663 -0.02218239 -0.10606158
v 0.00921952 -0.02247837 -0.11313379
v 0.00714714 -0.01776861 -0.11289882
v 0.00419016 -0.01879989 -0.11211068
v 0.00821019 -0.02247844 -0.11292928
v 0.00490204 -0.02247837 -0.11202317
v 0.01336761 -0.01560635 -0.11365833
v 0.01529048 -0.00060488 -0.11369693
v 0.01106703 -0.00060526 -0.11357230
v -0.00245717 -0.00060343 -0.11119340
v -0.00397674 -0.00343296 -0.11061528
v -0.00973447 -0.00541240 -0.10787433
v -0.00691801 -0.00444096 -0.10937077
v -0.01290927 -0.00060129 -0.10627544
v -0.01611769 -0.00136352 -0.10385076
v -0.01598753 -0.00060107 -0.10397194
v -0.01621950 -0.00060100 -0.10377593
v -0.02338951 -0.00059971 -0.09535654
v -0.02712292 -0.00208597 -0.08739799
v -0.03091589 -0.00306513 -0.06813510
v -0.03126383 -0.00561172 -0.04860053
v -0.03180243 -0.00290192 -0.04858174
v -0.03201947 -0.00220768 -0.03615663
v 0.01154370 -0.01027159 -0.11357594
v 0.00521733 -0.01250560 -0.11269906
v -0.00426969 -0.02247865 -0.10729640
v -0.00856152 -0.01739161 -0.10595249
v -0.00613586 -0.01654671 -0.10784193
v -0.00352261 -0.01562436 -0.10946467
v -0.00074334 -0.01463509 -0.11081421
v 0.01029776 -0.02247838 -0.11331645
v 0.01234435 -0.02180231 -0.11356974
v 0.01528857 -0.02086315 -0.11369652
v 0.01529040 -0.02247834 -0.11369588
v -0.03155018 -0.00060333 -0.06121320
v -0.03138336 -0.00302027 -0.06160944
v -0.03102351 -0.00060146 -0.06847609
v -0.02209361 -0.01875515 -0.08064944
v -0.03191718 -0.00060341 -0.04988148
v -0.03083668 -0.00579029 -0.06162849
v -0.02672863 -0.00503360 -0.08752473
v -0.02773328 -0.00849971 -0.08116009
v -0.02667439 -0.01131708 -0.08109382
v -0.02623689 -0.01406193 -0.07448297
v -0.02766607 -0.01145846 -0.07460054
v -0.02816589 -0.00060037 -0.08434313
v -0.02894321 -0.00267581 -0.08108164
v -0.02882062 -0.00870788 -0.07467175
v -0.02949188 -0.00866422 -0.06814323
v -0.02825633 -0.01132993 -0.06807671
v -0.02989932 -0.00848374 -0.06160976
v -0.03039025 -0.00589373 -0.06816351
v -0.02965883 -0.00586462 -0.07468633
v -0.03014827 -0.00297926 -0.07463992
v -0.01716664 -0.00801285 -0.10184114
v -0.01845838 -0.00215813 -0.10163579
v -0.01872263 -0.00059989 -0.10141712
v -0.01038175 -0.00250999 -0.10776569
v -0.00966464 -0.00060153 -0.10820869
v -0.01239850 -0.00633780 -0.10611973
v -0.01559309 -0.00429136 -0.10404538
v -0.02111211 -0.00059927 -0.09865108
v -0.02058326 -0.00288804 -0.09918233
v -0.01922747 -0.00874506 -0.09933706
v -0.02448049 -0.00117356 -0.09344976
v -0.02849979 -0.00560264 -0.08115850
v -0.02155476 -0.01276570 -0.09359984
v -0.02263255 -0.00996309 -0.09370893
v -0.02507328 -0.01082400 -0.08750737
v -0.02350412 -0.00706866 -0.09373266
v -0.01591066 -0.01694294 -0.09895497
v -0.01885022 -0.01493070 -0.09635951
v -0.01715286 -0.01433421 -0.09910813
v 0.00192168 -0.00060362 -0.11234728
v 0.00217123 -0.00134325 -0.11239850
v 0.00599904 -0.00060418 -0.11307164
v 0.00357618 -0.00699965 -0.11255034
v -0.00250591 -0.00913861 -0.11071181
v -0.00538258 -0.01015632 -0.10941625
v -0.00811564 -0.01112575 -0.10786027
v -0.01068044 -0.01203702 -0.10604332
v -0.01488377 -0.00720765 -0.10410657
v -0.01305423 -0.01288089 -0.10397057
v -0.01521708 -0.01364901 -0.10165308
v -0.01826307 -0.01159108 -0.09925227
v -0.02030351 -0.01543436 -0.09343781
v -0.02002273 -0.01827968 -0.09020692
v -0.02248970 -0.01615668 -0.08723290
v -0.02456964 -0.01646394 -0.07433418
v -0.02382908 -0.01649696 -0.08081807
v -0.02536184 -0.01400079 -0.08097348
v -0.02388070 -0.01357202 -0.08739085
v 0.00993263 -0.00479126 -0.11348264
v -0.01277724 -0.01881576 -0.10142770
v -0.01445697 -0.02197953 -0.09595831
v -0.01655742 -0.02239340 -0.08992050
v -0.01836839 -0.02047962 -0.09004726
v -0.01916883 -0.02064948 -0.08690031
v -0.02603518 -0.00796149 -0.08755791
v -0.02678203 -0.00059897 -0.08843259
v -0.02519561 -0.00059952 -0.09207167
v -0.02413068 -0.00412536 -0.09364958
v -0.02001395 -0.00583179 -0.09932245
v -0.01453947 -0.01938312 -0.09883232
v -0.01752482 -0.01748536 -0.09619146
v -0.01605962 -0.01984953 -0.09604928
v -0.01889492 -0.01793113 -0.09326355
v -0.01733498 -0.02021441 -0.09310944
v -0.02091680 -0.01853272 -0.08706239
v -0.02016281 -0.02071680 -0.08048218
v -0.01772367 -0.02247895 -0.08285745
v 0.03187590 -0.02247824 -0.10923951
v 0.02687773 -0.02247825 -0.11160077
v 0.02687763 0.02621246 -0.11160076
v 0.02069614 -0.02247826 -0.11325122
v 0.02069603 0.02621245 -0.11325122
v 0.01529039 0.02621251 -0.11369598
v 0.01197672 -0.02247889 -0.11352871
v 0.01164681 0.02621243 -0.11349592
v 0.00807707 0.02621241 -0.11290182
v -0.00769750 0.02621239 -0.10441057
v 0.03187579 0.02621247 -0.10923951
v -0.03145762 0.00982068 -0.00421741
v -0.03097517 0.01159063 -0.00421633
v -0.02988260 0.01454146 -0.00421439
v -0.03225432 0.00469159 -0.00421888
v -0.03206024 0.00029349 -0.03615730
v -0.03179561 0.00821648 -0.00421816
v -0.02395676 -0.02408301 -0.00629195
v -0.02612524 -0.02163077 -0.00619345
v -0.00604307 -0.03143068 -0.00619245
v -0.01253049 -0.03027417 -0.00638642
v -0.03219435 -0.00705759 0.00392118
v -0.03159511 -0.00980467 -0.00559878
v -0.03151978 -0.01080155 0.00391953
v -0.03072044 -0.01297443 -0.00576856
v -0.03048659 -0.01428379 0.00391895
v -0.02950806 -0.01602948 -0.00592766
v -0.02907151 -0.01758963 0.00391913
v -0.02797145 -0.01892630 -0.00607087
v -0.02557263 -0.02295516 0.00392214
v -0.02385212 -0.02479609 0.00392396
v -0.01271172 -0.03057811 -0.00108269
v -0.00925681 -0.03153821 0.00392056
v -0.00621829 -0.03178101 -0.00093174
v -0.00632175 -0.03197446 0.00392133
v 0.00000078 -0.03195464 -0.00244758
v 0.00000337 -0.03234475 0.00392301
v -0.01906998 -0.02821110 0.00392434
v -0.01826181 -0.02863146 0.00392391
v -0.01565423 -0.02923841 -0.00641625
v -0.01620602 -0.02955755 0.00392268
v -0.00526119 -0.03208624 0.00392180
v -0.01864418 -0.02787377 -0.00640643
v -0.03213662 -0.00654884 -0.00542231
v -0.02176068 -0.02652380 0.00392510
v -0.02143907 -0.02616418 -0.00636343
v -0.00174712 -0.03310220 0.02928304
v 0.00000350 -0.03310637 0.02928302
v 0.00000169 -0.03198625 0.03157387
v -0.00612653 -0.03289090 0.02928385
v -0.00981794 -0.03236796 0.02928224
v -0.01153615 -0.03197868 0.02928341
v -0.01533876 -0.02944413 0.03157404
v -0.01112503 -0.03091556 0.03157399
v -0.01318650 -0.03150111 0.02928435
v -0.02612178 -0.01991127 0.03157413
v -0.02330854 -0.02361622 0.03157411
v -0.02217946 -0.02646285 0.02928250
v -0.02289047 -0.02406660 0.03157410
v -0.02074997 -0.02761559 0.02928205
v -0.01821961 -0.02928091 0.02928276
v -0.01591046 -0.03045743 0.02928212
v -0.01550921 -0.03063302 0.02928231
v -0.02813903 -0.01904245 0.02928384
v -0.02958395 -0.01615386 0.02928307
v -0.03079367 -0.01303275 0.02928362
v -0.03138257 -0.01114340 0.02928303
v -0.03133661 -0.00521107 0.03157414
v -0.03231348 -0.00704264 0.02928304
v -0.03016508 -0.01074156 0.03157415
v -0.03181310 -0.00949977 0.02928301
v -0.03248822 -0.00588681 0.02928286
v -0.03267551 -0.00417033 0.02928282
v -0.03165068 -0.00059590 0.03157413
v -0.03280375 -0.00060260 0.02928292
v -0.01388140 0.02942139 0.02928291
v -0.01335736 0.02828552 0.03157386
v -0.03238553 0.00462655 0.02928151
v -0.03254379 0.00355581 0.02928196
v -0.03281070 -0.00020857 0.02928338
v -0.03259827 0.00311637 0.02928225
v -0.03192422 0.00692726 0.02928141
v -0.03123431 0.00443758 0.03157412
v -0.03096435 0.01026208 0.02928051
v -0.02967197 0.01354629 0.02928242
v -0.03001409 0.00938193 0.03157410
v -0.02900716 0.01494248 0.02928284
v -0.02255569 0.02368447 0.02928317
v -0.02342901 0.02282280 0.02928468
v -0.02421050 0.02198993 0.02928475
v -0.02632301 0.01936829 0.02928345
v -0.02795758 0.01436180 0.03157405
v -0.02817716 0.01648818 0.02928360
v -0.01481535 0.02899697 0.02928277
v -0.01555522 0.02863314 0.02928285
v -0.01773912 0.02589794 0.03157390
v -0.01839851 0.02698711 0.02928216
v -0.02170798 0.02275114 0.03157395
v -0.02100679 0.02505868 0.02928309
v -0.01177368 0.03024541 0.02928353
v -0.00859971 0.03117230 0.02928237
v -0.00856863 0.02992923 0.03157379
v -0.00529479 0.03178988 0.02928232
v -0.00352840 0.03079480 0.03157374
v -0.00367994 0.03197739 0.02928223
v -0.02839748 -0.01563939 0.03157415
v -0.01943242 -0.02708221 0.03157408
v -0.02504971 0.01902463 0.03157401
v -0.00645690 -0.03172799 0.03157394
v -0.03245623 0.00277493 0.00392871
v -0.03221853 0.00565224 0.00393129
v -0.03142190 0.01005739 0.00392859
v -0.03049003 0.01310466 0.00392488
v -0.02988566 0.01463139 0.00392423
v -0.02913204 0.01625090 0.00392314
v -0.02544417 0.02186025 0.00392375
v -0.02340872 0.02347879 0.01616987
v -0.02735164 0.01930929 0.00392201
v 0.00000156 -0.03249504 0.00810894
v -0.02645450 -0.02171090 0.02928203
v -0.02432912 -0.02436190 0.02928129
v -0.03249180 -0.00313336 0.00392288
v -0.02735202 -0.02055790 0.00392066
v -0.03252600 -0.00060165 0.00392349
v -0.03227985 0.00488295 -0.00014885
v -0.03148702 0.00988440 -0.00014847
v -0.02754186 0.01902996 -0.00014773
v -0.02852537 0.01723763 -0.00421346
v -0.02992091 0.01462920 -0.00014784
v -0.03210295 0.00654724 0.00393138
v 0.00396966 0.00864864 -0.11261716
v 0.01354502 0.01840202 -0.11366472
v -0.02934211 -0.00060088 -0.07971393
v -0.03181448 0.00220334 -0.04873354
v -0.03139866 0.00227205 -0.06186706
v -0.02978010 0.00535817 -0.07500047
v -0.03029657 -0.00060060 -0.07446139
v -0.02698619 0.00124889 -0.08778536
v -0.02545900 0.00414805 -0.09096171
v -0.02399080 0.00370158 -0.09396119
v -0.02228330 0.00318735 -0.09680744
v -0.02033787 0.00261010 -0.09946377
v -0.01319920 0.00056228 -0.10606649
v -0.01816391 0.00197566 -0.10190319
v -0.02085416 -0.00059926 -0.09897924
v 0.00904953 0.02572300 -0.11311511
v 0.01214641 0.02489142 -0.11355517
v 0.00710905 0.02026646 -0.11290795
v 0.00717021 0.02621241 -0.11268532
v 0.00402959 0.02117245 -0.11211675
v 0.00107791 0.02203580 -0.11103754
v 0.00458899 0.02621241 -0.11191785
v -0.00676818 0.02422702 -0.10610390
v -0.00899492 0.01898608 -0.10605674
v -0.00897710 0.02479023 -0.10393495
v -0.01136273 0.01971147 -0.10393433
v -0.01351070 0.02036404 -0.10157966
v -0.01542447 0.02093848 -0.09901489
v -0.02887575 0.00178049 -0.08145563
v -0.02855996 0.00506312 -0.08149105
v -0.02669603 0.00452344 -0.08785636
v -0.00527984 0.01142543 -0.10951883
v -0.00230078 0.01051962 -0.11080144
v -0.00367501 0.01734614 -0.10953891
v -0.00076714 0.01644992 -0.11087840
v 0.00271393 0.00258886 -0.11248824
v 0.00919620 0.00078816 -0.11343378
v 0.01194078 0.01263329 -0.11359885
v -0.00812030 0.01229929 -0.10797781
v -0.01079677 0.01313226 -0.10617815
v -0.01556507 0.01464173 -0.10182898
v -0.01761830 0.01530277 -0.09930702
v -0.01709411 0.02143104 -0.09626611
v -0.01943239 0.01589245 -0.09658215
v -0.01983445 0.01924070 -0.09351204
v -0.02100047 0.01640535 -0.09368412
v -0.03137254 0.00527721 -0.04872476
v -0.03097988 0.00544868 -0.06186183
v -0.02889254 0.01179616 -0.06833635
v -0.02985815 0.00867130 -0.06840696
v -0.02828216 0.01181361 -0.07489070
v -0.03053679 0.00546578 -0.06844304
v -0.02916304 0.00861938 -0.07496693
v -0.02800111 0.00835304 -0.08146627
v -0.02720287 0.01158908 -0.08139036
v -0.02545869 0.01106480 -0.08778665
v -0.02452824 0.01420960 -0.08767045
v -0.02232248 0.01683730 -0.09064964
v -0.00457568 -0.00060323 -0.11047245
v -0.00357118 0.00437335 -0.11071545
v -0.00650917 -0.00060274 -0.10970790
v -0.01045414 -0.00020217 -0.10777678
v -0.00947137 0.00609196 -0.10799558
v -0.01221017 0.00690733 -0.10625727
v -0.01577734 0.00129067 -0.10410751
v -0.01713585 0.00840887 -0.10202022
v -0.02720346 -0.00059916 -0.08729859
v -0.03024746 0.00858080 -0.06182684
v -0.02616400 0.01754900 -0.06812633
v -0.02765512 0.01477641 -0.06823919
v -0.02578114 0.01772550 -0.07465281
v -0.02493438 0.01762392 -0.08113700
v -0.02348779 0.02029344 -0.08099169
v -0.02920886 0.01161857 -0.06176607
v -0.02714987 0.01487181 -0.07478177
v -0.02617630 0.01470222 -0.08127567
v -0.02340630 0.01718559 -0.08752269
v -0.02210244 0.01993713 -0.08736566
v -0.02618510 0.00781457 -0.08785336
v -0.02427346 0.01068246 -0.09092006
v -0.02285245 0.01022138 -0.09395479
v -0.02118735 0.00968515 -0.09684089
v -0.01927898 0.00907886 -0.09953914
v -0.01477291 0.00768238 -0.10426372
v -0.01328541 0.01391576 -0.10412495
v -0.00642534 0.01819482 -0.10792921
v -0.00434327 0.02357472 -0.10802154
v -0.00493660 0.02621239 -0.10679452
v -0.00195833 0.02621240 -0.10884886
v 0.00122052 0.02621240 -0.11055923
v -0.00172085 0.02284089 -0.10967027
v 0.00542188 0.01456104 -0.11274652
v 0.00000150 -0.03246672 0.00723818
v 0.00000314 0.03214996 0.02928299
v 0.00000094 -0.03209887 -0.00036499
v 0.04698204 0.02621250 -0.07107457
v 0.04783824 -0.02247817 -0.07462034
v 0.04837481 -0.02247817 -0.08135809
v 0.04826040 0.02621250 -0.07775281
v 0.04814700 -0.02247817 -0.08455134
v 0.04753124 -0.02247817 -0.08806431
v 0.04664642 -0.02247817 -0.09118318
v 0.04664631 0.02621251 -0.09118318
v 0.04534271 -0.02247817 -0.09445927
v 0.04382200 0.02621250 -0.09736835
v 0.04382211 -0.02247817 -0.09736835
v 0.04190054 -0.02247817 -0.10027619
v 0.03979320 0.02621249 -0.10284574
v 0.03472998 0.02621248 -0.10738411
v 0.03734830 -0.02247817 -0.10527240
v 0.03187590 -0.02247817 -0.10923951
v 0.03979331 -0.02247817 -0.10284574
v 0.04826051 -0.02247817 -0.07775281
v 0.04814689 0.02621251 -0.08455134
v 0.01453952 0.02759505 0.03157352
v 0.01804453 0.02558337 0.03157352
v 0.01281582 0.02837859 0.03157352
v 0.01000548 0.02940870 0.03157353
v 0.02541378 0.01858055 0.03157353
v 0.02636206 0.01722018 0.03157352
v 0.02799494 0.01440464 0.03157352
v 0.00511729 0.03055676 0.03157352
v 0.00146880 0.03092567 0.03157352
v 0.00000316 0.03096021 0.03157352
v 0.02922680 0.01165807 0.03157353
v 0.02990484 0.00974099 0.03157352
v 0.03085936 0.00595786 0.03157353
v 0.01456849 -0.02968377 0.03157352
v 0.01869293 -0.02750641 0.03157352
v 0.02299054 -0.02390024 0.03157352
v 0.03144609 -0.00171699 0.03157352
v 0.03146200 -0.00060248 0.03157352
v 0.03107939 0.00465717 0.03157352
v 0.03121463 -0.00503953 0.03157353
v 0.03087170 -0.00742727 0.03157352
v 0.00824346 -0.03141885 0.03157352
v 0.01040776 -0.03099881 0.03157352
v 0.02626491 -0.01966968 0.03157353
v 0.02657732 -0.01916347 0.03157352
v 0.02842391 -0.01559540 0.03157353
v 0.02937490 -0.01318258 0.03157352
v 0.03019950 -0.01049275 0.03157352
v 0.00614071 -0.03279448 0.02928292
v 0.02193730 -0.02494673 0.03157353
v 0.03265943 -0.00060226 0.02928299
v 0.03171054 -0.00926949 0.02928297
v 0.03203575 -0.00765999 0.02928266
v 0.03239870 -0.00519424 0.02928278
v 0.02492085 -0.02342902 0.02928272
v 0.02675349 -0.02100621 0.02928290
v 0.02720922 -0.02031334 0.02928244
v 0.02813267 -0.01876822 0.02928200
v 0.02960740 -0.01577663 0.02928492
v 0.03080178 -0.01260038 0.02928417
v 0.03132457 -0.01083401 0.02928338
v 0.02061456 -0.02749990 0.02928292
v 0.02287911 -0.02559255 0.02928314
v 0.01825048 -0.02906900 0.02928402
v 0.01908553 -0.02855794 0.02928390
v 0.00835698 -0.03250139 0.02928316
v 0.01128580 -0.03189752 0.02928333
v 0.01368217 -0.03002932 0.03157353
v 0.01408553 -0.03103076 0.02928378
v 0.01569694 -0.03037769 0.02928258
v 0.00000329 -0.03198642 0.03157352
v 0.00593079 -0.03171560 0.03157352
v 0.00529396 -0.03287663 0.02928294
v 0.00337786 0.03197816 0.02928255
v 0.00684058 0.03023990 0.03157352
v 0.00621206 0.03157384 0.02928191
v 0.00530977 0.03172840 0.02928205
v 0.01435008 0.02900121 0.02928303
v 0.01361668 0.02932869 0.02928304
v 0.01050394 0.03049547 0.02928273
v 0.00729227 0.03135655 0.02928205
v 0.02229864 0.02377676 0.02928301
v 0.01865589 0.02516576 0.03157352
v 0.01984453 0.02577573 0.02928321
v 0.01719354 0.02751672 0.02928323
v 0.01508316 0.02865217 0.02928302
v 0.02570882 0.02013551 0.02928300
v 0.02262804 0.02182417 0.03157352
v 0.02366431 0.02245985 0.02928219
v 0.02955263 0.01389383 0.02928296
v 0.02751776 0.01760544 0.02928266
v 0.02635617 0.01929117 0.02928281
v 0.03250651 0.00277544 0.02928296
v 0.03228046 0.00467577 0.02928321
v 0.03102238 0.01012412 0.02928305
v 0.00635957 -0.03203324 0.00723841
v 0.00290745 -0.03222365 0.00301833
v 0.00048743 -0.03246751 0.00723833
v 0.00610950 -0.03189055 0.00294970
v 0.00000062 -0.03176989 -0.00464513
v 0.00288618 -0.03196336 -0.00115442
v 0.00401408 0.03190808 0.02928240
v 0.02907692 0.01487496 0.02928300
v 0.03165990 0.00786211 0.02928311
v 0.03075035 0.01093711 0.02928310
v 0.03250582 -0.00413609 0.02928310
v 0.00414703 -0.03229448 0.00723862
v 0.00432383 -0.03295356 0.02928309
v 0.01110353 0.02971248 -0.11175207
v 0.03551501 0.02971252 -0.10516237
v 0.03120770 0.02971251 -0.10807171
v 0.02146240 0.02971250 -0.11158774
v 0.01628977 0.02971249 -0.11209869
v 0.03928525 0.02971253 -0.10158431
v 0.04241576 0.02971254 -0.09743495
v 0.04482130 0.02971255 -0.09282728
v 0.00604489 0.02971245 -0.11055730
v 0.00292091 0.04141246 -0.05824966
v 0.00949565 0.04141247 -0.09592254
v 0.00064274 0.04141244 -0.05972611
v 0.02136644 0.04141250 -0.05214384
v 0.02190980 0.04141250 -0.05257081
v 0.01542120 0.04141248 -0.05160502
v 0.02005435 0.04141250 -0.05191788
v -0.00623058 0.04141244 -0.06717275
v -0.00280310 0.04141243 -0.09699855
v -0.00427430 0.04141243 -0.06439485
v -0.00196987 0.04141244 -0.06189820
v -0.00984274 0.04141243 -0.08347153
v -0.00924327 0.04141242 -0.08681583
v -0.00820942 0.04141243 -0.09005232
v 0.00997150 0.04141247 -0.09577115
v -0.00371890 0.04141239 -0.09689121
v -0.00491758 0.04141243 -0.09598008
v -0.00675914 0.04141243 -0.09312484
v -0.00780476 0.04141244 -0.07018366
v -0.00896953 0.04141243 -0.07337537
v -0.00310029 0.04141243 -0.09700540
v 0.02424774 0.04141250 -0.08286887
v 0.02380155 0.04141251 -0.07706937
v 0.02454040 0.04141250 -0.08091848
v 0.02438911 0.04141251 -0.07895206
v 0.02241176 0.04141250 -0.08633163
v 0.02352599 0.04141250 -0.08470429
v -0.00408904 0.03915657 -0.09990453
v -0.00470651 0.03894264 -0.09999642
v -0.00486268 0.03886823 -0.10002325
v 0.03981350 0.03769731 -0.09052985
v 0.03455631 0.03770521 -0.09855565
v 0.04090185 0.03769732 -0.08731627
v 0.04090185 0.03769732 -0.07388905
v 0.03981350 0.03769730 -0.07067547
v 0.03831585 0.03769731 -0.09357430
v 0.03837208 0.03765396 -0.09360668
v 0.03715336 0.03765396 -0.09552449
v 0.03648595 0.03765395 -0.09643718
v 0.03643442 0.03769730 -0.09639775
v 0.03917135 0.03765396 -0.09210775
v 0.03987346 0.03765396 -0.09055463
v 0.04156237 0.03769732 -0.08398830
v 0.04162671 0.03765395 -0.08399675
v 0.04117543 0.03765395 -0.08648782
v 0.04096454 0.03765395 -0.08733303
v 0.04064716 0.03765396 -0.08842422
v 0.04184869 0.03765396 -0.08060266
v 0.04177517 0.03765396 -0.07864654
v 0.04178381 0.03769732 -0.08060266
v 0.04064716 0.03765396 -0.07278110
v 0.04096454 0.03765396 -0.07387230
v 0.04117543 0.03765396 -0.07471749
v 0.04156237 0.03769732 -0.07721701
v 0.04162671 0.03765396 -0.07720856
v 0.01249045 0.03769726 -0.10638607
v 0.03374310 0.03770521 -0.09936886
v 0.03372920 0.03770327 -0.09939116
v 0.00987502 0.03765389 -0.10598102
v 0.03153941 0.03769729 -0.10128193
v 0.02570852 0.03769728 -0.10462967
v 0.02251777 0.03769727 -0.10571064
v 0.01337350 0.03765389 -0.10654894
v 0.01248222 0.03765389 -0.10645044
v 0.01922257 0.03765390 -0.10643419
v 0.01921403 0.03769727 -0.10636987
v 0.01706884 0.03765390 -0.10662985
v 0.01585277 0.03769726 -0.10659628
v 0.01585292 0.03765390 -0.10666116
v 0.02073846 0.03765391 -0.10618710
v 0.02253457 0.03765393 -0.10577331
v 0.02430852 0.03765393 -0.10522960
v 0.02573328 0.03765393 -0.10468965
v 0.02770719 0.03765393 -0.10377663
v 0.02873266 0.03769729 -0.10314512
v 0.02876497 0.03765394 -0.10320139
v 0.03086610 0.03765394 -0.10185741
v 0.03157872 0.03765394 -0.10133354
v 0.02191406 0.04141248 -0.05256916
v 0.02214580 0.04136924 -0.05247600
v 0.02254183 0.04138198 -0.08644416
v 0.02106316 0.04138198 -0.08780709
v 0.02367795 0.04138198 -0.08478487
v 0.02441388 0.04138198 -0.08291339
v 0.02471228 0.04138198 -0.08092468
v 0.02455802 0.04138199 -0.07891963
v 0.02096158 0.04141250 -0.08766830
v 0.01659841 0.04141249 -0.08932126
v 0.00989925 0.04138353 -0.09599055
v 0.01024574 0.04138394 -0.09577920
v 0.00951055 0.04138231 -0.09609291
v -0.00278820 0.04138229 -0.09716891
v -0.00406535 0.04138278 -0.09691878
v -0.00412136 0.04129760 -0.09705878
v -0.00463023 0.04128939 -0.09674677
v -0.00461298 0.04137913 -0.09656721
v -0.00520143 0.04126599 -0.09619086
v -0.00345108 0.04138358 -0.09712848
v -0.00348208 0.04130215 -0.09727155
v -0.00409041 0.04129801 -0.09707326
v -0.00435331 0.04141240 -0.09655385
v -0.00639394 0.04137437 -0.06707312
v -0.00797980 0.04137436 -0.07010636
v -0.00915321 0.04137436 -0.07332176
v -0.00970468 0.04141243 -0.07669249
v -0.00989381 0.04137437 -0.07666348
v -0.00999744 0.04141243 -0.08007745
v -0.01003290 0.04137437 -0.08349282
v -0.00942898 0.04137437 -0.08686192
v -0.01021675 0.04126598 -0.07790444
v -0.01018874 0.04137437 -0.08007356
v -0.01031741 0.04126598 -0.08202896
v -0.00958641 0.04126598 -0.08690100
v -0.01012716 0.04126598 -0.08405697
v -0.00925913 0.04126598 -0.08809751
v -0.00838746 0.04137437 -0.09012242
v -0.00853839 0.04126598 -0.09018185
v -0.00776540 0.04126598 -0.09195056
v -0.00692642 0.04137437 -0.09321773
v -0.00568336 0.04126599 -0.09551999
v -0.00507120 0.04137437 -0.09609415
v 0.01130360 0.04141248 -0.05195180
v -0.00588321 0.03841244 -0.09987096
v -0.00519074 0.03868461 -0.10008445
v 0.00563595 0.03534310 -0.10709254
v 0.00626582 0.03598439 -0.10664366
v 0.00399890 0.03471246 -0.10709733
v 0.00451539 0.03477991 -0.10724797
v 0.00502301 0.03496374 -0.10725895
v 0.01275428 0.03471247 -0.10944332
v 0.01259496 0.03471851 -0.10942003
v 0.01158182 0.03510373 -0.10890018
v 0.01164713 0.03505419 -0.10895989
v 0.01192318 0.03489218 -0.10916235
v 0.01211473 0.03481525 -0.10926521
v 0.01123876 0.03547924 -0.10846662
v 0.03365394 0.03534316 -0.10264137
v 0.03358014 0.03598445 -0.10187145
v 0.03322827 0.03477997 -0.10368952
v 0.03349159 0.03496381 -0.10325540
v 0.03364409 0.03528566 -0.10272329
v 0.03924895 0.03471253 -0.09765210
v 0.03914912 0.03471856 -0.09777844
v 0.03877492 0.03481530 -0.09811691
v 0.03764533 0.03547931 -0.09847623
v 0.03819234 0.03510380 -0.09839591
v 0.03827671 0.03505426 -0.09836920
v 0.03859007 0.03489223 -0.09823138
v 0.03745916 0.03562786 -0.09846887
v 0.03689699 0.03614451 -0.09833668
v 0.03627026 0.03672631 -0.09817593
v 0.03591970 0.03700493 -0.09815530
v 0.03531548 0.03740601 -0.09823199
v 0.04374452 0.03471254 -0.08831961
v 0.04271633 0.03471254 -0.09137202
v 0.04191681 0.03471253 -0.09318821
v 0.04181057 0.03471253 -0.09340642
v 0.03956480 0.03471253 -0.09720883
v 0.04404086 0.03471254 -0.08715213
v 0.04177517 0.03765396 -0.08255878
v 0.04470830 0.03471255 -0.08277958
v 0.04479012 0.03471255 -0.08060266
v 0.04470830 0.03471255 -0.07842574
v 0.04467331 0.03471255 -0.07800248
v 0.04445388 0.03471255 -0.07619939
v 0.04374453 0.03471255 -0.07288572
v 0.03987346 0.03765396 -0.07065069
v 0.03283956 0.03471252 -0.10406148
v 0.01115204 0.03562779 -0.10830171
v 0.01065387 0.03700487 -0.10681172
v 0.01028536 0.03740595 -0.10632678
v 0.01016666 0.03749367 -0.10621130
v 0.03360192 0.03765395 -0.09962341
v 0.03340309 0.03736503 -0.10019790
v 0.03336623 0.03723445 -0.10040590
v 0.03352414 0.03614450 -0.10170954
v 0.03362625 0.03581145 -0.10205825
v 0.01923877 0.03471249 -0.10939688
v 0.01700179 0.03471248 -0.10957734
v 0.01517010 0.03471248 -0.10959604
v 0.02527006 0.03471250 -0.10800943
v 0.02328354 0.03471250 -0.10861780
v 0.02122329 0.03471249 -0.10908916
v 0.02717694 0.03471250 -0.10727363
v 0.02532811 0.03471250 -0.10798928
v -0.00802692 0.03841243 -0.09714803
v -0.00780651 0.03841243 -0.09746088
v -0.01309608 0.03841241 -0.08316931
v -0.01035092 0.04126598 -0.08007026
v -0.01019410 0.04126598 -0.08351085
v -0.01255737 0.03841241 -0.08671989
v -0.00976803 0.04126598 -0.08611796
v -0.01219100 0.03841241 -0.08822218
v -0.01124221 0.03841241 -0.09110283
v -0.01040920 0.03841243 -0.09303632
v -0.01033618 0.03841243 -0.09318904
v -0.00706823 0.04126598 -0.09329649
v 0.00612710 0.03581138 -0.10677700
v 0.00556008 0.03528559 -0.10712497
v 0.00762663 0.03736498 -0.10565356
v 0.00742806 0.03723438 -0.10572564
v 0.00685976 0.03674639 -0.10604707
v 0.00244609 0.03471246 -0.10635022
v 0.00822356 0.03765389 -0.10553851
v 0.01098544 0.03614445 -0.10774876
v 0.01081129 0.03672625 -0.10712562
v 0.03457862 0.03770327 -0.09854174
v 0.03481087 0.03765395 -0.09841447
v 0.03515612 0.03749372 -0.09827702
v 0.03341058 0.03649578 -0.10134560
v 0.03336044 0.03674645 -0.10105878
v 0.02129702 0.03471249 -0.10907499
v 0.03084050 0.03471251 -0.10539148
v 0.02922812 0.03471251 -0.10630130
v 0.04076559 0.03471253 -0.09534124
v 0.04445388 0.03471255 -0.08500593
v 0.04467332 0.03471255 -0.08320285
v 0.04404086 0.03471255 -0.07405320
v 0.02648059 0.02971251 -0.11023312
v 0.04643637 0.02971255 -0.08788676
v 0.04721700 0.02971255 -0.08274790
v 0.04714192 0.02971256 -0.07755063
v 0.04621320 0.02971254 -0.07243647
v -0.00561100 0.03839289 -0.10017285
v -0.01320169 0.03841241 -0.07991322
v -0.01295569 0.03841241 -0.08443396
v -0.00925398 0.03841243 -0.09522434
f 134 133 26
f 134 131 133
f 367 369 368
f 25 52 50
f 133 131 165
f 419 360 359
f 449 360 419
f 169 161 170
f 170 168 169
f 150 169 4
f 150 161 169
f 148 62 107
f 144 146 263
f 263 146 306
f 209 203 210
f 242 213 214
f 242 258 142
f 130 368 369
f 364 366 367
f 458 384 385
f 215 384 206
f 215 214 213
f 213 211 215
f 423 372 356
f 485 471 493
f 550 505 504
f 477 592 476
f 477 474 493
f 493 471 477
f 477 471 592
f 550 556 549
f 524 556 550
f 550 504 524
f 524 555 556
f 149 16 15
f 15 24 149
f 17 15 16
f 47 15 17
f 371 369 367
f 367 366 371
f 453 52 133
f 133 165 453
f 149 24 453
f 453 165 149
f 358 372 357
f 356 372 358
f 404 356 358
f 358 446 404
f 447 446 358
f 360 449 361
f 180 161 162
f 161 150 162
f 176 179 352
f 352 179 171
f 175 160 147
f 7 8 149
f 263 264 57
f 57 264 53
f 40 57 54
f 54 57 53
f 204 203 209
f 204 202 203
f 193 249 185
f 56 147 148
f 148 107 56
f 153 196 200
f 153 200 198
f 156 67 68
f 154 153 152
f 146 144 254
f 241 213 242
f 241 211 213
f 226 225 224
f 224 225 206
f 427 549 474
f 220 219 245
f 143 142 258
f 216 222 244
f 244 214 216
f 141 306 146
f 228 225 226
f 131 134 132
f 467 367 463
f 367 368 463
f 51 52 25
f 25 261 51
f 51 261 26
f 26 133 51
f 133 52 51
f 469 364 468
f 467 612 468
f 468 367 467
f 468 364 367
f 365 364 363
f 366 364 365
f 362 364 469
f 360 361 362
f 363 364 362
f 362 361 363
f 447 358 457
f 457 358 355
f 237 215 206
f 237 219 220
f 220 222 237
f 384 215 212
f 207 208 212
f 212 211 207
f 212 215 211
f 212 210 203
f 212 208 210
f 185 249 186
f 396 395 419
f 190 236 189
f 184 192 170
f 184 170 161
f 384 458 443
f 443 380 384
f 442 636 435
f 408 416 356
f 416 408 389
f 389 408 397
f 411 399 398
f 399 397 398
f 399 393 178
f 178 397 399
f 395 396 178
f 385 384 386
f 384 212 386
f 386 457 385
f 447 457 386
f 459 356 404
f 412 399 411
f 411 356 412
f 356 413 412
f 401 393 399
f 580 228 226
f 217 228 580
f 523 635 525
f 525 524 523
f 523 524 504
f 521 504 505
f 521 437 435
f 435 636 521
f 493 474 475
f 474 549 475
f 556 555 494
f 46 17 16
f 98 47 46
f 47 17 46
f 99 45 101
f 98 46 99
f 99 46 45
f 102 73 101
f 14 15 47
f 48 24 14
f 24 15 14
f 454 371 366
f 369 371 454
f 454 130 369
f 454 165 131
f 131 130 454
f 52 453 136
f 136 50 52
f 20 453 23
f 23 453 24
f 24 22 23
f 23 21 20
f 43 21 23
f 23 22 43
f 363 361 452
f 452 361 449
f 449 460 452
f 452 365 363
f 164 179 180
f 180 162 164
f 171 179 164
f 148 147 159
f 147 160 159
f 149 150 6
f 6 7 149
f 6 150 4
f 8 7 9
f 308 310 309
f 66 67 70
f 311 309 312
f 312 309 310
f 312 310 314
f 239 144 263
f 239 254 144
f 209 210 239
f 210 254 239
f 39 152 40
f 311 312 265
f 288 265 289
f 266 265 288
f 55 264 311
f 311 265 55
f 55 265 266
f 53 264 55
f 40 152 173
f 199 196 195
f 200 196 199
f 69 67 156
f 156 154 69
f 210 208 240
f 240 254 210
f 207 211 255
f 211 241 255
f 255 141 146
f 142 141 255
f 242 142 255
f 255 241 242
f 206 229 205
f 232 230 231
f 231 233 232
f 206 233 231
f 231 229 206
f 231 230 229
f 435 437 436
f 476 592 353
f 353 477 476
f 474 477 353
f 353 427 474
f 427 353 382
f 328 330 329
f 142 143 333
f 333 329 308
f 333 143 329
f 242 214 243
f 214 244 243
f 243 258 242
f 243 244 258
f 306 141 327
f 327 141 142
f 142 333 327
f 308 309 327
f 327 333 308
f 220 245 247
f 247 222 220
f 247 244 222
f 256 244 247
f 246 245 219
f 219 218 246
f 135 466 134
f 135 134 26
f 26 261 135
f 624 469 625
f 469 626 625
f 628 468 612
f 553 501 506
f 464 463 368
f 368 130 370
f 370 130 131
f 463 464 638
f 27 261 25
f 690 469 624
f 690 362 469
f 558 485 493
f 448 457 355
f 448 458 385
f 385 457 448
f 206 225 227
f 227 237 206
f 227 228 217
f 225 228 227
f 217 218 227
f 227 218 219
f 219 237 227
f 215 237 221
f 216 214 221
f 214 215 221
f 221 222 216
f 221 237 222
f 250 186 249
f 249 159 250
f 250 159 160
f 236 186 188
f 186 250 188
f 388 178 387
f 420 396 419
f 357 372 420
f 420 359 357
f 419 359 420
f 191 190 168
f 168 170 191
f 170 192 191
f 181 161 180
f 181 184 161
f 444 636 445
f 693 443 458
f 355 358 693
f 693 448 355
f 458 448 693
f 445 636 440
f 636 442 440
f 525 635 634
f 632 633 692
f 633 634 692
f 692 693 358
f 635 693 692
f 692 634 635
f 513 515 503
f 514 515 513
f 409 408 356
f 397 408 409
f 417 423 356
f 356 418 417
f 417 418 388
f 388 387 417
f 417 387 423
f 356 416 415
f 415 418 356
f 388 418 415
f 395 178 425
f 425 178 424
f 424 461 425
f 182 186 236
f 185 186 182
f 182 178 393
f 393 386 182
f 192 184 182
f 182 191 192
f 236 190 182
f 190 191 182
f 391 386 393
f 404 446 391
f 407 459 393
f 406 356 407
f 356 459 407
f 400 401 399
f 413 401 400
f 399 412 400
f 400 412 413
f 393 401 394
f 406 407 394
f 394 407 393
f 414 401 413
f 414 413 356
f 592 471 473
f 471 481 473
f 637 521 505
f 437 521 637
f 637 505 438
f 438 437 637
f 522 523 504
f 504 521 522
f 522 521 636
f 495 549 556
f 556 494 495
f 495 475 549
f 493 475 495
f 495 558 493
f 18 46 16
f 45 46 18
f 101 73 100
f 100 99 101
f 149 8 10
f 101 45 12
f 12 102 101
f 366 365 450
f 450 454 366
f 365 452 450
f 450 452 460
f 49 453 20
f 49 136 453
f 49 21 43
f 20 21 49
f 402 449 419
f 402 460 449
f 419 395 402
f 395 425 402
f 177 461 424
f 177 178 176
f 424 178 177
f 171 164 163
f 163 164 162
f 163 150 149
f 163 162 150
f 160 175 174
f 174 190 189
f 158 62 148
f 158 68 62
f 156 68 158
f 4 169 3
f 175 129 3
f 4 116 114
f 114 6 4
f 286 301 287
f 287 301 303
f 61 66 60
f 63 68 67
f 67 66 63
f 62 68 63
f 66 61 63
f 115 114 116
f 73 102 103
f 313 312 314
f 313 338 289
f 289 265 313
f 313 265 312
f 314 316 315
f 315 313 314
f 338 313 315
f 289 338 290
f 290 288 289
f 338 268 290
f 263 57 145
f 145 239 263
f 145 57 209
f 209 239 145
f 209 57 253
f 41 57 40
f 40 173 41
f 38 54 53
f 53 55 38
f 70 54 38
f 266 288 262
f 262 288 64
f 64 65 262
f 60 66 71
f 71 66 70
f 70 38 71
f 151 201 202
f 202 173 151
f 198 201 151
f 151 153 198
f 152 153 151
f 151 173 152
f 198 200 197
f 200 199 197
f 197 201 198
f 203 202 197
f 202 201 197
f 197 212 203
f 197 199 212
f 235 193 185
f 235 194 193
f 235 199 195
f 195 194 235
f 185 182 235
f 235 182 386
f 235 386 212
f 212 199 235
f 193 194 157
f 156 158 157
f 70 67 58
f 67 69 58
f 58 54 70
f 58 69 154
f 40 54 58
f 58 39 40
f 58 154 152
f 152 39 58
f 259 208 207
f 259 240 208
f 259 255 146
f 207 255 259
f 146 254 259
f 254 240 259
f 223 224 206
f 206 205 223
f 378 233 206
f 206 384 378
f 384 380 378
f 445 440 378
f 234 353 592
f 592 473 234
f 232 233 234
f 233 353 234
f 234 473 481
f 234 480 232
f 234 481 480
f 1 377 428
f 1 353 233
f 233 378 1
f 427 382 381
f 381 1 428
f 382 1 381
f 428 377 434
f 434 377 433
f 434 433 550
f 329 330 334
f 308 329 334
f 334 310 308
f 329 143 257
f 257 328 329
f 257 244 256
f 257 143 258
f 258 244 257
f 306 327 307
f 263 306 307
f 307 264 263
f 311 264 307
f 307 309 311
f 307 327 309
f 535 648 537
f 134 466 465
f 466 648 465
f 465 132 134
f 331 334 330
f 468 628 685
f 517 501 503
f 624 625 517
f 506 501 511
f 554 494 555
f 554 513 503
f 555 513 554
f 503 501 554
f 501 553 554
f 510 553 506
f 140 464 368
f 132 464 140
f 368 370 140
f 131 132 140
f 140 370 131
f 654 464 689
f 689 464 132
f 132 465 689
f 559 485 560
f 560 545 559
f 545 531 559
f 542 531 543
f 547 638 683
f 683 638 464
f 261 27 297
f 297 27 296
f 25 50 42
f 42 27 25
f 286 694 284
f 284 285 286
f 97 47 98
f 48 14 97
f 97 14 47
f 48 97 96
f 96 97 31
f 96 24 48
f 96 22 24
f 686 515 514
f 362 690 373
f 357 359 373
f 373 358 357
f 373 359 360
f 360 362 373
f 187 188 250
f 189 236 187
f 236 188 187
f 187 250 160
f 187 174 189
f 160 174 187
f 396 420 421
f 421 178 396
f 421 387 178
f 636 444 456
f 443 693 456
f 380 443 456
f 456 444 380
f 632 692 691
f 690 686 691
f 691 373 690
f 691 692 358
f 358 373 691
f 410 356 411
f 410 409 356
f 411 398 410
f 410 398 397
f 397 409 410
f 416 389 403
f 403 415 416
f 388 415 403
f 403 178 388
f 403 389 397
f 397 178 403
f 178 182 238
f 180 179 238
f 238 179 176
f 176 178 238
f 393 459 390
f 390 391 393
f 390 459 404
f 404 391 390
f 392 391 446
f 386 391 392
f 392 446 447
f 447 386 392
f 401 414 405
f 406 394 405
f 405 394 401
f 405 356 406
f 405 414 356
f 232 480 478
f 478 481 471
f 480 481 478
f 229 230 574
f 230 573 574
f 574 205 229
f 482 579 578
f 330 328 658
f 328 257 658
f 19 12 45
f 11 12 19
f 13 11 149
f 149 10 13
f 13 12 11
f 8 9 122
f 122 10 8
f 176 352 248
f 248 177 176
f 166 352 171
f 171 163 166
f 165 454 354
f 454 450 354
f 450 166 354
f 354 166 163
f 149 165 354
f 354 163 149
f 95 49 43
f 43 22 95
f 136 49 94
f 49 95 94
f 426 461 460
f 460 402 426
f 426 425 461
f 426 402 425
f 2 116 4
f 4 3 2
f 2 3 116
f 128 3 129
f 147 56 128
f 128 56 116
f 116 3 128
f 128 175 147
f 128 129 175
f 169 168 172
f 172 3 169
f 175 3 172
f 127 115 116
f 116 56 127
f 6 114 5
f 114 115 5
f 126 5 115
f 73 103 82
f 89 90 91
f 91 90 103
f 91 103 102
f 64 288 267
f 288 290 267
f 267 290 268
f 251 41 173
f 251 173 202
f 57 41 251
f 202 204 251
f 251 253 57
f 251 204 209
f 209 253 251
f 72 55 266
f 72 38 55
f 72 71 38
f 266 262 72
f 72 262 65
f 155 154 156
f 156 157 155
f 153 154 155
f 155 194 195
f 155 157 194
f 195 196 155
f 196 153 155
f 252 157 158
f 148 159 252
f 252 158 148
f 252 159 249
f 249 193 252
f 193 157 252
f 432 505 550
f 550 433 432
f 380 444 379
f 379 378 380
f 379 444 445
f 445 378 379
f 383 382 353
f 353 1 383
f 383 1 382
f 374 1 436
f 436 1 441
f 441 1 378
f 441 442 435
f 435 436 441
f 441 440 442
f 441 378 440
f 429 381 428
f 428 434 429
f 429 434 550
f 139 284 694
f 542 651 541
f 334 331 335
f 314 310 335
f 310 334 335
f 335 316 314
f 269 268 340
f 337 331 663
f 486 568 563
f 468 685 627
f 627 626 469
f 469 468 627
f 627 511 626
f 512 517 625
f 501 517 512
f 512 511 501
f 512 625 626
f 626 511 512
f 503 515 516
f 516 517 503
f 624 517 516
f 677 510 678
f 613 612 467
f 467 614 613
f 508 510 506
f 508 685 628
f 508 628 612
f 612 613 508
f 557 552 560
f 560 485 557
f 492 554 553
f 553 497 492
f 494 554 492
f 492 495 494
f 568 486 491
f 568 491 562
f 655 651 542
f 542 543 655
f 655 543 654
f 654 689 655
f 655 689 651
f 546 545 547
f 547 683 546
f 544 531 545
f 544 543 531
f 545 546 544
f 654 543 544
f 684 464 654
f 684 683 464
f 654 544 684
f 684 546 683
f 684 544 546
f 609 614 467
f 467 463 609
f 463 638 609
f 643 677 678
f 296 27 111
f 27 42 111
f 111 42 50
f 50 136 111
f 111 94 296
f 136 94 111
f 286 285 300
f 300 301 286
f 30 97 98
f 31 97 30
f 30 76 31
f 29 96 31
f 22 96 29
f 515 686 629
f 624 516 629
f 629 516 515
f 629 690 624
f 629 686 690
f 422 421 420
f 372 423 422
f 422 420 372
f 423 387 422
f 387 421 422
f 636 456 688
f 688 456 693
f 688 693 635
f 635 523 688
f 688 522 636
f 523 522 688
f 632 691 631
f 514 513 630
f 630 518 632
f 632 631 630
f 519 524 525
f 525 634 519
f 519 634 633
f 519 633 632
f 632 518 519
f 183 238 182
f 184 181 183
f 183 182 184
f 183 181 180
f 180 238 183
f 572 230 232
f 232 478 572
f 572 573 230
f 572 478 573
f 576 223 205
f 205 574 576
f 224 223 576
f 226 224 576
f 576 580 226
f 490 574 573
f 490 576 574
f 581 577 482
f 482 578 581
f 580 576 581
f 581 576 577
f 330 658 696
f 695 257 256
f 695 658 257
f 256 247 695
f 695 247 245
f 245 246 695
f 695 246 218
f 45 18 44
f 44 19 45
f 44 18 16
f 11 19 44
f 44 16 149
f 149 11 44
f 343 299 323
f 323 299 298
f 320 29 31
f 112 13 10
f 12 13 112
f 112 122 89
f 10 122 112
f 102 12 112
f 89 91 112
f 112 91 102
f 352 166 451
f 451 166 450
f 451 248 352
f 460 461 451
f 451 450 460
f 461 177 451
f 177 248 451
f 276 135 261
f 261 297 276
f 276 297 296
f 167 172 168
f 168 190 167
f 190 174 167
f 167 174 175
f 175 172 167
f 62 63 109
f 109 63 61
f 124 122 9
f 115 127 105
f 105 126 115
f 37 65 64
f 37 59 65
f 65 59 84
f 60 71 84
f 84 72 65
f 71 72 84
f 60 84 117
f 117 84 59
f 117 59 88
f 75 271 273
f 88 59 120
f 59 37 120
f 271 80 270
f 81 75 74
f 377 1 376
f 1 374 376
f 433 377 376
f 376 432 433
f 438 374 375
f 375 374 436
f 375 437 438
f 375 436 437
f 439 374 438
f 438 505 439
f 381 429 430
f 430 429 550
f 466 600 650
f 291 294 292
f 292 319 291
f 542 541 532
f 532 531 542
f 532 559 531
f 303 340 305
f 339 315 316
f 316 317 339
f 338 315 339
f 317 305 339
f 339 305 340
f 339 268 338
f 339 340 268
f 336 317 316
f 336 337 317
f 331 337 336
f 316 335 336
f 336 335 331
f 302 287 303
f 485 491 488
f 567 657 590
f 510 677 502
f 507 508 506
f 685 508 507
f 506 511 507
f 507 627 685
f 511 627 507
f 510 508 509
f 509 613 614
f 509 508 613
f 678 510 509
f 485 559 472
f 472 491 485
f 677 643 528
f 528 502 677
f 643 644 548
f 548 638 547
f 548 609 638
f 303 301 341
f 341 340 303
f 269 340 341
f 341 270 269
f 325 343 273
f 273 271 325
f 344 299 343
f 343 325 344
f 344 325 300
f 344 300 285
f 76 30 78
f 99 100 78
f 98 99 78
f 78 30 98
f 687 691 686
f 687 631 691
f 687 686 514
f 514 630 687
f 687 630 631
f 518 630 520
f 520 519 518
f 520 630 513
f 524 519 520
f 520 513 555
f 555 524 520
f 573 478 489
f 489 490 573
f 471 485 489
f 489 478 471
f 485 482 489
f 482 577 489
f 577 490 489
f 577 576 575
f 575 490 577
f 576 490 575
f 662 579 583
f 662 696 584
f 662 578 579
f 662 584 578
f 578 584 660
f 660 696 658
f 584 696 660
f 332 331 330
f 330 696 332
f 332 696 331
f 663 331 661
f 331 696 661
f 696 662 661
f 583 663 661
f 661 662 583
f 318 320 319
f 29 320 318
f 322 272 323
f 322 298 291
f 322 323 298
f 291 319 322
f 319 320 322
f 108 127 56
f 62 109 108
f 108 107 62
f 108 56 107
f 104 90 123
f 122 124 123
f 123 90 89
f 89 122 123
f 113 9 7
f 113 124 9
f 126 124 113
f 5 126 113
f 7 6 113
f 6 5 113
f 125 105 104
f 126 105 125
f 125 124 126
f 104 123 125
f 125 123 124
f 64 267 326
f 326 37 64
f 104 105 106
f 106 105 127
f 127 108 106
f 106 108 109
f 86 117 88
f 103 90 86
f 86 82 103
f 88 82 86
f 269 270 36
f 36 270 80
f 80 81 36
f 36 81 120
f 121 74 73
f 121 81 74
f 73 82 121
f 121 82 88
f 88 120 121
f 120 81 121
f 274 81 80
f 75 81 274
f 274 80 271
f 271 75 274
f 374 439 431
f 432 376 431
f 431 376 374
f 505 432 431
f 431 439 505
f 427 381 455
f 381 430 455
f 455 430 550
f 550 549 455
f 549 427 455
f 649 648 466
f 466 650 649
f 537 648 649
f 600 462 601
f 281 597 470
f 93 94 95
f 93 295 94
f 138 470 462
f 347 139 694
f 694 348 347
f 349 348 694
f 349 597 281
f 346 347 348
f 540 532 541
f 652 541 651
f 465 682 652
f 652 540 541
f 682 540 652
f 651 689 652
f 652 689 465
f 648 535 653
f 653 465 648
f 653 682 465
f 535 540 653
f 653 540 682
f 656 697 590
f 590 657 656
f 656 302 697
f 656 657 287
f 287 302 656
f 590 697 667
f 303 305 304
f 304 302 303
f 304 305 317
f 697 302 304
f 487 488 491
f 483 579 482
f 533 526 568
f 533 650 600
f 600 601 533
f 568 526 569
f 569 526 529
f 694 565 594
f 657 567 593
f 287 657 593
f 593 565 694
f 593 567 565
f 593 694 286
f 286 287 593
f 609 548 610
f 553 510 551
f 510 502 551
f 618 509 614
f 614 609 618
f 609 610 618
f 622 509 621
f 623 509 622
f 678 509 679
f 679 509 623
f 679 619 678
f 479 562 491
f 491 472 479
f 479 472 562
f 530 528 643
f 643 548 530
f 530 548 547
f 560 552 530
f 547 545 530
f 530 545 560
f 681 548 645
f 645 548 644
f 342 325 271
f 271 270 342
f 270 341 342
f 342 341 301
f 301 300 342
f 300 325 342
f 582 581 578
f 578 660 582
f 658 695 582
f 582 660 658
f 76 78 32
f 273 343 324
f 343 323 324
f 323 272 324
f 77 322 320
f 31 76 77
f 77 320 31
f 119 120 37
f 119 267 268
f 119 268 269
f 85 90 104
f 85 86 90
f 598 470 597
f 598 597 694
f 694 594 598
f 605 601 462
f 462 470 605
f 605 598 604
f 470 598 605
f 28 93 95
f 28 95 22
f 22 29 28
f 29 318 28
f 28 318 319
f 135 276 137
f 137 138 462
f 466 135 137
f 296 94 137
f 137 276 296
f 137 600 466
f 137 462 600
f 319 292 279
f 294 281 279
f 279 292 294
f 281 470 278
f 470 138 278
f 278 279 281
f 284 139 282
f 139 347 282
f 285 284 282
f 347 346 282
f 694 597 673
f 673 349 694
f 597 349 673
f 280 281 294
f 280 349 281
f 348 349 350
f 559 532 561
f 561 472 559
f 562 472 561
f 532 540 536
f 536 561 532
f 536 540 535
f 562 561 536
f 536 535 537
f 590 667 589
f 589 667 588
f 583 579 585
f 585 663 583
f 665 587 588
f 665 304 317
f 571 486 563
f 571 491 486
f 571 487 491
f 568 562 538
f 538 533 568
f 538 536 537
f 562 536 538
f 529 526 534
f 526 533 534
f 534 605 604
f 534 533 601
f 601 605 534
f 603 534 604
f 674 569 529
f 674 670 499
f 570 569 499
f 499 500 570
f 563 568 570
f 568 569 570
f 502 528 527
f 527 551 502
f 552 551 527
f 527 530 552
f 528 530 527
f 496 497 553
f 553 551 496
f 496 492 497
f 552 557 496
f 496 551 552
f 495 492 496
f 558 495 496
f 485 558 496
f 496 557 485
f 616 509 617
f 509 618 617
f 617 610 616
f 617 618 610
f 621 509 620
f 509 619 620
f 620 622 621
f 623 622 620
f 620 679 623
f 619 679 620
f 615 509 616
f 615 619 509
f 608 644 643
f 681 645 608
f 608 645 644
f 581 582 659
f 659 582 695
f 580 581 659
f 659 695 218
f 659 218 217
f 217 580 659
f 33 32 79
f 79 32 78
f 79 78 100
f 74 33 79
f 79 100 73
f 73 74 79
f 34 324 272
f 34 32 33
f 272 32 34
f 272 322 321
f 322 77 321
f 321 32 272
f 76 32 321
f 321 77 76
f 37 326 118
f 118 119 37
f 118 326 267
f 267 119 118
f 83 36 120
f 120 119 83
f 269 36 83
f 83 119 269
f 117 86 87
f 86 85 87
f 87 61 60
f 60 117 87
f 594 500 599
f 599 598 594
f 604 598 599
f 599 603 604
f 295 93 92
f 92 28 295
f 93 28 92
f 351 278 138
f 279 278 351
f 283 282 346
f 299 344 283
f 283 344 285
f 285 282 283
f 349 280 293
f 293 350 349
f 293 294 291
f 293 280 294
f 291 298 293
f 345 346 348
f 348 350 345
f 298 299 345
f 345 293 298
f 350 293 345
f 299 283 345
f 345 283 346
f 588 587 586
f 586 589 588
f 586 585 579
f 587 585 586
f 588 667 666
f 666 665 588
f 666 667 697
f 697 304 666
f 304 665 666
f 587 665 664
f 663 585 664
f 664 585 587
f 664 337 663
f 317 337 664
f 664 665 317
f 563 565 566
f 566 571 563
f 487 571 566
f 650 533 539
f 533 538 539
f 539 538 537
f 537 649 539
f 539 649 650
f 595 639 606
f 606 639 534
f 499 569 498
f 498 674 499
f 569 674 498
f 668 639 595
f 529 639 668
f 668 674 529
f 595 500 668
f 564 500 594
f 564 570 500
f 564 594 565
f 564 565 563
f 563 570 564
f 680 548 681
f 619 615 607
f 273 324 35
f 324 34 35
f 35 75 273
f 35 34 33
f 35 33 74
f 74 75 35
f 110 85 104
f 110 87 85
f 104 106 110
f 61 87 110
f 110 109 61
f 110 106 109
f 595 606 669
f 669 500 595
f 669 599 500
f 94 295 260
f 260 351 94
f 279 351 260
f 319 279 260
f 260 28 319
f 295 28 260
f 275 137 94
f 94 351 275
f 138 137 275
f 671 500 499
f 499 670 671
f 488 589 484
f 589 586 484
f 484 483 482
f 579 483 484
f 484 586 579
f 484 482 485
f 485 488 484
f 487 566 591
f 590 589 591
f 591 567 590
f 488 487 591
f 591 589 488
f 565 567 591
f 591 566 565
f 640 534 676
f 640 641 534
f 642 639 529
f 529 534 642
f 534 641 642
f 534 603 602
f 602 606 534
f 602 669 606
f 603 599 602
f 599 669 602
f 596 668 500
f 596 671 670
f 670 674 596
f 674 668 596
f 548 680 646
f 681 608 646
f 646 680 681
f 619 607 647
f 647 608 643
f 647 607 548
f 647 643 678
f 678 619 647
f 548 646 647
f 647 646 608
f 611 615 616
f 611 607 615
f 616 610 611
f 611 610 548
f 548 607 611
f 277 351 138
f 138 275 277
f 277 275 351
f 641 640 675
f 639 642 675
f 675 642 641
f 675 640 676
f 676 534 675
f 534 639 675
f 500 671 672
f 672 596 500
f 671 596 672

