# https://github.com/mikedh/trimesh
v 0.04017839 -0.06436622 0.00356138
v 0.04409674 -0.06359765 0.00347147
v 0.04749894 -0.06219533 0.00331178
v 0.04953441 -0.06092557 0.00317209
v 0.05559444 -0.05324319 0.00242017
v 0.05376351 -0.05658766 0.00272861
v 0.06046686 0.01487396 0.00049576
v 0.05945700 0.02965045 0.00093141
v 0.05376686 0.05658877 0.00272815
v 0.05517402 0.05416535 0.00250190
v 0.05610615 0.05195098 0.00230787
v 0.05722303 0.04788824 0.00198180
v 0.05363552 0.04705815 0.00080164
v 0.05773130 0.04485685 0.00176230
v 0.05851434 0.03869073 0.00137357
v 0.04883350 0.06141203 0.00322442
v 0.05165887 0.05912717 0.00298143
v 0.05326277 0.05728849 0.00279627
v 0.06080837 0.00000307 0.00036128
v 0.06072852 -0.00717324 0.00039149
v 0.05773088 -0.04485079 0.00176228
v 0.05940988 -0.03015115 0.00095241
v 0.06044585 -0.01531171 0.00050419
v 0.05771657 0.05448249 0.00654643
v 0.05646553 0.05703873 0.00679511
v 0.04995760 0.06384934 0.00752606
v 0.06106401 0.03606819 0.00523576
v 0.05914271 0.04995987 0.00615570
v 0.05966683 0.04711515 0.00593551
v 0.04249235 -0.06674194 0.00788111
v 0.04660508 -0.06553036 0.00773953
v 0.04882174 -0.06450835 0.00760648
v 0.05170942 -0.06261405 0.00738465
v 0.05342289 -0.06107446 0.00721203
v 0.05452442 -0.05985209 0.00707988
v 0.05680746 -0.05641168 0.00673541
v 0.05914944 -0.04992386 0.00615310
v 0.05965239 -0.04719829 0.00594007
v 0.06072652 -0.03902262 0.00539969
v 0.06094405 -0.03714090 0.00529359
v 0.06210889 -0.02479520 0.00475410
v 0.04661416 0.06553248 0.00773768
v 0.04275468 0.06668536 0.00787264
v 0.05940760 -0.05065414 0.00832649
v 0.05717262 -0.05629998 0.00789057
v 0.05934765 -0.05160207 0.00930402
v 0.05833595 -0.05469260 0.00958026
v 0.05695065 -0.05763656 0.00986621
v 0.05405598 -0.06160393 0.01028933
v 0.05766258 -0.05460879 0.00655959
v 0.03925693 -0.06721237 0.00794088
v 0.05756672 0.05645961 0.00974856
v 0.05892926 0.05303060 0.00942822
v 0.05943992 0.05050883 0.00829463
v 0.06011773 0.04836525 0.00903599
v 0.05723265 0.05617269 0.00785207
v 0.05363527 0.06107542 0.00776113
v 0.04873423 0.06472826 0.00815442
v 0.03937615 0.06720646 0.00793920
v 0.04233124 0.06677254 0.00788364
v 0.05306185 0.06143627 0.00725766
v 0.05485540 0.05944220 0.00703548
v 0.06305265 -0.00014177 0.00436127
v 0.06300272 -0.00568011 0.00438018
v 0.06235937 -0.03022325 0.00796169
v 0.06125661 -0.04069563 0.00850532
v 0.06084029 0.04399170 0.00871932
v 0.06336704 0.01473820 0.00749445
v 0.06212005 0.02465380 0.00474921
v 0.06302328 0.02143943 0.00765161
v 0.06185253 0.03544332 0.00820724
v 0.06095233 0.03707362 0.00528960
v 0.03582805 0.06758046 0.00791867
v 0.03876988 0.09164485 0.06875500
v 0.03843616 0.08901893 0.06134493
v 0.04837877 -0.10039595 0.25664201
v 0.04706523 -0.09880134 0.26218951
v 0.04513419 -0.09739068 0.26709381
v 0.04191969 -0.09583625 0.27248922
v 0.01318702 -0.09154902 0.28721181
v 0.01753527 -0.09176455 0.28649491
v 0.02525128 -0.09238426 0.28439519
v 0.03468738 -0.09378621 0.27958110
v 0.04667699 -0.10138214 0.25282922
v 0.03597744 -0.06763968 0.00814358
v 0.03913806 -0.09349887 0.07691115
v 0.05098353 0.09856255 0.18717010
v 0.05098353 0.09086586 0.10501489
v 0.05098353 0.08995179 0.09607893
v 0.05098353 0.08874942 0.08465800
v 0.05063090 0.08888030 0.08301552
v 0.05068613 0.08884673 0.08314444
v 0.05095331 0.08872356 0.08416741
v 0.05032008 0.08907662 0.08245176
v 0.04956646 0.08958700 0.08160372
v 0.04698353 0.09120248 0.08065799
v 0.04879481 0.09009960 0.08109149
v 0.04849995 0.09028944 0.08095632
v 0.04758429 0.09085399 0.08070323
v 0.04469300 0.09232880 0.08065799
v 0.07193967 0.06966633 0.17553553
v 0.05362250 0.08577430 0.08262032
v 0.05495456 0.08405669 0.08264080
v 0.04751215 0.10175182 0.20731075
v 0.04899665 0.10293270 0.23050199
v 0.05386817 0.08821786 0.10504620
v 0.06463876 0.05678542 0.05588149
v 0.06039229 0.05509721 0.02006536
v 0.06407833 0.04935068 0.03794413
v 0.06176835 0.05552886 0.02934308
v 0.06281813 0.05593057 0.03793714
v 0.06186017 0.04904349 0.02006544
v 0.06513401 0.04229623 0.03794476
v 0.06676111 0.02813574 0.03794544
v 0.06540062 0.01591551 0.02006565
v 0.06581599 0.00000307 0.02006566
v 0.06977740 0.00843432 0.05588150
v 0.06735475 0.00000307 0.03180842
v 0.05901630 0.06450988 0.03406936
v 0.06144711 0.06017121 0.03631364
v 0.06023883 0.06819206 0.04946265
v 0.06232220 0.05786281 0.03763561
v 0.05812469 0.07118241 0.04761901
v 0.05656978 0.06252490 0.02006539
v 0.05876324 0.05910577 0.02006546
v 0.05941373 0.05772777 0.02006621
v 0.06120598 0.05744665 0.02918231
v 0.05308349 0.08568032 0.07692562
v 0.05536432 0.08227247 0.07408718
v 0.05932427 0.07389858 0.06527303
v 0.06413689 0.05870534 0.05530725
v 0.04029220 0.09270974 0.07410376
v 0.05806298 0.07297581 0.05212541
v 0.04585196 0.09115946 0.07609056
v 0.04993702 0.08842729 0.07507136
v 0.06224990 0.06387746 0.05211610
v 0.05027834 0.08875580 0.07921037
v 0.05072032 0.08833908 0.07891084
v 0.04952804 0.08403865 0.05931407
v 0.04434413 0.09066863 0.07117890
v 0.04067510 0.08858722 0.06166854
v 0.05900535 0.07293724 0.05722193
v 0.06105172 0.06835950 0.05680566
v 0.06038606 0.06857847 0.05167728
v 0.05677902 0.07271498 0.04711663
v 0.05510952 0.07692450 0.05271067
v 0.05644277 0.07717659 0.05773956
v 0.05737180 0.07713068 0.06283218
v 0.05157558 0.08030482 0.05349287
v 0.05328177 0.08091209 0.05842240
v 0.05457870 0.08117568 0.06344181
v 0.05803245 0.07687910 0.06794127
v 0.05550853 0.08114538 0.06850403
v 0.05743945 0.07831118 0.07025171
v 0.05115598 0.08466722 0.06422953
v 0.04526095 0.08655650 0.06041164
v 0.04709804 0.08751634 0.06521314
v 0.05338728 0.08493586 0.07424638
v 0.05242584 0.08496988 0.06921145
v 0.04866929 0.08816922 0.07010184
v 0.05496984 0.09595741 0.18650600
v 0.06158597 0.08888746 0.18184374
v 0.06249115 0.08771918 0.18159020
v 0.07018636 0.07465536 0.17920515
v 0.06202845 0.08867704 0.18481386
v 0.06810635 0.07878499 0.17987567
v 0.06903591 0.07731880 0.18263870
v 0.05688625 0.09434471 0.18611328
v 0.05855881 0.09272451 0.18572925
v 0.06091083 0.09008557 0.18512478
v 0.07505859 0.06307206 0.18064216
v 0.07790405 0.05355844 0.17966312
v 0.07905991 0.04873783 0.17925566
v 0.08177899 0.03285929 0.17826489
v 0.08362708 0.00000303 0.17754295
v 0.08354358 0.00780283 0.17757899
v 0.08294749 0.02089097 0.17781857
v 0.07052607 0.07428835 0.18215288
v 0.06551274 0.08359804 0.18376900
v 0.07044298 0.07429717 0.18479675
v 0.06505939 0.08082182 0.21898256
v 0.06347344 0.08142561 0.23110951
v 0.06040747 0.08787251 0.23120998
v 0.05713625 0.09339925 0.23120503
v 0.04903724 0.10297094 0.23135100
v 0.06566810 0.08162855 0.20682620
v 0.06596047 0.08217399 0.19460697
v 0.07620559 0.01786453 0.22823012
v 0.07966190 0.01830391 0.21140096
v 0.08253814 0.00000303 0.19168933
v 0.08191579 0.01866095 0.19436869
v 0.06951671 0.07427445 0.20247893
v 0.07356416 0.06546606 0.19411471
v 0.07638786 0.05630636 0.19430581
v 0.08009432 0.04367799 0.17888479
v 0.07856525 0.04698777 0.19443205
v 0.08108894 0.03781712 0.17852147
v 0.07999188 0.00000305 0.21103813
v 0.07823163 0.00000323 0.22044648
v 0.07527806 0.00000299 0.23287849
v 0.06851002 0.05046459 0.24426010
v 0.07258540 0.03661086 0.23678216
v 0.07006050 0.03809533 0.24427199
v 0.06360917 0.07359358 0.24422123
v 0.06432863 0.07377682 0.24115641
v 0.06983237 0.05547928 0.23682034
v 0.06950235 0.06505937 0.22830567
v 0.07120875 0.02335224 0.24428138
v 0.07476914 0.03687461 0.22844538
v 0.07348350 0.04634533 0.22845578
v 0.06807420 0.07423174 0.21759607
v 0.07201529 0.06530587 0.21126896
v 0.07461395 0.05608227 0.21142948
v 0.07661963 0.04671472 0.21153066
v 0.08016431 0.03758948 0.19447932
v 0.07808807 0.03727412 0.21155930
v 0.08063036 0.00000320 0.20703663
v 0.07174714 0.05575489 0.22840711
v 0.07177447 0.00694415 0.24428578
v 0.04932276 0.10306119 0.23986568
v 0.05480772 0.09641012 0.23877518
v 0.05919925 0.08869980 0.23867266
v 0.06405549 0.07665209 0.23830099
v 0.06525836 0.07397413 0.23665483
v 0.06627339 0.07412558 0.23085417
v 0.06310337 0.07414503 0.24550067
v 0.05964721 0.08428381 0.24591069
v 0.05768400 0.08896808 0.24602009
v 0.05629383 0.09188040 0.24606179
v 0.05283568 0.09788959 0.24609505
v 0.05219867 0.09991010 0.23879398
v 0.04933237 0.10255969 0.24609147
v 0.05271514 0.09570795 0.25200510
v 0.05730227 0.07981378 0.25749350
v 0.04899444 0.09407233 0.26338020
v 0.05448246 0.08754742 0.25776023
v 0.05220800 0.08657283 0.26333642
v 0.05630747 0.08835170 0.25191972
v 0.05078316 0.08262768 0.26802883
v 0.06327795 0.07355947 0.24547093
v 0.06064204 0.07320674 0.25381216
v 0.05744782 0.07265443 0.26139677
v 0.04801641 0.09011021 0.26802880
v 0.05108665 0.09498529 0.25783813
v 0.04837878 0.10040197 0.25664204
v 0.04706125 0.09880373 0.26220214
v 0.04500234 0.09731814 0.26736668
v 0.04467024 0.09712744 0.26802880
v 0.04663032 0.10126296 0.25336465
v 0.04888722 0.10137144 0.25284100
v 0.01944047 0.09189241 0.28608558
v 0.01753526 0.09177075 0.28649491
v 0.01302873 0.09154903 0.28723288
v 0.00474837 0.09133569 0.28791267
v 0.02509119 0.09237356 0.28445223
v 0.03008061 0.09299117 0.28233793
v 0.04570864 0.09060769 0.27092731
v 0.03984646 0.09510994 0.27502671
v 0.04550572 0.07011651 0.27862951
v 0.04741379 0.08423907 0.27189034
v 0.04997702 0.07112001 0.27353615
v 0.04289512 0.08287813 0.27718836
v 0.04155504 0.08918136 0.27608892
v 0.05155414 0.01801607 0.28309152
v 0.05236970 0.03378738 0.27986050
v 0.05299585 0.05310821 0.27477291
v 0.05381317 0.07193662 0.26802829
v 0.06633388 0.06255973 0.24424204
v 0.06776126 0.05510708 0.24425387
v 0.06126856 0.06429410 0.25719279
v 0.06293711 0.05506092 0.25709289
v 0.06552251 0.03645942 0.25635490
v 0.06738446 0.01778841 0.25506362
v 0.07128553 0.00000310 0.24585865
v 0.07182527 0.00000301 0.24428631
v 0.05214968 0.00000301 0.28297648
v 0.05777714 0.00000235 0.27466628
v 0.05486111 0.01510235 0.27875286
v 0.05375886 0.02446949 0.27943373
v 0.04386476 0.05272762 0.28470162
v 0.04884231 0.05222194 0.27997068
v 0.04446191 0.05126725 0.28455225
v 0.04683913 0.04439519 0.28399906
v 0.04904414 0.03575225 0.28354749
v 0.06298304 0.00000301 0.26541534
v 0.06076742 0.02591124 0.26801705
v 0.05672387 0.05387390 0.26918405
v 0.05616113 0.03456661 0.27436358
v 0.05960044 0.03526881 0.26858193
v 0.06003147 0.05452266 0.26326820
v 0.06171821 0.01653156 0.26727796
v 0.03843263 0.09468889 0.27648380
v 0.04188773 0.09582968 0.27253294
v 0.03449927 0.09375390 0.27971318
v 0.06208382 0.04400943 0.01493199
v 0.06287935 0.03771907 0.01473237
v 0.06407339 0.02508667 0.01442746
v 0.06320240 0.03824565 0.01755014
v 0.06473077 0.01240605 0.01423332
v 0.06485555 0.00000307 0.01418422
v 0.06362312 0.00000307 0.00736128
v 0.06447536 0.02543634 0.01738706
v 0.06109031 0.04872014 0.01507118
v 0.05798190 0.05782217 0.01423812
v 0.05705519 0.05745354 0.00984717
v 0.05575251 0.05954178 0.01006317
v 0.05972420 0.05698222 0.02006596
v 0.06022493 0.05221142 0.01469146
v 0.05868877 0.05374773 0.00949273
v 0.07193967 -0.06966025 0.17553550
v 0.05499960 -0.08398242 0.08264701
v 0.04625079 -0.09273224 0.09374055
v 0.05025047 -0.08914550 0.08257553
v 0.05158662 -0.08796476 0.08259514
v 0.05326629 -0.08619110 0.08262032
v 0.05092337 -0.08975826 0.09379865
v 0.04574028 -0.09391259 0.10495909
v 0.04276538 -0.09320427 0.08247051
v 0.04550795 -0.10029206 0.18191449
v 0.04580856 -0.10051639 0.18571077
v 0.04597676 -0.10063267 0.18771525
v 0.04751151 -0.10174493 0.20729980
v 0.04870072 -0.10266607 0.22497526
v 0.05080626 -0.09099665 0.10501292
v 0.06977194 -0.00862379 0.05588149
v 0.06890590 -0.02461440 0.05588138
v 0.06540061 -0.01590943 0.02006556
v 0.06513401 -0.04229010 0.03794474
v 0.06407833 -0.04934454 0.03794411
v 0.06281813 -0.05592442 0.03793711
v 0.06415781 -0.03179276 0.02006553
v 0.06176835 -0.05552271 0.02934305
v 0.06039229 -0.05509105 0.02006533
v 0.05870114 -0.05922192 0.02006592
v 0.05941655 -0.05772269 0.02006569
v 0.05901630 -0.06450374 0.03406933
v 0.06120598 -0.05744052 0.02918229
v 0.06301629 -0.05815167 0.04369599
v 0.05814800 -0.07115082 0.04763473
v 0.06144711 -0.06016508 0.03631362
v 0.06224990 -0.06387133 0.05211606
v 0.05640599 -0.06272152 0.02006714
v 0.06103030 -0.06885809 0.05890713
v 0.04684532 -0.09143834 0.08252691
v 0.04719800 -0.09109424 0.08087756
v 0.04374965 -0.09283219 0.08217396
v 0.05723576 -0.07873268 0.07069747
v 0.06463876 -0.05677931 0.05588146
v 0.05972420 -0.05697608 0.02006593
v 0.06232220 -0.05785668 0.03763559
v 0.06413689 -0.05869920 0.05530722
v 0.04115846 -0.09299560 0.07675025
v 0.06025198 -0.06816057 0.04947655
v 0.05108759 -0.08796923 0.07865027
v 0.04072256 -0.08861247 0.06177930
v 0.04590923 -0.09116380 0.07629970
v 0.05016590 -0.08885200 0.07928459
v 0.06106540 -0.06834660 0.05692817
v 0.05160896 -0.08031303 0.05357902
v 0.05513675 -0.07692618 0.05279886
v 0.05646934 -0.07717238 0.05786059
v 0.05331761 -0.08091597 0.05854138
v 0.05461136 -0.08117269 0.06359296
v 0.05902370 -0.07292727 0.05734409
v 0.05739462 -0.07711960 0.06298511
v 0.05805355 -0.07686119 0.06812553
v 0.05679565 -0.07271368 0.04717436
v 0.05808282 -0.07297144 0.05221524
v 0.05516390 -0.08260439 0.07438788
v 0.05284426 -0.08598037 0.07716486
v 0.05342253 -0.08492149 0.07445964
v 0.05246537 -0.08496831 0.06939213
v 0.04872042 -0.08817975 0.07027966
v 0.05119914 -0.08467503 0.06437789
v 0.04714920 -0.08753465 0.06535835
v 0.03869428 -0.09110953 0.06707088
v 0.04440319 -0.09068792 0.07135426
v 0.04530761 -0.08657644 0.06052504
v 0.04998375 -0.08842267 0.07528250
v 0.04957106 -0.08405117 0.05943035
v 0.05553681 -0.08113335 0.06868710
v 0.05910008 -0.07446589 0.06595139
v 0.06039972 -0.06856982 0.05176809
v 0.06085560 -0.09014729 0.18513992
v 0.05036857 -0.09887735 0.18725437
v 0.06563266 -0.08339868 0.18373151
v 0.06916288 -0.07706345 0.18259673
v 0.07052607 -0.07428227 0.18215284
v 0.08342803 0.00000303 0.17454349
v 0.08354368 -0.00777517 0.17757937
v 0.08290467 -0.02147914 0.17783612
v 0.08177998 -0.03285686 0.17826505
v 0.08108999 -0.03781135 0.17852150
v 0.08003520 -0.04398401 0.17890604
v 0.07905953 -0.04873167 0.17925577
v 0.07789629 -0.05358223 0.17966832
v 0.07505859 -0.06306598 0.18064213
v 0.04641498 -0.10094987 0.19316438
v 0.05705555 -0.09351503 0.23120406
v 0.06009104 -0.08845618 0.23121262
v 0.06051208 -0.08766844 0.23120886
v 0.06503988 -0.08085560 0.21898398
v 0.06564634 -0.08166249 0.20682791
v 0.06956138 -0.07427011 0.20186040
v 0.06593756 -0.08220725 0.19460836
v 0.05793795 -0.09334383 0.18587629
v 0.06162055 -0.08919764 0.18492912
v 0.05434075 -0.09642697 0.18662407
v 0.06364874 -0.08100718 0.23109874
v 0.06808980 -0.07422532 0.21744874
v 0.07620559 -0.01785850 0.22823010
v 0.06417051 -0.07373219 0.24185896
v 0.06627339 -0.07411953 0.23085412
v 0.06593271 -0.06439983 0.24423888
v 0.07348350 -0.04633930 0.22845577
v 0.07008854 -0.03781297 0.24427216
v 0.07177410 -0.00696721 0.24428581
v 0.08191579 -0.01865490 0.19436868
v 0.07856525 -0.04698171 0.19443204
v 0.08016431 -0.03758343 0.19447930
v 0.07356416 -0.06546001 0.19411469
v 0.07201529 -0.06529982 0.21126893
v 0.07461395 -0.05607622 0.21142945
v 0.07638786 -0.05630030 0.19430578
v 0.07808807 -0.03726806 0.21155928
v 0.06950235 -0.06505334 0.22830564
v 0.07174714 -0.05574884 0.22840708
v 0.07661963 -0.04670866 0.21153061
v 0.07476914 -0.03686856 0.22844537
v 0.07966190 -0.01829787 0.21140094
v 0.04929819 -0.10308491 0.23868543
v 0.05219867 -0.09990405 0.23879394
v 0.04932293 -0.10305487 0.23988011
v 0.05768408 -0.08896207 0.24602008
v 0.05919924 -0.08869376 0.23867261
v 0.05620058 -0.09205895 0.24606356
v 0.05480771 -0.09640407 0.23877513
v 0.06405549 -0.07664602 0.23830095
v 0.06245825 -0.07623764 0.24560282
v 0.06360917 -0.07358753 0.24422118
v 0.05914381 -0.08554705 0.24594587
v 0.05730227 -0.07980776 0.25749347
v 0.05739678 -0.07263878 0.26150239
v 0.04933237 -0.10255366 0.24609143
v 0.05301630 -0.09760853 0.24609435
v 0.04886288 -0.10131738 0.25305948
v 0.04804286 -0.09004062 0.26802865
v 0.04467023 -0.09712142 0.26802877
v 0.05118658 -0.08136511 0.26802897
v 0.06327795 -0.07355344 0.24547088
v 0.06301095 -0.07352399 0.24643961
v 0.06038475 -0.07316035 0.25450623
v 0.05448245 -0.08754140 0.25776020
v 0.05220799 -0.08656681 0.26333639
v 0.04899444 -0.09406629 0.26338017
v 0.05108665 -0.09497926 0.25783810
v 0.05630747 -0.08834568 0.25191969
v 0.05271514 -0.09570190 0.25200507
v 0.04903724 -0.10296490 0.23135096
v 0.04570864 -0.09060165 0.27092728
v 0.00474837 -0.09132967 0.28791264
v 0.04741378 -0.08423305 0.27189031
v 0.04289512 -0.08287209 0.27718833
v 0.05381317 -0.07193059 0.26802826
v 0.04552234 -0.07011428 0.27861264
v 0.03856489 -0.09472007 0.27635524
v 0.03984629 -0.09510398 0.27502656
v 0.01956308 -0.09189475 0.28605691
v 0.03015733 -0.09299649 0.28229916
v 0.04155504 -0.08917534 0.27608889
v 0.04884231 -0.05221591 0.27997065
v 0.04386476 -0.05272159 0.28470159
v 0.06738446 -0.01778236 0.25506362
v 0.06728973 0.00000319 0.25620437
v 0.07120086 -0.02348816 0.24428113
v 0.06293711 -0.05505490 0.25709286
v 0.06842058 -0.05104676 0.24425940
v 0.05001144 -0.07112148 0.27349201
v 0.05616113 -0.03456059 0.27436355
v 0.06171821 -0.01652554 0.26727796
v 0.05844526 -0.01583401 0.27312273
v 0.05486111 -0.01509634 0.27875286
v 0.05299585 -0.05310220 0.27477288
v 0.05960044 -0.03526279 0.26858190
v 0.06003147 -0.05451664 0.26326817
v 0.05672387 -0.05386785 0.26918402
v 0.06631679 -0.06263455 0.24424189
v 0.06763379 -0.05583354 0.24425274
v 0.06546789 -0.05549115 0.25071734
v 0.06552251 -0.03645339 0.25635487
v 0.05155414 -0.01801005 0.28309152
v 0.05375886 -0.02446348 0.27943370
v 0.04904414 -0.03574622 0.28354746
v 0.05236970 -0.03378135 0.27986047
v 0.04683913 -0.04438916 0.28399903
v 0.05071445 -0.04303447 0.28002691
v 0.06011777 -0.04835912 0.00903596
v 0.06319333 -0.03831512 0.01755207
v 0.06334978 -0.01514882 0.00750235
v 0.06406267 -0.02523053 0.01443226
v 0.06130905 -0.04881755 0.01510923
v 0.06128216 -0.04880723 0.01493895
v 0.06207897 -0.04404032 0.01493498
v 0.06287100 -0.03778747 0.01473631
v 0.05798190 -0.05781603 0.01423809
v 0.06022493 -0.05220526 0.01469143
v 0.05556531 -0.05979466 0.01009079
v 0.05736721 -0.04739201 0.00218183
v 0.05224023 -0.05851298 0.00291917
v 0.04091974 0.06428364 0.00355094
v 0.04311450 0.06387113 0.00350258
v 0.04665940 0.06262304 0.00335922
v -0.00327567 -0.07439908 0.30954626
v -0.00204214 -0.07377386 0.31041226
v -0.00200283 -0.07441874 0.31032002
v -0.00066509 -0.07378899 0.31101018
v -0.00063644 -0.07443374 0.31091329
v 0.00079803 -0.07444381 0.31131506
v 0.00227387 -0.07444875 0.31151780
v 0.00226793 -0.07380410 0.31161943
v 0.00376927 -0.07380382 0.31161940
v 0.00525661 -0.07379828 0.31141502
v 0.00523940 -0.07444297 0.31131500
v 0.00670227 -0.07378758 0.31101006
v 0.00807929 -0.07377193 0.31041211
v 0.00804022 -0.07441683 0.31031987
v 0.00931304 -0.07439668 0.30954608
v 0.00936205 -0.07375162 0.30963230
v 0.01046861 -0.07437227 0.30860624
v 0.01052663 -0.07372703 0.30868512
v 0.00667386 -0.07443236 0.31091318
v 0.00376358 -0.07444847 0.31151780
v 0.00518870 -0.07503944 0.31105503
v 0.00374664 -0.07504481 0.31125319
v 0.00229102 -0.07504509 0.31125322
v -0.00055269 -0.07503043 0.31066254
v -0.00188781 -0.07501577 0.31008282
v -0.00313154 -0.07499655 0.30932677
v 0.00916913 -0.07499421 0.30932659
v 0.00792543 -0.07501390 0.31008267
v 0.00659033 -0.07502907 0.31066242
v 0.00645738 -0.07553706 0.31027487
v 0.00510796 -0.07554705 0.31065285
v 0.00371962 -0.07555222 0.31084365
v 0.00084896 -0.07504027 0.31105509
v -0.00041955 -0.07553837 0.31027499
v -0.00170494 -0.07552426 0.30971685
v 0.00774274 -0.07552245 0.30971673
v 0.00368435 -0.07593610 0.31031704
v 0.00231823 -0.07555249 0.31084368
v 0.00235362 -0.07593635 0.31031707
v 0.00092988 -0.07554784 0.31065291
v 0.00078058 -0.07379913 0.31141508
v 0.01454319 0.10719877 0.21930219
v 0.00932364 0.10758445 0.21795790
v 0.00394054 0.10771439 0.21750528
v -0.00144255 0.10758464 0.21795806
v -0.00666206 0.10719913 0.21930249
v 0.01456180 -0.10719582 0.21929243
v -0.00142387 -0.10758434 0.21794827
v 0.00395924 -0.10771312 0.21749547
v 0.00934232 -0.10758229 0.21794811
v -0.00664345 -0.10719986 0.21929274
v -0.00746726 0.09699453 0.08315868
v 0.02853274 0.09700140 0.08315815
v 0.03197029 0.09680445 0.08315810
v 0.03385758 0.09652608 0.08315807
v 0.03650167 0.09592521 0.08315802
v 0.04011970 0.09467583 0.08315794
v 0.04084452 0.09436123 0.08315793
v 0.02854047 0.09685080 0.08239674
v -0.00746725 0.09684768 0.08240639
v 0.03195597 0.09668019 0.08246187
v 0.03646845 0.09580462 0.08246179
v -0.00206963 0.07053242 0.31032309
v 0.00374179 0.07043374 0.31152651
v 0.00522913 0.07045092 0.31132275
v 0.00667478 0.07048466 0.31091908
v 0.00497437 0.07270965 0.31028196
v 0.00365604 0.07269443 0.31046256
v 0.00232531 0.07269417 0.31046259
v 0.00100698 0.07270890 0.31028202
v 0.00771458 0.07234972 0.30982110
v 0.00507980 0.07227185 0.31075436
v 0.00369147 0.07225582 0.31094453
v 0.00229007 0.07225555 0.31094456
v -0.00044771 0.07230204 0.31037763
v -0.00173311 0.07234792 0.30982125
v 0.01027026 0.07194345 0.30846062
v 0.00914115 0.07186734 0.30937612
v 0.00789747 0.07180461 0.31012988
v 0.00656237 0.07175644 0.31070784
v 0.00642922 0.07230335 0.31037754
v 0.00090172 0.07227105 0.31075442
v 0.00226307 0.07170680 0.31129679
v 0.00082100 0.07172290 0.31109929
v -0.00191578 0.07180274 0.31013000
v -0.00315951 0.07186499 0.30937630
v 0.01044085 0.07132751 0.30859271
v 0.00928530 0.07124961 0.30952963
v 0.00801249 0.07118542 0.31030104
v 0.00664613 0.07113612 0.31089252
v 0.00516074 0.07172373 0.31109923
v 0.00521168 0.07110264 0.31129310
v 0.00371869 0.07170708 0.31129679
v 0.00224615 0.07108532 0.31149530
v -0.00058065 0.07175508 0.31070793
v -0.00066417 0.07113473 0.31089264
v -0.00203056 0.07118351 0.31030118
v -0.00330342 0.07124722 0.30952981
v 0.00373585 0.07108560 0.31149527
v 0.00224046 0.07043346 0.31152654
v 0.00075310 0.07045007 0.31132281
v 0.00077031 0.07110180 0.31129315
v -0.00069257 0.07048326 0.31091917
v -0.04483104 0.06101918 0.00318151
v -0.04627832 0.05976368 0.00304758
v -0.04804417 0.05773517 0.00284040
v -0.04954549 0.05527443 0.00260365
v -0.05126791 0.04996654 0.00214392
v -0.05141875 0.04904360 0.00207073
v -0.05174026 0.04408646 0.00170960
v -0.05163439 0.02532353 0.00076915
v -0.05149630 0.00591652 0.00038155
v -0.05148474 0.00000285 0.00036116
v -0.05173334 -0.03880231 0.00138020
v -0.05173897 -0.04408322 0.00170969
v -0.05161166 -0.04733773 0.00194083
v -0.05141898 -0.04903756 0.00207061
v -0.05055343 -0.05280067 0.00238136
v -0.04650150 -0.05953501 0.00302429
v -0.04389196 -0.06168266 0.00325476
v -0.05361592 0.03651449 0.00525940
v -0.04407853 0.06494947 0.00765841
v -0.05094835 0.05802736 0.00688980
v -0.04881321 0.06113918 0.00721782
v -0.04786828 0.06215152 0.00733089
v -0.04509504 0.06435418 0.00758706
v -0.05188744 0.05603075 0.00669245
v -0.05308005 0.05197199 0.00632427
v -0.05357408 0.04772125 0.00597942
v -0.05362445 0.04594916 0.00584943
v -0.05362589 0.04579690 0.00583850
v -0.05363398 0.04277827 0.00563136
v -0.05349649 0.02141367 0.00464960
v -0.05338088 0.00076340 0.00436149
v -0.05339391 -0.00575192 0.00438055
v -0.05355012 -0.02783646 0.00486273
v -0.05361345 -0.03730620 0.00530255
v -0.05362622 -0.04564388 0.00582733
v -0.05362592 -0.04578452 0.00583793
v -0.05358945 -0.04731913 0.00595061
v -0.05362457 -0.04593010 0.00584839
v -0.05304271 -0.05215167 0.00634011
v -0.05198349 -0.05578314 0.00666973
v -0.05093545 -0.05804391 0.00689205
v -0.05034579 -0.05905204 0.00699562
v -0.04808288 -0.06192984 0.00730702
v -0.04525761 -0.06424294 0.00757472
v -0.05381214 0.04637296 0.00787855
v -0.05534650 0.05839990 0.03137481
v -0.05454137 0.04916041 0.01634312
v -0.05401505 0.05577104 0.01737159
v -0.05109835 0.05876914 0.00899721
v -0.04697410 0.06307164 0.00771902
v -0.04191961 0.06593592 0.00777961
v -0.05299096 0.05849561 0.01649671
v -0.05439255 0.06142652 0.03032423
v -0.05485764 0.06023802 0.03073118
v -0.05605770 0.05681331 0.03756141
v -0.04971227 0.08592974 0.06545480
v -0.04722422 0.08777137 0.06467355
v -0.05112202 0.08794190 0.07942937
v -0.05179872 0.08373474 0.06637073
v -0.05462395 0.08052114 0.07362019
v -0.05467626 0.07418653 0.05872599
v -0.04435956 0.08921559 0.06404217
v -0.04498116 0.09331690 0.08328328
v -0.04358848 0.09290901 0.07428318
v -0.04133076 0.09438282 0.07862661
v -0.04137801 0.09341113 0.07294136
v -0.05478874 0.07853851 0.06851370
v -0.05611199 0.07228728 0.06493328
v -0.04142443 0.09171678 0.06735723
v -0.04642810 0.09154594 0.07487164
v -0.04891307 0.08978678 0.07558002
v -0.04703938 0.09204088 0.08232147
v -0.04897656 0.09042732 0.08116763
v -0.05101829 0.08766985 0.07639959
v -0.05311617 0.08452263 0.07693326
v -0.05274379 0.08525294 0.07731589
v -0.04704800 0.08982347 0.06973913
v -0.05643709 0.06698598 0.05800306
v -0.05642034 0.06045134 0.04604172
v -0.04847375 0.05712320 0.00278006
v -0.05084116 0.05184880 0.00229925
v -0.04697079 -0.06306694 0.00771830
v -0.05565390 -0.05619775 0.03215883
v -0.05109683 -0.05876423 0.00899652
v -0.05401470 -0.05576517 0.01737117
v -0.05381248 -0.04636656 0.00787850
v -0.05436208 -0.04849614 0.01420446
v -0.05492469 -0.05067162 0.02109076
v -0.05504319 -0.05963926 0.03093676
v -0.05299009 -0.05849026 0.01649614
v -0.05605757 -0.05680887 0.03756072
v -0.05631765 -0.05882142 0.04245234
v -0.05485740 -0.06023170 0.03073113
v -0.05178115 -0.08375053 0.06636165
v -0.04539885 -0.09286080 0.08007462
v -0.05545203 -0.07704957 0.07029749
v -0.05617924 -0.06796329 0.05728176
v -0.05602978 -0.07309066 0.06590819
v -0.05467042 -0.07419319 0.05872037
v -0.05641764 -0.06752305 0.05875373
v -0.05643709 -0.06697984 0.05800306
v -0.04399195 -0.09380178 0.08368146
v -0.04701082 -0.08984028 0.06972954
v -0.04430997 -0.08922957 0.06403317
v -0.04139935 -0.09272216 0.07037415
v -0.05273300 -0.08526458 0.07730918
v -0.05100045 -0.08768491 0.07639147
v -0.04134977 -0.09406723 0.07633965
v -0.05156028 -0.08581273 0.07135869
v -0.04968558 -0.08594720 0.06544491
v -0.04718670 -0.08778824 0.06466369
v -0.05478347 -0.07854541 0.06850836
v -0.05455742 -0.08073731 0.07381789
v -0.05311617 -0.08451651 0.07693326
v -0.04970470 -0.08967672 0.08064678
v -0.04639077 -0.09156163 0.07486256
v -0.04129361 -0.09474964 0.08309617
v -0.05642034 -0.06044520 0.04604172
v -0.04789141 -0.05793260 0.00286063
v -0.04916698 -0.05598433 0.00267081
v 0.00102653 -0.09129600 0.28800064
v -0.04128122 0.09483841 0.08458725
v -0.05362657 0.04566228 0.00582882
v -0.05382346 0.04298225 0.00764461
v -0.05619299 -0.02908899 0.03530573
v -0.05575978 -0.05478989 0.03266809
v -0.05819284 -0.02972357 0.06423765
v -0.05587211 -0.05536716 0.03437258
v -0.05606829 -0.05146138 0.03530547
v -0.05621999 -0.05659519 0.03957678
v -0.05667105 -0.05729584 0.04617699
v -0.05806697 -0.05138914 0.06423458
v -0.05575978 0.05479623 0.03266809
v -0.05557722 0.05377746 0.02994610
v -0.05667105 0.05730198 0.04617699
v -0.05820598 0.04049832 0.06423362
v -0.05646954 0.05709060 0.04324324
v -0.05610140 0.05626397 0.03781500
v -0.05606829 0.05146751 0.03530549
v -0.05619299 0.02909513 0.03530575
v -0.05829400 -0.08473305 0.21237592
v -0.05039766 -0.09567420 0.21215467
v -0.06047072 -0.07852499 0.23679988
v -0.06527584 -0.04576658 0.23222972
v -0.06409762 -0.05879016 0.23681943
v -0.06287807 -0.06816937 0.23682334
v -0.05372357 -0.09200437 0.23660614
v -0.05585968 -0.08886231 0.23668228
v -0.05841120 -0.08401112 0.23675860
v -0.05831624 -0.08496614 0.22442158
v -0.05273575 -0.09326617 0.23656811
v -0.04135620 -0.10304765 0.23602246
v -0.04464247 -0.10085516 0.23619746
v -0.04874047 -0.09750621 0.23639663
v -0.04118394 -0.10230954 0.21175508
v -0.04857503 -0.09770696 0.22421263
v -0.05397535 -0.09201612 0.22431694
v -0.05706745 -0.08706398 0.21235235
v -0.05406309 -0.09158538 0.21227421
v -0.05337377 -0.09245144 0.21225347
v -0.06141495 -0.07644005 0.21240656
v -0.06129468 -0.07712163 0.22451310
v -0.06366605 -0.06597368 0.22461341
v -0.06537782 -0.04922186 0.22472949
v -0.06568053 -0.04666187 0.21235894
v -0.03606987 -0.09576423 0.27211905
v -0.03899663 -0.09320040 0.27160457
v -0.02916231 -0.09346913 0.28017733
v -0.03249930 -0.09437387 0.27699646
v -0.03569831 -0.09146185 0.27672908
v -0.04174084 -0.09448074 0.26603353
v -0.04089721 -0.10039602 0.25592762
v -0.04596898 -0.09624882 0.25416330
v -0.04082418 -0.10020883 0.25658047
v -0.04406952 -0.09548922 0.26019576
v -0.03983574 -0.09855445 0.26235810
v -0.03970069 -0.09839197 0.26292574
v -0.04139445 -0.10297166 0.23880135
v -0.04141639 -0.10233088 0.24606736
v -0.04859333 -0.09710620 0.24184828
v -0.05088067 -0.09316351 0.24851032
v -0.04751009 -0.09684347 0.24802662
v -0.04561095 -0.07107599 0.28222281
v -0.04919546 -0.07107659 0.27842325
v -0.05241729 -0.07107534 0.27395281
v -0.05019571 -0.07671978 0.27315903
v -0.05293922 -0.07799520 0.26752278
v -0.05520054 -0.07899053 0.26160449
v -0.05804919 -0.07107545 0.26177844
v -0.04694467 -0.07509752 0.27839375
v -0.04445144 -0.07107539 0.28324771
v -0.06133175 -0.07107548 0.24718194
v -0.05829402 -0.08022122 0.24930038
v -0.05696845 -0.07971941 0.25550401
v -0.05228933 -0.08851428 0.25507033
v -0.05029760 -0.08764438 0.26113907
v -0.04789113 -0.08657552 0.26702759
v -0.04500557 -0.08521353 0.27261764
v -0.04112214 -0.10099594 0.25349936
v -0.05380737 -0.08912461 0.24890135
v -0.03992694 -0.07830317 0.28249714
v -0.04160541 -0.08346815 0.27775171
v -0.05627584 -0.08478515 0.24916770
v -0.06234424 -0.07107462 0.23682101
v -0.06216738 -0.06682123 0.24703591
v -0.06334264 -0.05803590 0.24664696
v -0.06421374 -0.04576619 0.24599002
v -0.06500345 -0.04576679 0.23679148
v -0.05977182 -0.07107522 0.25567189
v -0.06012857 -0.07022010 0.25502813
v -0.06216024 -0.05866985 0.25457630
v -0.06314872 -0.04576667 0.25415900
v -0.06083691 -0.05685745 0.26177847
v -0.05957502 -0.06485309 0.26177850
v -0.04385216 -0.07208879 0.28316790
v -0.04100454 -0.07066242 0.28604233
v -0.05333675 -0.04576652 0.28400823
v -0.05301411 -0.04726635 0.28411993
v -0.05422683 -0.04576679 0.28244144
v -0.05298445 -0.04739617 0.28413004
v -0.05310944 -0.05054854 0.28293169
v -0.05040105 -0.05549307 0.28493908
v -0.05089187 -0.05759428 0.28340963
v -0.04934267 -0.05774869 0.28524736
v -0.04817788 -0.06404294 0.28352755
v -0.04446673 -0.06486507 0.28654200
v -0.04473497 -0.06456332 0.28647625
v -0.04681428 -0.06192864 0.28594592
v -0.04888872 -0.05860643 0.28537694
v -0.04182245 -0.06747110 0.28716248
v -0.04240162 -0.06695224 0.28703061
v -0.04261312 -0.06675591 0.28698197
v -0.04296622 -0.06642006 0.28689995
v -0.04415851 -0.06520246 0.28661683
v -0.03186741 -0.08990656 0.28079718
v -0.02639205 -0.09288381 0.28224188
v -0.02229137 -0.09222020 0.28458858
v -0.02816495 -0.09324430 0.28097039
v -0.05685529 -0.04576693 0.27704722
v -0.05404450 -0.05850513 0.27830732
v -0.05549143 -0.07107489 0.26827934
v -0.05668598 -0.06840266 0.26753977
v -0.05427422 -0.06724204 0.27331099
v -0.05664283 -0.05971040 0.27272651
v -0.05828072 -0.05198975 0.27183926
v -0.06014254 -0.05296667 0.26591462
v -0.05876189 -0.06075852 0.26685077
v -0.05135465 -0.06588711 0.27870908
v -0.05598852 -0.05089517 0.27755189
v -0.05942326 -0.04576655 0.27020073
v -0.04781668 -0.09391142 0.12253603
v -0.05766174 -0.08597954 0.21236469
v -0.06573119 -0.04576994 0.21235637
v -0.05990350 -0.07991333 0.19027059
v -0.05949172 -0.08204781 0.21239294
v -0.06203586 -0.07233314 0.19026357
v -0.06296976 -0.06992187 0.21240447
v -0.06369694 -0.06581788 0.21239944
v -0.06448140 -0.06012340 0.21239011
v -0.05575977 -0.08758204 0.16762866
v -0.05192736 -0.09266950 0.16758713
v -0.04847443 -0.09740318 0.21208294
v -0.04746654 -0.09738521 0.19005029
v -0.04638615 -0.09903915 0.21199788
v -0.04783104 -0.09793161 0.21205755
v -0.04561323 -0.09517016 0.12253704
v -0.04637026 -0.09477793 0.12253662
v -0.05392270 -0.08763151 0.12253628
v -0.05119402 -0.09243722 0.14503358
v -0.05067690 -0.09162264 0.12253562
v -0.05475672 -0.08797155 0.14505009
v -0.05759559 -0.08215944 0.14502375
v -0.05656301 -0.08232464 0.12249301
v -0.05970371 -0.07512285 0.14500040
v -0.05862681 -0.07547443 0.12245084
v -0.06121432 -0.06677695 0.14498071
v -0.06007072 -0.06719290 0.12240929
v -0.06239909 -0.06567381 0.16759653
v -0.06236891 -0.04575907 0.13582300
v -0.06086638 -0.07399969 0.16760796
v -0.05871805 -0.08130275 0.16762142
v -0.04702577 -0.09671696 0.16751736
v -0.04884123 -0.09319024 0.12253576
v -0.06352138 -0.06410153 0.19025236
v -0.06452604 -0.04577793 0.17312245
v -0.04191961 -0.06592874 0.00777943
v -0.04144434 -0.09075750 0.06496158
v -0.04007987 -0.10239671 0.24607085
v -0.04012619 -0.10284446 0.24224456
v -0.00510383 -0.09131311 0.28788960
v -0.01081169 -0.09143020 0.28743568
v -0.01605099 -0.09165998 0.28659254
v -0.01900242 -0.09186940 0.28583863
v -0.05755489 -0.02227823 0.27740899
v -0.05483871 -0.03447939 0.28341427
v -0.05698496 -0.03452955 0.27849931
v -0.06170472 -0.04576673 0.26177844
v -0.06195248 -0.03564595 0.26194248
v -0.05979587 -0.03521119 0.27036130
v -0.06218934 -0.02349733 0.26093125
v -0.05537982 -0.02165444 0.28306890
v -0.06013134 -0.02296285 0.26927757
v -0.05535610 -0.02295331 0.28309312
v -0.06348105 -0.02447279 0.25415978
v -0.05394517 -0.04235388 0.28378779
v -0.05546375 0.00000306 0.28289899
v -0.05331663 -0.04586326 0.28401488
v -0.04128405 -0.10303320 0.23138677
v -0.03816643 -0.09700267 0.26778322
v -0.03526909 -0.09539555 0.27341121
v -0.04042155 -0.10100700 0.25349528
v -0.04042038 -0.10152821 0.25103322
v -0.03953683 -0.10064460 0.25500867
v -0.05760044 -0.06023018 0.06277969
v -0.05781617 -0.05816661 0.06424146
v -0.05687834 -0.07046892 0.07013089
v -0.05638341 -0.07641171 0.08198298
v -0.05326815 -0.08486860 0.08206823
v -0.05477643 -0.08157267 0.08203184
v -0.05765821 -0.06968449 0.08192686
v -0.05181697 -0.08690210 0.07869551
v -0.05085392 -0.08852105 0.08232144
v -0.06585921 -0.02678101 0.23223038
v -0.06499982 -0.02288993 0.24324055
v -0.06664276 0.00000246 0.21246554
v -0.06663629 0.00000225 0.20889638
v -0.06647515 -0.02280526 0.20889701
v -0.06542172 -0.02280320 0.17805900
v -0.06518499 0.00000118 0.17177199
v -0.06626620 0.00000306 0.22817071
v -0.06544641 -0.04576649 0.22849603
v -0.06550506 -0.04577677 0.19669028
v -0.06571569 -0.04577221 0.20890169
v -0.06634104 0.00000148 0.19490315
v -0.05648874 -0.06391867 0.05307464
v -0.06100460 -0.05735667 0.12236547
v -0.05198955 -0.08866601 0.10254923
v -0.04773381 -0.09276690 0.10254947
v -0.04811261 -0.09123920 0.08232144
v -0.04703938 -0.09203474 0.08232147
v -0.05150888 -0.09077097 0.12253571
v -0.04061229 -0.10184635 0.20206074
v -0.03990864 -0.10163285 0.25056836
v -0.03948205 -0.10052212 0.25547430
v -0.06071875 0.07871124 0.21240373
v -0.06175332 0.07522182 0.21240707
v -0.06537782 0.04922800 0.22472949
v -0.06573119 0.04577608 0.21235637
v -0.06571367 0.04577333 0.21718951
v -0.06366605 0.06597982 0.22461341
v -0.06129468 0.07712775 0.22451310
v -0.05337368 0.09245767 0.21225347
v -0.05471620 0.09072027 0.21229301
v -0.05397535 0.09202224 0.22431694
v -0.05750791 0.08627397 0.21236174
v -0.05831624 0.08497226 0.22442158
v -0.04701142 0.09857880 0.21202414
v -0.04857503 0.09771308 0.22421263
v -0.04231392 0.10168420 0.21181117
v -0.04118394 0.10231566 0.21175508
v -0.04128405 0.10303932 0.23138677
v -0.04612406 0.09974109 0.23627274
v -0.05009166 0.09620960 0.23645718
v -0.04921531 0.09706770 0.23641808
v -0.04843269 0.09779337 0.23638265
v -0.05366065 0.09209405 0.23660378
v -0.05112636 0.09495926 0.21218021
v -0.05799690 0.08491720 0.23674794
v -0.05654699 0.08770491 0.23670502
v -0.05912203 0.08233671 0.23677497
v -0.05982997 0.08120178 0.21239664
v -0.06478958 0.04988284 0.23680346
v -0.06322827 0.06595996 0.23682378
v -0.06234424 0.07108074 0.23682101
v -0.06527584 0.04577270 0.23222972
v -0.06500345 0.04577291 0.23679148
v -0.05829402 0.08022735 0.24930038
v -0.02916231 0.09347527 0.28017733
v -0.03590687 0.08425570 0.28167862
v -0.05178016 0.07108182 0.27493569
v -0.04833652 0.07108282 0.27943093
v -0.04694467 0.07510366 0.27839375
v -0.05293922 0.07800132 0.26752278
v -0.05716838 0.07108164 0.26427242
v -0.05459520 0.07108086 0.27011931
v -0.05696845 0.07972555 0.25550401
v -0.06004294 0.07108139 0.25448561
v -0.06133175 0.07108162 0.24718194
v -0.06234260 0.07108088 0.23685516
v -0.06093534 0.07697478 0.23680674
v -0.05548890 0.08946158 0.23666959
v -0.04135620 0.10305378 0.23602246
v -0.04859333 0.09711234 0.24184828
v -0.04141639 0.10233702 0.24606736
v -0.04751009 0.09684958 0.24802662
v -0.04142529 0.10256578 0.24432240
v -0.04141431 0.10287258 0.24083881
v -0.04596898 0.09625494 0.25416330
v -0.04113700 0.10105507 0.25326213
v -0.03402050 0.09490199 0.27516389
v -0.03569831 0.09146799 0.27672908
v -0.03899663 0.09320654 0.27160457
v -0.03829368 0.09710161 0.26745853
v -0.05019571 0.07672590 0.27315903
v -0.05627584 0.08479126 0.24916770
v -0.05380737 0.08913074 0.24890135
v -0.05294153 0.08342817 0.26144519
v -0.05520054 0.07899667 0.26160449
v -0.05485769 0.08944048 0.24266978
v -0.05228933 0.08852042 0.25507033
v -0.04406952 0.09549536 0.26019576
v -0.05029760 0.08765051 0.26113907
v -0.04789113 0.08658165 0.26702759
v -0.04174084 0.09448686 0.26603353
v -0.04500557 0.08521967 0.27261764
v -0.04160541 0.08347429 0.27775171
v -0.04222742 0.07473941 0.28291556
v -0.04445144 0.07108153 0.28324771
v -0.06278686 0.06278211 0.24686907
v -0.06421374 0.04577233 0.24599002
v -0.06371880 0.06228168 0.23682253
v -0.06387364 0.05169748 0.24631803
v -0.06314872 0.04577279 0.25415900
v -0.06012857 0.07022622 0.25502813
v -0.05804919 0.07108158 0.26177844
v -0.06216024 0.05867599 0.25457630
v -0.06170472 0.04577285 0.26177844
v -0.02816495 0.09325042 0.28097039
v -0.04781698 0.06043550 0.28567582
v -0.05105526 0.05715279 0.28338945
v -0.05124053 0.05337937 0.28468719
v -0.05224076 0.05360226 0.28317878
v -0.05331663 0.04586938 0.28401488
v -0.05422683 0.04577291 0.28244144
v -0.05333675 0.04577266 0.28400823
v -0.04100468 0.07066834 0.28604233
v -0.04553869 0.06361672 0.28627574
v -0.04803433 0.06435061 0.28352472
v -0.04989791 0.06015496 0.28349584
v -0.02386716 0.09245464 0.28378016
v -0.05135465 0.06589325 0.27870908
v -0.04680264 0.06682071 0.28347179
v -0.05668598 0.06840880 0.26753977
v -0.05427422 0.06724818 0.27331099
v -0.05730886 0.04577295 0.27597412
v -0.05598852 0.05090129 0.27755189
v -0.05828072 0.05199587 0.27183926
v -0.05977738 0.04577270 0.26907820
v -0.06014254 0.05297279 0.26591462
v -0.06097785 0.05561543 0.26177850
v -0.05404450 0.05851126 0.27830732
v -0.05664283 0.05971654 0.27272651
v -0.05876189 0.06076466 0.26685077
v -0.05983673 0.06351197 0.26177862
v -0.04702573 0.09672311 0.16751736
v -0.06352131 0.06410812 0.19025236
v -0.06121426 0.06678353 0.14498071
v -0.05970364 0.07512930 0.14500040
v -0.05862681 0.07548057 0.12245084
v -0.05759550 0.08216581 0.14502375
v -0.05656301 0.08233078 0.12249301
v -0.05475663 0.08797783 0.14505009
v -0.05122222 0.09108183 0.12253567
v -0.05067685 0.09162882 0.12253562
v -0.04664342 0.09586535 0.14501075
v -0.04637023 0.09478408 0.12253662
v -0.05119395 0.09244342 0.14503358
v -0.04855199 0.09340990 0.12253582
v -0.04118336 0.10183591 0.20274006
v -0.04783099 0.09793779 0.21205755
v -0.04746648 0.09739140 0.19005029
v -0.05192729 0.09267570 0.16758712
v -0.05575968 0.08758833 0.16762866
v -0.05829401 0.08473918 0.21237592
v -0.05871796 0.08130911 0.16762142
v -0.05990341 0.07991970 0.19027059
v -0.06203579 0.07233962 0.19026357
v -0.06470837 0.05814655 0.21238644
v -0.06369694 0.06582400 0.21239944
v -0.06335938 0.06784110 0.21240212
v -0.06086630 0.07400616 0.16760796
v -0.06239903 0.06568040 0.16759653
v -0.06534183 0.04578021 0.19121985
v -0.04012619 0.10285062 0.24224456
v -0.04013997 0.10284676 0.22189637
v -0.05484387 0.03441949 0.28341180
v -0.05698496 0.03453569 0.27849931
v -0.05535648 0.02295946 0.28309327
v -0.06195248 0.03565207 0.26194248
v -0.06218934 0.02350347 0.26093125
v -0.06013134 0.02296899 0.26927757
v -0.05979587 0.03521733 0.27036130
v -0.05755489 0.02228438 0.27740899
v -0.04289474 0.06649502 0.28691664
v -0.03991080 0.06901366 0.28758305
v -0.04007987 0.10240284 0.24607085
v -0.03077225 0.09387900 0.27875751
v -0.04089721 0.10040215 0.25592762
v -0.03980406 0.09852059 0.26249775
v -0.03630302 0.09588712 0.27171001
v -0.04042155 0.10101314 0.25349528
v -0.03953683 0.10065073 0.25500867
v -0.03990864 0.10163899 0.25056836
v -0.03948205 0.10052826 0.25547430
v -0.04042038 0.10153435 0.25103322
v -0.05553370 0.07661045 0.06983645
v -0.05687834 0.07047506 0.07013089
v -0.05747765 0.07089640 0.08193655
v -0.05670557 0.07503532 0.08197095
v -0.05520809 0.08040850 0.08202007
v -0.05781617 0.05817273 0.06424146
v -0.04990825 0.08959614 0.08232144
v -0.05203434 0.08694184 0.08232144
v -0.05326815 0.08487472 0.08206823
v -0.06581576 0.02914745 0.23223282
v -0.06492184 0.00000309 0.24425758
v -0.06604963 0.00000306 0.23222961
v -0.06345953 0.03120883 0.25416061
v -0.06499982 0.02289604 0.24324055
v -0.06396233 0.04578517 0.16282682
v -0.06542173 0.02280934 0.17805931
v -0.06647515 0.02281137 0.20889725
v -0.05677702 0.06542759 0.05910598
v -0.05631765 0.05882756 0.04245234
v -0.06236891 0.04576521 0.13582300
v -0.05786382 0.06815946 0.08191472
v -0.06100460 0.05736279 0.12236547
v -0.05392270 0.08763763 0.12253628
v -0.06007072 0.06719904 0.12240929
v -0.05199134 0.08866975 0.10254847
v -0.04773645 0.09277114 0.10254870
v -0.01828826 0.09181781 0.28604561
v -0.01312299 0.09151988 0.28712589
v 0.00102653 0.09130214 0.28800064
v -0.02229137 0.09222634 0.28458858
v -0.00584127 0.09132791 0.28785351
v -0.05158348 -0.01937856 0.00059417
v -0.05156320 0.04786640 0.00198017
v 0.00127785 0.01500041 -0.00890813
v -0.00128382 0.01499992 -0.00890809
v 0.00128356 -0.01499959 -0.00890870
v 0.00128284 -0.01119959 -0.00890862
v -0.00127811 -0.01500008 -0.00890866
v -0.00127883 -0.01120008 -0.00890859
v 0.00361227 -0.06422717 0.00252157
v -0.04123605 0.09224881 0.06874869
v -0.04125273 0.09376483 0.07449797
v -0.04126988 0.09458145 0.08066627
v -0.04101671 -0.06284843 0.00236305
v -0.04103162 -0.06615126 0.00780309
v -0.04008826 -0.10291293 0.22338219
v -0.04104065 0.06282653 0.00236526
v -0.03632118 0.06402135 0.00250190
v -0.03234556 0.06421575 0.00252440
v -0.02898920 0.10271410 0.24608755
v -0.02887089 0.10292289 0.24471951
v -0.02897137 -0.10272155 0.24607843
v -0.03233916 0.06739584 0.00796146
v -0.03674890 0.06707637 0.00792441
v -0.03975809 -0.10123650 0.25250116
v -0.02893716 0.10172038 0.25098452
v -0.02891966 -0.10172829 0.25097340
v -0.03685056 0.09580222 0.08561824
v -0.03176289 0.09625266 0.08630295
v -0.02813177 0.09600221 0.08126363
v -0.02913793 0.09606461 0.08215689
v -0.02979094 0.09613714 0.08333305
v -0.02948122 0.09609658 0.08265901
v -0.03129731 0.09508318 0.07470683
v -0.04121834 0.08977506 0.06259281
v -0.03851411 0.09093618 0.06370585
v -0.03758544 0.09468890 0.07516747
v 0.00421644 0.09044629 0.06118397
v -0.01918660 0.09136566 0.06284937
v -0.01877557 0.09492979 0.07413626
v -0.01906301 0.09344211 0.06840581
v 0.00468851 0.09315150 0.06871463
v -0.03831504 0.09313505 0.06936654
v -0.03201966 0.09143126 0.06332314
v -0.03185576 0.09359185 0.06893394
v 0.03694077 0.10246693 0.24815343
v 0.00300566 0.09359474 0.28002217
v 0.03591620 0.10050796 0.25617698
v -0.04123883 -0.09471919 0.08225974
v -0.04121889 -0.09392327 0.07522617
v -0.04120290 -0.09252743 0.06953144
v -0.03684098 -0.09581947 0.08561173
v -0.02439249 -0.09635036 0.08662096
v -0.03189640 -0.09626998 0.08628424
v -0.03385654 -0.09614965 0.08606979
v -0.03747348 -0.09480343 0.07562802
v -0.04118621 -0.09022595 0.06353781
v -0.03824695 -0.09328072 0.06974003
v 0.00511027 -0.09488199 0.07575990
v 0.00529712 -0.09583356 0.08316190
v 0.00477011 -0.09338664 0.06949396
v -0.01901334 -0.09357342 0.06877369
v -0.01871065 -0.09503546 0.07459255
v 0.00502184 -0.09451639 0.07395222
v -0.01914877 -0.09150264 0.06313419
v 0.00431525 -0.09087401 0.06219874
v -0.03120346 -0.09519073 0.07516613
v -0.03179467 -0.09373108 0.06930489
v -0.03198567 -0.09157839 0.06361127
v -0.03848133 -0.09108634 0.06399717
v -0.03665680 -0.06711608 0.00792441
v -0.03751528 -0.06385955 0.00247855
v 0.03581201 -0.06421031 0.00251985
v -0.03232111 -0.06423435 0.00252214
v -0.03578799 -0.06409657 0.00250605
v -0.04105682 0.06613146 0.00780596
v -0.03964571 0.06332754 0.00242208
v -0.03227096 -0.06741369 0.00795830
v -0.03231912 -0.06741501 0.00796246
v 0.03578765 0.06423980 0.00252470
v 0.00198780 0.06423336 0.00252519
v 0.03590175 0.09015126 0.06289199
v 0.03882976 0.09202656 0.07007527
v 0.03175906 0.09085180 0.06340427
v 0.03515154 0.09332437 0.07274403
v 0.03898488 0.09287638 0.07350366
v 0.00427700 0.09086574 0.06219831
v 0.02780737 0.09129761 0.06401099
v 0.02000062 0.09166401 0.06458996
v 0.03841938 -0.08854358 0.06019790
v 0.03623322 -0.09036289 0.06358308
v 0.02268114 -0.09467403 0.07617357
v 0.02038178 -0.09215362 0.06602006
v 0.03915631 -0.09343883 0.07652710
v 0.03584932 -0.09366000 0.07475610
v 0.02831372 -0.09177081 0.06542043
v 0.03232762 -0.09131036 0.06480214
v 0.03145130 -0.09419935 0.07544257
v 0.02425591 -0.09555518 0.08504590
v 0.03368765 -0.09499758 0.08423743
v 0.03833068 -0.09436443 0.08352037
v 0.03946169 -0.09413595 0.08329349
v 0.00202167 -0.09188519 0.28598496
v 0.00470984 -0.09191213 0.28591073
v 0.01326699 -0.09213848 0.28518444
v 0.01501009 -0.09221715 0.28492227
v 0.01983456 -0.09250896 0.28394040
v 0.02488810 -0.09295849 0.28241012
v 0.02553631 -0.09302914 0.28216809
v 0.03036322 -0.09367584 0.27994642
v 0.03227316 -0.09400400 0.27881595
v 0.03449757 -0.09445404 0.27726230
v 0.03855542 -0.09553818 0.27351063
v 0.04132494 -0.09658385 0.26988399
v 0.03583255 -0.10039880 0.25653780
v 0.04628186 -0.10039756 0.25662142
v 0.04685102 -0.10178813 0.25095031
v 0.03632770 -0.10097412 0.25449380
v 0.04702349 -0.10262690 0.24608874
v 0.03688987 -0.10281746 0.24612555
v 0.03392044 0.09433367 0.27769026
v 0.01981844 0.09250671 0.28394872
v 0.03446989 0.09445260 0.27727991
v 0.03831657 0.09546930 0.27376544
v 0.04370968 0.09786302 0.26546207
v 0.04670279 0.10139915 0.25279182
v 0.04700568 0.10263306 0.24609806
v 0.04687917 0.10195550 0.25013587
v 0.03687201 0.10282184 0.24613489
v 0.00202191 -0.09360941 0.27997121
v 0.03676779 0.10173638 0.25155249
v 0.04626442 0.10040262 0.25663057
v 0.02552965 0.09302887 0.28217331
v 0.03035089 0.09367655 0.27995318
v 0.03982589 0.09598555 0.27197742
v 0.04132393 0.09659368 0.26986891
v 0.01983675 -0.02000450 0.30965605
v 0.01982913 0.01999549 0.30965680
v 0.03872368 0.09132161 0.06772090
v 0.01850211 0.02654227 0.30965695
v 0.03886482 -0.09201917 0.07007179
v 0.03875959 -0.09133402 0.06776717
v 0.03593365 -0.10050467 0.25616783
v 0.03689808 -0.10279642 0.24625596
v 0.03682108 -0.10181674 0.25118625
f 1230 1154 1155
f 1230 13 1154
f 561 1203 1210
f 1224 1158 1156
f 1156 1160 1224
f 1156 21 5
f 564 556 565
f 1156 1158 1157
f 1158 1159 1157
f 1155 1154 1157
f 1157 1159 1155
f 1155 1169 1231
f 1231 1230 1155
f 18 13 17
f 13 1230 17
f 559 444 562
f 1164 1158 1222
f 1156 5 6
f 22 21 1156
f 1223 1160 1156
f 785 817 813
f 813 817 805
f 799 840 863
f 800 863 858
f 799 863 800
f 942 949 943
f 942 945 940
f 938 945 942
f 1063 1042 1107
f 1049 1101 1050
f 1061 1062 1060
f 1060 1049 1061
f 1101 1049 1060
f 1060 1062 1063
f 233 238 229
f 229 230 233
f 236 238 244
f 244 238 233
f 233 230 250
f 328 326 391
f 397 341 396
f 973 982 978
f 1008 978 981
f 558 1084 975
f 558 1178 1084
f 1012 558 1007
f 973 980 977
f 977 1012 1007
f 980 1008 977
f 973 977 972
f 555 554 566
f 566 565 555
f 555 565 556
f 737 1178 1163
f 1084 1178 737
f 1163 678 737
f 678 1084 737
f 751 742 944
f 944 1136 751
f 944 747 943
f 742 747 944
f 943 949 944
f 944 949 1136
f 740 742 751
f 749 661 662
f 751 1136 1126
f 1126 750 751
f 1136 949 1137
f 940 945 1137
f 945 1130 1137
f 890 887 889
f 933 934 729
f 888 887 890
f 888 934 933
f 662 661 641
f 1034 1041 1003
f 1063 1062 1064
f 1064 1042 1063
f 1154 7 19
f 19 1157 1154
f 19 20 1156
f 1156 1157 19
f 1154 13 8
f 8 7 1154
f 9 13 18
f 134 569 100
f 220 168 185
f 185 554 220
f 812 802 811
f 811 802 803
f 796 815 762
f 795 797 796
f 697 658 659
f 901 659 1164
f 1164 1222 901
f 1280 1253 787
f 1269 562 444
f 1158 1224 1225
f 1225 1222 1158
f 1221 1222 1225
f 35 34 509
f 509 6 35
f 509 33 4
f 509 34 33
f 4 1223 509
f 1156 6 509
f 509 1223 1156
f 1156 20 23
f 23 22 1156
f 331 326 328
f 331 500 326
f 4 33 32
f 3 1223 4
f 4 32 3
f 3 32 31
f 2 3 31
f 1223 3 2
f 85 1223 51
f 1160 1223 85
f 85 1224 1160
f 85 1228 1224
f 508 5 21
f 21 37 508
f 508 37 5
f 924 1253 781
f 817 785 850
f 850 785 784
f 530 528 527
f 534 544 533
f 837 836 838
f 1050 1101 575
f 830 805 817
f 801 800 802
f 813 805 801
f 801 805 799
f 799 800 801
f 801 812 813
f 802 812 801
f 856 800 858
f 802 800 856
f 856 803 802
f 804 803 856
f 941 942 940
f 949 942 941
f 940 1137 941
f 941 1137 949
f 946 759 938
f 938 942 946
f 919 913 915
f 1035 1130 1134
f 828 826 829
f 829 862 828
f 828 862 861
f 865 861 860
f 860 854 865
f 861 862 860
f 860 862 859
f 911 854 910
f 911 909 914
f 911 914 865
f 865 854 911
f 910 854 920
f 834 920 854
f 855 859 858
f 838 836 855
f 858 863 855
f 855 863 838
f 1046 575 609
f 1103 1101 1102
f 1101 1060 1102
f 1102 1108 1103
f 1107 1108 1102
f 1063 1107 1102
f 1102 1060 1063
f 228 238 227
f 228 229 238
f 243 247 248
f 245 244 233
f 233 250 245
f 246 244 245
f 232 250 230
f 220 554 232
f 554 555 232
f 1170 1118 1176
f 328 391 392
f 394 419 395
f 397 396 424
f 424 395 419
f 396 395 424
f 564 565 572
f 973 972 1085
f 1085 972 1086
f 1079 1127 1078
f 1078 1127 1145
f 689 671 674
f 640 641 663
f 663 641 661
f 661 683 669
f 669 663 661
f 676 668 669
f 667 668 676
f 667 669 668
f 663 669 667
f 1096 1092 1091
f 1091 1092 961
f 689 674 691
f 1075 1074 1073
f 1075 1088 1077
f 673 1127 689
f 1145 1127 673
f 689 691 673
f 672 677 638
f 635 674 636
f 636 674 671
f 685 687 678
f 678 679 685
f 680 678 1163
f 680 679 678
f 1163 1178 680
f 1178 1187 680
f 979 1008 980
f 978 1008 979
f 979 980 973
f 973 978 979
f 557 1170 556
f 557 556 564
f 564 1182 557
f 1178 558 557
f 1100 558 975
f 558 1012 1099
f 1011 1008 1009
f 1011 977 1008
f 1012 977 1011
f 1011 1099 1012
f 558 1099 1011
f 976 977 1007
f 976 972 977
f 976 1100 975
f 1007 558 976
f 558 1100 976
f 1009 1014 1120
f 1014 1176 1120
f 1120 1176 1118
f 894 900 943
f 943 747 894
f 894 747 900
f 755 740 751
f 1073 1074 1072
f 1136 1137 1098
f 1098 1137 963
f 887 888 886
f 943 900 947
f 947 942 943
f 932 713 711
f 932 888 890
f 934 888 932
f 890 889 891
f 891 892 890
f 712 713 715
f 652 698 703
f 728 729 934
f 728 932 711
f 934 932 728
f 662 641 660
f 622 644 738
f 656 735 657
f 1155 1159 625
f 625 1159 1158
f 1041 1042 1065
f 1042 1064 1065
f 981 1006 1024
f 1024 1008 981
f 966 971 986
f 983 971 985
f 985 971 966
f 985 992 983
f 968 1088 970
f 984 971 983
f 1006 971 984
f 983 1024 984
f 984 1024 1006
f 988 1034 1003
f 28 24 53
f 18 17 62
f 62 9 18
f 1191 1190 571
f 571 572 565
f 569 104 570
f 570 100 569
f 87 570 104
f 100 570 87
f 563 1166 770
f 563 560 903
f 903 904 563
f 1204 1203 561
f 561 560 1204
f 813 812 782
f 924 781 782
f 782 785 813
f 787 1253 791
f 791 1253 924
f 924 782 786
f 786 782 812
f 786 812 811
f 811 790 786
f 795 769 768
f 794 797 795
f 795 768 794
f 903 927 794
f 794 904 903
f 1172 560 561
f 903 560 1172
f 762 815 763
f 765 763 764
f 811 803 810
f 815 796 810
f 810 790 811
f 758 764 808
f 808 807 758
f 766 796 762
f 795 796 766
f 766 769 795
f 788 796 797
f 790 810 788
f 788 810 796
f 1165 1222 1221
f 1165 901 1222
f 1253 1280 1258
f 422 404 421
f 397 424 421
f 421 424 422
f 403 404 402
f 1221 1225 1229
f 1219 1221 1229
f 1224 1228 1229
f 1229 1225 1224
f 65 500 504
f 41 500 65
f 22 23 41
f 326 500 327
f 327 391 326
f 51 1223 1
f 1223 2 1
f 1228 85 1215
f 1219 1229 1215
f 1215 1229 1228
f 85 1216 1215
f 1243 1212 1215
f 1215 1216 1243
f 1217 1210 1203
f 1203 1204 1217
f 1211 1212 1243
f 35 6 36
f 36 6 5
f 337 350 340
f 1249 562 561
f 561 1210 1249
f 1249 1210 1242
f 559 562 1250
f 1250 1251 559
f 562 1249 1250
f 1250 1245 1251
f 380 32 33
f 388 310 397
f 397 421 388
f 388 421 404
f 107 131 173
f 845 846 831
f 262 599 259
f 420 392 391
f 420 419 394
f 599 292 589
f 550 544 534
f 534 535 550
f 522 521 532
f 534 533 532
f 532 535 534
f 524 522 523
f 522 532 523
f 523 532 533
f 600 1290 599
f 910 920 514
f 514 1101 910
f 514 575 1101
f 1110 1051 1109
f 994 1051 598
f 598 1043 994
f 1051 1110 598
f 598 1110 1109
f 994 1043 993
f 831 830 816
f 538 831 816
f 816 850 538
f 817 850 816
f 816 830 817
f 805 830 798
f 799 805 798
f 798 840 799
f 842 843 798
f 798 843 840
f 759 760 823
f 823 822 938
f 938 759 823
f 820 826 821
f 821 760 820
f 822 823 821
f 821 823 760
f 820 760 761
f 858 859 857
f 857 856 858
f 859 862 857
f 804 856 857
f 829 804 857
f 857 862 829
f 913 919 827
f 822 821 827
f 827 821 826
f 938 822 939
f 822 827 939
f 939 827 919
f 1133 1035 1134
f 1041 1034 1037
f 987 1035 1037
f 864 860 859
f 854 860 864
f 864 834 854
f 859 855 864
f 836 834 864
f 864 855 836
f 1103 916 918
f 918 1101 1103
f 910 1101 918
f 918 911 910
f 909 911 918
f 918 916 909
f 921 1108 909
f 909 916 921
f 921 916 1103
f 1103 1108 921
f 1033 1052 1109
f 609 1052 1044
f 1044 1046 609
f 1052 1053 1044
f 1050 575 1048
f 575 1046 1048
f 1048 1066 1061
f 1048 1049 1050
f 1061 1049 1048
f 1066 1048 1047
f 1047 1048 1046
f 257 243 248
f 260 243 257
f 235 244 246
f 246 247 235
f 247 243 235
f 236 244 235
f 1279 555 556
f 556 1170 1279
f 249 245 250
f 250 1276 249
f 969 967 968
f 969 1006 981
f 981 978 969
f 968 970 969
f 969 978 982
f 982 967 969
f 969 971 1006
f 969 970 971
f 1077 1088 1087
f 1087 967 982
f 1087 1088 968
f 968 967 1087
f 1087 982 973
f 973 1085 1087
f 1138 694 1126
f 693 683 661
f 661 694 693
f 694 1138 693
f 1122 683 693
f 693 1138 1122
f 664 674 635
f 664 667 674
f 635 619 639
f 640 663 639
f 663 667 639
f 639 664 635
f 667 664 639
f 1095 961 1092
f 1095 1092 1071
f 1095 965 966
f 966 961 1095
f 1145 673 1128
f 1128 673 691
f 676 669 682
f 682 669 683
f 682 675 674
f 682 667 676
f 674 667 682
f 1073 1096 1090
f 1090 1075 1073
f 1090 1096 1091
f 1088 1075 1090
f 1125 1124 1074
f 1145 1128 1143
f 1077 1078 1143
f 1143 1078 1145
f 671 672 637
f 637 636 671
f 689 1127 686
f 686 671 689
f 687 685 686
f 975 1084 1080
f 679 680 1162
f 1162 680 1187
f 638 677 634
f 677 666 634
f 1170 557 1171
f 1179 1182 1178
f 1178 557 1179
f 1179 557 1182
f 1111 557 558
f 558 1011 1111
f 1111 1011 1009
f 1111 1171 557
f 1170 1171 1111
f 1111 1118 1170
f 1009 1120 1111
f 1111 1120 1118
f 679 1161 684
f 1193 684 1161
f 564 1180 1181
f 754 749 662
f 662 755 754
f 754 755 751
f 751 750 754
f 739 755 662
f 740 755 739
f 739 649 740
f 662 660 739
f 739 738 644
f 660 738 739
f 1122 1138 1141
f 1141 1138 1126
f 1136 1098 1135
f 1097 1098 1071
f 1071 1092 1097
f 1092 1096 1097
f 1097 1096 1073
f 1073 1072 1097
f 987 990 991
f 991 990 1130
f 991 1035 987
f 1130 1035 991
f 962 990 987
f 887 886 875
f 868 946 942
f 869 895 896
f 887 875 896
f 896 889 887
f 896 895 889
f 890 892 935
f 935 932 890
f 892 929 935
f 711 713 727
f 713 708 727
f 709 728 727
f 727 728 711
f 652 629 654
f 704 713 712
f 704 708 713
f 712 715 704
f 889 895 893
f 893 891 889
f 900 891 893
f 900 747 930
f 930 929 900
f 900 929 951
f 951 929 892
f 951 891 900
f 892 891 951
f 733 704 715
f 652 703 702
f 740 649 702
f 702 703 740
f 740 703 744
f 744 747 742
f 742 740 744
f 642 660 641
f 642 641 622
f 633 739 644
f 649 739 633
f 633 644 622
f 648 645 647
f 649 633 648
f 648 633 645
f 659 658 632
f 658 631 632
f 1164 659 632
f 632 631 1164
f 734 657 735
f 734 735 1164
f 1164 631 734
f 734 631 658
f 658 657 734
f 652 627 628
f 628 629 652
f 628 627 1158
f 1158 629 628
f 623 633 622
f 645 633 623
f 623 622 1155
f 647 645 646
f 1003 1041 1039
f 1056 1053 996
f 996 995 1056
f 1015 1197 1115
f 1197 1113 1115
f 1008 1024 1021
f 983 992 1020
f 1020 1024 983
f 1020 1021 1024
f 1020 992 1001
f 960 961 966
f 966 986 960
f 1091 961 960
f 960 986 1091
f 966 965 989
f 965 988 989
f 298 295 113
f 173 131 172
f 172 194 173
f 11 12 13
f 24 28 11
f 11 28 12
f 15 8 13
f 27 8 15
f 12 28 29
f 142 121 133
f 121 123 133
f 1233 132 140
f 140 569 134
f 140 132 569
f 569 132 574
f 52 24 56
f 146 57 150
f 62 57 146
f 1191 571 1192
f 105 87 104
f 185 87 105
f 566 554 105
f 554 185 105
f 161 185 168
f 161 87 185
f 87 161 99
f 99 135 134
f 1199 1202 770
f 1206 1202 1199
f 1199 723 1206
f 709 657 725
f 725 657 658
f 770 1202 957
f 957 563 770
f 1202 563 957
f 1205 1204 560
f 560 563 1205
f 1205 563 1202
f 1205 1202 1206
f 1206 1217 1205
f 1205 1217 1204
f 785 782 925
f 925 782 781
f 784 785 925
f 925 1253 784
f 925 781 1253
f 787 791 789
f 789 791 790
f 789 788 787
f 790 788 789
f 790 791 792
f 792 786 790
f 792 791 924
f 924 786 792
f 767 768 923
f 923 563 767
f 770 1166 923
f 1166 563 923
f 814 794 927
f 797 794 814
f 787 788 814
f 814 788 797
f 904 794 793
f 767 563 793
f 793 563 904
f 793 768 767
f 793 794 768
f 958 927 903
f 903 1172 958
f 1294 1172 561
f 1177 958 1172
f 777 764 758
f 777 765 764
f 765 777 870
f 776 869 870
f 870 777 776
f 809 810 803
f 809 803 804
f 807 808 824
f 824 804 829
f 824 809 804
f 808 809 824
f 784 1253 853
f 1253 851 853
f 853 537 538
f 853 851 537
f 1253 908 852
f 852 851 1253
f 546 851 852
f 546 537 547
f 547 851 546
f 537 851 547
f 461 736 1253
f 542 533 543
f 543 533 544
f 1253 1258 1255
f 470 79 460
f 83 1260 1261
f 435 434 436
f 436 437 435
f 410 404 422
f 410 402 404
f 400 399 403
f 435 437 400
f 400 437 399
f 500 331 498
f 498 504 500
f 498 331 328
f 69 8 27
f 7 8 69
f 67 295 296
f 296 295 298
f 391 327 390
f 51 1 30
f 30 1 2
f 30 2 31
f 1210 1217 1213
f 1219 1215 1218
f 1218 1215 1212
f 1218 1217 1206
f 1212 1213 1218
f 1218 1213 1217
f 330 350 332
f 332 350 337
f 502 44 37
f 334 342 48
f 48 505 334
f 48 36 45
f 45 505 48
f 337 340 349
f 351 395 396
f 351 396 341
f 1245 1250 1248
f 1248 1249 1242
f 1248 1250 1249
f 32 380 375
f 35 342 360
f 460 447 462
f 462 470 460
f 463 470 462
f 234 238 236
f 227 238 234
f 393 420 394
f 392 420 393
f 394 329 393
f 393 329 328
f 328 392 393
f 526 540 527
f 528 525 526
f 526 527 528
f 526 525 524
f 536 537 546
f 546 852 552
f 552 852 908
f 544 550 549
f 736 461 549
f 518 535 519
f 535 532 519
f 599 589 590
f 590 600 599
f 590 589 292
f 1288 1290 601
f 601 602 1288
f 1290 600 601
f 577 1288 578
f 1288 602 578
f 604 577 578
f 578 602 604
f 1287 521 522
f 1288 521 1287
f 1287 522 524
f 524 525 1287
f 1287 525 528
f 1288 1287 276
f 276 1287 491
f 495 528 530
f 495 1287 528
f 837 514 835
f 836 837 835
f 840 843 844
f 844 863 840
f 610 598 1109
f 609 598 610
f 1109 1052 610
f 610 1052 609
f 253 580 252
f 584 255 251
f 778 761 760
f 917 913 914
f 912 828 861
f 913 827 912
f 826 828 912
f 912 827 826
f 912 861 865
f 865 914 912
f 914 913 912
f 1132 1130 945
f 1134 1130 1132
f 1132 945 938
f 938 939 1132
f 1035 1133 1038
f 1038 1037 1035
f 1038 1042 1041
f 1041 1037 1038
f 1042 1038 1104
f 1104 1038 1133
f 1104 1106 1107
f 1104 1107 1042
f 1105 919 915
f 1105 1133 919
f 1105 1104 1133
f 1057 1053 1052
f 1052 1033 1057
f 1057 996 1053
f 1033 996 1057
f 1109 1051 1032
f 1032 1033 1109
f 1032 1051 994
f 1046 1044 1054
f 1054 1053 1056
f 1054 1044 1053
f 263 262 260
f 260 257 263
f 263 292 599
f 599 262 263
f 1277 232 555
f 555 1279 1277
f 1116 1176 1014
f 1116 1117 1176
f 1014 1113 1116
f 1116 1113 1117
f 1281 249 1276
f 1176 1117 1281
f 245 249 1281
f 1112 1197 1015
f 1043 1055 1112
f 1112 993 1043
f 1015 1016 1112
f 1112 1016 994
f 994 993 1112
f 230 229 221
f 169 168 220
f 176 177 191
f 177 176 115
f 191 216 189
f 188 199 189
f 1082 1078 1077
f 1077 1087 1082
f 1079 1078 1082
f 1082 1083 1079
f 1082 1085 1086
f 1082 1087 1085
f 1094 1095 1071
f 965 1095 1094
f 675 682 1121
f 1121 1125 675
f 1124 1125 1121
f 1121 682 683
f 1121 683 1122
f 1122 1124 1121
f 1089 970 1088
f 1088 1090 1089
f 1089 1090 1091
f 1091 986 1089
f 1089 986 971
f 971 970 1089
f 1074 1075 1076
f 1076 1125 1074
f 1076 1075 1077
f 1077 1143 1076
f 665 672 638
f 638 637 665
f 665 637 672
f 636 637 617
f 688 686 1127
f 687 686 688
f 688 1127 1079
f 1079 1083 688
f 688 1083 687
f 692 672 671
f 671 686 692
f 692 686 685
f 677 672 692
f 692 685 679
f 692 684 677
f 679 684 692
f 975 1080 974
f 1086 972 974
f 974 976 975
f 972 976 974
f 1070 1080 1083
f 1070 1082 1086
f 1083 1082 1070
f 1086 974 1070
f 1070 974 1080
f 1083 1080 1081
f 678 687 1081
f 1081 1084 678
f 1081 1080 1084
f 1168 1227 1174
f 1168 1173 1169
f 1174 1173 1168
f 1168 1169 1155
f 1155 1227 1168
f 1167 634 666
f 666 1227 1167
f 638 634 1167
f 1167 1227 1155
f 1189 1191 1239
f 1191 1192 1239
f 1239 571 1238
f 1239 1192 571
f 1185 666 677
f 677 684 1185
f 1184 571 1190
f 572 571 1184
f 564 572 1184
f 1184 1180 564
f 1184 1181 1180
f 681 1193 1161
f 681 1161 679
f 679 1162 681
f 681 1162 1187
f 1187 1193 681
f 666 1185 1186
f 684 1193 1186
f 1186 1185 684
f 1183 1182 564
f 564 1181 1183
f 1183 1187 1178
f 1178 1182 1183
f 1183 1184 1187
f 1181 1184 1183
f 749 754 748
f 748 754 753
f 753 670 748
f 661 749 748
f 748 670 661
f 752 754 750
f 753 754 752
f 752 670 753
f 1139 694 661
f 661 670 1139
f 670 752 1139
f 1139 752 750
f 750 1126 1139
f 1126 694 1139
f 1123 1124 1122
f 1122 1141 1123
f 1074 1124 1123
f 1140 1126 1136
f 1136 1135 1140
f 1140 1135 1126
f 1142 1135 1098
f 1142 1097 1072
f 1098 1097 1142
f 1142 1141 1126
f 1126 1135 1142
f 963 1137 964
f 964 1137 1130
f 1130 990 964
f 990 962 964
f 1036 988 965
f 965 962 1036
f 1036 962 987
f 1034 988 1036
f 987 1037 1036
f 1036 1037 1034
f 762 763 772
f 772 766 762
f 763 765 772
f 769 766 772
f 942 947 948
f 948 868 942
f 948 947 874
f 946 868 779
f 874 778 779
f 779 778 760
f 779 760 759
f 759 946 779
f 713 932 931
f 932 935 931
f 931 715 713
f 931 935 929
f 709 727 705
f 630 654 629
f 1164 735 630
f 630 1158 1164
f 630 629 1158
f 871 893 895
f 871 869 776
f 871 895 869
f 929 930 746
f 746 930 747
f 747 744 746
f 746 744 745
f 652 702 701
f 701 702 649
f 741 703 698
f 741 744 703
f 643 738 660
f 660 642 643
f 622 738 643
f 643 642 622
f 1152 625 1158
f 647 625 1152
f 1152 648 647
f 645 623 624
f 624 646 645
f 1155 625 624
f 624 623 1155
f 624 625 647
f 647 646 624
f 1041 1065 1069
f 1069 1039 1041
f 1002 992 1003
f 1003 1039 1002
f 1001 992 1002
f 1017 1016 1015
f 1015 1115 1017
f 1019 998 995
f 995 996 1019
f 1117 1113 1119
f 1119 1281 1117
f 1114 1113 1026
f 1008 1021 1010
f 1010 1113 1014
f 1010 1014 1009
f 1009 1008 1010
f 1004 988 1003
f 1004 989 988
f 303 112 295
f 109 113 295
f 295 112 109
f 53 24 309
f 112 303 308
f 119 123 121
f 194 172 171
f 1155 622 1153
f 622 641 1153
f 1153 641 640
f 24 11 10
f 13 9 10
f 10 11 13
f 13 12 14
f 14 15 13
f 12 29 14
f 27 15 72
f 72 29 67
f 15 14 72
f 72 14 29
f 134 135 160
f 160 140 134
f 567 574 1233
f 566 105 567
f 567 105 104
f 1236 132 1233
f 1233 574 1236
f 1236 574 132
f 568 104 569
f 569 574 568
f 568 567 104
f 574 567 568
f 59 1234 1232
f 1289 75 1232
f 141 1289 140
f 75 1289 141
f 16 17 1230
f 1230 512 16
f 26 512 42
f 26 16 512
f 304 125 52
f 62 146 124
f 123 119 124
f 124 119 125
f 100 87 96
f 87 99 96
f 134 100 96
f 96 99 134
f 710 723 717
f 723 1199 717
f 1206 723 1200
f 901 1165 1220
f 1220 1165 1221
f 1220 1221 1219
f 883 888 933
f 883 886 888
f 933 729 721
f 881 717 770
f 561 562 1270
f 1270 1294 561
f 562 1269 1270
f 1269 1294 1270
f 1267 1294 1269
f 1267 1269 444
f 444 446 1267
f 1175 814 927
f 927 958 1175
f 958 1177 1175
f 926 814 1175
f 1175 1177 926
f 926 1177 928
f 787 814 928
f 928 814 926
f 867 765 756
f 765 870 756
f 756 875 867
f 756 896 875
f 869 896 756
f 756 870 869
f 815 810 818
f 810 809 818
f 818 809 808
f 818 808 764
f 818 763 815
f 764 763 818
f 820 807 825
f 807 824 825
f 825 826 820
f 829 826 825
f 825 824 829
f 783 850 784
f 784 853 783
f 538 850 783
f 783 853 538
f 907 908 1253
f 1253 906 907
f 907 552 908
f 550 552 907
f 1253 736 905
f 905 906 1253
f 559 323 459
f 459 323 385
f 403 399 405
f 1254 461 1253
f 1253 1255 1254
f 81 1255 468
f 82 543 468
f 468 543 544
f 468 549 81
f 544 549 468
f 1257 1258 82
f 1257 1255 1258
f 82 468 1257
f 1261 1258 1263
f 1263 1258 76
f 76 1264 1263
f 79 1263 78
f 78 1263 1264
f 78 1264 76
f 76 77 78
f 529 470 463
f 530 527 529
f 529 495 530
f 466 83 1261
f 466 529 527
f 470 529 466
f 82 1258 469
f 469 83 542
f 542 543 469
f 469 543 82
f 1260 83 1259
f 1259 1258 1261
f 1261 1260 1259
f 1259 469 1258
f 83 469 1259
f 542 83 548
f 548 83 540
f 437 436 445
f 445 446 444
f 444 432 445
f 445 432 437
f 403 402 401
f 401 400 403
f 435 400 401
f 21 22 40
f 40 39 21
f 22 41 40
f 40 41 65
f 70 297 68
f 68 69 70
f 71 296 297
f 297 70 71
f 71 70 69
f 71 69 27
f 67 296 71
f 27 72 71
f 71 72 67
f 325 327 118
f 118 390 325
f 325 390 327
f 118 327 116
f 327 300 116
f 1245 1248 1247
f 1247 85 51
f 1212 1211 1214
f 1214 1213 1212
f 1214 1243 1242
f 1214 1211 1243
f 1242 1210 1209
f 1210 1213 1209
f 1209 1214 1242
f 1213 1214 1209
f 37 44 46
f 46 502 506
f 44 502 46
f 39 40 66
f 65 504 66
f 66 40 65
f 330 332 501
f 501 329 330
f 334 505 335
f 47 349 335
f 335 349 340
f 50 505 45
f 45 36 50
f 47 335 50
f 50 335 505
f 5 37 50
f 50 36 5
f 37 46 50
f 50 46 47
f 507 342 35
f 507 48 342
f 35 36 507
f 36 48 507
f 394 395 348
f 395 351 348
f 348 329 394
f 330 329 348
f 1251 1245 86
f 1245 1244 86
f 359 380 33
f 49 34 35
f 35 360 49
f 49 360 34
f 336 342 334
f 336 339 342
f 334 335 336
f 336 335 340
f 361 360 367
f 367 360 342
f 342 339 367
f 363 361 381
f 386 381 347
f 386 405 399
f 806 798 830
f 849 841 806
f 842 798 806
f 806 841 842
f 830 848 806
f 806 848 849
f 847 848 830
f 831 846 847
f 847 830 831
f 284 266 281
f 259 599 280
f 280 282 259
f 599 282 280
f 265 266 284
f 291 273 286
f 291 277 285
f 286 273 272
f 239 243 260
f 218 214 213
f 418 420 391
f 391 390 418
f 524 523 531
f 531 526 524
f 517 536 518
f 545 536 546
f 546 552 545
f 518 536 545
f 545 535 518
f 545 550 535
f 545 552 550
f 81 549 80
f 80 549 461
f 80 1255 81
f 461 1254 80
f 80 1254 1255
f 520 532 521
f 520 519 532
f 518 519 520
f 520 553 518
f 278 276 277
f 277 291 278
f 278 286 279
f 278 291 286
f 277 276 482
f 482 276 491
f 491 1287 493
f 1287 495 493
f 474 291 285
f 273 291 474
f 832 514 920
f 920 834 832
f 839 514 837
f 839 844 514
f 839 837 838
f 838 863 839
f 863 844 839
f 515 844 843
f 514 844 515
f 537 536 515
f 536 517 515
f 1055 588 587
f 597 1055 1043
f 597 588 1055
f 1043 598 597
f 597 598 609
f 251 252 579
f 579 584 251
f 579 252 580
f 580 584 579
f 256 255 593
f 255 584 593
f 585 580 581
f 585 584 580
f 761 778 819
f 819 778 777
f 819 777 758
f 758 807 819
f 819 807 820
f 820 761 819
f 776 777 872
f 777 778 872
f 872 871 776
f 1134 1132 1131
f 1131 1132 939
f 1131 939 919
f 1131 1133 1134
f 919 1133 1131
f 994 1016 1031
f 1031 1032 994
f 1045 1047 1046
f 1046 1054 1045
f 1066 1047 1045
f 1056 1066 1045
f 1045 1054 1056
f 293 263 257
f 293 257 248
f 248 247 293
f 294 590 292
f 1274 294 292
f 1273 294 1274
f 1278 1277 1279
f 250 232 1278
f 232 1277 1278
f 1170 1176 1196
f 1176 1281 1196
f 1196 1279 1170
f 1196 1278 1279
f 1196 1281 1276
f 1196 1276 250
f 250 1278 1196
f 245 1281 1282
f 1282 1113 1197
f 1282 247 246
f 246 245 1282
f 1273 1274 1282
f 222 221 229
f 183 221 222
f 229 228 222
f 222 182 183
f 222 228 227
f 227 182 222
f 231 232 230
f 230 221 231
f 220 232 231
f 231 169 220
f 170 169 231
f 184 183 186
f 184 221 183
f 227 205 223
f 223 182 227
f 186 183 181
f 183 182 181
f 168 169 90
f 106 170 102
f 106 169 170
f 106 138 93
f 93 90 106
f 106 90 169
f 163 103 102
f 163 129 103
f 179 129 163
f 161 88 97
f 128 106 102
f 138 106 128
f 147 146 150
f 150 151 147
f 147 148 142
f 142 133 147
f 389 176 175
f 118 176 389
f 175 390 389
f 389 390 118
f 177 115 114
f 114 174 177
f 113 174 114
f 298 113 114
f 117 176 118
f 118 115 117
f 117 115 176
f 196 194 213
f 213 214 196
f 173 194 196
f 1093 962 965
f 965 1094 1093
f 963 964 1093
f 1093 964 962
f 1093 1094 1071
f 1071 1098 1093
f 1093 1098 963
f 1125 1076 1129
f 1129 1076 1143
f 1129 1128 691
f 1129 1143 1128
f 636 617 618
f 617 1167 618
f 616 637 638
f 616 617 637
f 638 1167 616
f 616 1167 617
f 687 1083 1146
f 1146 1081 687
f 1083 1081 1146
f 1155 620 696
f 696 1167 1155
f 619 1167 696
f 696 639 619
f 640 639 696
f 696 620 640
f 1237 1188 1189
f 1189 1239 1237
f 1237 1239 1188
f 1195 1191 1189
f 1195 1190 1191
f 1195 1184 1190
f 1195 1193 1187
f 1187 1184 1195
f 1194 1173 1174
f 1174 1186 1194
f 1189 1173 1194
f 1194 1195 1189
f 1194 1186 1193
f 1193 1195 1194
f 1226 1186 1174
f 666 1186 1226
f 1174 1227 1226
f 1226 1227 666
f 1144 1142 1072
f 1141 1142 1144
f 1144 1123 1141
f 1144 1072 1074
f 1074 1123 1144
f 867 875 773
f 773 765 867
f 773 772 765
f 780 948 874
f 868 948 780
f 874 779 780
f 780 779 868
f 715 931 716
f 929 733 950
f 950 931 929
f 950 716 931
f 950 733 715
f 715 716 950
f 714 727 708
f 708 705 714
f 714 705 727
f 654 630 655
f 655 735 656
f 655 630 735
f 700 705 708
f 708 704 700
f 654 655 700
f 700 655 705
f 700 704 698
f 700 698 652
f 652 654 700
f 709 705 699
f 699 657 709
f 656 657 699
f 699 655 656
f 705 655 699
f 893 871 899
f 874 947 899
f 871 872 899
f 899 947 900
f 900 893 899
f 707 733 929
f 929 746 707
f 706 698 707
f 707 745 706
f 707 746 745
f 698 704 707
f 704 733 707
f 653 701 651
f 652 701 653
f 651 627 653
f 653 627 652
f 651 701 650
f 650 701 649
f 650 627 651
f 745 744 743
f 744 741 743
f 706 745 743
f 743 698 706
f 743 741 698
f 648 1152 626
f 649 648 626
f 1158 627 626
f 626 1152 1158
f 627 650 626
f 626 650 649
f 1068 1065 1064
f 1068 1069 1065
f 1068 1064 1062
f 1059 1066 1056
f 1056 995 1059
f 1029 1114 1026
f 1026 1027 1029
f 1017 1029 1028
f 1028 1029 1027
f 998 1019 1028
f 1028 1022 998
f 1027 1022 1028
f 1026 1113 1013
f 1113 1010 1013
f 966 989 1005
f 989 1004 1005
f 1005 985 966
f 1005 1004 1003
f 1003 992 1005
f 992 985 1005
f 55 303 295
f 55 29 28
f 55 308 303
f 55 295 67
f 67 29 55
f 142 164 143
f 621 620 1155
f 1155 1153 621
f 640 620 621
f 621 1153 640
f 159 160 135
f 159 151 150
f 566 567 573
f 573 567 1233
f 1235 1234 573
f 573 565 566
f 573 571 565
f 1238 571 573
f 573 1234 1238
f 1232 75 43
f 43 141 42
f 75 141 43
f 1238 1234 73
f 1234 59 73
f 73 1239 1238
f 1188 1239 73
f 1189 1188 73
f 73 1173 1189
f 73 59 1230
f 1230 1231 73
f 73 1231 1169
f 1169 1173 73
f 1233 140 74
f 140 1289 74
f 74 573 1233
f 1235 573 74
f 74 1234 1235
f 1232 1234 74
f 74 1289 1232
f 42 141 156
f 156 141 140
f 150 57 61
f 61 62 17
f 61 57 62
f 17 16 61
f 16 26 61
f 61 149 150
f 26 149 61
f 123 124 145
f 145 124 146
f 146 147 145
f 145 133 123
f 145 147 133
f 125 304 305
f 305 124 125
f 52 56 305
f 305 304 52
f 89 161 168
f 89 88 161
f 732 1199 770
f 770 717 732
f 732 717 1199
f 1206 1200 1208
f 1208 1218 1206
f 1201 1220 1208
f 1219 1218 1208
f 1208 1220 1219
f 902 1220 1201
f 731 723 710
f 731 1200 723
f 710 955 731
f 937 952 936
f 936 952 883
f 936 883 933
f 933 721 936
f 771 768 769
f 769 772 771
f 879 923 768
f 768 771 879
f 879 771 880
f 770 923 879
f 885 730 954
f 954 731 955
f 730 731 954
f 725 718 724
f 709 725 724
f 724 721 729
f 724 728 709
f 729 728 724
f 1294 1267 1295
f 1172 1294 1295
f 1295 1177 1172
f 1295 1267 446
f 787 928 959
f 1265 1280 787
f 787 1293 1265
f 906 905 551
f 550 907 551
f 551 907 906
f 551 549 550
f 736 549 551
f 551 905 736
f 385 323 322
f 322 323 559
f 559 459 431
f 431 406 384
f 384 432 431
f 1256 468 1255
f 1255 1257 1256
f 1256 1257 468
f 460 79 448
f 79 78 448
f 448 447 460
f 448 78 447
f 495 529 472
f 467 1263 79
f 79 470 467
f 470 466 467
f 540 83 539
f 83 466 539
f 527 540 539
f 539 466 527
f 458 445 436
f 76 446 458
f 446 445 458
f 299 116 300
f 299 115 118
f 118 116 299
f 300 301 299
f 68 297 299
f 297 115 299
f 63 19 7
f 7 69 63
f 63 69 68
f 68 299 63
f 63 299 301
f 499 300 327
f 499 327 500
f 500 41 499
f 1243 1216 1246
f 1246 1247 1248
f 85 1247 1246
f 1246 1216 85
f 1242 1243 1246
f 1246 1248 1242
f 333 349 47
f 47 46 333
f 333 46 506
f 337 349 333
f 506 502 333
f 502 501 333
f 333 332 337
f 333 501 332
f 39 66 38
f 38 37 21
f 21 39 38
f 503 66 504
f 503 501 502
f 503 38 66
f 504 498 503
f 329 501 503
f 328 329 503
f 503 498 328
f 330 348 338
f 338 348 351
f 338 350 330
f 338 351 341
f 341 340 338
f 338 340 350
f 352 86 1244
f 356 346 352
f 380 359 362
f 362 361 363
f 362 360 361
f 34 360 362
f 33 34 362
f 362 359 33
f 374 375 380
f 374 373 375
f 380 362 374
f 358 341 397
f 397 310 358
f 339 336 353
f 353 336 340
f 353 340 341
f 443 454 442
f 442 452 443
f 439 452 442
f 412 439 438
f 438 426 412
f 284 281 283
f 283 282 599
f 259 282 283
f 283 281 259
f 599 1290 283
f 283 1290 1288
f 1288 284 283
f 259 281 261
f 261 281 266
f 261 262 259
f 260 262 261
f 261 239 260
f 266 265 288
f 279 286 288
f 288 265 279
f 208 272 273
f 208 188 202
f 237 234 236
f 243 239 237
f 236 235 237
f 237 235 243
f 202 188 209
f 188 189 209
f 209 189 216
f 175 176 190
f 190 176 191
f 190 390 175
f 190 418 390
f 541 523 533
f 541 531 523
f 541 533 542
f 542 548 541
f 541 548 540
f 540 526 541
f 526 531 541
f 518 553 516
f 516 517 518
f 575 514 516
f 514 515 516
f 516 515 517
f 553 520 613
f 264 278 279
f 276 278 264
f 1288 276 264
f 279 265 264
f 264 265 284
f 264 284 1288
f 480 474 285
f 463 462 478
f 833 835 514
f 514 832 833
f 833 834 836
f 836 835 833
f 513 843 842
f 513 515 843
f 842 841 513
f 513 841 849
f 849 848 513
f 848 847 513
f 538 537 513
f 537 515 513
f 513 847 846
f 846 845 513
f 513 831 538
f 513 845 831
f 1147 1055 1150
f 1150 587 1147
f 1055 587 1150
f 602 601 592
f 604 602 592
f 592 593 584
f 873 778 874
f 873 872 778
f 874 899 873
f 873 899 872
f 997 1019 996
f 997 996 1033
f 1033 1032 997
f 1032 1031 997
f 292 263 258
f 263 293 258
f 258 1274 292
f 1275 293 247
f 1286 293 1275
f 247 1282 1275
f 1275 1282 1286
f 256 294 1271
f 1271 294 1273
f 1273 1282 1271
f 256 593 583
f 583 294 256
f 1281 1119 1198
f 1198 1282 1281
f 1198 1119 1113
f 1113 1282 1198
f 581 1151 1148
f 1147 582 1148
f 1148 582 581
f 187 184 186
f 179 184 187
f 207 218 213
f 211 181 182
f 130 164 142
f 164 130 166
f 171 164 178
f 179 163 165
f 170 231 165
f 165 231 221
f 221 184 165
f 165 184 179
f 102 170 162
f 162 163 102
f 170 165 162
f 162 165 163
f 135 99 98
f 98 97 135
f 98 99 161
f 161 97 98
f 95 97 88
f 88 89 95
f 95 89 94
f 151 159 158
f 103 129 158
f 138 128 158
f 102 103 158
f 158 128 102
f 135 138 158
f 158 159 135
f 302 115 297
f 302 114 115
f 298 114 302
f 302 296 298
f 297 296 302
f 173 196 195
f 195 107 173
f 195 109 107
f 675 1125 690
f 1125 1129 690
f 690 1129 691
f 690 691 674
f 674 675 690
f 635 636 695
f 636 618 695
f 695 619 635
f 695 1167 619
f 695 618 1167
f 774 773 875
f 772 773 774
f 774 775 772
f 1067 1062 1061
f 1067 1068 1062
f 1061 1066 1067
f 1066 1059 1067
f 1039 1069 1040
f 1040 1002 1039
f 1069 1068 1040
f 1001 1002 1040
f 1023 1022 1001
f 998 1022 1023
f 1001 1040 1023
f 1023 1040 999
f 995 998 1000
f 1000 1059 995
f 998 1023 1000
f 1000 1023 999
f 1114 1029 1018
f 1018 1115 1113
f 1113 1114 1018
f 1018 1017 1115
f 1018 1029 1017
f 1025 1020 1001
f 1001 1022 1025
f 1021 1020 1025
f 1025 1022 1027
f 1025 1010 1021
f 1025 1013 1010
f 1025 1027 1026
f 1026 1013 1025
f 1030 1028 1019
f 1019 997 1030
f 1030 997 1031
f 1017 1028 1030
f 1016 1017 1030
f 1030 1031 1016
f 54 55 28
f 308 55 54
f 54 28 53
f 53 308 54
f 131 122 136
f 136 143 171
f 136 172 131
f 136 171 172
f 125 119 126
f 126 309 24
f 126 24 52
f 52 125 126
f 101 164 171
f 171 143 101
f 101 143 164
f 155 159 150
f 160 159 155
f 60 59 1232
f 1232 43 60
f 42 512 511
f 511 43 42
f 511 512 1230
f 511 60 43
f 58 26 42
f 42 156 58
f 140 160 157
f 157 156 140
f 160 155 157
f 157 58 156
f 62 124 306
f 124 305 306
f 94 89 91
f 901 1220 1207
f 1207 902 901
f 1220 902 1207
f 659 901 719
f 901 902 719
f 719 902 1201
f 720 731 718
f 720 719 1201
f 718 719 720
f 1200 731 720
f 1201 1208 720
f 720 1208 1200
f 722 730 937
f 937 936 722
f 722 724 718
f 722 936 721
f 721 724 722
f 718 731 722
f 722 731 730
f 770 879 897
f 84 446 76
f 84 1295 446
f 1268 959 928
f 1268 928 1177
f 1177 1295 1268
f 76 1293 1268
f 1268 1293 787
f 787 959 1268
f 1268 84 76
f 1295 84 1268
f 1266 1293 76
f 1266 1265 1293
f 1280 1265 1266
f 76 1258 1266
f 1266 1258 1280
f 312 344 385
f 346 344 312
f 408 459 385
f 408 431 459
f 406 431 408
f 346 322 318
f 318 352 346
f 433 444 559
f 559 431 433
f 433 432 444
f 433 431 432
f 1261 1263 1262
f 1263 467 1262
f 1262 466 1261
f 1262 467 466
f 455 78 77
f 447 78 455
f 455 454 447
f 442 454 453
f 454 455 453
f 64 301 300
f 300 499 64
f 64 63 301
f 64 499 41
f 64 41 23
f 64 23 20
f 20 19 64
f 19 63 64
f 1245 1247 1291
f 1247 1292 1291
f 1291 1244 1245
f 1291 352 1244
f 31 32 378
f 32 375 378
f 1241 1292 1247
f 51 30 1241
f 1241 1247 51
f 497 503 502
f 38 503 497
f 497 502 37
f 37 38 497
f 372 362 363
f 372 374 362
f 373 374 372
f 388 364 343
f 364 358 343
f 310 388 343
f 343 358 310
f 339 353 368
f 368 353 364
f 368 364 361
f 361 367 368
f 368 367 339
f 383 358 364
f 364 353 383
f 341 358 383
f 383 353 341
f 382 364 388
f 387 386 347
f 347 366 387
f 405 386 387
f 387 382 388
f 366 382 387
f 403 405 387
f 387 404 403
f 387 388 404
f 361 364 365
f 365 381 361
f 364 382 365
f 365 382 366
f 347 381 365
f 365 366 347
f 407 432 384
f 437 432 407
f 399 437 407
f 407 386 399
f 381 386 369
f 386 407 369
f 369 407 311
f 449 443 464
f 454 443 449
f 464 478 449
f 449 478 462
f 449 462 447
f 447 454 449
f 452 439 451
f 423 426 422
f 422 424 423
f 423 424 419
f 402 410 409
f 435 401 409
f 409 401 402
f 441 438 439
f 441 434 435
f 435 409 441
f 441 409 438
f 203 208 202
f 272 208 203
f 273 474 219
f 219 208 273
f 188 208 219
f 234 237 242
f 242 237 239
f 242 241 234
f 270 241 242
f 266 288 287
f 418 190 217
f 191 189 217
f 217 190 191
f 615 516 553
f 553 613 615
f 575 516 615
f 609 575 615
f 612 613 520
f 612 520 521
f 492 482 491
f 483 478 464
f 471 478 483
f 285 277 481
f 481 480 285
f 277 482 481
f 482 492 481
f 481 492 479
f 481 479 484
f 484 480 481
f 463 478 465
f 465 478 471
f 465 529 463
f 465 472 529
f 465 471 495
f 495 472 465
f 464 443 485
f 474 480 473
f 420 418 425
f 922 832 834
f 834 833 922
f 922 833 832
f 604 592 603
f 603 592 584
f 1274 258 1285
f 1286 1282 1285
f 1285 1282 1274
f 1285 293 1286
f 1285 258 293
f 1149 1282 1197
f 1149 1112 1055
f 1197 1112 1149
f 1149 1055 1147
f 1149 1148 1151
f 1147 1148 1149
f 1149 1151 581
f 581 580 1149
f 593 592 591
f 591 583 593
f 591 592 601
f 600 590 591
f 591 601 600
f 590 294 591
f 294 583 591
f 186 181 192
f 181 211 192
f 182 223 225
f 225 211 182
f 152 166 130
f 142 148 152
f 152 130 142
f 148 154 152
f 152 154 166
f 186 192 180
f 171 178 180
f 164 166 167
f 167 178 164
f 167 166 179
f 179 187 167
f 167 180 178
f 167 187 186
f 186 180 167
f 137 95 94
f 137 91 138
f 94 91 137
f 137 138 135
f 135 97 137
f 97 95 137
f 151 158 153
f 153 158 129
f 148 147 153
f 153 147 151
f 153 154 148
f 153 129 179
f 179 166 153
f 166 154 153
f 215 195 196
f 215 216 191
f 215 214 216
f 215 196 214
f 191 177 215
f 177 174 215
f 886 883 956
f 956 884 886
f 885 884 956
f 883 952 956
f 956 952 937
f 937 730 956
f 956 730 885
f 886 884 876
f 775 774 876
f 876 875 886
f 876 774 875
f 1058 1067 1059
f 1059 1000 1058
f 1058 1000 999
f 1068 1067 1058
f 1058 1040 1068
f 999 1040 1058
f 112 308 108
f 108 110 112
f 108 308 53
f 53 309 108
f 111 110 122
f 107 109 111
f 111 109 112
f 112 110 111
f 131 107 111
f 111 122 131
f 144 136 121
f 143 136 144
f 144 121 142
f 142 143 144
f 139 149 26
f 139 157 155
f 150 149 139
f 139 155 150
f 26 58 139
f 58 157 139
f 510 511 1230
f 60 511 510
f 1230 59 510
f 59 60 510
f 62 306 25
f 25 306 305
f 25 305 56
f 25 56 24
f 24 10 25
f 9 62 25
f 25 10 9
f 92 91 89
f 168 90 92
f 92 89 168
f 92 90 93
f 93 138 92
f 138 91 92
f 659 719 726
f 726 719 718
f 726 697 659
f 726 718 725
f 658 697 726
f 726 725 658
f 866 953 955
f 878 879 880
f 878 897 879
f 884 897 878
f 317 312 385
f 346 312 317
f 385 322 317
f 317 322 346
f 398 318 322
f 398 322 559
f 86 352 1252
f 352 318 1252
f 1251 86 1252
f 318 398 1252
f 456 453 455
f 456 455 77
f 456 77 76
f 76 458 456
f 356 352 377
f 352 1291 377
f 377 373 356
f 375 373 377
f 377 1291 1292
f 377 378 375
f 355 30 31
f 31 378 355
f 355 377 1292
f 378 377 355
f 440 439 412
f 413 409 410
f 438 409 413
f 426 438 413
f 413 410 422
f 422 426 413
f 442 453 457
f 457 439 442
f 457 441 439
f 434 441 457
f 457 436 434
f 457 458 436
f 457 456 458
f 453 456 457
f 272 203 271
f 270 271 269
f 200 199 188
f 188 219 200
f 227 234 226
f 234 241 226
f 226 205 227
f 204 205 226
f 239 261 267
f 267 242 239
f 267 261 266
f 266 287 267
f 289 288 286
f 289 287 288
f 286 272 289
f 609 615 608
f 608 615 613
f 576 612 521
f 576 1288 577
f 576 521 1288
f 576 577 604
f 479 492 494
f 494 483 479
f 491 493 494
f 494 492 491
f 471 483 496
f 496 493 495
f 495 471 496
f 496 494 493
f 483 494 496
f 479 483 486
f 484 479 486
f 486 485 484
f 486 483 464
f 464 485 486
f 198 189 199
f 198 217 189
f 428 423 419
f 419 420 428
f 420 425 428
f 1282 1149 1283
f 1283 252 251
f 251 255 1283
f 212 192 211
f 213 194 212
f 212 207 213
f 212 225 207
f 211 225 212
f 224 225 223
f 207 225 224
f 224 223 205
f 205 207 224
f 171 180 193
f 193 180 192
f 192 212 193
f 194 171 193
f 193 212 194
f 197 215 174
f 195 215 197
f 109 195 197
f 197 174 113
f 113 109 197
f 775 876 757
f 772 775 757
f 757 771 772
f 877 876 884
f 877 878 880
f 884 878 877
f 877 757 876
f 880 771 877
f 771 757 877
f 122 110 127
f 110 108 127
f 897 866 882
f 882 881 770
f 770 897 882
f 710 717 882
f 717 881 882
f 882 955 710
f 882 866 955
f 953 866 898
f 898 954 955
f 955 953 898
f 885 954 898
f 898 884 885
f 898 897 884
f 898 866 897
f 406 408 316
f 324 316 408
f 313 316 324
f 373 372 379
f 356 373 379
f 559 1251 319
f 1240 1241 30
f 30 355 1240
f 1240 355 1241
f 1292 1241 376
f 376 355 1292
f 1241 355 376
f 371 369 311
f 311 407 371
f 381 369 371
f 371 370 372
f 363 381 371
f 371 372 363
f 406 316 314
f 314 316 313
f 450 451 439
f 439 440 450
f 290 271 270
f 270 242 290
f 287 289 290
f 242 267 290
f 290 267 287
f 272 271 290
f 290 289 272
f 206 207 205
f 218 207 206
f 201 271 203
f 201 269 271
f 201 203 202
f 201 206 269
f 199 200 411
f 268 241 270
f 270 269 268
f 269 206 268
f 268 205 204
f 268 206 205
f 581 582 594
f 1147 587 594
f 594 582 1147
f 611 576 604
f 476 443 452
f 452 489 476
f 476 485 443
f 426 423 427
f 423 428 427
f 1284 1271 1282
f 1282 1283 1284
f 256 1271 1284
f 1284 255 256
f 1284 1283 255
f 254 580 253
f 254 1149 580
f 307 127 108
f 309 126 307
f 307 108 309
f 120 119 121
f 120 126 119
f 122 127 120
f 120 307 126
f 127 307 120
f 121 136 120
f 120 136 122
f 313 324 345
f 345 324 408
f 356 379 345
f 385 344 345
f 345 408 385
f 345 346 356
f 345 344 346
f 372 370 354
f 354 379 372
f 370 314 354
f 354 314 313
f 559 319 320
f 1251 1252 320
f 320 319 1251
f 315 371 407
f 370 371 315
f 315 407 384
f 315 314 370
f 384 406 315
f 406 314 315
f 218 206 210
f 214 218 210
f 202 209 210
f 216 214 210
f 210 209 216
f 210 201 202
f 206 201 210
f 417 411 200
f 474 473 417
f 430 425 418
f 430 429 425
f 411 429 430
f 418 217 430
f 217 198 430
f 430 198 199
f 199 411 430
f 240 226 241
f 241 268 240
f 204 226 240
f 240 268 204
f 607 594 587
f 607 587 588
f 588 597 607
f 607 597 609
f 609 608 607
f 490 489 416
f 490 476 489
f 490 480 484
f 490 473 480
f 484 485 490
f 485 476 490
f 415 428 425
f 425 429 415
f 415 427 428
f 487 489 452
f 1272 1283 1149
f 1149 254 1272
f 1272 254 253
f 253 252 1272
f 252 1283 1272
f 313 345 357
f 357 345 379
f 357 354 313
f 379 354 357
f 321 398 559
f 559 320 321
f 321 1252 398
f 321 320 1252
f 275 200 219
f 275 417 200
f 411 417 475
f 416 429 475
f 475 429 411
f 475 417 473
f 475 490 416
f 473 490 475
f 594 595 586
f 586 585 581
f 581 594 586
f 585 586 605
f 605 586 595
f 584 585 605
f 605 603 584
f 604 603 605
f 605 611 604
f 612 576 606
f 576 611 606
f 611 605 606
f 606 605 595
f 414 450 440
f 414 440 412
f 451 450 414
f 412 426 414
f 452 451 414
f 414 487 452
f 426 427 414
f 427 487 414
f 416 489 477
f 477 429 416
f 477 415 429
f 474 417 274
f 417 275 274
f 274 219 474
f 274 275 219
f 613 612 614
f 612 606 614
f 614 608 613
f 489 487 488
f 488 477 489
f 415 477 488
f 427 415 488
f 488 487 427
f 596 606 595
f 596 614 606
f 596 595 594
f 594 607 596
f 596 607 608
f 608 614 596
f 914 909 1108
f 1108 1107 914
f 914 1107 917
f 1107 1106 917
f 1104 917 1106
f 913 917 1104
f 913 1104 1105
f 915 913 1105

